M48
;Layer_Color=9474304
;FILE_FORMAT=2:5
INCH,LZ
;TYPE=PLATED
T1F00S00C0.01000
T2F00S00C0.02000
T3F00S00C0.03900
T4F00S00C0.04724
T5F00S00C0.13780
%
T01
X0024409Y0034449
X0033296Y003944
X0029528Y0046949
X0034154Y005315
X0050295Y0043799
X0050374Y0039055
X0050394Y0034055
X0047884Y002687
X0049685Y0021457
X0054528Y0023819
X0092323Y0027559
X0092421Y0036811
Y0046457
X0200787Y0051181
X0191634Y003248
X0222146Y0050984
X0219587Y0056299
X022313Y0080216
X0212239Y0096294
X0181428Y0097835
X0179626Y0117815
X0192609Y012313
X0197047Y0133071
X0205807Y0137795
X0188386Y0143701
X0153051Y0106496
X01484Y0079902
X0113878Y007185
X0105413Y0069685
X0105118Y0062008
X00786Y0066402
X0065158Y0114567
X0102756Y0110531
X0113878Y009685
X0173031Y0061909
X0182972Y0068799
X0192126Y0072835
X0052362Y0075295
Y0083366
X004872Y0080118
X0048327Y0087752
X0048819Y0094095
X004872Y0098228
X0052264Y0091732
X0024409Y0091437
X0027953Y0087519
X0020472Y0095177
X00387Y012313
X0039075Y0061319
T02
X0008661Y003061
Y0039715
Y0048819
Y0057923
Y0067027
Y0076132
Y0085236
Y009434
Y0103445
T03
X0034075Y0143996
X0044075
T04
X0084784Y0143996
X0094784
X0104783
X0122776
X0132776
X0142776
X0050197Y0103248
Y0067815
T05
X0010827Y0014665
X0239173
Y0156398
X0010827
M30
