G04*
G04 #@! TF.GenerationSoftware,Altium Limited,Altium Designer,18.1.7 (191)*
G04*
G04 Layer_Color=65535*
%FSLAX25Y25*%
%MOIN*%
G70*
G01*
G75*
%ADD10C,0.00787*%
%ADD11C,0.00472*%
%ADD12C,0.01000*%
%ADD13C,0.00591*%
%ADD14C,0.00800*%
%ADD15C,0.00100*%
%ADD16C,0.00394*%
%ADD17C,0.00551*%
%ADD18C,0.00701*%
%ADD19C,0.00700*%
%ADD20R,0.02000X0.06000*%
%ADD21R,0.06000X0.02000*%
G36*
X84408Y84809D02*
X84480D01*
Y84738D01*
Y84666D01*
Y84595D01*
Y84524D01*
Y84452D01*
Y84381D01*
Y84310D01*
Y84238D01*
Y84167D01*
Y84095D01*
Y84024D01*
X84979D01*
Y83953D01*
X85408D01*
Y83881D01*
X85194D01*
Y83810D01*
X84480D01*
Y83738D01*
Y83667D01*
Y83596D01*
Y83524D01*
Y83453D01*
Y83381D01*
Y83310D01*
X84408D01*
Y83239D01*
Y83167D01*
Y83096D01*
Y83025D01*
Y82953D01*
Y82882D01*
X84337D01*
Y82953D01*
Y83025D01*
Y83096D01*
Y83167D01*
X84266D01*
Y83239D01*
Y83310D01*
Y83381D01*
Y83453D01*
Y83524D01*
Y83596D01*
Y83667D01*
Y83738D01*
Y83810D01*
X83837D01*
Y83881D01*
X83409D01*
Y83953D01*
X83480D01*
Y84024D01*
X84266D01*
Y84095D01*
Y84167D01*
Y84238D01*
Y84310D01*
Y84381D01*
Y84452D01*
X84337D01*
Y84524D01*
Y84595D01*
Y84666D01*
Y84738D01*
Y84809D01*
Y84881D01*
X84408D01*
Y84809D01*
D02*
G37*
G36*
X96544Y81525D02*
Y81454D01*
Y81383D01*
Y81311D01*
Y81240D01*
Y81169D01*
X96616D01*
Y81097D01*
Y81026D01*
Y80954D01*
Y80883D01*
Y80812D01*
Y80740D01*
Y80669D01*
Y80597D01*
X97329D01*
Y80526D01*
X97615D01*
Y80455D01*
X97044D01*
Y80383D01*
X96616D01*
Y80312D01*
Y80240D01*
Y80169D01*
X96544D01*
Y80098D01*
Y80026D01*
Y79955D01*
Y79883D01*
Y79812D01*
Y79741D01*
Y79669D01*
Y79598D01*
X96401D01*
Y79669D01*
Y79741D01*
Y79812D01*
Y79883D01*
Y79955D01*
Y80026D01*
Y80098D01*
Y80169D01*
Y80240D01*
Y80312D01*
Y80383D01*
X96187D01*
Y80455D01*
X95616D01*
Y80526D01*
X95473D01*
Y80597D01*
X96044D01*
Y80669D01*
X96401D01*
Y80740D01*
Y80812D01*
Y80883D01*
Y80954D01*
Y81026D01*
Y81097D01*
Y81169D01*
Y81240D01*
Y81311D01*
X96473D01*
Y81383D01*
Y81454D01*
Y81525D01*
Y81597D01*
X96544D01*
Y81525D01*
D02*
G37*
G36*
X85051Y78027D02*
X85479D01*
Y77956D01*
X85693D01*
Y77885D01*
X85908D01*
Y77813D01*
X86050D01*
Y77742D01*
X86122D01*
Y77671D01*
X86264D01*
Y77599D01*
X86336D01*
Y77528D01*
X86407D01*
Y77456D01*
X86479D01*
Y77385D01*
X86550D01*
Y77314D01*
Y77242D01*
X86621D01*
Y77171D01*
X86693D01*
Y77099D01*
Y77028D01*
X86764D01*
Y76957D01*
Y76885D01*
X86835D01*
Y76814D01*
Y76743D01*
Y76671D01*
X86907D01*
Y76600D01*
Y76528D01*
Y76457D01*
Y76385D01*
Y76314D01*
X86978D01*
Y76243D01*
Y76171D01*
Y76100D01*
Y76029D01*
Y75957D01*
Y75886D01*
Y75814D01*
Y75743D01*
Y75672D01*
Y75600D01*
Y75529D01*
X86907D01*
Y75458D01*
Y75386D01*
X87192D01*
Y75458D01*
X87692D01*
Y75529D01*
X88121D01*
Y75600D01*
X88335D01*
Y75672D01*
X88406D01*
Y75743D01*
Y75814D01*
Y75886D01*
X88477D01*
Y75957D01*
Y76029D01*
X88549D01*
Y76100D01*
Y76171D01*
Y76243D01*
X88620D01*
Y76314D01*
Y76385D01*
Y76457D01*
X88692D01*
Y76528D01*
Y76600D01*
X88763D01*
Y76671D01*
Y76743D01*
Y76814D01*
X88834D01*
Y76885D01*
Y76957D01*
Y77028D01*
X88906D01*
Y77099D01*
Y77171D01*
X88977D01*
Y77242D01*
Y77314D01*
Y77385D01*
X89048D01*
Y77456D01*
X89120D01*
Y77528D01*
X89191D01*
Y77599D01*
X89263D01*
Y77671D01*
X89334D01*
Y77742D01*
X89477D01*
Y77813D01*
X89691D01*
Y77885D01*
X90405D01*
Y77813D01*
X90619D01*
Y77742D01*
X90762D01*
Y77671D01*
X90833D01*
Y77599D01*
X90905D01*
Y77528D01*
X90976D01*
Y77456D01*
X91047D01*
Y77385D01*
Y77314D01*
X91119D01*
Y77242D01*
Y77171D01*
X91190D01*
Y77099D01*
Y77028D01*
Y76957D01*
X91262D01*
Y76885D01*
Y76814D01*
X91333D01*
Y76743D01*
Y76671D01*
Y76600D01*
X91404D01*
Y76528D01*
Y76457D01*
Y76385D01*
X91476D01*
Y76314D01*
Y76243D01*
X91547D01*
Y76171D01*
Y76100D01*
X91619D01*
Y76029D01*
X91690D01*
Y76100D01*
X92261D01*
Y76171D01*
X92975D01*
Y76243D01*
X93046D01*
Y76314D01*
Y76385D01*
X93118D01*
Y76457D01*
Y76528D01*
X93189D01*
Y76600D01*
Y76671D01*
X93260D01*
Y76743D01*
Y76814D01*
X93332D01*
Y76885D01*
X93403D01*
Y76957D01*
X93475D01*
Y77028D01*
Y77099D01*
X93546D01*
Y77171D01*
X93617D01*
Y77242D01*
X93689D01*
Y77314D01*
X93760D01*
Y77385D01*
X93903D01*
Y77456D01*
X93974D01*
Y77528D01*
X94046D01*
Y77599D01*
X94188D01*
Y77671D01*
X94331D01*
Y77742D01*
X94474D01*
Y77813D01*
X94617D01*
Y77885D01*
X94831D01*
Y77956D01*
X95116D01*
Y78027D01*
X98971D01*
Y77956D01*
Y77885D01*
Y77813D01*
Y77742D01*
Y77671D01*
Y77599D01*
Y77528D01*
Y77456D01*
Y77385D01*
Y77314D01*
Y77242D01*
Y77171D01*
Y77099D01*
Y77028D01*
X95259D01*
Y76957D01*
X95045D01*
Y76885D01*
X94902D01*
Y76814D01*
X94760D01*
Y76743D01*
X94617D01*
Y76671D01*
X94545D01*
Y76600D01*
X94474D01*
Y76528D01*
X94403D01*
Y76457D01*
X94331D01*
Y76385D01*
X94260D01*
Y76314D01*
X94617D01*
Y76385D01*
X95616D01*
Y76457D01*
X96758D01*
Y76528D01*
X98043D01*
Y76600D01*
X100185D01*
Y76671D01*
Y76743D01*
Y76814D01*
Y76885D01*
Y76957D01*
Y77028D01*
Y77099D01*
Y77171D01*
Y77242D01*
Y77314D01*
Y77385D01*
Y77456D01*
Y77528D01*
Y77599D01*
Y77671D01*
Y77742D01*
Y77813D01*
Y77885D01*
Y77956D01*
Y78027D01*
X105539D01*
Y77956D01*
Y77885D01*
Y77813D01*
Y77742D01*
Y77671D01*
Y77599D01*
Y77528D01*
Y77456D01*
Y77385D01*
Y77314D01*
Y77242D01*
Y77171D01*
Y77099D01*
Y77028D01*
X101184D01*
Y76957D01*
Y76885D01*
Y76814D01*
Y76743D01*
Y76671D01*
Y76600D01*
X105396D01*
Y76528D01*
X106681D01*
Y76457D01*
X107324D01*
Y76385D01*
X107681D01*
Y76314D01*
X107966D01*
Y76243D01*
X108180D01*
Y76171D01*
X106181D01*
Y76100D01*
X104111D01*
Y76029D01*
X102612D01*
Y75957D01*
X101327D01*
Y75886D01*
X101184D01*
Y75814D01*
Y75743D01*
Y75672D01*
Y75600D01*
Y75529D01*
X105325D01*
Y75458D01*
Y75386D01*
Y75315D01*
Y75243D01*
Y75172D01*
Y75101D01*
Y75029D01*
Y74958D01*
Y74886D01*
Y74815D01*
Y74744D01*
Y74672D01*
X101184D01*
Y74601D01*
Y74529D01*
Y74458D01*
Y74387D01*
Y74315D01*
Y74244D01*
Y74173D01*
Y74101D01*
Y74030D01*
Y73958D01*
Y73887D01*
Y73816D01*
Y73744D01*
Y73673D01*
Y73601D01*
Y73530D01*
Y73459D01*
Y73387D01*
Y73316D01*
Y73245D01*
Y73173D01*
Y73102D01*
Y73030D01*
X105539D01*
Y72959D01*
Y72888D01*
Y72816D01*
Y72745D01*
Y72673D01*
Y72602D01*
Y72531D01*
Y72459D01*
Y72388D01*
Y72316D01*
Y72245D01*
Y72174D01*
Y72102D01*
Y72031D01*
X100185D01*
Y72102D01*
Y72174D01*
Y72245D01*
Y72316D01*
Y72388D01*
Y72459D01*
Y72531D01*
Y72602D01*
Y72673D01*
Y72745D01*
Y72816D01*
Y72888D01*
Y72959D01*
Y73030D01*
Y73102D01*
Y73173D01*
Y73245D01*
Y73316D01*
Y73387D01*
Y73459D01*
Y73530D01*
Y73601D01*
Y73673D01*
Y73744D01*
Y73816D01*
Y73887D01*
Y73958D01*
Y74030D01*
Y74101D01*
Y74173D01*
Y74244D01*
Y74315D01*
Y74387D01*
Y74458D01*
Y74529D01*
Y74601D01*
Y74672D01*
Y74744D01*
Y74815D01*
Y74886D01*
Y74958D01*
Y75029D01*
Y75101D01*
Y75172D01*
Y75243D01*
Y75315D01*
Y75386D01*
Y75458D01*
Y75529D01*
Y75600D01*
Y75672D01*
Y75743D01*
Y75814D01*
X99186D01*
Y75743D01*
X98329D01*
Y75672D01*
X97472D01*
Y75600D01*
X96687D01*
Y75529D01*
X96044D01*
Y75458D01*
X95331D01*
Y75386D01*
X94688D01*
Y75315D01*
X94117D01*
Y75243D01*
X93831D01*
Y75172D01*
Y75101D01*
Y75029D01*
Y74958D01*
Y74886D01*
Y74815D01*
Y74744D01*
X93903D01*
Y74672D01*
Y74601D01*
Y74529D01*
Y74458D01*
Y74387D01*
X93974D01*
Y74315D01*
Y74244D01*
Y74173D01*
X94046D01*
Y74101D01*
Y74030D01*
X94117D01*
Y73958D01*
X94188D01*
Y73887D01*
Y73816D01*
X94260D01*
Y73744D01*
X94331D01*
Y73673D01*
X94403D01*
Y73601D01*
X94474D01*
Y73530D01*
X94545D01*
Y73459D01*
X94617D01*
Y73387D01*
X94688D01*
Y73316D01*
X94831D01*
Y73245D01*
X94974D01*
Y73173D01*
X95188D01*
Y73102D01*
X95545D01*
Y73030D01*
X98971D01*
Y72959D01*
Y72888D01*
Y72816D01*
Y72745D01*
Y72673D01*
Y72602D01*
Y72531D01*
Y72459D01*
Y72388D01*
Y72316D01*
Y72245D01*
Y72174D01*
Y72102D01*
Y72031D01*
X95473D01*
Y72102D01*
X95045D01*
Y72174D01*
X94831D01*
Y72245D01*
X94617D01*
Y72316D01*
X94474D01*
Y72388D01*
X94331D01*
Y72459D01*
X94188D01*
Y72531D01*
X94117D01*
Y72602D01*
X93974D01*
Y72673D01*
X93903D01*
Y72745D01*
X93831D01*
Y72816D01*
X93760D01*
Y72888D01*
X93689D01*
Y72959D01*
X93617D01*
Y73030D01*
X93546D01*
Y73102D01*
X93475D01*
Y73173D01*
X93403D01*
Y73245D01*
Y73316D01*
X93332D01*
Y73387D01*
X93260D01*
Y73459D01*
Y73530D01*
X93189D01*
Y73601D01*
Y73673D01*
X93118D01*
Y73744D01*
Y73816D01*
X93046D01*
Y73887D01*
Y73958D01*
Y74030D01*
X92975D01*
Y74101D01*
Y74173D01*
Y74244D01*
Y74315D01*
X92903D01*
Y74387D01*
Y74458D01*
Y74529D01*
Y74601D01*
Y74672D01*
X92832D01*
Y74744D01*
Y74815D01*
Y74886D01*
Y74958D01*
Y75029D01*
Y75101D01*
X92475D01*
Y75029D01*
X92047D01*
Y74958D01*
X91975D01*
Y74886D01*
X92047D01*
Y74815D01*
Y74744D01*
X92118D01*
Y74672D01*
Y74601D01*
Y74529D01*
X92190D01*
Y74458D01*
Y74387D01*
X92261D01*
Y74315D01*
Y74244D01*
Y74173D01*
X92332D01*
Y74101D01*
Y74030D01*
Y73958D01*
X92404D01*
Y73887D01*
Y73816D01*
X92475D01*
Y73744D01*
Y73673D01*
Y73601D01*
X92546D01*
Y73530D01*
Y73459D01*
Y73387D01*
X92618D01*
Y73316D01*
Y73245D01*
X92689D01*
Y73173D01*
Y73102D01*
Y73030D01*
X92761D01*
Y72959D01*
Y72888D01*
X92832D01*
Y72816D01*
Y72745D01*
Y72673D01*
X92903D01*
Y72602D01*
Y72531D01*
Y72459D01*
X92975D01*
Y72388D01*
Y72316D01*
X93046D01*
Y72245D01*
X91975D01*
Y72316D01*
Y72388D01*
X91904D01*
Y72459D01*
Y72531D01*
Y72602D01*
X91833D01*
Y72673D01*
Y72745D01*
Y72816D01*
X91761D01*
Y72888D01*
Y72959D01*
X91690D01*
Y73030D01*
Y73102D01*
Y73173D01*
X91619D01*
Y73245D01*
Y73316D01*
X91547D01*
Y73387D01*
Y73459D01*
Y73530D01*
X91476D01*
Y73601D01*
Y73673D01*
Y73744D01*
X91404D01*
Y73816D01*
Y73887D01*
X91333D01*
Y73958D01*
Y74030D01*
Y74101D01*
X91262D01*
Y74173D01*
Y74244D01*
Y74315D01*
X91190D01*
Y74387D01*
Y74458D01*
X91119D01*
Y74529D01*
Y74601D01*
Y74672D01*
X91047D01*
Y74744D01*
Y74815D01*
X90690D01*
Y74744D01*
X90333D01*
Y74672D01*
X89905D01*
Y74601D01*
X89548D01*
Y74529D01*
X89120D01*
Y74458D01*
X88906D01*
Y74387D01*
Y74315D01*
X88834D01*
Y74244D01*
Y74173D01*
Y74101D01*
X88763D01*
Y74030D01*
Y73958D01*
X88692D01*
Y73887D01*
Y73816D01*
Y73744D01*
X88620D01*
Y73673D01*
Y73601D01*
Y73530D01*
X88549D01*
Y73459D01*
Y73387D01*
X88477D01*
Y73316D01*
Y73245D01*
Y73173D01*
X88406D01*
Y73102D01*
Y73030D01*
Y72959D01*
X88335D01*
Y72888D01*
Y72816D01*
X88263D01*
Y72745D01*
Y72673D01*
Y72602D01*
X88192D01*
Y72531D01*
Y72459D01*
Y72388D01*
X88121D01*
Y72316D01*
Y72245D01*
X87050D01*
Y72316D01*
X87121D01*
Y72388D01*
Y72459D01*
Y72531D01*
X87192D01*
Y72602D01*
Y72673D01*
X87264D01*
Y72745D01*
Y72816D01*
Y72888D01*
X87335D01*
Y72959D01*
Y73030D01*
X87407D01*
Y73102D01*
Y73173D01*
Y73245D01*
X87478D01*
Y73316D01*
Y73387D01*
Y73459D01*
X87549D01*
Y73530D01*
Y73601D01*
X87621D01*
Y73673D01*
Y73744D01*
Y73816D01*
X87692D01*
Y73887D01*
Y73958D01*
Y74030D01*
X87764D01*
Y74101D01*
Y74173D01*
X87407D01*
Y74101D01*
X87050D01*
Y74030D01*
X86764D01*
Y73958D01*
X86479D01*
Y73887D01*
X86193D01*
Y73816D01*
X85908D01*
Y73744D01*
X85622D01*
Y73673D01*
X85336D01*
Y73601D01*
X85051D01*
Y73530D01*
X84837D01*
Y73459D01*
X84551D01*
Y73387D01*
X84266D01*
Y73316D01*
X84051D01*
Y73245D01*
X83837D01*
Y73173D01*
X83623D01*
Y73102D01*
X83338D01*
Y73030D01*
X83123D01*
Y72959D01*
X82909D01*
Y72888D01*
X82695D01*
Y72816D01*
X82552D01*
Y72745D01*
X82338D01*
Y72673D01*
X82124D01*
Y72602D01*
X81910D01*
Y72531D01*
X81696D01*
Y72459D01*
X81553D01*
Y72388D01*
Y72316D01*
Y72245D01*
Y72174D01*
Y72102D01*
X80696D01*
Y72031D01*
X80482D01*
Y71960D01*
X80339D01*
Y71888D01*
X80196D01*
Y71817D01*
X80054D01*
Y71745D01*
X79911D01*
Y71674D01*
X79768D01*
Y71603D01*
X79554D01*
Y71531D01*
X79411D01*
Y71460D01*
X79268D01*
Y71388D01*
X79197D01*
Y71317D01*
X79054D01*
Y71246D01*
X78912D01*
Y71174D01*
X78769D01*
Y71103D01*
X78626D01*
Y71031D01*
X78555D01*
Y70960D01*
X78412D01*
Y70889D01*
X78269D01*
Y70817D01*
X78198D01*
Y70746D01*
X78055D01*
Y70675D01*
X77912D01*
Y70603D01*
X77841D01*
Y70532D01*
X77698D01*
Y70460D01*
X77627D01*
Y70389D01*
X77484D01*
Y70318D01*
X77412D01*
Y70246D01*
X77270D01*
Y70175D01*
X77198D01*
Y70104D01*
X77127D01*
Y70032D01*
X76984D01*
Y69961D01*
X76913D01*
Y69889D01*
X76841D01*
Y69818D01*
X76770D01*
Y69747D01*
X76627D01*
Y69675D01*
X76556D01*
Y69604D01*
X76484D01*
Y69532D01*
X76413D01*
Y69461D01*
X76342D01*
Y69390D01*
X76270D01*
Y69318D01*
X76199D01*
Y69247D01*
X76127D01*
Y69175D01*
X76056D01*
Y69104D01*
X75985D01*
Y69033D01*
X75913D01*
Y68961D01*
X75842D01*
Y68890D01*
X75770D01*
Y68818D01*
X75699D01*
Y68747D01*
X75628D01*
Y68676D01*
X75556D01*
Y68604D01*
Y68533D01*
X75485D01*
Y68462D01*
X75414D01*
Y68390D01*
X75342D01*
Y68319D01*
Y68247D01*
X75271D01*
Y68176D01*
X75199D01*
Y68105D01*
X75128D01*
Y68033D01*
Y67962D01*
X75057D01*
Y67891D01*
Y67819D01*
X74985D01*
Y67748D01*
Y67676D01*
X74914D01*
Y67605D01*
X74843D01*
Y67533D01*
Y67462D01*
X74771D01*
Y67391D01*
Y67319D01*
Y67248D01*
X74700D01*
Y67177D01*
Y67105D01*
X74628D01*
Y67034D01*
Y66962D01*
Y66891D01*
X74557D01*
Y66820D01*
Y66748D01*
Y66677D01*
Y66606D01*
X74486D01*
Y66534D01*
Y66463D01*
Y66391D01*
Y66320D01*
Y66249D01*
Y66177D01*
Y66106D01*
X74414D01*
Y66177D01*
Y66249D01*
X74343D01*
Y66320D01*
Y66391D01*
X74271D01*
Y66463D01*
Y66534D01*
X74200D01*
Y66606D01*
Y66677D01*
Y66748D01*
X74129D01*
Y66820D01*
Y66891D01*
Y66962D01*
X74057D01*
Y67034D01*
Y67105D01*
Y67177D01*
Y67248D01*
Y67319D01*
X73986D01*
Y67391D01*
Y67462D01*
Y67533D01*
Y67605D01*
Y67676D01*
Y67748D01*
Y67819D01*
Y67891D01*
Y67962D01*
Y68033D01*
Y68105D01*
Y68176D01*
Y68247D01*
Y68319D01*
Y68390D01*
Y68462D01*
Y68533D01*
X74057D01*
Y68604D01*
Y68676D01*
Y68747D01*
Y68818D01*
Y68890D01*
X74129D01*
Y68961D01*
Y69033D01*
Y69104D01*
X74200D01*
Y69175D01*
Y69247D01*
Y69318D01*
X74271D01*
Y69390D01*
Y69461D01*
X74343D01*
Y69532D01*
Y69604D01*
X74414D01*
Y69675D01*
Y69747D01*
X74486D01*
Y69818D01*
Y69889D01*
X74557D01*
Y69961D01*
X74628D01*
Y70032D01*
Y70104D01*
X74700D01*
Y70175D01*
X74771D01*
Y70246D01*
Y70318D01*
X74843D01*
Y70389D01*
X74914D01*
Y70460D01*
X74985D01*
Y70532D01*
X75057D01*
Y70603D01*
X75128D01*
Y70675D01*
X75199D01*
Y70746D01*
X75271D01*
Y70817D01*
Y70889D01*
X75342D01*
Y70960D01*
X75485D01*
Y71031D01*
X75556D01*
Y71103D01*
X75628D01*
Y71174D01*
X75699D01*
Y71246D01*
X75770D01*
Y71317D01*
X75842D01*
Y71388D01*
X75985D01*
Y71460D01*
X76056D01*
Y71531D01*
X76127D01*
Y71603D01*
X76270D01*
Y71674D01*
X76342D01*
Y71745D01*
X76484D01*
Y71817D01*
X76556D01*
Y71888D01*
X76699D01*
Y71960D01*
X76770D01*
Y72031D01*
X73058D01*
Y72102D01*
Y72174D01*
Y72245D01*
Y72316D01*
Y72388D01*
Y72459D01*
Y72531D01*
Y72602D01*
Y72673D01*
Y72745D01*
Y72816D01*
Y72888D01*
Y72959D01*
Y73030D01*
X77769D01*
Y73102D01*
X78055D01*
Y73173D01*
X78198D01*
Y73245D01*
X78269D01*
Y73316D01*
X78341D01*
Y73387D01*
Y73459D01*
X78412D01*
Y73530D01*
Y73601D01*
X78483D01*
Y73673D01*
Y73744D01*
Y73816D01*
Y73887D01*
Y73958D01*
Y74030D01*
Y74101D01*
Y74173D01*
X78412D01*
Y74244D01*
Y74315D01*
X78341D01*
Y74387D01*
Y74458D01*
X78269D01*
Y74529D01*
X78126D01*
Y74601D01*
X77912D01*
Y74672D01*
X74486D01*
Y74744D01*
X74129D01*
Y74815D01*
X73914D01*
Y74886D01*
X73772D01*
Y74958D01*
X73700D01*
Y75029D01*
X73558D01*
Y75101D01*
X73486D01*
Y75172D01*
X73415D01*
Y75243D01*
X73343D01*
Y75315D01*
Y75386D01*
X73272D01*
Y75458D01*
X73201D01*
Y75529D01*
Y75600D01*
X73129D01*
Y75672D01*
Y75743D01*
X73058D01*
Y75814D01*
Y75886D01*
Y75957D01*
Y76029D01*
X72986D01*
Y76100D01*
Y76171D01*
Y76243D01*
Y76314D01*
Y76385D01*
Y76457D01*
Y76528D01*
Y76600D01*
Y76671D01*
Y76743D01*
X73058D01*
Y76814D01*
Y76885D01*
Y76957D01*
Y77028D01*
X73129D01*
Y77099D01*
Y77171D01*
X73201D01*
Y77242D01*
Y77314D01*
X73272D01*
Y77385D01*
X73343D01*
Y77456D01*
X73415D01*
Y77528D01*
Y77599D01*
X73558D01*
Y77671D01*
X73629D01*
Y77742D01*
X73700D01*
Y77813D01*
X73843D01*
Y77885D01*
X74057D01*
Y77956D01*
X74271D01*
Y78027D01*
X79126D01*
Y77956D01*
Y77885D01*
Y77813D01*
Y77742D01*
Y77671D01*
Y77599D01*
Y77528D01*
Y77456D01*
Y77385D01*
Y77314D01*
Y77242D01*
Y77171D01*
Y77099D01*
Y77028D01*
X74486D01*
Y76957D01*
X74343D01*
Y76885D01*
X74271D01*
Y76814D01*
X74200D01*
Y76743D01*
X74129D01*
Y76671D01*
Y76600D01*
X74057D01*
Y76528D01*
Y76457D01*
Y76385D01*
Y76314D01*
Y76243D01*
Y76171D01*
Y76100D01*
Y76029D01*
Y75957D01*
X74129D01*
Y75886D01*
Y75814D01*
X74200D01*
Y75743D01*
X74271D01*
Y75672D01*
X74343D01*
Y75600D01*
X74486D01*
Y75529D01*
X77983D01*
Y75458D01*
X78341D01*
Y75386D01*
X78555D01*
Y75315D01*
X78697D01*
Y75243D01*
X78840D01*
Y75172D01*
X78912D01*
Y75101D01*
X78983D01*
Y75029D01*
X79054D01*
Y74958D01*
X79126D01*
Y74886D01*
X79197D01*
Y74815D01*
Y74744D01*
X79268D01*
Y74672D01*
Y74601D01*
X79340D01*
Y74529D01*
Y74458D01*
Y74387D01*
X79411D01*
Y74315D01*
Y74244D01*
Y74173D01*
Y74101D01*
Y74030D01*
Y73958D01*
Y73887D01*
Y73816D01*
Y73744D01*
Y73673D01*
Y73601D01*
Y73530D01*
Y73459D01*
Y73387D01*
Y73316D01*
Y73245D01*
X79483D01*
Y73316D01*
X79625D01*
Y73387D01*
X79768D01*
Y73459D01*
X79982D01*
Y73530D01*
X80125D01*
Y73601D01*
X80339D01*
Y73673D01*
X80482D01*
Y73744D01*
X80554D01*
Y73816D01*
Y73887D01*
Y73958D01*
Y74030D01*
Y74101D01*
Y74173D01*
Y74244D01*
Y74315D01*
Y74387D01*
Y74458D01*
Y74529D01*
Y74601D01*
Y74672D01*
Y74744D01*
Y74815D01*
Y74886D01*
Y74958D01*
Y75029D01*
Y75101D01*
Y75172D01*
Y75243D01*
Y75315D01*
Y75386D01*
Y75458D01*
Y75529D01*
Y75600D01*
Y75672D01*
Y75743D01*
Y75814D01*
Y75886D01*
Y75957D01*
Y76029D01*
Y76100D01*
Y76171D01*
Y76243D01*
Y76314D01*
Y76385D01*
Y76457D01*
Y76528D01*
Y76600D01*
Y76671D01*
Y76743D01*
Y76814D01*
Y76885D01*
Y76957D01*
Y77028D01*
Y77099D01*
Y77171D01*
Y77242D01*
Y77314D01*
Y77385D01*
Y77456D01*
Y77528D01*
Y77599D01*
Y77671D01*
Y77742D01*
Y77813D01*
Y77885D01*
Y77956D01*
Y78027D01*
Y78099D01*
X85051D01*
Y78027D01*
D02*
G37*
G36*
X87978Y70460D02*
Y70389D01*
Y70318D01*
Y70246D01*
Y70175D01*
Y70104D01*
Y70032D01*
X88049D01*
Y69961D01*
Y69889D01*
Y69818D01*
Y69747D01*
Y69675D01*
Y69604D01*
Y69532D01*
X88192D01*
Y69461D01*
X88763D01*
Y69390D01*
X88977D01*
Y69318D01*
X88406D01*
Y69247D01*
X88049D01*
Y69175D01*
Y69104D01*
Y69033D01*
X87978D01*
Y68961D01*
Y68890D01*
Y68818D01*
Y68747D01*
Y68676D01*
Y68604D01*
Y68533D01*
Y68462D01*
X87906D01*
Y68390D01*
X87835D01*
Y68462D01*
Y68533D01*
Y68604D01*
Y68676D01*
Y68747D01*
Y68818D01*
Y68890D01*
Y68961D01*
Y69033D01*
Y69104D01*
Y69175D01*
Y69247D01*
X87692D01*
Y69318D01*
X87050D01*
Y69390D01*
X86835D01*
Y69461D01*
X87407D01*
Y69532D01*
X87835D01*
Y69604D01*
Y69675D01*
Y69747D01*
Y69818D01*
Y69889D01*
Y69961D01*
Y70032D01*
Y70104D01*
Y70175D01*
X87906D01*
Y70246D01*
Y70318D01*
Y70389D01*
Y70460D01*
Y70532D01*
X87978D01*
Y70460D01*
D02*
G37*
G36*
X95402Y70175D02*
Y70104D01*
Y70032D01*
Y69961D01*
X95473D01*
Y69889D01*
Y69818D01*
Y69747D01*
Y69675D01*
Y69604D01*
Y69532D01*
Y69461D01*
Y69390D01*
Y69318D01*
X95759D01*
Y69247D01*
X96259D01*
Y69175D01*
X96330D01*
Y69104D01*
X95473D01*
Y69033D01*
Y68961D01*
Y68890D01*
Y68818D01*
Y68747D01*
Y68676D01*
X95402D01*
Y68604D01*
Y68533D01*
Y68462D01*
Y68390D01*
Y68319D01*
Y68247D01*
X95331D01*
Y68319D01*
X95259D01*
Y68390D01*
Y68462D01*
Y68533D01*
Y68604D01*
Y68676D01*
Y68747D01*
Y68818D01*
Y68890D01*
Y68961D01*
Y69033D01*
Y69104D01*
X94617D01*
Y69175D01*
X94260D01*
Y69247D01*
X94617D01*
Y69318D01*
X95259D01*
Y69390D01*
Y69461D01*
Y69532D01*
Y69604D01*
Y69675D01*
Y69747D01*
Y69818D01*
Y69889D01*
X95331D01*
Y69961D01*
Y70032D01*
Y70104D01*
Y70175D01*
Y70246D01*
X95402D01*
Y70175D01*
D02*
G37*
G36*
X104611Y70675D02*
X104896D01*
Y70603D01*
X105039D01*
Y70532D01*
X105182D01*
Y70460D01*
X105253D01*
Y70389D01*
X105325D01*
Y70318D01*
Y70246D01*
X105396D01*
Y70175D01*
X105468D01*
Y70104D01*
Y70032D01*
Y69961D01*
Y69889D01*
X105539D01*
Y69818D01*
Y69747D01*
Y69675D01*
Y69604D01*
Y69532D01*
X105468D01*
Y69461D01*
Y69390D01*
Y69318D01*
Y69247D01*
X105396D01*
Y69175D01*
X105325D01*
Y69104D01*
Y69033D01*
X105182D01*
Y68961D01*
X105111D01*
Y68890D01*
X104968D01*
Y68818D01*
X105111D01*
Y68747D01*
X105182D01*
Y68676D01*
X105325D01*
Y68604D01*
X105396D01*
Y68533D01*
Y68462D01*
X105468D01*
Y68390D01*
X105539D01*
Y68319D01*
Y68247D01*
Y68176D01*
Y68105D01*
X105610D01*
Y68033D01*
Y67962D01*
Y67891D01*
Y67819D01*
Y67748D01*
Y67676D01*
X105539D01*
Y67605D01*
Y67533D01*
Y67462D01*
X105468D01*
Y67391D01*
Y67319D01*
X105396D01*
Y67248D01*
Y67177D01*
X105325D01*
Y67105D01*
X105253D01*
Y67034D01*
X105182D01*
Y66962D01*
X105039D01*
Y66891D01*
X104896D01*
Y66820D01*
X104682D01*
Y66748D01*
X101256D01*
Y66820D01*
Y66891D01*
Y66962D01*
Y67034D01*
Y67105D01*
Y67177D01*
Y67248D01*
Y67319D01*
Y67391D01*
Y67462D01*
Y67533D01*
Y67605D01*
Y67676D01*
Y67748D01*
Y67819D01*
Y67891D01*
Y67962D01*
Y68033D01*
Y68105D01*
Y68176D01*
Y68247D01*
Y68319D01*
Y68390D01*
Y68462D01*
Y68533D01*
Y68604D01*
Y68676D01*
Y68747D01*
Y68818D01*
Y68890D01*
Y68961D01*
Y69033D01*
Y69104D01*
Y69175D01*
Y69247D01*
Y69318D01*
Y69390D01*
Y69461D01*
Y69532D01*
Y69604D01*
Y69675D01*
Y69747D01*
Y69818D01*
Y69889D01*
Y69961D01*
Y70032D01*
Y70104D01*
Y70175D01*
Y70246D01*
Y70318D01*
Y70389D01*
Y70460D01*
Y70532D01*
Y70603D01*
Y70675D01*
Y70746D01*
X104611D01*
Y70675D01*
D02*
G37*
G36*
X98257Y70746D02*
X98329D01*
Y70675D01*
X98400D01*
Y70603D01*
X98472D01*
Y70532D01*
X98543D01*
Y70460D01*
Y70389D01*
X98614D01*
Y70318D01*
Y70246D01*
X98686D01*
Y70175D01*
X98757D01*
Y70104D01*
Y70032D01*
X98829D01*
Y69961D01*
X98900D01*
Y69889D01*
Y69818D01*
X98971D01*
Y69747D01*
Y69675D01*
X99043D01*
Y69604D01*
X99114D01*
Y69532D01*
Y69461D01*
X99186D01*
Y69390D01*
Y69318D01*
X99257D01*
Y69247D01*
X99328D01*
Y69175D01*
Y69104D01*
X99400D01*
Y69033D01*
Y68961D01*
X99471D01*
Y68890D01*
X99542D01*
Y68818D01*
Y68747D01*
X99614D01*
Y68676D01*
Y68604D01*
X99685D01*
Y68533D01*
X99757D01*
Y68462D01*
Y68390D01*
X99828D01*
Y68319D01*
Y68247D01*
X99899D01*
Y68176D01*
X99971D01*
Y68105D01*
Y68033D01*
X100042D01*
Y67962D01*
Y67891D01*
X100113D01*
Y67819D01*
X100185D01*
Y67748D01*
Y67676D01*
X100256D01*
Y67605D01*
Y67533D01*
X100328D01*
Y67462D01*
X100399D01*
Y67391D01*
Y67319D01*
X100470D01*
Y67248D01*
Y67177D01*
X100542D01*
Y67105D01*
X100613D01*
Y67034D01*
Y66962D01*
X100685D01*
Y66891D01*
Y66820D01*
X100756D01*
Y66748D01*
X99971D01*
Y66820D01*
X99899D01*
Y66891D01*
Y66962D01*
X99828D01*
Y67034D01*
Y67105D01*
X99757D01*
Y67177D01*
X99685D01*
Y67248D01*
Y67319D01*
X99614D01*
Y67391D01*
Y67462D01*
X99542D01*
Y67533D01*
X99471D01*
Y67605D01*
Y67676D01*
X99400D01*
Y67748D01*
X96830D01*
Y67676D01*
Y67605D01*
X96758D01*
Y67533D01*
X96687D01*
Y67462D01*
Y67391D01*
X96616D01*
Y67319D01*
Y67248D01*
X96544D01*
Y67177D01*
X96473D01*
Y67105D01*
Y67034D01*
X96401D01*
Y66962D01*
Y66891D01*
X96330D01*
Y66820D01*
Y66748D01*
X95545D01*
Y66820D01*
X95616D01*
Y66891D01*
Y66962D01*
X95688D01*
Y67034D01*
X95759D01*
Y67105D01*
Y67177D01*
X95830D01*
Y67248D01*
Y67319D01*
X95902D01*
Y67391D01*
X95973D01*
Y67462D01*
Y67533D01*
X96044D01*
Y67605D01*
Y67676D01*
X96116D01*
Y67748D01*
X96187D01*
Y67819D01*
Y67891D01*
X96259D01*
Y67962D01*
Y68033D01*
X96330D01*
Y68105D01*
X96401D01*
Y68176D01*
Y68247D01*
X96473D01*
Y68319D01*
Y68390D01*
X96544D01*
Y68462D01*
X96616D01*
Y68533D01*
Y68604D01*
X96687D01*
Y68676D01*
Y68747D01*
X96758D01*
Y68818D01*
X96830D01*
Y68890D01*
Y68961D01*
X96901D01*
Y69033D01*
Y69104D01*
X96973D01*
Y69175D01*
X97044D01*
Y69247D01*
Y69318D01*
X97115D01*
Y69390D01*
Y69461D01*
X97187D01*
Y69532D01*
X97258D01*
Y69604D01*
Y69675D01*
X97329D01*
Y69747D01*
Y69818D01*
X97401D01*
Y69889D01*
X97472D01*
Y69961D01*
Y70032D01*
X97544D01*
Y70104D01*
Y70175D01*
X97615D01*
Y70246D01*
X97686D01*
Y70318D01*
Y70389D01*
X97758D01*
Y70460D01*
Y70532D01*
X97829D01*
Y70603D01*
X97900D01*
Y70675D01*
X97972D01*
Y70746D01*
X98043D01*
Y70817D01*
X98257D01*
Y70746D01*
D02*
G37*
G36*
X92475Y70675D02*
Y70603D01*
Y70532D01*
Y70460D01*
Y70389D01*
Y70318D01*
Y70246D01*
Y70175D01*
Y70104D01*
Y70032D01*
Y69961D01*
Y69889D01*
Y69818D01*
Y69747D01*
Y69675D01*
Y69604D01*
Y69532D01*
Y69461D01*
Y69390D01*
Y69318D01*
Y69247D01*
Y69175D01*
Y69104D01*
Y69033D01*
Y68961D01*
Y68890D01*
Y68818D01*
Y68747D01*
Y68676D01*
Y68604D01*
Y68533D01*
Y68462D01*
Y68390D01*
Y68319D01*
Y68247D01*
Y68176D01*
Y68105D01*
Y68033D01*
Y67962D01*
Y67891D01*
Y67819D01*
Y67748D01*
Y67676D01*
Y67605D01*
Y67533D01*
Y67462D01*
Y67391D01*
X95188D01*
Y67319D01*
Y67248D01*
Y67177D01*
Y67105D01*
Y67034D01*
Y66962D01*
Y66891D01*
Y66820D01*
Y66748D01*
X91833D01*
Y66820D01*
Y66891D01*
Y66962D01*
Y67034D01*
Y67105D01*
Y67177D01*
Y67248D01*
Y67319D01*
Y67391D01*
Y67462D01*
Y67533D01*
Y67605D01*
Y67676D01*
Y67748D01*
Y67819D01*
Y67891D01*
Y67962D01*
Y68033D01*
Y68105D01*
Y68176D01*
Y68247D01*
Y68319D01*
Y68390D01*
Y68462D01*
Y68533D01*
Y68604D01*
Y68676D01*
Y68747D01*
Y68818D01*
Y68890D01*
Y68961D01*
Y69033D01*
Y69104D01*
Y69175D01*
Y69247D01*
Y69318D01*
Y69390D01*
Y69461D01*
Y69532D01*
Y69604D01*
Y69675D01*
Y69747D01*
Y69818D01*
Y69889D01*
Y69961D01*
Y70032D01*
Y70104D01*
Y70175D01*
Y70246D01*
Y70318D01*
Y70389D01*
Y70460D01*
Y70532D01*
Y70603D01*
Y70675D01*
Y70746D01*
X92475D01*
Y70675D01*
D02*
G37*
G36*
X76841Y67248D02*
Y67177D01*
Y67105D01*
Y67034D01*
Y66962D01*
Y66891D01*
Y66820D01*
Y66748D01*
Y66677D01*
Y66606D01*
Y66534D01*
Y66463D01*
X77270D01*
Y66391D01*
X77698D01*
Y66320D01*
Y66249D01*
X76913D01*
Y66177D01*
X76841D01*
Y66106D01*
Y66034D01*
Y65963D01*
Y65892D01*
Y65820D01*
Y65749D01*
Y65677D01*
Y65606D01*
X76770D01*
Y65535D01*
Y65463D01*
Y65392D01*
Y65320D01*
Y65249D01*
X76699D01*
Y65320D01*
Y65392D01*
Y65463D01*
Y65535D01*
Y65606D01*
Y65677D01*
Y65749D01*
X76627D01*
Y65820D01*
Y65892D01*
Y65963D01*
Y66034D01*
Y66106D01*
Y66177D01*
Y66249D01*
X76056D01*
Y66320D01*
X75699D01*
Y66391D01*
X75985D01*
Y66463D01*
X76627D01*
Y66534D01*
Y66606D01*
Y66677D01*
Y66748D01*
X76699D01*
Y66820D01*
Y66891D01*
Y66962D01*
Y67034D01*
Y67105D01*
Y67177D01*
Y67248D01*
X76770D01*
Y67319D01*
X76841D01*
Y67248D01*
D02*
G37*
G36*
X134153Y19980D02*
X130217D01*
X132185Y21949D01*
X134153Y19980D01*
D02*
G37*
G36*
X142126Y12008D02*
X140157Y10039D01*
Y13976D01*
X142126Y12008D01*
D02*
G37*
%LPC*%
G36*
X90191Y76885D02*
X89834D01*
Y76814D01*
Y76743D01*
X89762D01*
Y76671D01*
Y76600D01*
X89691D01*
Y76528D01*
Y76457D01*
Y76385D01*
X89620D01*
Y76314D01*
Y76243D01*
Y76171D01*
X89548D01*
Y76100D01*
Y76029D01*
X89477D01*
Y75957D01*
Y75886D01*
Y75814D01*
X89406D01*
Y75743D01*
X89620D01*
Y75814D01*
X90119D01*
Y75886D01*
X90619D01*
Y75957D01*
X90548D01*
Y76029D01*
Y76100D01*
Y76171D01*
X90476D01*
Y76243D01*
Y76314D01*
Y76385D01*
X90405D01*
Y76457D01*
Y76528D01*
X90333D01*
Y76600D01*
Y76671D01*
Y76743D01*
X90262D01*
Y76814D01*
X90191D01*
Y76885D01*
D02*
G37*
G36*
X84979Y77099D02*
X81553D01*
Y77028D01*
Y76957D01*
Y76885D01*
Y76814D01*
Y76743D01*
Y76671D01*
Y76600D01*
Y76528D01*
Y76457D01*
Y76385D01*
Y76314D01*
Y76243D01*
Y76171D01*
Y76100D01*
Y76029D01*
Y75957D01*
Y75886D01*
Y75814D01*
Y75743D01*
Y75672D01*
Y75600D01*
Y75529D01*
Y75458D01*
Y75386D01*
Y75315D01*
Y75243D01*
Y75172D01*
Y75101D01*
Y75029D01*
Y74958D01*
Y74886D01*
Y74815D01*
Y74744D01*
X83980D01*
Y74815D01*
X84337D01*
Y74886D01*
X84623D01*
Y74958D01*
X84908D01*
Y75029D01*
X85265D01*
Y75101D01*
X85622D01*
Y75172D01*
X85765D01*
Y75243D01*
X85836D01*
Y75315D01*
X85908D01*
Y75386D01*
Y75458D01*
Y75529D01*
X85979D01*
Y75600D01*
Y75672D01*
Y75743D01*
Y75814D01*
Y75886D01*
Y75957D01*
Y76029D01*
Y76100D01*
Y76171D01*
Y76243D01*
Y76314D01*
X85908D01*
Y76385D01*
Y76457D01*
X85836D01*
Y76528D01*
Y76600D01*
X85765D01*
Y76671D01*
X85693D01*
Y76743D01*
X85622D01*
Y76814D01*
X85551D01*
Y76885D01*
X85479D01*
Y76957D01*
X85265D01*
Y77028D01*
X84979D01*
Y77099D01*
D02*
G37*
G36*
X104325Y70104D02*
X101970D01*
Y70032D01*
Y69961D01*
Y69889D01*
Y69818D01*
Y69747D01*
Y69675D01*
Y69604D01*
Y69532D01*
Y69461D01*
Y69390D01*
Y69318D01*
Y69247D01*
Y69175D01*
Y69104D01*
Y69033D01*
X104468D01*
Y69104D01*
X104682D01*
Y69175D01*
X104754D01*
Y69247D01*
X104825D01*
Y69318D01*
Y69390D01*
Y69461D01*
Y69532D01*
Y69604D01*
Y69675D01*
Y69747D01*
Y69818D01*
X104754D01*
Y69889D01*
X104682D01*
Y69961D01*
X104611D01*
Y70032D01*
X104325D01*
Y70104D01*
D02*
G37*
G36*
X104397Y68533D02*
X101970D01*
Y68462D01*
Y68390D01*
Y68319D01*
Y68247D01*
Y68176D01*
Y68105D01*
Y68033D01*
Y67962D01*
Y67891D01*
Y67819D01*
Y67748D01*
Y67676D01*
Y67605D01*
Y67533D01*
Y67462D01*
Y67391D01*
X104468D01*
Y67462D01*
X104682D01*
Y67533D01*
X104754D01*
Y67605D01*
X104825D01*
Y67676D01*
X104896D01*
Y67748D01*
Y67819D01*
Y67891D01*
Y67962D01*
Y68033D01*
Y68105D01*
Y68176D01*
Y68247D01*
X104825D01*
Y68319D01*
X104754D01*
Y68390D01*
X104682D01*
Y68462D01*
X104397D01*
Y68533D01*
D02*
G37*
G36*
X98186Y69818D02*
X98043D01*
Y69747D01*
Y69675D01*
X97972D01*
Y69604D01*
Y69532D01*
X97900D01*
Y69461D01*
X97829D01*
Y69390D01*
Y69318D01*
X97758D01*
Y69247D01*
Y69175D01*
X97686D01*
Y69104D01*
X97615D01*
Y69033D01*
Y68961D01*
X97544D01*
Y68890D01*
Y68818D01*
X97472D01*
Y68747D01*
X97401D01*
Y68676D01*
Y68604D01*
X97329D01*
Y68533D01*
Y68462D01*
X97258D01*
Y68390D01*
Y68319D01*
Y68247D01*
X99043D01*
Y68319D01*
Y68390D01*
X98971D01*
Y68462D01*
Y68533D01*
X98900D01*
Y68604D01*
Y68676D01*
X98829D01*
Y68747D01*
X98757D01*
Y68818D01*
Y68890D01*
X98686D01*
Y68961D01*
Y69033D01*
X98614D01*
Y69104D01*
X98543D01*
Y69175D01*
Y69247D01*
X98472D01*
Y69318D01*
Y69390D01*
X98400D01*
Y69461D01*
X98329D01*
Y69532D01*
Y69604D01*
X98257D01*
Y69675D01*
Y69747D01*
X98186D01*
Y69818D01*
D02*
G37*
%LPD*%
D10*
X49341Y51555D02*
G03*
X51841Y51555I1250J0D01*
G01*
X157894Y165754D02*
X223642D01*
Y100793D02*
Y165754D01*
X162618Y100793D02*
X223642D01*
X157894Y105518D02*
X162618Y100793D01*
X157894Y105518D02*
Y165754D01*
X169685Y59232D02*
X177264D01*
X178642Y18701D02*
Y59252D01*
Y18701D02*
X205413D01*
Y59252D01*
X178642D02*
X205413D01*
X44291Y16555D02*
Y51555D01*
Y16555D02*
X56890D01*
Y51555D01*
X51841D02*
X56890D01*
X44291D02*
X49341D01*
X79783Y137996D02*
Y149996D01*
X109783Y137996D02*
Y149996D01*
X79783D02*
X109783D01*
X79783Y137996D02*
X109783D01*
X117776D02*
X147776D01*
X117776Y149996D02*
X147776D01*
Y137996D02*
Y149996D01*
X117776Y137996D02*
Y149996D01*
X31791Y133522D02*
Y136671D01*
X33366D01*
X33890Y136146D01*
Y135097D01*
X33366Y134572D01*
X31791D01*
X36514Y136671D02*
X35465D01*
X34940Y136146D01*
Y134047D01*
X35465Y133522D01*
X36514D01*
X37039Y134047D01*
Y136146D01*
X36514Y136671D01*
X38089D02*
Y133522D01*
X39138Y134572D01*
X40188Y133522D01*
Y136671D01*
X43336D02*
X41237D01*
Y133522D01*
X43336D01*
X41237Y135097D02*
X42287D01*
X44386Y133522D02*
Y136671D01*
X45960D01*
X46485Y136146D01*
Y135097D01*
X45960Y134572D01*
X44386D01*
X45435D02*
X46485Y133522D01*
X33366Y131003D02*
X35465D01*
X34415D01*
Y127854D01*
X38613Y131003D02*
X36514D01*
Y127854D01*
X38613D01*
X36514Y129429D02*
X37564D01*
X41762Y130478D02*
X41237Y131003D01*
X40188D01*
X39663Y130478D01*
Y129953D01*
X40188Y129429D01*
X41237D01*
X41762Y128904D01*
Y128379D01*
X41237Y127854D01*
X40188D01*
X39663Y128379D01*
X42811Y131003D02*
X44910D01*
X43861D01*
Y127854D01*
X62894Y131356D02*
Y128207D01*
X64468D01*
X64993Y128732D01*
Y130831D01*
X64468Y131356D01*
X62894D01*
X68141D02*
X66042D01*
Y128207D01*
X68141D01*
X66042Y129782D02*
X67092D01*
X69191Y131356D02*
Y128207D01*
X70765D01*
X71290Y128732D01*
Y129257D01*
X70765Y129782D01*
X69191D01*
X70765D01*
X71290Y130306D01*
Y130831D01*
X70765Y131356D01*
X69191D01*
X72339D02*
Y128732D01*
X72864Y128207D01*
X73914D01*
X74439Y128732D01*
Y131356D01*
X77587Y130831D02*
X77062Y131356D01*
X76013D01*
X75488Y130831D01*
Y128732D01*
X76013Y128207D01*
X77062D01*
X77587Y128732D01*
Y129782D01*
X76538D01*
X68141Y125163D02*
X67617Y125688D01*
X66567D01*
X66042Y125163D01*
Y124638D01*
X66567Y124114D01*
X67617D01*
X68141Y123589D01*
Y123064D01*
X67617Y122539D01*
X66567D01*
X66042Y123064D01*
X69191Y122539D02*
Y125688D01*
X70765D01*
X71290Y125163D01*
Y124114D01*
X70765Y123589D01*
X69191D01*
X72339Y125688D02*
X73389D01*
X72864D01*
Y122539D01*
X72339D01*
X73389D01*
D11*
X162106Y39173D02*
G03*
X163287Y40354I0J1181D01*
G01*
X156201D02*
G03*
X157382Y39173I1181J0D01*
G01*
Y54921D02*
G03*
X156201Y53740I0J-1181D01*
G01*
X163287D02*
G03*
X162106Y54921I-1181J0D01*
G01*
X78150Y50787D02*
G03*
X76968Y51968I-1181J0D01*
G01*
X72244D02*
G03*
X71063Y50787I0J-1181D01*
G01*
Y37402D02*
G03*
X72244Y36220I1181J0D01*
G01*
X76968D02*
G03*
X78150Y37402I0J1181D01*
G01*
X148130Y52382D02*
G03*
X147343Y51595I0J-787D01*
G01*
X152067Y40571D02*
G03*
X152854Y41358I0J787D01*
G01*
X147343D02*
G03*
X148130Y40571I787J0D01*
G01*
X152854Y51595D02*
G03*
X152067Y52382I-787J0D01*
G01*
X157382Y54921D02*
X162106D01*
X156201Y40354D02*
Y53740D01*
X157382Y39173D02*
X162106D01*
X163287Y40354D02*
Y53740D01*
X78150Y37402D02*
Y50787D01*
X72244Y36220D02*
X76968D01*
X71063Y37402D02*
Y50787D01*
X72244Y51968D02*
X76968D01*
X152854Y41358D02*
Y51595D01*
X148130Y40571D02*
X152067D01*
X147343Y41358D02*
Y51595D01*
X148130Y52382D02*
X152067D01*
D12*
X135276Y12008D02*
G03*
X135276Y12008I-3091J0D01*
G01*
X132324D02*
G03*
X132324Y12008I-139J0D01*
G01*
X63189Y158366D02*
X65158Y160335D01*
X63189Y162303D02*
X65158Y160335D01*
X63189Y158366D02*
Y162303D01*
X65158Y158366D02*
Y162303D01*
X140650Y10039D02*
X142618Y12008D01*
X140650Y13976D02*
X142618Y12008D01*
X130217Y20472D02*
X132185Y22441D01*
X134153Y20472D01*
X135276Y12008D02*
X142618D01*
X132185Y15099D02*
Y22441D01*
X239173Y5217D02*
X243406D01*
X248819Y10630D01*
Y14665D01*
X229724Y10531D02*
Y14862D01*
Y10531D02*
X235039Y5217D01*
X239173D01*
X235236Y24311D02*
X239370D01*
X229724Y18799D02*
X235236Y24311D01*
X229724Y14862D02*
Y18799D01*
X239370Y24311D02*
X243209D01*
X248819Y18701D01*
Y14665D02*
Y18701D01*
X239173Y146949D02*
X243406D01*
X248819Y152362D01*
Y156398D01*
X229724Y152264D02*
Y156595D01*
Y152264D02*
X235039Y146949D01*
X239173D01*
X235236Y166043D02*
X239370D01*
X229724Y160531D02*
X235236Y166043D01*
X229724Y156595D02*
Y160531D01*
X239370Y166043D02*
X243209D01*
X248819Y160433D01*
Y156398D02*
Y160433D01*
X10827Y146949D02*
X15059D01*
X20472Y152362D01*
Y156398D01*
X1378Y152264D02*
Y156595D01*
Y152264D02*
X6693Y146949D01*
X10827D01*
X6890Y166043D02*
X11024D01*
X1378Y160531D02*
X6890Y166043D01*
X1378Y156595D02*
Y160531D01*
X11024Y166043D02*
X14862D01*
X20472Y160433D01*
Y156398D02*
Y160433D01*
X10827Y5217D02*
X15059D01*
X20472Y10630D01*
Y14665D01*
X1378Y10531D02*
Y14862D01*
Y10531D02*
X6693Y5217D01*
X10827D01*
X6890Y24311D02*
X11024D01*
X1378Y18799D02*
X6890Y24311D01*
X1378Y14862D02*
Y18799D01*
X11024Y24311D02*
X14862D01*
X20472Y18701D01*
Y14665D02*
Y18701D01*
X82374Y134618D02*
X87097D01*
X85523Y133044D01*
X87097Y131470D01*
X82374D01*
X87097Y129895D02*
Y128321D01*
Y129108D01*
X82374D01*
Y129895D01*
Y128321D01*
X86310Y122811D02*
X87097Y123598D01*
Y125172D01*
X86310Y125960D01*
X85523D01*
X84736Y125172D01*
Y123598D01*
X83948Y122811D01*
X83161D01*
X82374Y123598D01*
Y125172D01*
X83161Y125960D01*
X87097Y118875D02*
Y120449D01*
X86310Y121237D01*
X83161D01*
X82374Y120449D01*
Y118875D01*
X83161Y118088D01*
X86310D01*
X87097Y118875D01*
X92374Y134224D02*
X97097D01*
X95523Y132650D01*
X97097Y131076D01*
X92374D01*
X97097Y127140D02*
Y128715D01*
X96310Y129502D01*
X93161D01*
X92374Y128715D01*
Y127140D01*
X93161Y126353D01*
X96310D01*
X97097Y127140D01*
X96310Y121630D02*
X97097Y122417D01*
Y123992D01*
X96310Y124779D01*
X95523D01*
X94735Y123992D01*
Y122417D01*
X93948Y121630D01*
X93161D01*
X92374Y122417D01*
Y123992D01*
X93161Y124779D01*
X97097Y120056D02*
Y118482D01*
Y119269D01*
X92374D01*
Y120056D01*
Y118482D01*
X106310Y129502D02*
X107097Y130289D01*
Y131863D01*
X106310Y132650D01*
X103161D01*
X102374Y131863D01*
Y130289D01*
X103161Y129502D01*
X107097Y127927D02*
X102374D01*
Y124779D01*
X107097Y123205D02*
X102374D01*
X103948D01*
X107097Y120056D01*
X104735Y122417D01*
X102374Y120056D01*
X143711Y129502D02*
X144499Y130289D01*
Y131863D01*
X143711Y132650D01*
X140563D01*
X139776Y131863D01*
Y130289D01*
X140563Y129502D01*
X144499Y127927D02*
X139776D01*
Y124779D01*
X144499Y123205D02*
X139776D01*
X141350D01*
X144499Y120056D01*
X142137Y122417D01*
X139776Y120056D01*
X129776Y134224D02*
X134499D01*
X132924Y132650D01*
X134499Y131076D01*
X129776D01*
X134499Y127140D02*
Y128715D01*
X133711Y129502D01*
X130563D01*
X129776Y128715D01*
Y127140D01*
X130563Y126353D01*
X133711D01*
X134499Y127140D01*
X133711Y121630D02*
X134499Y122417D01*
Y123992D01*
X133711Y124779D01*
X132924D01*
X132137Y123992D01*
Y122417D01*
X131350Y121630D01*
X130563D01*
X129776Y122417D01*
Y123992D01*
X130563Y124779D01*
X134499Y120056D02*
Y118482D01*
Y119269D01*
X129776D01*
Y120056D01*
Y118482D01*
X119776Y134618D02*
X124498D01*
X122924Y133044D01*
X124498Y131470D01*
X119776D01*
X124498Y129895D02*
Y128321D01*
Y129108D01*
X119776D01*
Y129895D01*
Y128321D01*
X123711Y122811D02*
X124498Y123598D01*
Y125172D01*
X123711Y125960D01*
X122924D01*
X122137Y125172D01*
Y123598D01*
X121350Y122811D01*
X120563D01*
X119776Y123598D01*
Y125172D01*
X120563Y125960D01*
X124498Y118875D02*
Y120449D01*
X123711Y121237D01*
X120563D01*
X119776Y120449D01*
Y118875D01*
X120563Y118088D01*
X123711D01*
X124498Y118875D01*
X129921Y26401D02*
X131921D01*
X130921Y27401D02*
Y25401D01*
X132920Y27901D02*
Y27401D01*
X133920Y26401D01*
X134920Y27401D01*
Y27901D01*
X133920Y26401D02*
Y24902D01*
X144488Y12031D02*
X146487D01*
X145488Y13031D02*
Y11031D01*
X147487Y13531D02*
X149487Y10531D01*
Y13531D02*
X147487Y10531D01*
X123721Y7110D02*
X125720D01*
X124720Y8109D02*
Y6110D01*
X126719Y8609D02*
X128719D01*
Y8109D01*
X126719Y6110D01*
Y5610D01*
X128719D01*
D13*
X158627Y100793D02*
X160093D01*
X157894Y101527D02*
Y102993D01*
Y103726D01*
Y100793D02*
Y101527D01*
X160093Y100793D02*
X160827D01*
X157894D02*
X158627D01*
X157894Y103726D02*
X160827Y100793D01*
X147776Y114983D02*
Y125492D01*
X145276Y114983D02*
X147776D01*
Y125492D02*
Y136002D01*
X145276D02*
X147776D01*
X79697Y115573D02*
X82197D01*
X79697D02*
Y126083D01*
Y136592D02*
X82197D01*
X79697Y126083D02*
Y136592D01*
X78297Y126083D02*
X79697D01*
X6036Y128870D02*
X3937D01*
Y127296D01*
X4986D01*
X3937D01*
Y125722D01*
X7086Y128870D02*
Y125722D01*
X8660D01*
X9185Y126246D01*
Y128345D01*
X8660Y128870D01*
X7086D01*
X10234Y125197D02*
X12333D01*
X13383Y128870D02*
X15482D01*
X14432D01*
Y125722D01*
X16531Y128870D02*
Y125722D01*
X18630D01*
X27660Y98932D02*
Y94996D01*
X27847Y98932D02*
Y94996D01*
X27098Y98932D02*
X28972D01*
X29534Y98745D01*
X29909Y98370D01*
X30097Y97995D01*
X30284Y97433D01*
Y96496D01*
X30097Y95933D01*
X29909Y95558D01*
X29534Y95183D01*
X28972Y94996D01*
X27098D01*
X28972Y98932D02*
X29347Y98745D01*
X29722Y98370D01*
X29909Y97995D01*
X30097Y97433D01*
Y96496D01*
X29909Y95933D01*
X29722Y95558D01*
X29347Y95183D01*
X28972Y94996D01*
X31184Y97245D02*
Y97058D01*
X30996D01*
Y97245D01*
X31184Y97433D01*
X31559Y97620D01*
X32308D01*
X32683Y97433D01*
X32871Y97245D01*
X33058Y96870D01*
Y95558D01*
X33246Y95183D01*
X33433Y94996D01*
X32871Y97245D02*
Y95558D01*
X33058Y95183D01*
X33433Y94996D01*
X33621D01*
X32871Y96870D02*
X32683Y96683D01*
X31559Y96496D01*
X30996Y96308D01*
X30809Y95933D01*
Y95558D01*
X30996Y95183D01*
X31559Y94996D01*
X32121D01*
X32496Y95183D01*
X32871Y95558D01*
X31559Y96496D02*
X31184Y96308D01*
X30996Y95933D01*
Y95558D01*
X31184Y95183D01*
X31559Y94996D01*
X34745Y97620D02*
Y95558D01*
X34933Y95183D01*
X35495Y94996D01*
X35870D01*
X36432Y95183D01*
X36807Y95558D01*
X34933Y97620D02*
Y95558D01*
X35120Y95183D01*
X35495Y94996D01*
X36807Y97620D02*
Y94996D01*
X36994Y97620D02*
Y94996D01*
X34183Y97620D02*
X34933D01*
X36245D02*
X36994D01*
X36807Y94996D02*
X37557D01*
X39187Y97620D02*
X38813Y97433D01*
X38625Y97245D01*
X38438Y96870D01*
Y96496D01*
X38625Y96121D01*
X38813Y95933D01*
X39187Y95746D01*
X39562D01*
X39937Y95933D01*
X40124Y96121D01*
X40312Y96496D01*
Y96870D01*
X40124Y97245D01*
X39937Y97433D01*
X39562Y97620D01*
X39187D01*
X38813Y97433D02*
X38625Y97058D01*
Y96308D01*
X38813Y95933D01*
X39937D02*
X40124Y96308D01*
Y97058D01*
X39937Y97433D01*
X40124Y97245D02*
X40312Y97433D01*
X40687Y97620D01*
Y97433D01*
X40312D01*
X38625Y96121D02*
X38438Y95933D01*
X38250Y95558D01*
Y95371D01*
X38438Y94996D01*
X39000Y94809D01*
X39937D01*
X40499Y94621D01*
X40687Y94434D01*
X38250Y95371D02*
X38438Y95183D01*
X39000Y94996D01*
X39937D01*
X40499Y94809D01*
X40687Y94434D01*
Y94246D01*
X40499Y93871D01*
X39937Y93684D01*
X38813D01*
X38250Y93871D01*
X38063Y94246D01*
Y94434D01*
X38250Y94809D01*
X38813Y94996D01*
X41830Y98932D02*
Y94996D01*
X42018Y98932D02*
Y94996D01*
Y97058D02*
X42393Y97433D01*
X42955Y97620D01*
X43330D01*
X43892Y97433D01*
X44080Y97058D01*
Y94996D01*
X43330Y97620D02*
X43705Y97433D01*
X43892Y97058D01*
Y94996D01*
X41268Y98932D02*
X42018D01*
X41268Y94996D02*
X42580D01*
X43330D02*
X44642D01*
X46273D02*
X46085Y95183D01*
X45898Y95746D01*
Y98932D01*
X45710D01*
Y95746D01*
X45898Y95183D01*
X46273Y94996D01*
X46647D01*
X47022Y95183D01*
X47210Y95558D01*
X45148Y97620D02*
X46647D01*
X48034Y96496D02*
X50284D01*
Y96870D01*
X50096Y97245D01*
X49909Y97433D01*
X49534Y97620D01*
X48972D01*
X48409Y97433D01*
X48034Y97058D01*
X47847Y96496D01*
Y96121D01*
X48034Y95558D01*
X48409Y95183D01*
X48972Y94996D01*
X49346D01*
X49909Y95183D01*
X50284Y95558D01*
X50096Y96496D02*
Y97058D01*
X49909Y97433D01*
X48972Y97620D02*
X48597Y97433D01*
X48222Y97058D01*
X48034Y96496D01*
Y96121D01*
X48222Y95558D01*
X48597Y95183D01*
X48972Y94996D01*
X51446Y97620D02*
Y94996D01*
X51633Y97620D02*
Y94996D01*
Y96496D02*
X51821Y97058D01*
X52196Y97433D01*
X52570Y97620D01*
X53133D01*
X53320Y97433D01*
Y97245D01*
X53133Y97058D01*
X52945Y97245D01*
X53133Y97433D01*
X50883Y97620D02*
X51633D01*
X50883Y94996D02*
X52196D01*
X58025Y98932D02*
Y94996D01*
X58212Y98932D02*
Y94996D01*
X57462Y98932D02*
X59712D01*
X60274Y98745D01*
X60461Y98557D01*
X60649Y98182D01*
Y97808D01*
X60461Y97433D01*
X60274Y97245D01*
X59712Y97058D01*
Y98932D02*
X60087Y98745D01*
X60274Y98557D01*
X60461Y98182D01*
Y97808D01*
X60274Y97433D01*
X60087Y97245D01*
X59712Y97058D01*
X58212D02*
X59712D01*
X60274Y96870D01*
X60461Y96683D01*
X60649Y96308D01*
Y95746D01*
X60461Y95371D01*
X60274Y95183D01*
X59712Y94996D01*
X57462D01*
X59712Y97058D02*
X60087Y96870D01*
X60274Y96683D01*
X60461Y96308D01*
Y95746D01*
X60274Y95371D01*
X60087Y95183D01*
X59712Y94996D01*
X62298Y97620D02*
X61736Y97433D01*
X61361Y97058D01*
X61174Y96496D01*
Y96121D01*
X61361Y95558D01*
X61736Y95183D01*
X62298Y94996D01*
X62673D01*
X63235Y95183D01*
X63610Y95558D01*
X63798Y96121D01*
Y96496D01*
X63610Y97058D01*
X63235Y97433D01*
X62673Y97620D01*
X62298D01*
X61923Y97433D01*
X61549Y97058D01*
X61361Y96496D01*
Y96121D01*
X61549Y95558D01*
X61923Y95183D01*
X62298Y94996D01*
X62673D02*
X63048Y95183D01*
X63423Y95558D01*
X63610Y96121D01*
Y96496D01*
X63423Y97058D01*
X63048Y97433D01*
X62673Y97620D01*
X64754Y97245D02*
Y97058D01*
X64566D01*
Y97245D01*
X64754Y97433D01*
X65129Y97620D01*
X65878D01*
X66253Y97433D01*
X66441Y97245D01*
X66628Y96870D01*
Y95558D01*
X66816Y95183D01*
X67003Y94996D01*
X66441Y97245D02*
Y95558D01*
X66628Y95183D01*
X67003Y94996D01*
X67190D01*
X66441Y96870D02*
X66253Y96683D01*
X65129Y96496D01*
X64566Y96308D01*
X64379Y95933D01*
Y95558D01*
X64566Y95183D01*
X65129Y94996D01*
X65691D01*
X66066Y95183D01*
X66441Y95558D01*
X65129Y96496D02*
X64754Y96308D01*
X64566Y95933D01*
Y95558D01*
X64754Y95183D01*
X65129Y94996D01*
X68315Y97620D02*
Y94996D01*
X68502Y97620D02*
Y94996D01*
Y96496D02*
X68690Y97058D01*
X69065Y97433D01*
X69440Y97620D01*
X70002D01*
X70189Y97433D01*
Y97245D01*
X70002Y97058D01*
X69814Y97245D01*
X70002Y97433D01*
X67753Y97620D02*
X68502D01*
X67753Y94996D02*
X69065D01*
X73038Y98932D02*
Y94996D01*
X73226Y98932D02*
Y94996D01*
X73038Y97058D02*
X72663Y97433D01*
X72289Y97620D01*
X71914D01*
X71351Y97433D01*
X70977Y97058D01*
X70789Y96496D01*
Y96121D01*
X70977Y95558D01*
X71351Y95183D01*
X71914Y94996D01*
X72289D01*
X72663Y95183D01*
X73038Y95558D01*
X71914Y97620D02*
X71539Y97433D01*
X71164Y97058D01*
X70977Y96496D01*
Y96121D01*
X71164Y95558D01*
X71539Y95183D01*
X71914Y94996D01*
X72476Y98932D02*
X73226D01*
X73038Y94996D02*
X73788D01*
X29937Y91479D02*
Y87543D01*
X30125Y91479D02*
Y87543D01*
X31249Y90355D02*
Y88855D01*
X29375Y91479D02*
X32374D01*
Y90355D01*
X32187Y91479D01*
X30125Y89605D02*
X31249D01*
X29375Y87543D02*
X32374D01*
Y88668D01*
X32187Y87543D01*
X33292Y90167D02*
X35354Y87543D01*
X33480Y90167D02*
X35542Y87543D01*
Y90167D02*
X33292Y87543D01*
X32918Y90167D02*
X34042D01*
X34792D02*
X35917D01*
X32918Y87543D02*
X34042D01*
X34792D02*
X35917D01*
X37585D02*
X37397Y87731D01*
X37210Y88293D01*
Y91479D01*
X37023D01*
Y88293D01*
X37210Y87731D01*
X37585Y87543D01*
X37960D01*
X38335Y87731D01*
X38522Y88106D01*
X36460Y90167D02*
X37960D01*
X39722D02*
Y87543D01*
X39909Y90167D02*
Y87543D01*
Y89043D02*
X40096Y89605D01*
X40471Y89980D01*
X40846Y90167D01*
X41409D01*
X41596Y89980D01*
Y89793D01*
X41409Y89605D01*
X41221Y89793D01*
X41409Y89980D01*
X39159Y90167D02*
X39909D01*
X39159Y87543D02*
X40471D01*
X42571Y89793D02*
Y89605D01*
X42383D01*
Y89793D01*
X42571Y89980D01*
X42946Y90167D01*
X43695D01*
X44070Y89980D01*
X44258Y89793D01*
X44445Y89418D01*
Y88106D01*
X44632Y87731D01*
X44820Y87543D01*
X44258Y89793D02*
Y88106D01*
X44445Y87731D01*
X44820Y87543D01*
X45007D01*
X44258Y89418D02*
X44070Y89230D01*
X42946Y89043D01*
X42383Y88855D01*
X42196Y88481D01*
Y88106D01*
X42383Y87731D01*
X42946Y87543D01*
X43508D01*
X43883Y87731D01*
X44258Y88106D01*
X42946Y89043D02*
X42571Y88855D01*
X42383Y88481D01*
Y88106D01*
X42571Y87731D01*
X42946Y87543D01*
X49674Y91479D02*
Y87543D01*
X49862Y91479D02*
X50986Y88106D01*
X49674Y91479D02*
X50986Y87543D01*
X52298Y91479D02*
X50986Y87543D01*
X52298Y91479D02*
Y87543D01*
X52486Y91479D02*
Y87543D01*
X49112Y91479D02*
X49862D01*
X52298D02*
X53048D01*
X49112Y87543D02*
X50237D01*
X51736D02*
X53048D01*
X53686Y89043D02*
X55935D01*
Y89418D01*
X55747Y89793D01*
X55560Y89980D01*
X55185Y90167D01*
X54623D01*
X54060Y89980D01*
X53686Y89605D01*
X53498Y89043D01*
Y88668D01*
X53686Y88106D01*
X54060Y87731D01*
X54623Y87543D01*
X54998D01*
X55560Y87731D01*
X55935Y88106D01*
X55747Y89043D02*
Y89605D01*
X55560Y89980D01*
X54623Y90167D02*
X54248Y89980D01*
X53873Y89605D01*
X53686Y89043D01*
Y88668D01*
X53873Y88106D01*
X54248Y87731D01*
X54623Y87543D01*
X57097Y90167D02*
Y87543D01*
X57284Y90167D02*
Y87543D01*
Y89605D02*
X57659Y89980D01*
X58222Y90167D01*
X58596D01*
X59159Y89980D01*
X59346Y89605D01*
Y87543D01*
X58596Y90167D02*
X58971Y89980D01*
X59159Y89605D01*
Y87543D01*
X59346Y89605D02*
X59721Y89980D01*
X60283Y90167D01*
X60658D01*
X61221Y89980D01*
X61408Y89605D01*
Y87543D01*
X60658Y90167D02*
X61033Y89980D01*
X61221Y89605D01*
Y87543D01*
X56535Y90167D02*
X57284D01*
X56535Y87543D02*
X57847D01*
X58596D02*
X59908D01*
X60658D02*
X61970D01*
X63395Y90167D02*
X62832Y89980D01*
X62458Y89605D01*
X62270Y89043D01*
Y88668D01*
X62458Y88106D01*
X62832Y87731D01*
X63395Y87543D01*
X63770D01*
X64332Y87731D01*
X64707Y88106D01*
X64894Y88668D01*
Y89043D01*
X64707Y89605D01*
X64332Y89980D01*
X63770Y90167D01*
X63395D01*
X63020Y89980D01*
X62645Y89605D01*
X62458Y89043D01*
Y88668D01*
X62645Y88106D01*
X63020Y87731D01*
X63395Y87543D01*
X63770D02*
X64144Y87731D01*
X64519Y88106D01*
X64707Y88668D01*
Y89043D01*
X64519Y89605D01*
X64144Y89980D01*
X63770Y90167D01*
X66038D02*
Y87543D01*
X66225Y90167D02*
Y87543D01*
Y89043D02*
X66413Y89605D01*
X66787Y89980D01*
X67162Y90167D01*
X67725D01*
X67912Y89980D01*
Y89793D01*
X67725Y89605D01*
X67537Y89793D01*
X67725Y89980D01*
X65475Y90167D02*
X66225D01*
X65475Y87543D02*
X66787D01*
X68887Y90167D02*
X70011Y87543D01*
X69074Y90167D02*
X70011Y87918D01*
X71136Y90167D02*
X70011Y87543D01*
X69636Y86794D01*
X69261Y86419D01*
X68887Y86231D01*
X68699D01*
X68512Y86419D01*
X68699Y86606D01*
X68887Y86419D01*
X68512Y90167D02*
X69636D01*
X70386D02*
X71511D01*
X32739Y84027D02*
Y80090D01*
X32927Y84027D02*
Y80090D01*
X34052Y82902D02*
Y81403D01*
X32177Y84027D02*
X35176D01*
Y82902D01*
X34989Y84027D01*
X32927Y82152D02*
X34052D01*
X32177Y80090D02*
X33489D01*
X36282Y84027D02*
Y80090D01*
X36470Y84027D02*
Y80090D01*
X35720Y84027D02*
X36470D01*
X35720Y80090D02*
X37032D01*
X38869Y82715D02*
X38306Y82527D01*
X37931Y82152D01*
X37744Y81590D01*
Y81215D01*
X37931Y80653D01*
X38306Y80278D01*
X38869Y80090D01*
X39244D01*
X39806Y80278D01*
X40181Y80653D01*
X40368Y81215D01*
Y81590D01*
X40181Y82152D01*
X39806Y82527D01*
X39244Y82715D01*
X38869D01*
X38494Y82527D01*
X38119Y82152D01*
X37931Y81590D01*
Y81215D01*
X38119Y80653D01*
X38494Y80278D01*
X38869Y80090D01*
X39244D02*
X39619Y80278D01*
X39993Y80653D01*
X40181Y81215D01*
Y81590D01*
X39993Y82152D01*
X39619Y82527D01*
X39244Y82715D01*
X41512D02*
Y80090D01*
X41699Y82715D02*
Y80090D01*
Y81590D02*
X41886Y82152D01*
X42261Y82527D01*
X42636Y82715D01*
X43198D01*
X43386Y82527D01*
Y82340D01*
X43198Y82152D01*
X43011Y82340D01*
X43198Y82527D01*
X40949Y82715D02*
X41699D01*
X40949Y80090D02*
X42261D01*
X44548Y84027D02*
X44361Y83839D01*
X44548Y83652D01*
X44736Y83839D01*
X44548Y84027D01*
Y82715D02*
Y80090D01*
X44736Y82715D02*
Y80090D01*
X43986Y82715D02*
X44736D01*
X43986Y80090D02*
X45298D01*
X46572Y82715D02*
Y78778D01*
X46760Y82715D02*
Y78778D01*
Y82152D02*
X47135Y82527D01*
X47510Y82715D01*
X47884D01*
X48447Y82527D01*
X48822Y82152D01*
X49009Y81590D01*
Y81215D01*
X48822Y80653D01*
X48447Y80278D01*
X47884Y80090D01*
X47510D01*
X47135Y80278D01*
X46760Y80653D01*
X47884Y82715D02*
X48259Y82527D01*
X48634Y82152D01*
X48822Y81590D01*
Y81215D01*
X48634Y80653D01*
X48259Y80278D01*
X47884Y80090D01*
X46010Y82715D02*
X46760D01*
X46010Y78778D02*
X47322D01*
X49927Y82340D02*
Y82152D01*
X49740D01*
Y82340D01*
X49927Y82527D01*
X50302Y82715D01*
X51052D01*
X51427Y82527D01*
X51614Y82340D01*
X51802Y81965D01*
Y80653D01*
X51989Y80278D01*
X52177Y80090D01*
X51614Y82340D02*
Y80653D01*
X51802Y80278D01*
X52177Y80090D01*
X52364D01*
X51614Y81965D02*
X51427Y81778D01*
X50302Y81590D01*
X49740Y81403D01*
X49553Y81028D01*
Y80653D01*
X49740Y80278D01*
X50302Y80090D01*
X50865D01*
X51240Y80278D01*
X51614Y80653D01*
X50302Y81590D02*
X49927Y81403D01*
X49740Y81028D01*
Y80653D01*
X49927Y80278D01*
X50302Y80090D01*
X55363Y83464D02*
X55550Y84027D01*
Y82902D01*
X55363Y83464D01*
X54988Y83839D01*
X54426Y84027D01*
X53864D01*
X53301Y83839D01*
X52926Y83464D01*
Y83090D01*
X53114Y82715D01*
X53301Y82527D01*
X53676Y82340D01*
X54801Y81965D01*
X55176Y81778D01*
X55550Y81403D01*
X52926Y83090D02*
X53301Y82715D01*
X53676Y82527D01*
X54801Y82152D01*
X55176Y81965D01*
X55363Y81778D01*
X55550Y81403D01*
Y80653D01*
X55176Y80278D01*
X54613Y80090D01*
X54051D01*
X53489Y80278D01*
X53114Y80653D01*
X52926Y81215D01*
Y80090D01*
X53114Y80653D01*
X56507Y82340D02*
Y82152D01*
X56319D01*
Y82340D01*
X56507Y82527D01*
X56881Y82715D01*
X57631D01*
X58006Y82527D01*
X58193Y82340D01*
X58381Y81965D01*
Y80653D01*
X58568Y80278D01*
X58756Y80090D01*
X58193Y82340D02*
Y80653D01*
X58381Y80278D01*
X58756Y80090D01*
X58943D01*
X58193Y81965D02*
X58006Y81778D01*
X56881Y81590D01*
X56319Y81403D01*
X56132Y81028D01*
Y80653D01*
X56319Y80278D01*
X56881Y80090D01*
X57444D01*
X57819Y80278D01*
X58193Y80653D01*
X56881Y81590D02*
X56507Y81403D01*
X56319Y81028D01*
Y80653D01*
X56507Y80278D01*
X56881Y80090D01*
X60630D02*
X60443Y80278D01*
X60255Y80840D01*
Y84027D01*
X60068D01*
Y80840D01*
X60255Y80278D01*
X60630Y80090D01*
X61005D01*
X61380Y80278D01*
X61567Y80653D01*
X59505Y82715D02*
X61005D01*
X62204Y81778D02*
X65578D01*
X66272Y83277D02*
X66459Y83090D01*
X66272Y82902D01*
X66084Y83090D01*
Y83277D01*
X66272Y83652D01*
X66459Y83839D01*
X67022Y84027D01*
X67771D01*
X68334Y83839D01*
X68521Y83652D01*
X68709Y83277D01*
Y82902D01*
X68521Y82527D01*
X67959Y82152D01*
X67022Y81778D01*
X66647Y81590D01*
X66272Y81215D01*
X66084Y80653D01*
Y80090D01*
X67771Y84027D02*
X68146Y83839D01*
X68334Y83652D01*
X68521Y83277D01*
Y82902D01*
X68334Y82527D01*
X67771Y82152D01*
X67022Y81778D01*
X66084Y80465D02*
X66272Y80653D01*
X66647D01*
X67584Y80278D01*
X68146D01*
X68521Y80465D01*
X68709Y80653D01*
Y81028D01*
X66647Y80653D02*
X67584Y80090D01*
X68334D01*
X68521Y80278D01*
X68709Y80653D01*
X35945Y76574D02*
Y73762D01*
X36132Y73200D01*
X36507Y72825D01*
X37069Y72638D01*
X37444D01*
X38006Y72825D01*
X38381Y73200D01*
X38569Y73762D01*
Y76574D01*
X36132D02*
Y73762D01*
X36320Y73200D01*
X36694Y72825D01*
X37069Y72638D01*
X35382Y76574D02*
X36694D01*
X38006D02*
X39131D01*
X40162D02*
Y72638D01*
X40350Y76574D02*
Y72638D01*
X41474Y75449D02*
Y73950D01*
X39600Y76574D02*
X42599D01*
Y75449D01*
X42411Y76574D01*
X40350Y74700D02*
X41474D01*
X39600Y72638D02*
X40912D01*
X45579Y76012D02*
X45766Y76574D01*
Y75449D01*
X45579Y76012D01*
X45204Y76386D01*
X44642Y76574D01*
X44080D01*
X43517Y76386D01*
X43142Y76012D01*
Y75637D01*
X43330Y75262D01*
X43517Y75074D01*
X43892Y74887D01*
X45017Y74512D01*
X45391Y74325D01*
X45766Y73950D01*
X43142Y75637D02*
X43517Y75262D01*
X43892Y75074D01*
X45017Y74700D01*
X45391Y74512D01*
X45579Y74325D01*
X45766Y73950D01*
Y73200D01*
X45391Y72825D01*
X44829Y72638D01*
X44267D01*
X43705Y72825D01*
X43330Y73200D01*
X43142Y73762D01*
Y72638D01*
X43330Y73200D01*
X48972Y76012D02*
X49159Y75449D01*
Y76574D01*
X48972Y76012D01*
X48597Y76386D01*
X48034Y76574D01*
X47660D01*
X47097Y76386D01*
X46722Y76012D01*
X46535Y75637D01*
X46347Y75074D01*
Y74137D01*
X46535Y73575D01*
X46722Y73200D01*
X47097Y72825D01*
X47660Y72638D01*
X48034D01*
X48597Y72825D01*
X48972Y73200D01*
X49159Y73575D01*
X47660Y76574D02*
X47285Y76386D01*
X46910Y76012D01*
X46722Y75637D01*
X46535Y75074D01*
Y74137D01*
X46722Y73575D01*
X46910Y73200D01*
X47285Y72825D01*
X47660Y72638D01*
X53451Y75824D02*
X53639Y75637D01*
X53451Y75449D01*
X53264Y75637D01*
Y75824D01*
X53451Y76199D01*
X53639Y76386D01*
X54201Y76574D01*
X54951D01*
X55513Y76386D01*
X55700Y76199D01*
X55888Y75824D01*
Y75449D01*
X55700Y75074D01*
X55138Y74700D01*
X54201Y74325D01*
X53826Y74137D01*
X53451Y73762D01*
X53264Y73200D01*
Y72638D01*
X54951Y76574D02*
X55326Y76386D01*
X55513Y76199D01*
X55700Y75824D01*
Y75449D01*
X55513Y75074D01*
X54951Y74700D01*
X54201Y74325D01*
X53264Y73013D02*
X53451Y73200D01*
X53826D01*
X54763Y72825D01*
X55326D01*
X55700Y73013D01*
X55888Y73200D01*
Y73575D01*
X53826Y73200D02*
X54763Y72638D01*
X55513D01*
X55700Y72825D01*
X55888Y73200D01*
X57594Y76574D02*
X57031Y76386D01*
X56656Y75824D01*
X56469Y74887D01*
Y74325D01*
X56656Y73387D01*
X57031Y72825D01*
X57594Y72638D01*
X57968D01*
X58531Y72825D01*
X58906Y73387D01*
X59093Y74325D01*
Y74887D01*
X58906Y75824D01*
X58531Y76386D01*
X57968Y76574D01*
X57594D01*
X57219Y76386D01*
X57031Y76199D01*
X56844Y75824D01*
X56656Y74887D01*
Y74325D01*
X56844Y73387D01*
X57031Y73013D01*
X57219Y72825D01*
X57594Y72638D01*
X57968D02*
X58343Y72825D01*
X58531Y73013D01*
X58718Y73387D01*
X58906Y74325D01*
Y74887D01*
X58718Y75824D01*
X58531Y76199D01*
X58343Y76386D01*
X57968Y76574D01*
X59862Y75824D02*
X60049Y75637D01*
X59862Y75449D01*
X59674Y75637D01*
Y75824D01*
X59862Y76199D01*
X60049Y76386D01*
X60611Y76574D01*
X61361D01*
X61923Y76386D01*
X62111Y76199D01*
X62298Y75824D01*
Y75449D01*
X62111Y75074D01*
X61549Y74700D01*
X60611Y74325D01*
X60237Y74137D01*
X59862Y73762D01*
X59674Y73200D01*
Y72638D01*
X61361Y76574D02*
X61736Y76386D01*
X61923Y76199D01*
X62111Y75824D01*
Y75449D01*
X61923Y75074D01*
X61361Y74700D01*
X60611Y74325D01*
X59674Y73013D02*
X59862Y73200D01*
X60237D01*
X61174Y72825D01*
X61736D01*
X62111Y73013D01*
X62298Y73200D01*
Y73575D01*
X60237Y73200D02*
X61174Y72638D01*
X61923D01*
X62111Y72825D01*
X62298Y73200D01*
X64004Y76574D02*
X63442Y76386D01*
X63067Y75824D01*
X62879Y74887D01*
Y74325D01*
X63067Y73387D01*
X63442Y72825D01*
X64004Y72638D01*
X64379D01*
X64941Y72825D01*
X65316Y73387D01*
X65503Y74325D01*
Y74887D01*
X65316Y75824D01*
X64941Y76386D01*
X64379Y76574D01*
X64004D01*
X63629Y76386D01*
X63442Y76199D01*
X63254Y75824D01*
X63067Y74887D01*
Y74325D01*
X63254Y73387D01*
X63442Y73013D01*
X63629Y72825D01*
X64004Y72638D01*
X64379D02*
X64754Y72825D01*
X64941Y73013D01*
X65129Y73387D01*
X65316Y74325D01*
Y74887D01*
X65129Y75824D01*
X64941Y76199D01*
X64754Y76386D01*
X64379Y76574D01*
X233989Y128870D02*
X231890D01*
Y127296D01*
X232939D01*
X231890D01*
Y125722D01*
X235038Y128870D02*
Y125722D01*
X236613D01*
X237137Y126246D01*
Y128345D01*
X236613Y128870D01*
X235038D01*
X238187Y125197D02*
X240286D01*
X241336Y128870D02*
X243435D01*
X242385D01*
Y125722D01*
X244484D02*
Y128870D01*
X246058D01*
X246583Y128345D01*
Y127296D01*
X246058Y126771D01*
X244484D01*
X245534D02*
X246583Y125722D01*
X233792Y45406D02*
X231693D01*
Y43831D01*
X232742D01*
X231693D01*
Y42257D01*
X234841Y45406D02*
Y42257D01*
X236416D01*
X236941Y42782D01*
Y44881D01*
X236416Y45406D01*
X234841D01*
X237990Y41732D02*
X240089D01*
X241139Y45406D02*
Y42257D01*
X242713D01*
X243238Y42782D01*
Y43307D01*
X242713Y43831D01*
X241139D01*
X242713D01*
X243238Y44356D01*
Y44881D01*
X242713Y45406D01*
X241139D01*
X244287Y42257D02*
Y45406D01*
X245862D01*
X246386Y44881D01*
Y43831D01*
X245862Y43307D01*
X244287D01*
X245337D02*
X246386Y42257D01*
X50984Y165453D02*
Y168601D01*
X52558D01*
X53083Y168077D01*
Y167027D01*
X52558Y166502D01*
X50984D01*
X55707Y168601D02*
X54658D01*
X54133Y168077D01*
Y165978D01*
X54658Y165453D01*
X55707D01*
X56232Y165978D01*
Y168077D01*
X55707Y168601D01*
X57281D02*
Y165453D01*
X58331Y166502D01*
X59381Y165453D01*
Y168601D01*
X62529D02*
X60430D01*
Y165453D01*
X62529D01*
X60430Y167027D02*
X61480D01*
X63579Y165453D02*
Y168601D01*
X65153D01*
X65678Y168077D01*
Y167027D01*
X65153Y166502D01*
X63579D01*
X64628D02*
X65678Y165453D01*
X69876Y168601D02*
Y165453D01*
X71975D01*
X75123Y168601D02*
X73024D01*
Y165453D01*
X75123D01*
X73024Y167027D02*
X74074D01*
X76173Y168601D02*
Y165453D01*
X77747D01*
X78272Y165978D01*
Y168077D01*
X77747Y168601D01*
X76173D01*
D14*
X49075Y138996D02*
Y148996D01*
X29075Y138996D02*
X49075D01*
X29075Y148996D02*
X49075D01*
X29075Y138996D02*
Y148996D01*
D15*
X88571Y110222D02*
X91871D01*
X87971Y110122D02*
X92471D01*
X87471Y110022D02*
X92971D01*
X87071Y109922D02*
X93371D01*
X86671Y109822D02*
X93771D01*
X86371Y109722D02*
X94071D01*
X86071Y109622D02*
X94371D01*
X85771Y109522D02*
X88871D01*
X91671D02*
X94671D01*
X85471Y109422D02*
X88171D01*
X92271D02*
X94971D01*
X85271Y109322D02*
X87671D01*
X92771D02*
X95171D01*
X85071Y109222D02*
X87271D01*
X93171D02*
X95371D01*
X84871Y109122D02*
X86971D01*
X89271D02*
X89571D01*
X90271D02*
X91171D01*
X93471D02*
X95571D01*
X84671Y109022D02*
X86571D01*
X89171D02*
X89671D01*
X90271D02*
X91371D01*
X93871D02*
X95771D01*
X84471Y108922D02*
X86371D01*
X87671D02*
X88371D01*
X89171D02*
X89671D01*
X90271D02*
X91471D01*
X94171D02*
X95971D01*
X84271Y108822D02*
X86071D01*
X87471D02*
X88571D01*
X89171D02*
X89671D01*
X90271D02*
X91471D01*
X92471D02*
X92871D01*
X94371D02*
X96171D01*
X84071Y108722D02*
X85771D01*
X87371D02*
X88571D01*
X89171D02*
X89671D01*
X90271D02*
X91571D01*
X92371D02*
X92871D01*
X94671D02*
X96371D01*
X83871Y108622D02*
X85571D01*
X87371D02*
X88671D01*
X89171D02*
X89671D01*
X90271D02*
X91571D01*
X92271D02*
X92971D01*
X94871D02*
X96571D01*
X83771Y108522D02*
X85371D01*
X87371D02*
X88671D01*
X89171D02*
X89671D01*
X90171D02*
X90771D01*
X90971D02*
X91571D01*
X92171D02*
X92971D01*
X95071D02*
X96671D01*
X83571Y108422D02*
X85171D01*
X87371D02*
X88671D01*
X89171D02*
X89771D01*
X90171D02*
X91571D01*
X92071D02*
X92971D01*
X95271D02*
X96871D01*
X83471Y108322D02*
X84971D01*
X85871D02*
X86471D01*
X87371D02*
X87971D01*
X88071D02*
X88671D01*
X89171D02*
X89771D01*
X90171D02*
X91471D01*
X92071D02*
X92971D01*
X94071D02*
X94471D01*
X95471D02*
X96971D01*
X83271Y108222D02*
X84771D01*
X85671D02*
X86671D01*
X87371D02*
X88671D01*
X89171D02*
X89771D01*
X90171D02*
X91471D01*
X91971D02*
X93071D01*
X93871D02*
X94771D01*
X95671D02*
X97171D01*
X83171Y108122D02*
X84571D01*
X85571D02*
X86771D01*
X87371D02*
X88571D01*
X89171D02*
X89771D01*
X90171D02*
X91371D01*
X91871D02*
X93071D01*
X93871D02*
X94971D01*
X95871D02*
X97271D01*
X82971Y108022D02*
X84371D01*
X85471D02*
X86871D01*
X87371D02*
X88571D01*
X89171D02*
X89771D01*
X90171D02*
X90771D01*
X90971D02*
X91071D01*
X91771D02*
X93071D01*
X93771D02*
X94971D01*
X96071D02*
X97471D01*
X82871Y107922D02*
X84271D01*
X85371D02*
X86971D01*
X87371D02*
X88671D01*
X89171D02*
X89771D01*
X90171D02*
X90771D01*
X91771D02*
X93071D01*
X93771D02*
X94971D01*
X96271D02*
X97571D01*
X82771Y107822D02*
X84071D01*
X85371D02*
X86971D01*
X87471D02*
X88771D01*
X89171D02*
X89771D01*
X90171D02*
X90771D01*
X91671D02*
X93071D01*
X93671D02*
X94971D01*
X96371D02*
X97671D01*
X82671Y107722D02*
X83871D01*
X85371D02*
X85971D01*
X86371D02*
X86971D01*
X87471D02*
X88771D01*
X89271D02*
X89771D01*
X90171D02*
X90771D01*
X91671D02*
X93071D01*
X93671D02*
X94371D01*
X94471D02*
X94971D01*
X96571D02*
X97871D01*
X82471Y107622D02*
X83771D01*
X85271D02*
X85871D01*
X86471D02*
X86971D01*
X87471D02*
X88871D01*
X89271D02*
X89771D01*
X90171D02*
X90671D01*
X91671D02*
X93071D01*
X93771D02*
X94571D01*
X96671D02*
X97971D01*
X82371Y107522D02*
X83571D01*
X85271D02*
X85871D01*
X86471D02*
X87071D01*
X87471D02*
X88071D01*
X88171D02*
X88871D01*
X89271D02*
X89671D01*
X90271D02*
X90671D01*
X91671D02*
X92171D01*
X92471D02*
X93071D01*
X93771D02*
X94771D01*
X96871D02*
X98071D01*
X82271Y107422D02*
X83471D01*
X85271D02*
X85871D01*
X86471D02*
X86971D01*
X87571D02*
X88071D01*
X88371D02*
X88771D01*
X91671D02*
X92071D01*
X92571D02*
X93071D01*
X93871D02*
X94771D01*
X96971D02*
X98171D01*
X82171Y107322D02*
X83371D01*
X83971D02*
X84371D01*
X85271D02*
X85971D01*
X86371D02*
X86971D01*
X87571D02*
X88071D01*
X92571D02*
X93071D01*
X93571D02*
X93971D01*
X94071D02*
X94771D01*
X96071D02*
X96471D01*
X97071D02*
X98271D01*
X82071Y107222D02*
X83171D01*
X83971D02*
X84471D01*
X85371D02*
X86071D01*
X86271D02*
X86971D01*
X87671D02*
X87871D01*
X92571D02*
X93071D01*
X93471D02*
X94771D01*
X95871D02*
X96471D01*
X97271D02*
X98471D01*
X81871Y107122D02*
X83071D01*
X83971D02*
X84471D01*
X85371D02*
X86971D01*
X89971D02*
X90471D01*
X93471D02*
X94771D01*
X95671D02*
X96471D01*
X97371D02*
X98571D01*
X81771Y107022D02*
X82971D01*
X83971D02*
X84571D01*
X85471D02*
X86871D01*
X88871D02*
X91671D01*
X93471D02*
X94771D01*
X95571D02*
X96471D01*
X97471D02*
X98671D01*
X81671Y106922D02*
X82871D01*
X83971D02*
X84671D01*
X85471D02*
X86771D01*
X88271D02*
X92171D01*
X93471D02*
X94671D01*
X95371D02*
X96471D01*
X97571D02*
X98771D01*
X81571Y106822D02*
X82671D01*
X84071D02*
X84771D01*
X85571D02*
X86671D01*
X87871D02*
X92571D01*
X93671D02*
X94671D01*
X95271D02*
X96471D01*
X97771D02*
X98871D01*
X81471Y106722D02*
X82571D01*
X84071D02*
X84771D01*
X85771D02*
X86571D01*
X87571D02*
X92971D01*
X93871D02*
X94571D01*
X95071D02*
X96471D01*
X97871D02*
X98971D01*
X81371Y106622D02*
X82471D01*
X83071D02*
X83571D01*
X84171D02*
X84871D01*
X87271D02*
X89171D01*
X91371D02*
X93271D01*
X94971D02*
X96471D01*
X97971D02*
X99071D01*
X81271Y106522D02*
X82371D01*
X82971D02*
X83671D01*
X84171D02*
X85471D01*
X86971D02*
X88571D01*
X91971D02*
X93471D01*
X94871D02*
X96371D01*
X97071D02*
X97471D01*
X98071D02*
X99171D01*
X81171Y106422D02*
X82271D01*
X82771D02*
X83671D01*
X84271D02*
X85471D01*
X86671D02*
X88171D01*
X92371D02*
X93771D01*
X94871D02*
X96371D01*
X96971D02*
X97571D01*
X98171D02*
X99271D01*
X81071Y106322D02*
X82171D01*
X82671D02*
X83571D01*
X84371D02*
X85471D01*
X86471D02*
X87771D01*
X92771D02*
X93971D01*
X94871D02*
X96371D01*
X96971D02*
X97671D01*
X98271D02*
X99371D01*
X81071Y106222D02*
X82071D01*
X82571D02*
X83471D01*
X84371D02*
X85371D01*
X86271D02*
X87471D01*
X93071D02*
X94171D01*
X94871D02*
X95371D01*
X95471D02*
X96371D01*
X96971D02*
X97871D01*
X98371D02*
X99471D01*
X80971Y106122D02*
X81971D01*
X82571D02*
X83871D01*
X84471D02*
X85371D01*
X86071D02*
X87171D01*
X93371D02*
X94371D01*
X95671D02*
X96371D01*
X97071D02*
X97871D01*
X98471D02*
X99471D01*
X80871Y106022D02*
X81871D01*
X82571D02*
X83871D01*
X84571D02*
X85171D01*
X85871D02*
X86871D01*
X93571D02*
X94571D01*
X95671D02*
X96271D01*
X97071D02*
X97971D01*
X98571D02*
X99571D01*
X80771Y105922D02*
X81771D01*
X82571D02*
X83871D01*
X84571D02*
X85071D01*
X85671D02*
X86671D01*
X93771D02*
X94771D01*
X95671D02*
X96271D01*
X96971D02*
X98071D01*
X98671D02*
X99671D01*
X80671Y105822D02*
X81671D01*
X82571D02*
X83871D01*
X85471D02*
X86471D01*
X93971D02*
X94971D01*
X95671D02*
X96271D01*
X96871D02*
X98071D01*
X98771D02*
X99771D01*
X80571Y105722D02*
X81571D01*
X82571D02*
X83771D01*
X85371D02*
X86471D01*
X94171D02*
X95071D01*
X95771D02*
X96171D01*
X96771D02*
X98071D01*
X98871D02*
X99871D01*
X80571Y105622D02*
X81471D01*
X82671D02*
X83671D01*
X85171D02*
X86071D01*
X86171D02*
X86771D01*
X94371D02*
X95271D01*
X95871D02*
X96071D01*
X96671D02*
X98071D01*
X98971D02*
X99971D01*
X80471Y105522D02*
X81471D01*
X82771D02*
X83571D01*
X85071D02*
X85871D01*
X86471D02*
X86971D01*
X94571D02*
X95371D01*
X96571D02*
X97471D01*
X99071D02*
X99971D01*
X80371Y105422D02*
X81371D01*
X82871D02*
X83671D01*
X84871D02*
X85671D01*
X86671D02*
X87171D01*
X94771D02*
X95571D01*
X96571D02*
X97371D01*
X99071D02*
X100071D01*
X80271Y105322D02*
X81271D01*
X82971D02*
X83771D01*
X84771D02*
X85571D01*
X86871D02*
X87271D01*
X94871D02*
X95671D01*
X96471D02*
X97271D01*
X99171D02*
X100171D01*
X80271Y105222D02*
X81171D01*
X83071D02*
X83771D01*
X84671D02*
X85371D01*
X86971D02*
X87471D01*
X95071D02*
X95771D01*
X96471D02*
X97171D01*
X99271D02*
X100271D01*
X80171Y105122D02*
X81071D01*
X83171D02*
X83771D01*
X84471D02*
X85271D01*
X87171D02*
X87671D01*
X95171D02*
X95971D01*
X96471D02*
X97071D01*
X99371D02*
X100271D01*
X80071Y105022D02*
X81071D01*
X83171D02*
X83771D01*
X84371D02*
X85071D01*
X87371D02*
X87771D01*
X95271D02*
X96071D01*
X96571D02*
X96971D01*
X99471D02*
X100371D01*
X79971Y104922D02*
X80971D01*
X83271D02*
X83771D01*
X84271D02*
X84971D01*
X87471D02*
X87971D01*
X95471D02*
X96171D01*
X99471D02*
X100471D01*
X79971Y104822D02*
X80871D01*
X84171D02*
X84871D01*
X87671D02*
X88071D01*
X95571D02*
X96271D01*
X99571D02*
X100471D01*
X79871Y104722D02*
X80771D01*
X84071D02*
X84771D01*
X87771D02*
X88171D01*
X95671D02*
X96371D01*
X99671D02*
X100571D01*
X79871Y104622D02*
X80771D01*
X83971D02*
X84671D01*
X87871D02*
X88371D01*
X95771D02*
X96471D01*
X99771D02*
X100671D01*
X79771Y104522D02*
X80671D01*
X83871D02*
X84571D01*
X88071D02*
X88471D01*
X95971D02*
X96571D01*
X99771D02*
X100671D01*
X79671Y104422D02*
X80571D01*
X83771D02*
X84471D01*
X88171D02*
X88671D01*
X96071D02*
X96671D01*
X99871D02*
X100771D01*
X79671Y104322D02*
X80571D01*
X83671D02*
X84271D01*
X88271D02*
X88771D01*
X96171D02*
X96771D01*
X99971D02*
X100871D01*
X79571Y104222D02*
X80471D01*
X83571D02*
X84171D01*
X88371D02*
X88871D01*
X93471D02*
X93571D01*
X96271D02*
X96871D01*
X99971D02*
X100871D01*
X79571Y104122D02*
X80371D01*
X83471D02*
X84071D01*
X88471D02*
X88971D01*
X93371D02*
X93771D01*
X96371D02*
X96971D01*
X100071D02*
X100971D01*
X79471Y104022D02*
X80371D01*
X83371D02*
X83971D01*
X88671D02*
X89171D01*
X93371D02*
X93871D01*
X96471D02*
X97071D01*
X100171D02*
X100971D01*
X79371Y103922D02*
X80271D01*
X83271D02*
X83871D01*
X88771D02*
X89271D01*
X93371D02*
X93871D01*
X96571D02*
X97171D01*
X100171D02*
X101071D01*
X79371Y103822D02*
X80271D01*
X83171D02*
X83771D01*
X88871D02*
X89371D01*
X93371D02*
X93771D01*
X96671D02*
X97271D01*
X100271D02*
X101071D01*
X79271Y103722D02*
X80171D01*
X83071D02*
X83771D01*
X88971D02*
X89471D01*
X93571D02*
X93771D01*
X96771D02*
X97371D01*
X100271D02*
X101171D01*
X79271Y103622D02*
X80071D01*
X83071D02*
X83671D01*
X89071D02*
X89571D01*
X96771D02*
X97471D01*
X100371D02*
X101171D01*
X79171Y103522D02*
X80071D01*
X82971D02*
X83571D01*
X89171D02*
X89671D01*
X94771D02*
X95071D01*
X96871D02*
X97471D01*
X100371D02*
X101271D01*
X79171Y103422D02*
X79971D01*
X82871D02*
X83471D01*
X89271D02*
X89771D01*
X94771D02*
X95171D01*
X96971D02*
X97571D01*
X100471D02*
X101271D01*
X79071Y103322D02*
X79971D01*
X82771D02*
X83371D01*
X89371D02*
X89871D01*
X94671D02*
X95171D01*
X97071D02*
X97671D01*
X100571D02*
X101371D01*
X79071Y103222D02*
X79871D01*
X82771D02*
X83271D01*
X89471D02*
X89971D01*
X94671D02*
X95171D01*
X97171D02*
X97771D01*
X100571D02*
X101371D01*
X78971Y103122D02*
X79871D01*
X82671D02*
X83271D01*
X89571D02*
X90071D01*
X94871D02*
X95071D01*
X97171D02*
X97771D01*
X100671D02*
X101471D01*
X78971Y103022D02*
X79771D01*
X82571D02*
X83171D01*
X89671D02*
X90171D01*
X97271D02*
X97871D01*
X100671D02*
X101471D01*
X78871Y102922D02*
X79771D01*
X82571D02*
X83071D01*
X89671D02*
X90271D01*
X97371D02*
X97971D01*
X100771D02*
X101571D01*
X78871Y102822D02*
X79671D01*
X82471D02*
X82971D01*
X83971D02*
X84971D01*
X86171D02*
X86671D01*
X89771D02*
X90371D01*
X97471D02*
X97971D01*
X100771D02*
X101571D01*
X78871Y102722D02*
X79671D01*
X82371D02*
X82971D01*
X83571D02*
X85571D01*
X85871D02*
X86871D01*
X89871D02*
X90471D01*
X92871D02*
X93071D01*
X97471D02*
X98071D01*
X100871D02*
X101671D01*
X78771Y102622D02*
X79671D01*
X82371D02*
X82871D01*
X83171D02*
X87071D01*
X89971D02*
X90471D01*
X92771D02*
X93271D01*
X97571D02*
X98071D01*
X100871D02*
X101671D01*
X78771Y102522D02*
X79571D01*
X82271D02*
X87271D01*
X90071D02*
X90571D01*
X92771D02*
X93371D01*
X94471D02*
X94871D01*
X97671D02*
X98171D01*
X100871D02*
X101671D01*
X78671Y102422D02*
X79571D01*
X82271D02*
X87471D01*
X90171D02*
X90671D01*
X92771D02*
X93371D01*
X94371D02*
X94871D01*
X97671D02*
X98271D01*
X100971D02*
X101771D01*
X78671Y102322D02*
X79471D01*
X82171D02*
X87671D01*
X90271D02*
X90771D01*
X92771D02*
X93271D01*
X94471D02*
X94771D01*
X97771D02*
X98271D01*
X100971D02*
X101771D01*
X78671Y102222D02*
X79471D01*
X82171D02*
X87871D01*
X90271D02*
X90871D01*
X92971D02*
X93171D01*
X94571D02*
X94771D01*
X97771D02*
X98371D01*
X101071D02*
X101871D01*
X78571Y102122D02*
X79371D01*
X82071D02*
X87971D01*
X90371D02*
X90871D01*
X97871D02*
X98371D01*
X101071D02*
X101871D01*
X78571Y102022D02*
X79371D01*
X82071D02*
X88271D01*
X90471D02*
X90971D01*
X97971D02*
X98471D01*
X101071D02*
X101871D01*
X78571Y101922D02*
X79371D01*
X81971D02*
X89871D01*
X90571D02*
X91071D01*
X97971D02*
X98471D01*
X101171D02*
X101971D01*
X78471Y101822D02*
X79271D01*
X81971D02*
X90271D01*
X90571D02*
X91071D01*
X97971D02*
X98571D01*
X101171D02*
X101971D01*
X78471Y101722D02*
X79271D01*
X81871D02*
X90371D01*
X90671D02*
X91171D01*
X98071D02*
X98571D01*
X101271D02*
X101971D01*
X78471Y101622D02*
X79271D01*
X81871D02*
X90471D01*
X90771D02*
X91271D01*
X98071D02*
X98571D01*
X101271D02*
X102071D01*
X78471Y101522D02*
X79171D01*
X81771D02*
X90571D01*
X90771D02*
X91271D01*
X98171D02*
X98671D01*
X101271D02*
X102071D01*
X78371Y101422D02*
X79171D01*
X81771D02*
X90571D01*
X90871D02*
X91371D01*
X98171D02*
X98671D01*
X101371D02*
X102071D01*
X78371Y101322D02*
X79171D01*
X81771D02*
X90671D01*
X90971D02*
X91471D01*
X98271D02*
X98771D01*
X101371D02*
X102071D01*
X78371Y101222D02*
X79071D01*
X81671D02*
X90771D01*
X90971D02*
X91471D01*
X98271D02*
X98771D01*
X101371D02*
X102171D01*
X78271Y101122D02*
X79071D01*
X81671D02*
X90771D01*
X91071D02*
X91571D01*
X98271D02*
X98771D01*
X101371D02*
X102171D01*
X78271Y101022D02*
X79071D01*
X81671D02*
X90871D01*
X91171D02*
X91571D01*
X94471D02*
X94771D01*
X98371D02*
X98871D01*
X101471D02*
X102171D01*
X78271Y100922D02*
X79071D01*
X81571D02*
X90871D01*
X91171D02*
X91671D01*
X94371D02*
X94871D01*
X98371D02*
X98871D01*
X101471D02*
X102171D01*
X78271Y100822D02*
X78971D01*
X81571D02*
X90971D01*
X91271D02*
X91671D01*
X94371D02*
X94971D01*
X98371D02*
X98871D01*
X101471D02*
X102271D01*
X78171Y100722D02*
X78971D01*
X81571D02*
X90971D01*
X91271D02*
X91771D01*
X94271D02*
X94971D01*
X98471D02*
X98971D01*
X101471D02*
X102271D01*
X78171Y100622D02*
X78971D01*
X81471D02*
X90971D01*
X91371D02*
X91771D01*
X94371D02*
X94871D01*
X98471D02*
X98971D01*
X101571D02*
X102271D01*
X78171Y100522D02*
X78971D01*
X81471D02*
X91071D01*
X91371D02*
X91871D01*
X94571D02*
X94771D01*
X98471D02*
X98971D01*
X101571D02*
X102271D01*
X78171Y100422D02*
X78871D01*
X81471D02*
X91071D01*
X91471D02*
X91871D01*
X98571D02*
X99071D01*
X101571D02*
X102371D01*
X78171Y100322D02*
X78871D01*
X81371D02*
X91071D01*
X91471D02*
X91971D01*
X98571D02*
X99071D01*
X101571D02*
X102371D01*
X78071Y100222D02*
X78871D01*
X81371D02*
X91071D01*
X91571D02*
X91971D01*
X98571D02*
X99071D01*
X101671D02*
X102371D01*
X107071D02*
X107471D01*
X78071Y100122D02*
X78871D01*
X81371D02*
X91071D01*
X91571D02*
X92071D01*
X96571D02*
X97071D01*
X98571D02*
X99071D01*
X101671D02*
X102371D01*
X106771D02*
X107471D01*
X78071Y100022D02*
X78871D01*
X81371D02*
X91171D01*
X91671D02*
X92071D01*
X96671D02*
X97371D01*
X98671D02*
X99171D01*
X101671D02*
X102371D01*
X106471D02*
X107371D01*
X78071Y99922D02*
X78771D01*
X81371D02*
X91171D01*
X91671D02*
X92171D01*
X96871D02*
X97671D01*
X98671D02*
X99171D01*
X101671D02*
X102371D01*
X106171D02*
X107171D01*
X78071Y99822D02*
X78771D01*
X81271D02*
X91171D01*
X91771D02*
X92171D01*
X97071D02*
X97971D01*
X98671D02*
X99171D01*
X101671D02*
X102471D01*
X105871D02*
X106971D01*
X78071Y99722D02*
X78771D01*
X81271D02*
X91171D01*
X91771D02*
X92271D01*
X97371D02*
X98171D01*
X98771D02*
X99171D01*
X101671D02*
X102471D01*
X105671D02*
X106571D01*
X77971Y99622D02*
X78771D01*
X81271D02*
X91171D01*
X91871D02*
X92271D01*
X97571D02*
X98471D01*
X98771D02*
X99171D01*
X101671D02*
X102471D01*
X105371D02*
X106271D01*
X77971Y99522D02*
X78771D01*
X81271D02*
X91171D01*
X91871D02*
X92271D01*
X97871D02*
X99171D01*
X101771D02*
X102471D01*
X105171D02*
X106071D01*
X77971Y99422D02*
X78771D01*
X81271D02*
X91171D01*
X91871D02*
X92371D01*
X98171D02*
X99271D01*
X101771D02*
X102471D01*
X104871D02*
X105771D01*
X77971Y99322D02*
X78771D01*
X81171D02*
X91271D01*
X91971D02*
X92371D01*
X98471D02*
X99371D01*
X101771D02*
X102471D01*
X104571D02*
X105471D01*
X77971Y99222D02*
X78671D01*
X81171D02*
X91271D01*
X91971D02*
X92471D01*
X98671D02*
X99571D01*
X101671D02*
X102471D01*
X104271D02*
X105271D01*
X77971Y99122D02*
X78671D01*
X81171D02*
X91271D01*
X92071D02*
X92471D01*
X98871D02*
X99871D01*
X101371D02*
X102771D01*
X103971D02*
X104971D01*
X77971Y99022D02*
X78671D01*
X81171D02*
X81571D01*
X81771D02*
X91371D01*
X92071D02*
X92471D01*
X98871D02*
X100171D01*
X101071D02*
X101871D01*
X101971D02*
X102171D01*
X102271D02*
X103071D01*
X103671D02*
X104671D01*
X77971Y98922D02*
X78671D01*
X81171D02*
X81571D01*
X81871D02*
X91371D01*
X92071D02*
X92571D01*
X98871D02*
X99271D01*
X99471D02*
X100371D01*
X100671D02*
X101771D01*
X101971D02*
X102171D01*
X102571D02*
X104371D01*
X77971Y98822D02*
X78671D01*
X81171D02*
X81571D01*
X81871D02*
X91371D01*
X92171D02*
X92571D01*
X98871D02*
X99271D01*
X99671D02*
X101771D01*
X101971D02*
X102171D01*
X102271D02*
X102771D01*
X102871D02*
X104171D01*
X77971Y98722D02*
X78671D01*
X81171D02*
X81571D01*
X81871D02*
X91471D01*
X92171D02*
X92571D01*
X98871D02*
X99271D01*
X99971D02*
X100871D01*
X100971D02*
X101771D01*
X101971D02*
X102171D01*
X102271D02*
X103071D01*
X103171D02*
X103871D01*
X77971Y98622D02*
X78671D01*
X81171D02*
X81571D01*
X81771D02*
X91471D01*
X92171D02*
X92671D01*
X98871D02*
X99271D01*
X100171D02*
X101471D01*
X101571D02*
X101771D01*
X101971D02*
X102171D01*
X102271D02*
X103371D01*
X103471D02*
X104171D01*
X77971Y98522D02*
X78671D01*
X81171D02*
X81571D01*
X81771D02*
X91471D01*
X92271D02*
X92671D01*
X98871D02*
X99371D01*
X99871D02*
X101171D01*
X101571D02*
X101771D01*
X101971D02*
X102171D01*
X102271D02*
X102571D01*
X102971D02*
X104471D01*
X77871Y98422D02*
X78671D01*
X81171D02*
X81571D01*
X81671D02*
X91571D01*
X92271D02*
X92671D01*
X98871D02*
X99371D01*
X99571D02*
X100871D01*
X101571D02*
X101771D01*
X101971D02*
X102171D01*
X102271D02*
X102571D01*
X103171D02*
X104771D01*
X77871Y98322D02*
X78671D01*
X81171D02*
X81571D01*
X81671D02*
X91571D01*
X92271D02*
X92671D01*
X98871D02*
X100571D01*
X101571D02*
X101771D01*
X101971D02*
X102171D01*
X102271D02*
X102571D01*
X103471D02*
X104871D01*
X77871Y98222D02*
X78671D01*
X81171D02*
X91671D01*
X92271D02*
X92771D01*
X98871D02*
X100271D01*
X101571D02*
X101771D01*
X101971D02*
X102171D01*
X102371D02*
X102571D01*
X103771D02*
X104471D01*
X104571D02*
X104971D01*
X77871Y98122D02*
X78671D01*
X81171D02*
X91671D01*
X92371D02*
X92771D01*
X98871D02*
X100071D01*
X101471D02*
X101771D01*
X101971D02*
X102171D01*
X102371D02*
X102571D01*
X104071D02*
X104571D01*
X104671D02*
X104971D01*
X77871Y98022D02*
X78671D01*
X81071D02*
X91671D01*
X92371D02*
X92771D01*
X98871D02*
X99771D01*
X101471D02*
X101771D01*
X101971D02*
X102171D01*
X102371D02*
X102571D01*
X104271D02*
X104571D01*
X104771D02*
X104971D01*
X77871Y97922D02*
X78671D01*
X81071D02*
X91671D01*
X92371D02*
X92771D01*
X98871D02*
X99671D01*
X101371D02*
X101671D01*
X101971D02*
X102171D01*
X102371D02*
X102671D01*
X104371D02*
X104571D01*
X104771D02*
X104971D01*
X77871Y97822D02*
X78671D01*
X81071D02*
X91771D01*
X92371D02*
X92871D01*
X98871D02*
X99371D01*
X99471D02*
X99671D01*
X101271D02*
X101671D01*
X101971D02*
X102171D01*
X102471D02*
X102771D01*
X104371D02*
X104571D01*
X104771D02*
X104971D01*
X77971Y97722D02*
X78671D01*
X81171D02*
X91771D01*
X92471D02*
X92871D01*
X98871D02*
X99371D01*
X99471D02*
X99671D01*
X101271D02*
X101571D01*
X101971D02*
X102171D01*
X102471D02*
X102871D01*
X104371D02*
X104571D01*
X104771D02*
X104971D01*
X77971Y97622D02*
X78671D01*
X81171D02*
X91771D01*
X92471D02*
X92871D01*
X98871D02*
X99371D01*
X99471D02*
X99671D01*
X101071D02*
X101471D01*
X101971D02*
X102171D01*
X102571D02*
X102971D01*
X104371D02*
X104571D01*
X104771D02*
X104971D01*
X77971Y97522D02*
X78671D01*
X81171D02*
X91871D01*
X92471D02*
X92871D01*
X98871D02*
X99371D01*
X99471D02*
X99771D01*
X100871D02*
X101371D01*
X101571D02*
X101771D01*
X101971D02*
X102171D01*
X102671D02*
X103171D01*
X104371D02*
X104571D01*
X104771D02*
X104971D01*
X77971Y97422D02*
X78671D01*
X81171D02*
X81571D01*
X81671D02*
X91871D01*
X92471D02*
X92871D01*
X98871D02*
X99371D01*
X99471D02*
X99771D01*
X100571D02*
X101771D01*
X101971D02*
X102171D01*
X102271D02*
X103471D01*
X104371D02*
X104571D01*
X104771D02*
X104971D01*
X77971Y97322D02*
X78671D01*
X81171D02*
X81571D01*
X81671D02*
X91871D01*
X92471D02*
X92971D01*
X98871D02*
X99371D01*
X99471D02*
X99871D01*
X100271D02*
X101771D01*
X101971D02*
X102171D01*
X102271D02*
X103771D01*
X104171D02*
X104571D01*
X104771D02*
X104971D01*
X77971Y97222D02*
X78671D01*
X81171D02*
X81571D01*
X81671D02*
X91871D01*
X92571D02*
X92971D01*
X98771D02*
X99371D01*
X99571D02*
X101371D01*
X101571D02*
X101771D01*
X101971D02*
X102171D01*
X102271D02*
X102571D01*
X102671D02*
X104571D01*
X104771D02*
X105171D01*
X77971Y97122D02*
X78671D01*
X81171D02*
X81671D01*
X81771D02*
X91871D01*
X92571D02*
X92971D01*
X98471D02*
X99371D01*
X99671D02*
X101071D01*
X101571D02*
X101771D01*
X101971D02*
X102171D01*
X102271D02*
X102571D01*
X102971D02*
X104371D01*
X104771D02*
X105471D01*
X77971Y97022D02*
X78671D01*
X81171D02*
X81671D01*
X81771D02*
X91871D01*
X92571D02*
X92971D01*
X98171D02*
X99371D01*
X99971D02*
X100771D01*
X101471D02*
X101771D01*
X101971D02*
X102171D01*
X102271D02*
X102571D01*
X103271D02*
X104171D01*
X104771D02*
X105771D01*
X77971Y96922D02*
X78671D01*
X81171D02*
X81671D01*
X81771D02*
X91871D01*
X92571D02*
X92971D01*
X97871D02*
X99371D01*
X99771D02*
X100571D01*
X101471D02*
X101771D01*
X101971D02*
X102171D01*
X102271D02*
X102571D01*
X103571D02*
X104271D01*
X104771D02*
X104971D01*
X105071D02*
X106071D01*
X77971Y96822D02*
X78671D01*
X81171D02*
X81671D01*
X81871D02*
X91871D01*
X92571D02*
X92971D01*
X97571D02*
X98571D01*
X98771D02*
X99371D01*
X99571D02*
X100271D01*
X101471D02*
X101771D01*
X101971D02*
X102171D01*
X102371D02*
X102571D01*
X103771D02*
X104571D01*
X104771D02*
X104971D01*
X105271D02*
X106371D01*
X77971Y96722D02*
X78671D01*
X81171D02*
X81671D01*
X81871D02*
X91871D01*
X92571D02*
X92971D01*
X97271D02*
X98271D01*
X98771D02*
X99371D01*
X99471D02*
X99971D01*
X101471D02*
X101771D01*
X101971D02*
X102171D01*
X102371D02*
X102571D01*
X104071D02*
X104571D01*
X104771D02*
X104971D01*
X105571D02*
X106671D01*
X77971Y96622D02*
X78771D01*
X81271D02*
X81671D01*
X81971D02*
X91871D01*
X92571D02*
X93071D01*
X97071D02*
X97971D01*
X98771D02*
X99371D01*
X99471D02*
X99771D01*
X101471D02*
X101671D01*
X101971D02*
X102171D01*
X102371D02*
X102671D01*
X104371D02*
X104571D01*
X104771D02*
X104971D01*
X105971D02*
X106971D01*
X77971Y96522D02*
X78771D01*
X81271D02*
X81771D01*
X81971D02*
X91771D01*
X92571D02*
X93071D01*
X96771D02*
X97671D01*
X98671D02*
X99371D01*
X99471D02*
X99771D01*
X101371D02*
X101671D01*
X101971D02*
X102171D01*
X102371D02*
X102671D01*
X104371D02*
X104571D01*
X104771D02*
X104971D01*
X106171D02*
X107171D01*
X78071Y96422D02*
X78771D01*
X81271D02*
X81771D01*
X81971D02*
X91771D01*
X92671D02*
X93071D01*
X96571D02*
X97471D01*
X98471D02*
X99371D01*
X99471D02*
X99771D01*
X101371D02*
X101671D01*
X101971D02*
X102171D01*
X102471D02*
X102771D01*
X104371D02*
X104571D01*
X104771D02*
X104971D01*
X106471D02*
X107371D01*
X78071Y96322D02*
X78771D01*
X81271D02*
X81771D01*
X82071D02*
X91671D01*
X92671D02*
X93071D01*
X96571D02*
X97171D01*
X98371D02*
X99371D01*
X99471D02*
X99771D01*
X101271D02*
X101571D01*
X101971D02*
X102171D01*
X102471D02*
X102871D01*
X104371D02*
X104571D01*
X104771D02*
X104971D01*
X106771D02*
X107471D01*
X78071Y96222D02*
X78771D01*
X81271D02*
X81771D01*
X82171D02*
X91571D01*
X92671D02*
X93071D01*
X98171D02*
X99371D01*
X99471D02*
X99671D01*
X101071D02*
X101471D01*
X101971D02*
X102171D01*
X102571D02*
X103071D01*
X104371D02*
X104571D01*
X104771D02*
X104971D01*
X107071D02*
X107471D01*
X78071Y96122D02*
X78771D01*
X81271D02*
X81771D01*
X82371D02*
X91471D01*
X92671D02*
X93071D01*
X98071D02*
X99371D01*
X99471D02*
X99671D01*
X100871D02*
X101371D01*
X101771D02*
X102271D01*
X102671D02*
X103271D01*
X104371D02*
X104571D01*
X104771D02*
X104971D01*
X78071Y96022D02*
X78771D01*
X81371D02*
X81871D01*
X82571D02*
X91471D01*
X92671D02*
X93071D01*
X97871D02*
X99371D01*
X99471D02*
X99771D01*
X100571D02*
X101271D01*
X101471D02*
X102571D01*
X102871D02*
X103571D01*
X104371D02*
X104571D01*
X104771D02*
X104971D01*
X78071Y95922D02*
X78871D01*
X81371D02*
X81871D01*
X82771D02*
X91471D01*
X92671D02*
X93071D01*
X97671D02*
X99371D01*
X99471D02*
X99871D01*
X100271D02*
X100971D01*
X101171D02*
X101971D01*
X102071D02*
X102871D01*
X103071D02*
X103771D01*
X104171D02*
X104571D01*
X104771D02*
X104971D01*
X78171Y95822D02*
X78871D01*
X81371D02*
X81871D01*
X83071D02*
X91471D01*
X92671D02*
X93071D01*
X97471D02*
X99371D01*
X99571D02*
X100771D01*
X100971D02*
X101671D01*
X102371D02*
X103071D01*
X103371D02*
X104571D01*
X104771D02*
X104971D01*
X78171Y95722D02*
X78871D01*
X81371D02*
X81871D01*
X83271D02*
X91471D01*
X92671D02*
X93071D01*
X97271D02*
X99371D01*
X99771D02*
X100471D01*
X100671D02*
X101371D01*
X102671D02*
X103371D01*
X103571D02*
X104371D01*
X104771D02*
X104971D01*
X78171Y95622D02*
X78871D01*
X81471D02*
X81971D01*
X83471D02*
X91471D01*
X92671D02*
X93071D01*
X97071D02*
X99371D01*
X100371D02*
X101171D01*
X102971D02*
X103671D01*
X103971D02*
X104071D01*
X104771D02*
X104971D01*
X78171Y95522D02*
X78871D01*
X81471D02*
X81971D01*
X83671D02*
X91471D01*
X92671D02*
X93071D01*
X96871D02*
X99371D01*
X100071D02*
X100871D01*
X103171D02*
X103971D01*
X104771D02*
X104971D01*
X78171Y95422D02*
X78971D01*
X81471D02*
X81971D01*
X83871D02*
X91471D01*
X92671D02*
X93071D01*
X96671D02*
X99371D01*
X99771D02*
X100571D01*
X103471D02*
X104271D01*
X104671D02*
X104971D01*
X78271Y95322D02*
X78971D01*
X81571D02*
X81971D01*
X84071D02*
X91471D01*
X92671D02*
X93071D01*
X96471D02*
X99371D01*
X99571D02*
X100271D01*
X103771D02*
X104471D01*
X104671D02*
X104971D01*
X78271Y95222D02*
X78971D01*
X81571D02*
X82071D01*
X84371D02*
X91471D01*
X92671D02*
X93071D01*
X96271D02*
X99971D01*
X104071D02*
X104971D01*
X78271Y95122D02*
X78971D01*
X81571D02*
X82071D01*
X84571D02*
X91471D01*
X92671D02*
X93071D01*
X96071D02*
X99771D01*
X104271D02*
X104971D01*
X78271Y95022D02*
X79071D01*
X81671D02*
X82071D01*
X84771D02*
X91471D01*
X92671D02*
X93071D01*
X95871D02*
X99671D01*
X104371D02*
X104871D01*
X78371Y94922D02*
X79071D01*
X81671D02*
X82171D01*
X84971D02*
X91471D01*
X92671D02*
X93071D01*
X95671D02*
X99971D01*
X104071D02*
X104771D01*
X78371Y94822D02*
X79071D01*
X81671D02*
X82171D01*
X85271D02*
X91471D01*
X92671D02*
X93071D01*
X95471D02*
X100271D01*
X103771D02*
X104571D01*
X78371Y94722D02*
X79171D01*
X81771D02*
X82271D01*
X85471D02*
X91471D01*
X92671D02*
X93071D01*
X95271D02*
X100471D01*
X103571D02*
X104271D01*
X77171Y94622D02*
X77271D01*
X78371D02*
X79171D01*
X81771D02*
X82271D01*
X85771D02*
X91471D01*
X92671D02*
X93071D01*
X94971D02*
X100771D01*
X103271D02*
X103971D01*
X76971Y94522D02*
X77271D01*
X78471D02*
X79171D01*
X81871D02*
X82271D01*
X86071D02*
X91471D01*
X92671D02*
X93071D01*
X94771D02*
X101071D01*
X102971D02*
X103771D01*
X76871Y94422D02*
X77171D01*
X78471D02*
X79271D01*
X81871D02*
X82371D01*
X86471D02*
X91471D01*
X92671D02*
X93071D01*
X94571D02*
X101271D01*
X102671D02*
X103471D01*
X76771Y94322D02*
X77071D01*
X78471D02*
X79271D01*
X81971D02*
X82371D01*
X86871D02*
X91471D01*
X92671D02*
X93071D01*
X94271D02*
X100971D01*
X101171D02*
X101571D01*
X102471D02*
X103171D01*
X76671Y94222D02*
X76971D01*
X78571D02*
X79271D01*
X81971D02*
X82471D01*
X87171D02*
X91471D01*
X92671D02*
X93071D01*
X94071D02*
X100871D01*
X101171D02*
X102871D01*
X76571Y94122D02*
X76971D01*
X78571D02*
X79371D01*
X81971D02*
X82471D01*
X87171D02*
X91471D01*
X92671D02*
X92971D01*
X93771D02*
X100671D01*
X101171D02*
X102671D01*
X76571Y94022D02*
X76871D01*
X78571D02*
X79371D01*
X82071D02*
X82571D01*
X87171D02*
X91471D01*
X92671D02*
X92971D01*
X93571D02*
X100471D01*
X101071D02*
X102271D01*
X76471Y93922D02*
X76771D01*
X78671D02*
X79371D01*
X82071D02*
X82571D01*
X87271D02*
X91471D01*
X92671D02*
X92971D01*
X93271D02*
X100271D01*
X101071D02*
X101871D01*
X76471Y93822D02*
X76771D01*
X78671D02*
X79471D01*
X82171D02*
X82671D01*
X87271D02*
X91471D01*
X92671D02*
X100071D01*
X100971D02*
X101871D01*
X76371Y93722D02*
X76671D01*
X78671D02*
X79471D01*
X82271D02*
X82771D01*
X87371D02*
X91471D01*
X92671D02*
X99871D01*
X100971D02*
X101771D01*
X76371Y93622D02*
X76671D01*
X78771D02*
X79571D01*
X82271D02*
X82771D01*
X87371D02*
X91471D01*
X92371D02*
X99571D01*
X100971D02*
X101771D01*
X76371Y93522D02*
X76671D01*
X78771D02*
X79571D01*
X82371D02*
X82871D01*
X87371D02*
X91471D01*
X92171D02*
X99371D01*
X100871D02*
X101771D01*
X76371Y93422D02*
X76671D01*
X78771D02*
X79671D01*
X82371D02*
X82871D01*
X87471D02*
X91471D01*
X91771D02*
X99171D01*
X100871D02*
X101671D01*
X76371Y93322D02*
X76671D01*
X78871D02*
X79671D01*
X82471D02*
X82971D01*
X87471D02*
X98971D01*
X100771D02*
X101671D01*
X76371Y93222D02*
X76671D01*
X78871D02*
X79671D01*
X82471D02*
X83071D01*
X87571D02*
X98671D01*
X100771D02*
X101571D01*
X76371Y93122D02*
X76771D01*
X78971D02*
X79771D01*
X82571D02*
X83071D01*
X87571D02*
X98471D01*
X100671D02*
X101571D01*
X76371Y93022D02*
X76771D01*
X78971D02*
X79771D01*
X82671D02*
X83171D01*
X87571D02*
X98171D01*
X100671D02*
X101471D01*
X76371Y92922D02*
X76871D01*
X78971D02*
X79871D01*
X82671D02*
X83271D01*
X87671D02*
X97971D01*
X100571D02*
X101471D01*
X76471Y92822D02*
X76971D01*
X79071D02*
X79871D01*
X82771D02*
X83371D01*
X87671D02*
X97771D01*
X100571D02*
X101471D01*
X76471Y92722D02*
X77171D01*
X79071D02*
X79971D01*
X82871D02*
X83471D01*
X87671D02*
X97671D01*
X100471D02*
X101371D01*
X76571Y92622D02*
X77271D01*
X79171D02*
X80071D01*
X82871D02*
X83471D01*
X87771D02*
X97571D01*
X100471D02*
X101371D01*
X76671Y92522D02*
X77471D01*
X79171D02*
X80071D01*
X82971D02*
X83571D01*
X87771D02*
X97471D01*
X100371D02*
X101271D01*
X76771Y92422D02*
X77771D01*
X79271D02*
X80171D01*
X83071D02*
X83671D01*
X87771D02*
X96571D01*
X96771D02*
X97371D01*
X100371D02*
X101271D01*
X76871Y92322D02*
X77971D01*
X79271D02*
X80171D01*
X83171D02*
X83771D01*
X87171D02*
X96271D01*
X96771D02*
X97371D01*
X100271D02*
X101171D01*
X76971Y92222D02*
X78371D01*
X79371D02*
X80271D01*
X83171D02*
X83871D01*
X86571D02*
X95971D01*
X96671D02*
X97271D01*
X100271D02*
X101171D01*
X77171Y92122D02*
X78771D01*
X79371D02*
X80271D01*
X83271D02*
X83871D01*
X85871D02*
X95571D01*
X96571D02*
X97171D01*
X100171D02*
X101071D01*
X77371Y92022D02*
X79271D01*
X79471D02*
X80371D01*
X83371D02*
X83971D01*
X85171D02*
X95271D01*
X96471D02*
X97071D01*
X100171D02*
X101071D01*
X77471Y91922D02*
X80371D01*
X83471D02*
X94871D01*
X96371D02*
X96971D01*
X100071D02*
X100971D01*
X77671Y91822D02*
X94471D01*
X96271D02*
X96871D01*
X99971D02*
X100871D01*
X77971Y91722D02*
X94071D01*
X96171D02*
X96771D01*
X99971D02*
X100871D01*
X78171Y91622D02*
X93571D01*
X96071D02*
X96671D01*
X99871D02*
X100771D01*
X78471Y91522D02*
X93071D01*
X95971D02*
X96571D01*
X99871D02*
X100771D01*
X78771Y91422D02*
X92671D01*
X95771D02*
X96471D01*
X99771D02*
X100671D01*
X79071Y91322D02*
X92371D01*
X95671D02*
X96371D01*
X99671D02*
X100571D01*
X79371Y91222D02*
X91771D01*
X91971D02*
X92271D01*
X95571D02*
X96271D01*
X99671D02*
X100571D01*
X79871Y91122D02*
X91171D01*
X91971D02*
X92271D01*
X95471D02*
X96171D01*
X99571D02*
X100471D01*
X80071Y91022D02*
X90871D01*
X91971D02*
X92171D01*
X95271D02*
X96071D01*
X99471D02*
X100371D01*
X80171Y90922D02*
X81071D01*
X81171D02*
X90871D01*
X91871D02*
X92171D01*
X95171D02*
X95971D01*
X99371D02*
X100371D01*
X80271Y90822D02*
X81171D01*
X81871D02*
X90771D01*
X91871D02*
X92071D01*
X94971D02*
X95771D01*
X99371D02*
X100271D01*
X80271Y90722D02*
X81271D01*
X83271D02*
X86871D01*
X88271D02*
X90771D01*
X91771D02*
X92071D01*
X94871D02*
X95671D01*
X99271D02*
X100171D01*
X80371Y90622D02*
X81271D01*
X84971D02*
X85771D01*
X88371D02*
X90771D01*
X91771D02*
X92071D01*
X94671D02*
X95571D01*
X99171D02*
X100071D01*
X80471Y90522D02*
X81371D01*
X85171D02*
X85871D01*
X88371D02*
X90671D01*
X91771D02*
X91971D01*
X94571D02*
X95371D01*
X99071D02*
X99971D01*
X80471Y90422D02*
X81471D01*
X85271D02*
X86071D01*
X88371D02*
X90671D01*
X91671D02*
X91971D01*
X94371D02*
X95271D01*
X98971D02*
X99871D01*
X80571Y90322D02*
X81571D01*
X85371D02*
X86271D01*
X88471D02*
X90571D01*
X91671D02*
X91871D01*
X94171D02*
X95071D01*
X98871D02*
X99871D01*
X80671Y90222D02*
X81671D01*
X85571D02*
X86471D01*
X88471D02*
X90571D01*
X91671D02*
X91871D01*
X93971D02*
X94871D01*
X98771D02*
X99771D01*
X80771Y90122D02*
X81771D01*
X85671D02*
X86671D01*
X88471D02*
X90471D01*
X91671D02*
X91771D01*
X93671D02*
X94771D01*
X98671D02*
X99671D01*
X80871Y90022D02*
X81871D01*
X85871D02*
X86971D01*
X88571D02*
X90471D01*
X93471D02*
X94571D01*
X98571D02*
X99571D01*
X80971Y89922D02*
X81971D01*
X86071D02*
X87171D01*
X88571D02*
X90471D01*
X93271D02*
X94371D01*
X98471D02*
X99471D01*
X81071Y89822D02*
X82071D01*
X86271D02*
X87471D01*
X88571D02*
X90371D01*
X92971D02*
X94171D01*
X98371D02*
X99371D01*
X81171Y89722D02*
X82171D01*
X86471D02*
X87771D01*
X88571D02*
X90371D01*
X92771D02*
X93971D01*
X98271D02*
X99371D01*
X81271Y89622D02*
X82271D01*
X86771D02*
X88171D01*
X88571D02*
X90371D01*
X92371D02*
X93671D01*
X98171D02*
X99271D01*
X81371Y89522D02*
X82371D01*
X86971D02*
X90271D01*
X92071D02*
X93471D01*
X98071D02*
X99171D01*
X81471Y89422D02*
X82471D01*
X87271D02*
X90271D01*
X90871D02*
X93171D01*
X97971D02*
X99071D01*
X81571Y89322D02*
X82571D01*
X87571D02*
X92871D01*
X97871D02*
X98971D01*
X81671Y89222D02*
X82671D01*
X87871D02*
X92471D01*
X97771D02*
X98871D01*
X81771Y89122D02*
X82771D01*
X88271D02*
X92071D01*
X97671D02*
X98771D01*
X81871Y89022D02*
X82971D01*
X88871D02*
X91471D01*
X97571D02*
X98671D01*
X81971Y88922D02*
X83071D01*
X97371D02*
X98571D01*
X82071Y88822D02*
X83171D01*
X87271D02*
X87571D01*
X92671D02*
X93171D01*
X97271D02*
X98471D01*
X82171Y88722D02*
X83371D01*
X87171D02*
X87671D01*
X92471D02*
X93171D01*
X97171D02*
X98371D01*
X82271Y88622D02*
X83471D01*
X87171D02*
X87671D01*
X87971D02*
X88471D01*
X92371D02*
X93271D01*
X96971D02*
X98171D01*
X82371Y88522D02*
X83571D01*
X87071D02*
X87671D01*
X87971D02*
X88471D01*
X89171D02*
X89371D01*
X90871D02*
X91371D01*
X92271D02*
X93271D01*
X96871D02*
X98071D01*
X82471Y88422D02*
X83771D01*
X87071D02*
X87671D01*
X87971D02*
X88471D01*
X88871D02*
X90071D01*
X90671D02*
X91571D01*
X92171D02*
X93171D01*
X96671D02*
X97971D01*
X82671Y88322D02*
X83871D01*
X87071D02*
X87671D01*
X87871D02*
X88471D01*
X88871D02*
X90071D01*
X90571D02*
X91571D01*
X92171D02*
X93071D01*
X96571D02*
X97871D01*
X82771Y88222D02*
X84071D01*
X86971D02*
X87571D01*
X87871D02*
X88471D01*
X88871D02*
X90071D01*
X90471D02*
X91571D01*
X92171D02*
X92771D01*
X96371D02*
X97671D01*
X82871Y88122D02*
X84271D01*
X86971D02*
X87571D01*
X87871D02*
X88471D01*
X88871D02*
X90071D01*
X90471D02*
X91571D01*
X92171D02*
X92671D01*
X96271D02*
X97571D01*
X83071Y88022D02*
X84371D01*
X86971D02*
X87571D01*
X87871D02*
X88471D01*
X88771D02*
X90071D01*
X90471D02*
X91471D01*
X92071D02*
X92671D01*
X96071D02*
X97371D01*
X83171Y87922D02*
X84571D01*
X86971D02*
X87571D01*
X87871D02*
X88471D01*
X88771D02*
X89371D01*
X90471D02*
X91271D01*
X92071D02*
X92671D01*
X95871D02*
X97271D01*
X83371Y87822D02*
X84771D01*
X86971D02*
X87571D01*
X87771D02*
X88371D01*
X88771D02*
X89871D01*
X90471D02*
X91571D01*
X92171D02*
X92671D01*
X95671D02*
X97171D01*
X83471Y87722D02*
X84971D01*
X86971D02*
X87571D01*
X87771D02*
X88371D01*
X88771D02*
X89971D01*
X90471D02*
X91671D01*
X92171D02*
X93271D01*
X95571D02*
X96971D01*
X83671Y87622D02*
X85171D01*
X86971D02*
X88371D01*
X88771D02*
X89971D01*
X90471D02*
X91771D01*
X92171D02*
X93471D01*
X95371D02*
X96771D01*
X83771Y87522D02*
X85371D01*
X86971D02*
X88271D01*
X88771D02*
X89971D01*
X90571D02*
X91771D01*
X92271D02*
X93471D01*
X95171D02*
X96671D01*
X83971Y87422D02*
X85571D01*
X86971D02*
X88271D01*
X88771D02*
X89871D01*
X90971D02*
X91771D01*
X92271D02*
X93571D01*
X94871D02*
X96471D01*
X84171Y87322D02*
X85771D01*
X87071D02*
X88171D01*
X88771D02*
X89371D01*
X90671D02*
X91771D01*
X92371D02*
X93471D01*
X94671D02*
X96271D01*
X84271Y87222D02*
X86071D01*
X87171D02*
X88171D01*
X88771D02*
X89371D01*
X90571D02*
X91771D01*
X92571D02*
X93371D01*
X94471D02*
X96071D01*
X84471Y87122D02*
X86271D01*
X87371D02*
X87971D01*
X88771D02*
X89271D01*
X90571D02*
X91771D01*
X94171D02*
X95871D01*
X84671Y87022D02*
X86571D01*
X88771D02*
X89271D01*
X90571D02*
X91671D01*
X93871D02*
X95671D01*
X84871Y86922D02*
X86971D01*
X88871D02*
X89271D01*
X90571D02*
X91571D01*
X93571D02*
X95471D01*
X85171Y86822D02*
X87271D01*
X90671D02*
X91171D01*
X93171D02*
X95271D01*
X85371Y86722D02*
X87771D01*
X92771D02*
X95071D01*
X85571Y86622D02*
X88271D01*
X92271D02*
X94871D01*
X85871Y86522D02*
X88971D01*
X91571D02*
X94571D01*
X86071Y86422D02*
X94271D01*
X86371Y86322D02*
X93971D01*
X86771Y86222D02*
X93671D01*
X87071Y86122D02*
X93371D01*
X87471Y86022D02*
X92971D01*
X87971Y85922D02*
X92471D01*
X88671Y85822D02*
X91771D01*
D16*
X146095Y107250D02*
X145767Y107578D01*
X145111D01*
X144783Y107250D01*
Y105938D01*
X145111Y105610D01*
X145767D01*
X146095Y105938D01*
Y106594D01*
X145439D01*
X146751Y105610D02*
Y107578D01*
X148063Y105610D01*
Y107578D01*
X148719D02*
Y105610D01*
X149703D01*
X150031Y105938D01*
Y107250D01*
X149703Y107578D01*
X148719D01*
X77332Y63156D02*
X77004Y63484D01*
X76348D01*
X76020Y63156D01*
Y61844D01*
X76348Y61516D01*
X77004D01*
X77332Y61844D01*
Y62500D01*
X76676D01*
X77988Y61516D02*
Y63484D01*
X79300Y61516D01*
Y63484D01*
X79956D02*
Y61516D01*
X80940D01*
X81268Y61844D01*
Y63156D01*
X80940Y63484D01*
X79956D01*
X153512Y80642D02*
X153184Y80969D01*
X152528D01*
X152200Y80642D01*
Y79330D01*
X152528Y79002D01*
X153184D01*
X153512Y79330D01*
Y79985D01*
X152856D01*
X154168Y79002D02*
Y80969D01*
X155480Y79002D01*
Y80969D01*
X156136D02*
Y79002D01*
X157120D01*
X157448Y79330D01*
Y80642D01*
X157120Y80969D01*
X156136D01*
D17*
X140650Y136221D02*
Y135171D01*
Y135696D01*
X143798D01*
X143273Y136221D01*
X48524Y137106D02*
Y136057D01*
Y136582D01*
X51672D01*
X51147Y137106D01*
X103362Y136221D02*
Y135171D01*
Y135696D01*
X106510D01*
X105985Y136221D01*
D18*
X52388Y123464D02*
X51391D01*
X51889D01*
Y120971D01*
X51391Y120472D01*
X50892D01*
X50394Y120971D01*
X53385Y119974D02*
X55379D01*
X56376Y123464D02*
Y121469D01*
X57373Y120472D01*
X58370Y121469D01*
Y123464D01*
X59367Y122965D02*
X59866Y123464D01*
X60863D01*
X61361Y122965D01*
Y122467D01*
X60863Y121968D01*
X60364D01*
X60863D01*
X61361Y121469D01*
Y120971D01*
X60863Y120472D01*
X59866D01*
X59367Y120971D01*
X145498Y35471D02*
X144501D01*
X145000D01*
Y32979D01*
X144501Y32480D01*
X144002D01*
X143504Y32979D01*
X146495Y31982D02*
X148489D01*
X149486Y35471D02*
Y33477D01*
X150483Y32480D01*
X151480Y33477D01*
Y35471D01*
X154472Y32480D02*
X152477D01*
X154472Y34474D01*
Y34973D01*
X153973Y35471D01*
X152976D01*
X152477Y34973D01*
X28372Y122775D02*
X27375D01*
X27874D01*
Y120282D01*
X27375Y119783D01*
X26877D01*
X26378Y120282D01*
X29369Y119285D02*
X31363D01*
X32360Y122775D02*
Y120781D01*
X33357Y119783D01*
X34354Y120781D01*
Y122775D01*
X35351Y119783D02*
X36349D01*
X35850D01*
Y122775D01*
X35351Y122276D01*
D19*
X38091Y56345D02*
Y53846D01*
X38590Y53347D01*
X39590D01*
X40090Y53846D01*
Y56345D01*
X43089Y53347D02*
X41090D01*
X43089Y55346D01*
Y55846D01*
X42589Y56345D01*
X41589D01*
X41090Y55846D01*
X176772Y65105D02*
Y62606D01*
X177271Y62106D01*
X178271D01*
X178771Y62606D01*
Y65105D01*
X179771Y62106D02*
X180770D01*
X180271D01*
Y65105D01*
X179771Y64605D01*
X12795Y32428D02*
X14795D01*
X13795D01*
Y29429D01*
X15794D02*
Y32428D01*
X17294D01*
X17794Y31928D01*
Y30929D01*
X17294Y30429D01*
X15794D01*
X18793Y29929D02*
X19293Y29429D01*
X20293D01*
X20793Y29929D01*
Y31928D01*
X20293Y32428D01*
X19293D01*
X18793Y31928D01*
Y31429D01*
X19293Y30929D01*
X20793D01*
X12598Y41462D02*
X14598D01*
X13598D01*
Y38463D01*
X15597D02*
Y41462D01*
X17097D01*
X17597Y40963D01*
Y39963D01*
X17097Y39463D01*
X15597D01*
X18597Y40963D02*
X19096Y41462D01*
X20096D01*
X20596Y40963D01*
Y40463D01*
X20096Y39963D01*
X20596Y39463D01*
Y38963D01*
X20096Y38463D01*
X19096D01*
X18597Y38963D01*
Y39463D01*
X19096Y39963D01*
X18597Y40463D01*
Y40963D01*
X19096Y39963D02*
X20096D01*
X12402Y59080D02*
X14401D01*
X13401D01*
Y56081D01*
X15401D02*
Y59080D01*
X16900D01*
X17400Y58581D01*
Y57581D01*
X16900Y57081D01*
X15401D01*
X18400Y59080D02*
X20399D01*
Y58581D01*
X18400Y56581D01*
Y56081D01*
X12795Y96651D02*
X14795D01*
X13795D01*
Y93652D01*
X15794D02*
Y96651D01*
X17294D01*
X17794Y96151D01*
Y95151D01*
X17294Y94651D01*
X15794D01*
X20793Y96651D02*
X19793Y96151D01*
X18793Y95151D01*
Y94151D01*
X19293Y93652D01*
X20293D01*
X20793Y94151D01*
Y94651D01*
X20293Y95151D01*
X18793D01*
X12500Y50173D02*
X14499D01*
X13500D01*
Y47174D01*
X15499D02*
Y50173D01*
X16999D01*
X17498Y49673D01*
Y48673D01*
X16999Y48174D01*
X15499D01*
X20497Y50173D02*
X18498D01*
Y48673D01*
X19498Y49173D01*
X19998D01*
X20497Y48673D01*
Y47674D01*
X19998Y47174D01*
X18998D01*
X18498Y47674D01*
X12500Y78343D02*
X14499D01*
X13500D01*
Y75345D01*
X15499D02*
Y78343D01*
X16999D01*
X17498Y77844D01*
Y76844D01*
X16999Y76344D01*
X15499D01*
X19998Y75345D02*
Y78343D01*
X18498Y76844D01*
X20497D01*
X12500Y69267D02*
X14499D01*
X13500D01*
Y66268D01*
X15499D02*
Y69267D01*
X16999D01*
X17498Y68768D01*
Y67768D01*
X16999Y67268D01*
X15499D01*
X18498Y68768D02*
X18998Y69267D01*
X19998D01*
X20497Y68768D01*
Y68268D01*
X19998Y67768D01*
X19498D01*
X19998D01*
X20497Y67268D01*
Y66768D01*
X19998Y66268D01*
X18998D01*
X18498Y66768D01*
X12894Y87079D02*
X14893D01*
X13893D01*
Y84080D01*
X15893D02*
Y87079D01*
X17392D01*
X17892Y86579D01*
Y85579D01*
X17392Y85079D01*
X15893D01*
X20891Y84080D02*
X18892D01*
X20891Y86079D01*
Y86579D01*
X20391Y87079D01*
X19392D01*
X18892Y86579D01*
X12795Y105066D02*
X14795D01*
X13795D01*
Y102067D01*
X15794D02*
Y105066D01*
X17294D01*
X17794Y104566D01*
Y103566D01*
X17294Y103067D01*
X15794D01*
X18793Y102067D02*
X19793D01*
X19293D01*
Y105066D01*
X18793Y104566D01*
X151015Y168641D02*
X150515Y169141D01*
X149516D01*
X149016Y168641D01*
Y168141D01*
X149516Y167641D01*
X150515D01*
X151015Y167141D01*
Y166642D01*
X150515Y166142D01*
X149516D01*
X149016Y166642D01*
X154014Y168641D02*
X153514Y169141D01*
X152515D01*
X152015Y168641D01*
Y166642D01*
X152515Y166142D01*
X153514D01*
X154014Y166642D01*
X155014Y166142D02*
X156014D01*
X155514D01*
Y169141D01*
X155014Y168641D01*
X114567Y20866D02*
X117566D01*
Y19367D01*
X117066Y18867D01*
X116067D01*
X115567Y19367D01*
Y20866D01*
Y19866D02*
X114567Y18867D01*
Y17867D02*
Y16867D01*
Y17367D01*
X117566D01*
X117066Y17867D01*
X117566Y13369D02*
Y15368D01*
X116067D01*
X116566Y14368D01*
Y13868D01*
X116067Y13369D01*
X115067D01*
X114567Y13868D01*
Y14868D01*
X115067Y15368D01*
X114567Y31398D02*
X117566D01*
Y29898D01*
X117066Y29398D01*
X116067D01*
X115567Y29898D01*
Y31398D01*
Y30398D02*
X114567Y29398D01*
Y28399D02*
Y27399D01*
Y27899D01*
X117566D01*
X117066Y28399D01*
X114567Y24400D02*
X117566D01*
X116067Y25899D01*
Y23900D01*
X114469Y50689D02*
X117467D01*
Y49189D01*
X116968Y48690D01*
X115968D01*
X115468Y49189D01*
Y50689D01*
Y49689D02*
X114469Y48690D01*
Y47690D02*
Y46690D01*
Y47190D01*
X117467D01*
X116968Y47690D01*
Y45191D02*
X117467Y44691D01*
Y43691D01*
X116968Y43191D01*
X116468D01*
X115968Y43691D01*
Y44191D01*
Y43691D01*
X115468Y43191D01*
X114968D01*
X114469Y43691D01*
Y44691D01*
X114968Y45191D01*
X162992Y93307D02*
Y96306D01*
X164492D01*
X164991Y95806D01*
Y94807D01*
X164492Y94307D01*
X162992D01*
X163992D02*
X164991Y93307D01*
X165991D02*
X166991D01*
X166491D01*
Y96306D01*
X165991Y95806D01*
X170490Y93307D02*
X168490D01*
X170490Y95306D01*
Y95806D01*
X169990Y96306D01*
X168990D01*
X168490Y95806D01*
X173425Y93209D02*
Y96208D01*
X174925D01*
X175425Y95708D01*
Y94708D01*
X174925Y94208D01*
X173425D01*
X174425D02*
X175425Y93209D01*
X176424D02*
X177424D01*
X176924D01*
Y96208D01*
X176424Y95708D01*
X178923Y93209D02*
X179923D01*
X179423D01*
Y96208D01*
X178923Y95708D01*
X182756Y93307D02*
Y96306D01*
X184255D01*
X184755Y95806D01*
Y94807D01*
X184255Y94307D01*
X182756D01*
X183756D02*
X184755Y93307D01*
X185755D02*
X186755D01*
X186255D01*
Y96306D01*
X185755Y95806D01*
X188254D02*
X188754Y96306D01*
X189754D01*
X190253Y95806D01*
Y93807D01*
X189754Y93307D01*
X188754D01*
X188254Y93807D01*
Y95806D01*
X193701Y93209D02*
Y96208D01*
X195200D01*
X195700Y95708D01*
Y94708D01*
X195200Y94208D01*
X193701D01*
X194701D02*
X195700Y93209D01*
X196700Y93708D02*
X197200Y93209D01*
X198199D01*
X198699Y93708D01*
Y95708D01*
X198199Y96208D01*
X197200D01*
X196700Y95708D01*
Y95208D01*
X197200Y94708D01*
X198699D01*
X203642Y93108D02*
Y96107D01*
X205141D01*
X205641Y95608D01*
Y94608D01*
X205141Y94108D01*
X203642D01*
X204641D02*
X205641Y93108D01*
X206641Y95608D02*
X207141Y96107D01*
X208140D01*
X208640Y95608D01*
Y95108D01*
X208140Y94608D01*
X208640Y94108D01*
Y93608D01*
X208140Y93108D01*
X207141D01*
X206641Y93608D01*
Y94108D01*
X207141Y94608D01*
X206641Y95108D01*
Y95608D01*
X207141Y94608D02*
X208140D01*
X213976Y93012D02*
Y96011D01*
X215476D01*
X215976Y95511D01*
Y94511D01*
X215476Y94011D01*
X213976D01*
X214976D02*
X215976Y93012D01*
X216975Y96011D02*
X218975D01*
Y95511D01*
X216975Y93512D01*
Y93012D01*
X114567Y39370D02*
X117566D01*
Y37870D01*
X117066Y37371D01*
X116067D01*
X115567Y37870D01*
Y39370D01*
Y38370D02*
X114567Y37371D01*
X117566Y34372D02*
X117066Y35371D01*
X116067Y36371D01*
X115067D01*
X114567Y35871D01*
Y34872D01*
X115067Y34372D01*
X115567D01*
X116067Y34872D01*
Y36371D01*
X126378Y81853D02*
X129377D01*
Y80353D01*
X128877Y79853D01*
X127877D01*
X127378Y80353D01*
Y81853D01*
Y80853D02*
X126378Y79853D01*
X129377Y76854D02*
Y78854D01*
X127877D01*
X128377Y77854D01*
Y77354D01*
X127877Y76854D01*
X126878D01*
X126378Y77354D01*
Y78354D01*
X126878Y78854D01*
X126378Y63884D02*
X129377D01*
Y62385D01*
X128877Y61885D01*
X127877D01*
X127378Y62385D01*
Y63884D01*
Y62884D02*
X126378Y61885D01*
Y59386D02*
X129377D01*
X127877Y60885D01*
Y58886D01*
X126870Y92151D02*
X129869D01*
Y90651D01*
X129369Y90151D01*
X128370D01*
X127870Y90651D01*
Y92151D01*
Y91151D02*
X126870Y90151D01*
X129369Y89152D02*
X129869Y88652D01*
Y87652D01*
X129369Y87152D01*
X128869D01*
X128370Y87652D01*
Y88152D01*
Y87652D01*
X127870Y87152D01*
X127370D01*
X126870Y87652D01*
Y88652D01*
X127370Y89152D01*
X126870Y113287D02*
X129869D01*
Y111788D01*
X129369Y111288D01*
X128370D01*
X127870Y111788D01*
Y113287D01*
Y112288D02*
X126870Y111288D01*
Y108289D02*
Y110288D01*
X128869Y108289D01*
X129369D01*
X129869Y108789D01*
Y109789D01*
X129369Y110288D01*
X51673Y148425D02*
Y151424D01*
X53173D01*
X53673Y150924D01*
Y149925D01*
X53173Y149425D01*
X51673D01*
X52673D02*
X53673Y148425D01*
X54672D02*
X55672D01*
X55172D01*
Y151424D01*
X54672Y150924D01*
X23228Y150787D02*
Y153786D01*
X24728D01*
X25228Y153287D01*
Y152287D01*
X24728Y151787D01*
X23228D01*
X27727Y150787D02*
Y153786D01*
X26227Y152287D01*
X28227D01*
X111319Y152067D02*
Y155066D01*
X112818D01*
X113318Y154566D01*
Y153566D01*
X112818Y153067D01*
X111319D01*
X114318Y154566D02*
X114818Y155066D01*
X115817D01*
X116317Y154566D01*
Y154066D01*
X115817Y153566D01*
X115318D01*
X115817D01*
X116317Y153067D01*
Y152567D01*
X115817Y152067D01*
X114818D01*
X114318Y152567D01*
X73425Y151575D02*
Y154574D01*
X74925D01*
X75424Y154074D01*
Y153074D01*
X74925Y152575D01*
X73425D01*
X78424Y151575D02*
X76424D01*
X78424Y153574D01*
Y154074D01*
X77924Y154574D01*
X76924D01*
X76424Y154074D01*
X52067Y161956D02*
Y158957D01*
X53566D01*
X54066Y159457D01*
Y161456D01*
X53566Y161956D01*
X52067D01*
X55066Y158957D02*
X56066D01*
X55566D01*
Y161956D01*
X55066Y161456D01*
X74243Y56731D02*
X73744Y57231D01*
X72744D01*
X72244Y56731D01*
Y54732D01*
X72744Y54232D01*
X73744D01*
X74243Y54732D01*
X75243Y56731D02*
X75743Y57231D01*
X76743D01*
X77242Y56731D01*
Y56232D01*
X76743Y55732D01*
X76243D01*
X76743D01*
X77242Y55232D01*
Y54732D01*
X76743Y54232D01*
X75743D01*
X75243Y54732D01*
X159086Y60275D02*
X158586Y60775D01*
X157586D01*
X157087Y60275D01*
Y58275D01*
X157586Y57776D01*
X158586D01*
X159086Y58275D01*
X162085Y57776D02*
X160086D01*
X162085Y59775D01*
Y60275D01*
X161585Y60775D01*
X160585D01*
X160086Y60275D01*
X150425Y57519D02*
X149925Y58019D01*
X148925D01*
X148425Y57519D01*
Y55519D01*
X148925Y55020D01*
X149925D01*
X150425Y55519D01*
X151424Y55020D02*
X152424D01*
X151924D01*
Y58019D01*
X151424Y57519D01*
D20*
X64271Y150000D02*
D03*
X117421Y110827D02*
D03*
Y90108D02*
D03*
X117225Y61910D02*
D03*
X117421Y79651D02*
D03*
X104134Y37008D02*
D03*
X104725Y46654D02*
D03*
X103937Y27362D02*
D03*
Y17618D02*
D03*
X31100Y114202D02*
D03*
X148917Y26476D02*
D03*
X55315Y114567D02*
D03*
D21*
X216142Y84055D02*
D03*
X206259D02*
D03*
X196378D02*
D03*
X186495D02*
D03*
X176614D02*
D03*
X166732D02*
D03*
M02*
