G04*
G04 #@! TF.GenerationSoftware,Altium Limited,Altium Designer,18.1.7 (191)*
G04*
G04 Layer_Color=8388736*
%FSLAX25Y25*%
%MOIN*%
G70*
G01*
G75*
%ADD12C,0.01000*%
%ADD36R,0.05140X0.11243*%
%ADD37R,0.04550X0.06282*%
%ADD38R,0.05140X0.10061*%
%ADD39R,0.07306X0.05928*%
%ADD40R,0.05928X0.10061*%
%ADD41R,0.04550X0.06124*%
%ADD42R,0.08979X0.04156*%
%ADD43R,0.07306X0.03565*%
%ADD44C,0.04600*%
%ADD45R,0.06518X0.07306*%
%ADD46R,0.05337X0.04943*%
%ADD47R,0.05400X0.07400*%
%ADD48R,0.06124X0.07400*%
%ADD49R,0.07306X0.06518*%
%ADD50R,0.07400X0.06124*%
%ADD51C,0.05400*%
%ADD52R,0.08400X0.08400*%
%ADD53C,0.08400*%
%ADD54R,0.08400X0.08400*%
%ADD55C,0.15748*%
G36*
X7727Y132628D02*
X10827Y131428D01*
X14027Y132628D01*
X15127Y135728D01*
X14027Y138628D01*
X10827Y140028D01*
X7727Y138828D01*
X6527Y135728D01*
X7727Y132628D01*
D02*
G37*
G36*
X236073Y31828D02*
X239173Y30628D01*
X242373Y31828D01*
X243473Y34928D01*
X242373Y37828D01*
X239173Y39228D01*
X236073Y38028D01*
X234873Y34928D01*
X236073Y31828D01*
D02*
G37*
G36*
Y132628D02*
X239173Y131428D01*
X242373Y132628D01*
X243473Y135728D01*
X242373Y138628D01*
X239173Y140028D01*
X236073Y138828D01*
X234873Y135728D01*
X236073Y132628D01*
D02*
G37*
D12*
X243474Y34928D02*
G03*
X243474Y34928I-4301J0D01*
G01*
X15128Y135728D02*
G03*
X15128Y135728I-4301J0D01*
G01*
X243474D02*
G03*
X243474Y135728I-4301J0D01*
G01*
D36*
X162618Y154124D02*
D03*
D37*
X179724Y156604D02*
D03*
X184055D02*
D03*
X188386D02*
D03*
X192717D02*
D03*
X210039D02*
D03*
X205709D02*
D03*
X201378D02*
D03*
X197047D02*
D03*
X217677Y146250D02*
D03*
D38*
X219272Y154715D02*
D03*
D39*
X179961Y106388D02*
D03*
X210591D02*
D03*
D40*
X163012Y109518D02*
D03*
D41*
X217677Y110817D02*
D03*
D42*
X173476Y56476D02*
D03*
Y51476D02*
D03*
Y46476D02*
D03*
Y41476D02*
D03*
Y36476D02*
D03*
Y31476D02*
D03*
Y26476D02*
D03*
Y21476D02*
D03*
X210579D02*
D03*
Y26476D02*
D03*
Y31476D02*
D03*
Y36476D02*
D03*
Y41476D02*
D03*
Y46476D02*
D03*
Y51476D02*
D03*
Y56476D02*
D03*
D43*
X39961Y49055D02*
D03*
Y44055D02*
D03*
Y39055D02*
D03*
Y34055D02*
D03*
Y29055D02*
D03*
Y24055D02*
D03*
Y19055D02*
D03*
X61221Y49055D02*
D03*
Y44055D02*
D03*
Y39055D02*
D03*
Y34055D02*
D03*
Y29055D02*
D03*
Y24055D02*
D03*
Y19055D02*
D03*
D44*
X239173Y34928D02*
D03*
X10827Y135728D02*
D03*
X239173D02*
D03*
D45*
X61135Y57579D02*
D03*
X70135D02*
D03*
D46*
X150098Y42976D02*
D03*
Y49976D02*
D03*
D47*
X60654Y157087D02*
D03*
X68654D02*
D03*
D48*
X59315Y114567D02*
D03*
X51315D02*
D03*
X60654Y146752D02*
D03*
X68654D02*
D03*
X113421Y110827D02*
D03*
X121421D02*
D03*
Y90108D02*
D03*
X113421D02*
D03*
X113224Y61909D02*
D03*
X121224D02*
D03*
X121421Y79651D02*
D03*
X113421D02*
D03*
X100134Y37008D02*
D03*
X108134D02*
D03*
X108724Y46654D02*
D03*
X100724D02*
D03*
X99937Y27362D02*
D03*
X107937D02*
D03*
Y17618D02*
D03*
X99937D02*
D03*
X27100Y114202D02*
D03*
X35100D02*
D03*
X144917Y26476D02*
D03*
X152917D02*
D03*
D49*
X159744Y42547D02*
D03*
Y51547D02*
D03*
D50*
X216142Y80055D02*
D03*
Y88055D02*
D03*
X206260D02*
D03*
Y80055D02*
D03*
X196378D02*
D03*
Y88055D02*
D03*
X186496D02*
D03*
Y80055D02*
D03*
X176614D02*
D03*
Y88055D02*
D03*
X166732D02*
D03*
Y80055D02*
D03*
D51*
X8661Y30610D02*
D03*
Y103445D02*
D03*
Y85236D02*
D03*
Y67027D02*
D03*
Y76132D02*
D03*
Y48819D02*
D03*
Y94340D02*
D03*
Y57923D02*
D03*
Y39715D02*
D03*
D52*
X142776Y143996D02*
D03*
X104783D02*
D03*
D53*
X132776D02*
D03*
X122776D02*
D03*
X34075D02*
D03*
X94784D02*
D03*
X84784D02*
D03*
D54*
X44075D02*
D03*
D55*
X239173Y156398D02*
D03*
X10827D02*
D03*
Y14665D02*
D03*
X239173D02*
D03*
M02*
