G04*
G04 #@! TF.GenerationSoftware,Altium Limited,Altium Designer,18.1.7 (191)*
G04*
G04 Layer_Physical_Order=1*
G04 Layer_Color=255*
%FSLAX25Y25*%
%MOIN*%
G70*
G01*
G75*
%ADD12C,0.01000*%
%ADD23R,0.03150X0.04882*%
%ADD24R,0.03150X0.04724*%
%ADD25R,0.04528X0.08661*%
%ADD26R,0.05906X0.04528*%
%ADD27R,0.03740X0.08661*%
%ADD28R,0.03740X0.09843*%
%ADD29R,0.07579X0.02756*%
%ADD30R,0.05906X0.02165*%
%ADD31R,0.05906X0.05118*%
%ADD32R,0.05118X0.05906*%
%ADD33R,0.03937X0.03543*%
%ADD34R,0.04000X0.06000*%
%ADD35R,0.04724X0.06000*%
%ADD36R,0.06000X0.04724*%
%ADD37C,0.03200*%
%ADD58C,0.15748*%
%ADD59C,0.02000*%
%ADD60C,0.07000*%
%ADD61R,0.07000X0.07000*%
%ADD62R,0.07000X0.07000*%
%ADD63C,0.04000*%
%ADD64C,0.02000*%
G36*
X10000Y169122D02*
X229323D01*
X229331Y169121D01*
X240297D01*
X241559Y168996D01*
X243057Y168542D01*
X244438Y167804D01*
X245649Y166810D01*
X246642Y165600D01*
X247380Y164218D01*
X247835Y162720D01*
X247979Y161254D01*
X247961Y161161D01*
Y146990D01*
X247960Y146868D01*
X247961Y146864D01*
Y24516D01*
X247959Y24508D01*
Y19174D01*
X247459Y19049D01*
X247005Y19898D01*
X245834Y21326D01*
X244406Y22497D01*
X242778Y23368D01*
X241011Y23904D01*
X239173Y24085D01*
X237336Y23904D01*
X235569Y23368D01*
X233940Y22497D01*
X232513Y21326D01*
X231341Y19898D01*
X230471Y18270D01*
X229935Y16503D01*
X229754Y14665D01*
X229935Y12828D01*
X230471Y11061D01*
X231341Y9432D01*
X232513Y8005D01*
X233940Y6833D01*
X235569Y5963D01*
X237336Y5427D01*
X239173Y5246D01*
X241011Y5427D01*
X242778Y5963D01*
X244406Y6833D01*
X245834Y8005D01*
X247005Y9432D01*
X247459Y10282D01*
X247959Y10156D01*
Y9604D01*
X247835Y8343D01*
X247380Y6844D01*
X246642Y5463D01*
X245649Y4253D01*
X244438Y3259D01*
X243057Y2521D01*
X241559Y2067D01*
X240093Y1922D01*
X240000Y1941D01*
X20382D01*
X20374Y1942D01*
X9703D01*
X8442Y2067D01*
X6943Y2521D01*
X5562Y3259D01*
X4351Y4253D01*
X3358Y5463D01*
X2620Y6844D01*
X2165Y8343D01*
X2021Y9809D01*
X2039Y9902D01*
Y10159D01*
X2539Y10285D01*
X2995Y9432D01*
X4166Y8005D01*
X5594Y6833D01*
X7222Y5963D01*
X8989Y5427D01*
X10827Y5246D01*
X12664Y5427D01*
X14431Y5963D01*
X16060Y6833D01*
X17487Y8005D01*
X18659Y9432D01*
X19529Y11061D01*
X20065Y12828D01*
X20246Y14665D01*
X20065Y16503D01*
X19529Y18270D01*
X18659Y19898D01*
X17487Y21326D01*
X16060Y22497D01*
X14431Y23368D01*
X12664Y23904D01*
X10827Y24085D01*
X8989Y23904D01*
X7222Y23368D01*
X5594Y22497D01*
X4166Y21326D01*
X2995Y19898D01*
X2539Y19046D01*
X2039Y19171D01*
Y24073D01*
X2041Y24293D01*
X2039Y24301D01*
Y146842D01*
X2041Y146850D01*
Y151889D01*
X2541Y152014D01*
X2995Y151164D01*
X4166Y149737D01*
X5594Y148566D01*
X7222Y147695D01*
X8989Y147159D01*
X10827Y146978D01*
X12664Y147159D01*
X14431Y147695D01*
X16060Y148566D01*
X17487Y149737D01*
X18659Y151164D01*
X19529Y152793D01*
X20065Y154560D01*
X20246Y156398D01*
X20065Y158235D01*
X19529Y160002D01*
X18659Y161631D01*
X17487Y163058D01*
X16060Y164230D01*
X14431Y165100D01*
X12664Y165636D01*
X10827Y165817D01*
X8989Y165636D01*
X7222Y165100D01*
X5594Y164230D01*
X4166Y163058D01*
X2995Y161631D01*
X2541Y160781D01*
X2041Y160907D01*
Y161459D01*
X2165Y162720D01*
X2620Y164218D01*
X3358Y165600D01*
X4351Y166810D01*
X5562Y167804D01*
X6943Y168542D01*
X8442Y168996D01*
X9907Y169141D01*
X10000Y169122D01*
D02*
G37*
%LPC*%
G36*
X71138Y164335D02*
X68638D01*
Y160835D01*
X71138D01*
Y164335D01*
D02*
G37*
G36*
X67638D02*
X65138D01*
Y160835D01*
X67638D01*
Y164335D01*
D02*
G37*
G36*
X71138Y159835D02*
X68638D01*
Y156335D01*
X71138D01*
Y159835D01*
D02*
G37*
G36*
X67638D02*
X65138D01*
Y156335D01*
X67638D01*
Y159835D01*
D02*
G37*
G36*
X222142Y160045D02*
X219772D01*
Y155215D01*
X222142D01*
Y160045D01*
D02*
G37*
G36*
X218772D02*
X216402D01*
Y155215D01*
X218772D01*
Y160045D01*
D02*
G37*
G36*
X165488D02*
X163118D01*
Y154624D01*
X165488D01*
Y160045D01*
D02*
G37*
G36*
X162118D02*
X159748D01*
Y154624D01*
X162118D01*
Y160045D01*
D02*
G37*
G36*
X165488Y153624D02*
X163118D01*
Y148203D01*
X165488D01*
Y153624D01*
D02*
G37*
G36*
X162118D02*
X159748D01*
Y148203D01*
X162118D01*
Y153624D01*
D02*
G37*
G36*
X222142Y154215D02*
X216402D01*
Y149691D01*
X215102D01*
Y146750D01*
X220252D01*
Y149384D01*
X222142D01*
Y154215D01*
D02*
G37*
G36*
X132776Y149039D02*
X131470Y148867D01*
X130254Y148364D01*
X129209Y147562D01*
X128408Y146518D01*
X128046Y145644D01*
X127505D01*
X127143Y146518D01*
X126342Y147562D01*
X125297Y148364D01*
X124081Y148867D01*
X122776Y149039D01*
X121470Y148867D01*
X120254Y148364D01*
X119210Y147562D01*
X118408Y146518D01*
X117904Y145301D01*
X117732Y143996D01*
X117904Y142691D01*
X118408Y141474D01*
X119210Y140430D01*
X120254Y139629D01*
X121470Y139125D01*
X122776Y138953D01*
X124081Y139125D01*
X125297Y139629D01*
X126342Y140430D01*
X127143Y141474D01*
X127505Y142348D01*
X128046D01*
X128408Y141474D01*
X129209Y140430D01*
X130254Y139629D01*
X131470Y139125D01*
X132776Y138953D01*
X134081Y139125D01*
X135297Y139629D01*
X136342Y140430D01*
X137143Y141474D01*
X137276Y141794D01*
X137776Y141695D01*
Y138996D01*
X147776D01*
Y148996D01*
X137776D01*
Y146297D01*
X137276Y146198D01*
X137143Y146518D01*
X136342Y147562D01*
X135297Y148364D01*
X134081Y148867D01*
X132776Y149039D01*
D02*
G37*
G36*
X33575Y148469D02*
X32900Y148380D01*
X31805Y147927D01*
X30865Y147205D01*
X30144Y146265D01*
X29691Y145171D01*
X29602Y144496D01*
X33575D01*
Y148469D01*
D02*
G37*
G36*
X220252Y145750D02*
X218177D01*
Y142809D01*
X220252D01*
Y145750D01*
D02*
G37*
G36*
X217177D02*
X215102D01*
Y142809D01*
X217177D01*
Y145750D01*
D02*
G37*
G36*
X33575Y143496D02*
X29602D01*
X29691Y142821D01*
X30144Y141727D01*
X30865Y140787D01*
X31805Y140065D01*
X32900Y139612D01*
X33575Y139523D01*
Y143496D01*
D02*
G37*
G36*
X63138Y164335D02*
X57138D01*
Y156335D01*
X57543D01*
X57550Y156323D01*
X57687Y156064D01*
X57770Y155994D01*
X57816Y155925D01*
X57888Y155566D01*
X57903Y155544D01*
X57909Y155517D01*
X58123Y155214D01*
X58154Y155167D01*
X58123Y155121D01*
X57909Y154818D01*
X57903Y154791D01*
X57888Y154768D01*
X57816Y154410D01*
X57770Y154340D01*
X57687Y154271D01*
X57550Y154012D01*
X57543Y154000D01*
X56910D01*
Y146000D01*
X61372D01*
X61564Y145538D01*
X41275Y125249D01*
X41083Y124963D01*
X40502Y124932D01*
X39676Y125485D01*
X38700Y125679D01*
X37725Y125485D01*
X36898Y124932D01*
X33298Y121332D01*
X32969Y120841D01*
X32696Y120669D01*
X32681Y120647D01*
X32658Y120632D01*
X32452Y120322D01*
X32237Y120019D01*
X32231Y119992D01*
X32216Y119970D01*
X32144Y119605D01*
X32061Y119243D01*
X32053Y118923D01*
X32052Y118907D01*
X31901Y118782D01*
X31658Y118620D01*
X31598Y118529D01*
X31514Y118460D01*
X31379Y118202D01*
X30821D01*
X30686Y118460D01*
X30602Y118529D01*
X30542Y118620D01*
X30299Y118782D01*
X30148Y118907D01*
X30147Y118923D01*
X30138Y119243D01*
X30057Y119605D01*
X29984Y119970D01*
X29969Y119992D01*
X29963Y120019D01*
X29748Y120322D01*
X29649Y120471D01*
Y125965D01*
X40776Y137092D01*
X40941Y137125D01*
X41297Y137182D01*
X41330Y137202D01*
X41367Y137210D01*
X41667Y137410D01*
X41974Y137600D01*
X42711Y138284D01*
X42953Y138477D01*
X43018Y138522D01*
X43179Y138516D01*
X43415Y138469D01*
X43573Y138500D01*
X43733Y138494D01*
X43959Y138577D01*
X44196Y138624D01*
X44329Y138713D01*
X44480Y138769D01*
X44657Y138932D01*
X44752Y138996D01*
X49075D01*
Y148996D01*
X39075D01*
Y145090D01*
X38982Y145027D01*
X38699Y145105D01*
X38425Y145252D01*
X38006Y146265D01*
X37284Y147205D01*
X36344Y147927D01*
X35250Y148380D01*
X34575Y148469D01*
Y143996D01*
Y139523D01*
X35250Y139612D01*
X35470Y139703D01*
X35753Y139279D01*
X25298Y128824D01*
X24745Y127997D01*
X24551Y127021D01*
Y120471D01*
X24452Y120322D01*
X24237Y120019D01*
X24231Y119992D01*
X24216Y119970D01*
X24144Y119605D01*
X24061Y119243D01*
X24053Y118923D01*
X24052Y118907D01*
X23901Y118782D01*
X23658Y118620D01*
X23598Y118529D01*
X23514Y118460D01*
X23378Y118201D01*
X23216Y117958D01*
X23195Y117851D01*
X23144Y117755D01*
X23118Y117464D01*
X23061Y117178D01*
X23082Y117071D01*
X23072Y116963D01*
X23159Y116684D01*
X23216Y116397D01*
X23276Y116307D01*
X23309Y116203D01*
X23496Y115979D01*
X23658Y115736D01*
X23738Y115682D01*
Y110202D01*
X30020D01*
Y89746D01*
X29520Y89479D01*
X28928Y89874D01*
X27953Y90068D01*
X27529Y89984D01*
X27285Y90127D01*
X27083Y90391D01*
X27149Y90723D01*
X27137Y90783D01*
X27145Y90844D01*
X27059Y91171D01*
X26993Y91503D01*
X26959Y91554D01*
X26944Y91614D01*
X26916Y91650D01*
X26764Y92413D01*
X26212Y93239D01*
X25385Y93792D01*
X24409Y93986D01*
X23608Y93827D01*
X23459Y93879D01*
X23285Y94019D01*
X23161Y94209D01*
X23212Y94463D01*
X23200Y94523D01*
X23208Y94584D01*
X23122Y94911D01*
X23056Y95243D01*
X23022Y95294D01*
X23007Y95354D01*
X22979Y95390D01*
X22827Y96153D01*
X22275Y96980D01*
X21448Y97532D01*
X20472Y97726D01*
X19497Y97532D01*
X18670Y96980D01*
X18117Y96153D01*
X17966Y95390D01*
X17938Y95354D01*
X17923Y95294D01*
X17888Y95243D01*
X17822Y94911D01*
X17737Y94584D01*
X17745Y94523D01*
X17733Y94463D01*
X17799Y94131D01*
X17814Y94027D01*
X17814Y94006D01*
X17818Y93997D01*
X17845Y93796D01*
X17876Y93743D01*
X17888Y93683D01*
X17952Y93587D01*
X18014Y93303D01*
X18089Y92931D01*
X18099Y92915D01*
X18103Y92896D01*
X18320Y92585D01*
X18433Y92415D01*
Y32992D01*
X18588Y32212D01*
X19030Y31550D01*
X22967Y27613D01*
X23629Y27171D01*
X24409Y27016D01*
X34723D01*
X34887Y26906D01*
X35191Y26692D01*
X35217Y26686D01*
X35239Y26671D01*
X35604Y26599D01*
X35616Y26596D01*
X35681Y26553D01*
X35751Y26469D01*
X36008Y26334D01*
Y21972D01*
Y19555D01*
X43913D01*
X43913Y19555D01*
Y19555D01*
X46169Y19573D01*
X48769Y16972D01*
X61011D01*
X61098Y16785D01*
X61216Y16676D01*
X61305Y16543D01*
X61505Y16409D01*
X61682Y16245D01*
X61833Y16190D01*
X61967Y16101D01*
X62203Y16053D01*
X62429Y15970D01*
X62571Y15976D01*
X62588Y15962D01*
X62745Y15810D01*
X63065Y15604D01*
X63381Y15393D01*
X63399Y15390D01*
X63414Y15380D01*
X63788Y15312D01*
X63990Y15272D01*
X67286Y11976D01*
X67947Y11534D01*
X68727Y11379D01*
X163007D01*
X163787Y11534D01*
X164449Y11976D01*
X169871Y17398D01*
X170053Y17435D01*
X170409Y17492D01*
X170442Y17512D01*
X170479Y17519D01*
X170780Y17720D01*
X171087Y17909D01*
X171294Y18102D01*
X171431Y18096D01*
X171657Y18180D01*
X171894Y18226D01*
X172027Y18316D01*
X172178Y18371D01*
X172355Y18535D01*
X172555Y18668D01*
X172644Y18802D01*
X172762Y18911D01*
X172849Y19098D01*
X175757D01*
X175800Y19035D01*
X176042Y18872D01*
X176266Y18686D01*
X176371Y18653D01*
X176461Y18592D01*
X176747Y18535D01*
X177026Y18449D01*
X177135Y18459D01*
X177242Y18437D01*
X177528Y18494D01*
X177818Y18520D01*
X177915Y18571D01*
X178022Y18592D01*
X178265Y18754D01*
X178523Y18890D01*
X178593Y18974D01*
X178658Y19017D01*
X178670Y19020D01*
X179034Y19092D01*
X179057Y19107D01*
X179083Y19113D01*
X179387Y19328D01*
X179550Y19437D01*
X180827D01*
X181607Y19592D01*
X182269Y20034D01*
X191288Y29053D01*
X191447Y29048D01*
X191654Y29125D01*
X191872Y29166D01*
X192023Y29264D01*
X192192Y29327D01*
X192354Y29478D01*
X192539Y29598D01*
X192594Y29651D01*
X192603Y29660D01*
X192611Y29667D01*
X192798Y29732D01*
X192841Y29770D01*
X192894Y29792D01*
X193019Y29917D01*
X193030Y29923D01*
X193048Y29946D01*
X193136Y30033D01*
X193392Y30261D01*
X193417Y30313D01*
X193457Y30353D01*
X193589Y30670D01*
X193737Y30978D01*
X193741Y31035D01*
X193763Y31088D01*
X193763Y31166D01*
X193989Y31505D01*
X194082Y31971D01*
X194624Y32136D01*
X204089Y22671D01*
X204126Y22488D01*
X204183Y22131D01*
X204203Y22099D01*
X204210Y22062D01*
X204411Y21761D01*
X204601Y21453D01*
X204805Y21234D01*
X204800Y21103D01*
X204883Y20880D01*
X204929Y20648D01*
X205021Y20511D01*
X205078Y20357D01*
X205240Y20184D01*
X205371Y19986D01*
X205508Y19895D01*
X205620Y19775D01*
X205789Y19697D01*
Y19098D01*
X215368D01*
Y23598D01*
X215368Y23854D01*
X215368D01*
Y24098D01*
X215368D01*
Y25976D01*
X210579D01*
Y26976D01*
X215368D01*
Y28598D01*
X215368Y28854D01*
X215368Y29354D01*
Y33598D01*
X215368Y33854D01*
X215368Y34354D01*
Y38598D01*
X215368Y38854D01*
X215368Y39354D01*
Y43598D01*
X215368Y43854D01*
X215368Y44354D01*
Y48454D01*
X215625Y48589D01*
X215695Y48673D01*
X215760Y48717D01*
X215772Y48719D01*
X216137Y48792D01*
X216159Y48807D01*
X216185Y48812D01*
X216489Y49027D01*
X216652Y49136D01*
X219297D01*
X219414Y49013D01*
X219603Y48928D01*
X219772Y48810D01*
X219962Y48767D01*
X220140Y48688D01*
X220278Y48684D01*
X220306Y48660D01*
X220537Y48583D01*
X220555Y48572D01*
X220587Y48566D01*
X220617Y48557D01*
X220921Y48432D01*
X220993Y48433D01*
X221061Y48410D01*
X221388Y48434D01*
X221716Y48435D01*
X221783Y48463D01*
X221855Y48469D01*
X221890Y48486D01*
X222146Y48435D01*
X223121Y48629D01*
X223948Y49182D01*
X224501Y50009D01*
X224695Y50984D01*
X224501Y51960D01*
X223948Y52787D01*
X223121Y53339D01*
X222840Y53395D01*
X222797Y53443D01*
X222745Y53468D01*
X222705Y53508D01*
X222388Y53638D01*
X222136Y53758D01*
X222136Y56299D01*
X221942Y57275D01*
X221389Y58102D01*
X220562Y58654D01*
X219800Y58806D01*
X219763Y58833D01*
X219704Y58849D01*
X219653Y58883D01*
X219321Y58949D01*
X218994Y59035D01*
X218933Y59026D01*
X218872Y59038D01*
X218541Y58972D01*
X218437Y58958D01*
X218416Y58958D01*
X218406Y58954D01*
X218205Y58926D01*
X218152Y58895D01*
X218092Y58883D01*
X217996Y58819D01*
X217712Y58757D01*
X217340Y58683D01*
X217324Y58672D01*
X217305Y58668D01*
X216994Y58452D01*
X216824Y58338D01*
X216652D01*
X216489Y58448D01*
X216185Y58662D01*
X216159Y58668D01*
X216137Y58683D01*
X215772Y58756D01*
X215760Y58758D01*
X215695Y58802D01*
X215625Y58886D01*
X215367Y59021D01*
X215125Y59183D01*
X215017Y59205D01*
X214920Y59255D01*
X214630Y59281D01*
X214344Y59338D01*
X214237Y59317D01*
X214128Y59327D01*
X213850Y59240D01*
X213564Y59183D01*
X213473Y59123D01*
X213369Y59090D01*
X213145Y58903D01*
X213072Y58854D01*
X205789D01*
Y54098D01*
X205493Y53721D01*
X205462Y53684D01*
X205397Y53640D01*
X205386Y53638D01*
X205021Y53565D01*
X204999Y53550D01*
X204972Y53544D01*
X204668Y53329D01*
X204505Y53220D01*
X203550D01*
X203397Y53323D01*
X203106Y53534D01*
X203067Y53543D01*
X203034Y53565D01*
X202681Y53635D01*
X202362Y53712D01*
X202282Y53765D01*
X202222Y53777D01*
X202169Y53808D01*
X201968Y53836D01*
X201958Y53840D01*
X201937Y53840D01*
X201833Y53854D01*
X201501Y53920D01*
X201441Y53908D01*
X201380Y53917D01*
X201053Y53831D01*
X200721Y53765D01*
X200670Y53731D01*
X200611Y53715D01*
X200574Y53688D01*
X199812Y53536D01*
X198985Y52983D01*
X198432Y52157D01*
X198238Y51181D01*
X198432Y50206D01*
X198985Y49379D01*
X199812Y48826D01*
X200574Y48675D01*
X200611Y48647D01*
X200670Y48631D01*
X200721Y48597D01*
X201053Y48531D01*
X201380Y48445D01*
X201441Y48454D01*
X201501Y48442D01*
X201833Y48508D01*
X201937Y48522D01*
X201958Y48522D01*
X201968Y48526D01*
X202169Y48554D01*
X202222Y48585D01*
X202282Y48597D01*
X202378Y48661D01*
X202662Y48723D01*
X203034Y48797D01*
X203050Y48808D01*
X203069Y48812D01*
X203380Y49028D01*
X203550Y49142D01*
X204505D01*
X204669Y49033D01*
X204972Y48818D01*
X204999Y48812D01*
X205021Y48797D01*
X205386Y48725D01*
X205397Y48722D01*
X205462Y48678D01*
X205532Y48594D01*
X205789Y48460D01*
Y44354D01*
X205789Y44098D01*
X205789Y43598D01*
Y39354D01*
X205789Y39098D01*
X205789Y38598D01*
Y34354D01*
X205789Y34098D01*
X205789Y33598D01*
Y29354D01*
X205789Y29098D01*
X205789Y28598D01*
Y27391D01*
X205327Y27200D01*
X194165Y38362D01*
Y70072D01*
X194268Y70226D01*
X194478Y70516D01*
X194488Y70555D01*
X194510Y70588D01*
X194580Y70941D01*
X194656Y71260D01*
X194710Y71340D01*
X194722Y71400D01*
X194753Y71453D01*
X194781Y71654D01*
X194785Y71664D01*
X194785Y71685D01*
X194799Y71789D01*
X194865Y72120D01*
X194853Y72181D01*
X194862Y72242D01*
X194776Y72569D01*
X194710Y72901D01*
X194676Y72952D01*
X194660Y73011D01*
X194632Y73048D01*
X194481Y73810D01*
X193928Y74637D01*
X193101Y75190D01*
X192126Y75384D01*
X191150Y75190D01*
X190324Y74637D01*
X189771Y73810D01*
X189619Y73048D01*
X189592Y73011D01*
X189576Y72952D01*
X189542Y72901D01*
X189476Y72569D01*
X189390Y72242D01*
X189399Y72181D01*
X189387Y72120D01*
X189453Y71789D01*
X189467Y71685D01*
X189467Y71664D01*
X189471Y71654D01*
X189499Y71453D01*
X189530Y71400D01*
X189542Y71340D01*
X189606Y71244D01*
X189668Y70960D01*
X189742Y70588D01*
X189753Y70572D01*
X189757Y70553D01*
X189973Y70242D01*
X190087Y70072D01*
Y37518D01*
X190242Y36737D01*
X190684Y36076D01*
X191289Y35471D01*
X191125Y34928D01*
X190658Y34835D01*
X189831Y34283D01*
X189749Y34159D01*
X189729Y34153D01*
X189675Y34111D01*
X189610Y34088D01*
X189363Y33868D01*
X189102Y33664D01*
X189068Y33604D01*
X189016Y33558D01*
X188873Y33260D01*
X188845Y33212D01*
X188828Y33190D01*
X188823Y33173D01*
X188709Y32972D01*
X188701Y32904D01*
X188697Y32896D01*
X188639Y32842D01*
X188533Y32608D01*
X188395Y32391D01*
X188370Y32249D01*
X188310Y32118D01*
X188301Y31861D01*
X188295Y31829D01*
X179982Y23516D01*
X179550D01*
X179386Y23625D01*
X179083Y23839D01*
X179057Y23845D01*
X179034Y23860D01*
X178669Y23933D01*
X178658Y23935D01*
X178593Y23979D01*
X178523Y24063D01*
X178266Y24198D01*
Y28598D01*
X178266Y28854D01*
X178266D01*
Y29098D01*
X178266D01*
Y33598D01*
X178266Y33854D01*
X178266Y34354D01*
Y38598D01*
X178266Y38854D01*
X178266Y39354D01*
Y43598D01*
X178266Y43854D01*
X178266Y44697D01*
X178435Y44775D01*
X178547Y44895D01*
X178684Y44986D01*
X178815Y45184D01*
X178977Y45357D01*
X179034Y45511D01*
X179126Y45648D01*
X179172Y45880D01*
X179255Y46103D01*
X179250Y46238D01*
X179274Y46266D01*
X179427Y46425D01*
X179634Y46746D01*
X179845Y47062D01*
X179848Y47079D01*
X179858Y47094D01*
X179926Y47469D01*
X179966Y47671D01*
X184414Y52119D01*
X184856Y52781D01*
X185012Y53561D01*
Y66037D01*
X185114Y66190D01*
X185325Y66481D01*
X185334Y66520D01*
X185356Y66553D01*
X185426Y66905D01*
X185503Y67225D01*
X185556Y67305D01*
X185568Y67365D01*
X185599Y67418D01*
X185627Y67619D01*
X185631Y67628D01*
X185631Y67649D01*
X185646Y67753D01*
X185712Y68085D01*
X185700Y68145D01*
X185708Y68206D01*
X185622Y68534D01*
X185556Y68865D01*
X185522Y68916D01*
X185507Y68976D01*
X185479Y69013D01*
X185327Y69775D01*
X184775Y70602D01*
X183948Y71154D01*
X182972Y71348D01*
X181997Y71154D01*
X181170Y70602D01*
X180617Y69775D01*
X180466Y69013D01*
X180438Y68976D01*
X180423Y68916D01*
X180388Y68865D01*
X180323Y68534D01*
X180237Y68206D01*
X180245Y68145D01*
X180233Y68085D01*
X180299Y67753D01*
X180314Y67649D01*
X180314Y67628D01*
X180318Y67619D01*
X180345Y67418D01*
X180377Y67365D01*
X180388Y67305D01*
X180452Y67209D01*
X180515Y66925D01*
X180588Y66553D01*
X180599Y66537D01*
X180603Y66518D01*
X180820Y66207D01*
X180933Y66037D01*
Y54406D01*
X178728Y52200D01*
X178266Y52391D01*
Y53598D01*
X178266Y53854D01*
X178266D01*
Y54098D01*
X178266D01*
Y58854D01*
X175753D01*
X175618Y59111D01*
X175534Y59181D01*
X175491Y59247D01*
X175488Y59258D01*
X175416Y59623D01*
X175402Y59643D01*
X175416Y59663D01*
X175486Y60016D01*
X175562Y60335D01*
X175616Y60415D01*
X175627Y60475D01*
X175659Y60528D01*
X175686Y60729D01*
X175690Y60738D01*
X175690Y60760D01*
X175705Y60864D01*
X175771Y61195D01*
X175759Y61256D01*
X175767Y61317D01*
X175681Y61644D01*
X175616Y61976D01*
X175581Y62027D01*
X175566Y62086D01*
X175538Y62123D01*
X175386Y62885D01*
X174834Y63712D01*
X174007Y64264D01*
X173031Y64458D01*
X172056Y64264D01*
X171229Y63712D01*
X170677Y62885D01*
X170525Y62123D01*
X170497Y62086D01*
X170482Y62027D01*
X170448Y61976D01*
X170381Y61644D01*
X170296Y61317D01*
X170304Y61256D01*
X170292Y61195D01*
X170358Y60864D01*
X170373Y60760D01*
X170373Y60738D01*
X170377Y60729D01*
X170405Y60528D01*
X170436Y60475D01*
X170448Y60415D01*
X170511Y60319D01*
X170574Y60035D01*
X170648Y59663D01*
X170658Y59647D01*
X170660Y59641D01*
X170648Y59623D01*
X170575Y59258D01*
X170572Y59247D01*
X170529Y59181D01*
X170445Y59111D01*
X170310Y58854D01*
X168687D01*
Y54602D01*
X167998Y54554D01*
X167681Y54551D01*
X167300Y54472D01*
X166919Y54396D01*
X166911Y54391D01*
X166902Y54389D01*
X166581Y54170D01*
X166417Y54061D01*
X165966D01*
X165818Y54160D01*
X165514Y54375D01*
X165488Y54381D01*
X165465Y54396D01*
X165101Y54468D01*
X164738Y54550D01*
X164418Y54559D01*
X164403Y54560D01*
X164277Y54711D01*
X164115Y54954D01*
X164024Y55014D01*
X163955Y55098D01*
X163696Y55233D01*
X163453Y55396D01*
X163347Y55417D01*
X163251Y55467D01*
X163222Y55470D01*
X163186Y55524D01*
X162943Y55687D01*
X162792Y55812D01*
X162791Y55828D01*
X162783Y56148D01*
X162701Y56510D01*
X162628Y56875D01*
X162613Y56897D01*
X162607Y56924D01*
X162392Y57227D01*
X162293Y57376D01*
Y74015D01*
X162562Y74284D01*
X162754Y74326D01*
X163097Y74383D01*
X163141Y74410D01*
X163191Y74420D01*
X163477Y74619D01*
X163773Y74803D01*
X164624Y75600D01*
X164789Y75736D01*
X164859Y75729D01*
X165090Y75669D01*
X165251Y75692D01*
X165413Y75676D01*
X165641Y75746D01*
X165878Y75779D01*
X166018Y75862D01*
X166174Y75910D01*
X166358Y76062D01*
X166564Y76183D01*
X166662Y76313D01*
X166787Y76417D01*
X166899Y76627D01*
X166948Y76693D01*
X168213D01*
X168266Y76613D01*
X168509Y76451D01*
X168734Y76264D01*
X168838Y76231D01*
X168928Y76171D01*
X169214Y76114D01*
X169493Y76027D01*
X169602Y76037D01*
X169708Y76016D01*
X169995Y76073D01*
X170286Y76099D01*
X170382Y76150D01*
X170489Y76171D01*
X170732Y76333D01*
X170990Y76469D01*
X171060Y76553D01*
X171150Y76613D01*
X171312Y76856D01*
X171419Y76985D01*
X171915Y76985D01*
X172021Y76857D01*
X172184Y76613D01*
X172274Y76553D01*
X172343Y76470D01*
X172602Y76334D01*
X172846Y76171D01*
X172952Y76150D01*
X173047Y76100D01*
X173339Y76073D01*
X173626Y76016D01*
X173732Y76037D01*
X173840Y76027D01*
X174119Y76114D01*
X174407Y76171D01*
X174496Y76231D01*
X174600Y76263D01*
X174825Y76451D01*
X175068Y76613D01*
X175121Y76693D01*
X178095D01*
X178148Y76613D01*
X178391Y76451D01*
X178616Y76264D01*
X178719Y76231D01*
X178810Y76171D01*
X179096Y76114D01*
X179375Y76027D01*
X179484Y76037D01*
X179590Y76016D01*
X179877Y76073D01*
X180168Y76099D01*
X180264Y76150D01*
X180370Y76171D01*
X180614Y76333D01*
X180872Y76469D01*
X180942Y76553D01*
X181032Y76613D01*
X181194Y76856D01*
X181301Y76984D01*
X181797Y76985D01*
X181903Y76857D01*
X182066Y76613D01*
X182156Y76553D01*
X182225Y76470D01*
X182484Y76334D01*
X182728Y76171D01*
X182834Y76150D01*
X182929Y76100D01*
X183221Y76073D01*
X183508Y76016D01*
X183614Y76037D01*
X183721Y76027D01*
X184001Y76114D01*
X184288Y76171D01*
X184378Y76231D01*
X184481Y76263D01*
X184706Y76451D01*
X184950Y76613D01*
X185003Y76693D01*
X187977D01*
X188030Y76613D01*
X188273Y76451D01*
X188498Y76264D01*
X188601Y76231D01*
X188692Y76171D01*
X188978Y76114D01*
X189257Y76027D01*
X189365Y76037D01*
X189472Y76016D01*
X189759Y76073D01*
X190050Y76099D01*
X190146Y76150D01*
X190252Y76171D01*
X190495Y76333D01*
X190754Y76469D01*
X190824Y76553D01*
X190914Y76613D01*
X191076Y76856D01*
X191183Y76985D01*
X191679Y76985D01*
X191785Y76857D01*
X191948Y76613D01*
X192038Y76553D01*
X192107Y76470D01*
X192366Y76334D01*
X192610Y76171D01*
X192716Y76150D01*
X192811Y76100D01*
X193103Y76073D01*
X193390Y76016D01*
X193496Y76037D01*
X193603Y76027D01*
X193883Y76114D01*
X194170Y76171D01*
X194260Y76231D01*
X194363Y76263D01*
X194588Y76451D01*
X194832Y76613D01*
X194885Y76693D01*
X197859D01*
X197912Y76613D01*
X198155Y76451D01*
X198380Y76264D01*
X198483Y76231D01*
X198574Y76171D01*
X198860Y76114D01*
X199139Y76027D01*
X199247Y76037D01*
X199354Y76016D01*
X199641Y76073D01*
X199932Y76099D01*
X200028Y76150D01*
X200134Y76171D01*
X200377Y76333D01*
X200636Y76469D01*
X200706Y76553D01*
X200796Y76613D01*
X200958Y76856D01*
X201065Y76984D01*
X201561Y76985D01*
X201667Y76857D01*
X201830Y76613D01*
X201920Y76553D01*
X201989Y76470D01*
X202248Y76334D01*
X202491Y76171D01*
X202597Y76150D01*
X202693Y76100D01*
X202985Y76073D01*
X203272Y76016D01*
X203378Y76037D01*
X203485Y76027D01*
X203765Y76114D01*
X204052Y76171D01*
X204142Y76231D01*
X204245Y76263D01*
X204470Y76451D01*
X204714Y76613D01*
X204767Y76693D01*
X207741D01*
X207794Y76613D01*
X208037Y76451D01*
X208261Y76264D01*
X208365Y76231D01*
X208455Y76171D01*
X208742Y76114D01*
X209021Y76027D01*
X209129Y76037D01*
X209236Y76016D01*
X209522Y76073D01*
X209813Y76099D01*
X209910Y76150D01*
X210016Y76171D01*
X210259Y76333D01*
X210518Y76469D01*
X210587Y76553D01*
X210678Y76613D01*
X210840Y76856D01*
X210947Y76985D01*
X211443Y76985D01*
X211549Y76857D01*
X211712Y76613D01*
X211802Y76553D01*
X211871Y76470D01*
X212130Y76334D01*
X212373Y76171D01*
X212479Y76150D01*
X212575Y76100D01*
X212866Y76073D01*
X213154Y76016D01*
X213260Y76037D01*
X213367Y76027D01*
X213647Y76114D01*
X213934Y76171D01*
X214024Y76231D01*
X214127Y76263D01*
X214352Y76451D01*
X214596Y76613D01*
X214649Y76693D01*
X217798D01*
X217919Y76612D01*
X218143Y76425D01*
X218247Y76393D01*
X218337Y76333D01*
X218624Y76276D01*
X218903Y76189D01*
X219011Y76199D01*
X219118Y76177D01*
X219404Y76234D01*
X219695Y76261D01*
X219792Y76311D01*
X219898Y76333D01*
X220141Y76495D01*
X220400Y76631D01*
X220469Y76714D01*
X220560Y76775D01*
X220722Y77018D01*
X220848Y77168D01*
X220863Y77170D01*
X221183Y77178D01*
X221546Y77260D01*
X221910Y77333D01*
X221933Y77348D01*
X221959Y77354D01*
X222263Y77568D01*
X222411Y77668D01*
X223130D01*
X224105Y77862D01*
X224932Y78414D01*
X225485Y79241D01*
X225679Y80216D01*
X225485Y81192D01*
X224932Y82019D01*
X224105Y82572D01*
X223130Y82766D01*
X222411D01*
X222263Y82865D01*
X221959Y83079D01*
X221933Y83085D01*
X221910Y83100D01*
X221546Y83173D01*
X221183Y83255D01*
X220863Y83263D01*
X220848Y83265D01*
X220722Y83416D01*
X220560Y83658D01*
X220469Y83719D01*
X220400Y83802D01*
X220142Y83938D01*
Y87260D01*
X220311Y87338D01*
X220423Y87458D01*
X220560Y87549D01*
X220691Y87747D01*
X220853Y87920D01*
X220911Y88074D01*
X221002Y88211D01*
X221048Y88443D01*
X221131Y88666D01*
X221126Y88801D01*
X221150Y88829D01*
X221303Y88988D01*
X221510Y89309D01*
X221721Y89625D01*
X221724Y89642D01*
X221734Y89657D01*
X221802Y90032D01*
X221842Y90234D01*
X222742Y91134D01*
X223184Y91795D01*
X223339Y92576D01*
Y117679D01*
X223184Y118459D01*
X222742Y119121D01*
X222742Y119121D01*
X213153Y128709D01*
Y151878D01*
X213278Y152066D01*
X213498Y152395D01*
X213499Y152397D01*
X213500Y152399D01*
X213576Y152789D01*
X213653Y153175D01*
X213653Y153177D01*
X213653Y153180D01*
X213652Y153690D01*
X213650Y153702D01*
X213652Y153715D01*
X213646Y154165D01*
X213634Y154219D01*
X213641Y154274D01*
X213639Y154304D01*
X213597Y154458D01*
X213593Y154619D01*
X213590Y154629D01*
X213520Y154786D01*
X213486Y154956D01*
X213446Y155015D01*
X213431Y155072D01*
X213338Y155192D01*
X213265Y155355D01*
X213153Y155461D01*
Y155529D01*
X213153Y155529D01*
X212998Y156310D01*
X212614Y156885D01*
Y160045D01*
X201878D01*
Y156604D01*
Y153163D01*
X202979D01*
X202987Y153152D01*
X203124Y152892D01*
X203207Y152823D01*
X203253Y152753D01*
X203325Y152395D01*
X203340Y152372D01*
X203346Y152346D01*
X203560Y152042D01*
X203670Y151879D01*
Y140514D01*
X203612Y140465D01*
X203489Y140226D01*
X203337Y140006D01*
X203309Y139876D01*
X203248Y139757D01*
X203226Y139490D01*
X203175Y139252D01*
X203164Y139236D01*
X203130Y139071D01*
X203059Y138918D01*
X203051Y138734D01*
X203047Y138724D01*
X203049Y138699D01*
X203049Y138685D01*
X203001Y138457D01*
X203032Y138292D01*
X203025Y138123D01*
X203105Y137904D01*
X203126Y137795D01*
X203105Y137686D01*
X203025Y137468D01*
X203032Y137299D01*
X203001Y137133D01*
X203049Y136905D01*
X203049Y136892D01*
X203047Y136867D01*
X203051Y136857D01*
X203059Y136673D01*
X203130Y136520D01*
X203164Y136354D01*
X203175Y136339D01*
X203226Y136100D01*
X203248Y135833D01*
X203309Y135715D01*
X203337Y135584D01*
X203489Y135364D01*
X203612Y135126D01*
X203670Y135077D01*
Y92702D01*
X203560Y92538D01*
X203346Y92234D01*
X203340Y92208D01*
X203325Y92186D01*
X203252Y91821D01*
X203250Y91810D01*
X203206Y91744D01*
X203122Y91674D01*
X202987Y91417D01*
X199769D01*
X199634Y91674D01*
X199550Y91744D01*
X199506Y91810D01*
X199504Y91821D01*
X199431Y92186D01*
X199416Y92208D01*
X199410Y92234D01*
X199196Y92538D01*
X199086Y92702D01*
Y130308D01*
X199200Y130478D01*
X199416Y130790D01*
X199420Y130808D01*
X199431Y130824D01*
X199505Y131196D01*
X199566Y131473D01*
X199623Y131558D01*
X199638Y131628D01*
X199674Y131690D01*
X199702Y131890D01*
X199706Y131900D01*
X199706Y131921D01*
X199719Y132015D01*
X199786Y132336D01*
X199773Y132407D01*
X199783Y132478D01*
X199700Y132795D01*
X199648Y133071D01*
X199700Y133346D01*
X199783Y133664D01*
X199773Y133735D01*
X199786Y133805D01*
X199719Y134127D01*
X199706Y134221D01*
X199706Y134242D01*
X199702Y134252D01*
X199674Y134452D01*
X199638Y134514D01*
X199623Y134584D01*
X199566Y134669D01*
X199505Y134945D01*
X199431Y135317D01*
X199420Y135333D01*
X199416Y135352D01*
X199200Y135664D01*
X199086Y135833D01*
Y151879D01*
X199196Y152042D01*
X199410Y152346D01*
X199416Y152372D01*
X199431Y152395D01*
X199503Y152753D01*
X199549Y152823D01*
X199632Y152892D01*
X199768Y153152D01*
X199776Y153163D01*
X200878D01*
Y156604D01*
Y160045D01*
X177150D01*
Y155418D01*
X177120Y155374D01*
X176933Y155149D01*
X176900Y155046D01*
X176840Y154956D01*
X176783Y154668D01*
X176697Y154389D01*
X176706Y154281D01*
X176685Y154175D01*
X176742Y153888D01*
X176769Y153596D01*
X176819Y153501D01*
X176840Y153395D01*
X177003Y153152D01*
X177139Y152892D01*
X177223Y152823D01*
X177269Y152753D01*
X177340Y152395D01*
X177356Y152372D01*
X177362Y152346D01*
X177576Y152042D01*
X177685Y151879D01*
Y143364D01*
X166668Y132347D01*
X166226Y131686D01*
X166071Y130905D01*
Y114848D01*
X163512D01*
Y109518D01*
Y104187D01*
X166071D01*
Y92702D01*
X165962Y92538D01*
X165747Y92234D01*
X165741Y92208D01*
X165726Y92186D01*
X165654Y91821D01*
X165651Y91810D01*
X165608Y91744D01*
X165524Y91674D01*
X165389Y91417D01*
X162732D01*
Y86363D01*
X162232Y86156D01*
X135769Y112619D01*
X134942Y113172D01*
X133967Y113366D01*
X127053D01*
X126904Y113465D01*
X126601Y113680D01*
X126574Y113686D01*
X126552Y113701D01*
X126187Y113773D01*
X125825Y113855D01*
X125505Y113864D01*
X125489Y113865D01*
X125364Y114016D01*
X125201Y114259D01*
X125111Y114319D01*
X125041Y114403D01*
X124784Y114538D01*
Y114827D01*
X123907D01*
X123759Y114856D01*
X123653Y114835D01*
X123545Y114845D01*
X123487Y114827D01*
X110059D01*
Y113253D01*
X109802Y113118D01*
X109732Y113034D01*
X109667Y112991D01*
X109655Y112988D01*
X109291Y112916D01*
X109268Y112900D01*
X109242Y112894D01*
X108938Y112680D01*
X108775Y112571D01*
X105518D01*
X105365Y112673D01*
X105074Y112884D01*
X105035Y112893D01*
X105002Y112916D01*
X104650Y112986D01*
X104331Y113062D01*
X104250Y113116D01*
X104190Y113127D01*
X104137Y113159D01*
X103937Y113186D01*
X103927Y113190D01*
X103906Y113190D01*
X103802Y113205D01*
X103470Y113271D01*
X103410Y113259D01*
X103349Y113267D01*
X103022Y113181D01*
X102690Y113116D01*
X102639Y113081D01*
X102579Y113066D01*
X102543Y113038D01*
X101780Y112886D01*
X100953Y112334D01*
X100401Y111507D01*
X100207Y110531D01*
X100401Y109556D01*
X100953Y108729D01*
X101780Y108177D01*
X102543Y108025D01*
X102579Y107997D01*
X102639Y107982D01*
X102690Y107948D01*
X103022Y107881D01*
X103349Y107796D01*
X103410Y107804D01*
X103470Y107792D01*
X103802Y107858D01*
X103906Y107873D01*
X103927Y107873D01*
X103937Y107877D01*
X104137Y107905D01*
X104190Y107936D01*
X104250Y107948D01*
X104346Y108011D01*
X104630Y108074D01*
X105002Y108148D01*
X105018Y108158D01*
X105037Y108162D01*
X105349Y108379D01*
X105518Y108492D01*
X108775D01*
X108938Y108383D01*
X109242Y108168D01*
X109268Y108162D01*
X109291Y108148D01*
X109655Y108075D01*
X109667Y108072D01*
X109732Y108029D01*
X109802Y107945D01*
X110059Y107810D01*
Y106827D01*
X112622D01*
X112708Y106639D01*
X112826Y106530D01*
X112915Y106397D01*
X113116Y106263D01*
X113293Y106099D01*
X113443Y106044D01*
X113577Y105955D01*
X113813Y105908D01*
X114039Y105824D01*
X114182Y105830D01*
X114198Y105816D01*
X114355Y105665D01*
X114675Y105459D01*
X114991Y105248D01*
X115009Y105244D01*
X115024Y105234D01*
X115399Y105167D01*
X115600Y105127D01*
X135744Y84982D01*
Y33610D01*
X135899Y32830D01*
X136342Y32168D01*
X139860Y28650D01*
X139885Y28507D01*
X139938Y28144D01*
X139955Y28116D01*
X139961Y28084D01*
X140158Y27775D01*
X140346Y27461D01*
X140372Y27441D01*
X140390Y27414D01*
X140528Y27269D01*
X140566Y27226D01*
X140560Y27123D01*
X140657Y26850D01*
X140723Y26568D01*
X140788Y26478D01*
X140825Y26373D01*
X141018Y26157D01*
X141187Y25922D01*
X141282Y25864D01*
X141356Y25781D01*
X141555Y25685D01*
Y22476D01*
X156280D01*
Y23755D01*
X156537Y23890D01*
X156607Y23974D01*
X156672Y24017D01*
X156683Y24020D01*
X157048Y24092D01*
X157070Y24107D01*
X157097Y24113D01*
X157400Y24328D01*
X157564Y24437D01*
X167403D01*
X167566Y24328D01*
X167870Y24113D01*
X167896Y24107D01*
X167919Y24092D01*
X168283Y24020D01*
X168295Y24017D01*
X168360Y23974D01*
X168430Y23890D01*
X168687Y23755D01*
Y23260D01*
X168500Y23174D01*
X168391Y23056D01*
X168257Y22967D01*
X168123Y22766D01*
X167960Y22589D01*
X167904Y22438D01*
X167815Y22305D01*
X167768Y22069D01*
X167685Y21843D01*
X167690Y21700D01*
X167676Y21684D01*
X167525Y21527D01*
X167319Y21206D01*
X167108Y20891D01*
X167104Y20873D01*
X167095Y20858D01*
X167027Y20483D01*
X166987Y20282D01*
X162162Y15457D01*
X111299D01*
Y17118D01*
X107937D01*
Y17618D01*
X107437D01*
Y21618D01*
X105610D01*
Y23362D01*
X107437D01*
Y27362D01*
Y31362D01*
X105610D01*
Y33008D01*
X107634D01*
Y37008D01*
Y41008D01*
X105610D01*
Y42654D01*
X108224D01*
Y46654D01*
Y50653D01*
X97362D01*
Y49375D01*
X97105Y49240D01*
X97035Y49156D01*
X96970Y49113D01*
X96959Y49110D01*
X96594Y49038D01*
X96571Y49022D01*
X96545Y49017D01*
X96241Y48802D01*
X96078Y48693D01*
X95026D01*
X95002Y48710D01*
X94811Y48888D01*
X94680Y48937D01*
X94565Y49018D01*
X94310Y49075D01*
X94066Y49166D01*
X93926Y49161D01*
X93789Y49192D01*
X93628Y49196D01*
X93576Y49202D01*
X93378Y49284D01*
X93321Y49284D01*
X93267Y49303D01*
X93099Y49294D01*
X93083Y49297D01*
X93041Y49290D01*
X92925Y49283D01*
X92582Y49283D01*
X92529Y49261D01*
X92472Y49258D01*
X92164Y49109D01*
X91848Y48977D01*
X91807Y48937D01*
X91756Y48912D01*
X91714Y48865D01*
X91446Y48812D01*
X90619Y48259D01*
X90066Y47432D01*
X89872Y46457D01*
X90066Y45481D01*
X90619Y44654D01*
X91446Y44102D01*
X92421Y43908D01*
X92689Y43961D01*
X92725Y43943D01*
X92798Y43938D01*
X92865Y43910D01*
X93192Y43911D01*
X93519Y43888D01*
X93588Y43912D01*
X93661Y43912D01*
X93963Y44038D01*
X93990Y44047D01*
X94023Y44052D01*
X94042Y44064D01*
X94273Y44142D01*
X94298Y44164D01*
X94442Y44169D01*
X94613Y44247D01*
X94797Y44288D01*
X94972Y44410D01*
X95166Y44499D01*
X95274Y44614D01*
X96078D01*
X96242Y44505D01*
X96545Y44291D01*
X96571Y44285D01*
X96594Y44270D01*
X96959Y44197D01*
X96970Y44194D01*
X97035Y44151D01*
X97105Y44067D01*
X97362Y43932D01*
Y41598D01*
X96772Y41008D01*
Y39532D01*
X96515Y39398D01*
X96445Y39314D01*
X96379Y39270D01*
X96368Y39268D01*
X96003Y39195D01*
X95981Y39180D01*
X95955Y39174D01*
X95651Y38960D01*
X95487Y38850D01*
X95184D01*
X95030Y38953D01*
X94740Y39164D01*
X94701Y39173D01*
X94668Y39195D01*
X94315Y39265D01*
X93996Y39342D01*
X93916Y39395D01*
X93856Y39407D01*
X93802Y39438D01*
X93602Y39466D01*
X93592Y39470D01*
X93571Y39470D01*
X93467Y39484D01*
X93135Y39550D01*
X93075Y39538D01*
X93014Y39547D01*
X92687Y39461D01*
X92355Y39395D01*
X92304Y39361D01*
X92244Y39345D01*
X92208Y39318D01*
X91446Y39166D01*
X90619Y38613D01*
X90066Y37786D01*
X89872Y36811D01*
X90066Y35836D01*
X90619Y35009D01*
X91446Y34456D01*
X92208Y34304D01*
X92244Y34277D01*
X92304Y34261D01*
X92355Y34227D01*
X92687Y34161D01*
X93014Y34075D01*
X93075Y34084D01*
X93135Y34072D01*
X93467Y34138D01*
X93571Y34152D01*
X93592Y34152D01*
X93602Y34156D01*
X93802Y34184D01*
X93856Y34215D01*
X93916Y34227D01*
X94011Y34291D01*
X94296Y34353D01*
X94668Y34427D01*
X94684Y34438D01*
X94703Y34442D01*
X95014Y34658D01*
X95184Y34772D01*
X95487D01*
X95651Y34663D01*
X95955Y34448D01*
X95981Y34442D01*
X96003Y34427D01*
X96368Y34354D01*
X96379Y34352D01*
X96445Y34308D01*
X96515Y34225D01*
X96772Y34090D01*
Y33008D01*
X96575Y32811D01*
Y30280D01*
X96318Y30146D01*
X96248Y30062D01*
X96183Y30018D01*
X96171Y30016D01*
X95806Y29943D01*
X95784Y29928D01*
X95758Y29922D01*
X95454Y29708D01*
X95290Y29598D01*
X95085D01*
X94932Y29701D01*
X94641Y29912D01*
X94602Y29921D01*
X94569Y29943D01*
X94217Y30013D01*
X93897Y30090D01*
X93817Y30143D01*
X93757Y30155D01*
X93704Y30186D01*
X93503Y30214D01*
X93494Y30218D01*
X93473Y30218D01*
X93369Y30232D01*
X93037Y30298D01*
X92977Y30286D01*
X92916Y30295D01*
X92589Y30209D01*
X92257Y30143D01*
X92206Y30109D01*
X92146Y30093D01*
X92110Y30066D01*
X91347Y29914D01*
X90520Y29362D01*
X89968Y28534D01*
X89774Y27559D01*
X89968Y26584D01*
X90520Y25757D01*
X91347Y25204D01*
X92110Y25052D01*
X92146Y25025D01*
X92206Y25009D01*
X92257Y24975D01*
X92589Y24909D01*
X92916Y24824D01*
X92977Y24832D01*
X93037Y24820D01*
X93369Y24886D01*
X93473Y24900D01*
X93494Y24900D01*
X93503Y24904D01*
X93704Y24932D01*
X93757Y24963D01*
X93817Y24975D01*
X93913Y25039D01*
X94197Y25101D01*
X94569Y25175D01*
X94585Y25186D01*
X94604Y25190D01*
X94915Y25406D01*
X95085Y25520D01*
X95290D01*
X95454Y25411D01*
X95758Y25196D01*
X95784Y25190D01*
X95806Y25175D01*
X96171Y25102D01*
X96183Y25100D01*
X96248Y25056D01*
X96318Y24972D01*
X96575Y24838D01*
Y20339D01*
X96318Y20205D01*
X96248Y20121D01*
X96183Y20077D01*
X96171Y20075D01*
X95806Y20002D01*
X95784Y19987D01*
X95758Y19981D01*
X95454Y19767D01*
X95290Y19657D01*
X75648D01*
X66868Y28437D01*
X66841Y28592D01*
X66781Y28968D01*
X66771Y28983D01*
X66768Y29000D01*
X66563Y29321D01*
X66365Y29646D01*
X66150Y29877D01*
X66150Y30068D01*
X66095Y30201D01*
X66075Y30344D01*
X65945Y30566D01*
X65847Y30803D01*
X65746Y30906D01*
X65672Y31030D01*
X65467Y31185D01*
X65286Y31367D01*
X65173Y31414D01*
Y36138D01*
Y38555D01*
X61221D01*
Y39555D01*
X65173D01*
Y41138D01*
Y44658D01*
X65248Y44899D01*
X65238Y45007D01*
X65260Y45114D01*
X65203Y45400D01*
X65195Y45480D01*
X65539Y45992D01*
X65540Y45993D01*
X66233Y46017D01*
X66586Y46100D01*
X66942Y46171D01*
X66972Y46191D01*
X67008Y46200D01*
X67302Y46412D01*
X67443Y46506D01*
X75461D01*
X76436Y46700D01*
X77263Y47253D01*
X82493Y52482D01*
X117059D01*
X118035Y52676D01*
X118861Y53229D01*
X120403Y54771D01*
X120687Y54848D01*
X120994Y54905D01*
X121069Y54953D01*
X121154Y54976D01*
X121400Y55168D01*
X121662Y55337D01*
X122040Y55703D01*
X122725Y56303D01*
X122988Y56504D01*
X123229Y56668D01*
X123424Y56783D01*
X123566Y56852D01*
X123643Y56880D01*
X123645Y56881D01*
X123746Y56889D01*
X124047Y56976D01*
X124355Y57038D01*
X124427Y57086D01*
X124511Y57110D01*
X124756Y57305D01*
X125016Y57480D01*
X125065Y57552D01*
X125133Y57606D01*
X125284Y57880D01*
X125459Y58141D01*
X125476Y58226D01*
X125517Y58302D01*
X125553Y58614D01*
X125614Y58921D01*
X125597Y59007D01*
X125607Y59093D01*
X125520Y59394D01*
X125459Y59702D01*
X125410Y59774D01*
X125386Y59857D01*
X125191Y60103D01*
X125016Y60363D01*
X124944Y60412D01*
X124890Y60479D01*
X124616Y60631D01*
X124587Y60651D01*
Y63238D01*
X124703Y63300D01*
X124773Y63383D01*
X124863Y63443D01*
X125025Y63687D01*
X125213Y63911D01*
X125245Y64015D01*
X125305Y64105D01*
X125362Y64392D01*
X125449Y64671D01*
X125439Y64779D01*
X125460Y64885D01*
X125403Y65172D01*
X125377Y65463D01*
X125326Y65559D01*
X125305Y65666D01*
X125143Y65909D01*
X125007Y66167D01*
X124924Y66237D01*
X124863Y66327D01*
X124620Y66490D01*
X124469Y66615D01*
X124468Y66631D01*
X124460Y66951D01*
X124378Y67313D01*
X124305Y67678D01*
X124290Y67700D01*
X124284Y67727D01*
X124070Y68030D01*
X123970Y68179D01*
Y73381D01*
X124070Y73530D01*
X124284Y73833D01*
X124290Y73860D01*
X124305Y73882D01*
X124378Y74247D01*
X124460Y74609D01*
X124468Y74926D01*
X124469Y74932D01*
X124620Y75058D01*
X124863Y75221D01*
X124923Y75310D01*
X125006Y75380D01*
X125143Y75639D01*
X125305Y75882D01*
X125326Y75988D01*
X125377Y76084D01*
X125403Y76375D01*
X125460Y76663D01*
X125439Y76768D01*
X125449Y76876D01*
X125362Y77156D01*
X125305Y77443D01*
X125245Y77533D01*
X125213Y77636D01*
X125026Y77861D01*
X124863Y78105D01*
X124784Y78158D01*
Y81131D01*
X124863Y81185D01*
X125025Y81428D01*
X125213Y81652D01*
X125245Y81756D01*
X125305Y81846D01*
X125362Y82133D01*
X125449Y82412D01*
X125439Y82520D01*
X125460Y82627D01*
X125403Y82913D01*
X125377Y83204D01*
X125326Y83300D01*
X125305Y83407D01*
X125143Y83650D01*
X125007Y83909D01*
X124924Y83978D01*
X124863Y84069D01*
X124620Y84231D01*
X124469Y84356D01*
X124468Y84372D01*
X124460Y84692D01*
X124417Y84879D01*
X124460Y85067D01*
X124468Y85384D01*
X124469Y85390D01*
X124620Y85516D01*
X124863Y85678D01*
X124923Y85768D01*
X125006Y85837D01*
X125143Y86096D01*
X125305Y86340D01*
X125326Y86446D01*
X125377Y86541D01*
X125403Y86833D01*
X125460Y87120D01*
X125439Y87226D01*
X125449Y87334D01*
X125362Y87613D01*
X125305Y87901D01*
X125245Y87990D01*
X125213Y88094D01*
X125026Y88319D01*
X124863Y88562D01*
X124784Y88615D01*
Y94108D01*
X118131D01*
X118110Y94159D01*
Y95472D01*
X116991D01*
X116879Y95523D01*
X116828Y95567D01*
X116585Y95973D01*
X116617Y96136D01*
X116605Y96197D01*
X116613Y96257D01*
X116528Y96585D01*
X116462Y96917D01*
X116428Y96968D01*
X116412Y97027D01*
X116384Y97064D01*
X116233Y97826D01*
X115680Y98653D01*
X114853Y99205D01*
X113878Y99399D01*
X112902Y99205D01*
X112075Y98653D01*
X111523Y97826D01*
X111371Y97064D01*
X111344Y97027D01*
X111328Y96968D01*
X111294Y96917D01*
X111228Y96585D01*
X111142Y96257D01*
X111151Y96197D01*
X111139Y96136D01*
X111205Y95804D01*
X111219Y95701D01*
X111219Y95679D01*
X111223Y95670D01*
X111251Y95469D01*
X111282Y95416D01*
X111294Y95356D01*
X111358Y95260D01*
X111420Y94976D01*
X111467Y94740D01*
X111421Y94512D01*
X111419Y94500D01*
X111375Y94435D01*
X111291Y94365D01*
X111157Y94108D01*
X110059D01*
Y90270D01*
X109872Y90184D01*
X109763Y90066D01*
X109629Y89976D01*
X109495Y89776D01*
X109332Y89599D01*
X109276Y89448D01*
X109187Y89315D01*
X109140Y89078D01*
X109057Y88852D01*
X109063Y88710D01*
X109048Y88694D01*
X108897Y88537D01*
X108691Y88216D01*
X108480Y87901D01*
X108476Y87883D01*
X108467Y87867D01*
X108399Y87493D01*
X108359Y87292D01*
X103224Y82157D01*
X63780D01*
X63509Y89896D01*
X63482Y90165D01*
X106225Y132908D01*
X106667Y133570D01*
X106823Y134350D01*
Y138212D01*
X106932Y138375D01*
X107146Y138678D01*
X107152Y138705D01*
X107167Y138728D01*
X107221Y138996D01*
X109783D01*
Y148996D01*
X99783D01*
Y146297D01*
X99283Y146198D01*
X99151Y146518D01*
X98349Y147562D01*
X97305Y148364D01*
X96089Y148867D01*
X94784Y149039D01*
X93478Y148867D01*
X92262Y148364D01*
X91217Y147562D01*
X90416Y146518D01*
X90054Y145644D01*
X89513D01*
X89151Y146518D01*
X88349Y147562D01*
X87305Y148364D01*
X86089Y148867D01*
X84784Y149039D01*
X83478Y148867D01*
X82262Y148364D01*
X81217Y147562D01*
X80416Y146518D01*
X79912Y145301D01*
X79740Y143996D01*
X79912Y142691D01*
X80330Y141682D01*
X80294Y141508D01*
X80295Y141502D01*
X80294Y141497D01*
X80371Y141112D01*
X80445Y140727D01*
X80448Y140722D01*
X80449Y140716D01*
X80667Y140390D01*
X80884Y140063D01*
X81215Y139728D01*
X81755Y139118D01*
X81930Y138891D01*
X82073Y138682D01*
X82170Y138516D01*
X82226Y138400D01*
X82244Y138350D01*
X82251Y138266D01*
X82338Y137962D01*
X82399Y137652D01*
X82446Y137582D01*
X82469Y137501D01*
X82666Y137253D01*
X82744Y137136D01*
Y130904D01*
X67739Y115899D01*
X67242Y115948D01*
X66960Y116369D01*
X66133Y116922D01*
X65371Y117074D01*
X65334Y117101D01*
X65275Y117117D01*
X65224Y117151D01*
X64892Y117217D01*
X64565Y117303D01*
X64504Y117294D01*
X64443Y117306D01*
X64112Y117240D01*
X64008Y117226D01*
X63986Y117226D01*
X63977Y117222D01*
X63776Y117194D01*
X63723Y117163D01*
X63663Y117151D01*
X63567Y117087D01*
X63283Y117025D01*
X63178Y117004D01*
X63081Y117023D01*
X63069Y117026D01*
X63004Y117069D01*
X62934Y117154D01*
X62677Y117288D01*
Y118567D01*
X44756Y118602D01*
Y122962D01*
X66093Y144300D01*
X66276Y144336D01*
X66633Y144394D01*
X66665Y144414D01*
X66702Y144421D01*
X67003Y144622D01*
X67310Y144812D01*
X67529Y145016D01*
X67661Y145011D01*
X67883Y145094D01*
X68116Y145140D01*
X68252Y145231D01*
X68406Y145289D01*
X68580Y145450D01*
X68778Y145582D01*
X68869Y145719D01*
X68989Y145830D01*
X69067Y146000D01*
X71634D01*
Y154000D01*
X64909D01*
Y154000D01*
X64909Y154000D01*
X63634D01*
Y154000D01*
X63001D01*
X62993Y154012D01*
X62857Y154271D01*
X62774Y154340D01*
X62727Y154410D01*
X62656Y154768D01*
X62641Y154791D01*
X62634Y154818D01*
X62420Y155121D01*
X62389Y155167D01*
X62420Y155214D01*
X62634Y155517D01*
X62641Y155544D01*
X62656Y155566D01*
X62727Y155925D01*
X62774Y155994D01*
X62857Y156064D01*
X62993Y156323D01*
X63001Y156335D01*
X63138D01*
Y156540D01*
X63156Y156566D01*
X63177Y156672D01*
X63227Y156768D01*
X63254Y157059D01*
X63311Y157347D01*
X63290Y157453D01*
X63300Y157560D01*
X63213Y157840D01*
X63156Y158127D01*
X63138Y158154D01*
Y164335D01*
D02*
G37*
G36*
X238974Y140576D02*
X237737Y140374D01*
X236593Y139864D01*
X235616Y139078D01*
X234873Y138069D01*
X234412Y136904D01*
X234263Y135660D01*
X234350Y135039D01*
X234350D01*
X234464Y134405D01*
X235009Y133238D01*
X235836Y132250D01*
X236888Y131507D01*
X238096Y131060D01*
X239379Y130937D01*
X240650Y131149D01*
X241824Y131679D01*
X242323Y132087D01*
X242323Y132087D01*
X242323Y132087D01*
X242793Y132501D01*
X243491Y133542D01*
X243900Y134726D01*
X243993Y135976D01*
X243764Y137208D01*
X243228Y138340D01*
X242421Y139299D01*
X241396Y140020D01*
X240221Y140455D01*
X238974Y140576D01*
D02*
G37*
G36*
X10627D02*
X9391Y140374D01*
X8246Y139864D01*
X7270Y139078D01*
X6527Y138069D01*
X6066Y136904D01*
X5917Y135660D01*
X6004Y135039D01*
X6004D01*
X6117Y134405D01*
X6662Y133238D01*
X7489Y132250D01*
X8542Y131507D01*
X9750Y131060D01*
X11032Y130937D01*
X12303Y131149D01*
X13477Y131679D01*
X13976Y132087D01*
X13976Y132087D01*
X13976Y132087D01*
X14446Y132501D01*
X15144Y133542D01*
X15553Y134726D01*
X15646Y135976D01*
X15418Y137208D01*
X14882Y138340D01*
X14075Y139299D01*
X13050Y140020D01*
X11875Y140455D01*
X10627Y140576D01*
D02*
G37*
G36*
X162512Y114848D02*
X159748D01*
Y110018D01*
X162512D01*
Y114848D01*
D02*
G37*
G36*
X153551Y107365D02*
Y106996D01*
X153920D01*
X153772Y107217D01*
X153551Y107365D01*
D02*
G37*
G36*
X152551D02*
X152330Y107217D01*
X152183Y106996D01*
X152551D01*
Y107365D01*
D02*
G37*
G36*
X153920Y105996D02*
X153551D01*
Y105628D01*
X153772Y105775D01*
X153920Y105996D01*
D02*
G37*
G36*
X152551D02*
X152183D01*
X152330Y105775D01*
X152551Y105628D01*
Y105996D01*
D02*
G37*
G36*
X162512Y109018D02*
X159748D01*
Y104187D01*
X162512D01*
Y109018D01*
D02*
G37*
G36*
X8661Y106975D02*
X7748Y106855D01*
X6896Y106502D01*
X6165Y105941D01*
X5604Y105210D01*
X5252Y104358D01*
X5131Y103445D01*
X5252Y102531D01*
X5604Y101680D01*
X6165Y100949D01*
X6896Y100388D01*
X7748Y100035D01*
X8661Y99915D01*
X9575Y100035D01*
X10426Y100388D01*
X11158Y100949D01*
X11719Y101680D01*
X12071Y102531D01*
X12192Y103445D01*
X12071Y104358D01*
X11719Y105210D01*
X11158Y105941D01*
X10426Y106502D01*
X9575Y106855D01*
X8661Y106975D01*
D02*
G37*
G36*
Y97871D02*
X7748Y97751D01*
X6896Y97398D01*
X6165Y96837D01*
X5604Y96106D01*
X5252Y95254D01*
X5131Y94340D01*
X5252Y93427D01*
X5604Y92575D01*
X6165Y91844D01*
X6896Y91283D01*
X7748Y90931D01*
X8661Y90810D01*
X9575Y90931D01*
X10426Y91283D01*
X11158Y91844D01*
X11719Y92575D01*
X12071Y93427D01*
X12192Y94340D01*
X12071Y95254D01*
X11719Y96106D01*
X11158Y96837D01*
X10426Y97398D01*
X9575Y97751D01*
X8661Y97871D01*
D02*
G37*
G36*
Y88766D02*
X7748Y88646D01*
X6896Y88293D01*
X6165Y87732D01*
X5604Y87001D01*
X5252Y86150D01*
X5131Y85236D01*
X5252Y84323D01*
X5604Y83471D01*
X6165Y82740D01*
X6896Y82179D01*
X7748Y81826D01*
X8661Y81706D01*
X9575Y81826D01*
X10426Y82179D01*
X11158Y82740D01*
X11719Y83471D01*
X12071Y84323D01*
X12192Y85236D01*
X12071Y86150D01*
X11719Y87001D01*
X11158Y87732D01*
X10426Y88293D01*
X9575Y88646D01*
X8661Y88766D01*
D02*
G37*
G36*
Y79662D02*
X7748Y79542D01*
X6896Y79189D01*
X6165Y78628D01*
X5604Y77897D01*
X5252Y77046D01*
X5131Y76132D01*
X5252Y75218D01*
X5604Y74367D01*
X6165Y73636D01*
X6896Y73075D01*
X7748Y72722D01*
X8661Y72602D01*
X9575Y72722D01*
X10426Y73075D01*
X11158Y73636D01*
X11719Y74367D01*
X12071Y75218D01*
X12192Y76132D01*
X12071Y77046D01*
X11719Y77897D01*
X11158Y78628D01*
X10426Y79189D01*
X9575Y79542D01*
X8661Y79662D01*
D02*
G37*
G36*
Y70558D02*
X7748Y70438D01*
X6896Y70085D01*
X6165Y69524D01*
X5604Y68793D01*
X5252Y67941D01*
X5131Y67027D01*
X5252Y66114D01*
X5604Y65263D01*
X6165Y64531D01*
X6896Y63970D01*
X7748Y63618D01*
X8661Y63497D01*
X9575Y63618D01*
X10426Y63970D01*
X11158Y64531D01*
X11719Y65263D01*
X12071Y66114D01*
X12192Y67027D01*
X12071Y67941D01*
X11719Y68793D01*
X11158Y69524D01*
X10426Y70085D01*
X9575Y70438D01*
X8661Y70558D01*
D02*
G37*
G36*
Y61453D02*
X7748Y61333D01*
X6896Y60980D01*
X6165Y60419D01*
X5604Y59688D01*
X5252Y58837D01*
X5131Y57923D01*
X5252Y57010D01*
X5604Y56158D01*
X6165Y55427D01*
X6896Y54866D01*
X7748Y54513D01*
X8661Y54393D01*
X9575Y54513D01*
X10426Y54866D01*
X11158Y55427D01*
X11719Y56158D01*
X12071Y57010D01*
X12192Y57923D01*
X12071Y58837D01*
X11719Y59688D01*
X11158Y60419D01*
X10426Y60980D01*
X9575Y61333D01*
X8661Y61453D01*
D02*
G37*
G36*
X112087Y50653D02*
X109224D01*
Y47153D01*
X112087D01*
Y50653D01*
D02*
G37*
G36*
X8661Y52349D02*
X7748Y52229D01*
X6896Y51876D01*
X6165Y51315D01*
X5604Y50584D01*
X5252Y49733D01*
X5131Y48819D01*
X5252Y47905D01*
X5604Y47054D01*
X6165Y46323D01*
X6896Y45762D01*
X7748Y45409D01*
X8661Y45289D01*
X9575Y45409D01*
X10426Y45762D01*
X11158Y46323D01*
X11719Y47054D01*
X12071Y47905D01*
X12192Y48819D01*
X12071Y49733D01*
X11719Y50584D01*
X11158Y51315D01*
X10426Y51876D01*
X9575Y52229D01*
X8661Y52349D01*
D02*
G37*
G36*
X112087Y46154D02*
X109224D01*
Y42654D01*
X112087D01*
Y46154D01*
D02*
G37*
G36*
X111496Y41008D02*
X108634D01*
Y37508D01*
X111496D01*
Y41008D01*
D02*
G37*
G36*
X8661Y43245D02*
X7748Y43124D01*
X6896Y42772D01*
X6165Y42211D01*
X5604Y41480D01*
X5252Y40628D01*
X5131Y39715D01*
X5252Y38801D01*
X5604Y37949D01*
X6165Y37218D01*
X6896Y36657D01*
X7748Y36305D01*
X8661Y36184D01*
X9575Y36305D01*
X10426Y36657D01*
X11158Y37218D01*
X11719Y37949D01*
X12071Y38801D01*
X12192Y39715D01*
X12071Y40628D01*
X11719Y41480D01*
X11158Y42211D01*
X10426Y42772D01*
X9575Y43124D01*
X8661Y43245D01*
D02*
G37*
G36*
X111496Y36508D02*
X108634D01*
Y33008D01*
X111496D01*
Y36508D01*
D02*
G37*
G36*
X238974Y39775D02*
X237737Y39574D01*
X236593Y39063D01*
X235616Y38278D01*
X234873Y37269D01*
X234412Y36104D01*
X234263Y34859D01*
X234350Y34239D01*
X234350D01*
X234464Y33605D01*
X235009Y32438D01*
X235836Y31449D01*
X236888Y30707D01*
X238096Y30259D01*
X239379Y30137D01*
X240650Y30348D01*
X241824Y30879D01*
X242323Y31286D01*
X242323Y31286D01*
X242323Y31286D01*
X242793Y31700D01*
X243491Y32741D01*
X243900Y33926D01*
X243993Y35175D01*
X243764Y36407D01*
X243228Y37540D01*
X242421Y38499D01*
X241396Y39219D01*
X240221Y39655D01*
X238974Y39775D01*
D02*
G37*
G36*
X111299Y31362D02*
X108437D01*
Y27862D01*
X111299D01*
Y31362D01*
D02*
G37*
G36*
X8661Y34140D02*
X7748Y34020D01*
X6896Y33667D01*
X6165Y33106D01*
X5604Y32375D01*
X5252Y31524D01*
X5131Y30610D01*
X5252Y29697D01*
X5604Y28845D01*
X6165Y28114D01*
X6896Y27553D01*
X7748Y27200D01*
X8661Y27080D01*
X9575Y27200D01*
X10426Y27553D01*
X11158Y28114D01*
X11719Y28845D01*
X12071Y29697D01*
X12192Y30610D01*
X12071Y31524D01*
X11719Y32375D01*
X11158Y33106D01*
X10426Y33667D01*
X9575Y34020D01*
X8661Y34140D01*
D02*
G37*
G36*
X111299Y26862D02*
X108437D01*
Y23362D01*
X111299D01*
Y26862D01*
D02*
G37*
G36*
Y21618D02*
X108437D01*
Y18118D01*
X111299D01*
Y21618D01*
D02*
G37*
G36*
X43913Y18555D02*
X40461D01*
Y16972D01*
X43913D01*
Y18555D01*
D02*
G37*
G36*
X39461D02*
X36008D01*
Y16972D01*
X39461D01*
Y18555D01*
D02*
G37*
%LPD*%
G36*
X61177Y157337D02*
X61092Y157307D01*
X61017Y157257D01*
X60952Y157187D01*
X60897Y157097D01*
X60852Y156987D01*
X60817Y156857D01*
X60792Y156707D01*
X60777Y156537D01*
X60772Y156347D01*
X59772D01*
X59767Y156537D01*
X59752Y156707D01*
X59727Y156857D01*
X59692Y156987D01*
X59647Y157097D01*
X59592Y157187D01*
X59527Y157257D01*
X59452Y157307D01*
X59367Y157337D01*
X59272Y157347D01*
X61272D01*
X61177Y157337D01*
D02*
G37*
G36*
X211604Y154165D02*
X211607Y154135D01*
X211613Y153685D01*
X211614Y153175D01*
X210614D01*
X210609Y153365D01*
X210594Y153535D01*
X210569Y153685D01*
X210534Y153815D01*
X210489Y153925D01*
X210434Y154015D01*
X210369Y154085D01*
X210294Y154135D01*
X210209Y154165D01*
X210114Y154175D01*
X211602D01*
X211604Y154165D01*
D02*
G37*
G36*
X206614D02*
X206529Y154135D01*
X206454Y154085D01*
X206389Y154015D01*
X206334Y153925D01*
X206289Y153815D01*
X206254Y153685D01*
X206229Y153535D01*
X206214Y153365D01*
X206209Y153175D01*
X205209D01*
X205204Y153365D01*
X205189Y153535D01*
X205164Y153685D01*
X205129Y153815D01*
X205084Y153925D01*
X205029Y154015D01*
X204964Y154085D01*
X204889Y154135D01*
X204804Y154165D01*
X204709Y154175D01*
X206709D01*
X206614Y154165D01*
D02*
G37*
G36*
X197952D02*
X197867Y154135D01*
X197792Y154085D01*
X197727Y154015D01*
X197672Y153925D01*
X197627Y153815D01*
X197592Y153685D01*
X197567Y153535D01*
X197552Y153365D01*
X197547Y153175D01*
X196547D01*
X196542Y153365D01*
X196527Y153535D01*
X196502Y153685D01*
X196467Y153815D01*
X196422Y153925D01*
X196367Y154015D01*
X196302Y154085D01*
X196227Y154135D01*
X196142Y154165D01*
X196047Y154175D01*
X198047D01*
X197952Y154165D01*
D02*
G37*
G36*
X189291D02*
X189206Y154135D01*
X189131Y154085D01*
X189066Y154015D01*
X189011Y153925D01*
X188966Y153815D01*
X188931Y153685D01*
X188906Y153535D01*
X188891Y153365D01*
X188886Y153175D01*
X187886D01*
X187881Y153365D01*
X187866Y153535D01*
X187841Y153685D01*
X187806Y153815D01*
X187761Y153925D01*
X187706Y154015D01*
X187641Y154085D01*
X187566Y154135D01*
X187481Y154165D01*
X187386Y154175D01*
X189386D01*
X189291Y154165D01*
D02*
G37*
G36*
X184960D02*
X184875Y154135D01*
X184800Y154085D01*
X184735Y154015D01*
X184680Y153925D01*
X184635Y153815D01*
X184600Y153685D01*
X184575Y153535D01*
X184560Y153365D01*
X184555Y153175D01*
X183555D01*
X183550Y153365D01*
X183535Y153535D01*
X183510Y153685D01*
X183475Y153815D01*
X183430Y153925D01*
X183375Y154015D01*
X183310Y154085D01*
X183235Y154135D01*
X183150Y154165D01*
X183055Y154175D01*
X185055D01*
X184960Y154165D01*
D02*
G37*
G36*
X180629D02*
X180544Y154135D01*
X180469Y154085D01*
X180404Y154015D01*
X180349Y153925D01*
X180304Y153815D01*
X180269Y153685D01*
X180244Y153535D01*
X180229Y153365D01*
X180224Y153175D01*
X179224D01*
X179219Y153365D01*
X179204Y153535D01*
X179179Y153685D01*
X179144Y153815D01*
X179099Y153925D01*
X179044Y154015D01*
X178979Y154085D01*
X178904Y154135D01*
X178819Y154165D01*
X178724Y154175D01*
X180724D01*
X180629Y154165D01*
D02*
G37*
G36*
X60777Y153798D02*
X60792Y153628D01*
X60817Y153478D01*
X60852Y153348D01*
X60897Y153238D01*
X60952Y153148D01*
X61017Y153078D01*
X61092Y153028D01*
X61177Y152998D01*
X61272Y152988D01*
X59272D01*
X59367Y152998D01*
X59452Y153028D01*
X59527Y153078D01*
X59592Y153148D01*
X59647Y153238D01*
X59692Y153348D01*
X59727Y153478D01*
X59752Y153628D01*
X59767Y153798D01*
X59772Y153988D01*
X60772D01*
X60777Y153798D01*
D02*
G37*
G36*
X194172Y154155D02*
X194077Y154095D01*
X193992Y153995D01*
X193919Y153855D01*
X193857Y153675D01*
X193807Y153455D01*
X193767Y153195D01*
X193739Y152895D01*
X193717Y152175D01*
X191717D01*
X191711Y152555D01*
X191666Y153195D01*
X191627Y153455D01*
X191576Y153675D01*
X191514Y153855D01*
X191441Y153995D01*
X191356Y154095D01*
X191261Y154155D01*
X191154Y154175D01*
X194279D01*
X194172Y154155D01*
D02*
G37*
G36*
X67336Y147024D02*
X67259Y147079D01*
X67168Y147107D01*
X67062Y147105D01*
X66943Y147076D01*
X66808Y147018D01*
X66660Y146932D01*
X66497Y146818D01*
X66319Y146675D01*
X65921Y146305D01*
X65214Y147012D01*
X65413Y147218D01*
X65727Y147587D01*
X65841Y147750D01*
X65927Y147899D01*
X65985Y148033D01*
X66015Y148153D01*
X66016Y148258D01*
X65989Y148349D01*
X65934Y148426D01*
X67336Y147024D01*
D02*
G37*
G36*
X188886Y145167D02*
X188888Y145059D01*
X188904Y144866D01*
X188918Y144780D01*
X188936Y144701D01*
X188958Y144629D01*
X188984Y144565D01*
X189014Y144508D01*
X189048Y144458D01*
X189086Y144415D01*
X188386Y143701D01*
X189086Y142987D01*
X189048Y142944D01*
X189014Y142894D01*
X188984Y142837D01*
X188958Y142772D01*
X188936Y142701D01*
X188918Y142622D01*
X188904Y142536D01*
X188888Y142342D01*
X188886Y142235D01*
X187886Y142235D01*
X187878Y142443D01*
X187868Y142536D01*
X187854Y142622D01*
X187836Y142701D01*
X187814Y142772D01*
X187788Y142837D01*
X187758Y142894D01*
X187724Y142944D01*
X187686Y142987D01*
X188386Y143701D01*
X187686Y144415D01*
X187724Y144458D01*
X187758Y144508D01*
X187788Y144565D01*
X187814Y144629D01*
X187836Y144701D01*
X187854Y144780D01*
X187868Y144866D01*
X187878Y144959D01*
X187886Y145167D01*
X188886Y145167D01*
D02*
G37*
G36*
X43415Y140508D02*
X43260Y140621D01*
X43076Y140678D01*
X42864D01*
X42623Y140621D01*
X42355Y140508D01*
X42058Y140338D01*
X41732Y140112D01*
X41379Y139829D01*
X40587Y139094D01*
X39173Y140508D01*
X39569Y140918D01*
X40191Y141654D01*
X40417Y141979D01*
X40587Y142276D01*
X40700Y142544D01*
X40756Y142785D01*
Y142997D01*
X40700Y143181D01*
X40587Y143336D01*
X43415Y140508D01*
D02*
G37*
G36*
X105689Y140498D02*
X105604Y140468D01*
X105528Y140418D01*
X105464Y140348D01*
X105409Y140258D01*
X105364Y140148D01*
X105329Y140018D01*
X105304Y139868D01*
X105289Y139698D01*
X105283Y139508D01*
X104283D01*
X104279Y139698D01*
X104263Y139868D01*
X104238Y140018D01*
X104203Y140148D01*
X104158Y140258D01*
X104104Y140348D01*
X104039Y140418D01*
X103963Y140468D01*
X103878Y140498D01*
X103784Y140508D01*
X105783D01*
X105689Y140498D01*
D02*
G37*
G36*
X96863Y141122D02*
X96239Y140418D01*
X95986Y140089D01*
X95771Y139775D01*
X95596Y139476D01*
X95459Y139192D01*
X95362Y138924D01*
X95303Y138670D01*
X95284Y138432D01*
X94283D01*
X94264Y138670D01*
X94205Y138924D01*
X94108Y139192D01*
X93972Y139476D01*
X93796Y139775D01*
X93581Y140089D01*
X93328Y140418D01*
X92704Y141122D01*
X92334Y141497D01*
X97233D01*
X96863Y141122D01*
D02*
G37*
G36*
X86863D02*
X86239Y140418D01*
X85985Y140089D01*
X85771Y139775D01*
X85596Y139476D01*
X85459Y139192D01*
X85361Y138924D01*
X85303Y138670D01*
X85283Y138432D01*
X84284D01*
X84264Y138670D01*
X84206Y138924D01*
X84108Y139192D01*
X83972Y139476D01*
X83796Y139775D01*
X83582Y140089D01*
X83328Y140418D01*
X82704Y141122D01*
X82333Y141497D01*
X87234D01*
X86863Y141122D01*
D02*
G37*
G36*
X206211Y139204D02*
X206229Y139011D01*
X206245Y138927D01*
X206265Y138849D01*
X206290Y138779D01*
X206319Y138717D01*
X206352Y138662D01*
X206391Y138615D01*
X206433Y138575D01*
X205669Y137795D01*
X206433Y137016D01*
X206391Y136976D01*
X206352Y136928D01*
X206319Y136874D01*
X206290Y136811D01*
X206265Y136741D01*
X206245Y136664D01*
X206229Y136579D01*
X206211Y136387D01*
X206209Y136279D01*
X205209Y136394D01*
X205207Y136502D01*
X205193Y136697D01*
X205182Y136784D01*
X205167Y136863D01*
X205148Y136935D01*
X205126Y137001D01*
X205101Y137059D01*
X205072Y137110D01*
X205040Y137153D01*
X205669Y137795D01*
X205040Y138437D01*
X205072Y138481D01*
X205101Y138532D01*
X205126Y138590D01*
X205148Y138655D01*
X205167Y138728D01*
X205182Y138807D01*
X205193Y138894D01*
X205207Y139088D01*
X205209Y139197D01*
X206209Y139311D01*
X206211Y139204D01*
D02*
G37*
G36*
X197547Y134537D02*
X197549Y134429D01*
X197565Y134236D01*
X197579Y134150D01*
X197597Y134071D01*
X197619Y133999D01*
X197645Y133935D01*
X197675Y133878D01*
X197709Y133828D01*
X197747Y133785D01*
X197047Y133071D01*
X197747Y132357D01*
X197709Y132314D01*
X197675Y132264D01*
X197645Y132207D01*
X197619Y132142D01*
X197597Y132071D01*
X197579Y131992D01*
X197565Y131906D01*
X197549Y131712D01*
X197547Y131605D01*
X196547Y131605D01*
X196539Y131813D01*
X196529Y131906D01*
X196515Y131992D01*
X196497Y132071D01*
X196475Y132142D01*
X196449Y132207D01*
X196419Y132264D01*
X196385Y132314D01*
X196347Y132357D01*
X197047Y133071D01*
X196347Y133785D01*
X196385Y133828D01*
X196419Y133878D01*
X196449Y133935D01*
X196475Y133999D01*
X196497Y134071D01*
X196515Y134150D01*
X196529Y134236D01*
X196539Y134329D01*
X196547Y134537D01*
X197547Y134537D01*
D02*
G37*
G36*
X181016Y118498D02*
X180941Y118421D01*
X180816Y118272D01*
X180765Y118202D01*
X180722Y118133D01*
X180687Y118067D01*
X180660Y118003D01*
X180641Y117941D01*
X180629Y117882D01*
X180626Y117825D01*
X179636Y118815D01*
X179693Y118818D01*
X179753Y118830D01*
X179814Y118849D01*
X179878Y118876D01*
X179944Y118911D01*
X180013Y118954D01*
X180083Y119005D01*
X180156Y119064D01*
X180309Y119205D01*
X181016Y118498D01*
D02*
G37*
G36*
X36110Y118807D02*
X36140Y118465D01*
X36190Y118163D01*
X36260Y117902D01*
X36350Y117681D01*
X36460Y117499D01*
X36590Y117359D01*
X36740Y117258D01*
X36910Y117198D01*
X37100Y117178D01*
X33100D01*
X33290Y117198D01*
X33460Y117258D01*
X33610Y117359D01*
X33740Y117499D01*
X33850Y117681D01*
X33940Y117902D01*
X34010Y118163D01*
X34060Y118465D01*
X34090Y118807D01*
X34100Y119190D01*
X36100D01*
X36110Y118807D01*
D02*
G37*
G36*
X28110D02*
X28140Y118465D01*
X28190Y118163D01*
X28260Y117902D01*
X28350Y117681D01*
X28460Y117499D01*
X28590Y117359D01*
X28740Y117258D01*
X28910Y117198D01*
X29100Y117178D01*
X25100D01*
X25290Y117198D01*
X25460Y117258D01*
X25610Y117359D01*
X25740Y117499D01*
X25850Y117681D01*
X25940Y117902D01*
X26010Y118163D01*
X26060Y118465D01*
X26090Y118807D01*
X26100Y119190D01*
X28100D01*
X28110Y118807D01*
D02*
G37*
G36*
X179616Y116815D02*
X179559Y116812D01*
X179499Y116800D01*
X179438Y116781D01*
X179374Y116754D01*
X179308Y116719D01*
X179239Y116676D01*
X179169Y116625D01*
X179096Y116566D01*
X178943Y116425D01*
X178236Y117132D01*
X178310Y117209D01*
X178436Y117358D01*
X178487Y117428D01*
X178530Y117497D01*
X178565Y117563D01*
X178592Y117627D01*
X178611Y117688D01*
X178623Y117748D01*
X178626Y117805D01*
X179616Y116815D01*
D02*
G37*
G36*
X64443Y113867D02*
X64401Y113905D01*
X64350Y113939D01*
X64293Y113969D01*
X64229Y113995D01*
X64157Y114017D01*
X64079Y114035D01*
X63993Y114049D01*
X63899Y114059D01*
X63691Y114067D01*
Y115067D01*
X63799Y115069D01*
X63993Y115085D01*
X64079Y115099D01*
X64157Y115117D01*
X64229Y115139D01*
X64293Y115165D01*
X64350Y115195D01*
X64401Y115229D01*
X64443Y115267D01*
Y113867D01*
D02*
G37*
G36*
X61663Y115472D02*
X61694Y115387D01*
X61744Y115312D01*
X61815Y115247D01*
X61906Y115192D01*
X62018Y115147D01*
X62149Y115112D01*
X62301Y115087D01*
X62473Y115072D01*
X62665Y115067D01*
Y114067D01*
X62473Y114062D01*
X62301Y114047D01*
X62149Y114022D01*
X62018Y113987D01*
X61906Y113942D01*
X61815Y113887D01*
X61744Y113822D01*
X61694Y113747D01*
X61663Y113662D01*
X61653Y113567D01*
Y115567D01*
X61663Y115472D01*
D02*
G37*
G36*
X49741Y111591D02*
X49693Y111675D01*
X49624Y111724D01*
X49534Y111739D01*
X49424Y111719D01*
X49293Y111664D01*
X49141Y111575D01*
X48969Y111451D01*
X48776Y111293D01*
X48327Y110872D01*
X48258Y112217D01*
X48428Y112394D01*
X48704Y112726D01*
X48809Y112879D01*
X48892Y113025D01*
X48953Y113162D01*
X48992Y113291D01*
X49009Y113413D01*
X49004Y113526D01*
X48977Y113631D01*
X49741Y111591D01*
D02*
G37*
G36*
X103513Y111194D02*
X103563Y111160D01*
X103620Y111129D01*
X103684Y111103D01*
X103756Y111082D01*
X103835Y111064D01*
X103921Y111049D01*
X104014Y111039D01*
X104222Y111031D01*
Y110031D01*
X104114Y110029D01*
X103921Y110013D01*
X103835Y110000D01*
X103756Y109982D01*
X103684Y109959D01*
X103620Y109933D01*
X103563Y109904D01*
X103513Y109870D01*
X103470Y109832D01*
Y111232D01*
X103513Y111194D01*
D02*
G37*
G36*
X111083Y109531D02*
X111073Y109626D01*
X111043Y109712D01*
X110992Y109786D01*
X110921Y109852D01*
X110830Y109906D01*
X110719Y109951D01*
X110587Y109986D01*
X110435Y110011D01*
X110263Y110027D01*
X110071Y110031D01*
Y111031D01*
X110263Y111037D01*
X110435Y111051D01*
X110587Y111076D01*
X110719Y111111D01*
X110830Y111156D01*
X110921Y111212D01*
X110992Y111276D01*
X111043Y111352D01*
X111073Y111436D01*
X111083Y111531D01*
Y109531D01*
D02*
G37*
G36*
X36910Y111194D02*
X36740Y111134D01*
X36590Y111034D01*
X36460Y110894D01*
X36350Y110714D01*
X36260Y110494D01*
X36190Y110234D01*
X36140Y109934D01*
X36110Y109594D01*
X36100Y109214D01*
X34100D01*
X34090Y109594D01*
X34060Y109934D01*
X34010Y110234D01*
X33940Y110494D01*
X33850Y110714D01*
X33740Y110894D01*
X33610Y111034D01*
X33460Y111134D01*
X33290Y111194D01*
X33100Y111214D01*
X37100D01*
X36910Y111194D01*
D02*
G37*
G36*
X123780Y112627D02*
X123840Y112457D01*
X123941Y112307D01*
X124081Y112177D01*
X124262Y112067D01*
X124484Y111977D01*
X124745Y111907D01*
X125047Y111857D01*
X125389Y111827D01*
X125771Y111817D01*
Y109817D01*
X125389Y109807D01*
X125047Y109777D01*
X124745Y109727D01*
X124484Y109657D01*
X124262Y109567D01*
X124081Y109457D01*
X123941Y109327D01*
X123840Y109177D01*
X123780Y109007D01*
X123759Y108817D01*
Y112817D01*
X123780Y112627D01*
D02*
G37*
G36*
X115715Y109175D02*
X115687Y109083D01*
Y108977D01*
X115715Y108857D01*
X115771Y108723D01*
X115856Y108574D01*
X115970Y108412D01*
X116111Y108235D01*
X116479Y107839D01*
X115771Y107132D01*
X115566Y107330D01*
X115199Y107641D01*
X115036Y107754D01*
X114888Y107839D01*
X114753Y107895D01*
X114633Y107924D01*
X114527D01*
X114435Y107895D01*
X114357Y107839D01*
X115771Y109253D01*
X115715Y109175D01*
D02*
G37*
G36*
X160333Y80846D02*
X160362Y80685D01*
X160430Y80298D01*
X160432Y80295D01*
X160433Y80291D01*
X160585Y80055D01*
X160433Y79819D01*
X160432Y79815D01*
X160430Y79812D01*
X160362Y79424D01*
X160333Y79264D01*
X157942Y76873D01*
X157389Y76046D01*
X157195Y75071D01*
Y57376D01*
X157096Y57227D01*
X156881Y56924D01*
X156875Y56897D01*
X156860Y56875D01*
X156788Y56510D01*
X156706Y56148D01*
X156697Y55828D01*
X156696Y55812D01*
X156545Y55687D01*
X156302Y55524D01*
X156242Y55434D01*
X156158Y55364D01*
X156023Y55106D01*
X155791D01*
Y54665D01*
X155788Y54660D01*
X155770Y54459D01*
X155538Y54338D01*
X155468Y54255D01*
X155378Y54195D01*
X155215Y53952D01*
X155084Y53796D01*
X155069Y53795D01*
X154750Y53786D01*
X154426Y53713D01*
X154055Y53787D01*
X154051Y53786D01*
X154047Y53787D01*
X152127Y53780D01*
X152096Y53773D01*
X152066Y53778D01*
X152006Y53776D01*
X151926Y53758D01*
X151844Y53764D01*
X151824Y53762D01*
X151557Y53677D01*
X151282Y53623D01*
X151244Y53598D01*
X151231Y53595D01*
X151175Y53554D01*
X151066Y53519D01*
X150852Y53338D01*
X150755Y53274D01*
X149895Y53103D01*
X149363Y52748D01*
X147130D01*
Y47205D01*
Y45748D01*
Y43476D01*
X153067D01*
X153067Y43476D01*
Y43476D01*
X155791D01*
Y43047D01*
X163697D01*
Y44958D01*
X163752Y44980D01*
X168333D01*
X168687Y44627D01*
X168687Y44098D01*
X168687Y43598D01*
Y39354D01*
X168687Y39098D01*
X168687Y38598D01*
Y34354D01*
X168687Y34098D01*
X168687Y33598D01*
Y29198D01*
X168430Y29063D01*
X168360Y28979D01*
X168295Y28936D01*
X168283Y28933D01*
X167919Y28860D01*
X167896Y28845D01*
X167870Y28839D01*
X167566Y28625D01*
X167403Y28516D01*
X157564D01*
X157400Y28625D01*
X157097Y28839D01*
X157070Y28845D01*
X157048Y28860D01*
X156683Y28933D01*
X156672Y28935D01*
X156607Y28979D01*
X156537Y29063D01*
X156280Y29198D01*
Y30476D01*
X145071D01*
X145063Y30487D01*
X144960Y30696D01*
X144833Y30806D01*
X144735Y30943D01*
X144537Y31066D01*
X144361Y31220D01*
X144202Y31273D01*
X144059Y31362D01*
X143828Y31400D01*
X143607Y31475D01*
X143521Y31469D01*
X143349Y31635D01*
X143071Y31815D01*
X142806Y32013D01*
X142739Y32030D01*
X142681Y32067D01*
X142355Y32127D01*
X142081Y32196D01*
X139823Y34455D01*
Y85827D01*
X139823Y85827D01*
X139667Y86607D01*
X139225Y87269D01*
X139225Y87269D01*
X120129Y106365D01*
X120321Y106827D01*
X123424D01*
X123545Y106789D01*
X123653Y106799D01*
X123759Y106778D01*
X124006Y106827D01*
X124784D01*
Y107096D01*
X125041Y107231D01*
X125111Y107315D01*
X125201Y107375D01*
X125364Y107618D01*
X125489Y107769D01*
X125505Y107770D01*
X125825Y107778D01*
X126187Y107860D01*
X126552Y107933D01*
X126574Y107948D01*
X126601Y107954D01*
X126904Y108168D01*
X127053Y108268D01*
X132911D01*
X160333Y80846D01*
D02*
G37*
G36*
X48115Y99544D02*
X48263Y99418D01*
X48334Y99367D01*
X48402Y99325D01*
X48468Y99289D01*
X48532Y99262D01*
X48594Y99243D01*
X48653Y99232D01*
X48711Y99228D01*
X47721Y98238D01*
X47717Y98295D01*
X47706Y98355D01*
X47687Y98417D01*
X47659Y98480D01*
X47624Y98547D01*
X47581Y98615D01*
X47530Y98686D01*
X47472Y98759D01*
X47330Y98911D01*
X48037Y99619D01*
X48115Y99544D01*
D02*
G37*
G36*
X114540Y96093D02*
X114506Y96043D01*
X114476Y95986D01*
X114450Y95922D01*
X114428Y95850D01*
X114410Y95771D01*
X114396Y95685D01*
X114386Y95592D01*
X114378Y95384D01*
X113378D01*
X113376Y95492D01*
X113360Y95685D01*
X113346Y95771D01*
X113328Y95850D01*
X113306Y95922D01*
X113280Y95986D01*
X113250Y96043D01*
X113216Y96093D01*
X113178Y96136D01*
X114578D01*
X114540Y96093D01*
D02*
G37*
G36*
X50209Y94778D02*
X50134Y94700D01*
X50009Y94552D01*
X49958Y94481D01*
X49915Y94413D01*
X49880Y94347D01*
X49853Y94283D01*
X49834Y94221D01*
X49822Y94162D01*
X49819Y94104D01*
X48829Y95094D01*
X48886Y95098D01*
X48945Y95109D01*
X49007Y95128D01*
X49071Y95156D01*
X49137Y95191D01*
X49206Y95234D01*
X49276Y95284D01*
X49349Y95343D01*
X49502Y95485D01*
X50209Y94778D01*
D02*
G37*
G36*
X21134Y94420D02*
X21100Y94370D01*
X21070Y94313D01*
X21044Y94249D01*
X21022Y94177D01*
X21004Y94098D01*
X20990Y94012D01*
X20980Y93919D01*
X20972Y93711D01*
X19972D01*
X19970Y93819D01*
X19954Y94012D01*
X19940Y94098D01*
X19922Y94177D01*
X19900Y94249D01*
X19874Y94313D01*
X19844Y94370D01*
X19810Y94420D01*
X19772Y94463D01*
X21172D01*
X21134Y94420D01*
D02*
G37*
G36*
X114383Y93904D02*
X114398Y93732D01*
X114423Y93580D01*
X114458Y93449D01*
X114503Y93337D01*
X114558Y93246D01*
X114623Y93175D01*
X114698Y93125D01*
X114783Y93094D01*
X114878Y93084D01*
X112878D01*
X112973Y93094D01*
X113058Y93125D01*
X113133Y93175D01*
X113198Y93246D01*
X113253Y93337D01*
X113298Y93449D01*
X113333Y93580D01*
X113358Y93732D01*
X113373Y93904D01*
X113378Y94096D01*
X114378D01*
X114383Y93904D01*
D02*
G37*
G36*
X209213Y127067D02*
X209497Y126685D01*
X209672Y126423D01*
X219261Y116834D01*
Y114179D01*
X218177D01*
Y110817D01*
Y107455D01*
X219261D01*
Y93420D01*
X218958Y93117D01*
X218775Y93081D01*
X218418Y93023D01*
X218386Y93004D01*
X218349Y92996D01*
X218049Y92795D01*
X217741Y92606D01*
X217522Y92402D01*
X217390Y92406D01*
X217168Y92324D01*
X216935Y92277D01*
X216799Y92186D01*
X216645Y92129D01*
X216471Y91967D01*
X216274Y91835D01*
X216182Y91699D01*
X216062Y91587D01*
X215985Y91417D01*
X208430D01*
X208295Y91674D01*
X208211Y91744D01*
X208168Y91810D01*
X208165Y91821D01*
X208093Y92186D01*
X208078Y92208D01*
X208072Y92234D01*
X207857Y92538D01*
X207748Y92702D01*
Y103124D01*
X210091D01*
Y106388D01*
Y109652D01*
X207748D01*
Y126713D01*
X208101Y127067D01*
X209213Y127067D01*
D02*
G37*
G36*
X53654Y92415D02*
X53579Y92338D01*
X53454Y92190D01*
X53403Y92119D01*
X53360Y92051D01*
X53325Y91984D01*
X53298Y91921D01*
X53278Y91859D01*
X53267Y91799D01*
X53264Y91742D01*
X52274Y92732D01*
X52331Y92736D01*
X52390Y92747D01*
X52452Y92766D01*
X52516Y92793D01*
X52582Y92828D01*
X52650Y92871D01*
X52721Y92922D01*
X52794Y92981D01*
X52947Y93123D01*
X53654Y92415D01*
D02*
G37*
G36*
X186347Y121174D02*
Y92702D01*
X186237Y92538D01*
X186023Y92234D01*
X186017Y92208D01*
X186002Y92186D01*
X185929Y91821D01*
X185927Y91810D01*
X185883Y91744D01*
X185799Y91674D01*
X185664Y91417D01*
X177328D01*
X177200Y91665D01*
X177117Y91736D01*
X177064Y91816D01*
X177063Y91821D01*
X176990Y92186D01*
X176975Y92208D01*
X176969Y92234D01*
X176755Y92538D01*
X176646Y92702D01*
Y103124D01*
X179461D01*
Y106388D01*
Y109652D01*
X176646D01*
Y111951D01*
X179115Y114420D01*
X179295Y114456D01*
X179650Y114512D01*
X179684Y114533D01*
X179723Y114541D01*
X180022Y114741D01*
X180302Y114912D01*
X180396Y114931D01*
X180447Y114965D01*
X180507Y114981D01*
X180668Y115103D01*
X180678Y115107D01*
X180693Y115122D01*
X180777Y115185D01*
X181058Y115373D01*
X181092Y115424D01*
X181141Y115461D01*
X181312Y115753D01*
X181462Y115979D01*
X181688Y116129D01*
X181980Y116300D01*
X182017Y116349D01*
X182068Y116383D01*
X182256Y116664D01*
X182319Y116748D01*
X182334Y116763D01*
X182338Y116773D01*
X182460Y116934D01*
X182476Y116993D01*
X182510Y117045D01*
X182532Y117157D01*
X182690Y117403D01*
X182900Y117718D01*
X182904Y117737D01*
X182914Y117753D01*
X182981Y118126D01*
X183021Y118326D01*
X185497Y120802D01*
X185847Y121325D01*
X186347Y121174D01*
D02*
G37*
G36*
X206214Y91213D02*
X206229Y91041D01*
X206254Y90889D01*
X206289Y90758D01*
X206334Y90646D01*
X206389Y90555D01*
X206454Y90484D01*
X206529Y90434D01*
X206614Y90403D01*
X206709Y90393D01*
X204709D01*
X204804Y90403D01*
X204889Y90434D01*
X204964Y90484D01*
X205029Y90555D01*
X205084Y90646D01*
X205129Y90758D01*
X205164Y90889D01*
X205189Y91041D01*
X205204Y91213D01*
X205209Y91405D01*
X206209D01*
X206214Y91213D01*
D02*
G37*
G36*
X197552D02*
X197567Y91041D01*
X197592Y90889D01*
X197627Y90758D01*
X197672Y90646D01*
X197727Y90555D01*
X197792Y90484D01*
X197867Y90434D01*
X197952Y90403D01*
X198047Y90393D01*
X196047D01*
X196142Y90403D01*
X196227Y90434D01*
X196302Y90484D01*
X196367Y90555D01*
X196422Y90646D01*
X196467Y90758D01*
X196502Y90889D01*
X196527Y91041D01*
X196542Y91213D01*
X196547Y91405D01*
X197547D01*
X197552Y91213D01*
D02*
G37*
G36*
X188891D02*
X188906Y91041D01*
X188931Y90889D01*
X188966Y90758D01*
X189011Y90646D01*
X189066Y90555D01*
X189131Y90484D01*
X189206Y90434D01*
X189291Y90403D01*
X189386Y90393D01*
X187386D01*
X187481Y90403D01*
X187566Y90434D01*
X187641Y90484D01*
X187706Y90555D01*
X187761Y90646D01*
X187806Y90758D01*
X187841Y90889D01*
X187866Y91041D01*
X187881Y91213D01*
X187886Y91405D01*
X188886D01*
X188891Y91213D01*
D02*
G37*
G36*
X175111Y91214D02*
X175126Y91042D01*
X175151Y90891D01*
X175186Y90759D01*
X175231Y90648D01*
X175286Y90557D01*
X175351Y90486D01*
X175426Y90435D01*
X175511Y90404D01*
X175606Y90393D01*
X173626Y90405D01*
X173717Y90415D01*
X173799Y90445D01*
X173871Y90495D01*
X173933Y90565D01*
X173986Y90655D01*
X174030Y90765D01*
X174063Y90895D01*
X174087Y91045D01*
X174101Y91215D01*
X174106Y91405D01*
X175106D01*
X175111Y91214D01*
D02*
G37*
G36*
X168615Y91213D02*
X168630Y91041D01*
X168655Y90889D01*
X168690Y90758D01*
X168735Y90646D01*
X168790Y90555D01*
X168855Y90484D01*
X168930Y90434D01*
X169015Y90403D01*
X169110Y90393D01*
X167110D01*
X167205Y90403D01*
X167290Y90434D01*
X167365Y90484D01*
X167430Y90555D01*
X167485Y90646D01*
X167530Y90758D01*
X167565Y90889D01*
X167590Y91041D01*
X167605Y91213D01*
X167610Y91405D01*
X168610D01*
X168615Y91213D01*
D02*
G37*
G36*
X219837Y90405D02*
X219638Y90199D01*
X219324Y89830D01*
X219210Y89667D01*
X219124Y89518D01*
X219066Y89384D01*
X219037Y89264D01*
X219035Y89159D01*
X219062Y89068D01*
X219118Y88991D01*
X217716Y90393D01*
X217792Y90338D01*
X217883Y90311D01*
X217989Y90312D01*
X218109Y90342D01*
X218243Y90399D01*
X218391Y90485D01*
X218554Y90600D01*
X218732Y90742D01*
X219130Y91112D01*
X219837Y90405D01*
D02*
G37*
G36*
X25071Y90680D02*
X25038Y90630D01*
X25008Y90573D01*
X24982Y90509D01*
X24960Y90437D01*
X24941Y90358D01*
X24927Y90272D01*
X24917Y90179D01*
X24909Y89971D01*
X23910D01*
X23908Y90079D01*
X23891Y90272D01*
X23877Y90358D01*
X23859Y90437D01*
X23837Y90509D01*
X23811Y90573D01*
X23781Y90630D01*
X23747Y90680D01*
X23709Y90723D01*
X25109D01*
X25071Y90680D01*
D02*
G37*
G36*
X112485Y87120D02*
X112408Y87177D01*
X112316Y87205D01*
X112209D01*
X112089Y87177D01*
X111955Y87120D01*
X111806Y87035D01*
X111644Y86922D01*
X111467Y86781D01*
X111071Y86413D01*
X110364Y87120D01*
X110562Y87325D01*
X110873Y87693D01*
X110986Y87856D01*
X111071Y88004D01*
X111128Y88139D01*
X111156Y88259D01*
Y88365D01*
X111128Y88457D01*
X111071Y88534D01*
X112485Y87120D01*
D02*
G37*
G36*
X49084Y88414D02*
X49134Y88380D01*
X49191Y88350D01*
X49255Y88324D01*
X49327Y88302D01*
X49406Y88284D01*
X49492Y88270D01*
X49585Y88260D01*
X49793Y88252D01*
Y87252D01*
X49685Y87250D01*
X49492Y87234D01*
X49406Y87220D01*
X49327Y87202D01*
X49255Y87180D01*
X49191Y87154D01*
X49134Y87124D01*
X49084Y87090D01*
X49041Y87052D01*
Y88452D01*
X49084Y88414D01*
D02*
G37*
G36*
X28615Y86762D02*
X28581Y86712D01*
X28551Y86655D01*
X28525Y86590D01*
X28503Y86519D01*
X28485Y86440D01*
X28471Y86354D01*
X28461Y86261D01*
X28453Y86053D01*
X27453D01*
X27451Y86160D01*
X27435Y86354D01*
X27421Y86440D01*
X27403Y86519D01*
X27381Y86590D01*
X27355Y86655D01*
X27325Y86712D01*
X27291Y86762D01*
X27253Y86805D01*
X28653D01*
X28615Y86762D01*
D02*
G37*
G36*
X123231Y87100D02*
X123061Y87040D01*
X122911Y86940D01*
X122781Y86800D01*
X122671Y86620D01*
X122581Y86400D01*
X122511Y86140D01*
X122461Y85840D01*
X122431Y85500D01*
X122421Y85120D01*
X120421D01*
X120411Y85500D01*
X120381Y85840D01*
X120331Y86140D01*
X120261Y86400D01*
X120171Y86620D01*
X120061Y86800D01*
X119931Y86940D01*
X119781Y87040D01*
X119611Y87100D01*
X119421Y87120D01*
X123421D01*
X123231Y87100D01*
D02*
G37*
G36*
X51648Y82666D02*
X51605Y82704D01*
X51555Y82738D01*
X51498Y82768D01*
X51434Y82794D01*
X51362Y82816D01*
X51283Y82834D01*
X51197Y82848D01*
X51104Y82858D01*
X50896Y82866D01*
Y83866D01*
X51004Y83868D01*
X51197Y83884D01*
X51283Y83898D01*
X51362Y83916D01*
X51434Y83938D01*
X51498Y83964D01*
X51555Y83994D01*
X51605Y84028D01*
X51648Y84066D01*
Y82666D01*
D02*
G37*
G36*
X122431Y84256D02*
X122461Y83914D01*
X122511Y83613D01*
X122581Y83351D01*
X122671Y83130D01*
X122781Y82948D01*
X122911Y82808D01*
X123061Y82707D01*
X123231Y82647D01*
X123421Y82627D01*
X119421D01*
X119611Y82647D01*
X119781Y82707D01*
X119931Y82808D01*
X120061Y82948D01*
X120171Y83130D01*
X120261Y83351D01*
X120331Y83613D01*
X120381Y83914D01*
X120411Y84256D01*
X120421Y84639D01*
X122421D01*
X122431Y84256D01*
D02*
G37*
G36*
X203272Y78055D02*
X203252Y78245D01*
X203192Y78415D01*
X203092Y78565D01*
X202952Y78695D01*
X202772Y78805D01*
X202552Y78895D01*
X202292Y78965D01*
X201992Y79015D01*
X201652Y79045D01*
X201319Y79054D01*
X200984Y79045D01*
X200642Y79015D01*
X200340Y78965D01*
X200078Y78895D01*
X199857Y78805D01*
X199676Y78695D01*
X199535Y78565D01*
X199434Y78415D01*
X199374Y78245D01*
X199354Y78055D01*
Y82055D01*
X199374Y81865D01*
X199434Y81695D01*
X199535Y81545D01*
X199676Y81415D01*
X199857Y81305D01*
X200078Y81215D01*
X200340Y81145D01*
X200642Y81095D01*
X200984Y81065D01*
X201319Y81056D01*
X201652Y81065D01*
X201992Y81095D01*
X202292Y81145D01*
X202552Y81215D01*
X202772Y81305D01*
X202952Y81415D01*
X203092Y81545D01*
X203192Y81695D01*
X203252Y81865D01*
X203272Y82055D01*
Y78055D01*
D02*
G37*
G36*
X183508D02*
X183488Y78245D01*
X183428Y78415D01*
X183328Y78565D01*
X183188Y78695D01*
X183008Y78805D01*
X182788Y78895D01*
X182528Y78965D01*
X182228Y79015D01*
X181888Y79045D01*
X181555Y79054D01*
X181220Y79045D01*
X180878Y79015D01*
X180576Y78965D01*
X180315Y78895D01*
X180093Y78805D01*
X179912Y78695D01*
X179771Y78565D01*
X179671Y78415D01*
X179610Y78245D01*
X179590Y78055D01*
Y82055D01*
X179610Y81865D01*
X179671Y81695D01*
X179771Y81545D01*
X179912Y81415D01*
X180093Y81305D01*
X180315Y81215D01*
X180576Y81145D01*
X180878Y81095D01*
X181220Y81065D01*
X181555Y81056D01*
X181888Y81065D01*
X182228Y81095D01*
X182528Y81145D01*
X182788Y81215D01*
X183008Y81305D01*
X183188Y81415D01*
X183328Y81545D01*
X183428Y81695D01*
X183488Y81865D01*
X183508Y82055D01*
Y78055D01*
D02*
G37*
G36*
X213154D02*
X213134Y78245D01*
X213074Y78415D01*
X212974Y78565D01*
X212834Y78695D01*
X212654Y78805D01*
X212434Y78895D01*
X212174Y78965D01*
X211874Y79015D01*
X211534Y79045D01*
X211201Y79054D01*
X210865Y79045D01*
X210524Y79015D01*
X210222Y78965D01*
X209960Y78895D01*
X209739Y78805D01*
X209558Y78695D01*
X209417Y78565D01*
X209316Y78415D01*
X209256Y78245D01*
X209236Y78055D01*
Y82055D01*
X209256Y81865D01*
X209316Y81695D01*
X209417Y81545D01*
X209558Y81415D01*
X209739Y81305D01*
X209960Y81215D01*
X210222Y81145D01*
X210524Y81095D01*
X210865Y81065D01*
X211201Y81056D01*
X211534Y81065D01*
X211874Y81095D01*
X212174Y81145D01*
X212434Y81215D01*
X212654Y81305D01*
X212834Y81415D01*
X212974Y81545D01*
X213074Y81695D01*
X213134Y81865D01*
X213154Y82055D01*
Y78055D01*
D02*
G37*
G36*
X193390D02*
X193370Y78245D01*
X193310Y78415D01*
X193210Y78565D01*
X193070Y78695D01*
X192890Y78805D01*
X192670Y78895D01*
X192410Y78965D01*
X192110Y79015D01*
X191770Y79045D01*
X191437Y79054D01*
X191102Y79045D01*
X190760Y79015D01*
X190458Y78965D01*
X190196Y78895D01*
X189975Y78805D01*
X189794Y78695D01*
X189653Y78565D01*
X189552Y78415D01*
X189492Y78245D01*
X189472Y78055D01*
Y82055D01*
X189492Y81865D01*
X189552Y81695D01*
X189653Y81545D01*
X189794Y81415D01*
X189975Y81305D01*
X190196Y81215D01*
X190458Y81145D01*
X190760Y81095D01*
X191102Y81065D01*
X191437Y81056D01*
X191770Y81065D01*
X192110Y81095D01*
X192410Y81145D01*
X192670Y81215D01*
X192890Y81305D01*
X193070Y81415D01*
X193210Y81545D01*
X193310Y81695D01*
X193370Y81865D01*
X193390Y82055D01*
Y78055D01*
D02*
G37*
G36*
X173626D02*
X173606Y78245D01*
X173546Y78415D01*
X173446Y78565D01*
X173306Y78695D01*
X173126Y78805D01*
X172906Y78895D01*
X172646Y78965D01*
X172346Y79015D01*
X172006Y79045D01*
X171673Y79054D01*
X171338Y79045D01*
X170996Y79015D01*
X170694Y78965D01*
X170433Y78895D01*
X170211Y78805D01*
X170030Y78695D01*
X169889Y78565D01*
X169789Y78415D01*
X169728Y78245D01*
X169708Y78055D01*
Y82055D01*
X169728Y81865D01*
X169789Y81695D01*
X169889Y81545D01*
X170030Y81415D01*
X170211Y81305D01*
X170433Y81215D01*
X170694Y81145D01*
X170996Y81095D01*
X171338Y81065D01*
X171673Y81056D01*
X172006Y81065D01*
X172346Y81095D01*
X172646Y81145D01*
X172906Y81215D01*
X173126Y81305D01*
X173306Y81415D01*
X173446Y81545D01*
X173546Y81695D01*
X173606Y81865D01*
X173626Y82055D01*
Y78055D01*
D02*
G37*
G36*
X51260Y80780D02*
X51310Y80746D01*
X51367Y80716D01*
X51431Y80690D01*
X51503Y80668D01*
X51582Y80650D01*
X51667Y80636D01*
X51761Y80626D01*
X51969Y80618D01*
Y79618D01*
X51861Y79616D01*
X51667Y79600D01*
X51582Y79586D01*
X51503Y79568D01*
X51431Y79546D01*
X51367Y79520D01*
X51310Y79490D01*
X51260Y79456D01*
X51217Y79418D01*
Y80818D01*
X51260Y80780D01*
D02*
G37*
G36*
X219138Y82026D02*
X219198Y81857D01*
X219299Y81707D01*
X219440Y81577D01*
X219621Y81467D01*
X219842Y81376D01*
X220104Y81306D01*
X220405Y81257D01*
X220747Y81226D01*
X221130Y81217D01*
Y79216D01*
X220747Y79207D01*
X220405Y79176D01*
X220104Y79127D01*
X219842Y79057D01*
X219621Y78966D01*
X219440Y78856D01*
X219299Y78727D01*
X219198Y78576D01*
X219138Y78407D01*
X219118Y78216D01*
Y82217D01*
X219138Y82026D01*
D02*
G37*
G36*
X162850Y83362D02*
X163667Y82658D01*
X164013Y82411D01*
X164317Y82235D01*
X164578Y82128D01*
X164798Y82092D01*
X164976Y82126D01*
X165112Y82231D01*
X165207Y82405D01*
X164387Y80055D01*
X165207Y77705D01*
X165112Y77880D01*
X164976Y77984D01*
X164798Y78018D01*
X164578Y77982D01*
X164317Y77876D01*
X164013Y77699D01*
X163667Y77452D01*
X163279Y77135D01*
X162378Y76291D01*
X162330Y79071D01*
X162665Y79420D01*
X163190Y80056D01*
X162956Y80357D01*
X162665Y80690D01*
X162330Y81039D01*
X162378Y83820D01*
X162850Y83362D01*
D02*
G37*
G36*
X112485Y76663D02*
X112408Y76719D01*
X112316Y76747D01*
X112209D01*
X112089Y76719D01*
X111955Y76663D01*
X111806Y76578D01*
X111644Y76465D01*
X111467Y76323D01*
X111071Y75955D01*
X110364Y76663D01*
X110562Y76868D01*
X110873Y77235D01*
X110986Y77398D01*
X111071Y77547D01*
X111128Y77681D01*
X111156Y77801D01*
Y77907D01*
X111128Y77999D01*
X111071Y78077D01*
X112485Y76663D01*
D02*
G37*
G36*
X114783Y76653D02*
X114698Y76623D01*
X114623Y76573D01*
X114558Y76503D01*
X114503Y76413D01*
X114458Y76303D01*
X114423Y76173D01*
X114398Y76023D01*
X114383Y75853D01*
X114378Y75663D01*
X113378D01*
X113373Y75853D01*
X113358Y76023D01*
X113333Y76173D01*
X113298Y76303D01*
X113253Y76413D01*
X113198Y76503D01*
X113133Y76573D01*
X113058Y76623D01*
X112973Y76653D01*
X112878Y76663D01*
X114878D01*
X114783Y76653D01*
D02*
G37*
G36*
X123231Y76643D02*
X123061Y76583D01*
X122911Y76483D01*
X122781Y76343D01*
X122671Y76163D01*
X122581Y75943D01*
X122511Y75683D01*
X122461Y75383D01*
X122431Y75043D01*
X122421Y74663D01*
X120421D01*
X120411Y75043D01*
X120381Y75383D01*
X120331Y75683D01*
X120261Y75943D01*
X120171Y76163D01*
X120061Y76343D01*
X119931Y76483D01*
X119781Y76583D01*
X119611Y76643D01*
X119421Y76663D01*
X123421D01*
X123231Y76643D01*
D02*
G37*
G36*
X53119Y75957D02*
X53169Y75923D01*
X53226Y75893D01*
X53291Y75867D01*
X53362Y75845D01*
X53441Y75827D01*
X53527Y75813D01*
X53620Y75803D01*
X53828Y75795D01*
Y74795D01*
X53721Y74793D01*
X53527Y74777D01*
X53441Y74763D01*
X53362Y74745D01*
X53291Y74723D01*
X53226Y74697D01*
X53169Y74667D01*
X53119Y74633D01*
X53076Y74595D01*
Y75995D01*
X53119Y75957D01*
D02*
G37*
G36*
X114380Y73209D02*
X114396Y73015D01*
X114410Y72929D01*
X114428Y72851D01*
X114450Y72779D01*
X114476Y72715D01*
X114506Y72657D01*
X114540Y72607D01*
X114578Y72565D01*
X113178D01*
X113216Y72607D01*
X113250Y72657D01*
X113280Y72715D01*
X113306Y72779D01*
X113328Y72851D01*
X113346Y72929D01*
X113360Y73015D01*
X113370Y73109D01*
X113378Y73316D01*
X114378D01*
X114380Y73209D01*
D02*
G37*
G36*
X192788Y72078D02*
X192754Y72028D01*
X192724Y71970D01*
X192698Y71906D01*
X192676Y71834D01*
X192658Y71756D01*
X192644Y71670D01*
X192634Y71577D01*
X192626Y71369D01*
X191626D01*
X191624Y71476D01*
X191608Y71670D01*
X191594Y71756D01*
X191576Y71834D01*
X191554Y71906D01*
X191528Y71970D01*
X191498Y72028D01*
X191464Y72078D01*
X191426Y72120D01*
X192826D01*
X192788Y72078D01*
D02*
G37*
G36*
X183634Y68042D02*
X183600Y67992D01*
X183570Y67935D01*
X183544Y67871D01*
X183522Y67799D01*
X183504Y67720D01*
X183490Y67634D01*
X183480Y67541D01*
X183472Y67333D01*
X182472D01*
X182470Y67441D01*
X182454Y67634D01*
X182440Y67720D01*
X182422Y67799D01*
X182400Y67871D01*
X182374Y67935D01*
X182344Y67992D01*
X182310Y68042D01*
X182272Y68085D01*
X183672D01*
X183634Y68042D01*
D02*
G37*
G36*
X122431Y66515D02*
X122461Y66173D01*
X122511Y65871D01*
X122581Y65610D01*
X122671Y65388D01*
X122781Y65207D01*
X122911Y65066D01*
X123061Y64966D01*
X123231Y64906D01*
X123421Y64885D01*
X119421D01*
X119611Y64906D01*
X119781Y64966D01*
X119931Y65066D01*
X120061Y65207D01*
X120171Y65388D01*
X120261Y65610D01*
X120331Y65871D01*
X120381Y66173D01*
X120411Y66515D01*
X120421Y66897D01*
X122421D01*
X122431Y66515D01*
D02*
G37*
G36*
X111199Y73309D02*
X111251Y73232D01*
X111223Y73031D01*
X111219Y73021D01*
X111219Y73000D01*
X111205Y72896D01*
X111139Y72565D01*
X111151Y72504D01*
X111142Y72443D01*
X111228Y72116D01*
X111294Y71784D01*
X111328Y71733D01*
X111344Y71674D01*
X111371Y71637D01*
X111523Y70875D01*
X112075Y70048D01*
X112902Y69495D01*
X113878Y69301D01*
X114853Y69495D01*
X115680Y70048D01*
X115807Y70238D01*
X116311Y70092D01*
X116417Y66409D01*
X115992Y65909D01*
X109862D01*
Y64729D01*
X109605Y64594D01*
X109535Y64511D01*
X109470Y64467D01*
X109458Y64464D01*
X109094Y64392D01*
X109071Y64377D01*
X109045Y64371D01*
X108741Y64156D01*
X108578Y64047D01*
X107880D01*
X107727Y64149D01*
X107436Y64360D01*
X107398Y64370D01*
X107364Y64392D01*
X107012Y64462D01*
X106693Y64538D01*
X106613Y64592D01*
X106552Y64604D01*
X106499Y64635D01*
X106299Y64662D01*
X106289Y64667D01*
X106268Y64667D01*
X106164Y64681D01*
X105832Y64747D01*
X105772Y64735D01*
X105711Y64743D01*
X105384Y64658D01*
X105052Y64592D01*
X105001Y64558D01*
X104941Y64542D01*
X104905Y64514D01*
X104143Y64363D01*
X103316Y63810D01*
X102763Y62983D01*
X102569Y62008D01*
X102763Y61032D01*
X103316Y60206D01*
X104143Y59653D01*
X104905Y59501D01*
X104941Y59474D01*
X105001Y59458D01*
X105052Y59424D01*
X105384Y59358D01*
X105711Y59272D01*
X105772Y59281D01*
X105832Y59269D01*
X106164Y59335D01*
X106268Y59349D01*
X106289Y59349D01*
X106299Y59353D01*
X106499Y59381D01*
X106552Y59412D01*
X106613Y59424D01*
X106708Y59488D01*
X106993Y59550D01*
X107364Y59624D01*
X107380Y59635D01*
X107399Y59639D01*
X107711Y59855D01*
X107880Y59969D01*
X108578D01*
X108742Y59859D01*
X109045Y59645D01*
X109071Y59639D01*
X109094Y59624D01*
X109459Y59551D01*
X109470Y59549D01*
X109535Y59505D01*
X109605Y59421D01*
X109862Y59286D01*
Y57910D01*
X109499Y57581D01*
X81437D01*
X80462Y57386D01*
X79635Y56834D01*
X74405Y51604D01*
X67443D01*
X67282Y51711D01*
X66964Y51930D01*
X66952Y51932D01*
X66942Y51939D01*
X66563Y52014D01*
X66185Y52094D01*
X64831Y52110D01*
X64783Y53486D01*
X64857Y53627D01*
X65019Y53870D01*
X65040Y53976D01*
X65091Y54072D01*
X65117Y54363D01*
X65174Y54650D01*
X65153Y54757D01*
X65163Y54865D01*
X65076Y55144D01*
X65019Y55430D01*
X64959Y55521D01*
X64926Y55624D01*
X64739Y55849D01*
X64698Y55911D01*
X64694Y56021D01*
Y61532D01*
X64502D01*
X64104Y72896D01*
X64451Y73256D01*
X109704D01*
X110484Y73411D01*
X110547Y73453D01*
X111199Y73309D01*
D02*
G37*
G36*
X105875Y62670D02*
X105925Y62636D01*
X105982Y62606D01*
X106047Y62580D01*
X106118Y62558D01*
X106197Y62540D01*
X106283Y62526D01*
X106376Y62516D01*
X106584Y62508D01*
Y61508D01*
X106477Y61506D01*
X106283Y61490D01*
X106197Y61476D01*
X106118Y61458D01*
X106047Y61436D01*
X105982Y61410D01*
X105925Y61380D01*
X105875Y61346D01*
X105832Y61308D01*
Y62708D01*
X105875Y62670D01*
D02*
G37*
G36*
X110886Y61008D02*
X110876Y61103D01*
X110846Y61188D01*
X110795Y61263D01*
X110724Y61328D01*
X110633Y61383D01*
X110522Y61428D01*
X110390Y61463D01*
X110239Y61488D01*
X110066Y61503D01*
X109874Y61508D01*
Y62508D01*
X110066Y62513D01*
X110239Y62528D01*
X110390Y62553D01*
X110522Y62588D01*
X110633Y62633D01*
X110724Y62688D01*
X110795Y62753D01*
X110846Y62828D01*
X110876Y62913D01*
X110886Y63008D01*
Y61008D01*
D02*
G37*
G36*
X173694Y61152D02*
X173660Y61102D01*
X173629Y61045D01*
X173603Y60981D01*
X173582Y60909D01*
X173564Y60830D01*
X173549Y60745D01*
X173539Y60651D01*
X173531Y60443D01*
X172531D01*
X172529Y60551D01*
X172513Y60745D01*
X172500Y60830D01*
X172482Y60909D01*
X172459Y60981D01*
X172433Y61045D01*
X172404Y61102D01*
X172370Y61152D01*
X172332Y61195D01*
X173732D01*
X173694Y61152D01*
D02*
G37*
G36*
X173537Y58650D02*
X173551Y58478D01*
X173576Y58326D01*
X173611Y58195D01*
X173656Y58083D01*
X173712Y57992D01*
X173776Y57921D01*
X173852Y57871D01*
X173936Y57840D01*
X174031Y57830D01*
X172031D01*
X172126Y57840D01*
X172212Y57871D01*
X172286Y57921D01*
X172352Y57992D01*
X172406Y58083D01*
X172451Y58195D01*
X172486Y58326D01*
X172511Y58478D01*
X172527Y58650D01*
X172531Y58842D01*
X173531D01*
X173537Y58650D01*
D02*
G37*
G36*
X58576Y61562D02*
X59529Y60752D01*
X59784Y60584D01*
X60007Y60467D01*
X60198Y60401D01*
X60357Y60386D01*
X60485Y60421D01*
X60581Y60508D01*
X58600Y57740D01*
X58658Y57864D01*
X58671Y58014D01*
X58640Y58189D01*
X58564Y58390D01*
X58444Y58616D01*
X58279Y58867D01*
X58069Y59144D01*
X57517Y59773D01*
X57174Y60126D01*
X58194Y61934D01*
X58576Y61562D01*
D02*
G37*
G36*
X123323Y58900D02*
X123054Y58837D01*
X122766Y58731D01*
X122460Y58582D01*
X122136Y58391D01*
X121793Y58158D01*
X121433Y57882D01*
X120657Y57203D01*
X120242Y56800D01*
X118121Y57507D01*
X118383Y57776D01*
X118920Y58412D01*
X119016Y58568D01*
X119071Y58695D01*
X119084Y58794D01*
X119055Y58865D01*
X118986Y58907D01*
X118874Y58921D01*
X123575D01*
X123323Y58900D01*
D02*
G37*
G36*
X218872Y55599D02*
X218830Y55637D01*
X218780Y55671D01*
X218723Y55701D01*
X218658Y55727D01*
X218586Y55749D01*
X218508Y55767D01*
X218422Y55781D01*
X218328Y55791D01*
X218121Y55799D01*
Y56799D01*
X218228Y56801D01*
X218422Y56817D01*
X218508Y56831D01*
X218586Y56849D01*
X218658Y56871D01*
X218723Y56897D01*
X218780Y56927D01*
X218830Y56961D01*
X218872Y56999D01*
Y55599D01*
D02*
G37*
G36*
X214354Y57204D02*
X214385Y57119D01*
X214435Y57044D01*
X214506Y56979D01*
X214597Y56924D01*
X214708Y56879D01*
X214840Y56844D01*
X214992Y56819D01*
X215164Y56804D01*
X215356Y56799D01*
Y55799D01*
X215164Y55794D01*
X214992Y55779D01*
X214840Y55754D01*
X214708Y55719D01*
X214597Y55674D01*
X214506Y55619D01*
X214435Y55554D01*
X214385Y55479D01*
X214354Y55394D01*
X214344Y55299D01*
Y57299D01*
X214354Y57204D01*
D02*
G37*
G36*
X160754Y55712D02*
X160784Y55370D01*
X160834Y55068D01*
X160904Y54807D01*
X160994Y54585D01*
X161104Y54404D01*
X161234Y54263D01*
X161384Y54163D01*
X161554Y54102D01*
X161744Y54082D01*
X157744D01*
X157934Y54102D01*
X158104Y54163D01*
X158254Y54263D01*
X158384Y54404D01*
X158494Y54585D01*
X158584Y54807D01*
X158654Y55068D01*
X158704Y55370D01*
X158734Y55712D01*
X158744Y56094D01*
X160744D01*
X160754Y55712D01*
D02*
G37*
G36*
X62945Y54630D02*
X62775Y54570D01*
X62625Y54469D01*
X62495Y54328D01*
X62385Y54147D01*
X62295Y53926D01*
X62225Y53664D01*
X62175Y53362D01*
X62145Y53020D01*
X62135Y52638D01*
X60135D01*
X60125Y53020D01*
X60095Y53362D01*
X60045Y53664D01*
X59975Y53926D01*
X59885Y54147D01*
X59775Y54328D01*
X59645Y54469D01*
X59495Y54570D01*
X59325Y54630D01*
X59135Y54650D01*
X63135D01*
X62945Y54630D01*
D02*
G37*
G36*
X35143Y52970D02*
X35149Y52909D01*
X35164Y52847D01*
X35187Y52782D01*
X35218Y52715D01*
X35258Y52646D01*
X35307Y52575D01*
X35364Y52502D01*
X35430Y52426D01*
X35504Y52349D01*
X34705Y51733D01*
X34628Y51809D01*
X34411Y51990D01*
X34344Y52036D01*
X34280Y52075D01*
X34219Y52106D01*
X34161Y52130D01*
X34105Y52146D01*
X34052Y52155D01*
X35146Y53028D01*
X35143Y52970D01*
D02*
G37*
G36*
X201544Y51843D02*
X201594Y51809D01*
X201652Y51779D01*
X201716Y51753D01*
X201787Y51731D01*
X201866Y51713D01*
X201952Y51699D01*
X202045Y51689D01*
X202253Y51681D01*
Y50681D01*
X202146Y50679D01*
X201952Y50663D01*
X201866Y50649D01*
X201787Y50631D01*
X201716Y50609D01*
X201652Y50583D01*
X201594Y50553D01*
X201544Y50519D01*
X201501Y50481D01*
Y51881D01*
X201544Y51843D01*
D02*
G37*
G36*
X221311Y50434D02*
X221275Y50480D01*
X221231Y50521D01*
X221179Y50557D01*
X221120Y50589D01*
X221052Y50615D01*
X220976Y50637D01*
X220893Y50654D01*
X220801Y50666D01*
X220702Y50673D01*
X220595Y50676D01*
X220823Y51676D01*
X220932Y51677D01*
X221214Y51697D01*
X221294Y51709D01*
X221430Y51740D01*
X221487Y51760D01*
X221536Y51783D01*
X221579Y51808D01*
X221311Y50434D01*
D02*
G37*
G36*
X206813Y50181D02*
X206803Y50276D01*
X206773Y50361D01*
X206722Y50436D01*
X206651Y50501D01*
X206560Y50556D01*
X206449Y50601D01*
X206317Y50636D01*
X206166Y50661D01*
X205994Y50676D01*
X205801Y50681D01*
Y51681D01*
X205994Y51686D01*
X206166Y51701D01*
X206317Y51726D01*
X206449Y51761D01*
X206560Y51806D01*
X206651Y51861D01*
X206722Y51926D01*
X206773Y52001D01*
X206803Y52086D01*
X206813Y52181D01*
Y50181D01*
D02*
G37*
G36*
X214354Y52081D02*
X214385Y51996D01*
X214435Y51921D01*
X214506Y51856D01*
X214597Y51801D01*
X214708Y51756D01*
X214840Y51721D01*
X214992Y51696D01*
X215164Y51681D01*
X215356Y51676D01*
Y50676D01*
X215164Y50671D01*
X214992Y50656D01*
X214840Y50631D01*
X214708Y50596D01*
X214597Y50551D01*
X214506Y50496D01*
X214435Y50431D01*
X214385Y50356D01*
X214354Y50271D01*
X214344Y50176D01*
Y52176D01*
X214354Y52081D01*
D02*
G37*
G36*
X62145Y51744D02*
X62175Y51402D01*
X62225Y51100D01*
X62295Y50838D01*
X62385Y50617D01*
X62495Y50436D01*
X62625Y50295D01*
X62775Y50194D01*
X62945Y50134D01*
X63135Y50114D01*
X59135D01*
X59325Y50134D01*
X59495Y50194D01*
X59645Y50295D01*
X59775Y50436D01*
X59885Y50617D01*
X59975Y50838D01*
X60045Y51100D01*
X60095Y51402D01*
X60125Y51744D01*
X60135Y52126D01*
X62135D01*
X62145Y51744D01*
D02*
G37*
G36*
X169699Y50110D02*
X169679Y50187D01*
X169619Y50255D01*
X169519Y50315D01*
X169379Y50367D01*
X169199Y50411D01*
X168979Y50448D01*
X168719Y50476D01*
X168079Y50508D01*
X167699Y50512D01*
Y52512D01*
X168079Y52515D01*
X169199Y52594D01*
X169379Y52631D01*
X169519Y52674D01*
X169619Y52723D01*
X169679Y52780D01*
X169699Y52842D01*
Y50110D01*
D02*
G37*
G36*
X162693Y53322D02*
X162753Y53152D01*
X162854Y53002D01*
X162995Y52872D01*
X163176Y52762D01*
X163397Y52672D01*
X163659Y52602D01*
X163961Y52552D01*
X164303Y52522D01*
X164685Y52512D01*
Y50512D01*
X164303Y50502D01*
X163961Y50472D01*
X163659Y50422D01*
X163397Y50352D01*
X163176Y50262D01*
X162995Y50152D01*
X162854Y50022D01*
X162753Y49872D01*
X162693Y49702D01*
X162673Y49512D01*
Y53512D01*
X162693Y53322D01*
D02*
G37*
G36*
X156803Y49000D02*
X156783Y49142D01*
X156723Y49269D01*
X156623Y49382D01*
X156483Y49479D01*
X156303Y49561D01*
X156083Y49628D01*
X155823Y49681D01*
X155523Y49718D01*
X155183Y49741D01*
X154803Y49748D01*
Y51748D01*
X155185Y51758D01*
X155527Y51788D01*
X155828Y51838D01*
X156089Y51908D01*
X156311Y51998D01*
X156492Y52108D01*
X156633Y52238D01*
X156734Y52388D01*
X156795Y52558D01*
X156815Y52748D01*
X156803Y49000D01*
D02*
G37*
G36*
X154055Y49748D02*
X153673Y49738D01*
X153332Y49708D01*
X153031Y49658D01*
X152769Y49588D01*
X152548Y49498D01*
X152367Y49388D01*
X152226Y49258D01*
X152125Y49108D01*
X152064Y48938D01*
X152043Y48748D01*
X152055Y51736D01*
X152075Y51738D01*
X152135Y51740D01*
X154055Y51748D01*
Y49748D01*
D02*
G37*
G36*
X37226Y50634D02*
X37595Y50320D01*
X37758Y50206D01*
X37907Y50120D01*
X38041Y50062D01*
X38161Y50033D01*
X38266Y50031D01*
X38357Y50058D01*
X38434Y50114D01*
X37032Y48712D01*
X37087Y48788D01*
X37114Y48879D01*
X37113Y48985D01*
X37084Y49105D01*
X37026Y49239D01*
X36940Y49387D01*
X36825Y49551D01*
X36683Y49728D01*
X36313Y50126D01*
X37020Y50833D01*
X37226Y50634D01*
D02*
G37*
G36*
X42900Y49960D02*
X42930Y49875D01*
X42981Y49800D01*
X43051Y49735D01*
X43142Y49680D01*
X43254Y49635D01*
X43385Y49600D01*
X43537Y49575D01*
X43709Y49560D01*
X43901Y49555D01*
Y48555D01*
X43709Y48550D01*
X43537Y48535D01*
X43385Y48510D01*
X43254Y48475D01*
X43142Y48430D01*
X43051Y48375D01*
X42981Y48310D01*
X42930Y48235D01*
X42900Y48150D01*
X42889Y48055D01*
Y50055D01*
X42900Y49960D01*
D02*
G37*
G36*
X64181Y50112D02*
X64241Y50100D01*
X64341Y50090D01*
X64661Y50073D01*
X66161Y50055D01*
Y48055D01*
X64161Y47984D01*
Y50126D01*
X64181Y50112D01*
D02*
G37*
G36*
X177961Y47842D02*
X177762Y47636D01*
X177448Y47267D01*
X177334Y47104D01*
X177248Y46955D01*
X177190Y46821D01*
X177161Y46701D01*
X177159Y46596D01*
X177186Y46505D01*
X177242Y46428D01*
X175839Y47830D01*
X175916Y47775D01*
X176007Y47748D01*
X176113Y47749D01*
X176233Y47779D01*
X176367Y47836D01*
X176515Y47922D01*
X176679Y48037D01*
X176856Y48179D01*
X177254Y48549D01*
X177961Y47842D01*
D02*
G37*
G36*
X93026Y47259D02*
X93075Y47237D01*
X93132Y47217D01*
X93196Y47200D01*
X93268Y47186D01*
X93434Y47165D01*
X93528Y47159D01*
X93739Y47153D01*
X93974Y46154D01*
X93867Y46151D01*
X93676Y46132D01*
X93592Y46115D01*
X93517Y46093D01*
X93449Y46066D01*
X93390Y46035D01*
X93338Y45998D01*
X93295Y45957D01*
X93259Y45911D01*
X92984Y47284D01*
X93026Y47259D01*
D02*
G37*
G36*
X31263Y46590D02*
X30640Y45799D01*
X30561Y45874D01*
X30487Y45938D01*
X30415Y45992D01*
X30347Y46035D01*
X30282Y46067D01*
X30221Y46090D01*
X30163Y46101D01*
X30108Y46102D01*
X30057Y46093D01*
X30010Y46073D01*
X30428Y47383D01*
X31263Y46590D01*
D02*
G37*
G36*
X98386Y45654D02*
X98376Y45748D01*
X98346Y45834D01*
X98295Y45908D01*
X98224Y45974D01*
X98133Y46029D01*
X98022Y46073D01*
X97890Y46108D01*
X97738Y46134D01*
X97566Y46148D01*
X97374Y46154D01*
Y47153D01*
X97566Y47159D01*
X97738Y47174D01*
X97890Y47199D01*
X98022Y47234D01*
X98133Y47278D01*
X98224Y47333D01*
X98295Y47398D01*
X98346Y47473D01*
X98376Y47559D01*
X98386Y47653D01*
Y45654D01*
D02*
G37*
G36*
X63030Y47964D02*
X62861Y47904D01*
X62710Y47804D01*
X62581Y47664D01*
X62471Y47484D01*
X62380Y47264D01*
X62310Y47004D01*
X62261Y46704D01*
X62247Y46553D01*
X62261Y46402D01*
X62310Y46100D01*
X62380Y45838D01*
X62471Y45617D01*
X62581Y45436D01*
X62710Y45295D01*
X62861Y45194D01*
X63030Y45134D01*
X63221Y45114D01*
X59220D01*
X59411Y45134D01*
X59580Y45194D01*
X59730Y45295D01*
X59860Y45436D01*
X59970Y45617D01*
X60061Y45838D01*
X60131Y46100D01*
X60180Y46402D01*
X60194Y46553D01*
X60180Y46704D01*
X60131Y47004D01*
X60061Y47264D01*
X59970Y47484D01*
X59860Y47664D01*
X59730Y47804D01*
X59580Y47904D01*
X59411Y47964D01*
X59220Y47984D01*
X63221D01*
X63030Y47964D01*
D02*
G37*
G36*
X49690Y45115D02*
X49838Y44989D01*
X49909Y44938D01*
X49977Y44895D01*
X50043Y44860D01*
X50107Y44833D01*
X50169Y44814D01*
X50228Y44803D01*
X50285Y44799D01*
X49295Y43809D01*
X49292Y43866D01*
X49281Y43926D01*
X49261Y43987D01*
X49234Y44051D01*
X49199Y44118D01*
X49156Y44186D01*
X49105Y44257D01*
X49046Y44330D01*
X48905Y44482D01*
X49612Y45189D01*
X49690Y45115D01*
D02*
G37*
G36*
X37226Y45634D02*
X37595Y45320D01*
X37758Y45206D01*
X37907Y45120D01*
X38041Y45062D01*
X38161Y45033D01*
X38266Y45031D01*
X38357Y45058D01*
X38434Y45114D01*
X37032Y43712D01*
X37087Y43788D01*
X37114Y43879D01*
X37113Y43985D01*
X37084Y44105D01*
X37026Y44239D01*
X36940Y44388D01*
X36825Y44550D01*
X36683Y44728D01*
X36313Y45126D01*
X37020Y45833D01*
X37226Y45634D01*
D02*
G37*
G36*
Y40634D02*
X37595Y40320D01*
X37758Y40206D01*
X37907Y40120D01*
X38041Y40062D01*
X38161Y40033D01*
X38266Y40031D01*
X38357Y40058D01*
X38434Y40114D01*
X37032Y38712D01*
X37087Y38788D01*
X37114Y38879D01*
X37113Y38985D01*
X37084Y39105D01*
X37026Y39239D01*
X36940Y39388D01*
X36825Y39551D01*
X36683Y39728D01*
X36313Y40126D01*
X37020Y40833D01*
X37226Y40634D01*
D02*
G37*
G36*
X49660Y38355D02*
X49617Y38393D01*
X49567Y38427D01*
X49510Y38457D01*
X49446Y38483D01*
X49374Y38505D01*
X49295Y38523D01*
X49209Y38537D01*
X49116Y38547D01*
X48908Y38555D01*
Y39555D01*
X49016Y39557D01*
X49209Y39573D01*
X49295Y39587D01*
X49374Y39605D01*
X49446Y39627D01*
X49510Y39653D01*
X49567Y39683D01*
X49617Y39717D01*
X49660Y39755D01*
Y38355D01*
D02*
G37*
G36*
X42900Y39960D02*
X42930Y39875D01*
X42981Y39800D01*
X43051Y39735D01*
X43142Y39680D01*
X43254Y39635D01*
X43385Y39600D01*
X43537Y39575D01*
X43709Y39560D01*
X43901Y39555D01*
Y38555D01*
X43709Y38550D01*
X43537Y38535D01*
X43385Y38510D01*
X43254Y38475D01*
X43142Y38430D01*
X43051Y38375D01*
X42981Y38310D01*
X42930Y38235D01*
X42900Y38150D01*
X42889Y38055D01*
Y40055D01*
X42900Y39960D01*
D02*
G37*
G36*
X34183Y38963D02*
X34175Y38909D01*
X34177Y38852D01*
X34190Y38793D01*
X34213Y38730D01*
X34247Y38664D01*
X34290Y38595D01*
X34345Y38523D01*
X34409Y38448D01*
X34483Y38370D01*
X33714Y37725D01*
X32897Y38523D01*
X34201Y39013D01*
X34183Y38963D01*
D02*
G37*
G36*
X93178Y37473D02*
X93228Y37439D01*
X93285Y37409D01*
X93350Y37383D01*
X93421Y37361D01*
X93500Y37343D01*
X93586Y37329D01*
X93679Y37319D01*
X93887Y37311D01*
Y36311D01*
X93780Y36309D01*
X93586Y36293D01*
X93500Y36279D01*
X93421Y36261D01*
X93350Y36239D01*
X93285Y36213D01*
X93228Y36183D01*
X93178Y36149D01*
X93135Y36111D01*
Y37511D01*
X93178Y37473D01*
D02*
G37*
G36*
X97796Y35811D02*
X97786Y35906D01*
X97755Y35991D01*
X97705Y36066D01*
X97634Y36131D01*
X97543Y36186D01*
X97431Y36231D01*
X97300Y36266D01*
X97148Y36291D01*
X96976Y36306D01*
X96784Y36311D01*
Y37311D01*
X96976Y37316D01*
X97148Y37331D01*
X97300Y37356D01*
X97431Y37391D01*
X97543Y37436D01*
X97634Y37491D01*
X97705Y37556D01*
X97755Y37631D01*
X97786Y37716D01*
X97796Y37811D01*
Y35811D01*
D02*
G37*
G36*
X24911Y35807D02*
X24927Y35614D01*
X24941Y35528D01*
X24960Y35449D01*
X24982Y35377D01*
X25008Y35313D01*
X25038Y35256D01*
X25071Y35206D01*
X25109Y35163D01*
X23709D01*
X23747Y35206D01*
X23781Y35256D01*
X23811Y35313D01*
X23837Y35377D01*
X23859Y35449D01*
X23877Y35528D01*
X23891Y35614D01*
X23901Y35707D01*
X23910Y35915D01*
X24909D01*
X24911Y35807D01*
D02*
G37*
G36*
X37226Y35634D02*
X37595Y35320D01*
X37758Y35206D01*
X37907Y35120D01*
X38041Y35062D01*
X38161Y35032D01*
X38266Y35031D01*
X38357Y35058D01*
X38434Y35114D01*
X37032Y33712D01*
X37087Y33788D01*
X37114Y33879D01*
X37113Y33985D01*
X37084Y34105D01*
X37026Y34239D01*
X36940Y34387D01*
X36825Y34550D01*
X36683Y34728D01*
X36313Y35126D01*
X37020Y35833D01*
X37226Y35634D01*
D02*
G37*
G36*
X49680Y33355D02*
X49637Y33393D01*
X49587Y33427D01*
X49530Y33457D01*
X49465Y33483D01*
X49394Y33505D01*
X49315Y33523D01*
X49229Y33537D01*
X49136Y33547D01*
X48928Y33555D01*
Y34555D01*
X49035Y34557D01*
X49229Y34573D01*
X49315Y34587D01*
X49394Y34605D01*
X49465Y34627D01*
X49530Y34653D01*
X49587Y34683D01*
X49637Y34717D01*
X49680Y34755D01*
Y33355D01*
D02*
G37*
G36*
X42900Y34960D02*
X42930Y34875D01*
X42981Y34800D01*
X43051Y34735D01*
X43142Y34680D01*
X43254Y34635D01*
X43385Y34600D01*
X43537Y34575D01*
X43709Y34560D01*
X43901Y34555D01*
Y33555D01*
X43709Y33550D01*
X43537Y33535D01*
X43385Y33510D01*
X43254Y33475D01*
X43142Y33430D01*
X43051Y33375D01*
X42981Y33310D01*
X42930Y33235D01*
X42900Y33150D01*
X42889Y33055D01*
Y35055D01*
X42900Y34960D01*
D02*
G37*
G36*
X191763Y31489D02*
X191712Y31479D01*
X191657Y31461D01*
X191600Y31436D01*
X191540Y31405D01*
X191477Y31365D01*
X191411Y31319D01*
X191270Y31204D01*
X191195Y31136D01*
X191118Y31060D01*
X190295Y31652D01*
X190369Y31729D01*
X190492Y31878D01*
X190540Y31949D01*
X190579Y32018D01*
X190610Y32085D01*
X190632Y32150D01*
X190645Y32212D01*
X190649Y32273D01*
X190645Y32331D01*
X191763Y31489D01*
D02*
G37*
G36*
X58292Y28055D02*
X58282Y28150D01*
X58251Y28235D01*
X58201Y28310D01*
X58130Y28375D01*
X58039Y28430D01*
X57927Y28475D01*
X57796Y28510D01*
X57644Y28535D01*
X57472Y28550D01*
X57280Y28555D01*
Y29555D01*
X57472Y29560D01*
X57644Y29575D01*
X57796Y29600D01*
X57927Y29635D01*
X58039Y29680D01*
X58130Y29735D01*
X58201Y29800D01*
X58251Y29875D01*
X58282Y29960D01*
X58292Y30055D01*
Y28055D01*
D02*
G37*
G36*
X37032D02*
X37022Y28150D01*
X36991Y28235D01*
X36941Y28310D01*
X36870Y28375D01*
X36779Y28430D01*
X36668Y28475D01*
X36536Y28510D01*
X36384Y28535D01*
X36212Y28550D01*
X36020Y28555D01*
Y29555D01*
X36212Y29560D01*
X36384Y29575D01*
X36536Y29600D01*
X36668Y29635D01*
X36779Y29680D01*
X36870Y29735D01*
X36941Y29800D01*
X36991Y29875D01*
X37022Y29960D01*
X37032Y30055D01*
Y28055D01*
D02*
G37*
G36*
X142164Y29944D02*
X142571Y29592D01*
X142744Y29469D01*
X142895Y29379D01*
X143026Y29325D01*
X143137Y29305D01*
X143226Y29319D01*
X143295Y29368D01*
X143343Y29452D01*
X142579Y27412D01*
X142606Y27518D01*
X142611Y27631D01*
X142594Y27752D01*
X142555Y27881D01*
X142494Y28019D01*
X142411Y28164D01*
X142306Y28318D01*
X142180Y28479D01*
X142031Y28649D01*
X141860Y28827D01*
X141929Y30171D01*
X142164Y29944D01*
D02*
G37*
G36*
X64106Y29585D02*
X64089Y29485D01*
X64097Y29372D01*
X64130Y29248D01*
X64189Y29113D01*
X64274Y28965D01*
X64384Y28807D01*
X64520Y28636D01*
X64868Y28260D01*
X64437Y27277D01*
X64218Y27489D01*
X63833Y27819D01*
X63666Y27937D01*
X63516Y28025D01*
X63383Y28081D01*
X63267Y28106D01*
X63169Y28101D01*
X63087Y28064D01*
X63023Y27996D01*
X64149Y29674D01*
X64106Y29585D01*
D02*
G37*
G36*
X93080Y28221D02*
X93130Y28187D01*
X93187Y28157D01*
X93251Y28131D01*
X93323Y28109D01*
X93402Y28091D01*
X93488Y28077D01*
X93581Y28067D01*
X93789Y28059D01*
Y27059D01*
X93681Y27057D01*
X93488Y27041D01*
X93402Y27027D01*
X93323Y27009D01*
X93251Y26987D01*
X93187Y26961D01*
X93130Y26931D01*
X93080Y26897D01*
X93037Y26859D01*
Y28259D01*
X93080Y28221D01*
D02*
G37*
G36*
X97599Y26559D02*
X97589Y26654D01*
X97558Y26739D01*
X97508Y26814D01*
X97437Y26879D01*
X97346Y26934D01*
X97234Y26979D01*
X97103Y27014D01*
X96951Y27039D01*
X96779Y27054D01*
X96587Y27059D01*
Y28059D01*
X96779Y28064D01*
X96951Y28079D01*
X97103Y28104D01*
X97234Y28139D01*
X97346Y28184D01*
X97437Y28239D01*
X97508Y28304D01*
X97558Y28379D01*
X97589Y28464D01*
X97599Y28559D01*
Y26559D01*
D02*
G37*
G36*
X48641Y27532D02*
X48691Y27498D01*
X48748Y27468D01*
X48812Y27442D01*
X48884Y27420D01*
X48963Y27402D01*
X49049Y27388D01*
X49142Y27378D01*
X49350Y27370D01*
Y26370D01*
X49242Y26368D01*
X49049Y26352D01*
X48963Y26338D01*
X48884Y26320D01*
X48812Y26298D01*
X48748Y26272D01*
X48691Y26242D01*
X48641Y26208D01*
X48598Y26170D01*
Y27570D01*
X48641Y27532D01*
D02*
G37*
G36*
X169711Y25476D02*
X169701Y25571D01*
X169670Y25656D01*
X169620Y25731D01*
X169549Y25796D01*
X169458Y25851D01*
X169347Y25896D01*
X169215Y25931D01*
X169063Y25956D01*
X168891Y25971D01*
X168699Y25976D01*
Y26976D01*
X168891Y26981D01*
X169063Y26996D01*
X169215Y27021D01*
X169347Y27056D01*
X169458Y27101D01*
X169549Y27156D01*
X169620Y27221D01*
X169670Y27296D01*
X169701Y27381D01*
X169711Y27476D01*
Y25476D01*
D02*
G37*
G36*
X155266Y27381D02*
X155296Y27296D01*
X155347Y27221D01*
X155417Y27156D01*
X155508Y27101D01*
X155620Y27056D01*
X155751Y27021D01*
X155903Y26996D01*
X156075Y26981D01*
X156267Y26976D01*
Y25976D01*
X156075Y25971D01*
X155903Y25956D01*
X155751Y25931D01*
X155620Y25896D01*
X155508Y25851D01*
X155417Y25796D01*
X155347Y25731D01*
X155296Y25656D01*
X155266Y25571D01*
X155255Y25476D01*
Y27476D01*
X155266Y27381D01*
D02*
G37*
G36*
X55285Y24481D02*
X55335Y24447D01*
X55392Y24417D01*
X55456Y24391D01*
X55528Y24369D01*
X55607Y24351D01*
X55692Y24337D01*
X55786Y24327D01*
X55994Y24319D01*
Y23319D01*
X55886Y23317D01*
X55692Y23301D01*
X55607Y23287D01*
X55528Y23269D01*
X55456Y23247D01*
X55392Y23221D01*
X55335Y23191D01*
X55285Y23157D01*
X55242Y23119D01*
Y24519D01*
X55285Y24481D01*
D02*
G37*
G36*
X42900Y24960D02*
X42930Y24875D01*
X42981Y24800D01*
X43051Y24735D01*
X43142Y24680D01*
X43254Y24635D01*
X43385Y24600D01*
X43537Y24575D01*
X43709Y24560D01*
X43901Y24555D01*
Y23555D01*
X43709Y23550D01*
X43537Y23535D01*
X43385Y23510D01*
X43254Y23475D01*
X43142Y23430D01*
X43051Y23375D01*
X42981Y23310D01*
X42930Y23235D01*
X42900Y23150D01*
X42889Y23055D01*
Y25055D01*
X42900Y24960D01*
D02*
G37*
G36*
X58280Y22984D02*
X58270Y23048D01*
X58240Y23105D01*
X58190Y23155D01*
X58120Y23199D01*
X58030Y23235D01*
X57920Y23265D01*
X57790Y23289D01*
X57640Y23305D01*
X57280Y23319D01*
Y24319D01*
X57471Y24324D01*
X57643Y24339D01*
X57794Y24364D01*
X57926Y24399D01*
X58037Y24444D01*
X58128Y24499D01*
X58199Y24564D01*
X58250Y24639D01*
X58281Y24724D01*
X58292Y24819D01*
X58280Y22984D01*
D02*
G37*
G36*
X207008Y23350D02*
X207377Y23037D01*
X207540Y22922D01*
X207688Y22836D01*
X207822Y22779D01*
X207942Y22749D01*
X208048Y22748D01*
X208139Y22775D01*
X208216Y22830D01*
X206813Y21428D01*
X206869Y21505D01*
X206896Y21596D01*
X206895Y21701D01*
X206865Y21821D01*
X206807Y21955D01*
X206721Y22104D01*
X206607Y22267D01*
X206464Y22444D01*
X206094Y22842D01*
X206801Y23549D01*
X207008Y23350D01*
D02*
G37*
G36*
X48971Y20757D02*
X48928Y20795D01*
X48878Y20829D01*
X48821Y20859D01*
X48757Y20885D01*
X48685Y20907D01*
X48606Y20925D01*
X48520Y20939D01*
X48427Y20949D01*
X48219Y20957D01*
Y21957D01*
X48327Y21959D01*
X48520Y21975D01*
X48606Y21989D01*
X48685Y22007D01*
X48757Y22029D01*
X48821Y22055D01*
X48878Y22085D01*
X48928Y22119D01*
X48971Y22157D01*
Y20757D01*
D02*
G37*
G36*
X177252Y22381D02*
X177282Y22296D01*
X177333Y22221D01*
X177404Y22156D01*
X177495Y22101D01*
X177606Y22056D01*
X177738Y22021D01*
X177889Y21996D01*
X178061Y21981D01*
X178254Y21976D01*
Y20976D01*
X178061Y20971D01*
X177889Y20956D01*
X177738Y20931D01*
X177606Y20896D01*
X177495Y20851D01*
X177404Y20796D01*
X177333Y20731D01*
X177282Y20656D01*
X177252Y20571D01*
X177242Y20476D01*
Y22476D01*
X177252Y22381D01*
D02*
G37*
G36*
X171113Y20110D02*
X171035Y20167D01*
X170943Y20195D01*
X170837D01*
X170717Y20167D01*
X170583Y20110D01*
X170434Y20026D01*
X170272Y19912D01*
X170095Y19771D01*
X169699Y19403D01*
X168992Y20110D01*
X169190Y20315D01*
X169501Y20683D01*
X169614Y20846D01*
X169699Y20994D01*
X169756Y21129D01*
X169784Y21249D01*
Y21355D01*
X169756Y21447D01*
X169699Y21525D01*
X171113Y20110D01*
D02*
G37*
G36*
X64105Y19321D02*
X64076Y19229D01*
Y19123D01*
X64105Y19003D01*
X64161Y18868D01*
X64246Y18720D01*
X64359Y18557D01*
X64501Y18380D01*
X64868Y17984D01*
X64161Y17277D01*
X63956Y17475D01*
X63589Y17786D01*
X63426Y17900D01*
X63277Y17984D01*
X63143Y18041D01*
X63023Y18069D01*
X62917D01*
X62825Y18041D01*
X62747Y17984D01*
X64161Y19399D01*
X64105Y19321D01*
D02*
G37*
G36*
X97599Y16618D02*
X97589Y16713D01*
X97558Y16798D01*
X97508Y16873D01*
X97437Y16938D01*
X97346Y16993D01*
X97234Y17038D01*
X97103Y17073D01*
X96951Y17098D01*
X96779Y17113D01*
X96587Y17118D01*
Y18118D01*
X96779Y18123D01*
X96951Y18138D01*
X97103Y18163D01*
X97234Y18198D01*
X97346Y18243D01*
X97437Y18298D01*
X97508Y18363D01*
X97558Y18438D01*
X97589Y18523D01*
X97599Y18618D01*
Y16618D01*
D02*
G37*
%LPC*%
G36*
X148900Y80770D02*
Y80402D01*
X149269D01*
X149121Y80623D01*
X148900Y80770D01*
D02*
G37*
G36*
X147900D02*
X147679Y80623D01*
X147531Y80402D01*
X147900D01*
Y80770D01*
D02*
G37*
G36*
X149269Y79402D02*
X148900D01*
Y79033D01*
X149121Y79181D01*
X149269Y79402D01*
D02*
G37*
G36*
X147900D02*
X147531D01*
X147679Y79181D01*
X147900Y79033D01*
Y79402D01*
D02*
G37*
G36*
X153067Y42476D02*
X150598D01*
Y40205D01*
X153067D01*
Y42476D01*
D02*
G37*
G36*
X149598D02*
X147130D01*
Y40205D01*
X149598D01*
Y42476D01*
D02*
G37*
G36*
X163697Y42047D02*
X160244D01*
Y38988D01*
X163697D01*
Y42047D01*
D02*
G37*
G36*
X159244D02*
X155791D01*
Y38988D01*
X159244D01*
Y42047D01*
D02*
G37*
G36*
X217177Y114179D02*
X215102D01*
Y111317D01*
X217177D01*
Y114179D01*
D02*
G37*
G36*
Y110317D02*
X215102D01*
Y107455D01*
X217177D01*
Y110317D01*
D02*
G37*
G36*
X214543Y109652D02*
X211091D01*
Y106888D01*
X214543D01*
Y109652D01*
D02*
G37*
G36*
Y105888D02*
X211091D01*
Y103124D01*
X214543D01*
Y105888D01*
D02*
G37*
G36*
X212739Y97163D02*
Y96794D01*
X213108D01*
X212960Y97015D01*
X212739Y97163D01*
D02*
G37*
G36*
X211739D02*
X211518Y97015D01*
X211371Y96794D01*
X211739D01*
Y97163D01*
D02*
G37*
G36*
X213108Y95794D02*
X212739D01*
Y95426D01*
X212960Y95573D01*
X213108Y95794D01*
D02*
G37*
G36*
X211739D02*
X211371D01*
X211518Y95573D01*
X211739Y95426D01*
Y95794D01*
D02*
G37*
G36*
X183913Y109652D02*
X180461D01*
Y106888D01*
X183913D01*
Y109652D01*
D02*
G37*
G36*
Y105888D02*
X180461D01*
Y103124D01*
X183913D01*
Y105888D01*
D02*
G37*
G36*
X181928Y98703D02*
Y98335D01*
X182297D01*
X182149Y98556D01*
X181928Y98703D01*
D02*
G37*
G36*
X180928D02*
X180707Y98556D01*
X180560Y98335D01*
X180928D01*
Y98703D01*
D02*
G37*
G36*
X182297Y97335D02*
X181928D01*
Y96966D01*
X182149Y97114D01*
X182297Y97335D01*
D02*
G37*
G36*
X180928D02*
X180560D01*
X180707Y97114D01*
X180928Y96966D01*
Y97335D01*
D02*
G37*
G36*
X105913Y70554D02*
Y70185D01*
X106282D01*
X106134Y70406D01*
X105913Y70554D01*
D02*
G37*
G36*
X104913D02*
X104692Y70406D01*
X104545Y70185D01*
X104913D01*
Y70554D01*
D02*
G37*
G36*
X106282Y69185D02*
X105913D01*
Y68816D01*
X106134Y68964D01*
X106282Y69185D01*
D02*
G37*
G36*
X104913D02*
X104545D01*
X104692Y68964D01*
X104913Y68816D01*
Y69185D01*
D02*
G37*
G36*
X79100Y67270D02*
Y66902D01*
X79469D01*
X79321Y67123D01*
X79100Y67270D01*
D02*
G37*
G36*
X78100D02*
X77879Y67123D01*
X77731Y66902D01*
X78100D01*
Y67270D01*
D02*
G37*
G36*
X79469Y65902D02*
X79100D01*
Y65533D01*
X79321Y65681D01*
X79469Y65902D01*
D02*
G37*
G36*
X78100D02*
X77731D01*
X77879Y65681D01*
X78100Y65533D01*
Y65902D01*
D02*
G37*
G36*
X73694Y61532D02*
X70635D01*
Y58079D01*
X73694D01*
Y61532D01*
D02*
G37*
G36*
X69635D02*
X66576D01*
Y58079D01*
X69635D01*
Y61532D01*
D02*
G37*
G36*
X73694Y57079D02*
X70635D01*
Y53626D01*
X73694D01*
Y57079D01*
D02*
G37*
G36*
X69635D02*
X66576D01*
Y53626D01*
X69635D01*
Y57079D01*
D02*
G37*
%LPD*%
D12*
X50503Y80118D02*
X104069D01*
X61135Y49140D02*
X61221Y49055D01*
X44350Y24055D02*
X46949Y21457D01*
X39961Y24055D02*
X44350D01*
X46949Y21457D02*
X49685D01*
X152917Y26476D02*
X173476D01*
X137783Y33610D02*
X144917Y26476D01*
X59315Y114567D02*
X65158D01*
X45472Y108724D02*
X51315Y114567D01*
X45472Y101476D02*
Y108724D01*
Y101476D02*
X48720Y98228D01*
X48819Y94095D02*
X84784Y130059D01*
Y143996D01*
X111362Y62008D02*
X113126Y60244D01*
X59646Y160335D02*
X60272Y159709D01*
Y150000D02*
Y159709D01*
X42717Y123807D02*
X68272Y149362D01*
X42717Y87992D02*
Y123807D01*
X68272Y149362D02*
Y150000D01*
X211114Y127864D02*
X221300Y117679D01*
Y92576D02*
Y117679D01*
X216779Y88055D02*
X221300Y92576D01*
X52362Y75295D02*
X109704D01*
X113421Y79013D01*
X24409Y34449D02*
Y91437D01*
X34154Y52992D02*
Y53150D01*
X27953Y54193D02*
Y87519D01*
X20472Y32992D02*
Y95177D01*
X27953Y54193D02*
X38091Y44055D01*
X20472Y32992D02*
X24409Y29055D01*
X52264Y91732D02*
X94784Y134252D01*
X47343Y83366D02*
X52362D01*
X48327Y87752D02*
X58185D01*
X104783Y134350D02*
Y143996D01*
X58185Y87752D02*
X104783Y134350D01*
X94784Y134252D02*
Y143996D01*
X188386Y89917D02*
Y156604D01*
X92421Y36811D02*
X100134D01*
X104069Y80118D02*
X113421Y89470D01*
X42717Y87992D02*
X47343Y83366D01*
X191634Y32283D02*
Y32480D01*
X180827Y21476D02*
X191634Y32283D01*
X99740Y27559D02*
X99937Y27362D01*
X92323Y27559D02*
X99740D01*
X92618Y46654D02*
X100724D01*
X92421Y46457D02*
X92618Y46654D01*
X45039Y49055D02*
X50295Y43799D01*
X39961Y49055D02*
X45039D01*
X39961Y39055D02*
X50374D01*
X39961Y34055D02*
X50394D01*
X54331Y26870D02*
X56516Y29055D01*
X47884Y26870D02*
X54331D01*
X60984Y23819D02*
X61221Y24055D01*
X54528Y23819D02*
X60984D01*
X74803Y17618D02*
X99937D01*
X63366Y29055D02*
X74803Y17618D01*
X61221Y29055D02*
X63366D01*
X56516D02*
X61221D01*
X210431Y51329D02*
X210579Y51181D01*
X197047Y88724D02*
Y156604D01*
X24409Y29055D02*
X39961D01*
X174606Y112795D02*
X179626Y117815D01*
X174606Y89524D02*
Y112795D01*
Y89524D02*
X176075Y88055D01*
X179626Y117815D02*
X184055Y122244D01*
Y156604D01*
X168110Y130905D02*
X179724Y142520D01*
X168110Y89433D02*
Y130905D01*
X166732Y88055D02*
X168110Y89433D01*
X179724Y142520D02*
Y156604D01*
X210579Y50984D02*
X210770Y51176D01*
X210283Y51181D02*
X210431Y51329D01*
X200787Y51181D02*
X210283D01*
X173476Y21476D02*
X180827D01*
X38091Y39055D02*
X39961D01*
X221954Y51176D02*
X222146Y50984D01*
X210770Y51176D02*
X221954D01*
X210579Y50984D02*
Y51181D01*
X205709Y88606D02*
Y156604D01*
X210756Y56299D02*
X219587D01*
X210579Y56476D02*
X210756Y56299D01*
X186524Y88055D02*
X188386Y89917D01*
X196378Y88055D02*
X197047Y88724D01*
X34154Y52992D02*
X38091Y49055D01*
X182972Y53561D02*
Y68799D01*
X33296Y39440D02*
X33487Y39249D01*
Y38658D02*
Y39249D01*
X192126Y37518D02*
Y72835D01*
X29528Y46949D02*
X29719Y46758D01*
X210039Y156604D02*
X211114Y155529D01*
Y127864D02*
Y155529D01*
X216142Y88055D02*
X216779D01*
X205709Y88606D02*
X206260Y88055D01*
X113421Y90108D02*
X113878Y90565D01*
Y96850D01*
X192126Y37518D02*
X208167Y21476D01*
X210579D01*
X171065D02*
X173476D01*
X63090Y19055D02*
X68727Y13418D01*
X113421Y79013D02*
X113878Y78556D01*
Y71850D02*
Y78556D01*
X175888Y46476D02*
X182972Y53561D01*
X173476Y46476D02*
X175888D01*
X113126Y110484D02*
Y110531D01*
Y110484D02*
X137783Y85827D01*
Y33610D02*
Y85827D01*
X186496Y88055D02*
X186524D01*
X188386Y156604D02*
X188484Y156703D01*
X205610Y156703D02*
X205709Y156604D01*
X197047D02*
X197146Y156703D01*
X163007Y13418D02*
X171065Y21476D01*
X68727Y13418D02*
X163007D01*
X61221Y19055D02*
X63090D01*
X38091Y49055D02*
X38248D01*
X33487Y38658D02*
X38091Y34055D01*
X30388Y46758D02*
X38091Y39055D01*
X29719Y46758D02*
X30388D01*
X105118Y62008D02*
X111362D01*
X176075Y88055D02*
X176614D01*
X173031Y56921D02*
X173476Y56476D01*
X173031Y56921D02*
Y61909D01*
X38091Y44055D02*
X39961D01*
X102756Y110531D02*
X113126D01*
X113421Y89470D02*
Y90108D01*
D23*
X217677Y146250D02*
D03*
X197047Y156604D02*
D03*
X201378D02*
D03*
X205709D02*
D03*
X210039D02*
D03*
X192717D02*
D03*
X188386D02*
D03*
X184055D02*
D03*
X179724D02*
D03*
D24*
X217677Y110817D02*
D03*
D25*
X163012Y109518D02*
D03*
D26*
X210591Y106388D02*
D03*
X179961D02*
D03*
D27*
X219272Y154715D02*
D03*
D28*
X162618Y154124D02*
D03*
D29*
X210579Y56476D02*
D03*
Y51476D02*
D03*
Y46476D02*
D03*
Y41476D02*
D03*
Y36476D02*
D03*
Y31476D02*
D03*
Y26476D02*
D03*
Y21476D02*
D03*
X173476D02*
D03*
Y26476D02*
D03*
Y31476D02*
D03*
Y36476D02*
D03*
Y41476D02*
D03*
Y46476D02*
D03*
Y51476D02*
D03*
Y56476D02*
D03*
D30*
X61221Y19055D02*
D03*
Y24055D02*
D03*
Y29055D02*
D03*
Y34055D02*
D03*
Y39055D02*
D03*
Y44055D02*
D03*
Y49055D02*
D03*
X39961Y19055D02*
D03*
Y24055D02*
D03*
Y29055D02*
D03*
Y34055D02*
D03*
Y39055D02*
D03*
Y44055D02*
D03*
Y49055D02*
D03*
D31*
X159744Y51547D02*
D03*
Y42547D02*
D03*
D32*
X70135Y57579D02*
D03*
X61135D02*
D03*
D33*
X150098Y49976D02*
D03*
Y42976D02*
D03*
D34*
X68138Y160335D02*
D03*
X60138D02*
D03*
D35*
X68272Y150000D02*
D03*
X60272D02*
D03*
X121421Y110827D02*
D03*
X113421D02*
D03*
Y90108D02*
D03*
X121421D02*
D03*
X121224Y61909D02*
D03*
X113224D02*
D03*
X113421Y79651D02*
D03*
X121421D02*
D03*
X108134Y37008D02*
D03*
X100134D02*
D03*
X100724Y46654D02*
D03*
X108724D02*
D03*
X107937Y27362D02*
D03*
X99937D02*
D03*
Y17618D02*
D03*
X107937D02*
D03*
X35100Y114202D02*
D03*
X27100D02*
D03*
X152917Y26476D02*
D03*
X144917D02*
D03*
X51315Y114567D02*
D03*
X59315D02*
D03*
D36*
X216142Y88055D02*
D03*
Y80055D02*
D03*
X206260D02*
D03*
Y88055D02*
D03*
X196378D02*
D03*
Y80055D02*
D03*
X186496D02*
D03*
Y88055D02*
D03*
X176614D02*
D03*
Y80055D02*
D03*
X166732D02*
D03*
Y88055D02*
D03*
D37*
X10827Y135728D02*
D03*
X239173D02*
D03*
Y34928D02*
D03*
D58*
X10827Y156398D02*
D03*
Y14665D02*
D03*
X239173D02*
D03*
Y156398D02*
D03*
D59*
X192717Y123130D02*
Y156604D01*
X121421Y110189D02*
X122049Y110817D01*
X61221Y49055D02*
X75461D01*
X61135Y49140D02*
Y57579D01*
X57395Y61319D02*
X61135Y57579D01*
X39075Y61319D02*
X57395D01*
X121224Y59197D02*
Y61909D01*
X117059Y55032D02*
X121224Y59197D01*
X81437Y55032D02*
X117059D01*
X159744Y75071D02*
X164728Y80055D01*
X159744Y51547D02*
Y75071D01*
X166095Y80055D02*
X166732D01*
X133967Y110817D02*
X164728Y80055D01*
X122049Y110817D02*
X133967D01*
X206260Y80055D02*
X216142D01*
X196378D02*
X206260D01*
X186496D02*
X196378D01*
X176614D02*
X186496D01*
X166732D02*
X176614D01*
X173441Y51512D02*
X173476Y51476D01*
X35100Y65294D02*
X39075Y61319D01*
X35100Y65294D02*
Y114202D01*
X27100Y127021D02*
X44075Y143996D01*
X27100Y114202D02*
Y127021D01*
X35100Y119530D02*
X38700Y123130D01*
X35100Y114202D02*
Y119530D01*
X158945Y50748D02*
X159744Y51547D01*
X150870Y50748D02*
X158945D01*
X150098Y49976D02*
X150870Y50748D01*
X121421Y110189D02*
Y110827D01*
Y79651D02*
Y90108D01*
Y62106D02*
Y79651D01*
X216303Y80216D02*
X223130D01*
X216142Y80055D02*
X216303Y80216D01*
X75461Y49055D02*
X81437Y55032D01*
X159744Y51547D02*
X159780Y51512D01*
X173441D01*
X121224Y61909D02*
X121421Y62106D01*
X61221Y44055D02*
Y49055D01*
D60*
X122776Y143996D02*
D03*
X132776D02*
D03*
X84784D02*
D03*
X94784D02*
D03*
X34075D02*
D03*
D61*
X142776D02*
D03*
X104783D02*
D03*
D62*
X44075D02*
D03*
D63*
X8661Y103445D02*
D03*
Y85236D02*
D03*
Y67027D02*
D03*
Y76132D02*
D03*
Y48819D02*
D03*
Y94340D02*
D03*
Y57923D02*
D03*
Y39715D02*
D03*
Y30610D02*
D03*
D64*
X153051Y106496D02*
D03*
X78600Y66402D02*
D03*
X105413Y69685D02*
D03*
X212239Y96294D02*
D03*
X181428Y97835D02*
D03*
X65158Y114567D02*
D03*
X48720Y98228D02*
D03*
X192609Y123130D02*
D03*
X38700D02*
D03*
X148400Y79902D02*
D03*
X34154Y53150D02*
D03*
X50503Y80118D02*
D03*
X52362Y75295D02*
D03*
X52264Y91732D02*
D03*
X52362Y83366D02*
D03*
X48327Y87752D02*
D03*
X92421Y36811D02*
D03*
X191634Y32480D02*
D03*
X92323Y27559D02*
D03*
X92421Y46457D02*
D03*
X50295Y43799D02*
D03*
X50374Y39055D02*
D03*
X50394Y34055D02*
D03*
X47884Y26870D02*
D03*
X54528Y23819D02*
D03*
X24409Y34449D02*
D03*
X49685Y21457D02*
D03*
X48819Y94095D02*
D03*
X179626Y117815D02*
D03*
X200787Y51181D02*
D03*
X222146Y50984D02*
D03*
X219587Y56299D02*
D03*
X188386Y143701D02*
D03*
X205807Y137795D02*
D03*
X197047Y133071D02*
D03*
X223130Y80216D02*
D03*
X113878Y96850D02*
D03*
X192126Y72835D02*
D03*
X113878Y71850D02*
D03*
X182972Y68799D02*
D03*
X33296Y39440D02*
D03*
X29528Y46949D02*
D03*
X105118Y62008D02*
D03*
X39075Y61319D02*
D03*
X173031Y61909D02*
D03*
X27953Y87519D02*
D03*
X24409Y91437D02*
D03*
X20472Y95177D02*
D03*
X102756Y110531D02*
D03*
M02*
