G04*
G04 #@! TF.GenerationSoftware,Altium Limited,Altium Designer,18.1.7 (191)*
G04*
G04 Layer_Physical_Order=2*
G04 Layer_Color=16711680*
%FSLAX25Y25*%
%MOIN*%
G70*
G01*
G75*
%ADD12C,0.01000*%
%ADD55C,0.15748*%
%ADD56C,0.02000*%
%ADD57C,0.04000*%
%ADD58C,0.07000*%
%ADD59R,0.07000X0.07000*%
%ADD60R,0.07000X0.07000*%
%ADD61C,0.02000*%
%ADD62R,0.11811X0.02402*%
G36*
X10000Y169122D02*
X229323D01*
X229331Y169121D01*
X240297D01*
X241559Y168996D01*
X243057Y168542D01*
X244438Y167804D01*
X245649Y166810D01*
X246642Y165600D01*
X247380Y164218D01*
X247835Y162720D01*
X247979Y161254D01*
X247961Y161161D01*
Y146990D01*
X247960Y146868D01*
X247961Y146864D01*
Y24516D01*
X247959Y24508D01*
Y19174D01*
X247459Y19049D01*
X247005Y19898D01*
X245834Y21326D01*
X244406Y22497D01*
X242778Y23368D01*
X241011Y23904D01*
X239173Y24085D01*
X237336Y23904D01*
X235569Y23368D01*
X233940Y22497D01*
X232513Y21326D01*
X231341Y19898D01*
X230471Y18270D01*
X229935Y16503D01*
X229754Y14665D01*
X229935Y12828D01*
X230471Y11061D01*
X231341Y9432D01*
X232513Y8005D01*
X233940Y6833D01*
X235569Y5963D01*
X237336Y5427D01*
X239173Y5246D01*
X241011Y5427D01*
X242778Y5963D01*
X244406Y6833D01*
X245834Y8005D01*
X247005Y9432D01*
X247459Y10282D01*
X247959Y10156D01*
Y9604D01*
X247835Y8343D01*
X247380Y6844D01*
X246642Y5463D01*
X245649Y4253D01*
X244438Y3259D01*
X243057Y2521D01*
X241559Y2067D01*
X240093Y1922D01*
X240000Y1941D01*
X20382D01*
X20374Y1942D01*
X9703D01*
X8442Y2067D01*
X6943Y2521D01*
X5562Y3259D01*
X4351Y4253D01*
X3358Y5463D01*
X2620Y6844D01*
X2165Y8343D01*
X2021Y9809D01*
X2039Y9902D01*
Y10159D01*
X2539Y10285D01*
X2995Y9432D01*
X4166Y8005D01*
X5594Y6833D01*
X7222Y5963D01*
X8989Y5427D01*
X10827Y5246D01*
X12664Y5427D01*
X14431Y5963D01*
X16060Y6833D01*
X17487Y8005D01*
X18659Y9432D01*
X19529Y11061D01*
X20065Y12828D01*
X20246Y14665D01*
X20065Y16503D01*
X19529Y18270D01*
X18659Y19898D01*
X17487Y21326D01*
X16060Y22497D01*
X14431Y23368D01*
X12664Y23904D01*
X10827Y24085D01*
X8989Y23904D01*
X7222Y23368D01*
X5594Y22497D01*
X4166Y21326D01*
X2995Y19898D01*
X2539Y19046D01*
X2039Y19171D01*
Y24073D01*
X2041Y24293D01*
X2039Y24301D01*
Y146842D01*
X2041Y146850D01*
Y151889D01*
X2541Y152014D01*
X2995Y151164D01*
X4166Y149737D01*
X5594Y148566D01*
X7222Y147695D01*
X8989Y147159D01*
X10827Y146978D01*
X12664Y147159D01*
X14431Y147695D01*
X16060Y148566D01*
X17487Y149737D01*
X18659Y151164D01*
X19529Y152793D01*
X20065Y154560D01*
X20246Y156398D01*
X20065Y158235D01*
X19529Y160002D01*
X18659Y161631D01*
X17487Y163058D01*
X16060Y164230D01*
X14431Y165100D01*
X12664Y165636D01*
X10827Y165817D01*
X8989Y165636D01*
X7222Y165100D01*
X5594Y164230D01*
X4166Y163058D01*
X2995Y161631D01*
X2541Y160781D01*
X2041Y160907D01*
Y161459D01*
X2165Y162720D01*
X2620Y164218D01*
X3358Y165600D01*
X4351Y166810D01*
X5562Y167804D01*
X6943Y168542D01*
X8442Y168996D01*
X9907Y169141D01*
X10000Y169122D01*
D02*
G37*
%LPC*%
G36*
X132776Y149039D02*
X131470Y148867D01*
X130254Y148364D01*
X129209Y147562D01*
X128408Y146518D01*
X128046Y145644D01*
X127505D01*
X127143Y146518D01*
X126342Y147562D01*
X125297Y148364D01*
X124081Y148867D01*
X122776Y149039D01*
X121470Y148867D01*
X120254Y148364D01*
X119210Y147562D01*
X118408Y146518D01*
X117904Y145301D01*
X117732Y143996D01*
X117904Y142691D01*
X118408Y141474D01*
X119210Y140430D01*
X120254Y139629D01*
X121470Y139125D01*
X122776Y138953D01*
X124081Y139125D01*
X124563Y139325D01*
X132259Y131629D01*
X132920Y131187D01*
X133701Y131032D01*
X133701Y131032D01*
X195599D01*
X196072Y130716D01*
X196629Y130605D01*
X224634Y102600D01*
Y96947D01*
X224172Y96755D01*
X195995Y124932D01*
X195168Y125485D01*
X194193Y125679D01*
X38976D01*
X38838Y125651D01*
X38700Y125679D01*
X37725Y125485D01*
X36898Y124932D01*
X36345Y124105D01*
X36151Y123130D01*
X36345Y122154D01*
X36898Y121327D01*
X37725Y120775D01*
X38700Y120581D01*
X38838Y120608D01*
X38976Y120581D01*
X178366D01*
X178517Y120081D01*
X177824Y119617D01*
X177271Y118790D01*
X177160Y118233D01*
X175533Y116606D01*
X66606D01*
X66133Y116922D01*
X65158Y117116D01*
X64182Y116922D01*
X63355Y116369D01*
X62802Y115542D01*
X62608Y114567D01*
X62802Y113592D01*
X63151Y113071D01*
X62883Y112571D01*
X51161D01*
X50381Y112416D01*
X49720Y111973D01*
X44721Y106975D01*
X8661Y106975D01*
X7748Y106855D01*
X6896Y106502D01*
X6165Y105941D01*
X5604Y105210D01*
X5252Y104358D01*
X5131Y103445D01*
X5252Y102531D01*
X5604Y101680D01*
X6165Y100949D01*
X6896Y100388D01*
X7748Y100035D01*
X8661Y99915D01*
Y97871D01*
X7748Y97751D01*
X6896Y97398D01*
X6165Y96837D01*
X5604Y96106D01*
X5252Y95254D01*
X5131Y94340D01*
X5252Y93427D01*
X5604Y92575D01*
X6165Y91844D01*
X6896Y91283D01*
X7748Y90931D01*
X8661Y90810D01*
Y88766D01*
X7748Y88646D01*
X6896Y88293D01*
X6165Y87732D01*
X5604Y87001D01*
X5252Y86150D01*
X5131Y85236D01*
X5252Y84323D01*
X5604Y83471D01*
X6165Y82740D01*
X6896Y82179D01*
X7748Y81826D01*
X8661Y81706D01*
Y79662D01*
X7748Y79542D01*
X6896Y79189D01*
X6165Y78628D01*
X5604Y77897D01*
X5252Y77046D01*
X5131Y76132D01*
X5252Y75218D01*
X5604Y74367D01*
X6165Y73636D01*
X6896Y73075D01*
X7748Y72722D01*
X8661Y72602D01*
Y70558D01*
X7748Y70438D01*
X6896Y70085D01*
X6165Y69524D01*
X5604Y68793D01*
X5252Y67941D01*
X5131Y67027D01*
X5252Y66114D01*
X5604Y65263D01*
X6165Y64531D01*
X6896Y63970D01*
X7748Y63618D01*
X8661Y63497D01*
Y61453D01*
X7748Y61333D01*
X6896Y60980D01*
X6165Y60419D01*
X5604Y59688D01*
X5252Y58837D01*
X5131Y57923D01*
X5252Y57010D01*
X5604Y56158D01*
X6165Y55427D01*
X6896Y54866D01*
X7748Y54513D01*
X8661Y54393D01*
Y52349D01*
X7748Y52229D01*
X6896Y51876D01*
X6165Y51315D01*
X5604Y50584D01*
X5252Y49733D01*
X5131Y48819D01*
X5252Y47905D01*
X5604Y47054D01*
X6165Y46323D01*
X6896Y45762D01*
X7748Y45409D01*
X8661Y45289D01*
Y43245D01*
X7748Y43124D01*
X6896Y42772D01*
X6165Y42211D01*
X5604Y41480D01*
X5252Y40628D01*
X5131Y39715D01*
X5252Y38801D01*
X5604Y37949D01*
X6165Y37218D01*
X6896Y36657D01*
X7748Y36305D01*
X8661Y36184D01*
Y34140D01*
X7748Y34020D01*
X6896Y33667D01*
X6165Y33106D01*
X5604Y32375D01*
X5252Y31524D01*
X5131Y30610D01*
X5252Y29697D01*
X5604Y28845D01*
X6165Y28114D01*
X6896Y27553D01*
X7748Y27200D01*
X8661Y27080D01*
X9575Y27200D01*
X10426Y27553D01*
X11158Y28114D01*
X11508Y28571D01*
X38091D01*
X47794Y19787D01*
X47883Y19654D01*
X48104Y19506D01*
X54936Y13322D01*
X55598Y12880D01*
X56378Y12725D01*
X215256D01*
X216036Y12880D01*
X216698Y13322D01*
X223588Y20212D01*
X224030Y20873D01*
X224185Y21654D01*
X224185Y21654D01*
Y49536D01*
X224501Y50009D01*
X224695Y50984D01*
X224501Y51960D01*
X223948Y52787D01*
X223121Y53339D01*
X222146Y53533D01*
X221820Y53468D01*
X221637Y53666D01*
X221484Y53911D01*
X221626Y54626D01*
Y54851D01*
X221942Y55324D01*
X222052Y55881D01*
X239139Y72967D01*
X239581Y73629D01*
X239736Y74410D01*
Y120965D01*
X239736Y120965D01*
X239581Y121745D01*
X239139Y122406D01*
X216403Y145143D01*
X215741Y145585D01*
X214961Y145740D01*
X189834D01*
X189361Y146056D01*
X188386Y146250D01*
X187410Y146056D01*
X186938Y145740D01*
X147776D01*
Y148996D01*
X137776D01*
Y146297D01*
X137276Y146198D01*
X137143Y146518D01*
X136342Y147562D01*
X135297Y148364D01*
X134081Y148867D01*
X132776Y149039D01*
D02*
G37*
G36*
X94784D02*
X93478Y148867D01*
X92262Y148364D01*
X91217Y147562D01*
X90416Y146518D01*
X90054Y145644D01*
X89513D01*
X89151Y146518D01*
X88349Y147562D01*
X87305Y148364D01*
X86089Y148867D01*
X84784Y149039D01*
X83478Y148867D01*
X82262Y148364D01*
X81217Y147562D01*
X80416Y146518D01*
X79912Y145301D01*
X79740Y143996D01*
X79912Y142691D01*
X80416Y141474D01*
X81217Y140430D01*
X82262Y139629D01*
X83478Y139125D01*
X84784Y138953D01*
X86089Y139125D01*
X87305Y139629D01*
X88349Y140430D01*
X89151Y141474D01*
X89513Y142348D01*
X90054D01*
X90416Y141474D01*
X91217Y140430D01*
X92262Y139629D01*
X93478Y139125D01*
X94784Y138953D01*
X96089Y139125D01*
X97305Y139629D01*
X98349Y140430D01*
X99151Y141474D01*
X99283Y141794D01*
X99783Y141695D01*
Y138996D01*
X109783D01*
Y148996D01*
X99783D01*
Y146297D01*
X99283Y146198D01*
X99151Y146518D01*
X98349Y147562D01*
X97305Y148364D01*
X96089Y148867D01*
X94784Y149039D01*
D02*
G37*
G36*
X33575Y148469D02*
X32900Y148380D01*
X31805Y147927D01*
X30865Y147205D01*
X30144Y146265D01*
X29691Y145171D01*
X29602Y144496D01*
X33575D01*
Y148469D01*
D02*
G37*
G36*
X49075Y148996D02*
X39075D01*
Y144324D01*
X38575Y144291D01*
X38459Y145171D01*
X38006Y146265D01*
X37284Y147205D01*
X36344Y147927D01*
X35250Y148380D01*
X34575Y148469D01*
Y143996D01*
Y139523D01*
X35250Y139612D01*
X36344Y140065D01*
X37284Y140787D01*
X38006Y141727D01*
X38459Y142821D01*
X38575Y143701D01*
X39075Y143668D01*
Y138996D01*
X49075D01*
Y148996D01*
D02*
G37*
G36*
X33575Y143496D02*
X29602D01*
X29691Y142821D01*
X30144Y141727D01*
X30865Y140787D01*
X31805Y140065D01*
X32900Y139612D01*
X33575Y139523D01*
Y143496D01*
D02*
G37*
%LPD*%
G36*
X220581Y93137D02*
Y80216D01*
X220775Y79241D01*
X221327Y78414D01*
X222154Y77862D01*
X223130Y77668D01*
X224105Y77862D01*
X224193Y77920D01*
X224634Y77684D01*
Y74860D01*
X202994Y53220D01*
X202235D01*
X201763Y53536D01*
X200787Y53730D01*
X199812Y53536D01*
X198985Y52983D01*
X198432Y52157D01*
X198238Y51181D01*
X198432Y50206D01*
X198985Y49379D01*
X199812Y48826D01*
X200787Y48632D01*
X201763Y48826D01*
X202235Y49142D01*
X203839D01*
X204619Y49297D01*
X205280Y49739D01*
X227817Y72275D01*
X228345Y72097D01*
X228371Y71904D01*
X191462Y34995D01*
X190658Y34835D01*
X189831Y34283D01*
X189279Y33456D01*
X189085Y32480D01*
X189279Y31505D01*
X189831Y30678D01*
X190658Y30125D01*
X191356Y29987D01*
X191521Y29444D01*
X185868Y23791D01*
X165608D01*
X138548Y50851D01*
X137887Y51293D01*
X137106Y51449D01*
X54315D01*
Y57080D01*
X102229Y57080D01*
X103009Y57235D01*
X103671Y57677D01*
X105536Y59542D01*
X106094Y59653D01*
X106492Y59920D01*
X171510D01*
X172056Y59554D01*
X173031Y59360D01*
X174007Y59554D01*
X174834Y60107D01*
X175386Y60934D01*
X175581Y61909D01*
X175386Y62885D01*
X174834Y63712D01*
X174007Y64264D01*
X173031Y64458D01*
X172056Y64264D01*
X171657Y63998D01*
X106640D01*
X106094Y64363D01*
X105536Y64474D01*
X88942Y81068D01*
X88280Y81510D01*
X87500Y81665D01*
X68126D01*
Y85299D01*
Y89236D01*
Y93173D01*
Y97110D01*
Y101047D01*
Y105449D01*
X68112Y108138D01*
X68465Y108492D01*
X101308D01*
X101780Y108177D01*
X102756Y107983D01*
X103731Y108177D01*
X104558Y108729D01*
X105111Y109556D01*
X105305Y110531D01*
X105111Y111507D01*
X104763Y112028D01*
X105030Y112528D01*
X176378D01*
X177158Y112683D01*
X177820Y113125D01*
X180044Y115349D01*
X180601Y115460D01*
X181428Y116013D01*
X181981Y116840D01*
X182175Y117815D01*
X181981Y118790D01*
X181428Y119617D01*
X180735Y120081D01*
X180886Y120581D01*
X193137D01*
X220581Y93137D01*
D02*
G37*
G36*
X102234Y62008D02*
X101384Y61158D01*
X54315Y61158D01*
Y65614D01*
X60720D01*
Y67815D01*
X61221D01*
Y68315D01*
X68126D01*
Y69551D01*
Y71252D01*
X61221D01*
Y72252D01*
X68126D01*
Y73488D01*
Y75189D01*
X61221D01*
Y76189D01*
X68126D01*
Y77425D01*
Y77587D01*
X86655D01*
X102234Y62008D01*
D02*
G37*
%LPC*%
G36*
X153551Y107365D02*
Y106996D01*
X153920D01*
X153772Y107217D01*
X153551Y107365D01*
D02*
G37*
G36*
X152551D02*
X152330Y107217D01*
X152183Y106996D01*
X152551D01*
Y107365D01*
D02*
G37*
G36*
X153920Y105996D02*
X153551D01*
Y105628D01*
X153772Y105775D01*
X153920Y105996D01*
D02*
G37*
G36*
X152551D02*
X152183D01*
X152330Y105775D01*
X152551Y105628D01*
Y105996D01*
D02*
G37*
G36*
X181928Y98703D02*
Y98335D01*
X182297D01*
X182149Y98556D01*
X181928Y98703D01*
D02*
G37*
G36*
X180928D02*
X180707Y98556D01*
X180560Y98335D01*
X180928D01*
Y98703D01*
D02*
G37*
G36*
X182297Y97335D02*
X181928D01*
Y96966D01*
X182149Y97114D01*
X182297Y97335D01*
D02*
G37*
G36*
X180928D02*
X180560D01*
X180707Y97114D01*
X180928Y96966D01*
Y97335D01*
D02*
G37*
G36*
X212739Y97163D02*
Y96794D01*
X213108D01*
X212960Y97015D01*
X212739Y97163D01*
D02*
G37*
G36*
X211739D02*
X211518Y97015D01*
X211371Y96794D01*
X211739D01*
Y97163D01*
D02*
G37*
G36*
X213108Y95794D02*
X212739D01*
Y95426D01*
X212960Y95573D01*
X213108Y95794D01*
D02*
G37*
G36*
X211739D02*
X211371D01*
X211518Y95573D01*
X211739Y95426D01*
Y95794D01*
D02*
G37*
G36*
X148900Y80770D02*
Y80402D01*
X149269D01*
X149121Y80623D01*
X148900Y80770D01*
D02*
G37*
G36*
X147900D02*
X147679Y80623D01*
X147531Y80402D01*
X147900D01*
Y80770D01*
D02*
G37*
G36*
X149269Y79402D02*
X148900D01*
Y79033D01*
X149121Y79181D01*
X149269Y79402D01*
D02*
G37*
G36*
X147900D02*
X147531D01*
X147679Y79181D01*
X147900Y79033D01*
Y79402D01*
D02*
G37*
G36*
X113878Y99399D02*
X112902Y99205D01*
X112075Y98653D01*
X111523Y97826D01*
X111329Y96850D01*
X111523Y95875D01*
X112075Y95048D01*
X112902Y94495D01*
X113878Y94301D01*
X114853Y94495D01*
X115326Y94811D01*
X167266D01*
X189660Y72417D01*
X189771Y71859D01*
X190324Y71032D01*
X191150Y70480D01*
X192126Y70286D01*
X193101Y70480D01*
X193928Y71032D01*
X194481Y71859D01*
X194675Y72835D01*
X194481Y73810D01*
X193928Y74637D01*
X193101Y75190D01*
X192544Y75301D01*
X169552Y98292D01*
X168891Y98734D01*
X168110Y98890D01*
X115326D01*
X114853Y99205D01*
X113878Y99399D01*
D02*
G37*
G36*
X105913Y70554D02*
Y70185D01*
X106282D01*
X106134Y70406D01*
X105913Y70554D01*
D02*
G37*
G36*
X104913D02*
X104692Y70406D01*
X104545Y70185D01*
X104913D01*
Y70554D01*
D02*
G37*
G36*
X106282Y69185D02*
X105913D01*
Y68816D01*
X106134Y68964D01*
X106282Y69185D01*
D02*
G37*
G36*
X104913D02*
X104545D01*
X104692Y68964D01*
X104913Y68816D01*
Y69185D01*
D02*
G37*
G36*
X113878Y74399D02*
X112902Y74205D01*
X112075Y73653D01*
X111523Y72826D01*
X111329Y71850D01*
X111523Y70875D01*
X112075Y70048D01*
X112902Y69495D01*
X113878Y69301D01*
X114853Y69495D01*
X115326Y69811D01*
X179077D01*
X180507Y68381D01*
X180617Y67824D01*
X181170Y66997D01*
X181997Y66444D01*
X182972Y66250D01*
X183948Y66444D01*
X184775Y66997D01*
X185327Y67824D01*
X185521Y68799D01*
X185327Y69775D01*
X184775Y70602D01*
X183948Y71154D01*
X183390Y71265D01*
X181363Y73292D01*
X180702Y73734D01*
X179921Y73890D01*
X115326D01*
X114853Y74205D01*
X113878Y74399D01*
D02*
G37*
G36*
X79100Y67270D02*
Y66902D01*
X79469D01*
X79321Y67123D01*
X79100Y67270D01*
D02*
G37*
G36*
X78100D02*
X77879Y67123D01*
X77731Y66902D01*
X78100D01*
Y67270D01*
D02*
G37*
G36*
X68126Y67315D02*
X61721D01*
Y65614D01*
X68126D01*
Y67315D01*
D02*
G37*
G36*
X79469Y65902D02*
X79100D01*
Y65533D01*
X79321Y65681D01*
X79469Y65902D01*
D02*
G37*
G36*
X78100D02*
X77731D01*
X77879Y65681D01*
X78100Y65533D01*
Y65902D01*
D02*
G37*
%LPD*%
D12*
X176378Y114567D02*
X179626Y117815D01*
X65158Y114567D02*
X176378D01*
X47638Y99311D02*
X48720Y98228D01*
X39173Y99311D02*
X47638D01*
X8661Y94340D02*
X13632Y99311D01*
X39173D01*
X8661Y48819D02*
X10531Y46949D01*
X29528D01*
X31988Y49409D01*
X8661Y57923D02*
X10215Y56369D01*
X30934D01*
X8661Y67027D02*
X16570Y59119D01*
X17126D01*
X105118Y61909D02*
X105167Y61959D01*
X8661Y76132D02*
X12156Y79626D01*
X39173D01*
X8661Y85236D02*
X10335Y83563D01*
X39173D01*
X20669Y95374D02*
X20768Y95276D01*
X61221Y75689D02*
X64613D01*
X17126Y59119D02*
X102229Y59119D01*
X31988Y49409D02*
X137106D01*
X50295Y43799D02*
X89764D01*
X50374Y39055D02*
X90177D01*
X50394Y34055D02*
X85827D01*
X102229Y59119D02*
X105118Y62008D01*
X8957Y39440D02*
X33296D01*
X30934Y56369D02*
X34154Y53150D01*
X46812Y82027D02*
X48720Y80118D01*
X49251Y75295D02*
X52362D01*
X52116Y91585D02*
X52264Y91732D01*
X52362Y83366D02*
X52461Y83465D01*
X46457Y78090D02*
X49251Y75295D01*
X45414Y78090D02*
X46457D01*
X48201Y87626D02*
X48327Y87752D01*
X122776Y143996D02*
X133701Y133071D01*
X132776Y143996D02*
X138976Y137795D01*
X142776Y143996D02*
X143071Y143701D01*
X188386D01*
X45414Y82027D02*
X46812D01*
X90177Y39055D02*
X92421Y36811D01*
X191634Y32480D02*
X191831D01*
X230610Y71260D01*
X85827Y34055D02*
X92323Y27559D01*
X89764Y43799D02*
X92421Y46457D01*
X137106Y49409D02*
X164764Y21752D01*
X219587Y54626D02*
Y56299D01*
X186713Y21752D02*
X219587Y54626D01*
X164764Y21752D02*
X186713D01*
X44144Y30610D02*
X47884Y26870D01*
X8661Y30610D02*
X44144D01*
X43898Y34449D02*
X54528Y23819D01*
X24409Y34449D02*
X43898D01*
X49685Y21457D02*
X56378Y14764D01*
X48548Y94095D02*
X48819D01*
X47269Y95374D02*
X48548Y94095D01*
X27972Y87500D02*
X27981Y87509D01*
X200787Y51181D02*
X203839D01*
X226673Y74016D01*
Y103445D01*
X197047Y133071D02*
X226673Y103445D01*
X230610Y71260D02*
Y112992D01*
X222146Y21654D02*
Y50984D01*
X215256Y14764D02*
X222146Y21654D01*
X56378Y14764D02*
X215256D01*
X205807Y137795D02*
X230610Y112992D01*
X219587Y56299D02*
X237697Y74410D01*
Y120965D01*
X214961Y143701D02*
X237697Y120965D01*
X188386Y143701D02*
X214961D01*
X138976Y137795D02*
X205807D01*
X133701Y133071D02*
X197047D01*
X27981Y87509D02*
X39164D01*
X51161Y110531D02*
X102756D01*
X39075Y103347D02*
X39173Y103248D01*
X20768Y95276D02*
X39075D01*
X172982Y61959D02*
X173031Y61909D01*
X105167Y61959D02*
X172982D01*
X39173Y95374D02*
X47269D01*
X113878Y96850D02*
X168110D01*
X192126Y72835D01*
X179921Y71850D02*
X182972Y68799D01*
X113878Y71850D02*
X179921D01*
X87500Y79626D02*
X105118Y62008D01*
X39075Y67716D02*
X39173Y67815D01*
X61221Y79626D02*
X87500D01*
X52461Y83465D02*
X61122D01*
X61221Y83563D01*
X39321Y91585D02*
X52116D01*
X39173Y103248D02*
X43878D01*
X51161Y110531D01*
X39173Y91437D02*
X39321Y91585D01*
X39299Y87626D02*
X48201D01*
X39173Y87500D02*
X39299Y87626D01*
X43878Y79626D02*
X45414Y78090D01*
X39173Y83563D02*
X43878D01*
X45414Y82027D01*
X39075Y95276D02*
X39173Y95374D01*
X24409Y91437D02*
X39173D01*
X39164Y87509D02*
X39173Y87500D01*
X8661Y103445D02*
X8760Y103347D01*
X39075D01*
D55*
X10827Y156398D02*
D03*
Y14665D02*
D03*
X239173D02*
D03*
Y156398D02*
D03*
D56*
X192609Y123130D02*
X194193D01*
X223130Y94193D01*
X38976Y123130D02*
X192609D01*
X223130Y80216D02*
Y94193D01*
X39075Y61319D02*
Y67716D01*
D57*
X8661Y103445D02*
D03*
Y85236D02*
D03*
Y67027D02*
D03*
Y76132D02*
D03*
Y48819D02*
D03*
Y94340D02*
D03*
Y57923D02*
D03*
Y39715D02*
D03*
Y30610D02*
D03*
D58*
X84784Y143996D02*
D03*
X94784D02*
D03*
X132776D02*
D03*
X122776D02*
D03*
X34075D02*
D03*
D59*
X104783D02*
D03*
X142776D02*
D03*
D60*
X44075D02*
D03*
D61*
X153051Y106496D02*
D03*
X78600Y66402D02*
D03*
X105413Y69685D02*
D03*
X212239Y96294D02*
D03*
X181428Y97835D02*
D03*
X65158Y114567D02*
D03*
X48720Y98228D02*
D03*
X192609Y123130D02*
D03*
X38700D02*
D03*
X148400Y79902D02*
D03*
X34154Y53150D02*
D03*
X48720Y80118D02*
D03*
X52362Y75295D02*
D03*
X52264Y91732D02*
D03*
X52362Y83366D02*
D03*
X48327Y87752D02*
D03*
X92421Y36811D02*
D03*
X191634Y32480D02*
D03*
X92323Y27559D02*
D03*
X92421Y46457D02*
D03*
X50295Y43799D02*
D03*
X50374Y39055D02*
D03*
X50394Y34055D02*
D03*
X47884Y26870D02*
D03*
X54528Y23819D02*
D03*
X24409Y34449D02*
D03*
X49685Y21457D02*
D03*
X48819Y94095D02*
D03*
X179626Y117815D02*
D03*
X200787Y51181D02*
D03*
X222146Y50984D02*
D03*
X219587Y56299D02*
D03*
X188386Y143701D02*
D03*
X205807Y137795D02*
D03*
X197047Y133071D02*
D03*
X223130Y80216D02*
D03*
X113878Y96850D02*
D03*
X192126Y72835D02*
D03*
X113878Y71850D02*
D03*
X182972Y68799D02*
D03*
X33296Y39440D02*
D03*
X29528Y46949D02*
D03*
X105118Y62008D02*
D03*
X39075Y61319D02*
D03*
X173031Y61909D02*
D03*
X27953Y87519D02*
D03*
X24409Y91437D02*
D03*
X20472Y95177D02*
D03*
X102756Y110531D02*
D03*
D62*
X61221Y103248D02*
D03*
Y99311D02*
D03*
Y95374D02*
D03*
Y91437D02*
D03*
Y87500D02*
D03*
Y83563D02*
D03*
Y79626D02*
D03*
Y75689D02*
D03*
Y71752D02*
D03*
Y67815D02*
D03*
X39173D02*
D03*
Y71752D02*
D03*
Y75689D02*
D03*
Y79626D02*
D03*
Y83563D02*
D03*
Y87500D02*
D03*
Y91437D02*
D03*
Y95374D02*
D03*
Y99311D02*
D03*
Y103248D02*
D03*
M02*
