G04*
G04 #@! TF.GenerationSoftware,Altium Limited,Altium Designer,18.1.7 (191)*
G04*
G04 Layer_Color=65535*
%FSLAX25Y25*%
%MOIN*%
G70*
G01*
G75*
%ADD10C,0.00787*%
%ADD11C,0.00472*%
%ADD12C,0.01000*%
%ADD13C,0.00800*%
%ADD14C,0.00037*%
%ADD15C,0.00591*%
%ADD16C,0.00512*%
%ADD17C,0.00394*%
%ADD18C,0.00551*%
%ADD19C,0.00701*%
%ADD20C,0.00700*%
%ADD21R,0.02000X0.06000*%
%ADD22R,0.06000X0.02000*%
G36*
X87774Y107291D02*
X87845D01*
Y107220D01*
Y107149D01*
Y107077D01*
Y107006D01*
Y106934D01*
Y106863D01*
Y106792D01*
Y106720D01*
Y106649D01*
Y106577D01*
Y106506D01*
X88345D01*
Y106435D01*
X88773D01*
Y106363D01*
X88559D01*
Y106292D01*
X87845D01*
Y106220D01*
Y106149D01*
Y106078D01*
Y106006D01*
Y105935D01*
Y105864D01*
Y105792D01*
X87774D01*
Y105721D01*
Y105649D01*
Y105578D01*
Y105507D01*
Y105435D01*
Y105364D01*
X87702D01*
Y105435D01*
Y105507D01*
Y105578D01*
Y105649D01*
X87631D01*
Y105721D01*
Y105792D01*
Y105864D01*
Y105935D01*
Y106006D01*
Y106078D01*
Y106149D01*
Y106220D01*
Y106292D01*
X87202D01*
Y106363D01*
X86774D01*
Y106435D01*
X86845D01*
Y106506D01*
X87631D01*
Y106577D01*
Y106649D01*
Y106720D01*
Y106792D01*
Y106863D01*
Y106934D01*
X87702D01*
Y107006D01*
Y107077D01*
Y107149D01*
Y107220D01*
Y107291D01*
Y107363D01*
X87774D01*
Y107291D01*
D02*
G37*
G36*
X99909Y104007D02*
Y103936D01*
Y103865D01*
Y103793D01*
Y103722D01*
Y103650D01*
X99981D01*
Y103579D01*
Y103508D01*
Y103436D01*
Y103365D01*
Y103294D01*
Y103222D01*
Y103151D01*
Y103079D01*
X100695D01*
Y103008D01*
X100980D01*
Y102937D01*
X100409D01*
Y102865D01*
X99981D01*
Y102794D01*
Y102723D01*
Y102651D01*
X99909D01*
Y102580D01*
Y102508D01*
Y102437D01*
Y102366D01*
Y102294D01*
Y102223D01*
Y102151D01*
Y102080D01*
X99767D01*
Y102151D01*
Y102223D01*
Y102294D01*
Y102366D01*
Y102437D01*
Y102508D01*
Y102580D01*
Y102651D01*
Y102723D01*
Y102794D01*
Y102865D01*
X99552D01*
Y102937D01*
X98981D01*
Y103008D01*
X98839D01*
Y103079D01*
X99410D01*
Y103151D01*
X99767D01*
Y103222D01*
Y103294D01*
Y103365D01*
Y103436D01*
Y103508D01*
Y103579D01*
Y103650D01*
Y103722D01*
Y103793D01*
X99838D01*
Y103865D01*
Y103936D01*
Y104007D01*
Y104079D01*
X99909D01*
Y104007D01*
D02*
G37*
G36*
X88416Y100510D02*
X88844D01*
Y100438D01*
X89059D01*
Y100367D01*
X89273D01*
Y100295D01*
X89415D01*
Y100224D01*
X89487D01*
Y100153D01*
X89630D01*
Y100081D01*
X89701D01*
Y100010D01*
X89772D01*
Y99938D01*
X89844D01*
Y99867D01*
X89915D01*
Y99796D01*
Y99724D01*
X89986D01*
Y99653D01*
X90058D01*
Y99581D01*
Y99510D01*
X90129D01*
Y99439D01*
Y99367D01*
X90201D01*
Y99296D01*
Y99225D01*
Y99153D01*
X90272D01*
Y99082D01*
Y99010D01*
Y98939D01*
Y98868D01*
Y98796D01*
X90343D01*
Y98725D01*
Y98654D01*
Y98582D01*
Y98511D01*
Y98439D01*
Y98368D01*
Y98296D01*
Y98225D01*
Y98154D01*
Y98082D01*
Y98011D01*
X90272D01*
Y97940D01*
Y97868D01*
X90558D01*
Y97940D01*
X91057D01*
Y98011D01*
X91486D01*
Y98082D01*
X91700D01*
Y98154D01*
X91771D01*
Y98225D01*
Y98296D01*
Y98368D01*
X91843D01*
Y98439D01*
Y98511D01*
X91914D01*
Y98582D01*
Y98654D01*
Y98725D01*
X91985D01*
Y98796D01*
Y98868D01*
Y98939D01*
X92057D01*
Y99010D01*
Y99082D01*
X92128D01*
Y99153D01*
Y99225D01*
Y99296D01*
X92199D01*
Y99367D01*
Y99439D01*
Y99510D01*
X92271D01*
Y99581D01*
Y99653D01*
X92342D01*
Y99724D01*
Y99796D01*
Y99867D01*
X92414D01*
Y99938D01*
X92485D01*
Y100010D01*
X92557D01*
Y100081D01*
X92628D01*
Y100153D01*
X92699D01*
Y100224D01*
X92842D01*
Y100295D01*
X93056D01*
Y100367D01*
X93770D01*
Y100295D01*
X93984D01*
Y100224D01*
X94127D01*
Y100153D01*
X94198D01*
Y100081D01*
X94270D01*
Y100010D01*
X94341D01*
Y99938D01*
X94412D01*
Y99867D01*
Y99796D01*
X94484D01*
Y99724D01*
Y99653D01*
X94555D01*
Y99581D01*
Y99510D01*
Y99439D01*
X94627D01*
Y99367D01*
Y99296D01*
X94698D01*
Y99225D01*
Y99153D01*
Y99082D01*
X94769D01*
Y99010D01*
Y98939D01*
Y98868D01*
X94841D01*
Y98796D01*
Y98725D01*
X94912D01*
Y98654D01*
Y98582D01*
X94984D01*
Y98511D01*
X95055D01*
Y98582D01*
X95626D01*
Y98654D01*
X96340D01*
Y98725D01*
X96411D01*
Y98796D01*
Y98868D01*
X96483D01*
Y98939D01*
Y99010D01*
X96554D01*
Y99082D01*
Y99153D01*
X96626D01*
Y99225D01*
Y99296D01*
X96697D01*
Y99367D01*
X96768D01*
Y99439D01*
X96840D01*
Y99510D01*
Y99581D01*
X96911D01*
Y99653D01*
X96983D01*
Y99724D01*
X97054D01*
Y99796D01*
X97125D01*
Y99867D01*
X97268D01*
Y99938D01*
X97339D01*
Y100010D01*
X97411D01*
Y100081D01*
X97553D01*
Y100153D01*
X97696D01*
Y100224D01*
X97839D01*
Y100295D01*
X97982D01*
Y100367D01*
X98196D01*
Y100438D01*
X98482D01*
Y100510D01*
X102337D01*
Y100438D01*
Y100367D01*
Y100295D01*
Y100224D01*
Y100153D01*
Y100081D01*
Y100010D01*
Y99938D01*
Y99867D01*
Y99796D01*
Y99724D01*
Y99653D01*
Y99581D01*
Y99510D01*
X98624D01*
Y99439D01*
X98410D01*
Y99367D01*
X98267D01*
Y99296D01*
X98125D01*
Y99225D01*
X97982D01*
Y99153D01*
X97910D01*
Y99082D01*
X97839D01*
Y99010D01*
X97768D01*
Y98939D01*
X97696D01*
Y98868D01*
X97625D01*
Y98796D01*
X97982D01*
Y98868D01*
X98981D01*
Y98939D01*
X100124D01*
Y99010D01*
X101409D01*
Y99082D01*
X103550D01*
Y99153D01*
Y99225D01*
Y99296D01*
Y99367D01*
Y99439D01*
Y99510D01*
Y99581D01*
Y99653D01*
Y99724D01*
Y99796D01*
Y99867D01*
Y99938D01*
Y100010D01*
Y100081D01*
Y100153D01*
Y100224D01*
Y100295D01*
Y100367D01*
Y100438D01*
Y100510D01*
X108904D01*
Y100438D01*
Y100367D01*
Y100295D01*
Y100224D01*
Y100153D01*
Y100081D01*
Y100010D01*
Y99938D01*
Y99867D01*
Y99796D01*
Y99724D01*
Y99653D01*
Y99581D01*
Y99510D01*
X104550D01*
Y99439D01*
Y99367D01*
Y99296D01*
Y99225D01*
Y99153D01*
Y99082D01*
X108761D01*
Y99010D01*
X110046D01*
Y98939D01*
X110689D01*
Y98868D01*
X111046D01*
Y98796D01*
X111331D01*
Y98725D01*
X111545D01*
Y98654D01*
X109547D01*
Y98582D01*
X107476D01*
Y98511D01*
X105977D01*
Y98439D01*
X104692D01*
Y98368D01*
X104550D01*
Y98296D01*
Y98225D01*
Y98154D01*
Y98082D01*
Y98011D01*
X108690D01*
Y97940D01*
Y97868D01*
Y97797D01*
Y97725D01*
Y97654D01*
Y97583D01*
Y97511D01*
Y97440D01*
Y97369D01*
Y97297D01*
Y97226D01*
Y97154D01*
X104550D01*
Y97083D01*
Y97012D01*
Y96940D01*
Y96869D01*
Y96797D01*
Y96726D01*
Y96655D01*
Y96583D01*
Y96512D01*
Y96440D01*
Y96369D01*
Y96298D01*
Y96226D01*
Y96155D01*
Y96083D01*
Y96012D01*
Y95941D01*
Y95869D01*
Y95798D01*
Y95727D01*
Y95655D01*
Y95584D01*
Y95512D01*
X108904D01*
Y95441D01*
Y95370D01*
Y95298D01*
Y95227D01*
Y95156D01*
Y95084D01*
Y95013D01*
Y94941D01*
Y94870D01*
Y94799D01*
Y94727D01*
Y94656D01*
Y94584D01*
Y94513D01*
X103550D01*
Y94584D01*
Y94656D01*
Y94727D01*
Y94799D01*
Y94870D01*
Y94941D01*
Y95013D01*
Y95084D01*
Y95156D01*
Y95227D01*
Y95298D01*
Y95370D01*
Y95441D01*
Y95512D01*
Y95584D01*
Y95655D01*
Y95727D01*
Y95798D01*
Y95869D01*
Y95941D01*
Y96012D01*
Y96083D01*
Y96155D01*
Y96226D01*
Y96298D01*
Y96369D01*
Y96440D01*
Y96512D01*
Y96583D01*
Y96655D01*
Y96726D01*
Y96797D01*
Y96869D01*
Y96940D01*
Y97012D01*
Y97083D01*
Y97154D01*
Y97226D01*
Y97297D01*
Y97369D01*
Y97440D01*
Y97511D01*
Y97583D01*
Y97654D01*
Y97725D01*
Y97797D01*
Y97868D01*
Y97940D01*
Y98011D01*
Y98082D01*
Y98154D01*
Y98225D01*
Y98296D01*
X102551D01*
Y98225D01*
X101694D01*
Y98154D01*
X100837D01*
Y98082D01*
X100052D01*
Y98011D01*
X99410D01*
Y97940D01*
X98696D01*
Y97868D01*
X98053D01*
Y97797D01*
X97482D01*
Y97725D01*
X97197D01*
Y97654D01*
Y97583D01*
Y97511D01*
Y97440D01*
Y97369D01*
Y97297D01*
Y97226D01*
X97268D01*
Y97154D01*
Y97083D01*
Y97012D01*
Y96940D01*
Y96869D01*
X97339D01*
Y96797D01*
Y96726D01*
Y96655D01*
X97411D01*
Y96583D01*
Y96512D01*
X97482D01*
Y96440D01*
X97553D01*
Y96369D01*
Y96298D01*
X97625D01*
Y96226D01*
X97696D01*
Y96155D01*
X97768D01*
Y96083D01*
X97839D01*
Y96012D01*
X97910D01*
Y95941D01*
X97982D01*
Y95869D01*
X98053D01*
Y95798D01*
X98196D01*
Y95727D01*
X98339D01*
Y95655D01*
X98553D01*
Y95584D01*
X98910D01*
Y95512D01*
X102337D01*
Y95441D01*
Y95370D01*
Y95298D01*
Y95227D01*
Y95156D01*
Y95084D01*
Y95013D01*
Y94941D01*
Y94870D01*
Y94799D01*
Y94727D01*
Y94656D01*
Y94584D01*
Y94513D01*
X98839D01*
Y94584D01*
X98410D01*
Y94656D01*
X98196D01*
Y94727D01*
X97982D01*
Y94799D01*
X97839D01*
Y94870D01*
X97696D01*
Y94941D01*
X97553D01*
Y95013D01*
X97482D01*
Y95084D01*
X97339D01*
Y95156D01*
X97268D01*
Y95227D01*
X97197D01*
Y95298D01*
X97125D01*
Y95370D01*
X97054D01*
Y95441D01*
X96983D01*
Y95512D01*
X96911D01*
Y95584D01*
X96840D01*
Y95655D01*
X96768D01*
Y95727D01*
Y95798D01*
X96697D01*
Y95869D01*
X96626D01*
Y95941D01*
Y96012D01*
X96554D01*
Y96083D01*
Y96155D01*
X96483D01*
Y96226D01*
Y96298D01*
X96411D01*
Y96369D01*
Y96440D01*
Y96512D01*
X96340D01*
Y96583D01*
Y96655D01*
Y96726D01*
Y96797D01*
X96269D01*
Y96869D01*
Y96940D01*
Y97012D01*
Y97083D01*
Y97154D01*
X96197D01*
Y97226D01*
Y97297D01*
Y97369D01*
Y97440D01*
Y97511D01*
Y97583D01*
X95840D01*
Y97511D01*
X95412D01*
Y97440D01*
X95341D01*
Y97369D01*
X95412D01*
Y97297D01*
Y97226D01*
X95483D01*
Y97154D01*
Y97083D01*
Y97012D01*
X95555D01*
Y96940D01*
Y96869D01*
X95626D01*
Y96797D01*
Y96726D01*
Y96655D01*
X95697D01*
Y96583D01*
Y96512D01*
Y96440D01*
X95769D01*
Y96369D01*
Y96298D01*
X95840D01*
Y96226D01*
Y96155D01*
Y96083D01*
X95912D01*
Y96012D01*
Y95941D01*
Y95869D01*
X95983D01*
Y95798D01*
Y95727D01*
X96054D01*
Y95655D01*
Y95584D01*
Y95512D01*
X96126D01*
Y95441D01*
Y95370D01*
X96197D01*
Y95298D01*
Y95227D01*
Y95156D01*
X96269D01*
Y95084D01*
Y95013D01*
Y94941D01*
X96340D01*
Y94870D01*
Y94799D01*
X96411D01*
Y94727D01*
X95341D01*
Y94799D01*
Y94870D01*
X95269D01*
Y94941D01*
Y95013D01*
Y95084D01*
X95198D01*
Y95156D01*
Y95227D01*
Y95298D01*
X95126D01*
Y95370D01*
Y95441D01*
X95055D01*
Y95512D01*
Y95584D01*
Y95655D01*
X94984D01*
Y95727D01*
Y95798D01*
X94912D01*
Y95869D01*
Y95941D01*
Y96012D01*
X94841D01*
Y96083D01*
Y96155D01*
Y96226D01*
X94769D01*
Y96298D01*
Y96369D01*
X94698D01*
Y96440D01*
Y96512D01*
Y96583D01*
X94627D01*
Y96655D01*
Y96726D01*
Y96797D01*
X94555D01*
Y96869D01*
Y96940D01*
X94484D01*
Y97012D01*
Y97083D01*
Y97154D01*
X94412D01*
Y97226D01*
Y97297D01*
X94056D01*
Y97226D01*
X93699D01*
Y97154D01*
X93270D01*
Y97083D01*
X92913D01*
Y97012D01*
X92485D01*
Y96940D01*
X92271D01*
Y96869D01*
Y96797D01*
X92199D01*
Y96726D01*
Y96655D01*
Y96583D01*
X92128D01*
Y96512D01*
Y96440D01*
X92057D01*
Y96369D01*
Y96298D01*
Y96226D01*
X91985D01*
Y96155D01*
Y96083D01*
Y96012D01*
X91914D01*
Y95941D01*
Y95869D01*
X91843D01*
Y95798D01*
Y95727D01*
Y95655D01*
X91771D01*
Y95584D01*
Y95512D01*
Y95441D01*
X91700D01*
Y95370D01*
Y95298D01*
X91628D01*
Y95227D01*
Y95156D01*
Y95084D01*
X91557D01*
Y95013D01*
Y94941D01*
Y94870D01*
X91486D01*
Y94799D01*
Y94727D01*
X90415D01*
Y94799D01*
X90486D01*
Y94870D01*
Y94941D01*
Y95013D01*
X90558D01*
Y95084D01*
Y95156D01*
X90629D01*
Y95227D01*
Y95298D01*
Y95370D01*
X90700D01*
Y95441D01*
Y95512D01*
X90772D01*
Y95584D01*
Y95655D01*
Y95727D01*
X90843D01*
Y95798D01*
Y95869D01*
Y95941D01*
X90914D01*
Y96012D01*
Y96083D01*
X90986D01*
Y96155D01*
Y96226D01*
Y96298D01*
X91057D01*
Y96369D01*
Y96440D01*
Y96512D01*
X91129D01*
Y96583D01*
Y96655D01*
X90772D01*
Y96583D01*
X90415D01*
Y96512D01*
X90129D01*
Y96440D01*
X89844D01*
Y96369D01*
X89558D01*
Y96298D01*
X89273D01*
Y96226D01*
X88987D01*
Y96155D01*
X88701D01*
Y96083D01*
X88416D01*
Y96012D01*
X88202D01*
Y95941D01*
X87916D01*
Y95869D01*
X87631D01*
Y95798D01*
X87417D01*
Y95727D01*
X87202D01*
Y95655D01*
X86988D01*
Y95584D01*
X86703D01*
Y95512D01*
X86488D01*
Y95441D01*
X86274D01*
Y95370D01*
X86060D01*
Y95298D01*
X85918D01*
Y95227D01*
X85703D01*
Y95156D01*
X85489D01*
Y95084D01*
X85275D01*
Y95013D01*
X85061D01*
Y94941D01*
X84918D01*
Y94870D01*
Y94799D01*
Y94727D01*
Y94656D01*
Y94584D01*
X84061D01*
Y94513D01*
X83847D01*
Y94442D01*
X83704D01*
Y94370D01*
X83562D01*
Y94299D01*
X83419D01*
Y94227D01*
X83276D01*
Y94156D01*
X83133D01*
Y94085D01*
X82919D01*
Y94013D01*
X82776D01*
Y93942D01*
X82634D01*
Y93871D01*
X82562D01*
Y93799D01*
X82420D01*
Y93728D01*
X82277D01*
Y93656D01*
X82134D01*
Y93585D01*
X81991D01*
Y93514D01*
X81920D01*
Y93442D01*
X81777D01*
Y93371D01*
X81634D01*
Y93299D01*
X81563D01*
Y93228D01*
X81420D01*
Y93157D01*
X81277D01*
Y93085D01*
X81206D01*
Y93014D01*
X81063D01*
Y92943D01*
X80992D01*
Y92871D01*
X80849D01*
Y92800D01*
X80778D01*
Y92728D01*
X80635D01*
Y92657D01*
X80563D01*
Y92586D01*
X80492D01*
Y92514D01*
X80349D01*
Y92443D01*
X80278D01*
Y92371D01*
X80207D01*
Y92300D01*
X80135D01*
Y92229D01*
X79992D01*
Y92157D01*
X79921D01*
Y92086D01*
X79849D01*
Y92014D01*
X79778D01*
Y91943D01*
X79707D01*
Y91872D01*
X79635D01*
Y91800D01*
X79564D01*
Y91729D01*
X79493D01*
Y91658D01*
X79421D01*
Y91586D01*
X79350D01*
Y91515D01*
X79278D01*
Y91443D01*
X79207D01*
Y91372D01*
X79136D01*
Y91301D01*
X79064D01*
Y91229D01*
X78993D01*
Y91158D01*
X78922D01*
Y91086D01*
Y91015D01*
X78850D01*
Y90944D01*
X78779D01*
Y90872D01*
X78707D01*
Y90801D01*
Y90729D01*
X78636D01*
Y90658D01*
X78565D01*
Y90587D01*
X78493D01*
Y90515D01*
Y90444D01*
X78422D01*
Y90373D01*
Y90301D01*
X78350D01*
Y90230D01*
Y90158D01*
X78279D01*
Y90087D01*
X78208D01*
Y90016D01*
Y89944D01*
X78136D01*
Y89873D01*
Y89801D01*
Y89730D01*
X78065D01*
Y89659D01*
Y89587D01*
X77994D01*
Y89516D01*
Y89445D01*
Y89373D01*
X77922D01*
Y89302D01*
Y89230D01*
Y89159D01*
Y89088D01*
X77851D01*
Y89016D01*
Y88945D01*
Y88873D01*
Y88802D01*
Y88731D01*
Y88659D01*
Y88588D01*
X77779D01*
Y88659D01*
Y88731D01*
X77708D01*
Y88802D01*
Y88873D01*
X77636D01*
Y88945D01*
Y89016D01*
X77565D01*
Y89088D01*
Y89159D01*
Y89230D01*
X77494D01*
Y89302D01*
Y89373D01*
Y89445D01*
X77422D01*
Y89516D01*
Y89587D01*
Y89659D01*
Y89730D01*
Y89801D01*
X77351D01*
Y89873D01*
Y89944D01*
Y90016D01*
Y90087D01*
Y90158D01*
Y90230D01*
Y90301D01*
Y90373D01*
Y90444D01*
Y90515D01*
Y90587D01*
Y90658D01*
Y90729D01*
Y90801D01*
Y90872D01*
Y90944D01*
Y91015D01*
X77422D01*
Y91086D01*
Y91158D01*
Y91229D01*
Y91301D01*
Y91372D01*
X77494D01*
Y91443D01*
Y91515D01*
Y91586D01*
X77565D01*
Y91658D01*
Y91729D01*
Y91800D01*
X77636D01*
Y91872D01*
Y91943D01*
X77708D01*
Y92014D01*
Y92086D01*
X77779D01*
Y92157D01*
Y92229D01*
X77851D01*
Y92300D01*
Y92371D01*
X77922D01*
Y92443D01*
X77994D01*
Y92514D01*
Y92586D01*
X78065D01*
Y92657D01*
X78136D01*
Y92728D01*
Y92800D01*
X78208D01*
Y92871D01*
X78279D01*
Y92943D01*
X78350D01*
Y93014D01*
X78422D01*
Y93085D01*
X78493D01*
Y93157D01*
X78565D01*
Y93228D01*
X78636D01*
Y93299D01*
Y93371D01*
X78707D01*
Y93442D01*
X78850D01*
Y93514D01*
X78922D01*
Y93585D01*
X78993D01*
Y93656D01*
X79064D01*
Y93728D01*
X79136D01*
Y93799D01*
X79207D01*
Y93871D01*
X79350D01*
Y93942D01*
X79421D01*
Y94013D01*
X79493D01*
Y94085D01*
X79635D01*
Y94156D01*
X79707D01*
Y94227D01*
X79849D01*
Y94299D01*
X79921D01*
Y94370D01*
X80064D01*
Y94442D01*
X80135D01*
Y94513D01*
X76423D01*
Y94584D01*
Y94656D01*
Y94727D01*
Y94799D01*
Y94870D01*
Y94941D01*
Y95013D01*
Y95084D01*
Y95156D01*
Y95227D01*
Y95298D01*
Y95370D01*
Y95441D01*
Y95512D01*
X81134D01*
Y95584D01*
X81420D01*
Y95655D01*
X81563D01*
Y95727D01*
X81634D01*
Y95798D01*
X81706D01*
Y95869D01*
Y95941D01*
X81777D01*
Y96012D01*
Y96083D01*
X81848D01*
Y96155D01*
Y96226D01*
Y96298D01*
Y96369D01*
Y96440D01*
Y96512D01*
Y96583D01*
Y96655D01*
X81777D01*
Y96726D01*
Y96797D01*
X81706D01*
Y96869D01*
Y96940D01*
X81634D01*
Y97012D01*
X81492D01*
Y97083D01*
X81277D01*
Y97154D01*
X77851D01*
Y97226D01*
X77494D01*
Y97297D01*
X77280D01*
Y97369D01*
X77137D01*
Y97440D01*
X77065D01*
Y97511D01*
X76923D01*
Y97583D01*
X76851D01*
Y97654D01*
X76780D01*
Y97725D01*
X76709D01*
Y97797D01*
Y97868D01*
X76637D01*
Y97940D01*
X76566D01*
Y98011D01*
Y98082D01*
X76494D01*
Y98154D01*
Y98225D01*
X76423D01*
Y98296D01*
Y98368D01*
Y98439D01*
Y98511D01*
X76352D01*
Y98582D01*
Y98654D01*
Y98725D01*
Y98796D01*
Y98868D01*
Y98939D01*
Y99010D01*
Y99082D01*
Y99153D01*
Y99225D01*
X76423D01*
Y99296D01*
Y99367D01*
Y99439D01*
Y99510D01*
X76494D01*
Y99581D01*
Y99653D01*
X76566D01*
Y99724D01*
Y99796D01*
X76637D01*
Y99867D01*
X76709D01*
Y99938D01*
X76780D01*
Y100010D01*
Y100081D01*
X76923D01*
Y100153D01*
X76994D01*
Y100224D01*
X77065D01*
Y100295D01*
X77208D01*
Y100367D01*
X77422D01*
Y100438D01*
X77636D01*
Y100510D01*
X82491D01*
Y100438D01*
Y100367D01*
Y100295D01*
Y100224D01*
Y100153D01*
Y100081D01*
Y100010D01*
Y99938D01*
Y99867D01*
Y99796D01*
Y99724D01*
Y99653D01*
Y99581D01*
Y99510D01*
X77851D01*
Y99439D01*
X77708D01*
Y99367D01*
X77636D01*
Y99296D01*
X77565D01*
Y99225D01*
X77494D01*
Y99153D01*
Y99082D01*
X77422D01*
Y99010D01*
Y98939D01*
Y98868D01*
Y98796D01*
Y98725D01*
Y98654D01*
Y98582D01*
Y98511D01*
Y98439D01*
X77494D01*
Y98368D01*
Y98296D01*
X77565D01*
Y98225D01*
X77636D01*
Y98154D01*
X77708D01*
Y98082D01*
X77851D01*
Y98011D01*
X81349D01*
Y97940D01*
X81706D01*
Y97868D01*
X81920D01*
Y97797D01*
X82063D01*
Y97725D01*
X82205D01*
Y97654D01*
X82277D01*
Y97583D01*
X82348D01*
Y97511D01*
X82420D01*
Y97440D01*
X82491D01*
Y97369D01*
X82562D01*
Y97297D01*
Y97226D01*
X82634D01*
Y97154D01*
Y97083D01*
X82705D01*
Y97012D01*
Y96940D01*
Y96869D01*
X82776D01*
Y96797D01*
Y96726D01*
Y96655D01*
Y96583D01*
Y96512D01*
Y96440D01*
Y96369D01*
Y96298D01*
Y96226D01*
Y96155D01*
Y96083D01*
Y96012D01*
Y95941D01*
Y95869D01*
Y95798D01*
Y95727D01*
X82848D01*
Y95798D01*
X82991D01*
Y95869D01*
X83133D01*
Y95941D01*
X83347D01*
Y96012D01*
X83490D01*
Y96083D01*
X83704D01*
Y96155D01*
X83847D01*
Y96226D01*
X83919D01*
Y96298D01*
Y96369D01*
Y96440D01*
Y96512D01*
Y96583D01*
Y96655D01*
Y96726D01*
Y96797D01*
Y96869D01*
Y96940D01*
Y97012D01*
Y97083D01*
Y97154D01*
Y97226D01*
Y97297D01*
Y97369D01*
Y97440D01*
Y97511D01*
Y97583D01*
Y97654D01*
Y97725D01*
Y97797D01*
Y97868D01*
Y97940D01*
Y98011D01*
Y98082D01*
Y98154D01*
Y98225D01*
Y98296D01*
Y98368D01*
Y98439D01*
Y98511D01*
Y98582D01*
Y98654D01*
Y98725D01*
Y98796D01*
Y98868D01*
Y98939D01*
Y99010D01*
Y99082D01*
Y99153D01*
Y99225D01*
Y99296D01*
Y99367D01*
Y99439D01*
Y99510D01*
Y99581D01*
Y99653D01*
Y99724D01*
Y99796D01*
Y99867D01*
Y99938D01*
Y100010D01*
Y100081D01*
Y100153D01*
Y100224D01*
Y100295D01*
Y100367D01*
Y100438D01*
Y100510D01*
Y100581D01*
X88416D01*
Y100510D01*
D02*
G37*
G36*
X91343Y92943D02*
Y92871D01*
Y92800D01*
Y92728D01*
Y92657D01*
Y92586D01*
Y92514D01*
X91414D01*
Y92443D01*
Y92371D01*
Y92300D01*
Y92229D01*
Y92157D01*
Y92086D01*
Y92014D01*
X91557D01*
Y91943D01*
X92128D01*
Y91872D01*
X92342D01*
Y91800D01*
X91771D01*
Y91729D01*
X91414D01*
Y91658D01*
Y91586D01*
Y91515D01*
X91343D01*
Y91443D01*
Y91372D01*
Y91301D01*
Y91229D01*
Y91158D01*
Y91086D01*
Y91015D01*
Y90944D01*
X91272D01*
Y90872D01*
X91200D01*
Y90944D01*
Y91015D01*
Y91086D01*
Y91158D01*
Y91229D01*
Y91301D01*
Y91372D01*
Y91443D01*
Y91515D01*
Y91586D01*
Y91658D01*
Y91729D01*
X91057D01*
Y91800D01*
X90415D01*
Y91872D01*
X90201D01*
Y91943D01*
X90772D01*
Y92014D01*
X91200D01*
Y92086D01*
Y92157D01*
Y92229D01*
Y92300D01*
Y92371D01*
Y92443D01*
Y92514D01*
Y92586D01*
Y92657D01*
X91272D01*
Y92728D01*
Y92800D01*
Y92871D01*
Y92943D01*
Y93014D01*
X91343D01*
Y92943D01*
D02*
G37*
G36*
X98767Y92657D02*
Y92586D01*
Y92514D01*
Y92443D01*
X98839D01*
Y92371D01*
Y92300D01*
Y92229D01*
Y92157D01*
Y92086D01*
Y92014D01*
Y91943D01*
Y91872D01*
Y91800D01*
X99124D01*
Y91729D01*
X99624D01*
Y91658D01*
X99695D01*
Y91586D01*
X98839D01*
Y91515D01*
Y91443D01*
Y91372D01*
Y91301D01*
Y91229D01*
Y91158D01*
X98767D01*
Y91086D01*
Y91015D01*
Y90944D01*
Y90872D01*
Y90801D01*
Y90729D01*
X98696D01*
Y90801D01*
X98624D01*
Y90872D01*
Y90944D01*
Y91015D01*
Y91086D01*
Y91158D01*
Y91229D01*
Y91301D01*
Y91372D01*
Y91443D01*
Y91515D01*
Y91586D01*
X97982D01*
Y91658D01*
X97625D01*
Y91729D01*
X97982D01*
Y91800D01*
X98624D01*
Y91872D01*
Y91943D01*
Y92014D01*
Y92086D01*
Y92157D01*
Y92229D01*
Y92300D01*
Y92371D01*
X98696D01*
Y92443D01*
Y92514D01*
Y92586D01*
Y92657D01*
Y92728D01*
X98767D01*
Y92657D01*
D02*
G37*
G36*
X107976Y93157D02*
X108262D01*
Y93085D01*
X108404D01*
Y93014D01*
X108547D01*
Y92943D01*
X108619D01*
Y92871D01*
X108690D01*
Y92800D01*
Y92728D01*
X108761D01*
Y92657D01*
X108833D01*
Y92586D01*
Y92514D01*
Y92443D01*
Y92371D01*
X108904D01*
Y92300D01*
Y92229D01*
Y92157D01*
Y92086D01*
Y92014D01*
X108833D01*
Y91943D01*
Y91872D01*
Y91800D01*
Y91729D01*
X108761D01*
Y91658D01*
X108690D01*
Y91586D01*
Y91515D01*
X108547D01*
Y91443D01*
X108476D01*
Y91372D01*
X108333D01*
Y91301D01*
X108476D01*
Y91229D01*
X108547D01*
Y91158D01*
X108690D01*
Y91086D01*
X108761D01*
Y91015D01*
Y90944D01*
X108833D01*
Y90872D01*
X108904D01*
Y90801D01*
Y90729D01*
Y90658D01*
Y90587D01*
X108976D01*
Y90515D01*
Y90444D01*
Y90373D01*
Y90301D01*
Y90230D01*
Y90158D01*
X108904D01*
Y90087D01*
Y90016D01*
Y89944D01*
X108833D01*
Y89873D01*
Y89801D01*
X108761D01*
Y89730D01*
Y89659D01*
X108690D01*
Y89587D01*
X108619D01*
Y89516D01*
X108547D01*
Y89445D01*
X108404D01*
Y89373D01*
X108262D01*
Y89302D01*
X108047D01*
Y89230D01*
X104621D01*
Y89302D01*
Y89373D01*
Y89445D01*
Y89516D01*
Y89587D01*
Y89659D01*
Y89730D01*
Y89801D01*
Y89873D01*
Y89944D01*
Y90016D01*
Y90087D01*
Y90158D01*
Y90230D01*
Y90301D01*
Y90373D01*
Y90444D01*
Y90515D01*
Y90587D01*
Y90658D01*
Y90729D01*
Y90801D01*
Y90872D01*
Y90944D01*
Y91015D01*
Y91086D01*
Y91158D01*
Y91229D01*
Y91301D01*
Y91372D01*
Y91443D01*
Y91515D01*
Y91586D01*
Y91658D01*
Y91729D01*
Y91800D01*
Y91872D01*
Y91943D01*
Y92014D01*
Y92086D01*
Y92157D01*
Y92229D01*
Y92300D01*
Y92371D01*
Y92443D01*
Y92514D01*
Y92586D01*
Y92657D01*
Y92728D01*
Y92800D01*
Y92871D01*
Y92943D01*
Y93014D01*
Y93085D01*
Y93157D01*
Y93228D01*
X107976D01*
Y93157D01*
D02*
G37*
G36*
X101623Y93228D02*
X101694D01*
Y93157D01*
X101765D01*
Y93085D01*
X101837D01*
Y93014D01*
X101908D01*
Y92943D01*
Y92871D01*
X101979D01*
Y92800D01*
Y92728D01*
X102051D01*
Y92657D01*
X102122D01*
Y92586D01*
Y92514D01*
X102194D01*
Y92443D01*
X102265D01*
Y92371D01*
Y92300D01*
X102337D01*
Y92229D01*
Y92157D01*
X102408D01*
Y92086D01*
X102479D01*
Y92014D01*
Y91943D01*
X102551D01*
Y91872D01*
Y91800D01*
X102622D01*
Y91729D01*
X102693D01*
Y91658D01*
Y91586D01*
X102765D01*
Y91515D01*
Y91443D01*
X102836D01*
Y91372D01*
X102908D01*
Y91301D01*
Y91229D01*
X102979D01*
Y91158D01*
Y91086D01*
X103050D01*
Y91015D01*
X103122D01*
Y90944D01*
Y90872D01*
X103193D01*
Y90801D01*
Y90729D01*
X103264D01*
Y90658D01*
X103336D01*
Y90587D01*
Y90515D01*
X103407D01*
Y90444D01*
Y90373D01*
X103479D01*
Y90301D01*
X103550D01*
Y90230D01*
Y90158D01*
X103621D01*
Y90087D01*
Y90016D01*
X103693D01*
Y89944D01*
X103764D01*
Y89873D01*
Y89801D01*
X103836D01*
Y89730D01*
Y89659D01*
X103907D01*
Y89587D01*
X103978D01*
Y89516D01*
Y89445D01*
X104050D01*
Y89373D01*
Y89302D01*
X104121D01*
Y89230D01*
X103336D01*
Y89302D01*
X103264D01*
Y89373D01*
Y89445D01*
X103193D01*
Y89516D01*
Y89587D01*
X103122D01*
Y89659D01*
X103050D01*
Y89730D01*
Y89801D01*
X102979D01*
Y89873D01*
Y89944D01*
X102908D01*
Y90016D01*
X102836D01*
Y90087D01*
Y90158D01*
X102765D01*
Y90230D01*
X100195D01*
Y90158D01*
Y90087D01*
X100124D01*
Y90016D01*
X100052D01*
Y89944D01*
Y89873D01*
X99981D01*
Y89801D01*
Y89730D01*
X99909D01*
Y89659D01*
X99838D01*
Y89587D01*
Y89516D01*
X99767D01*
Y89445D01*
Y89373D01*
X99695D01*
Y89302D01*
Y89230D01*
X98910D01*
Y89302D01*
X98981D01*
Y89373D01*
Y89445D01*
X99053D01*
Y89516D01*
X99124D01*
Y89587D01*
Y89659D01*
X99195D01*
Y89730D01*
Y89801D01*
X99267D01*
Y89873D01*
X99338D01*
Y89944D01*
Y90016D01*
X99410D01*
Y90087D01*
Y90158D01*
X99481D01*
Y90230D01*
X99552D01*
Y90301D01*
Y90373D01*
X99624D01*
Y90444D01*
Y90515D01*
X99695D01*
Y90587D01*
X99767D01*
Y90658D01*
Y90729D01*
X99838D01*
Y90801D01*
Y90872D01*
X99909D01*
Y90944D01*
X99981D01*
Y91015D01*
Y91086D01*
X100052D01*
Y91158D01*
Y91229D01*
X100124D01*
Y91301D01*
X100195D01*
Y91372D01*
Y91443D01*
X100266D01*
Y91515D01*
Y91586D01*
X100338D01*
Y91658D01*
X100409D01*
Y91729D01*
Y91800D01*
X100480D01*
Y91872D01*
Y91943D01*
X100552D01*
Y92014D01*
X100623D01*
Y92086D01*
Y92157D01*
X100695D01*
Y92229D01*
Y92300D01*
X100766D01*
Y92371D01*
X100837D01*
Y92443D01*
Y92514D01*
X100909D01*
Y92586D01*
Y92657D01*
X100980D01*
Y92728D01*
X101051D01*
Y92800D01*
Y92871D01*
X101123D01*
Y92943D01*
Y93014D01*
X101194D01*
Y93085D01*
X101266D01*
Y93157D01*
X101337D01*
Y93228D01*
X101409D01*
Y93299D01*
X101623D01*
Y93228D01*
D02*
G37*
G36*
X95840Y93157D02*
Y93085D01*
Y93014D01*
Y92943D01*
Y92871D01*
Y92800D01*
Y92728D01*
Y92657D01*
Y92586D01*
Y92514D01*
Y92443D01*
Y92371D01*
Y92300D01*
Y92229D01*
Y92157D01*
Y92086D01*
Y92014D01*
Y91943D01*
Y91872D01*
Y91800D01*
Y91729D01*
Y91658D01*
Y91586D01*
Y91515D01*
Y91443D01*
Y91372D01*
Y91301D01*
Y91229D01*
Y91158D01*
Y91086D01*
Y91015D01*
Y90944D01*
Y90872D01*
Y90801D01*
Y90729D01*
Y90658D01*
Y90587D01*
Y90515D01*
Y90444D01*
Y90373D01*
Y90301D01*
Y90230D01*
Y90158D01*
Y90087D01*
Y90016D01*
Y89944D01*
Y89873D01*
X98553D01*
Y89801D01*
Y89730D01*
Y89659D01*
Y89587D01*
Y89516D01*
Y89445D01*
Y89373D01*
Y89302D01*
Y89230D01*
X95198D01*
Y89302D01*
Y89373D01*
Y89445D01*
Y89516D01*
Y89587D01*
Y89659D01*
Y89730D01*
Y89801D01*
Y89873D01*
Y89944D01*
Y90016D01*
Y90087D01*
Y90158D01*
Y90230D01*
Y90301D01*
Y90373D01*
Y90444D01*
Y90515D01*
Y90587D01*
Y90658D01*
Y90729D01*
Y90801D01*
Y90872D01*
Y90944D01*
Y91015D01*
Y91086D01*
Y91158D01*
Y91229D01*
Y91301D01*
Y91372D01*
Y91443D01*
Y91515D01*
Y91586D01*
Y91658D01*
Y91729D01*
Y91800D01*
Y91872D01*
Y91943D01*
Y92014D01*
Y92086D01*
Y92157D01*
Y92229D01*
Y92300D01*
Y92371D01*
Y92443D01*
Y92514D01*
Y92586D01*
Y92657D01*
Y92728D01*
Y92800D01*
Y92871D01*
Y92943D01*
Y93014D01*
Y93085D01*
Y93157D01*
Y93228D01*
X95840D01*
Y93157D01*
D02*
G37*
G36*
X80207Y89730D02*
Y89659D01*
Y89587D01*
Y89516D01*
Y89445D01*
Y89373D01*
Y89302D01*
Y89230D01*
Y89159D01*
Y89088D01*
Y89016D01*
Y88945D01*
X80635D01*
Y88873D01*
X81063D01*
Y88802D01*
Y88731D01*
X80278D01*
Y88659D01*
X80207D01*
Y88588D01*
Y88516D01*
Y88445D01*
Y88374D01*
Y88302D01*
Y88231D01*
Y88160D01*
Y88088D01*
X80135D01*
Y88017D01*
Y87945D01*
Y87874D01*
Y87803D01*
Y87731D01*
X80064D01*
Y87803D01*
Y87874D01*
Y87945D01*
Y88017D01*
Y88088D01*
Y88160D01*
Y88231D01*
X79992D01*
Y88302D01*
Y88374D01*
Y88445D01*
Y88516D01*
Y88588D01*
Y88659D01*
Y88731D01*
X79421D01*
Y88802D01*
X79064D01*
Y88873D01*
X79350D01*
Y88945D01*
X79992D01*
Y89016D01*
Y89088D01*
Y89159D01*
Y89230D01*
X80064D01*
Y89302D01*
Y89373D01*
Y89445D01*
Y89516D01*
Y89587D01*
Y89659D01*
Y89730D01*
X80135D01*
Y89801D01*
X80207D01*
Y89730D01*
D02*
G37*
G36*
X134153Y19980D02*
X130217D01*
X132185Y21949D01*
X134153Y19980D01*
D02*
G37*
G36*
X142126Y12008D02*
X140157Y10039D01*
Y13976D01*
X142126Y12008D01*
D02*
G37*
G36*
X92198Y87517D02*
X92387Y87491D01*
X92575Y87410D01*
X92817Y87329D01*
X93032Y87195D01*
X93248Y87033D01*
X93275Y87006D01*
X93328Y86952D01*
X93382Y86899D01*
X93436Y86818D01*
X93463Y86791D01*
X93490Y86737D01*
X93625Y86576D01*
X101321Y73228D01*
X101348Y73201D01*
X101375Y73121D01*
X101428Y72986D01*
X101482Y72798D01*
X101536Y72609D01*
X101563Y72367D01*
Y72098D01*
X101536Y71802D01*
Y71775D01*
X101509Y71721D01*
X101482Y71641D01*
X101455Y71533D01*
Y71506D01*
X101428Y71452D01*
X101401Y71372D01*
X101348Y71264D01*
X101321D01*
X101294Y71237D01*
X101240Y71156D01*
X101159Y71049D01*
X101052Y70887D01*
X100890Y70753D01*
X100702Y70591D01*
X100487Y70457D01*
X100217Y70349D01*
X100190D01*
X100110Y70322D01*
X100029Y70295D01*
X99868D01*
X99787Y70268D01*
X84098D01*
X83964Y70295D01*
X83776Y70322D01*
X83560Y70376D01*
X83318Y70483D01*
X83103Y70591D01*
X82860Y70780D01*
X82834Y70806D01*
X82807Y70860D01*
X82672Y70995D01*
X82645Y71022D01*
X82618Y71075D01*
X82511Y71237D01*
Y71264D01*
X82484Y71291D01*
X82457Y71372D01*
X82403Y71506D01*
X82349Y71667D01*
X82295Y71883D01*
X82242Y72098D01*
Y72367D01*
X82269Y72636D01*
Y72663D01*
X82295Y72744D01*
X82322Y72852D01*
X82349Y72905D01*
Y72932D01*
X82376Y72986D01*
X82430Y73067D01*
X82484Y73175D01*
Y73201D01*
X82511D01*
X90207Y86549D01*
Y86576D01*
X90234Y86602D01*
X90368Y86764D01*
X90530Y86979D01*
X90772Y87195D01*
X90826Y87221D01*
X90934Y87275D01*
X90960D01*
X91014Y87329D01*
X91095Y87356D01*
X91229Y87410D01*
X91552Y87491D01*
X91929Y87544D01*
X92064D01*
X92198Y87517D01*
D02*
G37*
%LPC*%
G36*
X93556Y99367D02*
X93199D01*
Y99296D01*
Y99225D01*
X93128D01*
Y99153D01*
Y99082D01*
X93056D01*
Y99010D01*
Y98939D01*
Y98868D01*
X92985D01*
Y98796D01*
Y98725D01*
Y98654D01*
X92913D01*
Y98582D01*
Y98511D01*
X92842D01*
Y98439D01*
Y98368D01*
Y98296D01*
X92771D01*
Y98225D01*
X92985D01*
Y98296D01*
X93484D01*
Y98368D01*
X93984D01*
Y98439D01*
X93913D01*
Y98511D01*
Y98582D01*
Y98654D01*
X93841D01*
Y98725D01*
Y98796D01*
Y98868D01*
X93770D01*
Y98939D01*
Y99010D01*
X93699D01*
Y99082D01*
Y99153D01*
Y99225D01*
X93627D01*
Y99296D01*
X93556D01*
Y99367D01*
D02*
G37*
G36*
X88345Y99581D02*
X84918D01*
Y99510D01*
Y99439D01*
Y99367D01*
Y99296D01*
Y99225D01*
Y99153D01*
Y99082D01*
Y99010D01*
Y98939D01*
Y98868D01*
Y98796D01*
Y98725D01*
Y98654D01*
Y98582D01*
Y98511D01*
Y98439D01*
Y98368D01*
Y98296D01*
Y98225D01*
Y98154D01*
Y98082D01*
Y98011D01*
Y97940D01*
Y97868D01*
Y97797D01*
Y97725D01*
Y97654D01*
Y97583D01*
Y97511D01*
Y97440D01*
Y97369D01*
Y97297D01*
Y97226D01*
X87345D01*
Y97297D01*
X87702D01*
Y97369D01*
X87988D01*
Y97440D01*
X88273D01*
Y97511D01*
X88630D01*
Y97583D01*
X88987D01*
Y97654D01*
X89130D01*
Y97725D01*
X89201D01*
Y97797D01*
X89273D01*
Y97868D01*
Y97940D01*
Y98011D01*
X89344D01*
Y98082D01*
Y98154D01*
Y98225D01*
Y98296D01*
Y98368D01*
Y98439D01*
Y98511D01*
Y98582D01*
Y98654D01*
Y98725D01*
Y98796D01*
X89273D01*
Y98868D01*
Y98939D01*
X89201D01*
Y99010D01*
Y99082D01*
X89130D01*
Y99153D01*
X89059D01*
Y99225D01*
X88987D01*
Y99296D01*
X88916D01*
Y99367D01*
X88844D01*
Y99439D01*
X88630D01*
Y99510D01*
X88345D01*
Y99581D01*
D02*
G37*
G36*
X107691Y92586D02*
X105335D01*
Y92514D01*
Y92443D01*
Y92371D01*
Y92300D01*
Y92229D01*
Y92157D01*
Y92086D01*
Y92014D01*
Y91943D01*
Y91872D01*
Y91800D01*
Y91729D01*
Y91658D01*
Y91586D01*
Y91515D01*
X107833D01*
Y91586D01*
X108047D01*
Y91658D01*
X108119D01*
Y91729D01*
X108190D01*
Y91800D01*
Y91872D01*
Y91943D01*
Y92014D01*
Y92086D01*
Y92157D01*
Y92229D01*
Y92300D01*
X108119D01*
Y92371D01*
X108047D01*
Y92443D01*
X107976D01*
Y92514D01*
X107691D01*
Y92586D01*
D02*
G37*
G36*
X107762Y91015D02*
X105335D01*
Y90944D01*
Y90872D01*
Y90801D01*
Y90729D01*
Y90658D01*
Y90587D01*
Y90515D01*
Y90444D01*
Y90373D01*
Y90301D01*
Y90230D01*
Y90158D01*
Y90087D01*
Y90016D01*
Y89944D01*
Y89873D01*
X107833D01*
Y89944D01*
X108047D01*
Y90016D01*
X108119D01*
Y90087D01*
X108190D01*
Y90158D01*
X108262D01*
Y90230D01*
Y90301D01*
Y90373D01*
Y90444D01*
Y90515D01*
Y90587D01*
Y90658D01*
Y90729D01*
X108190D01*
Y90801D01*
X108119D01*
Y90872D01*
X108047D01*
Y90944D01*
X107762D01*
Y91015D01*
D02*
G37*
G36*
X101551Y92300D02*
X101409D01*
Y92229D01*
Y92157D01*
X101337D01*
Y92086D01*
Y92014D01*
X101266D01*
Y91943D01*
X101194D01*
Y91872D01*
Y91800D01*
X101123D01*
Y91729D01*
Y91658D01*
X101051D01*
Y91586D01*
X100980D01*
Y91515D01*
Y91443D01*
X100909D01*
Y91372D01*
Y91301D01*
X100837D01*
Y91229D01*
X100766D01*
Y91158D01*
Y91086D01*
X100695D01*
Y91015D01*
Y90944D01*
X100623D01*
Y90872D01*
Y90801D01*
Y90729D01*
X102408D01*
Y90801D01*
Y90872D01*
X102337D01*
Y90944D01*
Y91015D01*
X102265D01*
Y91086D01*
Y91158D01*
X102194D01*
Y91229D01*
X102122D01*
Y91301D01*
Y91372D01*
X102051D01*
Y91443D01*
Y91515D01*
X101979D01*
Y91586D01*
X101908D01*
Y91658D01*
Y91729D01*
X101837D01*
Y91800D01*
Y91872D01*
X101765D01*
Y91943D01*
X101694D01*
Y92014D01*
Y92086D01*
X101623D01*
Y92157D01*
Y92229D01*
X101551D01*
Y92300D01*
D02*
G37*
G36*
X91929Y86253D02*
X91875D01*
X91741Y86226D01*
X91579Y86199D01*
X91391Y86091D01*
X91364Y86064D01*
X91337D01*
X91310Y86037D01*
X91283Y86010D01*
X91203Y85957D01*
X91095Y85822D01*
X90987Y85688D01*
X87543Y79714D01*
X88673Y79068D01*
X88700Y79095D01*
X88754Y79149D01*
X88861Y79256D01*
X89023Y79391D01*
X89050Y79418D01*
X89131Y79471D01*
X89265Y79579D01*
X89454Y79714D01*
X89480Y79741D01*
X89534Y79767D01*
X89561D01*
X89588Y79794D01*
X89696Y79848D01*
X89749Y79875D01*
X89830Y79929D01*
X89965Y80010D01*
X90045Y80063D01*
X90072Y80090D01*
X90153Y80144D01*
X90288Y80225D01*
X90449Y80332D01*
X90826Y80575D01*
X91041Y80655D01*
X91229Y80736D01*
X91256D01*
X91337Y80763D01*
X91445Y80790D01*
X91606Y80817D01*
X91821Y80871D01*
X92037Y80898D01*
X93167D01*
X93436Y80871D01*
X93867D01*
X93974Y80898D01*
X94217Y80924D01*
X94486Y81005D01*
X95347Y81355D01*
X92844Y85715D01*
X92817D01*
X92790Y85741D01*
X92737Y85849D01*
Y85876D01*
X92710Y85903D01*
X92629Y85957D01*
X92575Y86010D01*
X92440Y86091D01*
X92198Y86172D01*
X91929Y86226D01*
Y86253D01*
D02*
G37*
G36*
X95481Y81113D02*
X94593Y80763D01*
X94566D01*
X94512Y80736D01*
X94432Y80709D01*
X94351Y80682D01*
X94082Y80602D01*
X93759Y80575D01*
X93221D01*
X92898Y80602D01*
X92844D01*
X92710Y80629D01*
X92118D01*
X91741Y80575D01*
X91337Y80467D01*
X91310D01*
X91256Y80440D01*
X91149Y80386D01*
X91014Y80332D01*
X90853Y80252D01*
X90664Y80144D01*
X90449Y80010D01*
X90207Y79848D01*
X90180Y79821D01*
X90126Y79794D01*
X89992Y79714D01*
X89830Y79606D01*
X89776Y79579D01*
X89723Y79552D01*
X89615Y79471D01*
X89588Y79444D01*
X89480Y79391D01*
X89346Y79283D01*
X89184Y79175D01*
X89157Y79149D01*
X89104Y79095D01*
X88915Y78933D01*
X94432Y75731D01*
X94459D01*
X94512Y75758D01*
X94620Y75812D01*
X94782Y75892D01*
X94943Y76000D01*
X95158Y76161D01*
X95401Y76350D01*
X95643Y76592D01*
X95670Y76619D01*
X95697Y76646D01*
X95831Y76780D01*
X95858Y76807D01*
X95885Y76834D01*
X95993Y76969D01*
X96020Y76996D01*
X96046Y77076D01*
X96127Y77211D01*
X96208Y77453D01*
Y77480D01*
X96235Y77507D01*
X96289Y77641D01*
X96342Y77830D01*
X96423Y77991D01*
X96450Y78045D01*
X96531Y78126D01*
X96638Y78287D01*
X96746Y78422D01*
X96773Y78449D01*
X96827Y78476D01*
X96961Y78583D01*
X95481Y81113D01*
D02*
G37*
G36*
X91526Y76431D02*
Y76404D01*
X91499Y76377D01*
Y76296D01*
Y76242D01*
Y76215D01*
Y76161D01*
X91552Y76000D01*
X91579Y75946D01*
X91606Y75919D01*
X91633Y75839D01*
X91687Y75758D01*
X91741Y75677D01*
X91795Y75704D01*
X91902Y75812D01*
X92037Y75919D01*
X92198Y76027D01*
X91526Y76431D01*
D02*
G37*
G36*
X90772Y76861D02*
Y76834D01*
X90718Y76807D01*
X90664Y76646D01*
Y76619D01*
Y76565D01*
X90637Y76377D01*
Y76350D01*
Y76296D01*
Y76161D01*
Y76000D01*
Y75946D01*
Y75919D01*
Y75866D01*
Y75758D01*
Y75623D01*
X90664Y75516D01*
Y75489D01*
X90691Y75408D01*
X90718Y75354D01*
X90745Y75300D01*
X90772Y75273D01*
X90799Y75193D01*
X90853Y75085D01*
X90934Y74924D01*
X90960Y74950D01*
X90987Y74977D01*
X91014Y75004D01*
X91041Y75031D01*
X91068Y75085D01*
X91176Y75193D01*
X91337Y75327D01*
X91499Y75489D01*
Y75516D01*
X91445Y75569D01*
X91391Y75677D01*
X91310Y75839D01*
X91283Y75892D01*
Y75919D01*
X91256Y76000D01*
X91229Y76108D01*
X91203Y76242D01*
Y76269D01*
Y76350D01*
X91229Y76458D01*
X91256Y76592D01*
X90772Y76861D01*
D02*
G37*
G36*
X90099Y77265D02*
Y77238D01*
X90045Y77130D01*
X89965Y76969D01*
X89857Y76753D01*
X89830Y76727D01*
X89776Y76619D01*
X89723Y76511D01*
X89669Y76404D01*
Y76377D01*
Y76296D01*
X89696Y76108D01*
X89723Y76000D01*
X89776Y75839D01*
Y75812D01*
X89803Y75758D01*
X89857Y75596D01*
X89911Y75381D01*
Y75193D01*
Y75139D01*
X89884Y75031D01*
X89857Y74870D01*
Y74681D01*
Y74628D01*
X89884Y74601D01*
Y74574D01*
X89911D01*
X89938Y74547D01*
X89965D01*
Y74520D01*
X90045Y74493D01*
X90072D01*
X90099Y74466D01*
X90126Y74439D01*
Y74412D01*
X90180Y74385D01*
X90234Y74332D01*
X90315Y74278D01*
X90342D01*
X90368Y74251D01*
X90476Y74170D01*
X90503Y74224D01*
X90557Y74332D01*
X90637Y74493D01*
X90772Y74681D01*
X90745Y74735D01*
X90691Y74843D01*
X90584Y75004D01*
X90503Y75193D01*
Y75220D01*
X90476Y75247D01*
X90449Y75300D01*
X90422D01*
Y75327D01*
Y75354D01*
X90395Y75435D01*
Y75462D01*
Y75489D01*
X90368Y75569D01*
X90342Y75704D01*
Y75919D01*
Y75946D01*
Y76000D01*
Y76135D01*
Y76161D01*
Y76215D01*
Y76377D01*
Y76404D01*
Y76484D01*
X90368Y76592D01*
X90395Y76727D01*
Y76753D01*
X90422Y76834D01*
X90476Y76915D01*
X90530Y77023D01*
X90099Y77265D01*
D02*
G37*
G36*
X93275Y74708D02*
X93248D01*
X93221Y74681D01*
X93140Y74628D01*
X93032Y74574D01*
X92952Y74493D01*
X92925Y74466D01*
X92844Y74412D01*
X92763Y74278D01*
X92656Y74116D01*
X92629Y74089D01*
Y74063D01*
X92602Y74036D01*
X92629D01*
X92656Y74009D01*
X92790Y73955D01*
X92844D01*
X92952Y73928D01*
X93113Y73901D01*
X93328Y73874D01*
X93436D01*
X93544Y73901D01*
X93598Y73955D01*
X93625D01*
Y73982D01*
X93651Y74063D01*
X93678Y74143D01*
Y74224D01*
Y74251D01*
Y74278D01*
X93625Y74358D01*
Y74385D01*
X93598D01*
Y74412D01*
Y74439D01*
X93544Y74466D01*
X93463Y74574D01*
X93328Y74655D01*
X93275Y74708D01*
D02*
G37*
G36*
X92467Y75892D02*
X92414Y75866D01*
X92306Y75758D01*
X92118Y75623D01*
X91875Y75435D01*
X91848D01*
X91821Y75381D01*
X91687Y75273D01*
X91472Y75085D01*
X91256Y74843D01*
X91229Y74816D01*
X91149Y74735D01*
X91041Y74601D01*
X90934Y74412D01*
X90826Y74197D01*
X90718Y73982D01*
X90637Y73740D01*
X90614Y73528D01*
X90611Y73524D01*
Y73497D01*
X90614Y73528D01*
X90637Y73551D01*
X90691Y73659D01*
X90718Y73686D01*
X90799Y73740D01*
X90907Y73820D01*
X91068Y73874D01*
X91095D01*
X91122Y73901D01*
X91203D01*
X91229Y73928D01*
X91256D01*
X91310Y73955D01*
X91364D01*
X91526Y73982D01*
X91875D01*
X91902Y73955D01*
X92010Y73928D01*
X92091D01*
X92252Y73874D01*
Y73901D01*
X92279Y73928D01*
Y73982D01*
Y74009D01*
X92306Y74063D01*
X92333Y74143D01*
X92387Y74251D01*
Y74278D01*
X92414Y74305D01*
X92494Y74412D01*
X92629Y74574D01*
X92790Y74735D01*
X92817D01*
X92844Y74789D01*
X92952Y74843D01*
X93113Y74950D01*
X93140D01*
X93167Y74977D01*
X93275Y75058D01*
X93409Y75166D01*
X93544Y75273D01*
X92467Y75892D01*
D02*
G37*
G36*
X92521Y73766D02*
X92494Y73740D01*
X92467Y73659D01*
Y73632D01*
X92440Y73524D01*
X92387Y73363D01*
X92279Y73201D01*
X92306Y73175D01*
X92360Y73148D01*
X92467Y73094D01*
X92602Y73067D01*
X92683D01*
X92763Y73094D01*
X92844Y73148D01*
X92871Y73175D01*
X92898Y73201D01*
Y73228D01*
X92925Y73255D01*
Y73309D01*
Y73336D01*
Y73417D01*
Y73524D01*
X92844Y73659D01*
X92790Y73686D01*
X92683D01*
X92629Y73713D01*
X92575Y73740D01*
X92521Y73766D01*
D02*
G37*
G36*
X88377Y78260D02*
Y78207D01*
X88323Y78045D01*
X88243Y77803D01*
X88081Y77480D01*
Y77453D01*
X88054Y77426D01*
X88000Y77292D01*
X87946Y77130D01*
X87893Y76996D01*
Y76942D01*
Y76888D01*
Y76807D01*
Y76700D01*
X87920Y76538D01*
X87946Y76377D01*
X88000Y76161D01*
Y76135D01*
X88027Y76081D01*
X88054Y76000D01*
X88081Y75919D01*
Y75892D01*
Y75839D01*
X88108Y75704D01*
X88162Y75489D01*
X88189Y75166D01*
Y75139D01*
Y75112D01*
X88216Y74924D01*
X88269Y74735D01*
X88296Y74520D01*
X88323Y74493D01*
X88350Y74385D01*
X88431Y74224D01*
X88512Y74036D01*
X88538Y74009D01*
X88565Y73928D01*
X88592Y73820D01*
X88619Y73713D01*
X88646D01*
X88673Y73740D01*
X88700D01*
X88727Y73766D01*
X88861D01*
X89023Y73713D01*
X89131Y73659D01*
X89211Y73605D01*
X89319Y73497D01*
X89400Y73363D01*
X89426Y73336D01*
X89480Y73255D01*
X89507Y73228D01*
X89534Y73175D01*
X89615Y73013D01*
Y72959D01*
Y72852D01*
Y72798D01*
Y72717D01*
X89642Y72744D01*
X89669Y72771D01*
X89696Y72798D01*
X89776Y72905D01*
X89857Y73040D01*
X89911Y73201D01*
Y73255D01*
Y73309D01*
X89884Y73390D01*
Y73524D01*
X89830Y73686D01*
X89776Y73874D01*
X89696Y74143D01*
Y74170D01*
X89669Y74224D01*
X89642Y74332D01*
Y74385D01*
X89615Y74493D01*
Y74520D01*
X89588Y74574D01*
Y74601D01*
Y74655D01*
Y74681D01*
Y74708D01*
Y74843D01*
Y75058D01*
X89615Y75273D01*
Y75300D01*
Y75354D01*
X89588Y75489D01*
X89561Y75596D01*
X89507Y75731D01*
Y75758D01*
X89480Y75812D01*
X89454Y75892D01*
X89426Y76027D01*
X89400Y76242D01*
Y76377D01*
Y76458D01*
Y76484D01*
X89426Y76592D01*
X89507Y76727D01*
X89615Y76915D01*
Y76942D01*
X89642Y76969D01*
X89723Y77103D01*
X89803Y77265D01*
X89830Y77426D01*
X88377Y78260D01*
D02*
G37*
G36*
X91848Y73847D02*
X91633D01*
X91526Y73820D01*
X91391D01*
X91283Y73793D01*
X91256Y73766D01*
X91176D01*
X91149Y73740D01*
X91095D01*
X91014Y73686D01*
X90907Y73632D01*
X90799Y73551D01*
X90772Y73497D01*
X90745Y73417D01*
X90664Y73282D01*
Y73255D01*
X90637Y73148D01*
Y73094D01*
X90664Y73013D01*
X90718Y72878D01*
X90826Y72771D01*
X90853Y72717D01*
X90907Y72690D01*
X91014Y72663D01*
X91149D01*
X91256Y72690D01*
X91310D01*
X91418Y72717D01*
X91472Y72744D01*
X91526Y72771D01*
X91606Y72825D01*
X91633Y72852D01*
X91714Y72905D01*
X91821Y73040D01*
X91956Y73228D01*
Y73255D01*
X91983Y73282D01*
X92091Y73417D01*
X92171Y73578D01*
X92198Y73713D01*
X92171Y73740D01*
X92118Y73766D01*
X92010Y73793D01*
X91848Y73847D01*
D02*
G37*
G36*
X88915Y73605D02*
X88700D01*
X88673Y73578D01*
X88700Y73497D01*
Y73470D01*
X88727Y73417D01*
X88781Y73309D01*
X88808Y73201D01*
X88915Y72986D01*
X88969Y72878D01*
X89023Y72798D01*
X89050Y72771D01*
X89104Y72717D01*
X89211Y72663D01*
X89319Y72636D01*
X89426D01*
X89454Y72663D01*
Y72717D01*
Y72744D01*
X89480Y72771D01*
Y72852D01*
Y72878D01*
Y72905D01*
Y72932D01*
X89454Y72959D01*
Y72986D01*
X89426Y73040D01*
X89346Y73175D01*
Y73201D01*
X89319Y73228D01*
Y73255D01*
X89292Y73309D01*
Y73336D01*
X89265Y73363D01*
X89157Y73470D01*
X88996Y73551D01*
X88915Y73605D01*
D02*
G37*
G36*
X97096Y78341D02*
X97042Y78314D01*
X96961Y78207D01*
X96934Y78180D01*
X96881Y78126D01*
X96773Y77991D01*
X96665Y77830D01*
Y77803D01*
X96611Y77722D01*
X96558Y77561D01*
X96477Y77346D01*
Y77319D01*
X96450Y77292D01*
X96396Y77130D01*
X96315Y76969D01*
X96208Y76807D01*
Y76780D01*
X96154Y76753D01*
X96073Y76619D01*
X96046Y76592D01*
X95993Y76538D01*
X95939Y76458D01*
X95858Y76377D01*
X95831Y76350D01*
X95750Y76269D01*
X95643Y76188D01*
X95508Y76054D01*
X95131Y75785D01*
X94943Y75650D01*
X94755Y75542D01*
X100298Y72340D01*
Y72394D01*
Y72502D01*
Y72529D01*
Y72582D01*
Y72609D01*
Y72636D01*
X100271Y72744D01*
X100244Y72878D01*
X100164Y73040D01*
X97096Y78341D01*
D02*
G37*
G36*
X87112Y78987D02*
X83668Y73013D01*
Y72986D01*
X83641Y72959D01*
X83587Y72852D01*
Y72825D01*
X83560Y72717D01*
Y72690D01*
Y72636D01*
X83533Y72582D01*
Y72475D01*
X83560Y72233D01*
X83668Y71964D01*
X83695Y71937D01*
X83776Y71829D01*
X83802Y71802D01*
X83883Y71721D01*
X83910D01*
X83937Y71667D01*
X84098Y71587D01*
X84314Y71479D01*
X84448Y71452D01*
X84610Y71425D01*
X99249D01*
Y71452D01*
X99437D01*
X99491Y71479D01*
X99572D01*
X99652Y71506D01*
X99760Y71560D01*
X99841Y71614D01*
X93786Y75112D01*
X93759Y75085D01*
X93705Y75031D01*
X93517Y74870D01*
X93544Y74843D01*
X93598Y74816D01*
X93678Y74735D01*
X93813Y74601D01*
Y74574D01*
X93840Y74547D01*
X93867Y74520D01*
X93920Y74439D01*
X93947Y74332D01*
X93974Y74197D01*
Y74170D01*
X93947Y74116D01*
X93920Y74009D01*
X93894Y73874D01*
X93867Y73847D01*
X93840Y73766D01*
X93813Y73740D01*
X93732Y73686D01*
X93571Y73632D01*
X93328Y73605D01*
X93194D01*
Y73578D01*
X93221Y73497D01*
Y73390D01*
Y73255D01*
X93194Y73228D01*
X93167Y73121D01*
X93140Y73067D01*
X93086Y72986D01*
X93059Y72959D01*
X93032Y72932D01*
X92925Y72878D01*
X92763Y72825D01*
X92575Y72798D01*
X92548D01*
X92440Y72825D01*
X92279Y72878D01*
X92118Y72959D01*
X92091Y72932D01*
X92010Y72825D01*
X91902Y72717D01*
X91768Y72609D01*
X91741D01*
X91714Y72556D01*
X91552Y72475D01*
X91526D01*
X91472Y72448D01*
X91283Y72394D01*
X90960D01*
X90853Y72421D01*
X90718Y72475D01*
X90611Y72556D01*
X90557Y72609D01*
X90476Y72771D01*
X90422Y72878D01*
X90395Y73013D01*
X90342Y73201D01*
Y73390D01*
Y73417D01*
Y73444D01*
Y73470D01*
Y73497D01*
Y73605D01*
Y73740D01*
X90368Y73874D01*
X90342Y73901D01*
X90288Y73955D01*
X90180Y74036D01*
X90153D01*
X90099Y74063D01*
X90045Y74116D01*
X89992Y74143D01*
Y74116D01*
X90019Y74036D01*
X90072Y73901D01*
X90099Y73766D01*
X90180Y73444D01*
X90207Y73309D01*
Y73201D01*
Y73175D01*
Y73148D01*
X90153Y72986D01*
X90045Y72771D01*
X89965Y72663D01*
X89857Y72556D01*
X89830Y72529D01*
X89776Y72502D01*
X89615Y72394D01*
X89588D01*
X89507Y72367D01*
X89319Y72340D01*
X89265D01*
X89157Y72394D01*
X88969Y72475D01*
X88808Y72636D01*
X88781Y72663D01*
X88727Y72717D01*
X88700Y72798D01*
X88646Y72905D01*
X88565Y73040D01*
X88512Y73201D01*
X88431Y73417D01*
Y73444D01*
Y73470D01*
X88404Y73497D01*
Y73524D01*
Y73551D01*
X88377Y73605D01*
X88323Y73713D01*
X88296Y73820D01*
X88243Y73928D01*
Y73955D01*
X88216Y73982D01*
X88162Y74116D01*
X88081Y74305D01*
X88027Y74439D01*
Y74466D01*
X88000Y74601D01*
X87973Y74816D01*
X87946Y74950D01*
X87920Y75112D01*
Y75139D01*
Y75193D01*
X87893Y75273D01*
X87866Y75381D01*
X87839Y75623D01*
X87812Y75812D01*
X87785Y75839D01*
Y75866D01*
Y75892D01*
X87758Y76000D01*
X87731Y76108D01*
Y76135D01*
X87704Y76215D01*
X87677Y76350D01*
X87651Y76484D01*
X87597Y76807D01*
Y76942D01*
X87624Y77076D01*
Y77103D01*
X87677Y77211D01*
X87731Y77372D01*
X87839Y77615D01*
Y77641D01*
X87866Y77695D01*
X87920Y77776D01*
X87973Y77884D01*
X88054Y78153D01*
X88108Y78395D01*
X87112Y78987D01*
D02*
G37*
%LPD*%
D10*
X49341Y51555D02*
G03*
X51841Y51555I1250J0D01*
G01*
X117776Y137996D02*
Y149996D01*
X147776Y137996D02*
Y149996D01*
X117776D02*
X147776D01*
X117776Y137996D02*
X147776D01*
X79783D02*
Y149996D01*
X109783Y137996D02*
Y149996D01*
X79783D02*
X109783D01*
X79783Y137996D02*
X109783D01*
X157894Y165754D02*
X223642D01*
Y100793D02*
Y165754D01*
X162618Y100793D02*
X223642D01*
X157894Y105518D02*
X162618Y100793D01*
X157894Y105518D02*
Y165754D01*
X169685Y59232D02*
X177264D01*
X178642Y18701D02*
Y59252D01*
Y18701D02*
X205413D01*
Y59252D01*
X178642D02*
X205413D01*
X44291Y16555D02*
Y51555D01*
Y16555D02*
X56890D01*
Y51555D01*
X51841D02*
X56890D01*
X44291D02*
X49341D01*
D11*
X162106Y39173D02*
G03*
X163287Y40354I0J1181D01*
G01*
X156201D02*
G03*
X157382Y39173I1181J0D01*
G01*
Y54921D02*
G03*
X156201Y53740I0J-1181D01*
G01*
X163287D02*
G03*
X162106Y54921I-1181J0D01*
G01*
X58942Y61122D02*
G03*
X57761Y59941I0J-1181D01*
G01*
Y55216D02*
G03*
X58942Y54035I1181J0D01*
G01*
X72328D02*
G03*
X73509Y55216I0J1181D01*
G01*
Y59941D02*
G03*
X72328Y61122I-1181J0D01*
G01*
X148130Y52382D02*
G03*
X147343Y51595I0J-787D01*
G01*
X152067Y40571D02*
G03*
X152854Y41358I0J787D01*
G01*
X147343D02*
G03*
X148130Y40571I787J0D01*
G01*
X152854Y51595D02*
G03*
X152067Y52382I-787J0D01*
G01*
X157382Y54921D02*
X162106D01*
X156201Y40354D02*
Y53740D01*
X157382Y39173D02*
X162106D01*
X163287Y40354D02*
Y53740D01*
X58942Y61122D02*
X72328D01*
X73509Y55216D02*
Y59941D01*
X58942Y54035D02*
X72328D01*
X57761Y55216D02*
Y59941D01*
X152854Y41358D02*
Y51595D01*
X148130Y40571D02*
X152067D01*
X147343Y41358D02*
Y51595D01*
X148130Y52382D02*
X152067D01*
D12*
X135276Y12008D02*
G03*
X135276Y12008I-3091J0D01*
G01*
X132324D02*
G03*
X132324Y12008I-139J0D01*
G01*
X63189Y158366D02*
X65158Y160335D01*
X63189Y162303D02*
X65158Y160335D01*
X63189Y158366D02*
Y162303D01*
X65158Y158366D02*
Y162303D01*
X140650Y10039D02*
X142618Y12008D01*
X140650Y13976D02*
X142618Y12008D01*
X130217Y20472D02*
X132185Y22441D01*
X134153Y20472D01*
X135276Y12008D02*
X142618D01*
X132185Y15099D02*
Y22441D01*
X239173Y5217D02*
X243406D01*
X248819Y10630D01*
Y14665D01*
X229724Y10531D02*
Y14862D01*
Y10531D02*
X235039Y5217D01*
X239173D01*
X235236Y24311D02*
X239370D01*
X229724Y18799D02*
X235236Y24311D01*
X229724Y14862D02*
Y18799D01*
X239370Y24311D02*
X243209D01*
X248819Y18701D01*
Y14665D02*
Y18701D01*
X239173Y146949D02*
X243406D01*
X248819Y152362D01*
Y156398D01*
X229724Y152264D02*
Y156595D01*
Y152264D02*
X235039Y146949D01*
X239173D01*
X235236Y166043D02*
X239370D01*
X229724Y160531D02*
X235236Y166043D01*
X229724Y156595D02*
Y160531D01*
X239370Y166043D02*
X243209D01*
X248819Y160433D01*
Y156398D02*
Y160433D01*
X10827Y146949D02*
X15059D01*
X20472Y152362D01*
Y156398D01*
X1378Y152264D02*
Y156595D01*
Y152264D02*
X6693Y146949D01*
X10827D01*
X6890Y166043D02*
X11024D01*
X1378Y160531D02*
X6890Y166043D01*
X1378Y156595D02*
Y160531D01*
X11024Y166043D02*
X14862D01*
X20472Y160433D01*
Y156398D02*
Y160433D01*
X10827Y5217D02*
X15059D01*
X20472Y10630D01*
Y14665D01*
X1378Y10531D02*
Y14862D01*
Y10531D02*
X6693Y5217D01*
X10827D01*
X6890Y24311D02*
X11024D01*
X1378Y18799D02*
X6890Y24311D01*
X1378Y14862D02*
Y18799D01*
X11024Y24311D02*
X14862D01*
X20472Y18701D01*
Y14665D02*
Y18701D01*
X120366Y134224D02*
X125089D01*
X123515Y132650D01*
X125089Y131076D01*
X120366D01*
X125089Y129501D02*
Y127927D01*
Y128714D01*
X120366D01*
Y129501D01*
Y127927D01*
X124302Y122417D02*
X125089Y123204D01*
Y124779D01*
X124302Y125566D01*
X123515D01*
X122728Y124779D01*
Y123204D01*
X121940Y122417D01*
X121153D01*
X120366Y123204D01*
Y124779D01*
X121153Y125566D01*
X125089Y118482D02*
Y120056D01*
X124302Y120843D01*
X121153D01*
X120366Y120056D01*
Y118482D01*
X121153Y117694D01*
X124302D01*
X125089Y118482D01*
X130366Y133831D02*
X135089D01*
X133515Y132256D01*
X135089Y130682D01*
X130366D01*
X135089Y126746D02*
Y128321D01*
X134302Y129108D01*
X131153D01*
X130366Y128321D01*
Y126746D01*
X131153Y125959D01*
X134302D01*
X135089Y126746D01*
X134302Y121237D02*
X135089Y122024D01*
Y123598D01*
X134302Y124385D01*
X133515D01*
X132728Y123598D01*
Y122024D01*
X131940Y121237D01*
X131153D01*
X130366Y122024D01*
Y123598D01*
X131153Y124385D01*
X135089Y119662D02*
Y118088D01*
Y118875D01*
X130366D01*
Y119662D01*
Y118088D01*
X144302Y129108D02*
X145089Y129895D01*
Y131469D01*
X144302Y132256D01*
X141153D01*
X140366Y131469D01*
Y129895D01*
X141153Y129108D01*
X145089Y127534D02*
X140366D01*
Y124385D01*
X145089Y122811D02*
X140366D01*
X141940D01*
X145089Y119662D01*
X142728Y122024D01*
X140366Y119662D01*
X81882Y134323D02*
X86605D01*
X85031Y132748D01*
X86605Y131174D01*
X81882D01*
X86605Y129600D02*
Y128026D01*
Y128813D01*
X81882D01*
Y129600D01*
Y128026D01*
X85818Y122516D02*
X86605Y123303D01*
Y124877D01*
X85818Y125664D01*
X85031D01*
X84243Y124877D01*
Y123303D01*
X83456Y122516D01*
X82669D01*
X81882Y123303D01*
Y124877D01*
X82669Y125664D01*
X86605Y118580D02*
Y120154D01*
X85818Y120941D01*
X82669D01*
X81882Y120154D01*
Y118580D01*
X82669Y117793D01*
X85818D01*
X86605Y118580D01*
X91882Y134323D02*
X96605D01*
X95030Y132748D01*
X96605Y131174D01*
X91882D01*
X96605Y127239D02*
Y128813D01*
X95818Y129600D01*
X92669D01*
X91882Y128813D01*
Y127239D01*
X92669Y126451D01*
X95818D01*
X96605Y127239D01*
X95818Y121729D02*
X96605Y122516D01*
Y124090D01*
X95818Y124877D01*
X95030D01*
X94243Y124090D01*
Y122516D01*
X93456Y121729D01*
X92669D01*
X91882Y122516D01*
Y124090D01*
X92669Y124877D01*
X96605Y120154D02*
Y118580D01*
Y119367D01*
X91882D01*
Y120154D01*
Y118580D01*
X105818Y130174D02*
X106605Y130961D01*
Y132536D01*
X105818Y133323D01*
X102669D01*
X101882Y132536D01*
Y130961D01*
X102669Y130174D01*
X106605Y128600D02*
X101882D01*
Y125451D01*
X106605Y123877D02*
X101882D01*
X103456D01*
X106605Y120729D01*
X104243Y123090D01*
X101882Y120729D01*
X129921Y26401D02*
X131921D01*
X130921Y27401D02*
Y25401D01*
X132920Y27901D02*
Y27401D01*
X133920Y26401D01*
X134920Y27401D01*
Y27901D01*
X133920Y26401D02*
Y24902D01*
X144488Y12031D02*
X146487D01*
X145488Y13031D02*
Y11031D01*
X147487Y13531D02*
X149487Y10531D01*
Y13531D02*
X147487Y10531D01*
X123721Y7110D02*
X125720D01*
X124720Y8109D02*
Y6110D01*
X126719Y8609D02*
X128719D01*
Y8109D01*
X126719Y6110D01*
Y5610D01*
X128719D01*
D13*
X29075Y138996D02*
Y148996D01*
X49075D01*
X29075Y138996D02*
X49075D01*
Y148996D01*
D14*
X86343Y5309D02*
X86455D01*
X72981D02*
X73092D01*
X86269Y5346D02*
X86529D01*
X72907D02*
X73167D01*
X86232Y5383D02*
X86566D01*
X72870D02*
X73241D01*
X86158Y5420D02*
X86603D01*
X72833D02*
X73278D01*
X86121Y5457D02*
X86640D01*
X72795D02*
X73315D01*
X86046Y5494D02*
X86677D01*
X72758D02*
X73389D01*
X86009Y5531D02*
X86715D01*
X72721D02*
X73427D01*
X85935Y5568D02*
X86752D01*
X72684D02*
X73501D01*
X85898Y5606D02*
X86789D01*
X72647D02*
X73538D01*
X85824Y5643D02*
X86826D01*
X72610D02*
X73612D01*
X85786Y5680D02*
X86863D01*
X72573D02*
X73649D01*
X85749Y5717D02*
X86900D01*
X72536D02*
X73723D01*
X85675Y5754D02*
X86937D01*
X72499D02*
X73761D01*
X85638Y5791D02*
X86974D01*
X72461D02*
X73835D01*
X85564Y5828D02*
X87011D01*
X72424D02*
X73872D01*
X85527Y5866D02*
X87049D01*
X72387D02*
X73946D01*
X85453Y5903D02*
X87086D01*
X72350D02*
X73983D01*
X85415Y5940D02*
X87123D01*
X72313D02*
X74020D01*
X85341Y5977D02*
X87160D01*
X72276D02*
X74095D01*
X85304Y6014D02*
X87197D01*
X72239D02*
X74132D01*
X85230Y6051D02*
X87234D01*
X72202D02*
X74206D01*
X85193Y6088D02*
X87271D01*
X72164D02*
X74243D01*
X85155Y6125D02*
X87308D01*
X72127D02*
X74317D01*
X85081Y6162D02*
X87345D01*
X72090D02*
X74354D01*
X85044Y6199D02*
X87383D01*
X72053D02*
X74429D01*
X84970Y6237D02*
X87420D01*
X72016D02*
X74466D01*
X84933Y6274D02*
X87457D01*
X71979D02*
X74540D01*
X84859Y6311D02*
X87494D01*
X82891D02*
X83077D01*
X76359D02*
X76544D01*
X71942D02*
X74577D01*
X84821Y6348D02*
X87531D01*
X82854D02*
X83151D01*
X76284D02*
X76582D01*
X71905D02*
X74614D01*
X84747Y6385D02*
X87568D01*
X82854D02*
X83226D01*
X76247D02*
X76582D01*
X71868D02*
X74689D01*
X84710Y6422D02*
X87605D01*
X82817D02*
X83300D01*
X76173D02*
X76619D01*
X71830D02*
X74726D01*
X84636Y6459D02*
X87642D01*
X82817D02*
X83337D01*
X76099D02*
X76619D01*
X71793D02*
X74800D01*
X84599Y6497D02*
X87679D01*
X82817D02*
X83411D01*
X76025D02*
X76656D01*
X71756D02*
X74837D01*
X84562Y6534D02*
X87717D01*
X82780D02*
X83485D01*
X75950D02*
X76656D01*
X71719D02*
X74911D01*
X84487Y6571D02*
X87754D01*
X82780D02*
X83560D01*
X75876D02*
X76693D01*
X71682D02*
X74948D01*
X84450Y6608D02*
X87791D01*
X82743D02*
X83634D01*
X75802D02*
X76693D01*
X71645D02*
X75023D01*
X84376Y6645D02*
X87828D01*
X82743D02*
X83708D01*
X75728D02*
X76693D01*
X71608D02*
X75060D01*
X84339Y6682D02*
X87865D01*
X82706D02*
X83782D01*
X75691D02*
X76730D01*
X71571D02*
X75134D01*
X84265Y6719D02*
X87902D01*
X82706D02*
X83856D01*
X75616D02*
X76730D01*
X71534D02*
X75171D01*
X84228Y6756D02*
X87939D01*
X82706D02*
X83894D01*
X75542D02*
X76767D01*
X71496D02*
X75208D01*
X84153Y6793D02*
X87976D01*
X82669D02*
X83968D01*
X75468D02*
X76767D01*
X71459D02*
X75282D01*
X82669Y6831D02*
X88014D01*
X71422D02*
X76767D01*
X82632Y6868D02*
X88051D01*
X71385D02*
X76804D01*
X82632Y6905D02*
X88088D01*
X71348D02*
X76804D01*
X82632Y6942D02*
X88125D01*
X71311D02*
X76841D01*
X82594Y6979D02*
X88162D01*
X71274D02*
X76841D01*
X82594Y7016D02*
X88199D01*
X71237D02*
X76841D01*
X82557Y7053D02*
X88236D01*
X71200D02*
X76878D01*
X82557Y7090D02*
X88273D01*
X71162D02*
X76878D01*
X82557Y7128D02*
X88310D01*
X71125D02*
X76916D01*
X82520Y7165D02*
X88348D01*
X71088D02*
X76916D01*
X82520Y7202D02*
X88385D01*
X71051D02*
X76953D01*
X82483Y7239D02*
X88422D01*
X71014D02*
X76953D01*
X82483Y7276D02*
X88459D01*
X70977D02*
X76953D01*
X82446Y7313D02*
X88496D01*
X70940D02*
X76990D01*
X82446Y7350D02*
X88533D01*
X70940D02*
X76990D01*
X82446Y7387D02*
X88533D01*
X70903D02*
X77027D01*
X82409Y7424D02*
X88533D01*
X70903D02*
X77027D01*
X82409Y7462D02*
X88533D01*
X70903D02*
X77027D01*
X82372Y7499D02*
X88533D01*
X70940D02*
X77064D01*
X82372Y7536D02*
X88496D01*
X70940D02*
X77064D01*
X82372Y7573D02*
X88459D01*
X70977D02*
X77101D01*
X82335Y7610D02*
X88459D01*
X70977D02*
X77101D01*
X82335Y7647D02*
X88422D01*
X71014D02*
X77138D01*
X82297Y7684D02*
X88385D01*
X71051D02*
X77138D01*
X82297Y7721D02*
X88385D01*
X71088D02*
X77138D01*
X82260Y7758D02*
X88348D01*
X71088D02*
X77175D01*
X82260Y7796D02*
X88310D01*
X71125D02*
X77175D01*
X82260Y7833D02*
X88310D01*
X71162D02*
X77213D01*
X82223Y7870D02*
X88273D01*
X71162D02*
X77213D01*
X82223Y7907D02*
X88236D01*
X71200D02*
X77213D01*
X82186Y7944D02*
X88236D01*
X71237D02*
X77250D01*
X82186Y7981D02*
X88199D01*
X71237D02*
X77250D01*
X82186Y8018D02*
X88162D01*
X71274D02*
X77287D01*
X82149Y8055D02*
X88162D01*
X71311D02*
X77287D01*
X82149Y8093D02*
X88125D01*
X71311D02*
X77287D01*
X82112Y8130D02*
X88088D01*
X71348D02*
X77324D01*
X82112Y8167D02*
X88051D01*
X71385D02*
X77324D01*
X82112Y8204D02*
X88051D01*
X71385D02*
X77361D01*
X82075Y8241D02*
X88014D01*
X71422D02*
X77361D01*
X82075Y8278D02*
X87976D01*
X71459D02*
X77398D01*
X82038Y8315D02*
X87976D01*
X71496D02*
X77398D01*
X82038Y8352D02*
X87939D01*
X71496D02*
X77398D01*
X82001Y8389D02*
X87902D01*
X71534D02*
X77435D01*
X82001Y8427D02*
X87902D01*
X71571D02*
X77435D01*
X82001Y8464D02*
X87865D01*
X71571D02*
X77472D01*
X81963Y8501D02*
X87828D01*
X71608D02*
X77472D01*
X81963Y8538D02*
X87828D01*
X71645D02*
X77472D01*
X81926Y8575D02*
X87791D01*
X71645D02*
X77509D01*
X81926Y8612D02*
X87754D01*
X71682D02*
X77509D01*
X81926Y8649D02*
X87754D01*
X71719D02*
X77547D01*
X81889Y8686D02*
X87717D01*
X71719D02*
X77547D01*
X81889Y8724D02*
X87679D01*
X71756D02*
X77584D01*
X81852Y8761D02*
X87679D01*
X71793D02*
X77584D01*
X81852Y8798D02*
X87642D01*
X71793D02*
X77584D01*
X81815Y8835D02*
X87605D01*
X71830D02*
X77621D01*
X81815Y8872D02*
X87568D01*
X71868D02*
X77621D01*
X81815Y8909D02*
X87568D01*
X71868D02*
X77658D01*
X81778Y8946D02*
X87531D01*
X71905D02*
X77658D01*
X81778Y8983D02*
X87494D01*
X71942D02*
X77658D01*
X81741Y9020D02*
X87494D01*
X71979D02*
X77695D01*
X81741Y9058D02*
X87457D01*
X71979D02*
X77695D01*
X81741Y9095D02*
X87420D01*
X72016D02*
X77732D01*
X81704Y9132D02*
X87420D01*
X72053D02*
X77732D01*
X81704Y9169D02*
X87383D01*
X72053D02*
X77732D01*
X81666Y9206D02*
X87345D01*
X72090D02*
X77769D01*
X81666Y9243D02*
X87345D01*
X72127D02*
X77769D01*
X81666Y9280D02*
X87308D01*
X72127D02*
X77806D01*
X81629Y9317D02*
X87271D01*
X72164D02*
X77806D01*
X81629Y9354D02*
X87271D01*
X72202D02*
X77843D01*
X81592Y9392D02*
X87234D01*
X72202D02*
X77843D01*
X81592Y9429D02*
X87197D01*
X72239D02*
X77843D01*
X81555Y9466D02*
X87160D01*
X72276D02*
X77881D01*
X81555Y9503D02*
X87160D01*
X72276D02*
X77881D01*
X81555Y9540D02*
X87123D01*
X72313D02*
X77918D01*
X81518Y9577D02*
X87086D01*
X72350D02*
X77918D01*
X81518Y9614D02*
X87086D01*
X72387D02*
X77918D01*
X81481Y9651D02*
X87049D01*
X72387D02*
X77955D01*
X81481Y9689D02*
X87011D01*
X72424D02*
X77955D01*
X81481Y9726D02*
X87011D01*
X72461D02*
X77992D01*
X81444Y9763D02*
X86974D01*
X72461D02*
X77992D01*
X81444Y9800D02*
X86974D01*
X72461D02*
X78029D01*
X81407Y9837D02*
X86974D01*
X72461D02*
X78029D01*
X81407Y9874D02*
X87011D01*
X72461D02*
X78029D01*
X81370Y9911D02*
X87011D01*
X72424D02*
X78066D01*
X81370Y9948D02*
X87011D01*
X72424D02*
X78066D01*
X81370Y9985D02*
X87049D01*
X72424D02*
X78103D01*
X81332Y10023D02*
X87049D01*
X72387D02*
X78103D01*
X81332Y10060D02*
X87086D01*
X72387D02*
X78103D01*
X81295Y10097D02*
X87086D01*
X72350D02*
X78140D01*
X81295Y10134D02*
X87086D01*
X72350D02*
X78140D01*
X81295Y10171D02*
X87123D01*
X72350D02*
X78177D01*
X81258Y10208D02*
X87123D01*
X72313D02*
X78177D01*
X81258Y10245D02*
X87160D01*
X72313D02*
X78177D01*
X81221Y10282D02*
X87160D01*
X72276D02*
X78215D01*
X81221Y10319D02*
X87160D01*
X72276D02*
X78215D01*
X81221Y10357D02*
X87197D01*
X72276D02*
X78252D01*
X81184Y10394D02*
X87197D01*
X72239D02*
X78252D01*
X81184Y10431D02*
X87234D01*
X72239D02*
X78289D01*
X81147Y10468D02*
X87234D01*
X72202D02*
X78289D01*
X81147Y10505D02*
X87234D01*
X72202D02*
X78289D01*
X81110Y10542D02*
X87271D01*
X72202D02*
X78326D01*
X81110Y10579D02*
X87271D01*
X72164D02*
X78326D01*
X81110Y10616D02*
X87308D01*
X72164D02*
X78363D01*
X81073Y10654D02*
X87308D01*
X72127D02*
X78363D01*
X81073Y10691D02*
X87308D01*
X72127D02*
X78363D01*
X81036Y10728D02*
X87345D01*
X72127D02*
X78400D01*
X81036Y10765D02*
X87345D01*
X72090D02*
X78400D01*
X81036Y10802D02*
X87383D01*
X72090D02*
X78437D01*
X80998Y10839D02*
X87383D01*
X72053D02*
X78437D01*
X80998Y10876D02*
X87383D01*
X72053D02*
X78474D01*
X80961Y10913D02*
X87420D01*
X72053D02*
X78474D01*
X80961Y10950D02*
X87420D01*
X72016D02*
X78474D01*
X80924Y10988D02*
X87457D01*
X72016D02*
X78512D01*
X80924Y11025D02*
X87457D01*
X71979D02*
X78512D01*
X80924Y11062D02*
X87457D01*
X71979D02*
X78549D01*
X80887Y11099D02*
X87494D01*
X71979D02*
X78549D01*
X80887Y11136D02*
X87494D01*
X71942D02*
X78549D01*
X80924Y11173D02*
X87531D01*
X71942D02*
X78549D01*
X80924Y11210D02*
X87531D01*
X71905D02*
X78512D01*
X80961Y11248D02*
X87531D01*
X71905D02*
X78512D01*
X80998Y11285D02*
X87568D01*
X71905D02*
X78437D01*
X81073Y11322D02*
X87568D01*
X71868D02*
X78400D01*
X81110Y11359D02*
X87605D01*
X71868D02*
X78326D01*
X81184Y11396D02*
X87605D01*
X71830D02*
X78252D01*
X81221Y11433D02*
X87605D01*
X71830D02*
X78215D01*
X81295Y11470D02*
X87642D01*
X71830D02*
X78140D01*
X81332Y11507D02*
X87642D01*
X71793D02*
X78103D01*
X81370Y11544D02*
X87679D01*
X71793D02*
X78066D01*
X81444Y11581D02*
X87679D01*
X71756D02*
X77992D01*
X81481Y11619D02*
X87679D01*
X71756D02*
X77955D01*
X81555Y11656D02*
X87717D01*
X71756D02*
X77918D01*
X81592Y11693D02*
X87717D01*
X71719D02*
X77843D01*
X81629Y11730D02*
X87754D01*
X71719D02*
X77806D01*
X81666Y11767D02*
X87754D01*
X71682D02*
X77769D01*
X81741Y11804D02*
X87754D01*
X71682D02*
X77732D01*
X81778Y11841D02*
X87791D01*
X71682D02*
X77695D01*
X81815Y11879D02*
X87791D01*
X71645D02*
X77621D01*
X81852Y11916D02*
X87828D01*
X71645D02*
X77584D01*
X81889Y11953D02*
X87828D01*
X71608D02*
X77547D01*
X81926Y11990D02*
X87865D01*
X71608D02*
X77509D01*
X81963Y12027D02*
X87902D01*
X71571D02*
X77472D01*
X82001Y12064D02*
X87939D01*
X71496D02*
X77472D01*
X82038Y12101D02*
X88125D01*
X71311D02*
X77435D01*
X82038Y12138D02*
X88348D01*
X71088D02*
X77398D01*
X82075Y12175D02*
X88533D01*
X70903D02*
X77361D01*
X82112Y12212D02*
X88756D01*
X70717D02*
X77324D01*
X82149Y12250D02*
X88942D01*
X70494D02*
X77287D01*
X82186Y12287D02*
X89127D01*
X70309D02*
X77287D01*
X82186Y12324D02*
X89350D01*
X70123D02*
X77250D01*
X82223Y12361D02*
X89535D01*
X69900D02*
X77213D01*
X82260Y12398D02*
X89721D01*
X69715D02*
X77213D01*
X82260Y12435D02*
X89944D01*
X69492D02*
X77175D01*
X82297Y12472D02*
X90129D01*
X69306D02*
X77138D01*
X82335Y12509D02*
X90352D01*
X69121D02*
X77138D01*
X82335Y12547D02*
X90538D01*
X68898D02*
X77101D01*
X82372Y12584D02*
X90649D01*
X68787D02*
X77064D01*
X82372Y12621D02*
X90686D01*
X68750D02*
X77064D01*
X82409Y12658D02*
X90723D01*
X68713D02*
X77027D01*
X82409Y12695D02*
X90723D01*
X68713D02*
X77027D01*
X82446Y12732D02*
X90723D01*
X68713D02*
X76990D01*
X82446Y12769D02*
X90723D01*
X68713D02*
X76990D01*
X82483Y12806D02*
X90723D01*
X68713D02*
X76953D01*
X82483Y12844D02*
X90723D01*
X68713D02*
X76953D01*
X82520Y12881D02*
X90723D01*
X68713D02*
X76916D01*
X82520Y12918D02*
X90723D01*
X68713D02*
X76916D01*
X82557Y12955D02*
X90723D01*
X68713D02*
X76916D01*
X82557Y12992D02*
X90723D01*
X68713D02*
X76878D01*
X82594Y13029D02*
X90723D01*
X68713D02*
X76878D01*
X82594Y13066D02*
X90723D01*
X68713D02*
X76841D01*
X82594Y13103D02*
X90723D01*
X68713D02*
X76841D01*
X82632Y13140D02*
X90723D01*
X68713D02*
X76841D01*
X82632Y13178D02*
X90723D01*
X68713D02*
X76804D01*
X82632Y13215D02*
X90723D01*
X68713D02*
X76804D01*
X82669Y13252D02*
X90723D01*
X68713D02*
X76804D01*
X82669Y13289D02*
X90723D01*
X68713D02*
X76767D01*
X82669Y13326D02*
X90723D01*
X68713D02*
X76767D01*
X82669Y13363D02*
X90723D01*
X68713D02*
X76767D01*
X82706Y13400D02*
X90723D01*
X68713D02*
X76767D01*
X82706Y13437D02*
X90723D01*
X68713D02*
X76730D01*
X82706Y13475D02*
X90723D01*
X68713D02*
X76730D01*
X82706Y13512D02*
X90723D01*
X68713D02*
X76730D01*
X82706Y13549D02*
X90723D01*
X68713D02*
X76730D01*
X82743Y13586D02*
X90723D01*
X68713D02*
X76730D01*
X82743Y13623D02*
X90723D01*
X68713D02*
X76693D01*
X82743Y13660D02*
X90723D01*
X68713D02*
X76693D01*
X82743Y13697D02*
X90723D01*
X68713D02*
X76693D01*
X82743Y13734D02*
X90723D01*
X68713D02*
X76693D01*
X82743Y13771D02*
X90723D01*
X68713D02*
X76693D01*
X82743Y13809D02*
X90723D01*
X68713D02*
X76693D01*
X82780Y13846D02*
X90723D01*
X68713D02*
X76693D01*
X82780Y13883D02*
X90723D01*
X68713D02*
X76693D01*
X82780Y13920D02*
X90723D01*
X68713D02*
X76693D01*
X82780Y13957D02*
X90723D01*
X68713D02*
X76693D01*
X82780Y13994D02*
X90723D01*
X68713D02*
X76656D01*
X82780Y14031D02*
X90723D01*
X68713D02*
X76656D01*
X82780Y14068D02*
X90723D01*
X68713D02*
X76656D01*
X82780Y14106D02*
X90723D01*
X68713D02*
X76656D01*
X82780Y14143D02*
X90723D01*
X68713D02*
X76656D01*
X82780Y14180D02*
X90723D01*
X68713D02*
X76656D01*
X82780Y14217D02*
X90723D01*
X68713D02*
X76693D01*
X82780Y14254D02*
X90723D01*
X68713D02*
X76693D01*
X82780Y14291D02*
X90723D01*
X68713D02*
X76693D01*
X82780Y14328D02*
X90723D01*
X68713D02*
X76693D01*
X82743Y14365D02*
X90723D01*
X68713D02*
X76693D01*
X82743Y14402D02*
X90723D01*
X68713D02*
X76693D01*
X82743Y14440D02*
X90723D01*
X68713D02*
X76693D01*
X82743Y14477D02*
X90723D01*
X68713D02*
X76693D01*
X82743Y14514D02*
X90723D01*
X68713D02*
X76693D01*
X82743Y14551D02*
X90723D01*
X68713D02*
X76693D01*
X82743Y14588D02*
X90723D01*
X68713D02*
X76730D01*
X82706Y14625D02*
X90723D01*
X68713D02*
X76730D01*
X82706Y14662D02*
X90723D01*
X68713D02*
X76730D01*
X82706Y14699D02*
X90723D01*
X68713D02*
X76730D01*
X82706Y14737D02*
X90723D01*
X68713D02*
X76730D01*
X82706Y14774D02*
X90723D01*
X68713D02*
X76767D01*
X82669Y14811D02*
X90723D01*
X68713D02*
X76767D01*
X82669Y14848D02*
X90723D01*
X68713D02*
X76767D01*
X82669Y14885D02*
X90723D01*
X68713D02*
X76767D01*
X82669Y14922D02*
X90723D01*
X68713D02*
X76804D01*
X82632Y14959D02*
X90723D01*
X68713D02*
X76804D01*
X82632Y14996D02*
X90723D01*
X68713D02*
X76804D01*
X82632Y15033D02*
X90723D01*
X68713D02*
X76841D01*
X82594Y15071D02*
X90723D01*
X68713D02*
X76841D01*
X82594Y15108D02*
X90723D01*
X68713D02*
X76841D01*
X82594Y15145D02*
X90723D01*
X68713D02*
X76878D01*
X82557Y15182D02*
X90723D01*
X68713D02*
X76878D01*
X82557Y15219D02*
X90723D01*
X68713D02*
X76878D01*
X82520Y15256D02*
X90723D01*
X68713D02*
X76916D01*
X82520Y15293D02*
X90723D01*
X68713D02*
X76916D01*
X82520Y15330D02*
X90723D01*
X68713D02*
X76953D01*
X82483Y15368D02*
X90723D01*
X68713D02*
X76953D01*
X82483Y15405D02*
X90723D01*
X68713D02*
X76990D01*
X82446Y15442D02*
X90723D01*
X68713D02*
X76990D01*
X82446Y15479D02*
X90723D01*
X68713D02*
X77027D01*
X82409Y15516D02*
X90723D01*
X68713D02*
X77027D01*
X82409Y15553D02*
X90723D01*
X68713D02*
X77064D01*
X82372Y15590D02*
X90686D01*
X68750D02*
X77064D01*
X82335Y15627D02*
X90686D01*
X68787D02*
X77101D01*
X82335Y15664D02*
X90575D01*
X68861D02*
X77101D01*
X82297Y15702D02*
X90389D01*
X69047D02*
X77138D01*
X82297Y15739D02*
X90166D01*
X69269D02*
X77175D01*
X82260Y15776D02*
X89981D01*
X69455D02*
X77175D01*
X82223Y15813D02*
X89795D01*
X69678D02*
X77213D01*
X82223Y15850D02*
X89573D01*
X69863D02*
X77250D01*
X82186Y15887D02*
X89387D01*
X70049D02*
X77250D01*
X82149Y15924D02*
X89201D01*
X70271D02*
X77287D01*
X82112Y15961D02*
X88979D01*
X70457D02*
X77324D01*
X82112Y15999D02*
X88793D01*
X70643D02*
X77361D01*
X82075Y16036D02*
X88570D01*
X70865D02*
X77361D01*
X82038Y16073D02*
X88385D01*
X71051D02*
X77398D01*
X82001Y16110D02*
X88199D01*
X71274D02*
X77435D01*
X81963Y16147D02*
X87976D01*
X71459D02*
X77472D01*
X81926Y16184D02*
X87865D01*
X71608D02*
X77509D01*
X81889Y16221D02*
X87791D01*
X71645D02*
X77547D01*
X81852Y16258D02*
X87754D01*
X71682D02*
X77584D01*
X81815Y16295D02*
X87754D01*
X71682D02*
X77621D01*
X81778Y16333D02*
X87717D01*
X71719D02*
X77658D01*
X81741Y16370D02*
X87717D01*
X71719D02*
X77695D01*
X81704Y16407D02*
X87717D01*
X71756D02*
X77732D01*
X81666Y16444D02*
X87679D01*
X71756D02*
X77806D01*
X81629Y16481D02*
X87679D01*
X71793D02*
X77843D01*
X81555Y16518D02*
X87642D01*
X71793D02*
X77881D01*
X81518Y16555D02*
X87642D01*
X71793D02*
X77918D01*
X81444Y16592D02*
X87605D01*
X71830D02*
X77992D01*
X81407Y16630D02*
X87605D01*
X71830D02*
X78029D01*
X81332Y16667D02*
X87605D01*
X71868D02*
X78103D01*
X81295Y16704D02*
X87568D01*
X71868D02*
X78140D01*
X81221Y16741D02*
X87568D01*
X71905D02*
X78215D01*
X81147Y16778D02*
X87531D01*
X71905D02*
X78289D01*
X81073Y16815D02*
X87531D01*
X71905D02*
X78363D01*
X80998Y16852D02*
X87494D01*
X71942D02*
X78437D01*
X80924Y16889D02*
X87494D01*
X71942D02*
X78512D01*
X80850Y16926D02*
X87494D01*
X71979D02*
X78586D01*
X80739Y16963D02*
X87457D01*
X71979D02*
X78697D01*
X80627Y17001D02*
X87457D01*
X72016D02*
X78808D01*
X80516Y17038D02*
X87420D01*
X72016D02*
X78920D01*
X80367Y17075D02*
X87420D01*
X72016D02*
X79068D01*
X80145Y17112D02*
X87383D01*
X72053D02*
X79291D01*
X72053Y17149D02*
X87383D01*
X72090Y17186D02*
X87383D01*
X72090Y17223D02*
X87345D01*
X72127Y17260D02*
X87345D01*
X72127Y17298D02*
X87308D01*
X72127Y17335D02*
X87308D01*
X72164Y17372D02*
X87271D01*
X72164Y17409D02*
X87271D01*
X72202Y17446D02*
X87271D01*
X72202Y17483D02*
X87234D01*
X72239Y17520D02*
X87234D01*
X72239Y17557D02*
X87197D01*
X72239Y17594D02*
X87197D01*
X72276Y17632D02*
X87160D01*
X72276Y17669D02*
X87160D01*
X72313Y17706D02*
X87160D01*
X72313Y17743D02*
X87123D01*
X72350Y17780D02*
X87123D01*
X72350Y17817D02*
X87086D01*
X72350Y17854D02*
X87086D01*
X72387Y17891D02*
X87049D01*
X72387Y17929D02*
X87049D01*
X72424Y17966D02*
X87049D01*
X72424Y18003D02*
X87011D01*
X72461Y18040D02*
X87011D01*
X72461Y18077D02*
X86974D01*
X72461Y18114D02*
X86974D01*
X72499Y18151D02*
X86937D01*
X72499Y18188D02*
X86937D01*
X72536Y18225D02*
X86937D01*
X72536Y18263D02*
X86900D01*
X72536Y18300D02*
X86900D01*
X72536Y18337D02*
X86900D01*
X72536Y18374D02*
X86937D01*
X72499Y18411D02*
X86937D01*
X72461Y18448D02*
X86974D01*
X72461Y18485D02*
X87011D01*
X72424Y18522D02*
X87011D01*
X72387Y18560D02*
X87049D01*
X72387Y18597D02*
X87086D01*
X72350Y18634D02*
X87086D01*
X72313Y18671D02*
X87123D01*
X72313Y18708D02*
X87160D01*
X72276Y18745D02*
X87160D01*
X72239Y18782D02*
X87197D01*
X72239Y18819D02*
X87234D01*
X72202Y18857D02*
X87234D01*
X72164Y18894D02*
X87271D01*
X72164Y18931D02*
X87308D01*
X72127Y18968D02*
X87308D01*
X72090Y19005D02*
X87345D01*
X72053Y19042D02*
X87383D01*
X72053Y19079D02*
X87383D01*
X72016Y19116D02*
X87420D01*
X71979Y19153D02*
X87457D01*
X71979Y19191D02*
X87494D01*
X71942Y19228D02*
X87494D01*
X71905Y19265D02*
X87531D01*
X71905Y19302D02*
X87568D01*
X71868Y19339D02*
X87568D01*
X71830Y19376D02*
X87605D01*
X71830Y19413D02*
X87642D01*
X71793Y19450D02*
X87642D01*
X71756Y19488D02*
X87679D01*
X71756Y19525D02*
X87717D01*
X71719Y19562D02*
X87717D01*
X71682Y19599D02*
X87754D01*
X71645Y19636D02*
X87791D01*
X71645Y19673D02*
X87791D01*
X71608Y19710D02*
X87828D01*
X71571Y19747D02*
X87865D01*
X71571Y19784D02*
X87902D01*
X71534Y19822D02*
X87902D01*
X71496Y19859D02*
X87939D01*
X71496Y19896D02*
X87976D01*
X71459Y19933D02*
X87976D01*
X71422Y19970D02*
X88014D01*
X71422Y20007D02*
X88051D01*
X71385Y20044D02*
X88051D01*
X71348Y20081D02*
X88088D01*
X71348Y20119D02*
X88125D01*
X71311Y20156D02*
X88125D01*
X71274Y20193D02*
X88162D01*
X71237Y20230D02*
X88199D01*
X71237Y20267D02*
X88199D01*
X71200Y20304D02*
X88236D01*
X71162Y20341D02*
X88273D01*
X71162Y20378D02*
X88310D01*
X71125Y20415D02*
X88310D01*
X71088Y20453D02*
X88348D01*
X71088Y20490D02*
X88385D01*
X71051Y20527D02*
X88385D01*
X71014Y20564D02*
X88422D01*
X71014Y20601D02*
X88459D01*
X70977Y20638D02*
X88459D01*
X70940Y20675D02*
X88496D01*
X70940Y20712D02*
X88533D01*
X70903Y20750D02*
X88533D01*
X70903Y20787D02*
X88533D01*
X70903Y20824D02*
X88533D01*
X70940Y20861D02*
X88533D01*
X70940Y20898D02*
X88496D01*
X70977Y20935D02*
X88459D01*
X71014Y20972D02*
X88422D01*
X71051Y21009D02*
X88385D01*
X71088Y21046D02*
X88348D01*
X71125Y21084D02*
X88310D01*
X71162Y21121D02*
X88273D01*
X71200Y21158D02*
X88236D01*
X71237Y21195D02*
X88199D01*
X71274Y21232D02*
X88162D01*
X83931Y21269D02*
X88125D01*
X75616D02*
X83819D01*
X71311D02*
X75542D01*
X84005Y21306D02*
X88088D01*
X75728D02*
X83745D01*
X71348D02*
X75468D01*
X84042Y21343D02*
X88051D01*
X75802D02*
X83634D01*
X71385D02*
X75394D01*
X84116Y21381D02*
X88014D01*
X75876D02*
X83560D01*
X71422D02*
X75357D01*
X84153Y21418D02*
X87976D01*
X75988D02*
X83448D01*
X71459D02*
X75282D01*
X84190Y21455D02*
X87939D01*
X76062D02*
X83374D01*
X71496D02*
X75245D01*
X84265Y21492D02*
X87902D01*
X76173D02*
X83263D01*
X71534D02*
X75171D01*
X84302Y21529D02*
X87865D01*
X76247D02*
X83188D01*
X71571D02*
X75134D01*
X84376Y21566D02*
X87828D01*
X76359D02*
X83114D01*
X71608D02*
X75060D01*
X84413Y21603D02*
X87791D01*
X76433D02*
X83003D01*
X71645D02*
X75023D01*
X84487Y21640D02*
X87754D01*
X76544D02*
X82929D01*
X71682D02*
X74985D01*
X84525Y21677D02*
X87717D01*
X76619D02*
X82817D01*
X71719D02*
X74911D01*
X84599Y21714D02*
X87679D01*
X76693D02*
X82743D01*
X71756D02*
X74874D01*
X84636Y21752D02*
X87642D01*
X76804D02*
X82632D01*
X71793D02*
X74800D01*
X84710Y21789D02*
X87605D01*
X76878D02*
X82557D01*
X71830D02*
X74763D01*
X84747Y21826D02*
X87568D01*
X76990D02*
X82446D01*
X71868D02*
X74689D01*
X84784Y21863D02*
X87531D01*
X77064D02*
X82372D01*
X71905D02*
X74651D01*
X84859Y21900D02*
X87494D01*
X77175D02*
X82297D01*
X71942D02*
X74577D01*
X84896Y21937D02*
X87457D01*
X77250D02*
X82186D01*
X71979D02*
X74540D01*
X84970Y21974D02*
X87420D01*
X77361D02*
X82112D01*
X72016D02*
X74466D01*
X85007Y22012D02*
X87383D01*
X77435D02*
X82001D01*
X72053D02*
X74429D01*
X85081Y22049D02*
X87345D01*
X77509D02*
X81926D01*
X72090D02*
X74392D01*
X85118Y22086D02*
X87308D01*
X77584D02*
X81852D01*
X72127D02*
X74317D01*
X85193Y22123D02*
X87271D01*
X77621D02*
X81815D01*
X72164D02*
X74280D01*
X85230Y22160D02*
X87234D01*
X77621D02*
X81815D01*
X72202D02*
X74206D01*
X85304Y22197D02*
X87197D01*
X77658D02*
X81778D01*
X72239D02*
X74169D01*
X85341Y22234D02*
X87160D01*
X77658D02*
X81778D01*
X72276D02*
X74095D01*
X85378Y22271D02*
X87123D01*
X77658D02*
X81778D01*
X72313D02*
X74058D01*
X85453Y22308D02*
X87086D01*
X77658D02*
X81778D01*
X72350D02*
X73983D01*
X85490Y22346D02*
X87049D01*
X77695D02*
X81778D01*
X72387D02*
X73946D01*
X85564Y22383D02*
X87011D01*
X77695D02*
X81741D01*
X72424D02*
X73872D01*
X85601Y22420D02*
X86974D01*
X77695D02*
X81741D01*
X72461D02*
X73835D01*
X85675Y22457D02*
X86937D01*
X77695D02*
X81741D01*
X72499D02*
X73761D01*
X85712Y22494D02*
X86900D01*
X77695D02*
X81741D01*
X72536D02*
X73723D01*
X85786Y22531D02*
X86863D01*
X77732D02*
X81741D01*
X72573D02*
X73686D01*
X85824Y22568D02*
X86826D01*
X77732D02*
X81741D01*
X72610D02*
X73612D01*
X85898Y22605D02*
X86789D01*
X77732D02*
X81704D01*
X72647D02*
X73575D01*
X85935Y22643D02*
X86752D01*
X77732D02*
X81704D01*
X72684D02*
X73501D01*
X86009Y22680D02*
X86715D01*
X77732D02*
X81704D01*
X72721D02*
X73464D01*
X86046Y22717D02*
X86677D01*
X77732D02*
X81704D01*
X72758D02*
X73389D01*
X86084Y22754D02*
X86640D01*
X77769D02*
X81704D01*
X72795D02*
X73352D01*
X86158Y22791D02*
X86603D01*
X77769D02*
X81666D01*
X72833D02*
X73278D01*
X86195Y22828D02*
X86566D01*
X77769D02*
X81666D01*
X72870D02*
X73241D01*
X86269Y22865D02*
X86529D01*
X77769D02*
X81666D01*
X72907D02*
X73167D01*
X86306Y22902D02*
X86492D01*
X77769D02*
X81666D01*
X72944D02*
X73129D01*
X77806Y22939D02*
X81666D01*
X77806Y22976D02*
X81629D01*
X77806Y23014D02*
X81629D01*
X77806Y23051D02*
X81629D01*
X77806Y23088D02*
X81629D01*
X77806Y23125D02*
X81629D01*
X77843Y23162D02*
X81629D01*
X77843Y23199D02*
X81592D01*
X77843Y23236D02*
X81592D01*
X77843Y23273D02*
X81592D01*
X77843Y23311D02*
X81592D01*
X77881Y23348D02*
X81592D01*
X77881Y23385D02*
X81555D01*
X77881Y23422D02*
X81555D01*
X77881Y23459D02*
X81555D01*
X77881Y23496D02*
X81555D01*
X77918Y23533D02*
X81555D01*
X77918Y23570D02*
X81555D01*
X77918Y23607D02*
X81518D01*
X77918Y23645D02*
X81518D01*
X77918Y23682D02*
X81518D01*
X77918Y23719D02*
X81518D01*
X77955Y23756D02*
X81518D01*
X77955Y23793D02*
X81481D01*
X77955Y23830D02*
X81481D01*
X77955Y23867D02*
X81481D01*
X77955Y23904D02*
X81481D01*
X77992Y23942D02*
X81481D01*
X77992Y23979D02*
X81444D01*
X77992Y24016D02*
X81444D01*
X77992Y24053D02*
X81444D01*
X77992Y24090D02*
X81444D01*
X78029Y24127D02*
X81444D01*
X78029Y24164D02*
X81444D01*
X78029Y24201D02*
X81407D01*
X78029Y24238D02*
X81407D01*
X78029Y24276D02*
X81407D01*
X78029Y24313D02*
X81407D01*
X78066Y24350D02*
X81407D01*
X78066Y24387D02*
X81370D01*
X78066Y24424D02*
X81370D01*
X78066Y24461D02*
X81370D01*
X78066Y24498D02*
X81370D01*
X78103Y24535D02*
X81370D01*
X78103Y24573D02*
X81332D01*
X78103Y24610D02*
X81332D01*
X78103Y24647D02*
X81332D01*
X78103Y24684D02*
X81332D01*
X78103Y24721D02*
X81332D01*
X78140Y24758D02*
X81332D01*
X78140Y24795D02*
X81295D01*
X78140Y24832D02*
X81295D01*
X78140Y24870D02*
X81295D01*
X78140Y24907D02*
X81295D01*
X78177Y24944D02*
X81295D01*
X78177Y24981D02*
X81258D01*
X78177Y25018D02*
X81258D01*
X78215Y25055D02*
X81258D01*
X78252Y25092D02*
X81184D01*
D15*
X108583Y120177D02*
Y126870D01*
Y133661D01*
X98696Y117913D02*
Y125984D01*
Y134744D01*
X88583Y125787D02*
Y134547D01*
Y117717D02*
Y125787D01*
X158627Y100793D02*
X160093D01*
X157894Y101527D02*
Y102993D01*
Y103726D01*
Y100793D02*
Y101527D01*
X160093Y100793D02*
X160827D01*
X157894D02*
X158627D01*
X157894Y103726D02*
X160827Y100793D01*
X147776Y114983D02*
Y125492D01*
X145276Y114983D02*
X147776D01*
Y125492D02*
Y136002D01*
X145276D02*
X147776D01*
X79697Y115573D02*
X82197D01*
X79697D02*
Y126083D01*
Y136592D02*
X82197D01*
X79697Y126083D02*
Y136592D01*
X78297Y126083D02*
X79697D01*
X6036Y128870D02*
X3937D01*
Y127296D01*
X4986D01*
X3937D01*
Y125722D01*
X7086Y128870D02*
Y125722D01*
X8660D01*
X9185Y126246D01*
Y128345D01*
X8660Y128870D01*
X7086D01*
X10234Y125197D02*
X12333D01*
X13383Y128870D02*
X15482D01*
X14432D01*
Y125722D01*
X16531Y128870D02*
Y125722D01*
X18630D01*
X233989Y128870D02*
X231890D01*
Y127296D01*
X232939D01*
X231890D01*
Y125722D01*
X235038Y128870D02*
Y125722D01*
X236613D01*
X237137Y126246D01*
Y128345D01*
X236613Y128870D01*
X235038D01*
X238187Y125197D02*
X240286D01*
X241336Y128870D02*
X243435D01*
X242385D01*
Y125722D01*
X244484D02*
Y128870D01*
X246058D01*
X246583Y128345D01*
Y127296D01*
X246058Y126771D01*
X244484D01*
X245534D02*
X246583Y125722D01*
X50984Y165453D02*
Y168601D01*
X52558D01*
X53083Y168077D01*
Y167027D01*
X52558Y166502D01*
X50984D01*
X55707Y168601D02*
X54658D01*
X54133Y168077D01*
Y165978D01*
X54658Y165453D01*
X55707D01*
X56232Y165978D01*
Y168077D01*
X55707Y168601D01*
X57281D02*
Y165453D01*
X58331Y166502D01*
X59381Y165453D01*
Y168601D01*
X62529D02*
X60430D01*
Y165453D01*
X62529D01*
X60430Y167027D02*
X61480D01*
X63579Y165453D02*
Y168601D01*
X65153D01*
X65678Y168077D01*
Y167027D01*
X65153Y166502D01*
X63579D01*
X64628D02*
X65678Y165453D01*
X69876Y168601D02*
Y165453D01*
X71975D01*
X75123Y168601D02*
X73024D01*
Y165453D01*
X75123D01*
X73024Y167027D02*
X74074D01*
X76173Y168601D02*
Y165453D01*
X77747D01*
X78272Y165978D01*
Y168077D01*
X77747Y168601D01*
X76173D01*
X233792Y45406D02*
X231693D01*
Y43831D01*
X232742D01*
X231693D01*
Y42257D01*
X234841Y45406D02*
Y42257D01*
X236416D01*
X236941Y42782D01*
Y44881D01*
X236416Y45406D01*
X234841D01*
X237990Y41732D02*
X240089D01*
X241139Y45406D02*
Y42257D01*
X242713D01*
X243238Y42782D01*
Y43307D01*
X242713Y43831D01*
X241139D01*
X242713D01*
X243238Y44356D01*
Y44881D01*
X242713Y45406D01*
X241139D01*
X244287Y42257D02*
Y45406D01*
X245862D01*
X246386Y44881D01*
Y43831D01*
X245862Y43307D01*
X244287D01*
X245337D02*
X246386Y42257D01*
D16*
X27356Y96360D02*
Y93014D01*
X27516Y96360D02*
X28471Y93492D01*
X27356Y96360D02*
X28471Y93014D01*
X29587Y96360D02*
X28471Y93014D01*
X29587Y96360D02*
Y93014D01*
X29746Y96360D02*
Y93014D01*
X26878Y96360D02*
X27516D01*
X29587D02*
X30224D01*
X26878Y93014D02*
X27834D01*
X29109D02*
X30224D01*
X30766Y94289D02*
X32678D01*
Y94607D01*
X32518Y94926D01*
X32359Y95085D01*
X32040Y95245D01*
X31562D01*
X31084Y95085D01*
X30766Y94767D01*
X30606Y94289D01*
Y93970D01*
X30766Y93492D01*
X31084Y93173D01*
X31562Y93014D01*
X31881D01*
X32359Y93173D01*
X32678Y93492D01*
X32518Y94289D02*
Y94767D01*
X32359Y95085D01*
X31562Y95245D02*
X31244Y95085D01*
X30925Y94767D01*
X30766Y94289D01*
Y93970D01*
X30925Y93492D01*
X31244Y93173D01*
X31562Y93014D01*
X33665Y95245D02*
Y93014D01*
X33825Y95245D02*
Y93014D01*
Y94767D02*
X34143Y95085D01*
X34621Y95245D01*
X34940D01*
X35418Y95085D01*
X35577Y94767D01*
Y93014D01*
X34940Y95245D02*
X35258Y95085D01*
X35418Y94767D01*
Y93014D01*
X35577Y94767D02*
X35896Y95085D01*
X36374Y95245D01*
X36692D01*
X37170Y95085D01*
X37330Y94767D01*
Y93014D01*
X36692Y95245D02*
X37011Y95085D01*
X37170Y94767D01*
Y93014D01*
X33187Y95245D02*
X33825D01*
X33187Y93014D02*
X34303D01*
X34940D02*
X36055D01*
X36692D02*
X37808D01*
X39018Y95245D02*
X38541Y95085D01*
X38222Y94767D01*
X38063Y94289D01*
Y93970D01*
X38222Y93492D01*
X38541Y93173D01*
X39018Y93014D01*
X39337D01*
X39815Y93173D01*
X40134Y93492D01*
X40293Y93970D01*
Y94289D01*
X40134Y94767D01*
X39815Y95085D01*
X39337Y95245D01*
X39018D01*
X38700Y95085D01*
X38381Y94767D01*
X38222Y94289D01*
Y93970D01*
X38381Y93492D01*
X38700Y93173D01*
X39018Y93014D01*
X39337D02*
X39656Y93173D01*
X39974Y93492D01*
X40134Y93970D01*
Y94289D01*
X39974Y94767D01*
X39656Y95085D01*
X39337Y95245D01*
X41265D02*
Y93014D01*
X41424Y95245D02*
Y93014D01*
Y94289D02*
X41583Y94767D01*
X41902Y95085D01*
X42221Y95245D01*
X42699D01*
X42858Y95085D01*
Y94926D01*
X42699Y94767D01*
X42540Y94926D01*
X42699Y95085D01*
X40787Y95245D02*
X41424D01*
X40787Y93014D02*
X41902D01*
X43687Y95245D02*
X44642Y93014D01*
X43846Y95245D02*
X44642Y93333D01*
X45598Y95245D02*
X44642Y93014D01*
X44324Y92377D01*
X44005Y92058D01*
X43687Y91899D01*
X43527D01*
X43368Y92058D01*
X43527Y92217D01*
X43687Y92058D01*
X43368Y95245D02*
X44324D01*
X44961D02*
X45917D01*
X49868Y96360D02*
Y93014D01*
X50028Y96360D02*
Y93014D01*
X50984Y95404D02*
Y94129D01*
X49390Y96360D02*
X51939D01*
Y95404D01*
X51780Y96360D01*
X50028Y94767D02*
X50984D01*
X49390Y93014D02*
X51939D01*
Y93970D01*
X51780Y93014D01*
X52720Y95245D02*
X54473Y93014D01*
X52879Y95245D02*
X54632Y93014D01*
Y95245D02*
X52720Y93014D01*
X52401Y95245D02*
X53357D01*
X53995D02*
X54951D01*
X52401Y93014D02*
X53357D01*
X53995D02*
X54951D01*
X55891Y95245D02*
Y91899D01*
X56050Y95245D02*
Y91899D01*
Y94767D02*
X56368Y95085D01*
X56687Y95245D01*
X57006D01*
X57484Y95085D01*
X57802Y94767D01*
X57962Y94289D01*
Y93970D01*
X57802Y93492D01*
X57484Y93173D01*
X57006Y93014D01*
X56687D01*
X56368Y93173D01*
X56050Y93492D01*
X57006Y95245D02*
X57324Y95085D01*
X57643Y94767D01*
X57802Y94289D01*
Y93970D01*
X57643Y93492D01*
X57324Y93173D01*
X57006Y93014D01*
X55413Y95245D02*
X56050D01*
X55413Y91899D02*
X56528D01*
X58742Y94926D02*
Y94767D01*
X58583D01*
Y94926D01*
X58742Y95085D01*
X59061Y95245D01*
X59698D01*
X60017Y95085D01*
X60176Y94926D01*
X60336Y94607D01*
Y93492D01*
X60495Y93173D01*
X60654Y93014D01*
X60176Y94926D02*
Y93492D01*
X60336Y93173D01*
X60654Y93014D01*
X60814D01*
X60176Y94607D02*
X60017Y94448D01*
X59061Y94289D01*
X58583Y94129D01*
X58424Y93811D01*
Y93492D01*
X58583Y93173D01*
X59061Y93014D01*
X59539D01*
X59858Y93173D01*
X60176Y93492D01*
X59061Y94289D02*
X58742Y94129D01*
X58583Y93811D01*
Y93492D01*
X58742Y93173D01*
X59061Y93014D01*
X61769Y95245D02*
Y93014D01*
X61929Y95245D02*
Y93014D01*
Y94767D02*
X62248Y95085D01*
X62726Y95245D01*
X63044D01*
X63522Y95085D01*
X63681Y94767D01*
Y93014D01*
X63044Y95245D02*
X63363Y95085D01*
X63522Y94767D01*
Y93014D01*
X61292Y95245D02*
X61929D01*
X61292Y93014D02*
X62407D01*
X63044D02*
X64159D01*
X66183Y94926D02*
X66342Y95245D01*
Y94607D01*
X66183Y94926D01*
X66023Y95085D01*
X65705Y95245D01*
X65067D01*
X64749Y95085D01*
X64590Y94926D01*
Y94607D01*
X64749Y94448D01*
X65067Y94289D01*
X65864Y93970D01*
X66183Y93811D01*
X66342Y93651D01*
X64590Y94767D02*
X64749Y94607D01*
X65067Y94448D01*
X65864Y94129D01*
X66183Y93970D01*
X66342Y93811D01*
Y93333D01*
X66183Y93173D01*
X65864Y93014D01*
X65227D01*
X64908Y93173D01*
X64749Y93333D01*
X64590Y93651D01*
Y93014D01*
X64749Y93333D01*
X67362Y96360D02*
X67202Y96201D01*
X67362Y96041D01*
X67521Y96201D01*
X67362Y96360D01*
Y95245D02*
Y93014D01*
X67521Y95245D02*
Y93014D01*
X66884Y95245D02*
X67521D01*
X66884Y93014D02*
X67999D01*
X69560Y95245D02*
X69082Y95085D01*
X68764Y94767D01*
X68604Y94289D01*
Y93970D01*
X68764Y93492D01*
X69082Y93173D01*
X69560Y93014D01*
X69879D01*
X70357Y93173D01*
X70676Y93492D01*
X70835Y93970D01*
Y94289D01*
X70676Y94767D01*
X70357Y95085D01*
X69879Y95245D01*
X69560D01*
X69242Y95085D01*
X68923Y94767D01*
X68764Y94289D01*
Y93970D01*
X68923Y93492D01*
X69242Y93173D01*
X69560Y93014D01*
X69879D02*
X70198Y93173D01*
X70516Y93492D01*
X70676Y93970D01*
Y94289D01*
X70516Y94767D01*
X70198Y95085D01*
X69879Y95245D01*
X71807D02*
Y93014D01*
X71966Y95245D02*
Y93014D01*
Y94767D02*
X72285Y95085D01*
X72763Y95245D01*
X73081D01*
X73559Y95085D01*
X73719Y94767D01*
Y93014D01*
X73081Y95245D02*
X73400Y95085D01*
X73559Y94767D01*
Y93014D01*
X71329Y95245D02*
X71966D01*
X71329Y93014D02*
X72444D01*
X73081D02*
X74197D01*
X31172Y90001D02*
Y86656D01*
X31331Y90001D02*
Y86656D01*
X30694Y90001D02*
X32287D01*
X32765Y89842D01*
X33084Y89523D01*
X33243Y89205D01*
X33402Y88727D01*
Y87930D01*
X33243Y87452D01*
X33084Y87134D01*
X32765Y86815D01*
X32287Y86656D01*
X30694D01*
X32287Y90001D02*
X32606Y89842D01*
X32924Y89523D01*
X33084Y89205D01*
X33243Y88727D01*
Y87930D01*
X33084Y87452D01*
X32924Y87134D01*
X32606Y86815D01*
X32287Y86656D01*
X34167Y88568D02*
Y88408D01*
X34008D01*
Y88568D01*
X34167Y88727D01*
X34486Y88886D01*
X35123D01*
X35442Y88727D01*
X35601Y88568D01*
X35760Y88249D01*
Y87134D01*
X35920Y86815D01*
X36079Y86656D01*
X35601Y88568D02*
Y87134D01*
X35760Y86815D01*
X36079Y86656D01*
X36238D01*
X35601Y88249D02*
X35442Y88090D01*
X34486Y87930D01*
X34008Y87771D01*
X33849Y87452D01*
Y87134D01*
X34008Y86815D01*
X34486Y86656D01*
X34964D01*
X35282Y86815D01*
X35601Y87134D01*
X34486Y87930D02*
X34167Y87771D01*
X34008Y87452D01*
Y87134D01*
X34167Y86815D01*
X34486Y86656D01*
X37194Y88886D02*
Y87134D01*
X37354Y86815D01*
X37832Y86656D01*
X38150D01*
X38628Y86815D01*
X38947Y87134D01*
X37354Y88886D02*
Y87134D01*
X37513Y86815D01*
X37832Y86656D01*
X38947Y88886D02*
Y86656D01*
X39106Y88886D02*
Y86656D01*
X36716Y88886D02*
X37354D01*
X38469D02*
X39106D01*
X38947Y86656D02*
X39584D01*
X40970Y88886D02*
X40652Y88727D01*
X40492Y88568D01*
X40333Y88249D01*
Y87930D01*
X40492Y87612D01*
X40652Y87452D01*
X40970Y87293D01*
X41289D01*
X41607Y87452D01*
X41767Y87612D01*
X41926Y87930D01*
Y88249D01*
X41767Y88568D01*
X41607Y88727D01*
X41289Y88886D01*
X40970D01*
X40652Y88727D02*
X40492Y88408D01*
Y87771D01*
X40652Y87452D01*
X41607D02*
X41767Y87771D01*
Y88408D01*
X41607Y88727D01*
X41767Y88568D02*
X41926Y88727D01*
X42245Y88886D01*
Y88727D01*
X41926D01*
X40492Y87612D02*
X40333Y87452D01*
X40174Y87134D01*
Y86974D01*
X40333Y86656D01*
X40811Y86496D01*
X41607D01*
X42085Y86337D01*
X42245Y86178D01*
X40174Y86974D02*
X40333Y86815D01*
X40811Y86656D01*
X41607D01*
X42085Y86496D01*
X42245Y86178D01*
Y86018D01*
X42085Y85700D01*
X41607Y85540D01*
X40652D01*
X40174Y85700D01*
X40014Y86018D01*
Y86178D01*
X40174Y86496D01*
X40652Y86656D01*
X43217Y90001D02*
Y86656D01*
X43376Y90001D02*
Y86656D01*
Y88408D02*
X43694Y88727D01*
X44172Y88886D01*
X44491D01*
X44969Y88727D01*
X45128Y88408D01*
Y86656D01*
X44491Y88886D02*
X44810Y88727D01*
X44969Y88408D01*
Y86656D01*
X42739Y90001D02*
X43376D01*
X42739Y86656D02*
X43854D01*
X44491D02*
X45606D01*
X46992D02*
X46833Y86815D01*
X46674Y87293D01*
Y90001D01*
X46514D01*
Y87293D01*
X46674Y86815D01*
X46992Y86656D01*
X47311D01*
X47630Y86815D01*
X47789Y87134D01*
X46037Y88886D02*
X47311D01*
X48490Y87930D02*
X50402D01*
Y88249D01*
X50243Y88568D01*
X50083Y88727D01*
X49765Y88886D01*
X49287D01*
X48809Y88727D01*
X48490Y88408D01*
X48331Y87930D01*
Y87612D01*
X48490Y87134D01*
X48809Y86815D01*
X49287Y86656D01*
X49605D01*
X50083Y86815D01*
X50402Y87134D01*
X50243Y87930D02*
Y88408D01*
X50083Y88727D01*
X49287Y88886D02*
X48968Y88727D01*
X48649Y88408D01*
X48490Y87930D01*
Y87612D01*
X48649Y87134D01*
X48968Y86815D01*
X49287Y86656D01*
X51390Y88886D02*
Y86656D01*
X51549Y88886D02*
Y86656D01*
Y87930D02*
X51708Y88408D01*
X52027Y88727D01*
X52346Y88886D01*
X52824D01*
X52983Y88727D01*
Y88568D01*
X52824Y88408D01*
X52664Y88568D01*
X52824Y88727D01*
X50912Y88886D02*
X51549D01*
X50912Y86656D02*
X52027D01*
X56982Y90001D02*
Y86656D01*
X57141Y90001D02*
Y86656D01*
X56504Y90001D02*
X58416D01*
X58894Y89842D01*
X59053Y89683D01*
X59212Y89364D01*
Y89045D01*
X59053Y88727D01*
X58894Y88568D01*
X58416Y88408D01*
Y90001D02*
X58735Y89842D01*
X58894Y89683D01*
X59053Y89364D01*
Y89045D01*
X58894Y88727D01*
X58735Y88568D01*
X58416Y88408D01*
X57141D02*
X58416D01*
X58894Y88249D01*
X59053Y88090D01*
X59212Y87771D01*
Y87293D01*
X59053Y86974D01*
X58894Y86815D01*
X58416Y86656D01*
X56504D01*
X58416Y88408D02*
X58735Y88249D01*
X58894Y88090D01*
X59053Y87771D01*
Y87293D01*
X58894Y86974D01*
X58735Y86815D01*
X58416Y86656D01*
X60614Y88886D02*
X60136Y88727D01*
X59818Y88408D01*
X59658Y87930D01*
Y87612D01*
X59818Y87134D01*
X60136Y86815D01*
X60614Y86656D01*
X60933D01*
X61411Y86815D01*
X61730Y87134D01*
X61889Y87612D01*
Y87930D01*
X61730Y88408D01*
X61411Y88727D01*
X60933Y88886D01*
X60614D01*
X60296Y88727D01*
X59977Y88408D01*
X59818Y87930D01*
Y87612D01*
X59977Y87134D01*
X60296Y86815D01*
X60614Y86656D01*
X60933D02*
X61252Y86815D01*
X61570Y87134D01*
X61730Y87612D01*
Y87930D01*
X61570Y88408D01*
X61252Y88727D01*
X60933Y88886D01*
X62701Y88568D02*
Y88408D01*
X62542D01*
Y88568D01*
X62701Y88727D01*
X63020Y88886D01*
X63657D01*
X63976Y88727D01*
X64135Y88568D01*
X64295Y88249D01*
Y87134D01*
X64454Y86815D01*
X64613Y86656D01*
X64135Y88568D02*
Y87134D01*
X64295Y86815D01*
X64613Y86656D01*
X64773D01*
X64135Y88249D02*
X63976Y88090D01*
X63020Y87930D01*
X62542Y87771D01*
X62383Y87452D01*
Y87134D01*
X62542Y86815D01*
X63020Y86656D01*
X63498D01*
X63817Y86815D01*
X64135Y87134D01*
X63020Y87930D02*
X62701Y87771D01*
X62542Y87452D01*
Y87134D01*
X62701Y86815D01*
X63020Y86656D01*
X65729Y88886D02*
Y86656D01*
X65888Y88886D02*
Y86656D01*
Y87930D02*
X66047Y88408D01*
X66366Y88727D01*
X66685Y88886D01*
X67163D01*
X67322Y88727D01*
Y88568D01*
X67163Y88408D01*
X67003Y88568D01*
X67163Y88727D01*
X65251Y88886D02*
X65888D01*
X65251Y86656D02*
X66366D01*
X69744Y90001D02*
Y86656D01*
X69903Y90001D02*
Y86656D01*
X69744Y88408D02*
X69425Y88727D01*
X69106Y88886D01*
X68788D01*
X68310Y88727D01*
X67991Y88408D01*
X67832Y87930D01*
Y87612D01*
X67991Y87134D01*
X68310Y86815D01*
X68788Y86656D01*
X69106D01*
X69425Y86815D01*
X69744Y87134D01*
X68788Y88886D02*
X68469Y88727D01*
X68150Y88408D01*
X67991Y87930D01*
Y87612D01*
X68150Y87134D01*
X68469Y86815D01*
X68788Y86656D01*
X69266Y90001D02*
X69903D01*
X69744Y86656D02*
X70381D01*
X42444Y83643D02*
Y80297D01*
X42603Y83643D02*
Y80297D01*
X41966Y83643D02*
X43878D01*
X44356Y83484D01*
X44515Y83324D01*
X44674Y83006D01*
Y82687D01*
X44515Y82368D01*
X44356Y82209D01*
X43878Y82050D01*
X42603D01*
X43878Y83643D02*
X44196Y83484D01*
X44356Y83324D01*
X44515Y83006D01*
Y82687D01*
X44356Y82368D01*
X44196Y82209D01*
X43878Y82050D01*
X41966Y80297D02*
X43081D01*
X43400Y82050D02*
X43718Y81890D01*
X43878Y81731D01*
X44356Y80616D01*
X44515Y80457D01*
X44674D01*
X44834Y80616D01*
X43718Y81890D02*
X43878Y81572D01*
X44196Y80457D01*
X44356Y80297D01*
X44674D01*
X44834Y80616D01*
Y80775D01*
X45423Y81572D02*
X47335D01*
Y81890D01*
X47176Y82209D01*
X47016Y82368D01*
X46698Y82528D01*
X46220D01*
X45742Y82368D01*
X45423Y82050D01*
X45264Y81572D01*
Y81253D01*
X45423Y80775D01*
X45742Y80457D01*
X46220Y80297D01*
X46538D01*
X47016Y80457D01*
X47335Y80775D01*
X47176Y81572D02*
Y82050D01*
X47016Y82368D01*
X46220Y82528D02*
X45901Y82368D01*
X45583Y82050D01*
X45423Y81572D01*
Y81253D01*
X45583Y80775D01*
X45901Y80457D01*
X46220Y80297D01*
X48164Y82528D02*
X49119Y80297D01*
X48323Y82528D02*
X49119Y80616D01*
X50075Y82528D02*
X49119Y80297D01*
X47845Y82528D02*
X48801D01*
X49438D02*
X50394D01*
X53867Y83006D02*
X54186Y83165D01*
X54664Y83643D01*
Y80297D01*
X54505Y83484D02*
Y80297D01*
X53867D02*
X55301D01*
X56034Y80616D02*
X55875Y80457D01*
X56034Y80297D01*
X56193Y80457D01*
X56034Y80616D01*
X57038Y83006D02*
X57197Y82846D01*
X57038Y82687D01*
X56878Y82846D01*
Y83006D01*
X57038Y83324D01*
X57197Y83484D01*
X57675Y83643D01*
X58312D01*
X58790Y83484D01*
X58950Y83324D01*
X59109Y83006D01*
Y82687D01*
X58950Y82368D01*
X58472Y82050D01*
X57675Y81731D01*
X57356Y81572D01*
X57038Y81253D01*
X56878Y80775D01*
Y80297D01*
X58312Y83643D02*
X58631Y83484D01*
X58790Y83324D01*
X58950Y83006D01*
Y82687D01*
X58790Y82368D01*
X58312Y82050D01*
X57675Y81731D01*
X56878Y80616D02*
X57038Y80775D01*
X57356D01*
X58153Y80457D01*
X58631D01*
X58950Y80616D01*
X59109Y80775D01*
Y81094D01*
X57356Y80775D02*
X58153Y80297D01*
X58790D01*
X58950Y80457D01*
X59109Y80775D01*
X34645Y77922D02*
X34804Y78400D01*
Y77444D01*
X34645Y77922D01*
X34326Y78240D01*
X33849Y78400D01*
X33371D01*
X32893Y78240D01*
X32574Y77922D01*
Y77603D01*
X32733Y77284D01*
X32893Y77125D01*
X33211Y76966D01*
X34167Y76647D01*
X34486Y76488D01*
X34804Y76169D01*
X32574Y77603D02*
X32893Y77284D01*
X33211Y77125D01*
X34167Y76806D01*
X34486Y76647D01*
X34645Y76488D01*
X34804Y76169D01*
Y75532D01*
X34486Y75213D01*
X34008Y75054D01*
X33530D01*
X33052Y75213D01*
X32733Y75532D01*
X32574Y76010D01*
Y75054D01*
X32733Y75532D01*
X35776Y77284D02*
Y73939D01*
X35936Y77284D02*
Y73939D01*
Y76806D02*
X36254Y77125D01*
X36573Y77284D01*
X36891D01*
X37369Y77125D01*
X37688Y76806D01*
X37848Y76328D01*
Y76010D01*
X37688Y75532D01*
X37369Y75213D01*
X36891Y75054D01*
X36573D01*
X36254Y75213D01*
X35936Y75532D01*
X36891Y77284D02*
X37210Y77125D01*
X37529Y76806D01*
X37688Y76328D01*
Y76010D01*
X37529Y75532D01*
X37210Y75213D01*
X36891Y75054D01*
X35298Y77284D02*
X35936D01*
X35298Y73939D02*
X36414D01*
X38628Y76966D02*
Y76806D01*
X38469D01*
Y76966D01*
X38628Y77125D01*
X38947Y77284D01*
X39584D01*
X39903Y77125D01*
X40062Y76966D01*
X40221Y76647D01*
Y75532D01*
X40381Y75213D01*
X40540Y75054D01*
X40062Y76966D02*
Y75532D01*
X40221Y75213D01*
X40540Y75054D01*
X40699D01*
X40062Y76647D02*
X39903Y76488D01*
X38947Y76328D01*
X38469Y76169D01*
X38309Y75851D01*
Y75532D01*
X38469Y75213D01*
X38947Y75054D01*
X39425D01*
X39743Y75213D01*
X40062Y75532D01*
X38947Y76328D02*
X38628Y76169D01*
X38469Y75851D01*
Y75532D01*
X38628Y75213D01*
X38947Y75054D01*
X43089Y76806D02*
X42930Y76647D01*
X43089Y76488D01*
X43248Y76647D01*
Y76806D01*
X42930Y77125D01*
X42611Y77284D01*
X42133D01*
X41655Y77125D01*
X41337Y76806D01*
X41177Y76328D01*
Y76010D01*
X41337Y75532D01*
X41655Y75213D01*
X42133Y75054D01*
X42452D01*
X42930Y75213D01*
X43248Y75532D01*
X42133Y77284D02*
X41815Y77125D01*
X41496Y76806D01*
X41337Y76328D01*
Y76010D01*
X41496Y75532D01*
X41815Y75213D01*
X42133Y75054D01*
X43918Y76328D02*
X45829D01*
Y76647D01*
X45670Y76966D01*
X45511Y77125D01*
X45192Y77284D01*
X44714D01*
X44236Y77125D01*
X43918Y76806D01*
X43758Y76328D01*
Y76010D01*
X43918Y75532D01*
X44236Y75213D01*
X44714Y75054D01*
X45033D01*
X45511Y75213D01*
X45829Y75532D01*
X45670Y76328D02*
Y76806D01*
X45511Y77125D01*
X44714Y77284D02*
X44396Y77125D01*
X44077Y76806D01*
X43918Y76328D01*
Y76010D01*
X44077Y75532D01*
X44396Y75213D01*
X44714Y75054D01*
X46817Y78400D02*
Y75054D01*
X46977Y78400D02*
Y75054D01*
X46339Y78400D02*
X47455D01*
X46339Y75054D02*
X48729D01*
Y76010D01*
X48570Y75054D01*
X49526Y76966D02*
Y76806D01*
X49366D01*
Y76966D01*
X49526Y77125D01*
X49844Y77284D01*
X50482D01*
X50800Y77125D01*
X50960Y76966D01*
X51119Y76647D01*
Y75532D01*
X51278Y75213D01*
X51437Y75054D01*
X50960Y76966D02*
Y75532D01*
X51119Y75213D01*
X51437Y75054D01*
X51597D01*
X50960Y76647D02*
X50800Y76488D01*
X49844Y76328D01*
X49366Y76169D01*
X49207Y75851D01*
Y75532D01*
X49366Y75213D01*
X49844Y75054D01*
X50322D01*
X50641Y75213D01*
X50960Y75532D01*
X49844Y76328D02*
X49526Y76169D01*
X49366Y75851D01*
Y75532D01*
X49526Y75213D01*
X49844Y75054D01*
X52553Y78400D02*
Y75054D01*
X52712Y78400D02*
Y75054D01*
Y76806D02*
X53031Y77125D01*
X53349Y77284D01*
X53668D01*
X54146Y77125D01*
X54465Y76806D01*
X54624Y76328D01*
Y76010D01*
X54465Y75532D01*
X54146Y75213D01*
X53668Y75054D01*
X53349D01*
X53031Y75213D01*
X52712Y75532D01*
X53668Y77284D02*
X53987Y77125D01*
X54305Y76806D01*
X54465Y76328D01*
Y76010D01*
X54305Y75532D01*
X53987Y75213D01*
X53668Y75054D01*
X52075Y78400D02*
X52712D01*
X58257Y77762D02*
X58416Y77603D01*
X58257Y77444D01*
X58097Y77603D01*
Y77762D01*
X58257Y78081D01*
X58416Y78240D01*
X58894Y78400D01*
X59531D01*
X60009Y78240D01*
X60168Y78081D01*
X60328Y77762D01*
Y77444D01*
X60168Y77125D01*
X59690Y76806D01*
X58894Y76488D01*
X58575Y76328D01*
X58257Y76010D01*
X58097Y75532D01*
Y75054D01*
X59531Y78400D02*
X59850Y78240D01*
X60009Y78081D01*
X60168Y77762D01*
Y77444D01*
X60009Y77125D01*
X59531Y76806D01*
X58894Y76488D01*
X58097Y75373D02*
X58257Y75532D01*
X58575D01*
X59372Y75213D01*
X59850D01*
X60168Y75373D01*
X60328Y75532D01*
Y75851D01*
X58575Y75532D02*
X59372Y75054D01*
X60009D01*
X60168Y75213D01*
X60328Y75532D01*
X61778Y78400D02*
X61300Y78240D01*
X60981Y77762D01*
X60822Y76966D01*
Y76488D01*
X60981Y75691D01*
X61300Y75213D01*
X61778Y75054D01*
X62096D01*
X62574Y75213D01*
X62893Y75691D01*
X63052Y76488D01*
Y76966D01*
X62893Y77762D01*
X62574Y78240D01*
X62096Y78400D01*
X61778D01*
X61459Y78240D01*
X61300Y78081D01*
X61140Y77762D01*
X60981Y76966D01*
Y76488D01*
X61140Y75691D01*
X61300Y75373D01*
X61459Y75213D01*
X61778Y75054D01*
X62096D02*
X62415Y75213D01*
X62574Y75373D01*
X62733Y75691D01*
X62893Y76488D01*
Y76966D01*
X62733Y77762D01*
X62574Y78081D01*
X62415Y78240D01*
X62096Y78400D01*
X63705Y77762D02*
X63865Y77603D01*
X63705Y77444D01*
X63546Y77603D01*
Y77762D01*
X63705Y78081D01*
X63865Y78240D01*
X64343Y78400D01*
X64980D01*
X65458Y78240D01*
X65617Y78081D01*
X65776Y77762D01*
Y77444D01*
X65617Y77125D01*
X65139Y76806D01*
X64343Y76488D01*
X64024Y76328D01*
X63705Y76010D01*
X63546Y75532D01*
Y75054D01*
X64980Y78400D02*
X65298Y78240D01*
X65458Y78081D01*
X65617Y77762D01*
Y77444D01*
X65458Y77125D01*
X64980Y76806D01*
X64343Y76488D01*
X63546Y75373D02*
X63705Y75532D01*
X64024D01*
X64820Y75213D01*
X65298D01*
X65617Y75373D01*
X65776Y75532D01*
Y75851D01*
X64024Y75532D02*
X64820Y75054D01*
X65458D01*
X65617Y75213D01*
X65776Y75532D01*
X67226Y78400D02*
X66748Y78240D01*
X66430Y77762D01*
X66270Y76966D01*
Y76488D01*
X66430Y75691D01*
X66748Y75213D01*
X67226Y75054D01*
X67545D01*
X68023Y75213D01*
X68341Y75691D01*
X68501Y76488D01*
Y76966D01*
X68341Y77762D01*
X68023Y78240D01*
X67545Y78400D01*
X67226D01*
X66908Y78240D01*
X66748Y78081D01*
X66589Y77762D01*
X66430Y76966D01*
Y76488D01*
X66589Y75691D01*
X66748Y75373D01*
X66908Y75213D01*
X67226Y75054D01*
X67545D02*
X67864Y75213D01*
X68023Y75373D01*
X68182Y75691D01*
X68341Y76488D01*
Y76966D01*
X68182Y77762D01*
X68023Y78081D01*
X67864Y78240D01*
X67545Y78400D01*
D17*
X146095Y107250D02*
X145767Y107578D01*
X145111D01*
X144783Y107250D01*
Y105938D01*
X145111Y105610D01*
X145767D01*
X146095Y105938D01*
Y106594D01*
X145439D01*
X146751Y105610D02*
Y107578D01*
X148063Y105610D01*
Y107578D01*
X148719D02*
Y105610D01*
X149703D01*
X150031Y105938D01*
Y107250D01*
X149703Y107578D01*
X148719D01*
X77332Y63156D02*
X77004Y63484D01*
X76348D01*
X76020Y63156D01*
Y61844D01*
X76348Y61516D01*
X77004D01*
X77332Y61844D01*
Y62500D01*
X76676D01*
X77988Y61516D02*
Y63484D01*
X79300Y61516D01*
Y63484D01*
X79956D02*
Y61516D01*
X80940D01*
X81268Y61844D01*
Y63156D01*
X80940Y63484D01*
X79956D01*
X153512Y80642D02*
X153184Y80969D01*
X152528D01*
X152200Y80642D01*
Y79330D01*
X152528Y79002D01*
X153184D01*
X153512Y79330D01*
Y79985D01*
X152856D01*
X154168Y79002D02*
Y80969D01*
X155480Y79002D01*
Y80969D01*
X156136D02*
Y79002D01*
X157120D01*
X157448Y79330D01*
Y80642D01*
X157120Y80969D01*
X156136D01*
D18*
X149508Y139370D02*
Y138321D01*
Y138845D01*
X152656D01*
X152132Y139370D01*
X50591Y139764D02*
Y138714D01*
Y139239D01*
X53739D01*
X53214Y139764D01*
X111516D02*
Y138714D01*
Y139239D01*
X114664D01*
X114140Y139764D01*
D19*
X52388Y123464D02*
X51391D01*
X51889D01*
Y120971D01*
X51391Y120472D01*
X50892D01*
X50394Y120971D01*
X53385Y119974D02*
X55379D01*
X56376Y123464D02*
Y121469D01*
X57373Y120472D01*
X58370Y121469D01*
Y123464D01*
X61361Y120472D02*
X59367D01*
X61361Y122467D01*
Y122965D01*
X60863Y123464D01*
X59866D01*
X59367Y122965D01*
X145498Y35471D02*
X144501D01*
X145000D01*
Y32979D01*
X144501Y32480D01*
X144002D01*
X143504Y32979D01*
X146495Y31982D02*
X148489D01*
X149486Y35471D02*
Y33477D01*
X150483Y32480D01*
X151480Y33477D01*
Y35471D01*
X152477Y34973D02*
X152976Y35471D01*
X153973D01*
X154472Y34973D01*
Y34474D01*
X153973Y33976D01*
X153474D01*
X153973D01*
X154472Y33477D01*
Y32979D01*
X153973Y32480D01*
X152976D01*
X152477Y32979D01*
X28372Y122775D02*
X27375D01*
X27874D01*
Y120282D01*
X27375Y119783D01*
X26877D01*
X26378Y120282D01*
X29369Y119285D02*
X31363D01*
X32360Y122775D02*
Y120781D01*
X33357Y119783D01*
X34354Y120781D01*
Y122775D01*
X35351Y119783D02*
X36349D01*
X35850D01*
Y122775D01*
X35351Y122276D01*
D20*
X38091Y56345D02*
Y53846D01*
X38590Y53347D01*
X39590D01*
X40090Y53846D01*
Y56345D01*
X41090Y53347D02*
X42089D01*
X41589D01*
Y56345D01*
X41090Y55846D01*
X176772Y65105D02*
Y62606D01*
X177271Y62106D01*
X178271D01*
X178771Y62606D01*
Y65105D01*
X181770Y62106D02*
X179771D01*
X181770Y64106D01*
Y64605D01*
X181270Y65105D01*
X180271D01*
X179771Y64605D01*
X12795Y32428D02*
X14795D01*
X13795D01*
Y29429D01*
X15794D02*
Y32428D01*
X17294D01*
X17794Y31928D01*
Y30929D01*
X17294Y30429D01*
X15794D01*
X18793Y29929D02*
X19293Y29429D01*
X20293D01*
X20793Y29929D01*
Y31928D01*
X20293Y32428D01*
X19293D01*
X18793Y31928D01*
Y31429D01*
X19293Y30929D01*
X20793D01*
X12598Y41462D02*
X14598D01*
X13598D01*
Y38463D01*
X15597D02*
Y41462D01*
X17097D01*
X17597Y40963D01*
Y39963D01*
X17097Y39463D01*
X15597D01*
X18597Y40963D02*
X19096Y41462D01*
X20096D01*
X20596Y40963D01*
Y40463D01*
X20096Y39963D01*
X20596Y39463D01*
Y38963D01*
X20096Y38463D01*
X19096D01*
X18597Y38963D01*
Y39463D01*
X19096Y39963D01*
X18597Y40463D01*
Y40963D01*
X19096Y39963D02*
X20096D01*
X12402Y59080D02*
X14401D01*
X13401D01*
Y56081D01*
X15401D02*
Y59080D01*
X16900D01*
X17400Y58581D01*
Y57581D01*
X16900Y57081D01*
X15401D01*
X20399Y59080D02*
X19399Y58581D01*
X18400Y57581D01*
Y56581D01*
X18900Y56081D01*
X19899D01*
X20399Y56581D01*
Y57081D01*
X19899Y57581D01*
X18400D01*
X12795Y96651D02*
X14795D01*
X13795D01*
Y93652D01*
X15794D02*
Y96651D01*
X17294D01*
X17794Y96151D01*
Y95151D01*
X17294Y94651D01*
X15794D01*
X20793Y93652D02*
X18793D01*
X20793Y95651D01*
Y96151D01*
X20293Y96651D01*
X19293D01*
X18793Y96151D01*
X12500Y50173D02*
X14499D01*
X13500D01*
Y47174D01*
X15499D02*
Y50173D01*
X16999D01*
X17498Y49673D01*
Y48673D01*
X16999Y48174D01*
X15499D01*
X18498Y50173D02*
X20497D01*
Y49673D01*
X18498Y47674D01*
Y47174D01*
X12500Y78343D02*
X14499D01*
X13500D01*
Y75345D01*
X15499D02*
Y78343D01*
X16999D01*
X17498Y77844D01*
Y76844D01*
X16999Y76344D01*
X15499D01*
X19998Y75345D02*
Y78343D01*
X18498Y76844D01*
X20497D01*
X12500Y69267D02*
X14499D01*
X13500D01*
Y66268D01*
X15499D02*
Y69267D01*
X16999D01*
X17498Y68768D01*
Y67768D01*
X16999Y67268D01*
X15499D01*
X20497Y69267D02*
X18498D01*
Y67768D01*
X19498Y68268D01*
X19998D01*
X20497Y67768D01*
Y66768D01*
X19998Y66268D01*
X18998D01*
X18498Y66768D01*
X12894Y87079D02*
X14893D01*
X13893D01*
Y84080D01*
X15893D02*
Y87079D01*
X17392D01*
X17892Y86579D01*
Y85579D01*
X17392Y85079D01*
X15893D01*
X18892Y86579D02*
X19392Y87079D01*
X20391D01*
X20891Y86579D01*
Y86079D01*
X20391Y85579D01*
X19891D01*
X20391D01*
X20891Y85079D01*
Y84580D01*
X20391Y84080D01*
X19392D01*
X18892Y84580D01*
X12795Y105066D02*
X14795D01*
X13795D01*
Y102067D01*
X15794D02*
Y105066D01*
X17294D01*
X17794Y104566D01*
Y103566D01*
X17294Y103067D01*
X15794D01*
X18793Y102067D02*
X19793D01*
X19293D01*
Y105066D01*
X18793Y104566D01*
X151015Y168641D02*
X150515Y169141D01*
X149516D01*
X149016Y168641D01*
Y168141D01*
X149516Y167641D01*
X150515D01*
X151015Y167141D01*
Y166642D01*
X150515Y166142D01*
X149516D01*
X149016Y166642D01*
X154014Y168641D02*
X153514Y169141D01*
X152515D01*
X152015Y168641D01*
Y166642D01*
X152515Y166142D01*
X153514D01*
X154014Y166642D01*
X155014Y166142D02*
X156014D01*
X155514D01*
Y169141D01*
X155014Y168641D01*
X114567Y20866D02*
X117566D01*
Y19367D01*
X117066Y18867D01*
X116067D01*
X115567Y19367D01*
Y20866D01*
Y19866D02*
X114567Y18867D01*
X117066Y17867D02*
X117566Y17367D01*
Y16368D01*
X117066Y15868D01*
X116566D01*
X116067Y16368D01*
Y16867D01*
Y16368D01*
X115567Y15868D01*
X115067D01*
X114567Y16368D01*
Y17367D01*
X115067Y17867D01*
X114567Y31398D02*
X117566D01*
Y29898D01*
X117066Y29398D01*
X116067D01*
X115567Y29898D01*
Y31398D01*
Y30398D02*
X114567Y29398D01*
Y26399D02*
Y28399D01*
X116566Y26399D01*
X117066D01*
X117566Y26899D01*
Y27899D01*
X117066Y28399D01*
X114469Y50689D02*
X117467D01*
Y49189D01*
X116968Y48690D01*
X115968D01*
X115468Y49189D01*
Y50689D01*
Y49689D02*
X114469Y48690D01*
X117467Y45691D02*
Y47690D01*
X115968D01*
X116468Y46690D01*
Y46190D01*
X115968Y45691D01*
X114968D01*
X114469Y46190D01*
Y47190D01*
X114968Y47690D01*
X162992Y93307D02*
Y96306D01*
X164492D01*
X164991Y95806D01*
Y94807D01*
X164492Y94307D01*
X162992D01*
X163992D02*
X164991Y93307D01*
X165991D02*
X166991D01*
X166491D01*
Y96306D01*
X165991Y95806D01*
X168490D02*
X168990Y96306D01*
X169990D01*
X170490Y95806D01*
Y93807D01*
X169990Y93307D01*
X168990D01*
X168490Y93807D01*
Y95806D01*
X173425Y93209D02*
Y96208D01*
X174925D01*
X175425Y95708D01*
Y94708D01*
X174925Y94208D01*
X173425D01*
X174425D02*
X175425Y93209D01*
X176424D02*
X177424D01*
X176924D01*
Y96208D01*
X176424Y95708D01*
X178923Y93209D02*
X179923D01*
X179423D01*
Y96208D01*
X178923Y95708D01*
X182756Y93307D02*
Y96306D01*
X184255D01*
X184755Y95806D01*
Y94807D01*
X184255Y94307D01*
X182756D01*
X183756D02*
X184755Y93307D01*
X185755D02*
X186755D01*
X186255D01*
Y96306D01*
X185755Y95806D01*
X190253Y93307D02*
X188254D01*
X190253Y95306D01*
Y95806D01*
X189754Y96306D01*
X188754D01*
X188254Y95806D01*
X193701Y93209D02*
Y96208D01*
X195200D01*
X195700Y95708D01*
Y94708D01*
X195200Y94208D01*
X193701D01*
X194701D02*
X195700Y93209D01*
X196700D02*
X197699D01*
X197200D01*
Y96208D01*
X196700Y95708D01*
X199199D02*
X199699Y96208D01*
X200698D01*
X201198Y95708D01*
Y95208D01*
X200698Y94708D01*
X200199D01*
X200698D01*
X201198Y94208D01*
Y93708D01*
X200698Y93209D01*
X199699D01*
X199199Y93708D01*
X203642Y93108D02*
Y96107D01*
X205141D01*
X205641Y95608D01*
Y94608D01*
X205141Y94108D01*
X203642D01*
X204641D02*
X205641Y93108D01*
X206641D02*
X207640D01*
X207141D01*
Y96107D01*
X206641Y95608D01*
X210640Y93108D02*
Y96107D01*
X209140Y94608D01*
X211139D01*
X213976Y93012D02*
Y96011D01*
X215476D01*
X215976Y95511D01*
Y94511D01*
X215476Y94011D01*
X213976D01*
X214976D02*
X215976Y93012D01*
X216975D02*
X217975D01*
X217475D01*
Y96011D01*
X216975Y95511D01*
X221474Y96011D02*
X219475D01*
Y94511D01*
X220474Y95011D01*
X220974D01*
X221474Y94511D01*
Y93512D01*
X220974Y93012D01*
X219974D01*
X219475Y93512D01*
X114567Y39370D02*
X117566D01*
Y37870D01*
X117066Y37371D01*
X116067D01*
X115567Y37870D01*
Y39370D01*
Y38370D02*
X114567Y37371D01*
Y34872D02*
X117566D01*
X116067Y36371D01*
Y34372D01*
X126378Y81853D02*
X129377D01*
Y80353D01*
X128877Y79853D01*
X127877D01*
X127378Y80353D01*
Y81853D01*
Y80853D02*
X126378Y79853D01*
X126878Y78854D02*
X126378Y78354D01*
Y77354D01*
X126878Y76854D01*
X128877D01*
X129377Y77354D01*
Y78354D01*
X128877Y78854D01*
X128377D01*
X127877Y78354D01*
Y76854D01*
X126378Y63884D02*
X129377D01*
Y62385D01*
X128877Y61885D01*
X127877D01*
X127378Y62385D01*
Y63884D01*
Y62884D02*
X126378Y61885D01*
X129377Y58886D02*
X128877Y59885D01*
X127877Y60885D01*
X126878D01*
X126378Y60385D01*
Y59386D01*
X126878Y58886D01*
X127378D01*
X127877Y59386D01*
Y60885D01*
X126870Y92151D02*
X129869D01*
Y90651D01*
X129369Y90151D01*
X128370D01*
X127870Y90651D01*
Y92151D01*
Y91151D02*
X126870Y90151D01*
X129369Y89152D02*
X129869Y88652D01*
Y87652D01*
X129369Y87152D01*
X128869D01*
X128370Y87652D01*
X127870Y87152D01*
X127370D01*
X126870Y87652D01*
Y88652D01*
X127370Y89152D01*
X127870D01*
X128370Y88652D01*
X128869Y89152D01*
X129369D01*
X128370Y88652D02*
Y87652D01*
X126870Y113287D02*
X129869D01*
Y111788D01*
X129369Y111288D01*
X128370D01*
X127870Y111788D01*
Y113287D01*
Y112288D02*
X126870Y111288D01*
X129869Y110288D02*
Y108289D01*
X129369D01*
X127370Y110288D01*
X126870D01*
X51673Y148425D02*
Y151424D01*
X53173D01*
X53673Y150924D01*
Y149925D01*
X53173Y149425D01*
X51673D01*
X52673D02*
X53673Y148425D01*
X54672D02*
X55672D01*
X55172D01*
Y151424D01*
X54672Y150924D01*
X23228Y150787D02*
Y153786D01*
X24728D01*
X25228Y153287D01*
Y152287D01*
X24728Y151787D01*
X23228D01*
X26227Y150787D02*
X27227D01*
X26727D01*
Y153786D01*
X26227Y153287D01*
X111319Y152067D02*
Y155066D01*
X112818D01*
X113318Y154566D01*
Y153566D01*
X112818Y153067D01*
X111319D01*
X115817Y152067D02*
Y155066D01*
X114318Y153566D01*
X116317D01*
X73425Y151575D02*
Y154574D01*
X74925D01*
X75424Y154074D01*
Y153074D01*
X74925Y152575D01*
X73425D01*
X76424Y154074D02*
X76924Y154574D01*
X77924D01*
X78424Y154074D01*
Y153574D01*
X77924Y153074D01*
X77424D01*
X77924D01*
X78424Y152575D01*
Y152075D01*
X77924Y151575D01*
X76924D01*
X76424Y152075D01*
X52067Y161956D02*
Y158957D01*
X53566D01*
X54066Y159457D01*
Y161456D01*
X53566Y161956D01*
X52067D01*
X55066Y158957D02*
X56066D01*
X55566D01*
Y161956D01*
X55066Y161456D01*
X52998Y57216D02*
X52498Y56716D01*
Y55716D01*
X52998Y55216D01*
X54997D01*
X55497Y55716D01*
Y56716D01*
X54997Y57216D01*
X55497Y58216D02*
Y59215D01*
Y58715D01*
X52498D01*
X52998Y58216D01*
X159086Y60275D02*
X158586Y60775D01*
X157586D01*
X157087Y60275D01*
Y58275D01*
X157586Y57776D01*
X158586D01*
X159086Y58275D01*
X160086Y60275D02*
X160585Y60775D01*
X161585D01*
X162085Y60275D01*
Y59775D01*
X161585Y59275D01*
X161085D01*
X161585D01*
X162085Y58775D01*
Y58275D01*
X161585Y57776D01*
X160585D01*
X160086Y58275D01*
X150425Y57519D02*
X149925Y58019D01*
X148925D01*
X148425Y57519D01*
Y55519D01*
X148925Y55020D01*
X149925D01*
X150425Y55519D01*
X153424Y55020D02*
X151424D01*
X153424Y57019D01*
Y57519D01*
X152924Y58019D01*
X151924D01*
X151424Y57519D01*
D21*
X64271Y150000D02*
D03*
X117421Y110827D02*
D03*
Y90108D02*
D03*
X117225Y61910D02*
D03*
X117421Y79651D02*
D03*
X104134Y37008D02*
D03*
X104725Y46654D02*
D03*
X103937Y27362D02*
D03*
Y17618D02*
D03*
X31100Y114202D02*
D03*
X148917Y26476D02*
D03*
X55315Y114567D02*
D03*
D22*
X216142Y84055D02*
D03*
X206259D02*
D03*
X196378D02*
D03*
X186495D02*
D03*
X176614D02*
D03*
X166731D02*
D03*
M02*
