G04*
G04 #@! TF.GenerationSoftware,Altium Limited,Altium Designer,18.1.7 (191)*
G04*
G04 Layer_Physical_Order=1*
G04 Layer_Color=255*
%FSLAX25Y25*%
%MOIN*%
G70*
G01*
G75*
%ADD12C,0.01000*%
%ADD21R,0.03740X0.09843*%
%ADD22R,0.03150X0.04882*%
%ADD23R,0.03740X0.08661*%
%ADD24R,0.05906X0.04528*%
%ADD25R,0.04528X0.08661*%
%ADD26R,0.03150X0.04724*%
%ADD27R,0.07579X0.02756*%
%ADD28R,0.05906X0.02165*%
%ADD29C,0.03200*%
%ADD30R,0.05118X0.05906*%
%ADD31R,0.03937X0.03543*%
%ADD32R,0.04000X0.06000*%
%ADD33R,0.04724X0.06000*%
%ADD34R,0.05906X0.05118*%
%ADD35R,0.06000X0.04724*%
%ADD55C,0.15748*%
%ADD56C,0.02000*%
%ADD57C,0.04000*%
%ADD58R,0.07000X0.07000*%
%ADD59C,0.07000*%
%ADD60R,0.07000X0.07000*%
%ADD61C,0.02362*%
G36*
X10000Y170142D02*
X229323D01*
X229331Y170140D01*
X240147D01*
X241755Y169982D01*
X243442Y169470D01*
X244996Y168639D01*
X246359Y167521D01*
X247478Y166158D01*
X248309Y164603D01*
X248820Y162916D01*
X248989Y161205D01*
X248980Y161161D01*
Y146986D01*
X248979Y146861D01*
X248980Y146856D01*
Y24516D01*
X248979Y24508D01*
Y9754D01*
X248820Y8147D01*
X248309Y6460D01*
X247478Y4905D01*
X246359Y3542D01*
X244996Y2424D01*
X243442Y1593D01*
X241755Y1081D01*
X240043Y912D01*
X240000Y921D01*
X20382D01*
X20374Y923D01*
X9853D01*
X8246Y1081D01*
X6558Y1593D01*
X5004Y2424D01*
X3641Y3542D01*
X2522Y4905D01*
X1691Y6460D01*
X1180Y8147D01*
X1011Y9858D01*
X1020Y9902D01*
Y24077D01*
X1021Y24300D01*
X1020Y24309D01*
Y146842D01*
X1021Y146850D01*
Y161309D01*
X1180Y162916D01*
X1691Y164603D01*
X2522Y166158D01*
X3641Y167521D01*
X5004Y168639D01*
X6558Y169470D01*
X8246Y169982D01*
X9957Y170150D01*
X10000Y170142D01*
D02*
G37*
%LPC*%
G36*
X200878Y160045D02*
X198803D01*
Y159545D01*
X195291D01*
X194973Y159545D01*
X194472Y159545D01*
X190961D01*
X190642Y159545D01*
X190142Y159545D01*
X186630D01*
X186311Y159545D01*
X185811Y159545D01*
X182299D01*
X181980Y159545D01*
X181480Y159545D01*
X177650D01*
Y153663D01*
X178620D01*
X178622Y153662D01*
X178631Y153642D01*
X178650Y153570D01*
X178667Y153467D01*
X178679Y153334D01*
X178683Y153161D01*
X178705Y153113D01*
Y142942D01*
X167389Y131626D01*
X167168Y131296D01*
X167091Y130905D01*
Y91467D01*
X167069Y91419D01*
X167065Y91243D01*
X167053Y91109D01*
X167035Y91003D01*
X167016Y90929D01*
X167011Y90917D01*
X163232D01*
Y85193D01*
X170232D01*
Y90917D01*
X169209D01*
X169205Y90929D01*
X169185Y91003D01*
X169168Y91109D01*
X169156Y91243D01*
X169151Y91419D01*
X169130Y91468D01*
Y130483D01*
X180445Y141799D01*
X180666Y142130D01*
X180744Y142520D01*
Y153113D01*
X180765Y153161D01*
X180770Y153334D01*
X180782Y153467D01*
X180799Y153570D01*
X180818Y153642D01*
X180826Y153662D01*
X180829Y153663D01*
X181799Y153663D01*
X182299Y153663D01*
X182950D01*
X182953Y153662D01*
X182961Y153642D01*
X182981Y153570D01*
X182998Y153467D01*
X183010Y153334D01*
X183014Y153161D01*
X183036Y153113D01*
Y122666D01*
X180207Y119838D01*
X180158Y119819D01*
X180082Y119747D01*
X180020Y119695D01*
X179961Y119652D01*
X179906Y119617D01*
X179855Y119589D01*
X179807Y119569D01*
X179763Y119554D01*
X179722Y119545D01*
X179682Y119539D01*
X179617Y119537D01*
X179580Y119520D01*
X178970Y119398D01*
X178414Y119027D01*
X178042Y118471D01*
X177921Y117860D01*
X177904Y117824D01*
X177902Y117759D01*
X177896Y117719D01*
X177887Y117678D01*
X177872Y117634D01*
X177852Y117586D01*
X177824Y117535D01*
X177789Y117480D01*
X177746Y117421D01*
X177693Y117359D01*
X177622Y117283D01*
X177603Y117234D01*
X173885Y113516D01*
X173664Y113185D01*
X173587Y112795D01*
Y91467D01*
X173565Y91419D01*
X173561Y91245D01*
X173549Y91111D01*
X173533Y91006D01*
X173514Y90933D01*
X173508Y90917D01*
X173114D01*
Y90478D01*
X173085Y90409D01*
X173097Y90378D01*
X173088Y90346D01*
X173114Y90299D01*
Y85193D01*
X180114D01*
Y90917D01*
X175706D01*
X175701Y90931D01*
X175681Y91004D01*
X175664Y91110D01*
X175652Y91244D01*
X175647Y91419D01*
X175626Y91468D01*
Y102839D01*
X176008Y103124D01*
X176126Y103124D01*
X179461D01*
Y106388D01*
Y109652D01*
X176126D01*
X176008Y109652D01*
X175626Y109936D01*
Y112373D01*
X179045Y115792D01*
X179094Y115811D01*
X179170Y115882D01*
X179232Y115935D01*
X179291Y115978D01*
X179346Y116013D01*
X179397Y116041D01*
X179445Y116061D01*
X179489Y116076D01*
X179530Y116085D01*
X179569Y116091D01*
X179635Y116093D01*
X179672Y116110D01*
X180282Y116231D01*
X180838Y116603D01*
X181210Y117159D01*
X181331Y117769D01*
X181348Y117806D01*
X181350Y117871D01*
X181356Y117911D01*
X181365Y117952D01*
X181380Y117996D01*
X181400Y118044D01*
X181428Y118095D01*
X181463Y118150D01*
X181506Y118209D01*
X181559Y118271D01*
X181630Y118347D01*
X181649Y118396D01*
X184776Y121523D01*
X184997Y121854D01*
X185075Y122244D01*
Y153113D01*
X185096Y153161D01*
X185101Y153334D01*
X185112Y153467D01*
X185130Y153570D01*
X185149Y153642D01*
X185157Y153662D01*
X185160Y153663D01*
X186130Y153663D01*
X186630Y153663D01*
X187281D01*
X187284Y153662D01*
X187292Y153642D01*
X187311Y153570D01*
X187329Y153467D01*
X187340Y153334D01*
X187345Y153161D01*
X187366Y153113D01*
Y145542D01*
X187345Y145494D01*
X187342Y145390D01*
X187335Y145309D01*
X187324Y145237D01*
X187310Y145173D01*
X187293Y145117D01*
X187274Y145069D01*
X187253Y145028D01*
X187231Y144992D01*
X187206Y144960D01*
X187162Y144912D01*
X187148Y144874D01*
X186802Y144357D01*
X186672Y143701D01*
X186802Y143045D01*
X187148Y142527D01*
X187162Y142490D01*
X187206Y142442D01*
X187231Y142410D01*
X187253Y142374D01*
X187274Y142332D01*
X187293Y142284D01*
X187310Y142229D01*
X187324Y142165D01*
X187335Y142093D01*
X187342Y142011D01*
X187345Y141907D01*
X187366Y141859D01*
Y91467D01*
X187345Y91419D01*
X187340Y91243D01*
X187329Y91109D01*
X187311Y91003D01*
X187292Y90929D01*
X187287Y90917D01*
X182996D01*
Y85193D01*
X189996D01*
Y90917D01*
X189485D01*
X189480Y90929D01*
X189461Y91003D01*
X189443Y91109D01*
X189431Y91243D01*
X189427Y91419D01*
X189405Y91468D01*
Y141859D01*
X189427Y141907D01*
X189430Y142011D01*
X189437Y142093D01*
X189448Y142165D01*
X189462Y142229D01*
X189479Y142284D01*
X189498Y142332D01*
X189519Y142374D01*
X189541Y142410D01*
X189565Y142442D01*
X189610Y142490D01*
X189624Y142527D01*
X189969Y143045D01*
X190100Y143701D01*
X189969Y144357D01*
X189624Y144874D01*
X189610Y144912D01*
X189565Y144960D01*
X189541Y144992D01*
X189519Y145028D01*
X189498Y145069D01*
X189479Y145117D01*
X189462Y145173D01*
X189448Y145237D01*
X189437Y145309D01*
X189430Y145390D01*
X189427Y145494D01*
X189405Y145542D01*
Y153113D01*
X189427Y153161D01*
X189431Y153334D01*
X189443Y153467D01*
X189460Y153570D01*
X189480Y153642D01*
X189488Y153662D01*
X189491Y153663D01*
X190461Y153663D01*
X191004Y153663D01*
X191015Y153641D01*
X191055Y153526D01*
X191095Y153354D01*
X191128Y153136D01*
X191170Y152532D01*
X191175Y152167D01*
X191187Y152140D01*
Y124027D01*
X191026Y123786D01*
X190895Y123130D01*
X191026Y122474D01*
X191397Y121918D01*
X191953Y121546D01*
X192609Y121416D01*
X193265Y121546D01*
X193821Y121918D01*
X194193Y122474D01*
X194323Y123130D01*
X194246Y123519D01*
Y152133D01*
X194257Y152158D01*
X194280Y152862D01*
X194305Y153129D01*
X194339Y153354D01*
X194378Y153526D01*
X194418Y153641D01*
X194430Y153663D01*
X194791Y153663D01*
X195291Y153663D01*
X195942D01*
X195945Y153662D01*
X195954Y153642D01*
X195973Y153570D01*
X195990Y153467D01*
X196002Y153334D01*
X196006Y153161D01*
X196028Y153113D01*
Y134912D01*
X196006Y134864D01*
X196003Y134760D01*
X195996Y134679D01*
X195985Y134607D01*
X195971Y134543D01*
X195954Y134487D01*
X195935Y134439D01*
X195914Y134398D01*
X195892Y134362D01*
X195868Y134330D01*
X195824Y134282D01*
X195809Y134244D01*
X195464Y133727D01*
X195333Y133071D01*
X195464Y132415D01*
X195809Y131897D01*
X195824Y131860D01*
X195868Y131812D01*
X195892Y131780D01*
X195914Y131744D01*
X195935Y131702D01*
X195954Y131654D01*
X195971Y131599D01*
X195985Y131535D01*
X195996Y131463D01*
X196003Y131382D01*
X196006Y131277D01*
X196028Y131229D01*
Y91467D01*
X196006Y91419D01*
X196002Y91243D01*
X195990Y91109D01*
X195973Y91003D01*
X195953Y90929D01*
X195948Y90917D01*
X192878D01*
Y85193D01*
X199878D01*
Y90917D01*
X198146D01*
X198142Y90929D01*
X198122Y91003D01*
X198105Y91109D01*
X198093Y91243D01*
X198088Y91419D01*
X198067Y91468D01*
Y131229D01*
X198088Y131277D01*
X198091Y131382D01*
X198098Y131463D01*
X198109Y131535D01*
X198123Y131599D01*
X198140Y131654D01*
X198159Y131702D01*
X198180Y131744D01*
X198202Y131780D01*
X198227Y131812D01*
X198271Y131860D01*
X198285Y131897D01*
X198631Y132415D01*
X198761Y133071D01*
X198631Y133727D01*
X198285Y134244D01*
X198271Y134282D01*
X198227Y134330D01*
X198202Y134362D01*
X198180Y134398D01*
X198159Y134439D01*
X198140Y134487D01*
X198123Y134543D01*
X198109Y134607D01*
X198098Y134679D01*
X198091Y134760D01*
X198088Y134864D01*
X198067Y134912D01*
Y153113D01*
X198088Y153161D01*
X198093Y153334D01*
X198105Y153467D01*
X198122Y153570D01*
X198141Y153642D01*
X198149Y153662D01*
X198152Y153663D01*
X198803D01*
Y153163D01*
X200878D01*
Y156604D01*
Y160045D01*
D02*
G37*
G36*
X71653Y161087D02*
X69153D01*
Y157587D01*
X71653D01*
Y161087D01*
D02*
G37*
G36*
X68154D02*
X65654D01*
Y157587D01*
X68154D01*
Y161087D01*
D02*
G37*
G36*
X222142Y160045D02*
X219772D01*
Y155215D01*
X222142D01*
Y160045D01*
D02*
G37*
G36*
X218772D02*
X216402D01*
Y155215D01*
X218772D01*
Y160045D01*
D02*
G37*
G36*
X165488D02*
X163118D01*
Y154624D01*
X165488D01*
Y160045D01*
D02*
G37*
G36*
X162118D02*
X159748D01*
Y154624D01*
X162118D01*
Y160045D01*
D02*
G37*
G36*
X71653Y156587D02*
X69153D01*
Y153087D01*
X71653D01*
Y156587D01*
D02*
G37*
G36*
X68154D02*
X65654D01*
Y153087D01*
X68154D01*
Y156587D01*
D02*
G37*
G36*
X165488Y153624D02*
X163118D01*
Y148203D01*
X165488D01*
Y153624D01*
D02*
G37*
G36*
X162118D02*
X159748D01*
Y148203D01*
X162118D01*
Y153624D01*
D02*
G37*
G36*
X10827Y164812D02*
X9185Y164650D01*
X7607Y164172D01*
X6152Y163394D01*
X4877Y162348D01*
X3830Y161073D01*
X3053Y159618D01*
X2574Y158039D01*
X2412Y156398D01*
X2574Y154756D01*
X3053Y153177D01*
X3830Y151723D01*
X4877Y150448D01*
X6152Y149401D01*
X7607Y148624D01*
X9185Y148145D01*
X10827Y147983D01*
X12468Y148145D01*
X14047Y148624D01*
X15502Y149401D01*
X16777Y150448D01*
X17823Y151723D01*
X18601Y153177D01*
X19080Y154756D01*
X19241Y156398D01*
X19080Y158039D01*
X18601Y159618D01*
X17823Y161073D01*
X16777Y162348D01*
X15502Y163394D01*
X14047Y164172D01*
X12468Y164650D01*
X10827Y164812D01*
D02*
G37*
G36*
X222142Y154215D02*
X216402D01*
Y149691D01*
X215102D01*
Y146750D01*
X220252D01*
Y149384D01*
X222142D01*
Y154215D01*
D02*
G37*
G36*
X34575Y148469D02*
Y144496D01*
X38548D01*
X38459Y145171D01*
X38006Y146265D01*
X37284Y147205D01*
X36344Y147927D01*
X35250Y148380D01*
X34575Y148469D01*
D02*
G37*
G36*
X33575D02*
X32900Y148380D01*
X31805Y147927D01*
X30865Y147205D01*
X30144Y146265D01*
X29691Y145171D01*
X29602Y144496D01*
X33575D01*
Y148469D01*
D02*
G37*
G36*
X63153Y160587D02*
X58153D01*
Y153587D01*
X59549D01*
X59552Y153585D01*
X59560Y153565D01*
X59579Y153493D01*
X59596Y153390D01*
X59608Y153258D01*
X59613Y153084D01*
X59634Y153036D01*
Y150802D01*
X59613Y150754D01*
X59608Y150581D01*
X59596Y150448D01*
X59579Y150345D01*
X59560Y150274D01*
X59552Y150254D01*
X59549Y150252D01*
X57791D01*
Y143252D01*
X63516D01*
Y150252D01*
X61759D01*
X61755Y150254D01*
X61747Y150274D01*
X61728Y150345D01*
X61711Y150448D01*
X61699Y150581D01*
X61695Y150754D01*
X61673Y150802D01*
Y153036D01*
X61695Y153084D01*
X61699Y153258D01*
X61711Y153390D01*
X61728Y153493D01*
X61747Y153565D01*
X61755Y153585D01*
X61759Y153587D01*
X63153D01*
Y160587D01*
D02*
G37*
G36*
X71516Y150252D02*
X65791D01*
Y145281D01*
X65781Y145264D01*
X65791Y145221D01*
Y145220D01*
X65774Y145178D01*
X65791Y145137D01*
Y144836D01*
X65767Y144794D01*
X65680Y144670D01*
X65394Y144334D01*
X65207Y144140D01*
X65187Y144090D01*
X41996Y120898D01*
X41775Y120567D01*
X41697Y120177D01*
Y87992D01*
X41775Y87602D01*
X41996Y87271D01*
X46622Y82645D01*
X46952Y82424D01*
X47343Y82347D01*
X50521D01*
X50569Y82325D01*
X50593Y82284D01*
X50563Y82130D01*
X50388Y81812D01*
X50382Y81808D01*
X49847Y81702D01*
X49291Y81330D01*
X48919Y80774D01*
X48789Y80118D01*
X48919Y79462D01*
X49291Y78906D01*
X49847Y78535D01*
X50503Y78404D01*
X51158Y78535D01*
X51676Y78880D01*
X51714Y78894D01*
X51762Y78939D01*
X51794Y78963D01*
X51830Y78985D01*
X51871Y79006D01*
X51919Y79025D01*
X51975Y79042D01*
X52038Y79056D01*
X52111Y79067D01*
X52192Y79074D01*
X52296Y79077D01*
X52344Y79098D01*
X104069D01*
X104459Y79176D01*
X104790Y79397D01*
X111391Y85999D01*
X111439Y86017D01*
X111821Y86371D01*
X111968Y86488D01*
X112096Y86577D01*
X112150Y86608D01*
X112415D01*
X112485Y86579D01*
X112526Y86596D01*
X112570Y86586D01*
X112607Y86608D01*
X116284D01*
Y93608D01*
X114977D01*
X114972Y93620D01*
X114953Y93694D01*
X114935Y93800D01*
X114924Y93934D01*
X114919Y94110D01*
X114898Y94159D01*
Y95009D01*
X114919Y95057D01*
X114922Y95161D01*
X114929Y95242D01*
X114940Y95315D01*
X114954Y95378D01*
X114971Y95434D01*
X114990Y95482D01*
X115011Y95523D01*
X115033Y95559D01*
X115057Y95591D01*
X115102Y95639D01*
X115116Y95677D01*
X115462Y96194D01*
X115592Y96850D01*
X115462Y97506D01*
X115090Y98062D01*
X114534Y98434D01*
X113878Y98564D01*
X113222Y98434D01*
X112666Y98062D01*
X112294Y97506D01*
X112164Y96850D01*
X112294Y96194D01*
X112640Y95677D01*
X112654Y95639D01*
X112699Y95591D01*
X112723Y95559D01*
X112745Y95523D01*
X112766Y95482D01*
X112785Y95434D01*
X112802Y95378D01*
X112816Y95315D01*
X112827Y95242D01*
X112834Y95161D01*
X112837Y95057D01*
X112858Y95009D01*
Y94159D01*
X112837Y94110D01*
X112832Y93934D01*
X112821Y93800D01*
X112803Y93694D01*
X112784Y93620D01*
X112779Y93608D01*
X110559D01*
Y88656D01*
X110537Y88619D01*
X110547Y88576D01*
X110530Y88534D01*
X110559Y88464D01*
Y88199D01*
X110528Y88145D01*
X110443Y88023D01*
X110160Y87688D01*
X109975Y87496D01*
X109955Y87446D01*
X103647Y81138D01*
X52344D01*
X52296Y81159D01*
X52271Y81200D01*
X52302Y81354D01*
X52477Y81672D01*
X52482Y81676D01*
X53018Y81783D01*
X53574Y82154D01*
X53946Y82710D01*
X54076Y83366D01*
X53946Y84022D01*
X53574Y84578D01*
X53018Y84950D01*
X52362Y85080D01*
X51706Y84950D01*
X51189Y84604D01*
X51151Y84590D01*
X51103Y84545D01*
X51071Y84521D01*
X51035Y84499D01*
X50994Y84478D01*
X50946Y84459D01*
X50890Y84442D01*
X50826Y84428D01*
X50754Y84417D01*
X50673Y84410D01*
X50569Y84407D01*
X50521Y84386D01*
X47765D01*
X43736Y88414D01*
Y119755D01*
X66624Y142643D01*
X66672Y142661D01*
X67055Y143017D01*
X67204Y143137D01*
X67333Y143227D01*
X67376Y143252D01*
X67676D01*
X67718Y143235D01*
X67759Y143252D01*
X67760D01*
X67804Y143242D01*
X67821Y143252D01*
X71516D01*
Y150252D01*
D02*
G37*
G36*
X220252Y145750D02*
X218177D01*
Y142809D01*
X220252D01*
Y145750D01*
D02*
G37*
G36*
X217177D02*
X215102D01*
Y142809D01*
X217177D01*
Y145750D01*
D02*
G37*
G36*
X146776Y147996D02*
X138776D01*
Y139996D01*
X146776D01*
Y147996D01*
D02*
G37*
G36*
X48075D02*
X40075D01*
Y143458D01*
X40052Y143421D01*
X40063Y143378D01*
X40046Y143336D01*
X40075Y143266D01*
Y142471D01*
X39959Y142268D01*
X39761Y141984D01*
X39167Y141281D01*
X38783Y140884D01*
X38772Y140857D01*
X26019Y128103D01*
X25687Y127606D01*
X25571Y127021D01*
Y119230D01*
X25559Y119204D01*
X25549Y118838D01*
X25523Y118533D01*
X25480Y118278D01*
X25426Y118075D01*
X25365Y117925D01*
X25306Y117827D01*
X25256Y117773D01*
X25215Y117745D01*
X25169Y117729D01*
X25043Y117716D01*
X25017Y117702D01*
X24238D01*
Y110702D01*
X29962D01*
Y117702D01*
X29183D01*
X29157Y117716D01*
X29031Y117729D01*
X28985Y117745D01*
X28944Y117773D01*
X28894Y117827D01*
X28835Y117924D01*
X28774Y118074D01*
X28720Y118278D01*
X28677Y118533D01*
X28651Y118838D01*
X28641Y119204D01*
X28629Y119230D01*
Y126388D01*
X40929Y138688D01*
X40955Y138697D01*
X41732Y139419D01*
X42056Y139678D01*
X42347Y139880D01*
X42549Y139996D01*
X43345D01*
X43415Y139967D01*
X43456Y139984D01*
X43500Y139973D01*
X43536Y139996D01*
X48075D01*
Y147996D01*
D02*
G37*
G36*
X132776Y148031D02*
X131731Y147893D01*
X130758Y147490D01*
X129923Y146849D01*
X129282Y146013D01*
X128878Y145040D01*
X128741Y143996D01*
X128878Y142952D01*
X129282Y141979D01*
X129923Y141143D01*
X130758Y140502D01*
X131731Y140099D01*
X132776Y139962D01*
X133820Y140099D01*
X134793Y140502D01*
X135628Y141143D01*
X136270Y141979D01*
X136673Y142952D01*
X136810Y143996D01*
X136673Y145040D01*
X136270Y146013D01*
X135628Y146849D01*
X134793Y147490D01*
X133820Y147893D01*
X132776Y148031D01*
D02*
G37*
G36*
X122776D02*
X121731Y147893D01*
X120758Y147490D01*
X119923Y146849D01*
X119282Y146013D01*
X118878Y145040D01*
X118741Y143996D01*
X118878Y142952D01*
X119282Y141979D01*
X119923Y141143D01*
X120758Y140502D01*
X121731Y140099D01*
X122776Y139962D01*
X123820Y140099D01*
X124793Y140502D01*
X125628Y141143D01*
X126270Y141979D01*
X126673Y142952D01*
X126810Y143996D01*
X126673Y145040D01*
X126270Y146013D01*
X125628Y146849D01*
X124793Y147490D01*
X123820Y147893D01*
X122776Y148031D01*
D02*
G37*
G36*
X38548Y143496D02*
X34575D01*
Y139523D01*
X35250Y139612D01*
X36344Y140065D01*
X37284Y140787D01*
X38006Y141727D01*
X38459Y142821D01*
X38548Y143496D01*
D02*
G37*
G36*
X33575D02*
X29602D01*
X29691Y142821D01*
X30144Y141727D01*
X30865Y140787D01*
X31805Y140065D01*
X32900Y139612D01*
X33575Y139523D01*
Y143496D01*
D02*
G37*
G36*
X238974Y140576D02*
X237737Y140374D01*
X236593Y139864D01*
X235616Y139078D01*
X234873Y138069D01*
X234412Y136904D01*
X234263Y135660D01*
X234350Y135039D01*
X234350D01*
X234464Y134405D01*
X235009Y133238D01*
X235836Y132250D01*
X236888Y131507D01*
X238096Y131060D01*
X239379Y130937D01*
X240650Y131149D01*
X241824Y131679D01*
X242323Y132087D01*
X242323Y132087D01*
X242323Y132087D01*
X242793Y132501D01*
X243491Y133542D01*
X243900Y134726D01*
X243993Y135976D01*
X243764Y137208D01*
X243228Y138340D01*
X242421Y139299D01*
X241396Y140020D01*
X240221Y140455D01*
X238974Y140576D01*
D02*
G37*
G36*
X10627D02*
X9391Y140374D01*
X8246Y139864D01*
X7270Y139078D01*
X6527Y138069D01*
X6066Y136904D01*
X5917Y135660D01*
X6004Y135039D01*
X6004D01*
X6117Y134405D01*
X6662Y133238D01*
X7489Y132250D01*
X8542Y131507D01*
X9750Y131060D01*
X11032Y130937D01*
X12303Y131149D01*
X13477Y131679D01*
X13976Y132087D01*
X13976Y132087D01*
X13976Y132087D01*
X14446Y132501D01*
X15144Y133542D01*
X15553Y134726D01*
X15646Y135976D01*
X15418Y137208D01*
X14882Y138340D01*
X14075Y139299D01*
X13050Y140020D01*
X11875Y140455D01*
X10627Y140576D01*
D02*
G37*
G36*
X84784Y148031D02*
X83739Y147893D01*
X82766Y147490D01*
X81931Y146849D01*
X81289Y146013D01*
X80886Y145040D01*
X80749Y143996D01*
X80886Y142952D01*
X81289Y141979D01*
X81931Y141143D01*
X81941Y141136D01*
X81949Y141116D01*
X82309Y140752D01*
X82911Y140073D01*
X83143Y139771D01*
X83339Y139485D01*
X83494Y139221D01*
X83609Y138982D01*
X83685Y138770D01*
X83728Y138587D01*
X83744Y138388D01*
X83764Y138349D01*
Y130481D01*
X67265Y113983D01*
X66804Y114229D01*
X66872Y114567D01*
X66741Y115223D01*
X66369Y115779D01*
X65813Y116150D01*
X65158Y116281D01*
X64502Y116150D01*
X63984Y115805D01*
X63946Y115791D01*
X63898Y115746D01*
X63866Y115722D01*
X63831Y115700D01*
X63789Y115679D01*
X63741Y115660D01*
X63686Y115643D01*
X63622Y115629D01*
X63549Y115618D01*
X63468Y115611D01*
X63364Y115608D01*
X63316Y115586D01*
X62727D01*
X62679Y115608D01*
X62503Y115612D01*
X62369Y115624D01*
X62263Y115642D01*
X62189Y115661D01*
X62177Y115666D01*
Y118067D01*
X56453D01*
Y111067D01*
X62177D01*
Y113468D01*
X62189Y113473D01*
X62263Y113492D01*
X62369Y113510D01*
X62503Y113521D01*
X62679Y113526D01*
X62727Y113547D01*
X63316D01*
X63364Y113526D01*
X63468Y113523D01*
X63549Y113516D01*
X63622Y113505D01*
X63686Y113491D01*
X63741Y113474D01*
X63789Y113455D01*
X63830Y113434D01*
X63866Y113412D01*
X63898Y113388D01*
X63946Y113343D01*
X63984Y113329D01*
X64502Y112983D01*
X65158Y112853D01*
X65496Y112920D01*
X65742Y112459D01*
X50804Y97521D01*
X50343Y97767D01*
X50434Y98228D01*
X50304Y98884D01*
X49933Y99440D01*
X49376Y99812D01*
X48766Y99933D01*
X48729Y99950D01*
X48664Y99953D01*
X48624Y99958D01*
X48583Y99968D01*
X48539Y99982D01*
X48492Y100003D01*
X48440Y100030D01*
X48385Y100065D01*
X48326Y100109D01*
X48264Y100161D01*
X48188Y100233D01*
X48139Y100251D01*
X46492Y101899D01*
Y108302D01*
X48649Y110459D01*
X48697Y110477D01*
X49133Y110885D01*
X49298Y111021D01*
X49362Y111067D01*
X54177D01*
Y118067D01*
X48453D01*
Y113499D01*
X48452Y113497D01*
X48453Y113496D01*
Y113379D01*
X48444Y113350D01*
X48408Y113269D01*
X48349Y113166D01*
X48272Y113052D01*
X48025Y112755D01*
X47867Y112592D01*
X47864Y112583D01*
X47856Y112579D01*
X47839Y112533D01*
X44752Y109445D01*
X44530Y109115D01*
X44453Y108724D01*
Y101476D01*
X44530Y101086D01*
X44752Y100755D01*
X46698Y98809D01*
X46716Y98760D01*
X46788Y98685D01*
X46840Y98622D01*
X46884Y98563D01*
X46919Y98508D01*
X46946Y98457D01*
X46967Y98410D01*
X46981Y98366D01*
X46991Y98324D01*
X46996Y98285D01*
X46999Y98220D01*
X47016Y98183D01*
X47137Y97572D01*
X47508Y97016D01*
X48065Y96645D01*
X48720Y96514D01*
X48977Y96565D01*
X49220Y96104D01*
X49048Y95869D01*
X49000Y95848D01*
X48956Y95834D01*
X48915Y95824D01*
X48875Y95819D01*
X48810Y95816D01*
X48773Y95799D01*
X48163Y95678D01*
X47607Y95306D01*
X47235Y94750D01*
X47105Y94095D01*
X47235Y93439D01*
X47607Y92883D01*
X48163Y92511D01*
X48819Y92380D01*
X49475Y92511D01*
X50031Y92883D01*
X50402Y93439D01*
X50524Y94049D01*
X50541Y94086D01*
X50543Y94151D01*
X50549Y94191D01*
X50558Y94232D01*
X50573Y94276D01*
X50593Y94323D01*
X50621Y94375D01*
X50656Y94430D01*
X50699Y94489D01*
X50751Y94551D01*
X50823Y94626D01*
X50842Y94676D01*
X85504Y129338D01*
X85725Y129669D01*
X85803Y130059D01*
Y138349D01*
X85823Y138388D01*
X85839Y138587D01*
X85881Y138770D01*
X85958Y138982D01*
X86073Y139221D01*
X86228Y139485D01*
X86424Y139771D01*
X86656Y140073D01*
X87258Y140752D01*
X87618Y141116D01*
X87626Y141136D01*
X87636Y141143D01*
X88278Y141979D01*
X88680Y142952D01*
X88818Y143996D01*
X88680Y145040D01*
X88278Y146013D01*
X87636Y146849D01*
X86801Y147490D01*
X85828Y147893D01*
X84784Y148031D01*
D02*
G37*
G36*
X116284Y114327D02*
X110559D01*
Y111631D01*
X110547Y111626D01*
X110473Y111606D01*
X110368Y111589D01*
X110233Y111577D01*
X110057Y111573D01*
X110009Y111551D01*
X104597D01*
X104549Y111573D01*
X104445Y111575D01*
X104364Y111582D01*
X104292Y111593D01*
X104228Y111608D01*
X104172Y111624D01*
X104124Y111644D01*
X104083Y111664D01*
X104047Y111687D01*
X104015Y111711D01*
X103967Y111755D01*
X103929Y111769D01*
X103412Y112115D01*
X102756Y112246D01*
X102100Y112115D01*
X101544Y111743D01*
X101172Y111187D01*
X101042Y110531D01*
X101172Y109876D01*
X101544Y109319D01*
X102100Y108948D01*
X102756Y108818D01*
X103412Y108948D01*
X103929Y109294D01*
X103967Y109308D01*
X104015Y109352D01*
X104047Y109376D01*
X104083Y109399D01*
X104124Y109420D01*
X104172Y109439D01*
X104228Y109456D01*
X104292Y109470D01*
X104364Y109481D01*
X104445Y109488D01*
X104549Y109491D01*
X104597Y109512D01*
X110009D01*
X110057Y109491D01*
X110233Y109486D01*
X110368Y109474D01*
X110473Y109457D01*
X110547Y109437D01*
X110559Y109432D01*
Y107327D01*
X114236D01*
X114273Y107304D01*
X114316Y107315D01*
X114357Y107298D01*
X114428Y107327D01*
X114693D01*
X114747Y107296D01*
X114869Y107211D01*
X115203Y106928D01*
X115395Y106742D01*
X115446Y106722D01*
X136764Y85404D01*
Y33610D01*
X136841Y33220D01*
X137062Y32889D01*
X141442Y28510D01*
X141458Y28464D01*
X141466Y28460D01*
X141470Y28452D01*
X141632Y28283D01*
X141763Y28133D01*
X141870Y27998D01*
X141952Y27877D01*
X142010Y27774D01*
X142047Y27693D01*
X142055Y27665D01*
Y27548D01*
X142055Y27547D01*
X142055Y27544D01*
Y22976D01*
X147780D01*
Y29976D01*
X142964D01*
X142906Y30018D01*
X142529Y30343D01*
X142306Y30560D01*
X142256Y30580D01*
X138803Y34033D01*
Y85827D01*
X138725Y86217D01*
X138504Y86548D01*
X116893Y108159D01*
X116875Y108207D01*
X116521Y108588D01*
X116403Y108736D01*
X116314Y108864D01*
X116284Y108917D01*
Y109183D01*
X116313Y109253D01*
X116296Y109294D01*
X116306Y109337D01*
X116284Y109374D01*
Y114327D01*
D02*
G37*
G36*
X217177Y114179D02*
X215102D01*
Y111317D01*
X217177D01*
Y114179D01*
D02*
G37*
G36*
X166276Y114848D02*
X163512D01*
Y110018D01*
X166276D01*
Y114848D01*
D02*
G37*
G36*
X162512D02*
X159748D01*
Y110018D01*
X162512D01*
Y114848D01*
D02*
G37*
G36*
X217177Y110317D02*
X215102D01*
Y107455D01*
X217177D01*
Y110317D01*
D02*
G37*
G36*
X214543Y109652D02*
X211091D01*
Y106888D01*
X214543D01*
Y109652D01*
D02*
G37*
G36*
X180461D02*
Y106888D01*
X183913D01*
Y109652D01*
X180461D01*
D02*
G37*
G36*
X166276Y109018D02*
X163512D01*
Y104187D01*
X166276D01*
Y109018D01*
D02*
G37*
G36*
X162512D02*
X159748D01*
Y104187D01*
X162512D01*
Y109018D01*
D02*
G37*
G36*
X214543Y105888D02*
X211091D01*
Y103124D01*
X214543D01*
Y105888D01*
D02*
G37*
G36*
X183913D02*
X180461D01*
Y103124D01*
X183913D01*
Y105888D01*
D02*
G37*
G36*
X8661Y105994D02*
X7686Y105800D01*
X6859Y105247D01*
X6306Y104420D01*
X6112Y103445D01*
X6306Y102469D01*
X6859Y101643D01*
X7686Y101090D01*
X8661Y100896D01*
X9637Y101090D01*
X10464Y101643D01*
X11016Y102469D01*
X11210Y103445D01*
X11016Y104420D01*
X10464Y105247D01*
X9637Y105800D01*
X8661Y105994D01*
D02*
G37*
G36*
X50197Y106135D02*
X49450Y106037D01*
X48753Y105748D01*
X48156Y105289D01*
X47697Y104692D01*
X47408Y103995D01*
X47310Y103248D01*
X47408Y102501D01*
X47697Y101805D01*
X48156Y101207D01*
X48753Y100748D01*
X49450Y100460D01*
X50197Y100361D01*
X50944Y100460D01*
X51640Y100748D01*
X52238Y101207D01*
X52697Y101805D01*
X52985Y102501D01*
X53084Y103248D01*
X52985Y103995D01*
X52697Y104692D01*
X52238Y105289D01*
X51640Y105748D01*
X50944Y106037D01*
X50197Y106135D01*
D02*
G37*
G36*
X8661Y96890D02*
X7686Y96696D01*
X6859Y96143D01*
X6306Y95316D01*
X6112Y94340D01*
X6306Y93365D01*
X6859Y92538D01*
X7686Y91986D01*
X8661Y91792D01*
X9637Y91986D01*
X10464Y92538D01*
X11016Y93365D01*
X11210Y94340D01*
X11016Y95316D01*
X10464Y96143D01*
X9637Y96696D01*
X8661Y96890D01*
D02*
G37*
G36*
X203953Y160045D02*
X201878D01*
Y156604D01*
Y153163D01*
X203953D01*
Y153663D01*
X204604D01*
X204607Y153662D01*
X204615Y153642D01*
X204634Y153570D01*
X204651Y153467D01*
X204663Y153334D01*
X204668Y153161D01*
X204689Y153113D01*
Y139584D01*
X204668Y139536D01*
X204665Y139430D01*
X204659Y139345D01*
X204648Y139268D01*
X204634Y139199D01*
X204618Y139138D01*
X204598Y139083D01*
X204577Y139035D01*
X204554Y138992D01*
X204530Y138955D01*
X204488Y138902D01*
X204461Y138807D01*
X204223Y138451D01*
X204093Y137795D01*
X204223Y137139D01*
X204461Y136784D01*
X204488Y136688D01*
X204530Y136636D01*
X204554Y136598D01*
X204577Y136556D01*
X204598Y136508D01*
X204618Y136453D01*
X204634Y136391D01*
X204648Y136322D01*
X204659Y136245D01*
X204665Y136161D01*
X204668Y136055D01*
X204689Y136007D01*
Y91467D01*
X204668Y91419D01*
X204663Y91243D01*
X204651Y91109D01*
X204634Y91003D01*
X204614Y90929D01*
X204609Y90917D01*
X202760D01*
Y85193D01*
X209760D01*
Y90917D01*
X206808D01*
X206803Y90929D01*
X206783Y91003D01*
X206766Y91109D01*
X206754Y91243D01*
X206750Y91419D01*
X206728Y91468D01*
Y103124D01*
X210091D01*
Y106388D01*
Y109652D01*
X206728D01*
Y135889D01*
X206748Y135926D01*
X206742Y135943D01*
X206750Y135960D01*
X206753Y136063D01*
X206760Y136141D01*
X206771Y136209D01*
X206785Y136267D01*
X206802Y136317D01*
X206820Y136357D01*
X206839Y136392D01*
X206859Y136420D01*
X206882Y136446D01*
X206927Y136488D01*
X206931Y136496D01*
X206940Y136499D01*
X206958Y136542D01*
X207019Y136583D01*
X207391Y137139D01*
X207521Y137795D01*
X207391Y138451D01*
X207019Y139007D01*
X206958Y139048D01*
X206940Y139091D01*
X206931Y139095D01*
X206927Y139103D01*
X206882Y139145D01*
X206859Y139170D01*
X206839Y139199D01*
X206820Y139233D01*
X206802Y139274D01*
X206785Y139323D01*
X206771Y139381D01*
X206760Y139449D01*
X206753Y139527D01*
X206750Y139630D01*
X206742Y139647D01*
X206748Y139664D01*
X206728Y139701D01*
Y153113D01*
X206750Y153161D01*
X206754Y153334D01*
X206766Y153467D01*
X206783Y153570D01*
X206802Y153642D01*
X206811Y153662D01*
X206814Y153663D01*
X207784Y153663D01*
X208283Y153663D01*
X210009D01*
X210012Y153662D01*
X210020Y153642D01*
X210040Y153570D01*
X210057Y153467D01*
X210069Y153334D01*
X210073Y153161D01*
X210095Y153113D01*
Y127864D01*
X210172Y127474D01*
X210393Y127143D01*
X220280Y117256D01*
Y114667D01*
X220252Y114179D01*
X219780Y114179D01*
X218177D01*
Y110817D01*
Y107455D01*
X220252Y107455D01*
X220280Y106966D01*
Y92998D01*
X218809Y91527D01*
X218761Y91509D01*
X218378Y91152D01*
X218229Y91033D01*
X218100Y90942D01*
X218057Y90917D01*
X217757D01*
X217716Y90934D01*
X217674Y90917D01*
X217673D01*
X217629Y90928D01*
X217613Y90917D01*
X212642D01*
Y85193D01*
X219642D01*
Y88888D01*
X219652Y88905D01*
X219642Y88948D01*
Y88950D01*
X219659Y88991D01*
X219642Y89033D01*
Y89333D01*
X219666Y89376D01*
X219753Y89499D01*
X220039Y89836D01*
X220226Y90029D01*
X220246Y90079D01*
X222021Y91855D01*
X222242Y92185D01*
X222320Y92576D01*
Y117679D01*
X222242Y118069D01*
X222021Y118400D01*
X212134Y128287D01*
Y153123D01*
X212155Y153175D01*
X212155Y153176D01*
X212155Y153176D01*
X212154Y153686D01*
X212153Y153690D01*
X212154Y153693D01*
X212148Y154143D01*
X212141Y154157D01*
X212146Y154172D01*
X212144Y154202D01*
X212134Y154224D01*
Y155529D01*
X212114Y155628D01*
Y159545D01*
X208283D01*
X207965Y159545D01*
X207465Y159545D01*
X203953D01*
Y160045D01*
D02*
G37*
G36*
X94784Y148031D02*
X93739Y147893D01*
X92766Y147490D01*
X91931Y146849D01*
X91290Y146013D01*
X90886Y145040D01*
X90749Y143996D01*
X90886Y142952D01*
X91290Y141979D01*
X91931Y141143D01*
X91941Y141136D01*
X91949Y141116D01*
X92309Y140752D01*
X92911Y140073D01*
X93143Y139771D01*
X93339Y139485D01*
X93493Y139221D01*
X93608Y138982D01*
X93686Y138770D01*
X93728Y138587D01*
X93744Y138388D01*
X93764Y138349D01*
Y134674D01*
X52845Y93755D01*
X52796Y93736D01*
X52720Y93665D01*
X52658Y93612D01*
X52599Y93569D01*
X52544Y93534D01*
X52492Y93507D01*
X52445Y93486D01*
X52401Y93472D01*
X52360Y93462D01*
X52320Y93457D01*
X52255Y93454D01*
X52218Y93437D01*
X51608Y93316D01*
X51052Y92944D01*
X50680Y92388D01*
X50550Y91732D01*
X50680Y91076D01*
X51052Y90520D01*
X51608Y90149D01*
X52264Y90018D01*
X52920Y90149D01*
X53476Y90520D01*
X53847Y91076D01*
X53969Y91687D01*
X53986Y91724D01*
X53988Y91789D01*
X53993Y91828D01*
X54003Y91870D01*
X54018Y91914D01*
X54038Y91961D01*
X54066Y92012D01*
X54101Y92067D01*
X54144Y92126D01*
X54196Y92189D01*
X54268Y92264D01*
X54287Y92313D01*
X95504Y133531D01*
X95725Y133862D01*
X95803Y134252D01*
Y138349D01*
X95823Y138388D01*
X95839Y138587D01*
X95881Y138770D01*
X95958Y138982D01*
X96073Y139221D01*
X96228Y139485D01*
X96424Y139771D01*
X96656Y140073D01*
X97258Y140752D01*
X97618Y141116D01*
X97626Y141136D01*
X97636Y141143D01*
X98277Y141979D01*
X98681Y142952D01*
X98818Y143996D01*
X98681Y145040D01*
X98277Y146013D01*
X97636Y146849D01*
X96801Y147490D01*
X95828Y147893D01*
X94784Y148031D01*
D02*
G37*
G36*
X108783Y147996D02*
X100784D01*
Y139996D01*
X103679D01*
X103682Y139994D01*
X103690Y139974D01*
X103709Y139903D01*
X103726Y139800D01*
X103738Y139667D01*
X103743Y139494D01*
X103764Y139446D01*
Y134773D01*
X57762Y88771D01*
X50168D01*
X50120Y88793D01*
X50016Y88796D01*
X49935Y88802D01*
X49863Y88813D01*
X49799Y88828D01*
X49743Y88845D01*
X49695Y88864D01*
X49654Y88884D01*
X49618Y88907D01*
X49586Y88931D01*
X49538Y88976D01*
X49500Y88990D01*
X48983Y89335D01*
X48327Y89466D01*
X47671Y89335D01*
X47115Y88964D01*
X46743Y88408D01*
X46613Y87752D01*
X46743Y87096D01*
X47115Y86540D01*
X47671Y86168D01*
X48327Y86038D01*
X48983Y86168D01*
X49500Y86514D01*
X49538Y86528D01*
X49586Y86572D01*
X49618Y86597D01*
X49654Y86619D01*
X49695Y86640D01*
X49743Y86659D01*
X49799Y86676D01*
X49863Y86690D01*
X49935Y86701D01*
X50016Y86708D01*
X50120Y86711D01*
X50168Y86732D01*
X58185D01*
X58575Y86810D01*
X58906Y87031D01*
X105504Y133629D01*
X105725Y133960D01*
X105803Y134350D01*
Y139446D01*
X105824Y139494D01*
X105829Y139667D01*
X105841Y139800D01*
X105858Y139903D01*
X105877Y139974D01*
X105885Y139994D01*
X105888Y139996D01*
X108783D01*
Y147996D01*
D02*
G37*
G36*
X8661Y87785D02*
X7686Y87591D01*
X6859Y87039D01*
X6306Y86212D01*
X6112Y85236D01*
X6306Y84261D01*
X6859Y83434D01*
X7686Y82881D01*
X8661Y82687D01*
X9637Y82881D01*
X10464Y83434D01*
X11016Y84261D01*
X11210Y85236D01*
X11016Y86212D01*
X10464Y87039D01*
X9637Y87591D01*
X8661Y87785D01*
D02*
G37*
G36*
X124284Y114327D02*
X118559D01*
Y107327D01*
X124284D01*
Y108734D01*
X124298Y108760D01*
X124311Y108886D01*
X124327Y108932D01*
X124355Y108973D01*
X124409Y109022D01*
X124506Y109082D01*
X124656Y109143D01*
X124860Y109197D01*
X125115Y109240D01*
X125420Y109266D01*
X125786Y109276D01*
X125812Y109288D01*
X133333D01*
X161929Y80692D01*
X161940Y80664D01*
X162265Y80325D01*
X162494Y80063D01*
X162260Y79780D01*
X161940Y79446D01*
X161929Y79419D01*
X158663Y76152D01*
X158331Y75656D01*
X158215Y75071D01*
Y56134D01*
X158203Y56108D01*
X158194Y55743D01*
X158167Y55438D01*
X158124Y55183D01*
X158070Y54979D01*
X158009Y54829D01*
X157950Y54732D01*
X157900Y54677D01*
X157859Y54650D01*
X157813Y54634D01*
X157687Y54620D01*
X157661Y54606D01*
X156291D01*
Y52832D01*
X156277Y52807D01*
X156263Y52680D01*
X156247Y52634D01*
X156219Y52593D01*
X156165Y52543D01*
X156067Y52483D01*
X155917Y52422D01*
X155714Y52368D01*
X155458Y52325D01*
X155154Y52299D01*
X154789Y52289D01*
X154763Y52277D01*
X154083D01*
X154055Y52289D01*
X154054Y52289D01*
X154053Y52289D01*
X152133Y52282D01*
X152125Y52278D01*
X152117Y52281D01*
X152057Y52279D01*
X152053Y52277D01*
X150870D01*
X150722Y52248D01*
X147630D01*
Y47705D01*
X152567D01*
Y48664D01*
X152581Y48689D01*
X152595Y48816D01*
X152611Y48862D01*
X152639Y48903D01*
X152694Y48954D01*
X152792Y49013D01*
X152942Y49074D01*
X153145Y49128D01*
X153400Y49171D01*
X153704Y49198D01*
X154069Y49207D01*
X154095Y49219D01*
X154766D01*
X154793Y49207D01*
X155160Y49200D01*
X155472Y49179D01*
X155736Y49146D01*
X155950Y49103D01*
X156111Y49054D01*
X156214Y49007D01*
X156260Y48975D01*
X156267Y48925D01*
X156291Y48884D01*
Y48488D01*
X156732D01*
X156802Y48459D01*
X156839Y48474D01*
X156879Y48464D01*
X156919Y48488D01*
X163197D01*
Y49429D01*
X163211Y49455D01*
X163224Y49581D01*
X163241Y49627D01*
X163268Y49667D01*
X163322Y49717D01*
X163420Y49777D01*
X163570Y49838D01*
X163773Y49892D01*
X164029Y49935D01*
X164333Y49961D01*
X164699Y49971D01*
X164725Y49982D01*
X167666D01*
X167693Y49971D01*
X168063Y49967D01*
X168676Y49936D01*
X168906Y49911D01*
X169091Y49881D01*
X169187Y49857D01*
Y49598D01*
X169629D01*
X169699Y49569D01*
X169765Y49597D01*
X169836Y49587D01*
X169851Y49598D01*
X176546D01*
X176918Y49100D01*
X176885Y48946D01*
X176502Y48589D01*
X176353Y48470D01*
X176224Y48379D01*
X176181Y48354D01*
X175881D01*
X175839Y48371D01*
X175798Y48354D01*
X175797D01*
X175753Y48365D01*
X175737Y48354D01*
X169187D01*
Y44598D01*
X177766D01*
Y46325D01*
X177776Y46342D01*
X177766Y46385D01*
Y46387D01*
X177783Y46428D01*
X177766Y46470D01*
Y46770D01*
X177790Y46812D01*
X177877Y46936D01*
X178163Y47273D01*
X178350Y47466D01*
X178370Y47517D01*
X183693Y52840D01*
X183914Y53171D01*
X183992Y53561D01*
Y66958D01*
X184013Y67006D01*
X184016Y67110D01*
X184023Y67191D01*
X184034Y67263D01*
X184048Y67327D01*
X184065Y67383D01*
X184084Y67431D01*
X184105Y67472D01*
X184128Y67508D01*
X184152Y67540D01*
X184196Y67588D01*
X184210Y67626D01*
X184556Y68143D01*
X184687Y68799D01*
X184556Y69455D01*
X184184Y70011D01*
X183628Y70383D01*
X182972Y70513D01*
X182317Y70383D01*
X181760Y70011D01*
X181389Y69455D01*
X181258Y68799D01*
X181389Y68143D01*
X181735Y67626D01*
X181749Y67588D01*
X181793Y67540D01*
X181817Y67508D01*
X181840Y67472D01*
X181860Y67431D01*
X181879Y67383D01*
X181896Y67327D01*
X181911Y67263D01*
X181922Y67191D01*
X181929Y67110D01*
X181931Y67006D01*
X181953Y66958D01*
Y53983D01*
X178228Y50258D01*
X177766Y50450D01*
Y53354D01*
X169868D01*
X169863Y53358D01*
X169820Y53354D01*
X169770D01*
X169699Y53383D01*
X169629Y53354D01*
X169187D01*
Y53144D01*
X169126Y53132D01*
X168058Y53056D01*
X167694Y53053D01*
X167666Y53041D01*
X164725D01*
X164699Y53053D01*
X164333Y53062D01*
X164028Y53089D01*
X163773Y53131D01*
X163570Y53186D01*
X163420Y53247D01*
X163322Y53306D01*
X163268Y53356D01*
X163241Y53397D01*
X163224Y53443D01*
X163211Y53569D01*
X163197Y53595D01*
Y54606D01*
X161827D01*
X161801Y54620D01*
X161675Y54634D01*
X161629Y54650D01*
X161589Y54677D01*
X161539Y54732D01*
X161479Y54829D01*
X161418Y54979D01*
X161364Y55183D01*
X161321Y55438D01*
X161295Y55743D01*
X161285Y56108D01*
X161274Y56134D01*
Y74437D01*
X162722Y75886D01*
X162748Y75896D01*
X163636Y76728D01*
X163996Y77022D01*
X164235Y77193D01*
X165043D01*
X165051Y77187D01*
X165114Y77193D01*
X170232D01*
Y77972D01*
X170247Y77998D01*
X170260Y78124D01*
X170276Y78170D01*
X170303Y78211D01*
X170358Y78261D01*
X170455Y78320D01*
X170605Y78381D01*
X170809Y78435D01*
X171064Y78478D01*
X171369Y78505D01*
X171673Y78513D01*
X171975Y78505D01*
X172278Y78478D01*
X172531Y78436D01*
X172733Y78381D01*
X172881Y78321D01*
X172978Y78262D01*
X173031Y78212D01*
X173058Y78171D01*
X173075Y78125D01*
X173088Y77999D01*
X173114Y77950D01*
Y77193D01*
X180114D01*
Y77972D01*
X180128Y77998D01*
X180142Y78124D01*
X180158Y78170D01*
X180185Y78211D01*
X180239Y78261D01*
X180337Y78320D01*
X180487Y78381D01*
X180691Y78435D01*
X180946Y78478D01*
X181251Y78505D01*
X181555Y78513D01*
X181857Y78505D01*
X182160Y78478D01*
X182413Y78436D01*
X182615Y78381D01*
X182763Y78321D01*
X182860Y78262D01*
X182913Y78212D01*
X182940Y78171D01*
X182957Y78125D01*
X182970Y77999D01*
X182996Y77950D01*
Y77193D01*
X189996D01*
Y77972D01*
X190010Y77998D01*
X190024Y78124D01*
X190040Y78170D01*
X190067Y78211D01*
X190121Y78261D01*
X190219Y78320D01*
X190369Y78381D01*
X190572Y78435D01*
X190828Y78478D01*
X191133Y78505D01*
X191437Y78513D01*
X191739Y78505D01*
X192042Y78478D01*
X192295Y78436D01*
X192497Y78381D01*
X192645Y78321D01*
X192742Y78262D01*
X192795Y78212D01*
X192822Y78171D01*
X192838Y78125D01*
X192852Y77999D01*
X192878Y77950D01*
Y77193D01*
X199878D01*
Y77972D01*
X199892Y77998D01*
X199906Y78124D01*
X199922Y78170D01*
X199949Y78211D01*
X200003Y78261D01*
X200101Y78320D01*
X200251Y78381D01*
X200454Y78435D01*
X200710Y78478D01*
X201014Y78505D01*
X201319Y78513D01*
X201621Y78505D01*
X201923Y78478D01*
X202177Y78436D01*
X202378Y78381D01*
X202527Y78321D01*
X202623Y78262D01*
X202677Y78212D01*
X202704Y78171D01*
X202720Y78125D01*
X202734Y77999D01*
X202760Y77950D01*
Y77193D01*
X209760D01*
Y77972D01*
X209774Y77998D01*
X209787Y78124D01*
X209804Y78170D01*
X209831Y78211D01*
X209885Y78261D01*
X209983Y78320D01*
X210133Y78381D01*
X210336Y78435D01*
X210591Y78478D01*
X210896Y78505D01*
X211201Y78513D01*
X211503Y78505D01*
X211805Y78478D01*
X212059Y78436D01*
X212260Y78381D01*
X212409Y78321D01*
X212505Y78262D01*
X212559Y78212D01*
X212586Y78171D01*
X212602Y78125D01*
X212615Y77999D01*
X212642Y77950D01*
Y77193D01*
X219642D01*
Y78133D01*
X219656Y78159D01*
X219669Y78286D01*
X219686Y78332D01*
X219713Y78372D01*
X219767Y78422D01*
X219865Y78482D01*
X220015Y78543D01*
X220218Y78597D01*
X220473Y78639D01*
X220778Y78666D01*
X221144Y78676D01*
X221170Y78687D01*
X222393D01*
X222474Y78633D01*
X223130Y78503D01*
X223786Y78633D01*
X224342Y79005D01*
X224713Y79561D01*
X224844Y80216D01*
X224713Y80872D01*
X224342Y81428D01*
X223786Y81800D01*
X223130Y81931D01*
X222474Y81800D01*
X222393Y81746D01*
X221170D01*
X221144Y81757D01*
X220778Y81767D01*
X220473Y81794D01*
X220218Y81836D01*
X220015Y81891D01*
X219865Y81951D01*
X219767Y82011D01*
X219713Y82061D01*
X219686Y82102D01*
X219669Y82147D01*
X219656Y82274D01*
X219642Y82300D01*
Y82917D01*
X212642D01*
Y82160D01*
X212615Y82112D01*
X212602Y81985D01*
X212586Y81939D01*
X212559Y81898D01*
X212505Y81849D01*
X212409Y81790D01*
X212260Y81729D01*
X212059Y81675D01*
X211805Y81632D01*
X211503Y81606D01*
X211201Y81598D01*
X210896Y81606D01*
X210591Y81632D01*
X210336Y81675D01*
X210133Y81729D01*
X209983Y81790D01*
X209885Y81849D01*
X209831Y81899D01*
X209804Y81940D01*
X209787Y81986D01*
X209774Y82112D01*
X209760Y82138D01*
Y82917D01*
X202760D01*
Y82160D01*
X202734Y82112D01*
X202720Y81985D01*
X202704Y81939D01*
X202677Y81898D01*
X202623Y81849D01*
X202527Y81790D01*
X202378Y81729D01*
X202177Y81675D01*
X201923Y81632D01*
X201621Y81606D01*
X201319Y81598D01*
X201014Y81606D01*
X200710Y81632D01*
X200454Y81675D01*
X200251Y81729D01*
X200101Y81790D01*
X200003Y81849D01*
X199949Y81899D01*
X199922Y81940D01*
X199906Y81986D01*
X199892Y82112D01*
X199878Y82138D01*
Y82917D01*
X192878D01*
Y82160D01*
X192852Y82112D01*
X192838Y81985D01*
X192822Y81939D01*
X192795Y81898D01*
X192742Y81849D01*
X192645Y81790D01*
X192496Y81729D01*
X192295Y81675D01*
X192042Y81632D01*
X191739Y81606D01*
X191437Y81598D01*
X191133Y81606D01*
X190828Y81632D01*
X190572Y81675D01*
X190369Y81729D01*
X190219Y81790D01*
X190121Y81849D01*
X190067Y81899D01*
X190040Y81940D01*
X190024Y81986D01*
X190010Y82112D01*
X189996Y82138D01*
Y82917D01*
X182996D01*
Y82160D01*
X182970Y82112D01*
X182957Y81985D01*
X182940Y81939D01*
X182913Y81898D01*
X182860Y81849D01*
X182763Y81790D01*
X182615Y81729D01*
X182413Y81675D01*
X182160Y81632D01*
X181857Y81606D01*
X181555Y81598D01*
X181251Y81606D01*
X180946Y81632D01*
X180691Y81675D01*
X180487Y81729D01*
X180337Y81790D01*
X180239Y81849D01*
X180185Y81899D01*
X180158Y81940D01*
X180142Y81986D01*
X180128Y82112D01*
X180114Y82138D01*
Y82917D01*
X173114D01*
Y82160D01*
X173088Y82112D01*
X173075Y81985D01*
X173058Y81939D01*
X173031Y81898D01*
X172978Y81849D01*
X172881Y81790D01*
X172733Y81729D01*
X172531Y81675D01*
X172278Y81632D01*
X171975Y81606D01*
X171673Y81598D01*
X171369Y81606D01*
X171064Y81632D01*
X170809Y81675D01*
X170605Y81729D01*
X170455Y81790D01*
X170358Y81849D01*
X170303Y81899D01*
X170276Y81940D01*
X170260Y81986D01*
X170247Y82112D01*
X170232Y82138D01*
Y82917D01*
X165114D01*
X165051Y82924D01*
X165043Y82917D01*
X164235D01*
X164002Y83084D01*
X163215Y83762D01*
X162755Y84208D01*
X162727Y84219D01*
X135048Y111898D01*
X134552Y112230D01*
X133967Y112346D01*
X125812D01*
X125786Y112358D01*
X125420Y112367D01*
X125115Y112394D01*
X124860Y112436D01*
X124656Y112491D01*
X124506Y112552D01*
X124409Y112611D01*
X124355Y112661D01*
X124327Y112702D01*
X124311Y112748D01*
X124298Y112874D01*
X124284Y112900D01*
Y114327D01*
D02*
G37*
G36*
X116284Y83151D02*
X110559D01*
Y78583D01*
X110559Y78580D01*
X110559Y78579D01*
Y78462D01*
X110550Y78434D01*
X110514Y78353D01*
X110456Y78250D01*
X110378Y78136D01*
X110131Y77839D01*
X109974Y77675D01*
X109970Y77667D01*
X109962Y77663D01*
X109946Y77617D01*
X109037Y76709D01*
X52038D01*
X51990Y76730D01*
X51886Y76733D01*
X51805Y76740D01*
X51733Y76751D01*
X51669Y76765D01*
X51613Y76782D01*
X51565Y76801D01*
X51524Y76822D01*
X51488Y76844D01*
X51456Y76868D01*
X51408Y76913D01*
X51370Y76927D01*
X50853Y77272D01*
X50197Y77403D01*
X49541Y77272D01*
X48985Y76901D01*
X48613Y76345D01*
X48483Y75689D01*
X48613Y75033D01*
X48985Y74477D01*
X49541Y74105D01*
X50197Y73975D01*
X50853Y74105D01*
X51370Y74451D01*
X51408Y74465D01*
X51456Y74510D01*
X51488Y74534D01*
X51524Y74556D01*
X51565Y74577D01*
X51613Y74596D01*
X51669Y74613D01*
X51733Y74627D01*
X51805Y74638D01*
X51886Y74645D01*
X51990Y74648D01*
X52038Y74669D01*
X109460D01*
X109850Y74747D01*
X110181Y74968D01*
X110755Y75542D01*
X110803Y75561D01*
X111239Y75969D01*
X111405Y76105D01*
X111468Y76151D01*
X112773D01*
X112776Y76149D01*
X112784Y76129D01*
X112803Y76057D01*
X112821Y75954D01*
X112832Y75822D01*
X112837Y75648D01*
X112858Y75600D01*
Y73692D01*
X112837Y73644D01*
X112834Y73540D01*
X112827Y73458D01*
X112816Y73386D01*
X112802Y73322D01*
X112785Y73267D01*
X112766Y73219D01*
X112745Y73177D01*
X112723Y73141D01*
X112698Y73110D01*
X112654Y73062D01*
X112640Y73024D01*
X112294Y72506D01*
X112164Y71850D01*
X112294Y71194D01*
X112666Y70638D01*
X113222Y70267D01*
X113878Y70136D01*
X114534Y70267D01*
X115090Y70638D01*
X115462Y71194D01*
X115592Y71850D01*
X115462Y72506D01*
X115116Y73024D01*
X115102Y73062D01*
X115057Y73110D01*
X115033Y73141D01*
X115011Y73177D01*
X114990Y73219D01*
X114971Y73267D01*
X114954Y73322D01*
X114940Y73386D01*
X114929Y73458D01*
X114922Y73540D01*
X114919Y73644D01*
X114898Y73692D01*
Y75600D01*
X114919Y75648D01*
X114924Y75822D01*
X114935Y75954D01*
X114952Y76057D01*
X114972Y76129D01*
X114980Y76149D01*
X114983Y76151D01*
X116284D01*
Y83151D01*
D02*
G37*
G36*
X8661Y78681D02*
X7686Y78487D01*
X6859Y77934D01*
X6306Y77107D01*
X6112Y76132D01*
X6306Y75156D01*
X6859Y74330D01*
X7686Y73777D01*
X8661Y73583D01*
X9637Y73777D01*
X10464Y74330D01*
X11016Y75156D01*
X11210Y76132D01*
X11016Y77107D01*
X10464Y77934D01*
X9637Y78487D01*
X8661Y78681D01*
D02*
G37*
G36*
X70972Y72838D02*
Y72252D01*
X71559D01*
X71324Y72603D01*
X70972Y72838D01*
D02*
G37*
G36*
X69972D02*
X69621Y72603D01*
X69386Y72252D01*
X69972D01*
Y72838D01*
D02*
G37*
G36*
X71559Y71252D02*
X70972D01*
Y70666D01*
X71324Y70900D01*
X71559Y71252D01*
D02*
G37*
G36*
X69972D02*
X69386D01*
X69621Y70900D01*
X69972Y70666D01*
Y71252D01*
D02*
G37*
G36*
X8661Y69577D02*
X7686Y69383D01*
X6859Y68830D01*
X6306Y68003D01*
X6112Y67027D01*
X6306Y66052D01*
X6859Y65225D01*
X7686Y64673D01*
X8661Y64479D01*
X9637Y64673D01*
X10464Y65225D01*
X11016Y66052D01*
X11210Y67027D01*
X11016Y68003D01*
X10464Y68830D01*
X9637Y69383D01*
X8661Y69577D01*
D02*
G37*
G36*
X116087Y65409D02*
X110362D01*
Y63107D01*
X110350Y63102D01*
X110276Y63083D01*
X110171Y63065D01*
X110036Y63054D01*
X109860Y63049D01*
X109812Y63028D01*
X106959D01*
X106912Y63049D01*
X106807Y63052D01*
X106726Y63059D01*
X106654Y63070D01*
X106590Y63084D01*
X106535Y63101D01*
X106486Y63120D01*
X106445Y63141D01*
X106409Y63163D01*
X106377Y63187D01*
X106329Y63232D01*
X106291Y63246D01*
X105774Y63591D01*
X105118Y63722D01*
X104462Y63591D01*
X103906Y63220D01*
X103534Y62664D01*
X103404Y62008D01*
X103534Y61352D01*
X103906Y60796D01*
X104462Y60424D01*
X105118Y60294D01*
X105774Y60424D01*
X106291Y60770D01*
X106329Y60784D01*
X106377Y60829D01*
X106409Y60853D01*
X106445Y60875D01*
X106486Y60896D01*
X106535Y60915D01*
X106590Y60932D01*
X106654Y60946D01*
X106726Y60957D01*
X106807Y60964D01*
X106912Y60967D01*
X106959Y60988D01*
X109812D01*
X109860Y60967D01*
X110036Y60962D01*
X110171Y60950D01*
X110276Y60933D01*
X110350Y60913D01*
X110362Y60909D01*
Y58409D01*
X116087D01*
Y65409D01*
D02*
G37*
G36*
X73694Y61532D02*
X70635D01*
Y58079D01*
X73694D01*
Y61532D01*
D02*
G37*
G36*
X69635D02*
X66576D01*
Y58079D01*
X69635D01*
Y61532D01*
D02*
G37*
G36*
X8661Y60472D02*
X7686Y60278D01*
X6859Y59726D01*
X6306Y58899D01*
X6112Y57923D01*
X6306Y56948D01*
X6859Y56121D01*
X7686Y55568D01*
X8661Y55374D01*
X9637Y55568D01*
X10464Y56121D01*
X11016Y56948D01*
X11210Y57923D01*
X11016Y58899D01*
X10464Y59726D01*
X9637Y60278D01*
X8661Y60472D01*
D02*
G37*
G36*
X173031Y63623D02*
X172376Y63493D01*
X171819Y63121D01*
X171448Y62565D01*
X171318Y61909D01*
X171448Y61253D01*
X171794Y60736D01*
X171808Y60698D01*
X171852Y60650D01*
X171876Y60618D01*
X171899Y60582D01*
X171920Y60541D01*
X171939Y60493D01*
X171956Y60437D01*
X171970Y60374D01*
X171981Y60301D01*
X171988Y60220D01*
X171991Y60116D01*
X172012Y60068D01*
Y58904D01*
X171991Y58856D01*
X171986Y58680D01*
X171974Y58546D01*
X171957Y58440D01*
X171937Y58366D01*
X171932Y58354D01*
X169187D01*
Y54598D01*
X177766D01*
Y58354D01*
X174131D01*
X174126Y58366D01*
X174106Y58440D01*
X174089Y58546D01*
X174077Y58680D01*
X174073Y58856D01*
X174051Y58904D01*
Y60068D01*
X174073Y60116D01*
X174075Y60220D01*
X174082Y60301D01*
X174093Y60374D01*
X174108Y60437D01*
X174124Y60493D01*
X174144Y60541D01*
X174164Y60582D01*
X174187Y60618D01*
X174211Y60650D01*
X174255Y60698D01*
X174269Y60736D01*
X174615Y61253D01*
X174746Y61909D01*
X174615Y62565D01*
X174243Y63121D01*
X173687Y63493D01*
X173031Y63623D01*
D02*
G37*
G36*
X214868Y58354D02*
X206289D01*
Y54598D01*
X214868D01*
Y55200D01*
X214880Y55205D01*
X214954Y55225D01*
X215059Y55242D01*
X215194Y55254D01*
X215370Y55258D01*
X215418Y55280D01*
X217745D01*
X217793Y55258D01*
X217897Y55255D01*
X217979Y55248D01*
X218051Y55238D01*
X218115Y55223D01*
X218170Y55206D01*
X218218Y55187D01*
X218260Y55167D01*
X218296Y55144D01*
X218327Y55120D01*
X218375Y55076D01*
X218413Y55061D01*
X218931Y54716D01*
X219587Y54585D01*
X220243Y54716D01*
X220799Y55087D01*
X221170Y55643D01*
X221301Y56299D01*
X221170Y56955D01*
X220799Y57511D01*
X220243Y57883D01*
X219587Y58013D01*
X218931Y57883D01*
X218413Y57537D01*
X218375Y57523D01*
X218327Y57479D01*
X218296Y57454D01*
X218260Y57432D01*
X218218Y57411D01*
X218170Y57392D01*
X218115Y57375D01*
X218051Y57361D01*
X217979Y57350D01*
X217897Y57343D01*
X217793Y57340D01*
X217745Y57319D01*
X215418D01*
X215370Y57340D01*
X215194Y57345D01*
X215059Y57357D01*
X214954Y57374D01*
X214880Y57394D01*
X214868Y57398D01*
Y58354D01*
D02*
G37*
G36*
X73694Y57079D02*
X70635D01*
Y53626D01*
X73694D01*
Y57079D01*
D02*
G37*
G36*
X69635D02*
X66576D01*
Y53626D01*
X69635D01*
Y57079D01*
D02*
G37*
G36*
X214868Y53354D02*
X206289D01*
Y52280D01*
X206277Y52276D01*
X206204Y52256D01*
X206098Y52239D01*
X205963Y52227D01*
X205787Y52222D01*
X205739Y52201D01*
X202629D01*
X202581Y52222D01*
X202477Y52225D01*
X202396Y52232D01*
X202323Y52243D01*
X202259Y52257D01*
X202204Y52274D01*
X202156Y52293D01*
X202115Y52314D01*
X202078Y52336D01*
X202047Y52360D01*
X201999Y52405D01*
X201961Y52419D01*
X201443Y52765D01*
X200787Y52895D01*
X200132Y52765D01*
X199575Y52393D01*
X199204Y51837D01*
X199073Y51181D01*
X199204Y50525D01*
X199575Y49969D01*
X200132Y49597D01*
X200787Y49467D01*
X201443Y49597D01*
X201961Y49943D01*
X201999Y49957D01*
X202047Y50002D01*
X202078Y50026D01*
X202114Y50048D01*
X202156Y50069D01*
X202204Y50088D01*
X202259Y50105D01*
X202323Y50119D01*
X202396Y50130D01*
X202477Y50137D01*
X202581Y50140D01*
X202629Y50161D01*
X205739D01*
X205787Y50140D01*
X205963Y50135D01*
X206098Y50124D01*
X206204Y50106D01*
X206277Y50087D01*
X206289Y50082D01*
Y49598D01*
X214868D01*
Y50076D01*
X214880Y50081D01*
X214954Y50101D01*
X215059Y50118D01*
X215194Y50130D01*
X215370Y50135D01*
X215418Y50156D01*
X220180D01*
X220200Y50143D01*
X220241Y50152D01*
X220280Y50135D01*
X220383Y50131D01*
X220458Y50124D01*
X220522Y50113D01*
X220575Y50099D01*
X220618Y50084D01*
X220652Y50067D01*
X220679Y50051D01*
X220700Y50034D01*
X220719Y50015D01*
X220755Y49969D01*
X220830Y49927D01*
X220934Y49772D01*
X221490Y49401D01*
X222146Y49270D01*
X222802Y49401D01*
X223358Y49772D01*
X223729Y50328D01*
X223860Y50984D01*
X223729Y51640D01*
X223358Y52196D01*
X222802Y52568D01*
X222146Y52698D01*
X221490Y52568D01*
X221249Y52407D01*
X221145Y52386D01*
X221089Y52348D01*
X221047Y52324D01*
X221000Y52302D01*
X220946Y52282D01*
X220886Y52264D01*
X220819Y52248D01*
X220752Y52236D01*
X220568Y52219D01*
X220468Y52217D01*
X220419Y52195D01*
X215418D01*
X215370Y52217D01*
X215194Y52221D01*
X215059Y52233D01*
X214954Y52250D01*
X214880Y52270D01*
X214868Y52275D01*
Y53354D01*
D02*
G37*
G36*
X103587Y50153D02*
X97862D01*
Y47753D01*
X97850Y47748D01*
X97777Y47728D01*
X97671Y47711D01*
X97536Y47699D01*
X97360Y47695D01*
X97312Y47673D01*
X94153D01*
X94107Y47694D01*
X93893Y47704D01*
X93817Y47713D01*
X93743Y47725D01*
X93676Y47741D01*
X93615Y47760D01*
X93561Y47780D01*
X93514Y47802D01*
X93471Y47826D01*
X93415Y47863D01*
X93312Y47883D01*
X93077Y48040D01*
X92421Y48171D01*
X91765Y48040D01*
X91209Y47669D01*
X90838Y47113D01*
X90707Y46457D01*
X90838Y45801D01*
X91209Y45245D01*
X91765Y44873D01*
X92421Y44743D01*
X93077Y44873D01*
X93633Y45245D01*
X93740Y45405D01*
X93817Y45448D01*
X93853Y45494D01*
X93871Y45512D01*
X93892Y45529D01*
X93918Y45546D01*
X93951Y45562D01*
X93994Y45577D01*
X94046Y45591D01*
X94110Y45602D01*
X94185Y45609D01*
X94288Y45613D01*
X94328Y45631D01*
X94371Y45622D01*
X94390Y45634D01*
X97312D01*
X97360Y45612D01*
X97536Y45608D01*
X97671Y45596D01*
X97777Y45579D01*
X97850Y45559D01*
X97862Y45554D01*
Y43154D01*
X103587D01*
Y50153D01*
D02*
G37*
G36*
X38700Y124844D02*
X38044Y124714D01*
X37488Y124342D01*
X37116Y123786D01*
X37097Y123690D01*
X34019Y120611D01*
X33687Y120115D01*
X33571Y119530D01*
Y119230D01*
X33559Y119204D01*
X33549Y118838D01*
X33523Y118533D01*
X33480Y118278D01*
X33426Y118075D01*
X33365Y117925D01*
X33306Y117827D01*
X33256Y117773D01*
X33215Y117745D01*
X33169Y117729D01*
X33043Y117716D01*
X33017Y117702D01*
X32238D01*
Y110702D01*
X32995D01*
X33043Y110675D01*
X33170Y110662D01*
X33216Y110646D01*
X33257Y110619D01*
X33307Y110565D01*
X33366Y110468D01*
X33426Y110320D01*
X33481Y110118D01*
X33523Y109865D01*
X33549Y109563D01*
X33559Y109199D01*
X33571Y109173D01*
Y67262D01*
X33687Y66677D01*
X34019Y66181D01*
X37571Y62629D01*
X37590Y62533D01*
X37961Y61977D01*
X38517Y61605D01*
X39173Y61475D01*
X39829Y61605D01*
X39910Y61660D01*
X54891D01*
X56774Y59777D01*
X56784Y59750D01*
X57156Y59365D01*
X57466Y59015D01*
X57720Y58696D01*
X57918Y58410D01*
X58060Y58162D01*
X58076Y58125D01*
Y57269D01*
X58064Y57222D01*
X58076Y57202D01*
Y54126D01*
X59052D01*
X59078Y54112D01*
X59204Y54098D01*
X59250Y54082D01*
X59291Y54055D01*
X59341Y54001D01*
X59400Y53903D01*
X59461Y53753D01*
X59516Y53550D01*
X59558Y53294D01*
X59585Y52989D01*
X59594Y52624D01*
X59606Y52598D01*
Y52166D01*
X59594Y52140D01*
X59585Y51774D01*
X59558Y51469D01*
X59516Y51214D01*
X59461Y51011D01*
X59400Y50861D01*
X59341Y50763D01*
X59291Y50709D01*
X59250Y50682D01*
X59204Y50665D01*
X59078Y50652D01*
X59052Y50638D01*
X57768D01*
Y47472D01*
X59115D01*
X59164Y47446D01*
X59290Y47433D01*
X59337Y47417D01*
X59377Y47390D01*
X59427Y47336D01*
X59486Y47239D01*
X59547Y47091D01*
X59601Y46889D01*
X59643Y46636D01*
X59650Y46553D01*
X59643Y46469D01*
X59601Y46214D01*
X59546Y46011D01*
X59486Y45861D01*
X59426Y45763D01*
X59376Y45709D01*
X59335Y45682D01*
X59290Y45665D01*
X59163Y45652D01*
X59137Y45638D01*
X57768D01*
Y42472D01*
X64673D01*
Y45638D01*
X63304D01*
X63278Y45652D01*
X63151Y45665D01*
X63105Y45682D01*
X63065Y45709D01*
X63015Y45763D01*
X62955Y45861D01*
X62894Y46011D01*
X62840Y46214D01*
X62798Y46469D01*
X62790Y46553D01*
X62798Y46636D01*
X62840Y46889D01*
X62894Y47091D01*
X62955Y47239D01*
X63014Y47336D01*
X63064Y47390D01*
X63104Y47417D01*
X63151Y47433D01*
X63277Y47446D01*
X63325Y47472D01*
X64091D01*
X64161Y47443D01*
X64171Y47447D01*
X64180Y47444D01*
X66180Y47514D01*
X66206Y47526D01*
X75461D01*
X76046Y47642D01*
X76542Y47974D01*
X82070Y53502D01*
X117059D01*
X117644Y53619D01*
X118140Y53950D01*
X120591Y56401D01*
X120619Y56412D01*
X121024Y56805D01*
X121776Y57463D01*
X122110Y57719D01*
X122426Y57934D01*
X122716Y58105D01*
X122978Y58232D01*
X123210Y58317D01*
X123409Y58364D01*
X123620Y58382D01*
X123673Y58409D01*
X124087D01*
Y58851D01*
X124116Y58921D01*
X124107Y58944D01*
X124114Y58967D01*
X124087Y59020D01*
Y65409D01*
X123504D01*
X123478Y65424D01*
X123352Y65437D01*
X123306Y65453D01*
X123266Y65481D01*
X123216Y65535D01*
X123156Y65632D01*
X123095Y65782D01*
X123041Y65986D01*
X122999Y66241D01*
X122972Y66546D01*
X122962Y66912D01*
X122951Y66938D01*
Y74622D01*
X122962Y74648D01*
X122972Y75011D01*
X122998Y75314D01*
X123041Y75568D01*
X123095Y75769D01*
X123156Y75917D01*
X123215Y76014D01*
X123265Y76068D01*
X123305Y76095D01*
X123351Y76111D01*
X123478Y76124D01*
X123526Y76151D01*
X124284D01*
Y83151D01*
X123504D01*
X123478Y83165D01*
X123352Y83178D01*
X123306Y83194D01*
X123266Y83222D01*
X123216Y83276D01*
X123156Y83374D01*
X123095Y83523D01*
X123041Y83727D01*
X122999Y83982D01*
X122972Y84287D01*
X122962Y84653D01*
X122951Y84679D01*
Y85080D01*
X122962Y85106D01*
X122972Y85469D01*
X122998Y85772D01*
X123041Y86025D01*
X123095Y86227D01*
X123156Y86375D01*
X123215Y86472D01*
X123265Y86525D01*
X123305Y86552D01*
X123351Y86569D01*
X123478Y86582D01*
X123526Y86608D01*
X124284D01*
Y93608D01*
X118559D01*
Y86608D01*
X119316D01*
X119365Y86582D01*
X119491Y86569D01*
X119537Y86552D01*
X119578Y86525D01*
X119628Y86472D01*
X119687Y86375D01*
X119747Y86227D01*
X119802Y86025D01*
X119844Y85772D01*
X119871Y85469D01*
X119880Y85106D01*
X119892Y85080D01*
Y84679D01*
X119880Y84653D01*
X119871Y84287D01*
X119844Y83982D01*
X119802Y83727D01*
X119747Y83523D01*
X119686Y83374D01*
X119627Y83276D01*
X119577Y83222D01*
X119536Y83194D01*
X119491Y83178D01*
X119364Y83165D01*
X119338Y83151D01*
X118559D01*
Y76151D01*
X119316D01*
X119365Y76124D01*
X119491Y76111D01*
X119537Y76095D01*
X119578Y76068D01*
X119628Y76014D01*
X119687Y75917D01*
X119747Y75769D01*
X119802Y75568D01*
X119844Y75314D01*
X119871Y75011D01*
X119880Y74648D01*
X119892Y74622D01*
Y66938D01*
X119880Y66912D01*
X119871Y66546D01*
X119844Y66241D01*
X119802Y65986D01*
X119747Y65782D01*
X119686Y65632D01*
X119627Y65535D01*
X119577Y65481D01*
X119536Y65453D01*
X119491Y65437D01*
X119364Y65424D01*
X119338Y65409D01*
X118362D01*
Y59033D01*
X118337Y58990D01*
X118347Y58955D01*
X118333Y58921D01*
X118362Y58851D01*
Y58591D01*
X117982Y58140D01*
X117733Y57885D01*
X117722Y57857D01*
X116426Y56561D01*
X81437D01*
X80852Y56445D01*
X80356Y56113D01*
X74827Y50585D01*
X66195D01*
X66168Y50596D01*
X64679Y50614D01*
X64673Y50614D01*
X64673Y50638D01*
X64287Y50643D01*
X64261Y50638D01*
X64232Y50638D01*
X64161Y50667D01*
X64111Y50646D01*
X64057Y50657D01*
X64028Y50638D01*
X63218D01*
X63192Y50652D01*
X63066Y50665D01*
X63020Y50682D01*
X62980Y50709D01*
X62930Y50763D01*
X62870Y50861D01*
X62809Y51011D01*
X62755Y51214D01*
X62713Y51469D01*
X62686Y51774D01*
X62676Y52140D01*
X62665Y52166D01*
Y52598D01*
X62676Y52624D01*
X62686Y52989D01*
X62713Y53294D01*
X62755Y53550D01*
X62809Y53753D01*
X62870Y53903D01*
X62930Y54001D01*
X62980Y54055D01*
X63020Y54082D01*
X63066Y54098D01*
X63192Y54112D01*
X63218Y54126D01*
X64194D01*
Y61032D01*
X61076D01*
X61038Y61049D01*
X60994Y61032D01*
X60948Y61044D01*
X60927Y61032D01*
X60115D01*
X60007Y61094D01*
X59716Y61299D01*
X58987Y61920D01*
X58571Y62323D01*
X58543Y62334D01*
X56606Y64270D01*
X56110Y64602D01*
X55525Y64718D01*
X51507D01*
X51407Y65218D01*
X51640Y65315D01*
X52238Y65774D01*
X52697Y66372D01*
X52985Y67068D01*
X53084Y67815D01*
X52985Y68562D01*
X52697Y69258D01*
X52238Y69856D01*
X51640Y70315D01*
X50944Y70604D01*
X50197Y70702D01*
X49450Y70604D01*
X48753Y70315D01*
X48156Y69856D01*
X47697Y69258D01*
X47408Y68562D01*
X47310Y67815D01*
X47408Y67068D01*
X47697Y66372D01*
X48156Y65774D01*
X48753Y65315D01*
X48986Y65218D01*
X48887Y64718D01*
X39910D01*
X39829Y64772D01*
X39733Y64792D01*
X36629Y67896D01*
Y109173D01*
X36641Y109199D01*
X36651Y109563D01*
X36677Y109865D01*
X36720Y110118D01*
X36774Y110320D01*
X36834Y110468D01*
X36893Y110565D01*
X36943Y110619D01*
X36984Y110646D01*
X37030Y110662D01*
X37157Y110675D01*
X37205Y110702D01*
X37962D01*
Y117702D01*
X37183D01*
X37157Y117716D01*
X37031Y117729D01*
X36985Y117745D01*
X36944Y117773D01*
X36894Y117827D01*
X36835Y117924D01*
X36774Y118074D01*
X36720Y118278D01*
X36677Y118533D01*
X36651Y118838D01*
X36649Y118916D01*
X39260Y121527D01*
X39356Y121546D01*
X39912Y121918D01*
X40284Y122474D01*
X40414Y123130D01*
X40284Y123786D01*
X39912Y124342D01*
X39356Y124714D01*
X38700Y124844D01*
D02*
G37*
G36*
X112087Y50653D02*
X109224D01*
Y47153D01*
X112087D01*
Y50653D01*
D02*
G37*
G36*
X108224D02*
X105362D01*
Y47153D01*
X108224D01*
Y50653D01*
D02*
G37*
G36*
X8661Y51368D02*
X7686Y51174D01*
X6859Y50621D01*
X6306Y49794D01*
X6112Y48819D01*
X6306Y47843D01*
X6859Y47017D01*
X7686Y46464D01*
X8661Y46270D01*
X9637Y46464D01*
X10464Y47017D01*
X11016Y47843D01*
X11210Y48819D01*
X11016Y49794D01*
X10464Y50621D01*
X9637Y51174D01*
X8661Y51368D01*
D02*
G37*
G36*
X214868Y48354D02*
X206289D01*
Y44598D01*
X214868D01*
Y48354D01*
D02*
G37*
G36*
X153067Y45748D02*
X150598D01*
Y43476D01*
X153067D01*
Y45748D01*
D02*
G37*
G36*
X149598D02*
X147130D01*
Y43476D01*
X149598D01*
Y45748D01*
D02*
G37*
G36*
X163697Y46106D02*
X160244D01*
Y43047D01*
X163697D01*
Y46106D01*
D02*
G37*
G36*
X159244D02*
X155791D01*
Y43047D01*
X159244D01*
Y46106D01*
D02*
G37*
G36*
X112087Y46154D02*
X109224D01*
Y42654D01*
X112087D01*
Y46154D01*
D02*
G37*
G36*
X108224D02*
X105362D01*
Y42654D01*
X108224D01*
Y46154D01*
D02*
G37*
G36*
X27953Y89233D02*
X27297Y89102D01*
X26741Y88731D01*
X26369Y88175D01*
X26239Y87519D01*
X26369Y86863D01*
X26715Y86345D01*
X26729Y86308D01*
X26773Y86260D01*
X26798Y86228D01*
X26820Y86192D01*
X26841Y86150D01*
X26860Y86102D01*
X26877Y86047D01*
X26891Y85983D01*
X26902Y85911D01*
X26909Y85830D01*
X26912Y85725D01*
X26933Y85677D01*
Y54193D01*
X27011Y53803D01*
X27232Y53472D01*
X35899Y44805D01*
X35917Y44757D01*
X36273Y44374D01*
X36393Y44225D01*
X36483Y44096D01*
X36508Y44054D01*
Y43753D01*
X36491Y43712D01*
X36508Y43670D01*
Y43669D01*
X36498Y43625D01*
X36508Y43609D01*
X36508Y42842D01*
Y42811D01*
D01*
X36508Y42787D01*
X36441Y42759D01*
X36008Y42580D01*
X31892Y46696D01*
X31872Y46746D01*
X31491Y47142D01*
X31311Y47347D01*
X31183Y47510D01*
X31146Y47564D01*
X31123Y47603D01*
X31102Y47645D01*
X31058Y47684D01*
X30740Y48161D01*
X30184Y48532D01*
X29528Y48663D01*
X28872Y48532D01*
X28316Y48161D01*
X27944Y47605D01*
X27814Y46949D01*
X27944Y46293D01*
X28316Y45737D01*
X28872Y45365D01*
X29528Y45235D01*
X30177Y45364D01*
X30197Y45363D01*
X30232Y45376D01*
X30241Y45373D01*
X30264Y45364D01*
X30299Y45345D01*
X30345Y45314D01*
X30399Y45270D01*
X30474Y45199D01*
X30492Y45192D01*
X30501Y45175D01*
X30540Y45164D01*
X34334Y41370D01*
X34015Y40982D01*
X33952Y41024D01*
X33296Y41154D01*
X32640Y41024D01*
X32084Y40652D01*
X31712Y40096D01*
X31582Y39440D01*
X31712Y38784D01*
X32084Y38228D01*
X32640Y37857D01*
X32663Y37852D01*
X32686Y37830D01*
X32739Y37808D01*
X32781Y37788D01*
X32824Y37764D01*
X32946Y37684D01*
X32996Y37646D01*
X33220Y37451D01*
X33296Y37377D01*
X33347Y37357D01*
X35899Y34805D01*
X35917Y34757D01*
X36273Y34374D01*
X36393Y34225D01*
X36483Y34096D01*
X36508Y34054D01*
Y33753D01*
X36491Y33712D01*
X36508Y33670D01*
Y33669D01*
X36498Y33625D01*
X36508Y33609D01*
Y32472D01*
X43413D01*
Y32956D01*
X43425Y32961D01*
X43499Y32980D01*
X43605Y32998D01*
X43740Y33009D01*
X43915Y33014D01*
X43964Y33035D01*
X48552D01*
X48600Y33014D01*
X48704Y33011D01*
X48786Y33004D01*
X48858Y32993D01*
X48922Y32979D01*
X48977Y32962D01*
X49025Y32943D01*
X49067Y32922D01*
X49103Y32900D01*
X49134Y32876D01*
X49182Y32831D01*
X49220Y32817D01*
X49738Y32472D01*
X50394Y32341D01*
X51050Y32472D01*
X51606Y32843D01*
X51977Y33399D01*
X52108Y34055D01*
X51977Y34711D01*
X51606Y35267D01*
X51050Y35639D01*
X50394Y35769D01*
X49738Y35639D01*
X49220Y35293D01*
X49182Y35279D01*
X49134Y35234D01*
X49103Y35210D01*
X49067Y35188D01*
X49025Y35167D01*
X48977Y35148D01*
X48922Y35131D01*
X48858Y35117D01*
X48786Y35106D01*
X48704Y35099D01*
X48600Y35096D01*
X48552Y35075D01*
X43964D01*
X43915Y35096D01*
X43740Y35101D01*
X43605Y35113D01*
X43499Y35130D01*
X43425Y35149D01*
X43413Y35154D01*
Y35638D01*
X38537D01*
X38520Y35648D01*
X38477Y35638D01*
X38476D01*
X38434Y35655D01*
X38392Y35638D01*
X38092D01*
X38050Y35662D01*
X37926Y35749D01*
X37590Y36035D01*
X37396Y36222D01*
X37346Y36242D01*
X36615Y36972D01*
X36822Y37472D01*
X36847Y37472D01*
X36847Y37472D01*
X36878Y37472D01*
X43413D01*
Y37956D01*
X43425Y37961D01*
X43499Y37980D01*
X43605Y37998D01*
X43740Y38010D01*
X43915Y38014D01*
X43964Y38036D01*
X48533D01*
X48581Y38014D01*
X48685Y38011D01*
X48766Y38004D01*
X48838Y37993D01*
X48902Y37979D01*
X48958Y37962D01*
X49006Y37943D01*
X49047Y37922D01*
X49083Y37900D01*
X49115Y37876D01*
X49163Y37831D01*
X49201Y37817D01*
X49718Y37472D01*
X50374Y37341D01*
X51030Y37472D01*
X51586Y37843D01*
X51958Y38399D01*
X52088Y39055D01*
X51958Y39711D01*
X51586Y40267D01*
X51030Y40639D01*
X50374Y40769D01*
X49718Y40639D01*
X49201Y40293D01*
X49163Y40279D01*
X49115Y40235D01*
X49083Y40210D01*
X49047Y40188D01*
X49006Y40167D01*
X48957Y40148D01*
X48902Y40131D01*
X48838Y40117D01*
X48766Y40106D01*
X48685Y40099D01*
X48581Y40096D01*
X48533Y40075D01*
X43964D01*
X43915Y40096D01*
X43740Y40101D01*
X43605Y40113D01*
X43499Y40130D01*
X43425Y40150D01*
X43413Y40154D01*
Y40638D01*
X38537D01*
X38520Y40648D01*
X38477Y40638D01*
X38476D01*
X38434Y40655D01*
X38392Y40638D01*
X38092D01*
X38050Y40662D01*
X37926Y40749D01*
X37590Y41035D01*
X37396Y41222D01*
X37346Y41242D01*
X36615Y41972D01*
X36822Y42472D01*
X36847Y42472D01*
X36847Y42472D01*
X36878Y42472D01*
X43413D01*
Y45638D01*
X38537D01*
X38520Y45648D01*
X38477Y45638D01*
X38476D01*
X38434Y45655D01*
X38392Y45638D01*
X38092D01*
X38050Y45662D01*
X37926Y45749D01*
X37590Y46035D01*
X37396Y46222D01*
X37346Y46242D01*
X36615Y46972D01*
X36822Y47472D01*
X36847Y47472D01*
X36847Y47472D01*
X36878Y47472D01*
X43413D01*
Y47956D01*
X43425Y47961D01*
X43499Y47980D01*
X43605Y47998D01*
X43740Y48009D01*
X43915Y48014D01*
X43964Y48035D01*
X44617D01*
X48272Y44380D01*
X48291Y44331D01*
X48363Y44256D01*
X48415Y44193D01*
X48459Y44134D01*
X48494Y44079D01*
X48521Y44028D01*
X48541Y43981D01*
X48556Y43936D01*
X48566Y43895D01*
X48571Y43856D01*
X48573Y43790D01*
X48590Y43754D01*
X48712Y43143D01*
X49083Y42587D01*
X49639Y42216D01*
X50295Y42085D01*
X50951Y42216D01*
X51507Y42587D01*
X51879Y43143D01*
X52009Y43799D01*
X51879Y44455D01*
X51507Y45011D01*
X50951Y45383D01*
X50341Y45504D01*
X50304Y45521D01*
X50239Y45524D01*
X50199Y45529D01*
X50158Y45538D01*
X50114Y45553D01*
X50067Y45574D01*
X50015Y45601D01*
X49960Y45636D01*
X49901Y45679D01*
X49839Y45732D01*
X49763Y45803D01*
X49714Y45822D01*
X45760Y49776D01*
X45430Y49997D01*
X45039Y50075D01*
X43964D01*
X43915Y50096D01*
X43740Y50101D01*
X43605Y50112D01*
X43499Y50130D01*
X43425Y50150D01*
X43413Y50154D01*
Y50638D01*
X38537D01*
X38520Y50648D01*
X38477Y50638D01*
X38476D01*
X38434Y50655D01*
X38392Y50638D01*
X38092D01*
X38050Y50662D01*
X37926Y50749D01*
X37590Y51035D01*
X37396Y51222D01*
X37346Y51242D01*
X36150Y52438D01*
X36139Y52475D01*
X36120Y52486D01*
X36112Y52506D01*
X36041Y52581D01*
X35991Y52641D01*
X35952Y52697D01*
X35921Y52747D01*
X35899Y52793D01*
X35883Y52834D01*
X35873Y52871D01*
X35867Y52904D01*
X35866Y52937D01*
X35869Y52999D01*
X35849Y53055D01*
X35868Y53150D01*
X35737Y53806D01*
X35366Y54362D01*
X34809Y54733D01*
X34154Y54864D01*
X33498Y54733D01*
X32941Y54362D01*
X32570Y53806D01*
X32440Y53150D01*
X32570Y52494D01*
X32941Y51938D01*
X33498Y51566D01*
X33896Y51487D01*
X33985Y51436D01*
X34052Y51427D01*
X34096Y51418D01*
X34143Y51403D01*
X34192Y51384D01*
X34245Y51358D01*
X34301Y51326D01*
X34354Y51290D01*
X34492Y51178D01*
X34564Y51110D01*
X34613Y51091D01*
X35899Y49805D01*
X35917Y49757D01*
X36273Y49374D01*
X36393Y49225D01*
X36483Y49096D01*
X36508Y49053D01*
Y48753D01*
X36491Y48712D01*
X36508Y48670D01*
Y48669D01*
X36498Y48625D01*
X36508Y48609D01*
X36508Y47842D01*
Y47811D01*
D01*
X36508Y47787D01*
X36441Y47759D01*
X36008Y47580D01*
X28972Y54615D01*
Y85677D01*
X28994Y85725D01*
X28997Y85830D01*
X29004Y85911D01*
X29015Y85983D01*
X29029Y86047D01*
X29046Y86102D01*
X29065Y86150D01*
X29085Y86192D01*
X29108Y86228D01*
X29132Y86260D01*
X29177Y86308D01*
X29190Y86345D01*
X29536Y86863D01*
X29667Y87519D01*
X29536Y88175D01*
X29165Y88731D01*
X28609Y89102D01*
X27953Y89233D01*
D02*
G37*
G36*
X153067Y42476D02*
X150598D01*
Y40205D01*
X153067D01*
Y42476D01*
D02*
G37*
G36*
X149598D02*
X147130D01*
Y40205D01*
X149598D01*
Y42476D01*
D02*
G37*
G36*
X214868Y43354D02*
X206289D01*
Y39598D01*
X214868D01*
Y43354D01*
D02*
G37*
G36*
X177766D02*
X169187D01*
Y39598D01*
X177766D01*
Y43354D01*
D02*
G37*
G36*
X65173Y41138D02*
X61721D01*
Y39555D01*
X65173D01*
Y41138D01*
D02*
G37*
G36*
X60720D02*
X57268D01*
Y39555D01*
X60720D01*
Y41138D01*
D02*
G37*
G36*
X163697Y42047D02*
X160244D01*
Y38988D01*
X163697D01*
Y42047D01*
D02*
G37*
G36*
X159244D02*
X155791D01*
Y38988D01*
X159244D01*
Y42047D01*
D02*
G37*
G36*
X102996Y40508D02*
X97272D01*
Y37910D01*
X97260Y37905D01*
X97186Y37886D01*
X97080Y37868D01*
X96946Y37857D01*
X96770Y37852D01*
X96721Y37831D01*
X94263D01*
X94215Y37852D01*
X94111Y37855D01*
X94029Y37862D01*
X93957Y37873D01*
X93893Y37887D01*
X93838Y37904D01*
X93790Y37923D01*
X93748Y37944D01*
X93712Y37966D01*
X93680Y37990D01*
X93633Y38035D01*
X93595Y38049D01*
X93077Y38395D01*
X92421Y38525D01*
X91765Y38395D01*
X91209Y38023D01*
X90838Y37467D01*
X90707Y36811D01*
X90838Y36155D01*
X91209Y35599D01*
X91765Y35228D01*
X92421Y35097D01*
X93077Y35228D01*
X93595Y35573D01*
X93633Y35587D01*
X93681Y35632D01*
X93712Y35656D01*
X93748Y35678D01*
X93790Y35699D01*
X93838Y35718D01*
X93893Y35735D01*
X93957Y35749D01*
X94029Y35760D01*
X94111Y35767D01*
X94215Y35770D01*
X94263Y35791D01*
X96721D01*
X96770Y35770D01*
X96946Y35765D01*
X97080Y35754D01*
X97186Y35736D01*
X97260Y35717D01*
X97272Y35712D01*
Y33508D01*
X102996D01*
Y40508D01*
D02*
G37*
G36*
X111496Y41008D02*
X108634D01*
Y37508D01*
X111496D01*
Y41008D01*
D02*
G37*
G36*
X107634D02*
X104772D01*
Y37508D01*
X107634D01*
Y41008D01*
D02*
G37*
G36*
X8661Y42263D02*
X7686Y42070D01*
X6859Y41517D01*
X6306Y40690D01*
X6112Y39715D01*
X6306Y38739D01*
X6859Y37912D01*
X7686Y37360D01*
X8661Y37166D01*
X9637Y37360D01*
X10464Y37912D01*
X11016Y38739D01*
X11210Y39715D01*
X11016Y40690D01*
X10464Y41517D01*
X9637Y42070D01*
X8661Y42263D01*
D02*
G37*
G36*
X65173Y38555D02*
X61721D01*
Y36972D01*
X65173D01*
Y38555D01*
D02*
G37*
G36*
X60720D02*
X57268D01*
Y36972D01*
X60720D01*
Y38555D01*
D02*
G37*
G36*
X214868Y38354D02*
X206289D01*
Y34598D01*
X214868D01*
Y38354D01*
D02*
G37*
G36*
X177766D02*
X169187D01*
Y34598D01*
X177766D01*
Y38354D01*
D02*
G37*
G36*
X111496Y36508D02*
X108634D01*
Y33008D01*
X111496D01*
Y36508D01*
D02*
G37*
G36*
X107634D02*
X104772D01*
Y33008D01*
X107634D01*
Y36508D01*
D02*
G37*
G36*
X24409Y93151D02*
X23753Y93021D01*
X23198Y92649D01*
X22826Y92093D01*
X22695Y91437D01*
X22826Y90781D01*
X23172Y90264D01*
X23186Y90226D01*
X23230Y90178D01*
X23254Y90146D01*
X23277Y90110D01*
X23298Y90069D01*
X23317Y90021D01*
X23334Y89965D01*
X23348Y89901D01*
X23359Y89829D01*
X23366Y89748D01*
X23369Y89644D01*
X23390Y89596D01*
Y36290D01*
X23369Y36242D01*
X23366Y36138D01*
X23359Y36057D01*
X23348Y35985D01*
X23334Y35921D01*
X23316Y35865D01*
X23298Y35817D01*
X23277Y35776D01*
X23254Y35740D01*
X23230Y35708D01*
X23186Y35660D01*
X23172Y35622D01*
X22826Y35105D01*
X22695Y34449D01*
X22826Y33793D01*
X23198Y33237D01*
X23753Y32865D01*
X24409Y32735D01*
X25065Y32865D01*
X25621Y33237D01*
X25993Y33793D01*
X26123Y34449D01*
X25993Y35105D01*
X25647Y35622D01*
X25633Y35660D01*
X25589Y35708D01*
X25565Y35740D01*
X25542Y35776D01*
X25521Y35817D01*
X25502Y35865D01*
X25485Y35921D01*
X25471Y35985D01*
X25460Y36057D01*
X25453Y36138D01*
X25451Y36242D01*
X25429Y36290D01*
Y89596D01*
X25451Y89644D01*
X25453Y89748D01*
X25460Y89829D01*
X25471Y89901D01*
X25485Y89965D01*
X25502Y90021D01*
X25521Y90069D01*
X25542Y90110D01*
X25565Y90146D01*
X25589Y90178D01*
X25633Y90226D01*
X25647Y90264D01*
X25993Y90781D01*
X26123Y91437D01*
X25993Y92093D01*
X25621Y92649D01*
X25065Y93021D01*
X24409Y93151D01*
D02*
G37*
G36*
X64673Y35638D02*
X57768D01*
Y32472D01*
X64673D01*
Y35638D01*
D02*
G37*
G36*
X238974Y39775D02*
X237737Y39574D01*
X236593Y39063D01*
X235616Y38278D01*
X234873Y37269D01*
X234412Y36104D01*
X234263Y34859D01*
X234350Y34239D01*
X234350D01*
X234464Y33605D01*
X235009Y32438D01*
X235836Y31449D01*
X236888Y30707D01*
X238096Y30259D01*
X239379Y30137D01*
X240650Y30348D01*
X241824Y30879D01*
X242323Y31286D01*
X242323Y31286D01*
X242323Y31286D01*
X242793Y31700D01*
X243491Y32741D01*
X243900Y33926D01*
X243993Y35175D01*
X243764Y36407D01*
X243228Y37540D01*
X242421Y38499D01*
X241396Y39219D01*
X240221Y39655D01*
X238974Y39775D01*
D02*
G37*
G36*
X214868Y33354D02*
X206289D01*
Y29598D01*
X214868D01*
Y33354D01*
D02*
G37*
G36*
X177766D02*
X169187D01*
Y29598D01*
X177766D01*
Y33354D01*
D02*
G37*
G36*
X102799Y30862D02*
X97075D01*
Y28658D01*
X97063Y28653D01*
X96989Y28634D01*
X96883Y28616D01*
X96749Y28605D01*
X96573Y28600D01*
X96525Y28579D01*
X94164D01*
X94116Y28600D01*
X94012Y28603D01*
X93931Y28610D01*
X93859Y28621D01*
X93795Y28635D01*
X93739Y28652D01*
X93691Y28671D01*
X93650Y28692D01*
X93614Y28714D01*
X93582Y28738D01*
X93534Y28783D01*
X93496Y28797D01*
X92979Y29143D01*
X92323Y29273D01*
X91667Y29143D01*
X91111Y28771D01*
X90739Y28215D01*
X90609Y27559D01*
X90739Y26903D01*
X91111Y26347D01*
X91667Y25975D01*
X92323Y25845D01*
X92979Y25975D01*
X93496Y26321D01*
X93534Y26335D01*
X93582Y26380D01*
X93614Y26404D01*
X93650Y26426D01*
X93691Y26447D01*
X93739Y26466D01*
X93795Y26483D01*
X93859Y26497D01*
X93931Y26508D01*
X94012Y26515D01*
X94116Y26518D01*
X94164Y26539D01*
X96525D01*
X96573Y26518D01*
X96749Y26513D01*
X96883Y26502D01*
X96989Y26484D01*
X97063Y26465D01*
X97075Y26460D01*
Y23862D01*
X102799D01*
Y30862D01*
D02*
G37*
G36*
X8661Y33159D02*
X7686Y32965D01*
X6859Y32413D01*
X6306Y31586D01*
X6112Y30610D01*
X6306Y29635D01*
X6859Y28808D01*
X7686Y28255D01*
X8661Y28061D01*
X9637Y28255D01*
X10464Y28808D01*
X11016Y29635D01*
X11210Y30610D01*
X11016Y31586D01*
X10464Y32413D01*
X9637Y32965D01*
X8661Y33159D01*
D02*
G37*
G36*
X64673Y30638D02*
X57768D01*
Y30154D01*
X57756Y30149D01*
X57682Y30130D01*
X57576Y30112D01*
X57442Y30101D01*
X57266Y30096D01*
X57218Y30075D01*
X56516D01*
X56126Y29997D01*
X55795Y29776D01*
X53908Y27890D01*
X49725D01*
X49677Y27911D01*
X49573Y27914D01*
X49492Y27921D01*
X49420Y27932D01*
X49356Y27946D01*
X49300Y27963D01*
X49252Y27982D01*
X49211Y28003D01*
X49175Y28025D01*
X49143Y28049D01*
X49095Y28094D01*
X49057Y28108D01*
X48540Y28454D01*
X47884Y28584D01*
X47228Y28454D01*
X46672Y28082D01*
X46300Y27526D01*
X46170Y26870D01*
X46300Y26214D01*
X46672Y25658D01*
X47228Y25286D01*
X47884Y25156D01*
X48540Y25286D01*
X49057Y25632D01*
X49095Y25646D01*
X49143Y25691D01*
X49175Y25715D01*
X49211Y25737D01*
X49252Y25758D01*
X49300Y25777D01*
X49356Y25794D01*
X49420Y25808D01*
X49492Y25819D01*
X49573Y25826D01*
X49677Y25829D01*
X49725Y25850D01*
X53711D01*
X53768Y25690D01*
X53794Y25350D01*
X53316Y25031D01*
X52944Y24475D01*
X52814Y23819D01*
X52944Y23163D01*
X53316Y22607D01*
X53872Y22235D01*
X54528Y22105D01*
X55184Y22235D01*
X55701Y22581D01*
X55739Y22595D01*
X55787Y22639D01*
X55819Y22664D01*
X55855Y22686D01*
X55896Y22707D01*
X55944Y22726D01*
X56000Y22743D01*
X56063Y22757D01*
X56136Y22768D01*
X56217Y22775D01*
X56321Y22778D01*
X56369Y22799D01*
X57213D01*
X57260Y22778D01*
X57600Y22765D01*
X57712Y22753D01*
X57768Y22743D01*
Y22472D01*
X58207D01*
X58276Y22443D01*
X58319Y22461D01*
X58364Y22450D01*
X58401Y22472D01*
X64673D01*
Y25139D01*
X64673Y25200D01*
X65146Y25665D01*
X65315Y25664D01*
X74082Y16897D01*
X74413Y16676D01*
X74803Y16599D01*
X96525D01*
X96573Y16577D01*
X96749Y16572D01*
X96883Y16561D01*
X96989Y16543D01*
X97063Y16524D01*
X97075Y16519D01*
Y14118D01*
X102799D01*
Y21118D01*
X97075D01*
Y18717D01*
X97063Y18712D01*
X96989Y18693D01*
X96883Y18676D01*
X96749Y18664D01*
X96573Y18659D01*
X96525Y18638D01*
X75226D01*
X65283Y28580D01*
X65265Y28628D01*
X64931Y28989D01*
X64819Y29130D01*
X64732Y29255D01*
X64674Y29357D01*
X64673Y29357D01*
Y29744D01*
X64680Y29779D01*
X64673Y29789D01*
Y30638D01*
D02*
G37*
G36*
X111299Y31362D02*
X108437D01*
Y27862D01*
X111299D01*
Y31362D01*
D02*
G37*
G36*
X107437D02*
X104575D01*
Y27862D01*
X107437D01*
Y31362D01*
D02*
G37*
G36*
X20472Y96891D02*
X19816Y96761D01*
X19260Y96389D01*
X18889Y95833D01*
X18758Y95177D01*
X18889Y94521D01*
X19235Y94004D01*
X19249Y93966D01*
X19293Y93918D01*
X19317Y93886D01*
X19340Y93850D01*
X19361Y93809D01*
X19379Y93761D01*
X19397Y93705D01*
X19411Y93641D01*
X19422Y93569D01*
X19429Y93488D01*
X19431Y93384D01*
X19453Y93336D01*
Y32992D01*
X19531Y32602D01*
X19751Y32271D01*
X23688Y28334D01*
X24019Y28113D01*
X24409Y28036D01*
X35958D01*
X36006Y28014D01*
X36182Y28010D01*
X36316Y27998D01*
X36422Y27980D01*
X36496Y27961D01*
X36508Y27956D01*
Y27472D01*
X43413D01*
Y30638D01*
X36508D01*
Y30154D01*
X36496Y30149D01*
X36422Y30130D01*
X36316Y30112D01*
X36182Y30101D01*
X36006Y30096D01*
X35958Y30075D01*
X24832D01*
X21492Y33414D01*
Y93336D01*
X21513Y93384D01*
X21516Y93488D01*
X21523Y93569D01*
X21534Y93641D01*
X21548Y93705D01*
X21565Y93761D01*
X21584Y93809D01*
X21605Y93850D01*
X21628Y93886D01*
X21652Y93918D01*
X21696Y93966D01*
X21710Y94004D01*
X22056Y94521D01*
X22186Y95177D01*
X22056Y95833D01*
X21684Y96389D01*
X21128Y96761D01*
X20472Y96891D01*
D02*
G37*
G36*
X215368Y28854D02*
X211079D01*
Y26976D01*
X215368D01*
Y28854D01*
D02*
G37*
G36*
X210079D02*
X205789D01*
Y26976D01*
X210079D01*
Y28854D01*
D02*
G37*
G36*
X155780Y29976D02*
X150055D01*
Y22976D01*
X155780D01*
Y25377D01*
X155791Y25382D01*
X155865Y25402D01*
X155971Y25419D01*
X156106Y25431D01*
X156282Y25435D01*
X156330Y25457D01*
X168637D01*
X168685Y25435D01*
X168861Y25431D01*
X168996Y25419D01*
X169101Y25402D01*
X169175Y25382D01*
X169187Y25377D01*
Y24598D01*
X177766D01*
Y28354D01*
X169187D01*
Y27576D01*
X169175Y27571D01*
X169101Y27551D01*
X168996Y27534D01*
X168861Y27522D01*
X168685Y27517D01*
X168637Y27496D01*
X156330D01*
X156282Y27517D01*
X156106Y27522D01*
X155971Y27534D01*
X155865Y27551D01*
X155791Y27571D01*
X155780Y27576D01*
Y29976D01*
D02*
G37*
G36*
X215368Y25976D02*
X211079D01*
Y24098D01*
X215368D01*
Y25976D01*
D02*
G37*
G36*
X111299Y26862D02*
X108437D01*
Y23362D01*
X111299D01*
Y26862D01*
D02*
G37*
G36*
X107437D02*
X104575D01*
Y23362D01*
X107437D01*
Y26862D01*
D02*
G37*
G36*
X191634Y34194D02*
X190978Y34064D01*
X190422Y33692D01*
X190050Y33136D01*
X189920Y32480D01*
X189945Y32356D01*
X189923Y32289D01*
X189927Y32229D01*
X189926Y32198D01*
X189921Y32167D01*
X189912Y32132D01*
X189898Y32093D01*
X189877Y32049D01*
X189847Y31999D01*
X189808Y31945D01*
X189759Y31885D01*
X189688Y31810D01*
X189678Y31783D01*
X189653Y31769D01*
X189644Y31736D01*
X180404Y22496D01*
X178316D01*
X178268Y22517D01*
X178092Y22522D01*
X177957Y22534D01*
X177851Y22551D01*
X177778Y22571D01*
X177766Y22576D01*
Y23354D01*
X169187D01*
Y21646D01*
X169164Y21609D01*
X169175Y21566D01*
X169158Y21525D01*
X169187Y21454D01*
Y21189D01*
X169156Y21135D01*
X169071Y21013D01*
X168788Y20679D01*
X168603Y20486D01*
X168583Y20436D01*
X161174Y13027D01*
X70560D01*
X65283Y18305D01*
X65265Y18353D01*
X64911Y18734D01*
X64793Y18881D01*
X64704Y19009D01*
X64673Y19063D01*
Y19328D01*
X64702Y19399D01*
X64685Y19440D01*
X64696Y19483D01*
X64673Y19520D01*
Y20638D01*
X57768D01*
Y17472D01*
X62626D01*
X62663Y17450D01*
X62706Y17460D01*
X62747Y17443D01*
X62818Y17472D01*
X63082D01*
X63137Y17442D01*
X63258Y17357D01*
X63593Y17074D01*
X63785Y16888D01*
X63836Y16868D01*
X69417Y11287D01*
X69748Y11066D01*
X70138Y10988D01*
X161597D01*
X161987Y11066D01*
X162317Y11287D01*
X170019Y18989D01*
X170067Y19007D01*
X170449Y19361D01*
X170596Y19479D01*
X170724Y19568D01*
X170778Y19598D01*
X171043D01*
X171113Y19569D01*
X171154Y19586D01*
X171198Y19576D01*
X171235Y19598D01*
X177766D01*
Y20377D01*
X177778Y20382D01*
X177851Y20402D01*
X177957Y20419D01*
X178092Y20431D01*
X178268Y20435D01*
X178316Y20457D01*
X180827D01*
X181217Y20534D01*
X181548Y20755D01*
X191207Y30414D01*
X191256Y30433D01*
X191333Y30507D01*
X191398Y30563D01*
X191461Y30612D01*
X191521Y30653D01*
X191578Y30687D01*
X191632Y30713D01*
X191683Y30735D01*
X191730Y30750D01*
X191776Y30761D01*
X191843Y30771D01*
X191933Y30826D01*
X192290Y30897D01*
X192846Y31268D01*
X193217Y31824D01*
X193348Y32480D01*
X193217Y33136D01*
X192846Y33692D01*
X192290Y34064D01*
X191634Y34194D01*
D02*
G37*
G36*
X43413Y25638D02*
X36508D01*
Y22472D01*
X43413D01*
Y22956D01*
X43425Y22961D01*
X43499Y22980D01*
X43605Y22998D01*
X43740Y23009D01*
X43915Y23014D01*
X43939Y23025D01*
X46228Y20736D01*
X46559Y20515D01*
X46949Y20437D01*
X47844D01*
X47892Y20416D01*
X47996Y20413D01*
X48077Y20406D01*
X48149Y20395D01*
X48213Y20381D01*
X48269Y20364D01*
X48317Y20345D01*
X48358Y20324D01*
X48394Y20302D01*
X48426Y20277D01*
X48474Y20233D01*
X48512Y20219D01*
X49029Y19873D01*
X49685Y19743D01*
X50341Y19873D01*
X50897Y20245D01*
X51269Y20801D01*
X51399Y21457D01*
X51269Y22113D01*
X50897Y22669D01*
X50341Y23040D01*
X49685Y23171D01*
X49029Y23040D01*
X48512Y22694D01*
X48474Y22680D01*
X48426Y22636D01*
X48394Y22612D01*
X48358Y22589D01*
X48317Y22569D01*
X48269Y22550D01*
X48213Y22533D01*
X48149Y22518D01*
X48077Y22508D01*
X47996Y22501D01*
X47892Y22498D01*
X47844Y22476D01*
X47371D01*
X45071Y24776D01*
X44741Y24997D01*
X44350Y25075D01*
X43964D01*
X43915Y25096D01*
X43740Y25101D01*
X43605Y25113D01*
X43499Y25130D01*
X43425Y25150D01*
X43413Y25154D01*
Y25638D01*
D02*
G37*
G36*
X192126Y74549D02*
X191470Y74418D01*
X190914Y74047D01*
X190542Y73491D01*
X190412Y72835D01*
X190542Y72179D01*
X190888Y71661D01*
X190902Y71623D01*
X190947Y71575D01*
X190971Y71544D01*
X190993Y71508D01*
X191014Y71466D01*
X191033Y71418D01*
X191050Y71363D01*
X191064Y71299D01*
X191075Y71227D01*
X191082Y71145D01*
X191085Y71041D01*
X191106Y70993D01*
Y37518D01*
X191184Y37128D01*
X191405Y36797D01*
X205680Y22522D01*
X205698Y22474D01*
X206055Y22090D01*
X206174Y21942D01*
X206265Y21813D01*
X206289Y21770D01*
Y21470D01*
X206272Y21428D01*
X206289Y21387D01*
Y21385D01*
X206279Y21342D01*
X206289Y21325D01*
Y19598D01*
X214868D01*
Y23354D01*
X208318D01*
X208302Y23365D01*
X208259Y23354D01*
X208257D01*
X208216Y23371D01*
X208174Y23354D01*
X207955D01*
X207734Y23599D01*
X207932Y24098D01*
X210079D01*
Y25976D01*
X205789D01*
Y25949D01*
X205327Y25758D01*
X193146Y37940D01*
Y70993D01*
X193167Y71041D01*
X193170Y71145D01*
X193177Y71227D01*
X193188Y71299D01*
X193202Y71363D01*
X193219Y71418D01*
X193238Y71466D01*
X193259Y71508D01*
X193281Y71544D01*
X193305Y71575D01*
X193350Y71623D01*
X193364Y71661D01*
X193710Y72179D01*
X193840Y72835D01*
X193710Y73491D01*
X193338Y74047D01*
X192782Y74418D01*
X192126Y74549D01*
D02*
G37*
G36*
X43913Y21138D02*
X40461D01*
Y19555D01*
X43913D01*
Y21138D01*
D02*
G37*
G36*
X39461D02*
X36008D01*
Y19555D01*
X39461D01*
Y21138D01*
D02*
G37*
G36*
X111299Y21618D02*
X108437D01*
Y18118D01*
X111299D01*
Y21618D01*
D02*
G37*
G36*
X107437D02*
X104575D01*
Y18118D01*
X107437D01*
Y21618D01*
D02*
G37*
G36*
X43913Y18555D02*
X40461D01*
Y16972D01*
X43913D01*
Y18555D01*
D02*
G37*
G36*
X39461D02*
X36008D01*
Y16972D01*
X39461D01*
Y18555D01*
D02*
G37*
G36*
X111299Y17118D02*
X108437D01*
Y13618D01*
X111299D01*
Y17118D01*
D02*
G37*
G36*
X107437D02*
X104575D01*
Y13618D01*
X107437D01*
Y17118D01*
D02*
G37*
G36*
X239173Y23080D02*
X237532Y22918D01*
X235953Y22439D01*
X234498Y21662D01*
X233223Y20615D01*
X232177Y19340D01*
X231399Y17886D01*
X230920Y16307D01*
X230759Y14665D01*
X230920Y13024D01*
X231399Y11445D01*
X232177Y9990D01*
X233223Y8715D01*
X234498Y7669D01*
X235953Y6891D01*
X237532Y6413D01*
X239173Y6251D01*
X240815Y6413D01*
X242393Y6891D01*
X243848Y7669D01*
X245123Y8715D01*
X246170Y9990D01*
X246947Y11445D01*
X247426Y13024D01*
X247588Y14665D01*
X247426Y16307D01*
X246947Y17886D01*
X246170Y19340D01*
X245123Y20615D01*
X243848Y21662D01*
X242393Y22439D01*
X240815Y22918D01*
X239173Y23080D01*
D02*
G37*
G36*
X10827D02*
X9185Y22918D01*
X7607Y22439D01*
X6152Y21662D01*
X4877Y20615D01*
X3830Y19340D01*
X3053Y17886D01*
X2574Y16307D01*
X2412Y14665D01*
X2574Y13024D01*
X3053Y11445D01*
X3830Y9990D01*
X4877Y8715D01*
X6152Y7669D01*
X7607Y6891D01*
X9185Y6413D01*
X10827Y6251D01*
X12468Y6413D01*
X14047Y6891D01*
X15502Y7669D01*
X16777Y8715D01*
X17823Y9990D01*
X18601Y11445D01*
X19080Y13024D01*
X19241Y14665D01*
X19080Y16307D01*
X18601Y17886D01*
X17823Y19340D01*
X16777Y20615D01*
X15502Y21662D01*
X14047Y22439D01*
X12468Y22918D01*
X10827Y23080D01*
D02*
G37*
%LPD*%
G36*
X197952Y154165D02*
X197867Y154135D01*
X197792Y154085D01*
X197727Y154015D01*
X197672Y153925D01*
X197627Y153815D01*
X197592Y153685D01*
X197567Y153535D01*
X197552Y153365D01*
X197547Y153175D01*
X196547D01*
X196542Y153365D01*
X196527Y153535D01*
X196502Y153685D01*
X196467Y153815D01*
X196422Y153925D01*
X196367Y154015D01*
X196302Y154085D01*
X196227Y154135D01*
X196142Y154165D01*
X196047Y154175D01*
X198047D01*
X197952Y154165D01*
D02*
G37*
G36*
X189291D02*
X189206Y154135D01*
X189131Y154085D01*
X189066Y154015D01*
X189011Y153925D01*
X188966Y153815D01*
X188931Y153685D01*
X188906Y153535D01*
X188891Y153365D01*
X188886Y153175D01*
X187886D01*
X187881Y153365D01*
X187866Y153535D01*
X187841Y153685D01*
X187806Y153815D01*
X187761Y153925D01*
X187706Y154015D01*
X187641Y154085D01*
X187566Y154135D01*
X187481Y154165D01*
X187386Y154175D01*
X189386D01*
X189291Y154165D01*
D02*
G37*
G36*
X184960D02*
X184875Y154135D01*
X184800Y154085D01*
X184735Y154015D01*
X184680Y153925D01*
X184635Y153815D01*
X184600Y153685D01*
X184575Y153535D01*
X184560Y153365D01*
X184555Y153175D01*
X183555D01*
X183550Y153365D01*
X183535Y153535D01*
X183510Y153685D01*
X183475Y153815D01*
X183430Y153925D01*
X183375Y154015D01*
X183310Y154085D01*
X183235Y154135D01*
X183150Y154165D01*
X183055Y154175D01*
X185055D01*
X184960Y154165D01*
D02*
G37*
G36*
X180629D02*
X180544Y154135D01*
X180469Y154085D01*
X180404Y154015D01*
X180349Y153925D01*
X180304Y153815D01*
X180269Y153685D01*
X180244Y153535D01*
X180229Y153365D01*
X180224Y153175D01*
X179224D01*
X179219Y153365D01*
X179204Y153535D01*
X179179Y153685D01*
X179144Y153815D01*
X179099Y153925D01*
X179044Y154015D01*
X178979Y154085D01*
X178904Y154135D01*
X178819Y154165D01*
X178724Y154175D01*
X180724D01*
X180629Y154165D01*
D02*
G37*
G36*
X194172Y154155D02*
X194077Y154095D01*
X193992Y153995D01*
X193919Y153855D01*
X193857Y153675D01*
X193807Y153455D01*
X193767Y153195D01*
X193739Y152895D01*
X193717Y152175D01*
X191717D01*
X191711Y152555D01*
X191666Y153195D01*
X191627Y153455D01*
X191576Y153675D01*
X191514Y153855D01*
X191441Y153995D01*
X191356Y154095D01*
X191261Y154155D01*
X191154Y154175D01*
X194279D01*
X194172Y154155D01*
D02*
G37*
G36*
X188886Y145480D02*
X188889Y145359D01*
X188899Y145245D01*
X188915Y145137D01*
X188938Y145035D01*
X188968Y144938D01*
X189004Y144848D01*
X189046Y144763D01*
X189095Y144684D01*
X189151Y144611D01*
X189213Y144544D01*
X188386Y143701D01*
X187559Y144544D01*
X187621Y144611D01*
X187677Y144684D01*
X187726Y144763D01*
X187768Y144848D01*
X187804Y144938D01*
X187834Y145035D01*
X187856Y145137D01*
X187873Y145245D01*
X187883Y145359D01*
X187886Y145480D01*
X188886Y145480D01*
D02*
G37*
G36*
X189213Y142857D02*
X189151Y142790D01*
X189095Y142717D01*
X189046Y142639D01*
X189004Y142554D01*
X188968Y142463D01*
X188938Y142367D01*
X188915Y142264D01*
X188899Y142156D01*
X188889Y142042D01*
X188886Y141922D01*
X187886Y141922D01*
X187883Y142042D01*
X187873Y142156D01*
X187856Y142264D01*
X187834Y142367D01*
X187804Y142463D01*
X187768Y142554D01*
X187726Y142639D01*
X187677Y142717D01*
X187621Y142790D01*
X187559Y142857D01*
X188386Y143701D01*
X189213Y142857D01*
D02*
G37*
G36*
X197547Y134850D02*
X197550Y134730D01*
X197560Y134615D01*
X197577Y134507D01*
X197599Y134405D01*
X197629Y134308D01*
X197665Y134218D01*
X197707Y134133D01*
X197756Y134054D01*
X197812Y133981D01*
X197874Y133914D01*
X197047Y133071D01*
X196221Y133914D01*
X196283Y133981D01*
X196338Y134054D01*
X196387Y134133D01*
X196430Y134218D01*
X196466Y134308D01*
X196495Y134405D01*
X196518Y134507D01*
X196534Y134615D01*
X196544Y134730D01*
X196547Y134850D01*
X197547Y134850D01*
D02*
G37*
G36*
X197874Y132227D02*
X197812Y132160D01*
X197756Y132088D01*
X197707Y132009D01*
X197665Y131924D01*
X197629Y131833D01*
X197599Y131737D01*
X197577Y131635D01*
X197560Y131526D01*
X197550Y131412D01*
X197547Y131292D01*
X196547Y131292D01*
X196544Y131412D01*
X196534Y131526D01*
X196518Y131635D01*
X196495Y131737D01*
X196466Y131833D01*
X196430Y131924D01*
X196387Y132009D01*
X196338Y132088D01*
X196283Y132160D01*
X196221Y132227D01*
X197047Y133071D01*
X197874Y132227D01*
D02*
G37*
G36*
X181237Y118719D02*
X181155Y118632D01*
X181081Y118544D01*
X181016Y118456D01*
X180960Y118368D01*
X180912Y118279D01*
X180874Y118189D01*
X180844Y118099D01*
X180823Y118009D01*
X180810Y117918D01*
X180807Y117827D01*
X179638Y118996D01*
X179729Y119000D01*
X179820Y119012D01*
X179910Y119033D01*
X180000Y119063D01*
X180090Y119101D01*
X180179Y119149D01*
X180267Y119205D01*
X180355Y119270D01*
X180443Y119344D01*
X180530Y119426D01*
X181237Y118719D01*
D02*
G37*
G36*
X179614Y116634D02*
X179523Y116630D01*
X179432Y116618D01*
X179342Y116597D01*
X179252Y116567D01*
X179162Y116529D01*
X179073Y116481D01*
X178985Y116425D01*
X178897Y116360D01*
X178809Y116286D01*
X178722Y116204D01*
X178015Y116911D01*
X178097Y116998D01*
X178171Y117086D01*
X178236Y117174D01*
X178292Y117262D01*
X178340Y117351D01*
X178378Y117441D01*
X178408Y117531D01*
X178429Y117621D01*
X178442Y117712D01*
X178445Y117803D01*
X179614Y116634D01*
D02*
G37*
G36*
X197552Y91213D02*
X197567Y91041D01*
X197592Y90889D01*
X197627Y90758D01*
X197672Y90646D01*
X197727Y90555D01*
X197792Y90484D01*
X197867Y90434D01*
X197952Y90403D01*
X198047Y90393D01*
X196047D01*
X196142Y90403D01*
X196227Y90434D01*
X196302Y90484D01*
X196367Y90555D01*
X196422Y90646D01*
X196467Y90758D01*
X196502Y90889D01*
X196527Y91041D01*
X196542Y91213D01*
X196547Y91405D01*
X197547D01*
X197552Y91213D01*
D02*
G37*
G36*
X188891D02*
X188906Y91041D01*
X188931Y90889D01*
X188966Y90758D01*
X189011Y90646D01*
X189066Y90555D01*
X189131Y90484D01*
X189206Y90434D01*
X189291Y90403D01*
X189386Y90393D01*
X187386D01*
X187481Y90403D01*
X187566Y90434D01*
X187641Y90484D01*
X187706Y90555D01*
X187761Y90646D01*
X187806Y90758D01*
X187841Y90889D01*
X187866Y91041D01*
X187881Y91213D01*
X187886Y91405D01*
X188886D01*
X188891Y91213D01*
D02*
G37*
G36*
X175111Y91214D02*
X175126Y91042D01*
X175151Y90891D01*
X175186Y90759D01*
X175231Y90648D01*
X175286Y90557D01*
X175351Y90486D01*
X175426Y90435D01*
X175511Y90404D01*
X175606Y90393D01*
X173626Y90405D01*
X173717Y90415D01*
X173799Y90445D01*
X173871Y90495D01*
X173933Y90565D01*
X173986Y90655D01*
X174030Y90765D01*
X174063Y90895D01*
X174087Y91045D01*
X174101Y91215D01*
X174106Y91405D01*
X175106D01*
X175111Y91214D01*
D02*
G37*
G36*
X168615Y91213D02*
X168630Y91041D01*
X168655Y90889D01*
X168690Y90758D01*
X168735Y90646D01*
X168790Y90555D01*
X168855Y90484D01*
X168930Y90434D01*
X169015Y90403D01*
X169110Y90393D01*
X167110D01*
X167205Y90403D01*
X167290Y90434D01*
X167365Y90484D01*
X167430Y90555D01*
X167485Y90646D01*
X167530Y90758D01*
X167565Y90889D01*
X167590Y91041D01*
X167605Y91213D01*
X167610Y91405D01*
X168610D01*
X168615Y91213D01*
D02*
G37*
G36*
X61559Y154089D02*
X61474Y154059D01*
X61399Y154009D01*
X61334Y153939D01*
X61278Y153849D01*
X61234Y153739D01*
X61199Y153609D01*
X61173Y153459D01*
X61159Y153289D01*
X61154Y153099D01*
X60154D01*
X60149Y153289D01*
X60133Y153459D01*
X60109Y153609D01*
X60074Y153739D01*
X60028Y153849D01*
X59974Y153939D01*
X59908Y154009D01*
X59834Y154059D01*
X59749Y154089D01*
X59654Y154099D01*
X61654D01*
X61559Y154089D01*
D02*
G37*
G36*
X61159Y150550D02*
X61173Y150380D01*
X61199Y150230D01*
X61234Y150100D01*
X61278Y149990D01*
X61334Y149900D01*
X61399Y149830D01*
X61474Y149780D01*
X61559Y149750D01*
X61654Y149740D01*
X59654D01*
X59749Y149750D01*
X59834Y149780D01*
X59908Y149830D01*
X59974Y149900D01*
X60028Y149990D01*
X60074Y150100D01*
X60109Y150230D01*
X60133Y150380D01*
X60149Y150550D01*
X60154Y150740D01*
X61154D01*
X61159Y150550D01*
D02*
G37*
G36*
X67718Y143776D02*
X67641Y143831D01*
X67550Y143858D01*
X67444Y143857D01*
X67325Y143828D01*
X67190Y143770D01*
X67042Y143684D01*
X66879Y143570D01*
X66701Y143427D01*
X66303Y143057D01*
X65596Y143764D01*
X65795Y143970D01*
X66109Y144339D01*
X66223Y144502D01*
X66309Y144651D01*
X66367Y144785D01*
X66397Y144905D01*
X66398Y145010D01*
X66371Y145101D01*
X66315Y145178D01*
X67718Y143776D01*
D02*
G37*
G36*
X114643Y95940D02*
X114587Y95867D01*
X114538Y95788D01*
X114496Y95704D01*
X114460Y95613D01*
X114430Y95517D01*
X114407Y95414D01*
X114391Y95306D01*
X114381Y95192D01*
X114378Y95072D01*
X113378D01*
X113375Y95192D01*
X113365Y95306D01*
X113348Y95414D01*
X113326Y95517D01*
X113296Y95613D01*
X113260Y95704D01*
X113218Y95788D01*
X113169Y95867D01*
X113113Y95940D01*
X113051Y96007D01*
X114705D01*
X114643Y95940D01*
D02*
G37*
G36*
X114383Y93904D02*
X114398Y93732D01*
X114423Y93580D01*
X114458Y93449D01*
X114503Y93337D01*
X114558Y93246D01*
X114623Y93175D01*
X114698Y93125D01*
X114783Y93094D01*
X114878Y93084D01*
X112878D01*
X112973Y93094D01*
X113058Y93125D01*
X113133Y93175D01*
X113198Y93246D01*
X113253Y93337D01*
X113298Y93449D01*
X113333Y93580D01*
X113358Y93732D01*
X113373Y93904D01*
X113378Y94096D01*
X114378D01*
X114383Y93904D01*
D02*
G37*
G36*
X112485Y87120D02*
X112408Y87177D01*
X112316Y87205D01*
X112209D01*
X112089Y87177D01*
X111955Y87120D01*
X111806Y87035D01*
X111644Y86922D01*
X111467Y86781D01*
X111071Y86413D01*
X110364Y87120D01*
X110562Y87325D01*
X110873Y87693D01*
X110986Y87856D01*
X111071Y88004D01*
X111128Y88139D01*
X111156Y88259D01*
Y88365D01*
X111128Y88457D01*
X111071Y88534D01*
X112485Y87120D01*
D02*
G37*
G36*
X51519Y82539D02*
X51452Y82601D01*
X51379Y82657D01*
X51300Y82706D01*
X51215Y82749D01*
X51125Y82784D01*
X51028Y82814D01*
X50926Y82837D01*
X50818Y82853D01*
X50704Y82863D01*
X50583Y82866D01*
Y83866D01*
X50704Y83869D01*
X50818Y83879D01*
X50926Y83896D01*
X51028Y83918D01*
X51125Y83948D01*
X51215Y83984D01*
X51300Y84026D01*
X51379Y84075D01*
X51452Y84131D01*
X51519Y84193D01*
Y82539D01*
D02*
G37*
G36*
X51413Y80883D02*
X51486Y80827D01*
X51565Y80778D01*
X51649Y80736D01*
X51740Y80700D01*
X51837Y80670D01*
X51939Y80647D01*
X52047Y80631D01*
X52161Y80621D01*
X52281Y80618D01*
Y79618D01*
X52161Y79615D01*
X52047Y79605D01*
X51939Y79589D01*
X51837Y79566D01*
X51740Y79536D01*
X51649Y79501D01*
X51565Y79458D01*
X51486Y79409D01*
X51413Y79353D01*
X51346Y79291D01*
Y80945D01*
X51413Y80883D01*
D02*
G37*
G36*
X43415Y140508D02*
X43260Y140621D01*
X43076Y140678D01*
X42864D01*
X42623Y140621D01*
X42355Y140508D01*
X42058Y140338D01*
X41732Y140112D01*
X41379Y139829D01*
X40587Y139094D01*
X39173Y140508D01*
X39569Y140918D01*
X40191Y141654D01*
X40417Y141979D01*
X40587Y142276D01*
X40700Y142544D01*
X40756Y142785D01*
Y142997D01*
X40700Y143181D01*
X40587Y143336D01*
X43415Y140508D01*
D02*
G37*
G36*
X28110Y118807D02*
X28140Y118465D01*
X28190Y118163D01*
X28260Y117902D01*
X28350Y117681D01*
X28460Y117499D01*
X28590Y117359D01*
X28740Y117258D01*
X28910Y117198D01*
X29100Y117178D01*
X25100D01*
X25290Y117198D01*
X25460Y117258D01*
X25610Y117359D01*
X25740Y117499D01*
X25850Y117681D01*
X25940Y117902D01*
X26010Y118163D01*
X26060Y118465D01*
X26090Y118807D01*
X26100Y119190D01*
X28100D01*
X28110Y118807D01*
D02*
G37*
G36*
X86863Y141122D02*
X86239Y140418D01*
X85985Y140089D01*
X85771Y139775D01*
X85596Y139476D01*
X85459Y139192D01*
X85361Y138924D01*
X85303Y138670D01*
X85283Y138432D01*
X84284D01*
X84264Y138670D01*
X84206Y138924D01*
X84108Y139192D01*
X83972Y139476D01*
X83796Y139775D01*
X83582Y140089D01*
X83328Y140418D01*
X82704Y141122D01*
X82333Y141497D01*
X87234D01*
X86863Y141122D01*
D02*
G37*
G36*
X64314Y113740D02*
X64247Y113802D01*
X64174Y113858D01*
X64095Y113907D01*
X64011Y113949D01*
X63920Y113985D01*
X63824Y114015D01*
X63721Y114038D01*
X63613Y114054D01*
X63499Y114064D01*
X63379Y114067D01*
Y115067D01*
X63499Y115070D01*
X63613Y115080D01*
X63721Y115096D01*
X63824Y115119D01*
X63920Y115149D01*
X64011Y115185D01*
X64095Y115227D01*
X64174Y115276D01*
X64247Y115332D01*
X64314Y115394D01*
Y113740D01*
D02*
G37*
G36*
X61663Y115472D02*
X61694Y115387D01*
X61744Y115312D01*
X61815Y115247D01*
X61906Y115192D01*
X62018Y115147D01*
X62149Y115112D01*
X62301Y115087D01*
X62473Y115072D01*
X62665Y115067D01*
Y114067D01*
X62473Y114062D01*
X62301Y114047D01*
X62149Y114022D01*
X62018Y113987D01*
X61906Y113942D01*
X61815Y113887D01*
X61744Y113822D01*
X61694Y113747D01*
X61663Y113662D01*
X61653Y113567D01*
Y115567D01*
X61663Y115472D01*
D02*
G37*
G36*
X49741Y111591D02*
X49693Y111675D01*
X49624Y111724D01*
X49534Y111739D01*
X49424Y111719D01*
X49293Y111664D01*
X49141Y111575D01*
X48969Y111451D01*
X48776Y111293D01*
X48327Y110872D01*
X48258Y112217D01*
X48428Y112394D01*
X48704Y112726D01*
X48809Y112879D01*
X48892Y113025D01*
X48953Y113162D01*
X48992Y113291D01*
X49009Y113413D01*
X49004Y113526D01*
X48977Y113631D01*
X49741Y111591D01*
D02*
G37*
G36*
X47903Y99757D02*
X47991Y99683D01*
X48079Y99618D01*
X48168Y99562D01*
X48257Y99515D01*
X48346Y99476D01*
X48436Y99446D01*
X48526Y99425D01*
X48617Y99413D01*
X48709Y99409D01*
X47539Y98240D01*
X47536Y98331D01*
X47524Y98422D01*
X47503Y98513D01*
X47473Y98602D01*
X47434Y98692D01*
X47387Y98781D01*
X47330Y98870D01*
X47265Y98958D01*
X47192Y99045D01*
X47109Y99133D01*
X47816Y99840D01*
X47903Y99757D01*
D02*
G37*
G36*
X50430Y94999D02*
X50348Y94911D01*
X50274Y94824D01*
X50209Y94736D01*
X50153Y94647D01*
X50105Y94558D01*
X50067Y94469D01*
X50037Y94379D01*
X50016Y94288D01*
X50003Y94198D01*
X50000Y94106D01*
X48831Y95275D01*
X48922Y95279D01*
X49013Y95291D01*
X49103Y95312D01*
X49193Y95342D01*
X49283Y95381D01*
X49372Y95428D01*
X49460Y95484D01*
X49548Y95549D01*
X49636Y95623D01*
X49723Y95706D01*
X50430Y94999D01*
D02*
G37*
G36*
X103666Y111296D02*
X103739Y111241D01*
X103818Y111192D01*
X103903Y111149D01*
X103993Y111113D01*
X104090Y111084D01*
X104192Y111061D01*
X104300Y111045D01*
X104415Y111035D01*
X104535Y111031D01*
Y110031D01*
X104415Y110028D01*
X104300Y110018D01*
X104192Y110002D01*
X104090Y109979D01*
X103993Y109950D01*
X103903Y109914D01*
X103818Y109871D01*
X103739Y109822D01*
X103666Y109767D01*
X103599Y109705D01*
Y111358D01*
X103666Y111296D01*
D02*
G37*
G36*
X111083Y109531D02*
X111073Y109626D01*
X111043Y109712D01*
X110992Y109786D01*
X110921Y109852D01*
X110830Y109906D01*
X110719Y109951D01*
X110587Y109986D01*
X110435Y110011D01*
X110263Y110027D01*
X110071Y110031D01*
Y111031D01*
X110263Y111037D01*
X110435Y111051D01*
X110587Y111076D01*
X110719Y111111D01*
X110830Y111156D01*
X110921Y111212D01*
X110992Y111276D01*
X111043Y111352D01*
X111073Y111436D01*
X111083Y111531D01*
Y109531D01*
D02*
G37*
G36*
X115715Y109175D02*
X115687Y109083D01*
Y108977D01*
X115715Y108857D01*
X115771Y108723D01*
X115856Y108574D01*
X115970Y108412D01*
X116111Y108235D01*
X116479Y107839D01*
X115771Y107132D01*
X115566Y107330D01*
X115199Y107641D01*
X115036Y107754D01*
X114888Y107839D01*
X114753Y107895D01*
X114633Y107924D01*
X114527D01*
X114435Y107895D01*
X114357Y107839D01*
X115771Y109253D01*
X115715Y109175D01*
D02*
G37*
G36*
X142164Y29944D02*
X142571Y29592D01*
X142744Y29469D01*
X142895Y29379D01*
X143026Y29325D01*
X143137Y29305D01*
X143226Y29319D01*
X143295Y29368D01*
X143343Y29452D01*
X142579Y27412D01*
X142606Y27518D01*
X142611Y27631D01*
X142594Y27752D01*
X142555Y27881D01*
X142494Y28019D01*
X142411Y28164D01*
X142306Y28318D01*
X142180Y28479D01*
X142031Y28649D01*
X141860Y28827D01*
X141929Y30171D01*
X142164Y29944D01*
D02*
G37*
G36*
X211604Y154165D02*
X211607Y154135D01*
X211613Y153685D01*
X211614Y153175D01*
X210614D01*
X210609Y153365D01*
X210594Y153535D01*
X210569Y153685D01*
X210534Y153815D01*
X210489Y153925D01*
X210434Y154015D01*
X210369Y154085D01*
X210294Y154135D01*
X210209Y154165D01*
X210114Y154175D01*
X211602D01*
X211604Y154165D01*
D02*
G37*
G36*
X206614D02*
X206529Y154135D01*
X206454Y154085D01*
X206389Y154015D01*
X206334Y153925D01*
X206289Y153815D01*
X206254Y153685D01*
X206229Y153535D01*
X206214Y153365D01*
X206209Y153175D01*
X205209D01*
X205204Y153365D01*
X205189Y153535D01*
X205164Y153685D01*
X205129Y153815D01*
X205084Y153925D01*
X205029Y154015D01*
X204964Y154085D01*
X204889Y154135D01*
X204804Y154165D01*
X204709Y154175D01*
X206709D01*
X206614Y154165D01*
D02*
G37*
G36*
X206212Y139494D02*
X206223Y139380D01*
X206240Y139273D01*
X206265Y139172D01*
X206297Y139078D01*
X206335Y138990D01*
X206381Y138909D01*
X206434Y138834D01*
X206494Y138766D01*
X206561Y138705D01*
X205669Y137795D01*
X204913Y138567D01*
X204969Y138638D01*
X205019Y138715D01*
X205064Y138797D01*
X205102Y138884D01*
X205135Y138977D01*
X205161Y139075D01*
X205182Y139179D01*
X205197Y139288D01*
X205206Y139402D01*
X205209Y139522D01*
X206209Y139615D01*
X206212Y139494D01*
D02*
G37*
G36*
X206561Y136886D02*
X206494Y136824D01*
X206434Y136756D01*
X206381Y136681D01*
X206335Y136600D01*
X206297Y136512D01*
X206265Y136418D01*
X206240Y136317D01*
X206223Y136210D01*
X206212Y136096D01*
X206209Y135976D01*
X205209Y136068D01*
X205206Y136188D01*
X205197Y136303D01*
X205182Y136412D01*
X205161Y136515D01*
X205135Y136613D01*
X205102Y136706D01*
X205064Y136794D01*
X205019Y136876D01*
X204969Y136952D01*
X204913Y137024D01*
X205669Y137795D01*
X206561Y136886D01*
D02*
G37*
G36*
X206214Y91213D02*
X206229Y91041D01*
X206254Y90889D01*
X206289Y90758D01*
X206334Y90646D01*
X206389Y90555D01*
X206454Y90484D01*
X206529Y90434D01*
X206614Y90403D01*
X206709Y90393D01*
X204709D01*
X204804Y90403D01*
X204889Y90434D01*
X204964Y90484D01*
X205029Y90555D01*
X205084Y90646D01*
X205129Y90758D01*
X205164Y90889D01*
X205189Y91041D01*
X205204Y91213D01*
X205209Y91405D01*
X206209D01*
X206214Y91213D01*
D02*
G37*
G36*
X219837Y90405D02*
X219638Y90199D01*
X219324Y89830D01*
X219210Y89667D01*
X219124Y89518D01*
X219066Y89384D01*
X219037Y89264D01*
X219035Y89159D01*
X219062Y89068D01*
X219118Y88991D01*
X217716Y90393D01*
X217792Y90338D01*
X217883Y90311D01*
X217989Y90312D01*
X218109Y90342D01*
X218243Y90399D01*
X218391Y90485D01*
X218554Y90600D01*
X218732Y90742D01*
X219130Y91112D01*
X219837Y90405D01*
D02*
G37*
G36*
X96863Y141122D02*
X96239Y140418D01*
X95986Y140089D01*
X95771Y139775D01*
X95596Y139476D01*
X95459Y139192D01*
X95362Y138924D01*
X95303Y138670D01*
X95284Y138432D01*
X94283D01*
X94264Y138670D01*
X94205Y138924D01*
X94108Y139192D01*
X93972Y139476D01*
X93796Y139775D01*
X93581Y140089D01*
X93328Y140418D01*
X92704Y141122D01*
X92334Y141497D01*
X97233D01*
X96863Y141122D01*
D02*
G37*
G36*
X53875Y92637D02*
X53793Y92549D01*
X53719Y92462D01*
X53654Y92374D01*
X53597Y92285D01*
X53550Y92196D01*
X53512Y92106D01*
X53482Y92017D01*
X53461Y91926D01*
X53448Y91835D01*
X53445Y91744D01*
X52276Y92913D01*
X52367Y92917D01*
X52458Y92929D01*
X52548Y92950D01*
X52638Y92980D01*
X52728Y93019D01*
X52816Y93066D01*
X52905Y93122D01*
X52993Y93187D01*
X53081Y93261D01*
X53168Y93344D01*
X53875Y92637D01*
D02*
G37*
G36*
X105689Y140498D02*
X105604Y140468D01*
X105528Y140418D01*
X105464Y140348D01*
X105409Y140258D01*
X105364Y140148D01*
X105329Y140018D01*
X105304Y139868D01*
X105289Y139698D01*
X105283Y139508D01*
X104283D01*
X104279Y139698D01*
X104263Y139868D01*
X104238Y140018D01*
X104203Y140148D01*
X104158Y140258D01*
X104104Y140348D01*
X104039Y140418D01*
X103963Y140468D01*
X103878Y140498D01*
X103784Y140508D01*
X105783D01*
X105689Y140498D01*
D02*
G37*
G36*
X49237Y88516D02*
X49310Y88461D01*
X49389Y88412D01*
X49474Y88369D01*
X49564Y88333D01*
X49661Y88304D01*
X49763Y88281D01*
X49871Y88265D01*
X49985Y88255D01*
X50106Y88252D01*
Y87252D01*
X49985Y87248D01*
X49871Y87239D01*
X49763Y87222D01*
X49661Y87199D01*
X49564Y87170D01*
X49474Y87134D01*
X49389Y87092D01*
X49310Y87043D01*
X49237Y86987D01*
X49170Y86925D01*
Y88578D01*
X49237Y88516D01*
D02*
G37*
G36*
X123780Y112627D02*
X123840Y112457D01*
X123941Y112307D01*
X124081Y112177D01*
X124262Y112067D01*
X124484Y111977D01*
X124745Y111907D01*
X125047Y111857D01*
X125389Y111827D01*
X125771Y111817D01*
Y109817D01*
X125389Y109807D01*
X125047Y109777D01*
X124745Y109727D01*
X124484Y109657D01*
X124262Y109567D01*
X124081Y109457D01*
X123941Y109327D01*
X123840Y109177D01*
X123780Y109007D01*
X123759Y108817D01*
Y112817D01*
X123780Y112627D01*
D02*
G37*
G36*
X203272Y78055D02*
X203252Y78245D01*
X203192Y78415D01*
X203092Y78565D01*
X202952Y78695D01*
X202772Y78805D01*
X202552Y78895D01*
X202292Y78965D01*
X201992Y79015D01*
X201652Y79045D01*
X201319Y79054D01*
X200984Y79045D01*
X200642Y79015D01*
X200340Y78965D01*
X200078Y78895D01*
X199857Y78805D01*
X199676Y78695D01*
X199535Y78565D01*
X199434Y78415D01*
X199374Y78245D01*
X199354Y78055D01*
Y82055D01*
X199374Y81865D01*
X199434Y81695D01*
X199535Y81545D01*
X199676Y81415D01*
X199857Y81305D01*
X200078Y81215D01*
X200340Y81145D01*
X200642Y81095D01*
X200984Y81065D01*
X201319Y81056D01*
X201652Y81065D01*
X201992Y81095D01*
X202292Y81145D01*
X202552Y81215D01*
X202772Y81305D01*
X202952Y81415D01*
X203092Y81545D01*
X203192Y81695D01*
X203252Y81865D01*
X203272Y82055D01*
Y78055D01*
D02*
G37*
G36*
X183508D02*
X183488Y78245D01*
X183428Y78415D01*
X183328Y78565D01*
X183188Y78695D01*
X183008Y78805D01*
X182788Y78895D01*
X182528Y78965D01*
X182228Y79015D01*
X181888Y79045D01*
X181555Y79054D01*
X181220Y79045D01*
X180878Y79015D01*
X180576Y78965D01*
X180315Y78895D01*
X180093Y78805D01*
X179912Y78695D01*
X179771Y78565D01*
X179671Y78415D01*
X179610Y78245D01*
X179590Y78055D01*
Y82055D01*
X179610Y81865D01*
X179671Y81695D01*
X179771Y81545D01*
X179912Y81415D01*
X180093Y81305D01*
X180315Y81215D01*
X180576Y81145D01*
X180878Y81095D01*
X181220Y81065D01*
X181555Y81056D01*
X181888Y81065D01*
X182228Y81095D01*
X182528Y81145D01*
X182788Y81215D01*
X183008Y81305D01*
X183188Y81415D01*
X183328Y81545D01*
X183428Y81695D01*
X183488Y81865D01*
X183508Y82055D01*
Y78055D01*
D02*
G37*
G36*
X213154D02*
X213134Y78245D01*
X213074Y78415D01*
X212974Y78565D01*
X212834Y78695D01*
X212654Y78805D01*
X212434Y78895D01*
X212174Y78965D01*
X211874Y79015D01*
X211534Y79045D01*
X211201Y79054D01*
X210865Y79045D01*
X210524Y79015D01*
X210222Y78965D01*
X209960Y78895D01*
X209739Y78805D01*
X209558Y78695D01*
X209417Y78565D01*
X209316Y78415D01*
X209256Y78245D01*
X209236Y78055D01*
Y82055D01*
X209256Y81865D01*
X209316Y81695D01*
X209417Y81545D01*
X209558Y81415D01*
X209739Y81305D01*
X209960Y81215D01*
X210222Y81145D01*
X210524Y81095D01*
X210865Y81065D01*
X211201Y81056D01*
X211534Y81065D01*
X211874Y81095D01*
X212174Y81145D01*
X212434Y81215D01*
X212654Y81305D01*
X212834Y81415D01*
X212974Y81545D01*
X213074Y81695D01*
X213134Y81865D01*
X213154Y82055D01*
Y78055D01*
D02*
G37*
G36*
X193390D02*
X193370Y78245D01*
X193310Y78415D01*
X193210Y78565D01*
X193070Y78695D01*
X192890Y78805D01*
X192670Y78895D01*
X192410Y78965D01*
X192110Y79015D01*
X191770Y79045D01*
X191437Y79054D01*
X191102Y79045D01*
X190760Y79015D01*
X190458Y78965D01*
X190196Y78895D01*
X189975Y78805D01*
X189794Y78695D01*
X189653Y78565D01*
X189552Y78415D01*
X189492Y78245D01*
X189472Y78055D01*
Y82055D01*
X189492Y81865D01*
X189552Y81695D01*
X189653Y81545D01*
X189794Y81415D01*
X189975Y81305D01*
X190196Y81215D01*
X190458Y81145D01*
X190760Y81095D01*
X191102Y81065D01*
X191437Y81056D01*
X191770Y81065D01*
X192110Y81095D01*
X192410Y81145D01*
X192670Y81215D01*
X192890Y81305D01*
X193070Y81415D01*
X193210Y81545D01*
X193310Y81695D01*
X193370Y81865D01*
X193390Y82055D01*
Y78055D01*
D02*
G37*
G36*
X173626D02*
X173606Y78245D01*
X173546Y78415D01*
X173446Y78565D01*
X173306Y78695D01*
X173126Y78805D01*
X172906Y78895D01*
X172646Y78965D01*
X172346Y79015D01*
X172006Y79045D01*
X171673Y79054D01*
X171338Y79045D01*
X170996Y79015D01*
X170694Y78965D01*
X170433Y78895D01*
X170211Y78805D01*
X170030Y78695D01*
X169889Y78565D01*
X169789Y78415D01*
X169728Y78245D01*
X169708Y78055D01*
Y82055D01*
X169728Y81865D01*
X169789Y81695D01*
X169889Y81545D01*
X170030Y81415D01*
X170211Y81305D01*
X170433Y81215D01*
X170694Y81145D01*
X170996Y81095D01*
X171338Y81065D01*
X171673Y81056D01*
X172006Y81065D01*
X172346Y81095D01*
X172646Y81145D01*
X172906Y81215D01*
X173126Y81305D01*
X173306Y81415D01*
X173446Y81545D01*
X173546Y81695D01*
X173606Y81865D01*
X173626Y82055D01*
Y78055D01*
D02*
G37*
G36*
X219138Y82026D02*
X219198Y81857D01*
X219299Y81707D01*
X219440Y81577D01*
X219621Y81467D01*
X219842Y81376D01*
X220104Y81306D01*
X220405Y81257D01*
X220747Y81226D01*
X221130Y81217D01*
Y79216D01*
X220747Y79207D01*
X220405Y79176D01*
X220104Y79127D01*
X219842Y79057D01*
X219621Y78966D01*
X219440Y78856D01*
X219299Y78727D01*
X219198Y78576D01*
X219138Y78407D01*
X219118Y78216D01*
Y82217D01*
X219138Y82026D01*
D02*
G37*
G36*
X162850Y83362D02*
X163667Y82658D01*
X164013Y82411D01*
X164317Y82235D01*
X164578Y82128D01*
X164798Y82092D01*
X164976Y82126D01*
X165112Y82231D01*
X165207Y82405D01*
X164387Y80055D01*
X165207Y77705D01*
X165112Y77880D01*
X164976Y77984D01*
X164798Y78018D01*
X164578Y77982D01*
X164317Y77876D01*
X164013Y77699D01*
X163667Y77452D01*
X163279Y77135D01*
X162378Y76291D01*
X162330Y79071D01*
X162665Y79420D01*
X163190Y80056D01*
X162956Y80357D01*
X162665Y80690D01*
X162330Y81039D01*
X162378Y83820D01*
X162850Y83362D01*
D02*
G37*
G36*
X183737Y67889D02*
X183682Y67816D01*
X183633Y67737D01*
X183590Y67652D01*
X183554Y67562D01*
X183525Y67465D01*
X183502Y67363D01*
X183485Y67255D01*
X183476Y67141D01*
X183472Y67020D01*
X182472D01*
X182469Y67141D01*
X182459Y67255D01*
X182443Y67363D01*
X182420Y67465D01*
X182391Y67562D01*
X182355Y67652D01*
X182312Y67737D01*
X182263Y67816D01*
X182208Y67889D01*
X182146Y67956D01*
X183799D01*
X183737Y67889D01*
D02*
G37*
G36*
X160754Y55712D02*
X160784Y55370D01*
X160834Y55068D01*
X160904Y54807D01*
X160994Y54585D01*
X161104Y54404D01*
X161234Y54263D01*
X161384Y54163D01*
X161554Y54102D01*
X161744Y54082D01*
X157744D01*
X157934Y54102D01*
X158104Y54163D01*
X158254Y54263D01*
X158384Y54404D01*
X158494Y54585D01*
X158584Y54807D01*
X158654Y55068D01*
X158704Y55370D01*
X158734Y55712D01*
X158744Y56094D01*
X160744D01*
X160754Y55712D01*
D02*
G37*
G36*
X169699Y50110D02*
X169679Y50187D01*
X169619Y50255D01*
X169519Y50315D01*
X169379Y50367D01*
X169199Y50411D01*
X168979Y50448D01*
X168719Y50476D01*
X168079Y50508D01*
X167699Y50512D01*
Y52512D01*
X168079Y52515D01*
X169199Y52594D01*
X169379Y52631D01*
X169519Y52674D01*
X169619Y52723D01*
X169679Y52780D01*
X169699Y52842D01*
Y50110D01*
D02*
G37*
G36*
X162693Y53322D02*
X162753Y53152D01*
X162854Y53002D01*
X162995Y52872D01*
X163176Y52762D01*
X163397Y52672D01*
X163659Y52602D01*
X163961Y52552D01*
X164303Y52522D01*
X164685Y52512D01*
Y50512D01*
X164303Y50502D01*
X163961Y50472D01*
X163659Y50422D01*
X163397Y50352D01*
X163176Y50262D01*
X162995Y50152D01*
X162854Y50022D01*
X162753Y49872D01*
X162693Y49702D01*
X162673Y49512D01*
Y53512D01*
X162693Y53322D01*
D02*
G37*
G36*
X156803Y49000D02*
X156783Y49142D01*
X156723Y49269D01*
X156623Y49382D01*
X156483Y49479D01*
X156303Y49561D01*
X156083Y49628D01*
X155823Y49681D01*
X155523Y49718D01*
X155183Y49741D01*
X154803Y49748D01*
Y51748D01*
X155185Y51758D01*
X155527Y51788D01*
X155828Y51838D01*
X156089Y51908D01*
X156311Y51998D01*
X156492Y52108D01*
X156633Y52238D01*
X156734Y52388D01*
X156795Y52558D01*
X156815Y52748D01*
X156803Y49000D01*
D02*
G37*
G36*
X154055Y49748D02*
X153673Y49738D01*
X153332Y49708D01*
X153031Y49658D01*
X152769Y49588D01*
X152548Y49498D01*
X152367Y49388D01*
X152226Y49258D01*
X152125Y49108D01*
X152064Y48938D01*
X152043Y48748D01*
X152055Y51736D01*
X152075Y51738D01*
X152135Y51740D01*
X154055Y51748D01*
Y49748D01*
D02*
G37*
G36*
X177961Y47842D02*
X177762Y47636D01*
X177448Y47267D01*
X177334Y47104D01*
X177248Y46955D01*
X177190Y46821D01*
X177161Y46701D01*
X177159Y46596D01*
X177186Y46505D01*
X177242Y46428D01*
X175839Y47830D01*
X175916Y47775D01*
X176007Y47748D01*
X176113Y47749D01*
X176233Y47779D01*
X176367Y47836D01*
X176515Y47922D01*
X176679Y48037D01*
X176856Y48179D01*
X177254Y48549D01*
X177961Y47842D01*
D02*
G37*
G36*
X111847Y76675D02*
X111799Y76758D01*
X111730Y76808D01*
X111641Y76822D01*
X111530Y76802D01*
X111399Y76748D01*
X111247Y76658D01*
X111075Y76535D01*
X110882Y76376D01*
X110433Y75955D01*
X110364Y77300D01*
X110535Y77478D01*
X110810Y77809D01*
X110915Y77963D01*
X110998Y78108D01*
X111059Y78246D01*
X111098Y78375D01*
X111115Y78496D01*
X111110Y78609D01*
X111083Y78715D01*
X111847Y76675D01*
D02*
G37*
G36*
X114783Y76653D02*
X114698Y76623D01*
X114623Y76573D01*
X114558Y76503D01*
X114503Y76413D01*
X114458Y76303D01*
X114423Y76173D01*
X114398Y76023D01*
X114383Y75853D01*
X114378Y75663D01*
X113378D01*
X113373Y75853D01*
X113358Y76023D01*
X113333Y76173D01*
X113298Y76303D01*
X113253Y76413D01*
X113198Y76503D01*
X113133Y76573D01*
X113058Y76623D01*
X112973Y76653D01*
X112878Y76663D01*
X114878D01*
X114783Y76653D01*
D02*
G37*
G36*
X51107Y76454D02*
X51180Y76398D01*
X51259Y76349D01*
X51344Y76307D01*
X51434Y76271D01*
X51531Y76241D01*
X51633Y76218D01*
X51741Y76202D01*
X51855Y76192D01*
X51976Y76189D01*
Y75189D01*
X51855Y75186D01*
X51741Y75176D01*
X51633Y75160D01*
X51531Y75137D01*
X51434Y75107D01*
X51344Y75071D01*
X51259Y75029D01*
X51180Y74980D01*
X51107Y74924D01*
X51040Y74862D01*
Y76516D01*
X51107Y76454D01*
D02*
G37*
G36*
X114381Y73509D02*
X114391Y73395D01*
X114407Y73287D01*
X114430Y73184D01*
X114460Y73088D01*
X114496Y72997D01*
X114538Y72913D01*
X114587Y72834D01*
X114643Y72761D01*
X114705Y72694D01*
X113051D01*
X113113Y72761D01*
X113169Y72834D01*
X113218Y72913D01*
X113260Y72997D01*
X113296Y73088D01*
X113326Y73184D01*
X113348Y73287D01*
X113365Y73395D01*
X113375Y73509D01*
X113378Y73629D01*
X114378D01*
X114381Y73509D01*
D02*
G37*
G36*
X106029Y62773D02*
X106102Y62717D01*
X106180Y62668D01*
X106265Y62625D01*
X106356Y62590D01*
X106452Y62560D01*
X106554Y62537D01*
X106663Y62521D01*
X106777Y62511D01*
X106897Y62508D01*
Y61508D01*
X106777Y61505D01*
X106663Y61495D01*
X106554Y61479D01*
X106452Y61456D01*
X106356Y61426D01*
X106265Y61390D01*
X106180Y61348D01*
X106102Y61299D01*
X106029Y61243D01*
X105962Y61181D01*
Y62835D01*
X106029Y62773D01*
D02*
G37*
G36*
X110886Y61008D02*
X110876Y61103D01*
X110846Y61188D01*
X110795Y61263D01*
X110724Y61328D01*
X110633Y61383D01*
X110522Y61428D01*
X110390Y61463D01*
X110239Y61488D01*
X110066Y61503D01*
X109874Y61508D01*
Y62508D01*
X110066Y62513D01*
X110239Y62528D01*
X110390Y62553D01*
X110522Y62588D01*
X110633Y62633D01*
X110724Y62688D01*
X110795Y62753D01*
X110846Y62828D01*
X110876Y62913D01*
X110886Y63008D01*
Y61008D01*
D02*
G37*
G36*
X173796Y60999D02*
X173741Y60926D01*
X173692Y60847D01*
X173649Y60763D01*
X173613Y60672D01*
X173584Y60575D01*
X173561Y60473D01*
X173545Y60365D01*
X173535Y60251D01*
X173531Y60131D01*
X172531D01*
X172528Y60251D01*
X172518Y60365D01*
X172502Y60473D01*
X172479Y60575D01*
X172450Y60672D01*
X172414Y60763D01*
X172371Y60847D01*
X172322Y60926D01*
X172267Y60999D01*
X172205Y61066D01*
X173858D01*
X173796Y60999D01*
D02*
G37*
G36*
X173537Y58650D02*
X173551Y58478D01*
X173576Y58326D01*
X173611Y58195D01*
X173656Y58083D01*
X173712Y57992D01*
X173776Y57921D01*
X173852Y57871D01*
X173936Y57840D01*
X174031Y57830D01*
X172031D01*
X172126Y57840D01*
X172212Y57871D01*
X172286Y57921D01*
X172352Y57992D01*
X172406Y58083D01*
X172451Y58195D01*
X172486Y58326D01*
X172511Y58478D01*
X172527Y58650D01*
X172531Y58842D01*
X173531D01*
X173537Y58650D01*
D02*
G37*
G36*
X218743Y55472D02*
X218676Y55534D01*
X218603Y55590D01*
X218524Y55639D01*
X218440Y55682D01*
X218349Y55717D01*
X218253Y55747D01*
X218150Y55770D01*
X218042Y55786D01*
X217928Y55796D01*
X217808Y55799D01*
Y56799D01*
X217928Y56802D01*
X218042Y56812D01*
X218150Y56829D01*
X218253Y56852D01*
X218349Y56881D01*
X218440Y56917D01*
X218524Y56959D01*
X218603Y57008D01*
X218676Y57064D01*
X218743Y57126D01*
Y55472D01*
D02*
G37*
G36*
X214354Y57204D02*
X214385Y57119D01*
X214435Y57044D01*
X214506Y56979D01*
X214597Y56924D01*
X214708Y56879D01*
X214840Y56844D01*
X214992Y56819D01*
X215164Y56804D01*
X215356Y56799D01*
Y55799D01*
X215164Y55794D01*
X214992Y55779D01*
X214840Y55754D01*
X214708Y55719D01*
X214597Y55674D01*
X214506Y55619D01*
X214435Y55554D01*
X214385Y55479D01*
X214354Y55394D01*
X214344Y55299D01*
Y57299D01*
X214354Y57204D01*
D02*
G37*
G36*
X201698Y51946D02*
X201771Y51890D01*
X201850Y51841D01*
X201934Y51799D01*
X202025Y51763D01*
X202121Y51733D01*
X202224Y51710D01*
X202332Y51694D01*
X202446Y51684D01*
X202566Y51681D01*
Y50681D01*
X202446Y50678D01*
X202332Y50668D01*
X202224Y50652D01*
X202121Y50629D01*
X202025Y50599D01*
X201934Y50564D01*
X201850Y50521D01*
X201771Y50472D01*
X201698Y50416D01*
X201631Y50354D01*
Y52008D01*
X201698Y51946D01*
D02*
G37*
G36*
X221179Y50305D02*
X221124Y50375D01*
X221061Y50438D01*
X220991Y50494D01*
X220913Y50542D01*
X220829Y50583D01*
X220737Y50616D01*
X220638Y50642D01*
X220531Y50661D01*
X220418Y50672D01*
X220297Y50676D01*
X220479Y51676D01*
X220599Y51678D01*
X220823Y51699D01*
X220928Y51717D01*
X221027Y51741D01*
X221121Y51770D01*
X221211Y51803D01*
X221295Y51843D01*
X221374Y51887D01*
X221447Y51937D01*
X221179Y50305D01*
D02*
G37*
G36*
X206813Y50181D02*
X206803Y50276D01*
X206773Y50361D01*
X206722Y50436D01*
X206651Y50501D01*
X206560Y50556D01*
X206449Y50601D01*
X206317Y50636D01*
X206166Y50661D01*
X205994Y50676D01*
X205801Y50681D01*
Y51681D01*
X205994Y51686D01*
X206166Y51701D01*
X206317Y51726D01*
X206449Y51761D01*
X206560Y51806D01*
X206651Y51861D01*
X206722Y51926D01*
X206773Y52001D01*
X206803Y52086D01*
X206813Y52181D01*
Y50181D01*
D02*
G37*
G36*
X214354Y52081D02*
X214385Y51996D01*
X214435Y51921D01*
X214506Y51856D01*
X214597Y51801D01*
X214708Y51756D01*
X214840Y51721D01*
X214992Y51696D01*
X215164Y51681D01*
X215356Y51676D01*
Y50676D01*
X215164Y50671D01*
X214992Y50656D01*
X214840Y50631D01*
X214708Y50596D01*
X214597Y50551D01*
X214506Y50496D01*
X214435Y50431D01*
X214385Y50356D01*
X214354Y50271D01*
X214344Y50176D01*
Y52176D01*
X214354Y52081D01*
D02*
G37*
G36*
X93189Y47363D02*
X93268Y47319D01*
X93352Y47280D01*
X93441Y47247D01*
X93536Y47218D01*
X93635Y47195D01*
X93739Y47177D01*
X93849Y47164D01*
X94083Y47153D01*
X94271Y46154D01*
X94151Y46150D01*
X94037Y46139D01*
X93931Y46120D01*
X93832Y46094D01*
X93740Y46061D01*
X93656Y46020D01*
X93579Y45972D01*
X93509Y45916D01*
X93446Y45853D01*
X93391Y45782D01*
X93115Y47412D01*
X93189Y47363D01*
D02*
G37*
G36*
X98386Y45654D02*
X98376Y45748D01*
X98346Y45834D01*
X98295Y45908D01*
X98224Y45974D01*
X98133Y46029D01*
X98022Y46073D01*
X97890Y46108D01*
X97738Y46134D01*
X97566Y46148D01*
X97374Y46154D01*
Y47153D01*
X97566Y47159D01*
X97738Y47174D01*
X97890Y47199D01*
X98022Y47234D01*
X98133Y47278D01*
X98224Y47333D01*
X98295Y47398D01*
X98346Y47473D01*
X98376Y47559D01*
X98386Y47653D01*
Y45654D01*
D02*
G37*
G36*
X36110Y118807D02*
X36140Y118465D01*
X36190Y118163D01*
X36260Y117902D01*
X36350Y117681D01*
X36460Y117499D01*
X36590Y117359D01*
X36740Y117258D01*
X36910Y117198D01*
X37100Y117178D01*
X33100D01*
X33290Y117198D01*
X33460Y117258D01*
X33610Y117359D01*
X33740Y117499D01*
X33850Y117681D01*
X33940Y117902D01*
X34010Y118163D01*
X34060Y118465D01*
X34090Y118807D01*
X34100Y119190D01*
X36100D01*
X36110Y118807D01*
D02*
G37*
G36*
X36910Y111194D02*
X36740Y111134D01*
X36590Y111034D01*
X36460Y110894D01*
X36350Y110714D01*
X36260Y110494D01*
X36190Y110234D01*
X36140Y109934D01*
X36110Y109594D01*
X36100Y109214D01*
X34100D01*
X34090Y109594D01*
X34060Y109934D01*
X34010Y110234D01*
X33940Y110494D01*
X33850Y110714D01*
X33740Y110894D01*
X33610Y111034D01*
X33460Y111134D01*
X33290Y111194D01*
X33100Y111214D01*
X37100D01*
X36910Y111194D01*
D02*
G37*
G36*
X123231Y87100D02*
X123061Y87040D01*
X122911Y86940D01*
X122781Y86800D01*
X122671Y86620D01*
X122581Y86400D01*
X122511Y86140D01*
X122461Y85840D01*
X122431Y85500D01*
X122421Y85120D01*
X120421D01*
X120411Y85500D01*
X120381Y85840D01*
X120331Y86140D01*
X120261Y86400D01*
X120171Y86620D01*
X120061Y86800D01*
X119931Y86940D01*
X119781Y87040D01*
X119611Y87100D01*
X119421Y87120D01*
X123421D01*
X123231Y87100D01*
D02*
G37*
G36*
X122431Y84256D02*
X122461Y83914D01*
X122511Y83613D01*
X122581Y83351D01*
X122671Y83130D01*
X122781Y82948D01*
X122911Y82808D01*
X123061Y82707D01*
X123231Y82647D01*
X123421Y82627D01*
X119421D01*
X119611Y82647D01*
X119781Y82707D01*
X119931Y82808D01*
X120061Y82948D01*
X120171Y83130D01*
X120261Y83351D01*
X120331Y83613D01*
X120381Y83914D01*
X120411Y84256D01*
X120421Y84639D01*
X122421D01*
X122431Y84256D01*
D02*
G37*
G36*
X123231Y76643D02*
X123061Y76583D01*
X122911Y76483D01*
X122781Y76343D01*
X122671Y76163D01*
X122581Y75943D01*
X122511Y75683D01*
X122461Y75383D01*
X122431Y75043D01*
X122421Y74663D01*
X120421D01*
X120411Y75043D01*
X120381Y75383D01*
X120331Y75683D01*
X120261Y75943D01*
X120171Y76163D01*
X120061Y76343D01*
X119931Y76483D01*
X119781Y76583D01*
X119611Y76643D01*
X119421Y76663D01*
X123421D01*
X123231Y76643D01*
D02*
G37*
G36*
X122431Y66515D02*
X122461Y66173D01*
X122511Y65871D01*
X122581Y65610D01*
X122671Y65388D01*
X122781Y65207D01*
X122911Y65066D01*
X123061Y64966D01*
X123231Y64906D01*
X123421Y64885D01*
X119421D01*
X119611Y64906D01*
X119781Y64966D01*
X119931Y65066D01*
X120061Y65207D01*
X120171Y65388D01*
X120261Y65610D01*
X120331Y65871D01*
X120381Y66173D01*
X120411Y66515D01*
X120421Y66897D01*
X122421D01*
X122431Y66515D01*
D02*
G37*
G36*
X58623Y61519D02*
X59384Y60871D01*
X59715Y60637D01*
X60014Y60465D01*
X60281Y60352D01*
X60515Y60300D01*
X60717Y60309D01*
X60886Y60378D01*
X61023Y60508D01*
X58600Y57297D01*
X58694Y57469D01*
X58736Y57666D01*
X58725Y57888D01*
X58661Y58134D01*
X58545Y58404D01*
X58376Y58699D01*
X58155Y59019D01*
X57880Y59363D01*
X57553Y59732D01*
X57174Y60126D01*
X58194Y61934D01*
X58623Y61519D01*
D02*
G37*
G36*
X123323Y58900D02*
X123054Y58837D01*
X122766Y58731D01*
X122460Y58582D01*
X122136Y58391D01*
X121793Y58158D01*
X121433Y57882D01*
X120657Y57203D01*
X120242Y56800D01*
X118121Y57507D01*
X118383Y57776D01*
X118920Y58412D01*
X119016Y58568D01*
X119071Y58695D01*
X119084Y58794D01*
X119055Y58865D01*
X118986Y58907D01*
X118874Y58921D01*
X123575D01*
X123323Y58900D01*
D02*
G37*
G36*
X62945Y54630D02*
X62775Y54570D01*
X62625Y54469D01*
X62495Y54328D01*
X62385Y54147D01*
X62295Y53926D01*
X62225Y53664D01*
X62175Y53362D01*
X62145Y53020D01*
X62135Y52638D01*
X60135D01*
X60125Y53020D01*
X60095Y53362D01*
X60045Y53664D01*
X59975Y53926D01*
X59885Y54147D01*
X59775Y54328D01*
X59645Y54469D01*
X59495Y54570D01*
X59325Y54630D01*
X59135Y54650D01*
X63135D01*
X62945Y54630D01*
D02*
G37*
G36*
X62145Y51744D02*
X62175Y51402D01*
X62225Y51100D01*
X62295Y50838D01*
X62385Y50617D01*
X62495Y50436D01*
X62625Y50295D01*
X62775Y50194D01*
X62945Y50134D01*
X63135Y50114D01*
X59135D01*
X59325Y50134D01*
X59495Y50194D01*
X59645Y50295D01*
X59775Y50436D01*
X59885Y50617D01*
X59975Y50838D01*
X60045Y51100D01*
X60095Y51402D01*
X60125Y51744D01*
X60135Y52126D01*
X62135D01*
X62145Y51744D01*
D02*
G37*
G36*
X64181Y50112D02*
X64241Y50100D01*
X64341Y50090D01*
X64661Y50073D01*
X66161Y50055D01*
Y48055D01*
X64161Y47984D01*
Y50126D01*
X64181Y50112D01*
D02*
G37*
G36*
X63030Y47964D02*
X62861Y47904D01*
X62710Y47804D01*
X62581Y47664D01*
X62471Y47484D01*
X62380Y47264D01*
X62310Y47004D01*
X62261Y46704D01*
X62247Y46553D01*
X62261Y46402D01*
X62310Y46100D01*
X62380Y45838D01*
X62471Y45617D01*
X62581Y45436D01*
X62710Y45295D01*
X62861Y45194D01*
X63030Y45134D01*
X63221Y45114D01*
X59220D01*
X59411Y45134D01*
X59580Y45194D01*
X59730Y45295D01*
X59860Y45436D01*
X59970Y45617D01*
X60061Y45838D01*
X60131Y46100D01*
X60180Y46402D01*
X60194Y46553D01*
X60180Y46704D01*
X60131Y47004D01*
X60061Y47264D01*
X59970Y47484D01*
X59860Y47664D01*
X59730Y47804D01*
X59580Y47904D01*
X59411Y47964D01*
X59220Y47984D01*
X63221D01*
X63030Y47964D01*
D02*
G37*
G36*
X28717Y86608D02*
X28662Y86536D01*
X28613Y86457D01*
X28570Y86372D01*
X28534Y86282D01*
X28505Y86185D01*
X28482Y86083D01*
X28466Y85974D01*
X28456Y85860D01*
X28453Y85740D01*
X27453D01*
X27450Y85860D01*
X27440Y85974D01*
X27423Y86083D01*
X27400Y86185D01*
X27371Y86282D01*
X27335Y86372D01*
X27293Y86457D01*
X27244Y86536D01*
X27188Y86608D01*
X27126Y86675D01*
X28780D01*
X28717Y86608D01*
D02*
G37*
G36*
X35324Y52936D02*
X35329Y52845D01*
X35343Y52755D01*
X35368Y52666D01*
X35402Y52576D01*
X35446Y52487D01*
X35499Y52399D01*
X35563Y52310D01*
X35635Y52222D01*
X35718Y52135D01*
X34937Y51502D01*
X34850Y51584D01*
X34676Y51726D01*
X34588Y51785D01*
X34500Y51836D01*
X34411Y51879D01*
X34322Y51914D01*
X34233Y51942D01*
X34144Y51961D01*
X34054Y51973D01*
X35328Y53026D01*
X35324Y52936D01*
D02*
G37*
G36*
X37226Y50634D02*
X37595Y50320D01*
X37758Y50206D01*
X37907Y50120D01*
X38041Y50062D01*
X38161Y50033D01*
X38266Y50031D01*
X38357Y50058D01*
X38434Y50114D01*
X37032Y48712D01*
X37087Y48788D01*
X37114Y48879D01*
X37113Y48985D01*
X37084Y49105D01*
X37026Y49239D01*
X36940Y49387D01*
X36825Y49551D01*
X36683Y49728D01*
X36313Y50126D01*
X37020Y50833D01*
X37226Y50634D01*
D02*
G37*
G36*
X42900Y49960D02*
X42930Y49875D01*
X42981Y49800D01*
X43051Y49735D01*
X43142Y49680D01*
X43254Y49635D01*
X43385Y49600D01*
X43537Y49575D01*
X43709Y49560D01*
X43901Y49555D01*
Y48555D01*
X43709Y48550D01*
X43537Y48535D01*
X43385Y48510D01*
X43254Y48475D01*
X43142Y48430D01*
X43051Y48375D01*
X42981Y48310D01*
X42930Y48235D01*
X42900Y48150D01*
X42889Y48055D01*
Y50055D01*
X42900Y49960D01*
D02*
G37*
G36*
X30647Y47344D02*
X30690Y47272D01*
X30746Y47190D01*
X30895Y47001D01*
X31093Y46776D01*
X31482Y46371D01*
X30845Y45594D01*
X30755Y45678D01*
X30667Y45749D01*
X30581Y45808D01*
X30496Y45854D01*
X30411Y45888D01*
X30329Y45910D01*
X30248Y45919D01*
X30168Y45915D01*
X30089Y45900D01*
X30012Y45871D01*
X30616Y47407D01*
X30647Y47344D01*
D02*
G37*
G36*
X49478Y45328D02*
X49566Y45254D01*
X49654Y45189D01*
X49743Y45133D01*
X49832Y45085D01*
X49921Y45047D01*
X50011Y45017D01*
X50101Y44996D01*
X50192Y44984D01*
X50283Y44980D01*
X49114Y43811D01*
X49111Y43902D01*
X49099Y43993D01*
X49077Y44083D01*
X49048Y44173D01*
X49009Y44263D01*
X48961Y44352D01*
X48905Y44440D01*
X48840Y44529D01*
X48767Y44616D01*
X48684Y44703D01*
X49391Y45410D01*
X49478Y45328D01*
D02*
G37*
G36*
X37226Y45634D02*
X37595Y45320D01*
X37758Y45206D01*
X37907Y45120D01*
X38041Y45062D01*
X38161Y45033D01*
X38266Y45031D01*
X38357Y45058D01*
X38434Y45114D01*
X37032Y43712D01*
X37087Y43788D01*
X37114Y43879D01*
X37113Y43985D01*
X37084Y44105D01*
X37026Y44239D01*
X36940Y44388D01*
X36825Y44550D01*
X36683Y44728D01*
X36313Y45126D01*
X37020Y45833D01*
X37226Y45634D01*
D02*
G37*
G36*
Y40634D02*
X37595Y40320D01*
X37758Y40206D01*
X37907Y40120D01*
X38041Y40062D01*
X38161Y40033D01*
X38266Y40031D01*
X38357Y40058D01*
X38434Y40114D01*
X37032Y38712D01*
X37087Y38788D01*
X37114Y38879D01*
X37113Y38985D01*
X37084Y39105D01*
X37026Y39239D01*
X36940Y39388D01*
X36825Y39551D01*
X36683Y39728D01*
X36313Y40126D01*
X37020Y40833D01*
X37226Y40634D01*
D02*
G37*
G36*
X49531Y38228D02*
X49463Y38290D01*
X49391Y38346D01*
X49312Y38395D01*
X49227Y38438D01*
X49137Y38473D01*
X49040Y38503D01*
X48938Y38526D01*
X48829Y38542D01*
X48715Y38552D01*
X48595Y38555D01*
Y39555D01*
X48715Y39558D01*
X48829Y39568D01*
X48938Y39584D01*
X49040Y39607D01*
X49137Y39637D01*
X49227Y39673D01*
X49312Y39715D01*
X49391Y39764D01*
X49463Y39820D01*
X49531Y39882D01*
Y38228D01*
D02*
G37*
G36*
X42900Y39960D02*
X42930Y39875D01*
X42981Y39800D01*
X43051Y39735D01*
X43142Y39680D01*
X43254Y39635D01*
X43385Y39600D01*
X43537Y39575D01*
X43709Y39560D01*
X43901Y39555D01*
Y38555D01*
X43709Y38550D01*
X43537Y38535D01*
X43385Y38510D01*
X43254Y38475D01*
X43142Y38430D01*
X43051Y38375D01*
X42981Y38310D01*
X42930Y38235D01*
X42900Y38150D01*
X42889Y38055D01*
Y40055D01*
X42900Y39960D01*
D02*
G37*
G36*
X34372Y38931D02*
X34359Y38850D01*
X34358Y38767D01*
X34369Y38684D01*
X34392Y38600D01*
X34427Y38515D01*
X34474Y38428D01*
X34534Y38341D01*
X34605Y38253D01*
X34689Y38164D01*
X33674Y37764D01*
X33587Y37849D01*
X33337Y38067D01*
X33258Y38127D01*
X33105Y38227D01*
X33031Y38268D01*
X32959Y38303D01*
X32890Y38331D01*
X34397Y39011D01*
X34372Y38931D01*
D02*
G37*
G36*
X37226Y35634D02*
X37595Y35320D01*
X37758Y35206D01*
X37907Y35120D01*
X38041Y35062D01*
X38161Y35032D01*
X38266Y35031D01*
X38357Y35058D01*
X38434Y35114D01*
X37032Y33712D01*
X37087Y33788D01*
X37114Y33879D01*
X37113Y33985D01*
X37084Y34105D01*
X37026Y34239D01*
X36940Y34387D01*
X36825Y34550D01*
X36683Y34728D01*
X36313Y35126D01*
X37020Y35833D01*
X37226Y35634D01*
D02*
G37*
G36*
X49550Y33228D02*
X49483Y33290D01*
X49410Y33346D01*
X49332Y33395D01*
X49247Y33437D01*
X49156Y33473D01*
X49060Y33503D01*
X48957Y33526D01*
X48849Y33542D01*
X48735Y33552D01*
X48615Y33555D01*
Y34555D01*
X48735Y34558D01*
X48849Y34568D01*
X48957Y34585D01*
X49060Y34607D01*
X49156Y34637D01*
X49247Y34673D01*
X49332Y34715D01*
X49410Y34764D01*
X49483Y34820D01*
X49550Y34882D01*
Y33228D01*
D02*
G37*
G36*
X42900Y34960D02*
X42930Y34875D01*
X42981Y34800D01*
X43051Y34735D01*
X43142Y34680D01*
X43254Y34635D01*
X43385Y34600D01*
X43537Y34575D01*
X43709Y34560D01*
X43901Y34555D01*
Y33555D01*
X43709Y33550D01*
X43537Y33535D01*
X43385Y33510D01*
X43254Y33475D01*
X43142Y33430D01*
X43051Y33375D01*
X42981Y33310D01*
X42930Y33235D01*
X42900Y33150D01*
X42889Y33055D01*
Y35055D01*
X42900Y34960D01*
D02*
G37*
G36*
X93332Y37576D02*
X93405Y37520D01*
X93483Y37471D01*
X93568Y37429D01*
X93659Y37393D01*
X93755Y37363D01*
X93858Y37340D01*
X93966Y37324D01*
X94080Y37314D01*
X94200Y37311D01*
Y36311D01*
X94080Y36308D01*
X93966Y36298D01*
X93858Y36282D01*
X93755Y36259D01*
X93659Y36229D01*
X93568Y36193D01*
X93483Y36151D01*
X93405Y36102D01*
X93332Y36046D01*
X93265Y35984D01*
Y37638D01*
X93332Y37576D01*
D02*
G37*
G36*
X97796Y35811D02*
X97786Y35906D01*
X97755Y35991D01*
X97705Y36066D01*
X97634Y36131D01*
X97543Y36186D01*
X97431Y36231D01*
X97300Y36266D01*
X97148Y36291D01*
X96976Y36306D01*
X96784Y36311D01*
Y37311D01*
X96976Y37316D01*
X97148Y37331D01*
X97300Y37356D01*
X97431Y37391D01*
X97543Y37436D01*
X97634Y37491D01*
X97705Y37556D01*
X97755Y37631D01*
X97786Y37716D01*
X97796Y37811D01*
Y35811D01*
D02*
G37*
G36*
X25174Y90526D02*
X25119Y90454D01*
X25070Y90375D01*
X25027Y90290D01*
X24991Y90200D01*
X24962Y90103D01*
X24939Y90001D01*
X24923Y89893D01*
X24913Y89778D01*
X24909Y89658D01*
X23910D01*
X23906Y89778D01*
X23896Y89893D01*
X23880Y90001D01*
X23857Y90103D01*
X23828Y90200D01*
X23792Y90290D01*
X23749Y90375D01*
X23700Y90454D01*
X23645Y90526D01*
X23583Y90593D01*
X25236D01*
X25174Y90526D01*
D02*
G37*
G36*
X24913Y36108D02*
X24923Y35993D01*
X24939Y35885D01*
X24962Y35783D01*
X24991Y35686D01*
X25027Y35596D01*
X25070Y35511D01*
X25119Y35432D01*
X25174Y35359D01*
X25236Y35292D01*
X23583D01*
X23645Y35359D01*
X23700Y35432D01*
X23749Y35511D01*
X23792Y35596D01*
X23828Y35686D01*
X23857Y35783D01*
X23880Y35885D01*
X23896Y35993D01*
X23906Y36108D01*
X23910Y36228D01*
X24909D01*
X24913Y36108D01*
D02*
G37*
G36*
X93233Y28324D02*
X93306Y28268D01*
X93385Y28219D01*
X93470Y28177D01*
X93560Y28141D01*
X93657Y28111D01*
X93759Y28089D01*
X93867Y28072D01*
X93981Y28062D01*
X94102Y28059D01*
Y27059D01*
X93981Y27056D01*
X93867Y27046D01*
X93759Y27030D01*
X93657Y27007D01*
X93560Y26977D01*
X93470Y26941D01*
X93385Y26899D01*
X93306Y26850D01*
X93233Y26794D01*
X93166Y26732D01*
Y28386D01*
X93233Y28324D01*
D02*
G37*
G36*
X97599Y26559D02*
X97589Y26654D01*
X97558Y26739D01*
X97508Y26814D01*
X97437Y26879D01*
X97346Y26934D01*
X97234Y26979D01*
X97103Y27014D01*
X96951Y27039D01*
X96779Y27054D01*
X96587Y27059D01*
Y28059D01*
X96779Y28064D01*
X96951Y28079D01*
X97103Y28104D01*
X97234Y28139D01*
X97346Y28184D01*
X97437Y28239D01*
X97508Y28304D01*
X97558Y28379D01*
X97589Y28464D01*
X97599Y28559D01*
Y26559D01*
D02*
G37*
G36*
X58292Y28055D02*
X58282Y28150D01*
X58251Y28235D01*
X58201Y28310D01*
X58130Y28375D01*
X58039Y28430D01*
X57927Y28475D01*
X57796Y28510D01*
X57644Y28535D01*
X57472Y28550D01*
X57280Y28555D01*
Y29555D01*
X57472Y29560D01*
X57644Y29575D01*
X57796Y29600D01*
X57927Y29635D01*
X58039Y29680D01*
X58130Y29735D01*
X58201Y29800D01*
X58251Y29875D01*
X58282Y29960D01*
X58292Y30055D01*
Y28055D01*
D02*
G37*
G36*
X64106Y29585D02*
X64089Y29485D01*
X64097Y29372D01*
X64130Y29248D01*
X64189Y29113D01*
X64274Y28965D01*
X64384Y28807D01*
X64520Y28636D01*
X64868Y28260D01*
X64437Y27277D01*
X64218Y27489D01*
X63833Y27819D01*
X63666Y27937D01*
X63516Y28025D01*
X63383Y28081D01*
X63267Y28106D01*
X63169Y28101D01*
X63087Y28064D01*
X63023Y27996D01*
X64149Y29674D01*
X64106Y29585D01*
D02*
G37*
G36*
X48794Y27635D02*
X48867Y27579D01*
X48946Y27530D01*
X49031Y27488D01*
X49121Y27452D01*
X49218Y27422D01*
X49320Y27400D01*
X49428Y27383D01*
X49542Y27373D01*
X49662Y27370D01*
Y26370D01*
X49542Y26367D01*
X49428Y26357D01*
X49320Y26341D01*
X49218Y26318D01*
X49121Y26288D01*
X49031Y26252D01*
X48946Y26210D01*
X48867Y26161D01*
X48794Y26105D01*
X48727Y26043D01*
Y27697D01*
X48794Y27635D01*
D02*
G37*
G36*
X55438Y24584D02*
X55511Y24528D01*
X55590Y24479D01*
X55674Y24437D01*
X55765Y24401D01*
X55862Y24371D01*
X55964Y24348D01*
X56072Y24332D01*
X56186Y24322D01*
X56306Y24319D01*
Y23319D01*
X56186Y23316D01*
X56072Y23306D01*
X55964Y23290D01*
X55862Y23267D01*
X55765Y23237D01*
X55674Y23201D01*
X55590Y23159D01*
X55511Y23110D01*
X55438Y23054D01*
X55371Y22992D01*
Y24646D01*
X55438Y24584D01*
D02*
G37*
G36*
X58280Y22984D02*
X58270Y23048D01*
X58240Y23105D01*
X58190Y23155D01*
X58120Y23199D01*
X58030Y23235D01*
X57920Y23265D01*
X57790Y23289D01*
X57640Y23305D01*
X57280Y23319D01*
Y24319D01*
X57471Y24324D01*
X57643Y24339D01*
X57794Y24364D01*
X57926Y24399D01*
X58037Y24444D01*
X58128Y24499D01*
X58199Y24564D01*
X58250Y24639D01*
X58281Y24724D01*
X58292Y24819D01*
X58280Y22984D01*
D02*
G37*
G36*
X97599Y16618D02*
X97589Y16713D01*
X97558Y16798D01*
X97508Y16873D01*
X97437Y16938D01*
X97346Y16993D01*
X97234Y17038D01*
X97103Y17073D01*
X96951Y17098D01*
X96779Y17113D01*
X96587Y17118D01*
Y18118D01*
X96779Y18123D01*
X96951Y18138D01*
X97103Y18163D01*
X97234Y18198D01*
X97346Y18243D01*
X97437Y18298D01*
X97508Y18363D01*
X97558Y18438D01*
X97589Y18523D01*
X97599Y18618D01*
Y16618D01*
D02*
G37*
G36*
X21237Y94267D02*
X21182Y94194D01*
X21133Y94115D01*
X21090Y94030D01*
X21054Y93940D01*
X21025Y93843D01*
X21002Y93741D01*
X20986Y93633D01*
X20976Y93519D01*
X20972Y93398D01*
X19972D01*
X19969Y93519D01*
X19959Y93633D01*
X19943Y93741D01*
X19920Y93843D01*
X19891Y93940D01*
X19855Y94030D01*
X19812Y94115D01*
X19763Y94194D01*
X19708Y94267D01*
X19646Y94334D01*
X21299D01*
X21237Y94267D01*
D02*
G37*
G36*
X37032Y28055D02*
X37022Y28150D01*
X36991Y28235D01*
X36941Y28310D01*
X36870Y28375D01*
X36779Y28430D01*
X36668Y28475D01*
X36536Y28510D01*
X36384Y28535D01*
X36212Y28550D01*
X36020Y28555D01*
Y29555D01*
X36212Y29560D01*
X36384Y29575D01*
X36536Y29600D01*
X36668Y29635D01*
X36779Y29680D01*
X36870Y29735D01*
X36941Y29800D01*
X36991Y29875D01*
X37022Y29960D01*
X37032Y30055D01*
Y28055D01*
D02*
G37*
G36*
X169711Y25476D02*
X169701Y25571D01*
X169670Y25656D01*
X169620Y25731D01*
X169549Y25796D01*
X169458Y25851D01*
X169347Y25896D01*
X169215Y25931D01*
X169063Y25956D01*
X168891Y25971D01*
X168699Y25976D01*
Y26976D01*
X168891Y26981D01*
X169063Y26996D01*
X169215Y27021D01*
X169347Y27056D01*
X169458Y27101D01*
X169549Y27156D01*
X169620Y27221D01*
X169670Y27296D01*
X169701Y27381D01*
X169711Y27476D01*
Y25476D01*
D02*
G37*
G36*
X155266Y27381D02*
X155296Y27296D01*
X155347Y27221D01*
X155417Y27156D01*
X155508Y27101D01*
X155620Y27056D01*
X155751Y27021D01*
X155903Y26996D01*
X156075Y26981D01*
X156267Y26976D01*
Y25976D01*
X156075Y25971D01*
X155903Y25956D01*
X155751Y25931D01*
X155620Y25896D01*
X155508Y25851D01*
X155417Y25796D01*
X155347Y25731D01*
X155296Y25656D01*
X155266Y25571D01*
X155255Y25476D01*
Y27476D01*
X155266Y27381D01*
D02*
G37*
G36*
X191761Y31306D02*
X191672Y31293D01*
X191583Y31271D01*
X191495Y31242D01*
X191407Y31206D01*
X191319Y31162D01*
X191231Y31110D01*
X191143Y31050D01*
X191056Y30983D01*
X190969Y30908D01*
X190882Y30825D01*
X190082Y31439D01*
X190165Y31527D01*
X190238Y31615D01*
X190301Y31703D01*
X190354Y31792D01*
X190397Y31881D01*
X190430Y31970D01*
X190453Y32059D01*
X190466Y32149D01*
X190469Y32239D01*
X190462Y32329D01*
X191761Y31306D01*
D02*
G37*
G36*
X177252Y22381D02*
X177282Y22296D01*
X177333Y22221D01*
X177404Y22156D01*
X177495Y22101D01*
X177606Y22056D01*
X177738Y22021D01*
X177889Y21996D01*
X178061Y21981D01*
X178254Y21976D01*
Y20976D01*
X178061Y20971D01*
X177889Y20956D01*
X177738Y20931D01*
X177606Y20896D01*
X177495Y20851D01*
X177404Y20796D01*
X177333Y20731D01*
X177282Y20656D01*
X177252Y20571D01*
X177242Y20476D01*
Y22476D01*
X177252Y22381D01*
D02*
G37*
G36*
X171113Y20110D02*
X171035Y20167D01*
X170943Y20195D01*
X170837D01*
X170717Y20167D01*
X170583Y20110D01*
X170434Y20026D01*
X170272Y19912D01*
X170095Y19771D01*
X169699Y19403D01*
X168992Y20110D01*
X169190Y20315D01*
X169501Y20683D01*
X169614Y20846D01*
X169699Y20994D01*
X169756Y21129D01*
X169784Y21249D01*
Y21355D01*
X169756Y21447D01*
X169699Y21525D01*
X171113Y20110D01*
D02*
G37*
G36*
X64105Y19321D02*
X64076Y19229D01*
Y19123D01*
X64105Y19003D01*
X64161Y18868D01*
X64246Y18720D01*
X64359Y18557D01*
X64501Y18380D01*
X64868Y17984D01*
X64161Y17277D01*
X63956Y17475D01*
X63589Y17786D01*
X63426Y17900D01*
X63277Y17984D01*
X63143Y18041D01*
X63023Y18069D01*
X62917D01*
X62825Y18041D01*
X62747Y17984D01*
X64161Y19399D01*
X64105Y19321D01*
D02*
G37*
G36*
X42900Y24960D02*
X42930Y24875D01*
X42981Y24800D01*
X43051Y24735D01*
X43142Y24680D01*
X43254Y24635D01*
X43385Y24600D01*
X43537Y24575D01*
X43709Y24560D01*
X43901Y24555D01*
Y23555D01*
X43709Y23550D01*
X43537Y23535D01*
X43385Y23510D01*
X43254Y23475D01*
X43142Y23430D01*
X43051Y23375D01*
X42981Y23310D01*
X42930Y23235D01*
X42900Y23150D01*
X42889Y23055D01*
Y25055D01*
X42900Y24960D01*
D02*
G37*
G36*
X48842Y20630D02*
X48774Y20692D01*
X48702Y20748D01*
X48623Y20797D01*
X48538Y20839D01*
X48448Y20875D01*
X48351Y20904D01*
X48249Y20927D01*
X48140Y20944D01*
X48026Y20953D01*
X47906Y20957D01*
Y21957D01*
X48026Y21960D01*
X48140Y21970D01*
X48249Y21986D01*
X48351Y22009D01*
X48448Y22038D01*
X48538Y22074D01*
X48623Y22117D01*
X48702Y22166D01*
X48774Y22221D01*
X48842Y22284D01*
Y20630D01*
D02*
G37*
G36*
X192891Y71924D02*
X192835Y71851D01*
X192786Y71772D01*
X192744Y71688D01*
X192708Y71597D01*
X192678Y71501D01*
X192655Y71398D01*
X192639Y71290D01*
X192629Y71176D01*
X192626Y71056D01*
X191626D01*
X191623Y71176D01*
X191613Y71290D01*
X191597Y71398D01*
X191574Y71501D01*
X191544Y71597D01*
X191508Y71688D01*
X191466Y71772D01*
X191417Y71851D01*
X191361Y71924D01*
X191299Y71991D01*
X192953D01*
X192891Y71924D01*
D02*
G37*
G36*
X207008Y23350D02*
X207377Y23037D01*
X207540Y22922D01*
X207688Y22836D01*
X207822Y22779D01*
X207942Y22749D01*
X208048Y22748D01*
X208139Y22775D01*
X208216Y22830D01*
X206813Y21428D01*
X206869Y21505D01*
X206896Y21596D01*
X206895Y21701D01*
X206865Y21821D01*
X206807Y21955D01*
X206721Y22104D01*
X206607Y22267D01*
X206464Y22444D01*
X206094Y22842D01*
X206801Y23549D01*
X207008Y23350D01*
D02*
G37*
D12*
X205709Y88606D02*
Y156604D01*
X161597Y12008D02*
X171065Y21476D01*
X70138Y12008D02*
X161597D01*
X63090Y19055D02*
X70138Y12008D01*
X60654Y146752D02*
Y157087D01*
X42717Y120177D02*
X68654Y146114D01*
X42717Y87992D02*
Y120177D01*
X109460Y75689D02*
X113421Y79651D01*
X50197Y75689D02*
X109460D01*
X50503Y80118D02*
X104069D01*
X61135Y49140D02*
X61221Y49055D01*
X44350Y24055D02*
X46949Y21457D01*
X39961Y24055D02*
X44350D01*
X46949Y21457D02*
X49685D01*
X152917Y26476D02*
X173476D01*
X137783Y33610D02*
X144917Y26476D01*
X59315Y114567D02*
X65158D01*
X45472Y108724D02*
X51315Y114567D01*
X45472Y101476D02*
Y108724D01*
Y101476D02*
X48720Y98228D01*
X48819Y94095D02*
X84784Y130059D01*
Y143996D01*
X111362Y62008D02*
X113126Y60244D01*
X68654Y146114D02*
Y146752D01*
X211114Y127864D02*
X221300Y117679D01*
Y92576D02*
Y117679D01*
X216779Y88055D02*
X221300Y92576D01*
X24409Y34449D02*
Y91437D01*
X34154Y52992D02*
Y53150D01*
X27953Y54193D02*
Y87519D01*
X20472Y32992D02*
Y95177D01*
X27953Y54193D02*
X38091Y44055D01*
X20472Y32992D02*
X24409Y29055D01*
X52264Y91732D02*
X94784Y134252D01*
X47343Y83366D02*
X52362D01*
X48327Y87752D02*
X58185D01*
X104783Y134350D02*
Y143996D01*
X58185Y87752D02*
X104783Y134350D01*
X94784Y134252D02*
Y143996D01*
X188386Y89917D02*
Y156604D01*
X92421Y36811D02*
X100134D01*
X104069Y80118D02*
X113421Y89470D01*
X42717Y87992D02*
X47343Y83366D01*
X191634Y32283D02*
Y32480D01*
X180827Y21476D02*
X191634Y32283D01*
X99740Y27559D02*
X99937Y27362D01*
X92323Y27559D02*
X99740D01*
X92618Y46654D02*
X100724D01*
X92421Y46457D02*
X92618Y46654D01*
X45039Y49055D02*
X50295Y43799D01*
X39961Y49055D02*
X45039D01*
X39961Y39055D02*
X50374D01*
X39961Y34055D02*
X50394D01*
X54331Y26870D02*
X56516Y29055D01*
X47884Y26870D02*
X54331D01*
X60984Y23819D02*
X61221Y24055D01*
X54528Y23819D02*
X60984D01*
X74803Y17618D02*
X99937D01*
X63366Y29055D02*
X74803Y17618D01*
X61221Y29055D02*
X63366D01*
X56516D02*
X61221D01*
X210431Y51329D02*
X210579Y51181D01*
X197047Y88724D02*
Y156604D01*
X24409Y29055D02*
X39961D01*
X174606Y112795D02*
X179626Y117815D01*
X174606Y89524D02*
Y112795D01*
Y89524D02*
X176075Y88055D01*
X179626Y117815D02*
X184055Y122244D01*
Y156604D01*
X168110Y130905D02*
X179724Y142520D01*
X168110Y89433D02*
Y130905D01*
X166732Y88055D02*
X168110Y89433D01*
X179724Y142520D02*
Y156604D01*
X210579Y50984D02*
X210770Y51176D01*
X210283Y51181D02*
X210431Y51329D01*
X200787Y51181D02*
X210283D01*
X173476Y21476D02*
X180827D01*
X38091Y39055D02*
X39961D01*
X221954Y51176D02*
X222146Y50984D01*
X210770Y51176D02*
X221954D01*
X210579Y50984D02*
Y51181D01*
X210756Y56299D02*
X219587D01*
X210579Y56476D02*
X210756Y56299D01*
X186524Y88055D02*
X188386Y89917D01*
X196378Y88055D02*
X197047Y88724D01*
X34154Y52992D02*
X38091Y49055D01*
X182972Y53561D02*
Y68799D01*
X33296Y39440D02*
X33487Y39249D01*
Y38658D02*
Y39249D01*
X192126Y37518D02*
Y72835D01*
X29528Y46949D02*
X29719Y46758D01*
X210039Y156604D02*
X211114Y155529D01*
Y127864D02*
Y155529D01*
X216142Y88055D02*
X216779D01*
X205709Y88606D02*
X206260Y88055D01*
X113421Y90108D02*
X113878Y90565D01*
Y96850D01*
X192126Y37518D02*
X208167Y21476D01*
X210579D01*
X171065D02*
X173476D01*
X113421Y79013D02*
X113878Y78556D01*
Y71850D02*
Y78556D01*
X175888Y46476D02*
X182972Y53561D01*
X173476Y46476D02*
X175888D01*
X113126Y110484D02*
Y110531D01*
Y110484D02*
X137783Y85827D01*
Y33610D02*
Y85827D01*
X186496Y88055D02*
X186524D01*
X188386Y156604D02*
X188484Y156703D01*
X205610Y156703D02*
X205709Y156604D01*
X197047D02*
X197146Y156703D01*
X61221Y19055D02*
X63090D01*
X38091Y49055D02*
X38248D01*
X33487Y38658D02*
X38091Y34055D01*
X30388Y46758D02*
X38091Y39055D01*
X29719Y46758D02*
X30388D01*
X105118Y62008D02*
X111362D01*
X176075Y88055D02*
X176614D01*
X173031Y56921D02*
X173476Y56476D01*
X173031Y56921D02*
Y61909D01*
X38091Y44055D02*
X39961D01*
X102756Y110531D02*
X113126D01*
X113421Y89470D02*
Y90108D01*
D21*
X162618Y154124D02*
D03*
D22*
X179724Y156604D02*
D03*
X184055D02*
D03*
X188386D02*
D03*
X192717D02*
D03*
X210039D02*
D03*
X205709D02*
D03*
X201378D02*
D03*
X197047D02*
D03*
X217677Y146250D02*
D03*
D23*
X219272Y154715D02*
D03*
D24*
X179961Y106388D02*
D03*
X210591D02*
D03*
D25*
X163012Y109518D02*
D03*
D26*
X217677Y110817D02*
D03*
D27*
X173476Y56476D02*
D03*
Y51476D02*
D03*
Y46476D02*
D03*
Y41476D02*
D03*
Y36476D02*
D03*
Y31476D02*
D03*
Y26476D02*
D03*
Y21476D02*
D03*
X210579D02*
D03*
Y26476D02*
D03*
Y31476D02*
D03*
Y36476D02*
D03*
Y41476D02*
D03*
Y46476D02*
D03*
Y51476D02*
D03*
Y56476D02*
D03*
D28*
X39961Y49055D02*
D03*
Y44055D02*
D03*
Y39055D02*
D03*
Y34055D02*
D03*
Y29055D02*
D03*
Y24055D02*
D03*
Y19055D02*
D03*
X61221Y49055D02*
D03*
Y44055D02*
D03*
Y39055D02*
D03*
Y34055D02*
D03*
Y29055D02*
D03*
Y24055D02*
D03*
Y19055D02*
D03*
D29*
X239173Y34928D02*
D03*
X10827Y135728D02*
D03*
X239173D02*
D03*
D30*
X61135Y57579D02*
D03*
X70135D02*
D03*
D31*
X150098Y42976D02*
D03*
Y49976D02*
D03*
D32*
X60654Y157087D02*
D03*
X68654D02*
D03*
D33*
X59315Y114567D02*
D03*
X51315D02*
D03*
X60654Y146752D02*
D03*
X68654D02*
D03*
X113421Y110827D02*
D03*
X121421D02*
D03*
Y90108D02*
D03*
X113421D02*
D03*
X113224Y61909D02*
D03*
X121224D02*
D03*
X121421Y79651D02*
D03*
X113421D02*
D03*
X100134Y37008D02*
D03*
X108134D02*
D03*
X108724Y46654D02*
D03*
X100724D02*
D03*
X99937Y27362D02*
D03*
X107937D02*
D03*
Y17618D02*
D03*
X99937D02*
D03*
X27100Y114202D02*
D03*
X35100D02*
D03*
X144917Y26476D02*
D03*
X152917D02*
D03*
D34*
X159744Y42547D02*
D03*
Y51547D02*
D03*
D35*
X216142Y80055D02*
D03*
Y88055D02*
D03*
X206260D02*
D03*
Y80055D02*
D03*
X196378D02*
D03*
Y88055D02*
D03*
X186496D02*
D03*
Y80055D02*
D03*
X176614D02*
D03*
Y88055D02*
D03*
X166732D02*
D03*
Y80055D02*
D03*
D55*
X239173Y156398D02*
D03*
X10827D02*
D03*
Y14665D02*
D03*
X239173D02*
D03*
D56*
X192717Y123130D02*
Y156604D01*
X121421Y110189D02*
X122049Y110817D01*
X35100Y67262D02*
Y114202D01*
Y67262D02*
X39173Y63189D01*
Y63189D02*
Y63189D01*
Y63189D02*
X55525D01*
X61221Y49055D02*
X75461D01*
X61135Y49140D02*
Y57579D01*
X55525Y63189D02*
X61135Y57579D01*
X121224Y59197D02*
Y61909D01*
X117059Y55032D02*
X121224Y59197D01*
X81437Y55032D02*
X117059D01*
X159744Y75071D02*
X164728Y80055D01*
X159744Y51547D02*
Y75071D01*
X166095Y80055D02*
X166732D01*
X133967Y110817D02*
X164728Y80055D01*
X122049Y110817D02*
X133967D01*
X206260Y80055D02*
X216142D01*
X196378D02*
X206260D01*
X186496D02*
X196378D01*
X176614D02*
X186496D01*
X166732D02*
X176614D01*
X173441Y51512D02*
X173476Y51476D01*
X27100Y127021D02*
X44075Y143996D01*
X27100Y114202D02*
Y127021D01*
X35100Y119530D02*
X38700Y123130D01*
X35100Y114202D02*
Y119530D01*
X158945Y50748D02*
X159744Y51547D01*
X150870Y50748D02*
X158945D01*
X150098Y49976D02*
X150870Y50748D01*
X121421Y110189D02*
Y110827D01*
Y79651D02*
Y90108D01*
Y62106D02*
Y79651D01*
X216303Y80216D02*
X223130D01*
X216142Y80055D02*
X216303Y80216D01*
X75461Y49055D02*
X81437Y55032D01*
X159744Y51547D02*
X159780Y51512D01*
X173441D01*
X121224Y61909D02*
X121421Y62106D01*
X61221Y44055D02*
Y49055D01*
D57*
X8661Y30610D02*
D03*
Y103445D02*
D03*
Y85236D02*
D03*
Y67027D02*
D03*
Y76132D02*
D03*
Y48819D02*
D03*
Y94340D02*
D03*
Y57923D02*
D03*
Y39715D02*
D03*
D58*
X142776Y143996D02*
D03*
X104783D02*
D03*
D59*
X132776D02*
D03*
X122776D02*
D03*
X34075D02*
D03*
X94784D02*
D03*
X84784D02*
D03*
D60*
X44075D02*
D03*
D61*
X39173Y63189D02*
D03*
X50197Y75689D02*
D03*
X70472Y71752D02*
D03*
X65158Y114567D02*
D03*
X48720Y98228D02*
D03*
X192609Y123130D02*
D03*
X38700D02*
D03*
X34154Y53150D02*
D03*
X50503Y80118D02*
D03*
X52264Y91732D02*
D03*
X52362Y83366D02*
D03*
X48327Y87752D02*
D03*
X92421Y36811D02*
D03*
X191634Y32480D02*
D03*
X92323Y27559D02*
D03*
X92421Y46457D02*
D03*
X50295Y43799D02*
D03*
X50374Y39055D02*
D03*
X50394Y34055D02*
D03*
X47884Y26870D02*
D03*
X54528Y23819D02*
D03*
X24409Y34449D02*
D03*
X49685Y21457D02*
D03*
X48819Y94095D02*
D03*
X179626Y117815D02*
D03*
X200787Y51181D02*
D03*
X222146Y50984D02*
D03*
X219587Y56299D02*
D03*
X188386Y143701D02*
D03*
X205807Y137795D02*
D03*
X197047Y133071D02*
D03*
X223130Y80216D02*
D03*
X113878Y96850D02*
D03*
X192126Y72835D02*
D03*
X113878Y71850D02*
D03*
X182972Y68799D02*
D03*
X33296Y39440D02*
D03*
X29528Y46949D02*
D03*
X105118Y62008D02*
D03*
X173031Y61909D02*
D03*
X27953Y87519D02*
D03*
X24409Y91437D02*
D03*
X20472Y95177D02*
D03*
X102756Y110531D02*
D03*
M02*
