G04*
G04 #@! TF.GenerationSoftware,Altium Limited,Altium Designer,18.1.7 (191)*
G04*
G04 Layer_Physical_Order=1*
G04 Layer_Color=255*
%FSLAX25Y25*%
%MOIN*%
G70*
G01*
G75*
%ADD12C,0.01000*%
%ADD22R,0.03150X0.04882*%
%ADD23R,0.03150X0.04724*%
%ADD24R,0.04528X0.08661*%
%ADD25R,0.05906X0.04528*%
%ADD26R,0.03740X0.08661*%
%ADD27R,0.03740X0.09843*%
%ADD28R,0.07579X0.02756*%
%ADD29R,0.05906X0.02165*%
%ADD30R,0.05906X0.05118*%
%ADD31R,0.03937X0.03543*%
%ADD32R,0.04000X0.06000*%
%ADD33R,0.04724X0.06000*%
%ADD34R,0.06000X0.04724*%
%ADD35C,0.03200*%
%ADD55C,0.15748*%
%ADD56C,0.02000*%
%ADD57C,0.04000*%
%ADD58C,0.07000*%
%ADD59R,0.07000X0.07000*%
%ADD60R,0.07000X0.07000*%
%ADD61C,0.02000*%
G36*
X10000Y169122D02*
X229323D01*
X229331Y169121D01*
X240297D01*
X241559Y168996D01*
X243057Y168542D01*
X244438Y167804D01*
X245649Y166810D01*
X246642Y165600D01*
X247380Y164218D01*
X247835Y162720D01*
X247979Y161254D01*
X247961Y161161D01*
Y146990D01*
X247960Y146868D01*
X247961Y146864D01*
Y24516D01*
X247959Y24508D01*
Y19174D01*
X247459Y19049D01*
X247005Y19898D01*
X245834Y21326D01*
X244406Y22497D01*
X242778Y23368D01*
X241011Y23904D01*
X239173Y24085D01*
X237336Y23904D01*
X235569Y23368D01*
X233940Y22497D01*
X232513Y21326D01*
X231341Y19898D01*
X230471Y18270D01*
X229935Y16503D01*
X229754Y14665D01*
X229935Y12828D01*
X230471Y11061D01*
X231341Y9432D01*
X232513Y8005D01*
X233940Y6833D01*
X235569Y5963D01*
X237336Y5427D01*
X239173Y5246D01*
X241011Y5427D01*
X242778Y5963D01*
X244406Y6833D01*
X245834Y8005D01*
X247005Y9432D01*
X247459Y10282D01*
X247959Y10156D01*
Y9604D01*
X247835Y8343D01*
X247380Y6844D01*
X246642Y5463D01*
X245649Y4253D01*
X244438Y3259D01*
X243057Y2521D01*
X241559Y2067D01*
X240093Y1922D01*
X240000Y1941D01*
X20382D01*
X20374Y1942D01*
X9703D01*
X8442Y2067D01*
X6943Y2521D01*
X5562Y3259D01*
X4351Y4253D01*
X3358Y5463D01*
X2620Y6844D01*
X2165Y8343D01*
X2021Y9809D01*
X2039Y9902D01*
Y10159D01*
X2539Y10285D01*
X2995Y9432D01*
X4166Y8005D01*
X5594Y6833D01*
X7222Y5963D01*
X8989Y5427D01*
X10827Y5246D01*
X12664Y5427D01*
X14431Y5963D01*
X16060Y6833D01*
X17487Y8005D01*
X18659Y9432D01*
X19529Y11061D01*
X20065Y12828D01*
X20246Y14665D01*
X20065Y16503D01*
X19529Y18270D01*
X18659Y19898D01*
X17487Y21326D01*
X16060Y22497D01*
X14431Y23368D01*
X12664Y23904D01*
X10827Y24085D01*
X8989Y23904D01*
X7222Y23368D01*
X5594Y22497D01*
X4166Y21326D01*
X2995Y19898D01*
X2539Y19046D01*
X2039Y19171D01*
Y24073D01*
X2041Y24293D01*
X2039Y24301D01*
Y146842D01*
X2041Y146850D01*
Y151889D01*
X2541Y152014D01*
X2995Y151164D01*
X4166Y149737D01*
X5594Y148566D01*
X7222Y147695D01*
X8989Y147159D01*
X10827Y146978D01*
X12664Y147159D01*
X14431Y147695D01*
X16060Y148566D01*
X17487Y149737D01*
X18659Y151164D01*
X19529Y152793D01*
X20065Y154560D01*
X20246Y156398D01*
X20065Y158235D01*
X19529Y160002D01*
X18659Y161631D01*
X17487Y163058D01*
X16060Y164230D01*
X14431Y165100D01*
X12664Y165636D01*
X10827Y165817D01*
X8989Y165636D01*
X7222Y165100D01*
X5594Y164230D01*
X4166Y163058D01*
X2995Y161631D01*
X2541Y160781D01*
X2041Y160907D01*
Y161459D01*
X2165Y162720D01*
X2620Y164218D01*
X3358Y165600D01*
X4351Y166810D01*
X5562Y167804D01*
X6943Y168542D01*
X8442Y168996D01*
X9907Y169141D01*
X10000Y169122D01*
D02*
G37*
%LPC*%
G36*
X71138Y164335D02*
X68638D01*
Y160835D01*
X71138D01*
Y164335D01*
D02*
G37*
G36*
X67638D02*
X65138D01*
Y160835D01*
X67638D01*
Y164335D01*
D02*
G37*
G36*
X71138Y159835D02*
X68638D01*
Y156335D01*
X71138D01*
Y159835D01*
D02*
G37*
G36*
X67638D02*
X65138D01*
Y156335D01*
X67638D01*
Y159835D01*
D02*
G37*
G36*
X222142Y160045D02*
X219772D01*
Y155215D01*
X222142D01*
Y160045D01*
D02*
G37*
G36*
X218772D02*
X216402D01*
Y155215D01*
X218772D01*
Y160045D01*
D02*
G37*
G36*
X165488D02*
X163118D01*
Y154624D01*
X165488D01*
Y160045D01*
D02*
G37*
G36*
X162118D02*
X159748D01*
Y154624D01*
X162118D01*
Y160045D01*
D02*
G37*
G36*
X165488Y153624D02*
X163118D01*
Y148203D01*
X165488D01*
Y153624D01*
D02*
G37*
G36*
X162118D02*
X159748D01*
Y148203D01*
X162118D01*
Y153624D01*
D02*
G37*
G36*
X222142Y154215D02*
X216402D01*
Y149691D01*
X215102D01*
Y146750D01*
X220252D01*
Y149384D01*
X222142D01*
Y154215D01*
D02*
G37*
G36*
X132776Y149039D02*
X131470Y148867D01*
X130254Y148364D01*
X129209Y147562D01*
X128408Y146518D01*
X128046Y145644D01*
X127505D01*
X127143Y146518D01*
X126342Y147562D01*
X125297Y148364D01*
X124081Y148867D01*
X122776Y149039D01*
X121470Y148867D01*
X120254Y148364D01*
X119210Y147562D01*
X118408Y146518D01*
X117904Y145301D01*
X117732Y143996D01*
X117904Y142691D01*
X118408Y141474D01*
X119210Y140430D01*
X120254Y139629D01*
X121470Y139125D01*
X122776Y138953D01*
X124081Y139125D01*
X125297Y139629D01*
X126342Y140430D01*
X127143Y141474D01*
X127505Y142348D01*
X128046D01*
X128408Y141474D01*
X129209Y140430D01*
X130254Y139629D01*
X131470Y139125D01*
X132776Y138953D01*
X134081Y139125D01*
X135297Y139629D01*
X136342Y140430D01*
X137143Y141474D01*
X137276Y141794D01*
X137776Y141695D01*
Y138996D01*
X147776D01*
Y148996D01*
X137776D01*
Y146297D01*
X137276Y146198D01*
X137143Y146518D01*
X136342Y147562D01*
X135297Y148364D01*
X134081Y148867D01*
X132776Y149039D01*
D02*
G37*
G36*
X33575Y148469D02*
X32900Y148380D01*
X31805Y147927D01*
X30865Y147205D01*
X30144Y146265D01*
X29691Y145171D01*
X29602Y144496D01*
X33575D01*
Y148469D01*
D02*
G37*
G36*
X220252Y145750D02*
X218177D01*
Y142809D01*
X220252D01*
Y145750D01*
D02*
G37*
G36*
X217177D02*
X215102D01*
Y142809D01*
X217177D01*
Y145750D01*
D02*
G37*
G36*
X33575Y143496D02*
X29602D01*
X29691Y142821D01*
X30144Y141727D01*
X30865Y140787D01*
X31805Y140065D01*
X32900Y139612D01*
X33575Y139523D01*
Y143496D01*
D02*
G37*
G36*
X238974Y140576D02*
X237737Y140374D01*
X236593Y139864D01*
X235616Y139078D01*
X234873Y138069D01*
X234412Y136904D01*
X234263Y135660D01*
X234350Y135039D01*
X234350D01*
X234464Y134405D01*
X235009Y133238D01*
X235836Y132250D01*
X236888Y131507D01*
X238096Y131060D01*
X239379Y130937D01*
X240650Y131149D01*
X241824Y131679D01*
X242323Y132087D01*
X242323Y132087D01*
X242323Y132087D01*
X242793Y132501D01*
X243491Y133542D01*
X243900Y134726D01*
X243993Y135976D01*
X243764Y137208D01*
X243228Y138340D01*
X242421Y139299D01*
X241396Y140020D01*
X240221Y140455D01*
X238974Y140576D01*
D02*
G37*
G36*
X10627D02*
X9391Y140374D01*
X8246Y139864D01*
X7270Y139078D01*
X6527Y138069D01*
X6066Y136904D01*
X5917Y135660D01*
X6004Y135039D01*
X6004D01*
X6117Y134405D01*
X6662Y133238D01*
X7489Y132250D01*
X8542Y131507D01*
X9750Y131060D01*
X11032Y130937D01*
X12303Y131149D01*
X13477Y131679D01*
X13976Y132087D01*
X13976Y132087D01*
X13976Y132087D01*
X14446Y132501D01*
X15144Y133542D01*
X15553Y134726D01*
X15646Y135976D01*
X15418Y137208D01*
X14882Y138340D01*
X14075Y139299D01*
X13050Y140020D01*
X11875Y140455D01*
X10627Y140576D01*
D02*
G37*
G36*
X63138Y164335D02*
X57138D01*
Y156335D01*
X58232D01*
Y154000D01*
X56910D01*
Y146000D01*
X61372D01*
X61564Y145538D01*
X41275Y125249D01*
X41083Y124963D01*
X40502Y124932D01*
X39676Y125485D01*
X38700Y125679D01*
X37725Y125485D01*
X36898Y124932D01*
X33298Y121332D01*
X32745Y120505D01*
X32551Y119530D01*
Y118202D01*
X29139D01*
Y126177D01*
X41959Y138996D01*
X49075D01*
Y148996D01*
X39075D01*
Y144324D01*
X38575Y144291D01*
X38459Y145171D01*
X38006Y146265D01*
X37284Y147205D01*
X36344Y147927D01*
X35250Y148380D01*
X34575Y148469D01*
Y143996D01*
Y139523D01*
X35250Y139612D01*
X36344Y140065D01*
X36849Y140453D01*
X37164Y140349D01*
X37341Y140200D01*
X37339Y140144D01*
X25658Y128463D01*
X25216Y127802D01*
X25061Y127021D01*
Y118202D01*
X23738D01*
Y110202D01*
X30462D01*
Y110236D01*
X31738D01*
Y110202D01*
X32551D01*
Y65294D01*
X32745Y64318D01*
X33298Y63491D01*
X37272Y59517D01*
X45221Y51568D01*
X45086Y51215D01*
X44987Y51094D01*
X43913D01*
Y51138D01*
X38892D01*
X36658Y53371D01*
X36509Y54125D01*
X35956Y54952D01*
X35129Y55505D01*
X34154Y55699D01*
X33178Y55505D01*
X32351Y54952D01*
X31799Y54125D01*
X31754Y53899D01*
X31275Y53754D01*
X29992Y55038D01*
Y86071D01*
X30308Y86543D01*
X30502Y87519D01*
X30308Y88494D01*
X29755Y89321D01*
X28928Y89874D01*
X27953Y90068D01*
X26977Y89874D01*
X26970Y89869D01*
X26609Y90229D01*
X26764Y90461D01*
X26958Y91437D01*
X26764Y92413D01*
X26212Y93239D01*
X25385Y93792D01*
X24409Y93986D01*
X23434Y93792D01*
X23409Y93775D01*
X22792Y93964D01*
X22745Y94079D01*
X22827Y94202D01*
X23021Y95177D01*
X22827Y96153D01*
X22275Y96980D01*
X21448Y97532D01*
X20472Y97726D01*
X19497Y97532D01*
X18670Y96980D01*
X18117Y96153D01*
X17923Y95177D01*
X18117Y94202D01*
X18433Y93729D01*
Y32992D01*
X18588Y32212D01*
X19030Y31550D01*
X22967Y27613D01*
X23629Y27171D01*
X24409Y27016D01*
X36008D01*
Y21972D01*
Y19555D01*
X43913D01*
X43913Y19555D01*
Y19555D01*
X46169Y19573D01*
X48769Y16972D01*
X62289D01*
X67286Y11976D01*
X67947Y11534D01*
X68727Y11379D01*
X163007D01*
X163787Y11534D01*
X164449Y11976D01*
X171571Y19098D01*
X178266D01*
Y19437D01*
X180827D01*
X181607Y19592D01*
X182269Y20034D01*
X192298Y30063D01*
X192609Y30125D01*
X193436Y30678D01*
X193989Y31505D01*
X194082Y31971D01*
X194624Y32136D01*
X205789Y20970D01*
Y19098D01*
X215368D01*
Y23598D01*
X215368Y23854D01*
X215368D01*
Y24098D01*
X215368D01*
Y25976D01*
X210579D01*
Y26976D01*
X215368D01*
Y28598D01*
X215368Y28854D01*
X215368Y29354D01*
Y33598D01*
X215368Y33854D01*
X215368Y34354D01*
Y38598D01*
X215368Y38854D01*
X215368Y39354D01*
Y43598D01*
X215368Y43854D01*
X215368Y44354D01*
Y48598D01*
X215368Y48854D01*
X215751Y49136D01*
X220411D01*
X221170Y48629D01*
X222146Y48435D01*
X223121Y48629D01*
X223948Y49182D01*
X224501Y50009D01*
X224695Y50984D01*
X224501Y51960D01*
X223948Y52787D01*
X223121Y53339D01*
X222146Y53533D01*
X221170Y53339D01*
X220984Y53215D01*
X215722D01*
X215368Y53568D01*
Y53854D01*
X215596Y54260D01*
X218139D01*
X218611Y53944D01*
X219587Y53750D01*
X220562Y53944D01*
X221389Y54497D01*
X221942Y55324D01*
X222136Y56299D01*
X221942Y57275D01*
X221389Y58102D01*
X220562Y58654D01*
X219587Y58848D01*
X218611Y58654D01*
X218139Y58338D01*
X215368D01*
Y58854D01*
X205789D01*
Y54354D01*
X205789Y54098D01*
X205789Y53574D01*
X205436Y53220D01*
X202235D01*
X201763Y53536D01*
X200787Y53730D01*
X199812Y53536D01*
X198985Y52983D01*
X198432Y52157D01*
X198238Y51181D01*
X198432Y50206D01*
X198985Y49379D01*
X199812Y48826D01*
X200787Y48632D01*
X201763Y48826D01*
X202235Y49142D01*
X205409D01*
X205789Y48854D01*
X205789Y48598D01*
Y44354D01*
X205789Y44098D01*
X205789Y43598D01*
Y39354D01*
X205789Y39098D01*
X205789Y38598D01*
Y34354D01*
X205789Y34098D01*
X205789Y33598D01*
Y29354D01*
X205789Y29098D01*
X205789Y28598D01*
Y27391D01*
X205327Y27200D01*
X194165Y38362D01*
Y71387D01*
X194481Y71859D01*
X194675Y72835D01*
X194481Y73810D01*
X193928Y74637D01*
X193101Y75190D01*
X192126Y75384D01*
X191150Y75190D01*
X190324Y74637D01*
X189771Y73810D01*
X189577Y72835D01*
X189771Y71859D01*
X190087Y71387D01*
Y37518D01*
X190242Y36737D01*
X190684Y36076D01*
X191289Y35471D01*
X191125Y34928D01*
X190658Y34835D01*
X189831Y34283D01*
X189279Y33456D01*
X189119Y32653D01*
X179982Y23516D01*
X178604D01*
X178266Y23854D01*
X178266Y24354D01*
Y28598D01*
X178266Y28854D01*
X178266Y29354D01*
Y33598D01*
X178266Y33854D01*
X178266Y34354D01*
Y38598D01*
X178266Y38854D01*
X178266Y39354D01*
Y43598D01*
X178266Y43854D01*
X178266Y44354D01*
Y45970D01*
X184414Y52119D01*
X184856Y52781D01*
X185012Y53561D01*
Y67351D01*
X185327Y67824D01*
X185521Y68799D01*
X185327Y69775D01*
X184775Y70602D01*
X183948Y71154D01*
X182972Y71348D01*
X181997Y71154D01*
X181170Y70602D01*
X180617Y69775D01*
X180423Y68799D01*
X180617Y67824D01*
X180933Y67351D01*
Y54406D01*
X178728Y52200D01*
X178266Y52391D01*
Y53598D01*
X178266Y53854D01*
X178266Y54354D01*
Y58854D01*
X175071D01*
Y60461D01*
X175386Y60934D01*
X175581Y61909D01*
X175386Y62885D01*
X174834Y63712D01*
X174007Y64264D01*
X173031Y64458D01*
X172056Y64264D01*
X171229Y63712D01*
X170677Y62885D01*
X170483Y61909D01*
X170677Y60934D01*
X170992Y60461D01*
Y58854D01*
X168687D01*
X168687Y54098D01*
X168203Y54061D01*
X163697D01*
Y55106D01*
X162293D01*
Y74015D01*
X164971Y76693D01*
X170732D01*
Y77506D01*
X172614D01*
Y76693D01*
X180614D01*
Y77506D01*
X182496D01*
Y76693D01*
X190496D01*
Y77506D01*
X192378D01*
Y76693D01*
X200378D01*
Y77506D01*
X202260D01*
Y76693D01*
X210260D01*
Y77506D01*
X212142D01*
Y76693D01*
X220142D01*
Y77668D01*
X223130D01*
X224105Y77862D01*
X224932Y78414D01*
X225485Y79241D01*
X225679Y80216D01*
X225485Y81192D01*
X224932Y82019D01*
X224105Y82572D01*
X223130Y82766D01*
X220142D01*
Y88534D01*
X222742Y91134D01*
X223184Y91795D01*
X223339Y92576D01*
Y117679D01*
X223184Y118459D01*
X222742Y119121D01*
X222742Y119121D01*
X213153Y128709D01*
Y155529D01*
X213153Y155529D01*
X212998Y156310D01*
X212614Y156885D01*
Y160045D01*
X201878D01*
Y156604D01*
Y153163D01*
X203670D01*
Y139096D01*
X203452Y138771D01*
X203258Y137795D01*
X203452Y136820D01*
X203670Y136495D01*
Y91417D01*
X199086D01*
Y131623D01*
X199402Y132095D01*
X199596Y133071D01*
X199402Y134046D01*
X199086Y134519D01*
Y153163D01*
X200878D01*
Y156604D01*
Y160045D01*
X177150D01*
Y153163D01*
X177685D01*
Y143364D01*
X166668Y132347D01*
X166226Y131686D01*
X166071Y130905D01*
Y114848D01*
X163512D01*
Y109518D01*
Y104187D01*
X166071D01*
Y91417D01*
X162732D01*
Y86309D01*
X162270Y86118D01*
X135769Y112619D01*
X134942Y113172D01*
X133967Y113366D01*
X124784D01*
Y114827D01*
X110059D01*
Y112571D01*
X104204D01*
X103731Y112886D01*
X102756Y113081D01*
X101780Y112886D01*
X100953Y112334D01*
X100401Y111507D01*
X100207Y110531D01*
X100401Y109556D01*
X100953Y108729D01*
X101780Y108177D01*
X102756Y107983D01*
X103731Y108177D01*
X104204Y108492D01*
X110059D01*
Y106827D01*
X113900D01*
X135744Y84982D01*
Y33610D01*
X135899Y32830D01*
X136342Y32168D01*
X141555Y26955D01*
Y22476D01*
X156280D01*
Y24437D01*
X168348D01*
X168687Y24098D01*
X168687Y23598D01*
Y21982D01*
X162162Y15457D01*
X111299D01*
Y17118D01*
X107937D01*
Y17618D01*
X107437D01*
Y21618D01*
X105610D01*
Y23362D01*
X107437D01*
Y27362D01*
Y31362D01*
X105610D01*
Y33008D01*
X107634D01*
Y37008D01*
Y41008D01*
X105610D01*
Y42654D01*
X108224D01*
Y46654D01*
Y50653D01*
X97362D01*
Y48693D01*
X93575D01*
X93397Y48812D01*
X92421Y49006D01*
X91446Y48812D01*
X90619Y48259D01*
X90066Y47432D01*
X89872Y46457D01*
X90066Y45481D01*
X90619Y44654D01*
X91446Y44102D01*
X92421Y43908D01*
X93397Y44102D01*
X94164Y44614D01*
X97362D01*
Y41598D01*
X96772Y41008D01*
Y38850D01*
X93869D01*
X93397Y39166D01*
X92421Y39360D01*
X91446Y39166D01*
X90619Y38613D01*
X90066Y37786D01*
X89872Y36811D01*
X90066Y35836D01*
X90619Y35009D01*
X91446Y34456D01*
X92421Y34262D01*
X93397Y34456D01*
X93869Y34772D01*
X96772D01*
Y33008D01*
X96575Y32811D01*
Y29598D01*
X93771D01*
X93298Y29914D01*
X92323Y30108D01*
X91347Y29914D01*
X90520Y29362D01*
X89968Y28534D01*
X89774Y27559D01*
X89968Y26584D01*
X90520Y25757D01*
X91347Y25204D01*
X92323Y25010D01*
X93298Y25204D01*
X93771Y25520D01*
X96575D01*
Y23362D01*
Y19657D01*
X75648D01*
X65173Y30132D01*
Y36138D01*
Y38555D01*
X61221D01*
Y39555D01*
X65173D01*
Y41138D01*
Y46138D01*
X65491Y46506D01*
X70653D01*
Y45035D01*
X78559D01*
Y48549D01*
X82493Y52482D01*
X117059D01*
X118035Y52676D01*
X118861Y53229D01*
X123027Y57394D01*
X123371Y57909D01*
X124587D01*
Y65909D01*
X123970D01*
Y75651D01*
X124784D01*
Y83651D01*
X123970D01*
Y86108D01*
X124784D01*
Y94108D01*
X118131D01*
X118110Y94159D01*
Y95472D01*
X116565D01*
X116436Y95630D01*
X116252Y95973D01*
X116427Y96850D01*
X116233Y97826D01*
X115680Y98653D01*
X114853Y99205D01*
X113878Y99399D01*
X112902Y99205D01*
X112075Y98653D01*
X111523Y97826D01*
X111329Y96850D01*
X111523Y95875D01*
X111839Y95402D01*
Y94108D01*
X110059D01*
Y88992D01*
X103224Y82157D01*
X55117D01*
X54770Y82657D01*
X54911Y83366D01*
X54717Y84342D01*
X54165Y85168D01*
X54066Y85234D01*
X54212Y85712D01*
X58185D01*
X58965Y85868D01*
X59627Y86310D01*
X106225Y132908D01*
X106667Y133570D01*
X106823Y134350D01*
Y138996D01*
X109783D01*
Y148996D01*
X99783D01*
Y146297D01*
X99283Y146198D01*
X99151Y146518D01*
X98349Y147562D01*
X97305Y148364D01*
X96089Y148867D01*
X94784Y149039D01*
X93478Y148867D01*
X92262Y148364D01*
X91217Y147562D01*
X90416Y146518D01*
X90054Y145644D01*
X89513D01*
X89151Y146518D01*
X88349Y147562D01*
X87305Y148364D01*
X86089Y148867D01*
X84784Y149039D01*
X83478Y148867D01*
X82262Y148364D01*
X81217Y147562D01*
X80416Y146518D01*
X79912Y145301D01*
X79740Y143996D01*
X79912Y142691D01*
X80416Y141474D01*
X81217Y140430D01*
X82262Y139629D01*
X82744Y139429D01*
Y130904D01*
X67739Y115899D01*
X67242Y115948D01*
X66960Y116369D01*
X66133Y116922D01*
X65158Y117116D01*
X64182Y116922D01*
X63709Y116606D01*
X62677D01*
Y118567D01*
X44756Y118602D01*
Y122962D01*
X67793Y146000D01*
X71634D01*
Y154000D01*
X64909D01*
Y154000D01*
X64909Y154000D01*
X63634D01*
Y154000D01*
X62311D01*
Y156335D01*
X63138D01*
Y164335D01*
D02*
G37*
G36*
X162512Y114848D02*
X159748D01*
Y110018D01*
X162512D01*
Y114848D01*
D02*
G37*
G36*
X153551Y107365D02*
Y106996D01*
X153920D01*
X153772Y107217D01*
X153551Y107365D01*
D02*
G37*
G36*
X152551D02*
X152330Y107217D01*
X152183Y106996D01*
X152551D01*
Y107365D01*
D02*
G37*
G36*
X153920Y105996D02*
X153551D01*
Y105628D01*
X153772Y105775D01*
X153920Y105996D01*
D02*
G37*
G36*
X152551D02*
X152183D01*
X152330Y105775D01*
X152551Y105628D01*
Y105996D01*
D02*
G37*
G36*
X162512Y109018D02*
X159748D01*
Y104187D01*
X162512D01*
Y109018D01*
D02*
G37*
G36*
X8661Y106975D02*
X7748Y106855D01*
X6896Y106502D01*
X6165Y105941D01*
X5604Y105210D01*
X5252Y104358D01*
X5131Y103445D01*
X5252Y102531D01*
X5604Y101680D01*
X6165Y100949D01*
X6896Y100388D01*
X7748Y100035D01*
X8661Y99915D01*
X9575Y100035D01*
X10426Y100388D01*
X11158Y100949D01*
X11719Y101680D01*
X12071Y102531D01*
X12192Y103445D01*
X12071Y104358D01*
X11719Y105210D01*
X11158Y105941D01*
X10426Y106502D01*
X9575Y106855D01*
X8661Y106975D01*
D02*
G37*
G36*
Y97871D02*
X7748Y97751D01*
X6896Y97398D01*
X6165Y96837D01*
X5604Y96106D01*
X5252Y95254D01*
X5131Y94340D01*
X5252Y93427D01*
X5604Y92575D01*
X6165Y91844D01*
X6896Y91283D01*
X7748Y90931D01*
X8661Y90810D01*
X9575Y90931D01*
X10426Y91283D01*
X11158Y91844D01*
X11719Y92575D01*
X12071Y93427D01*
X12192Y94340D01*
X12071Y95254D01*
X11719Y96106D01*
X11158Y96837D01*
X10426Y97398D01*
X9575Y97751D01*
X8661Y97871D01*
D02*
G37*
G36*
Y88766D02*
X7748Y88646D01*
X6896Y88293D01*
X6165Y87732D01*
X5604Y87001D01*
X5252Y86150D01*
X5131Y85236D01*
X5252Y84323D01*
X5604Y83471D01*
X6165Y82740D01*
X6896Y82179D01*
X7748Y81826D01*
X8661Y81706D01*
X9575Y81826D01*
X10426Y82179D01*
X11158Y82740D01*
X11719Y83471D01*
X12071Y84323D01*
X12192Y85236D01*
X12071Y86150D01*
X11719Y87001D01*
X11158Y87732D01*
X10426Y88293D01*
X9575Y88646D01*
X8661Y88766D01*
D02*
G37*
G36*
Y79662D02*
X7748Y79542D01*
X6896Y79189D01*
X6165Y78628D01*
X5604Y77897D01*
X5252Y77046D01*
X5131Y76132D01*
X5252Y75218D01*
X5604Y74367D01*
X6165Y73636D01*
X6896Y73075D01*
X7748Y72722D01*
X8661Y72602D01*
X9575Y72722D01*
X10426Y73075D01*
X11158Y73636D01*
X11719Y74367D01*
X12071Y75218D01*
X12192Y76132D01*
X12071Y77046D01*
X11719Y77897D01*
X11158Y78628D01*
X10426Y79189D01*
X9575Y79542D01*
X8661Y79662D01*
D02*
G37*
G36*
Y70558D02*
X7748Y70438D01*
X6896Y70085D01*
X6165Y69524D01*
X5604Y68793D01*
X5252Y67941D01*
X5131Y67027D01*
X5252Y66114D01*
X5604Y65263D01*
X6165Y64531D01*
X6896Y63970D01*
X7748Y63618D01*
X8661Y63497D01*
X9575Y63618D01*
X10426Y63970D01*
X11158Y64531D01*
X11719Y65263D01*
X12071Y66114D01*
X12192Y67027D01*
X12071Y67941D01*
X11719Y68793D01*
X11158Y69524D01*
X10426Y70085D01*
X9575Y70438D01*
X8661Y70558D01*
D02*
G37*
G36*
Y61453D02*
X7748Y61333D01*
X6896Y60980D01*
X6165Y60419D01*
X5604Y59688D01*
X5252Y58837D01*
X5131Y57923D01*
X5252Y57010D01*
X5604Y56158D01*
X6165Y55427D01*
X6896Y54866D01*
X7748Y54513D01*
X8661Y54393D01*
X9575Y54513D01*
X10426Y54866D01*
X11158Y55427D01*
X11719Y56158D01*
X12071Y57010D01*
X12192Y57923D01*
X12071Y58837D01*
X11719Y59688D01*
X11158Y60419D01*
X10426Y60980D01*
X9575Y61333D01*
X8661Y61453D01*
D02*
G37*
G36*
X112087Y50653D02*
X109224D01*
Y47153D01*
X112087D01*
Y50653D01*
D02*
G37*
G36*
X8661Y52349D02*
X7748Y52229D01*
X6896Y51876D01*
X6165Y51315D01*
X5604Y50584D01*
X5252Y49733D01*
X5131Y48819D01*
X5252Y47905D01*
X5604Y47054D01*
X6165Y46323D01*
X6896Y45762D01*
X7748Y45409D01*
X8661Y45289D01*
X9575Y45409D01*
X10426Y45762D01*
X11158Y46323D01*
X11719Y47054D01*
X12071Y47905D01*
X12192Y48819D01*
X12071Y49733D01*
X11719Y50584D01*
X11158Y51315D01*
X10426Y51876D01*
X9575Y52229D01*
X8661Y52349D01*
D02*
G37*
G36*
X112087Y46154D02*
X109224D01*
Y42654D01*
X112087D01*
Y46154D01*
D02*
G37*
G36*
X78559Y43154D02*
X75106D01*
Y40095D01*
X78559D01*
Y43154D01*
D02*
G37*
G36*
X74106D02*
X70653D01*
Y40095D01*
X74106D01*
Y43154D01*
D02*
G37*
G36*
X111496Y41008D02*
X108634D01*
Y37508D01*
X111496D01*
Y41008D01*
D02*
G37*
G36*
X8661Y43245D02*
X7748Y43124D01*
X6896Y42772D01*
X6165Y42211D01*
X5604Y41480D01*
X5252Y40628D01*
X5131Y39715D01*
X5252Y38801D01*
X5604Y37949D01*
X6165Y37218D01*
X6896Y36657D01*
X7748Y36305D01*
X8661Y36184D01*
X9575Y36305D01*
X10426Y36657D01*
X11158Y37218D01*
X11719Y37949D01*
X12071Y38801D01*
X12192Y39715D01*
X12071Y40628D01*
X11719Y41480D01*
X11158Y42211D01*
X10426Y42772D01*
X9575Y43124D01*
X8661Y43245D01*
D02*
G37*
G36*
X78559Y39094D02*
X75106D01*
Y36035D01*
X78559D01*
Y39094D01*
D02*
G37*
G36*
X74106D02*
X70653D01*
Y36035D01*
X74106D01*
Y39094D01*
D02*
G37*
G36*
X111496Y36508D02*
X108634D01*
Y33008D01*
X111496D01*
Y36508D01*
D02*
G37*
G36*
X238974Y39775D02*
X237737Y39574D01*
X236593Y39063D01*
X235616Y38278D01*
X234873Y37269D01*
X234412Y36104D01*
X234263Y34859D01*
X234350Y34239D01*
X234350D01*
X234464Y33605D01*
X235009Y32438D01*
X235836Y31449D01*
X236888Y30707D01*
X238096Y30259D01*
X239379Y30137D01*
X240650Y30348D01*
X241824Y30879D01*
X242323Y31286D01*
X242323Y31286D01*
X242323Y31286D01*
X242793Y31700D01*
X243491Y32741D01*
X243900Y33926D01*
X243993Y35175D01*
X243764Y36407D01*
X243228Y37540D01*
X242421Y38499D01*
X241396Y39219D01*
X240221Y39655D01*
X238974Y39775D01*
D02*
G37*
G36*
X111299Y31362D02*
X108437D01*
Y27862D01*
X111299D01*
Y31362D01*
D02*
G37*
G36*
X8661Y34140D02*
X7748Y34020D01*
X6896Y33667D01*
X6165Y33106D01*
X5604Y32375D01*
X5252Y31524D01*
X5131Y30610D01*
X5252Y29697D01*
X5604Y28845D01*
X6165Y28114D01*
X6896Y27553D01*
X7748Y27200D01*
X8661Y27080D01*
X9575Y27200D01*
X10426Y27553D01*
X11158Y28114D01*
X11719Y28845D01*
X12071Y29697D01*
X12192Y30610D01*
X12071Y31524D01*
X11719Y32375D01*
X11158Y33106D01*
X10426Y33667D01*
X9575Y34020D01*
X8661Y34140D01*
D02*
G37*
G36*
X111299Y26862D02*
X108437D01*
Y23362D01*
X111299D01*
Y26862D01*
D02*
G37*
G36*
Y21618D02*
X108437D01*
Y18118D01*
X111299D01*
Y21618D01*
D02*
G37*
G36*
X43913Y18555D02*
X40461D01*
Y16972D01*
X43913D01*
Y18555D01*
D02*
G37*
G36*
X39461D02*
X36008D01*
Y16972D01*
X39461D01*
Y18555D01*
D02*
G37*
%LPD*%
G36*
X209213Y127067D02*
X209497Y126685D01*
X209672Y126423D01*
X219261Y116834D01*
Y114179D01*
X218177D01*
Y110817D01*
Y107455D01*
X219261D01*
Y93420D01*
X217258Y91417D01*
X207748D01*
Y103124D01*
X210091D01*
Y106388D01*
Y109652D01*
X207748D01*
Y126713D01*
X208101Y127067D01*
X209213Y127067D01*
D02*
G37*
G36*
X186347Y121174D02*
Y91417D01*
X176646D01*
Y103124D01*
X179461D01*
Y106388D01*
Y109652D01*
X176646D01*
Y111951D01*
X180044Y115349D01*
X180601Y115460D01*
X181428Y116013D01*
X181981Y116840D01*
X182092Y117397D01*
X185497Y120802D01*
X185847Y121325D01*
X186347Y121174D01*
D02*
G37*
G36*
X111839Y73893D02*
Y73298D01*
X111523Y72826D01*
X111329Y71850D01*
X111523Y70875D01*
X112075Y70048D01*
X112902Y69495D01*
X113878Y69301D01*
X114853Y69495D01*
X115680Y70048D01*
X115807Y70238D01*
X116311Y70092D01*
X116417Y66409D01*
X115992Y65909D01*
X109862D01*
Y64047D01*
X106566D01*
X106094Y64363D01*
X105118Y64557D01*
X104143Y64363D01*
X103316Y63810D01*
X102763Y62983D01*
X102569Y62008D01*
X102763Y61032D01*
X103316Y60206D01*
X104143Y59653D01*
X105118Y59459D01*
X106094Y59653D01*
X106566Y59969D01*
X109862D01*
Y57910D01*
X109499Y57581D01*
X81437D01*
X80462Y57386D01*
X79635Y56834D01*
X74954Y52153D01*
X70653D01*
Y51604D01*
X54066D01*
Y67619D01*
X54092Y67815D01*
Y73256D01*
X109704D01*
X110484Y73411D01*
X111146Y73853D01*
X111377Y74085D01*
X111839Y73893D01*
D02*
G37*
G36*
X161124Y80055D02*
X157942Y76873D01*
X157389Y76046D01*
X157195Y75071D01*
Y55106D01*
X155791D01*
Y53297D01*
X150870D01*
X149895Y53103D01*
X149363Y52748D01*
X147130D01*
Y47205D01*
Y45748D01*
Y43476D01*
X153067D01*
X153067Y43476D01*
Y43476D01*
X155791D01*
Y43047D01*
X163697D01*
Y44958D01*
X163752Y44980D01*
X168333D01*
X168687Y44627D01*
X168687Y44098D01*
X168687Y43598D01*
Y39354D01*
X168687Y39098D01*
X168687Y38598D01*
Y34354D01*
X168687Y34098D01*
X168687Y33598D01*
Y29354D01*
X168687Y29098D01*
Y28869D01*
X168333Y28516D01*
X156280D01*
Y30476D01*
X143801D01*
X139823Y34455D01*
Y85827D01*
X139823Y85827D01*
X139667Y86607D01*
X139225Y87269D01*
X139225Y87269D01*
X120129Y106365D01*
X120321Y106827D01*
X124784D01*
Y108268D01*
X132911D01*
X161124Y80055D01*
D02*
G37*
%LPC*%
G36*
X217177Y114179D02*
X215102D01*
Y111317D01*
X217177D01*
Y114179D01*
D02*
G37*
G36*
Y110317D02*
X215102D01*
Y107455D01*
X217177D01*
Y110317D01*
D02*
G37*
G36*
X214543Y109652D02*
X211091D01*
Y106888D01*
X214543D01*
Y109652D01*
D02*
G37*
G36*
Y105888D02*
X211091D01*
Y103124D01*
X214543D01*
Y105888D01*
D02*
G37*
G36*
X212739Y97163D02*
Y96794D01*
X213108D01*
X212960Y97015D01*
X212739Y97163D01*
D02*
G37*
G36*
X211739D02*
X211518Y97015D01*
X211371Y96794D01*
X211739D01*
Y97163D01*
D02*
G37*
G36*
X213108Y95794D02*
X212739D01*
Y95426D01*
X212960Y95573D01*
X213108Y95794D01*
D02*
G37*
G36*
X211739D02*
X211371D01*
X211518Y95573D01*
X211739Y95426D01*
Y95794D01*
D02*
G37*
G36*
X183913Y109652D02*
X180461D01*
Y106888D01*
X183913D01*
Y109652D01*
D02*
G37*
G36*
Y105888D02*
X180461D01*
Y103124D01*
X183913D01*
Y105888D01*
D02*
G37*
G36*
X181928Y98703D02*
Y98335D01*
X182297D01*
X182149Y98556D01*
X181928Y98703D01*
D02*
G37*
G36*
X180928D02*
X180707Y98556D01*
X180560Y98335D01*
X180928D01*
Y98703D01*
D02*
G37*
G36*
X182297Y97335D02*
X181928D01*
Y96966D01*
X182149Y97114D01*
X182297Y97335D01*
D02*
G37*
G36*
X180928D02*
X180560D01*
X180707Y97114D01*
X180928Y96966D01*
Y97335D01*
D02*
G37*
G36*
X105913Y70554D02*
Y70185D01*
X106282D01*
X106134Y70406D01*
X105913Y70554D01*
D02*
G37*
G36*
X104913D02*
X104692Y70406D01*
X104545Y70185D01*
X104913D01*
Y70554D01*
D02*
G37*
G36*
X106282Y69185D02*
X105913D01*
Y68816D01*
X106134Y68964D01*
X106282Y69185D01*
D02*
G37*
G36*
X104913D02*
X104545D01*
X104692Y68964D01*
X104913Y68816D01*
Y69185D01*
D02*
G37*
G36*
X79100Y67270D02*
Y66902D01*
X79469D01*
X79321Y67123D01*
X79100Y67270D01*
D02*
G37*
G36*
X78100D02*
X77879Y67123D01*
X77731Y66902D01*
X78100D01*
Y67270D01*
D02*
G37*
G36*
X79469Y65902D02*
X79100D01*
Y65533D01*
X79321Y65681D01*
X79469Y65902D01*
D02*
G37*
G36*
X78100D02*
X77731D01*
X77879Y65681D01*
X78100Y65533D01*
Y65902D01*
D02*
G37*
G36*
X148900Y80770D02*
Y80402D01*
X149269D01*
X149121Y80623D01*
X148900Y80770D01*
D02*
G37*
G36*
X147900D02*
X147679Y80623D01*
X147531Y80402D01*
X147900D01*
Y80770D01*
D02*
G37*
G36*
X149269Y79402D02*
X148900D01*
Y79033D01*
X149121Y79181D01*
X149269Y79402D01*
D02*
G37*
G36*
X147900D02*
X147531D01*
X147679Y79181D01*
X147900Y79033D01*
Y79402D01*
D02*
G37*
G36*
X153067Y42476D02*
X150598D01*
Y40205D01*
X153067D01*
Y42476D01*
D02*
G37*
G36*
X149598D02*
X147130D01*
Y40205D01*
X149598D01*
Y42476D01*
D02*
G37*
G36*
X163697Y42047D02*
X160244D01*
Y38988D01*
X163697D01*
Y42047D01*
D02*
G37*
G36*
X159244D02*
X155791D01*
Y38988D01*
X159244D01*
Y42047D01*
D02*
G37*
%LPD*%
D12*
X44350Y24055D02*
X46949Y21457D01*
X39961Y24055D02*
X44350D01*
X46949Y21457D02*
X49685D01*
X152917Y26476D02*
X173476D01*
X137783Y33610D02*
X144917Y26476D01*
X59315Y114567D02*
X65158D01*
X45472Y108724D02*
X51315Y114567D01*
X45472Y101476D02*
Y108724D01*
Y101476D02*
X48720Y98228D01*
X48819Y94095D02*
X84784Y130059D01*
Y143996D01*
X111362Y62008D02*
X113126Y60244D01*
X59646Y160335D02*
X60272Y159709D01*
Y150000D02*
Y159709D01*
X27100Y127021D02*
X44075Y143996D01*
X27100Y114202D02*
Y127021D01*
X42717Y123807D02*
X68272Y149362D01*
X42717Y87992D02*
Y123807D01*
X68272Y149362D02*
Y150000D01*
X211114Y127864D02*
X221300Y117679D01*
Y92576D02*
Y117679D01*
X216779Y88055D02*
X221300Y92576D01*
X52362Y75295D02*
X109704D01*
X113421Y79013D01*
X24409Y34449D02*
Y91437D01*
X34154Y52992D02*
Y53150D01*
X27953Y54193D02*
Y87519D01*
X20472Y32992D02*
Y95177D01*
X27953Y54193D02*
X38091Y44055D01*
X20472Y32992D02*
X24409Y29055D01*
X48720Y80118D02*
X104069D01*
X52264Y91732D02*
X94784Y134252D01*
X47343Y83366D02*
X52362D01*
X48327Y87752D02*
X58185D01*
X104783Y134350D02*
Y143996D01*
X58185Y87752D02*
X104783Y134350D01*
X94784Y134252D02*
Y143996D01*
X188386Y89917D02*
Y156604D01*
X92421Y36811D02*
X100134D01*
X104069Y80118D02*
X113421Y89470D01*
X42717Y87992D02*
X47343Y83366D01*
X191634Y32283D02*
Y32480D01*
X180827Y21476D02*
X191634Y32283D01*
X99740Y27559D02*
X99937Y27362D01*
X92323Y27559D02*
X99740D01*
X92618Y46654D02*
X100724D01*
X92421Y46457D02*
X92618Y46654D01*
X45039Y49055D02*
X50295Y43799D01*
X39961Y49055D02*
X45039D01*
X39961Y39055D02*
X50374D01*
X39961Y34055D02*
X50394D01*
X54331Y26870D02*
X56516Y29055D01*
X47884Y26870D02*
X54331D01*
X60984Y23819D02*
X61221Y24055D01*
X54528Y23819D02*
X60984D01*
X74803Y17618D02*
X99937D01*
X63366Y29055D02*
X74803Y17618D01*
X61221Y29055D02*
X63366D01*
X56516D02*
X61221D01*
X210431Y51329D02*
X210579Y51181D01*
X197047Y88724D02*
Y156604D01*
X24409Y29055D02*
X39961D01*
X174606Y112795D02*
X179626Y117815D01*
X174606Y89524D02*
Y112795D01*
Y89524D02*
X176075Y88055D01*
X179626Y117815D02*
X184055Y122244D01*
Y156604D01*
X168110Y130905D02*
X179724Y142520D01*
X168110Y89433D02*
Y130905D01*
X166732Y88055D02*
X168110Y89433D01*
X179724Y142520D02*
Y156604D01*
X210579Y50984D02*
X210770Y51176D01*
X210283Y51181D02*
X210431Y51329D01*
X200787Y51181D02*
X210283D01*
X173476Y21476D02*
X180827D01*
X38091Y39055D02*
X39961D01*
X221954Y51176D02*
X222146Y50984D01*
X210770Y51176D02*
X221954D01*
X210579Y50984D02*
Y51181D01*
X205709Y88606D02*
Y156604D01*
X210756Y56299D02*
X219587D01*
X210579Y56476D02*
X210756Y56299D01*
X186524Y88055D02*
X188386Y89917D01*
X196378Y88055D02*
X197047Y88724D01*
X34154Y52992D02*
X38091Y49055D01*
X182972Y53561D02*
Y68799D01*
X33296Y39440D02*
X33487Y39249D01*
Y38658D02*
Y39249D01*
X192126Y37518D02*
Y72835D01*
X29528Y46949D02*
X29719Y46758D01*
X210039Y156604D02*
X211114Y155529D01*
Y127864D02*
Y155529D01*
X216142Y88055D02*
X216779D01*
X205709Y88606D02*
X206260Y88055D01*
X113421Y90108D02*
X113878Y90565D01*
Y96850D01*
X192126Y37518D02*
X208167Y21476D01*
X210579D01*
X171065D02*
X173476D01*
X63090Y19055D02*
X68727Y13418D01*
X113421Y79013D02*
X113878Y78556D01*
Y71850D02*
Y78556D01*
X175888Y46476D02*
X182972Y53561D01*
X173476Y46476D02*
X175888D01*
X113126Y110484D02*
Y110531D01*
Y110484D02*
X137783Y85827D01*
Y33610D02*
Y85827D01*
X186496Y88055D02*
X186524D01*
X188386Y156604D02*
X188484Y156703D01*
X205610Y156703D02*
X205709Y156604D01*
X197047D02*
X197146Y156703D01*
X163007Y13418D02*
X171065Y21476D01*
X68727Y13418D02*
X163007D01*
X61221Y19055D02*
X63090D01*
X38091Y49055D02*
X38248D01*
X33487Y38658D02*
X38091Y34055D01*
X30388Y46758D02*
X38091Y39055D01*
X29719Y46758D02*
X30388D01*
X105118Y62008D02*
X111362D01*
X176075Y88055D02*
X176614D01*
X173031Y56921D02*
X173476Y56476D01*
X173031Y56921D02*
Y61909D01*
X38091Y44055D02*
X39961D01*
X102756Y110531D02*
X113126D01*
X113421Y89470D02*
Y90108D01*
D22*
X217677Y146250D02*
D03*
X197047Y156604D02*
D03*
X201378D02*
D03*
X205709D02*
D03*
X210039D02*
D03*
X192717D02*
D03*
X188386D02*
D03*
X184055D02*
D03*
X179724D02*
D03*
D23*
X217677Y110817D02*
D03*
D24*
X163012Y109518D02*
D03*
D25*
X210591Y106388D02*
D03*
X179961D02*
D03*
D26*
X219272Y154715D02*
D03*
D27*
X162618Y154124D02*
D03*
D28*
X210579Y56476D02*
D03*
Y51476D02*
D03*
Y46476D02*
D03*
Y41476D02*
D03*
Y36476D02*
D03*
Y31476D02*
D03*
Y26476D02*
D03*
Y21476D02*
D03*
X173476D02*
D03*
Y26476D02*
D03*
Y31476D02*
D03*
Y36476D02*
D03*
Y41476D02*
D03*
Y46476D02*
D03*
Y51476D02*
D03*
Y56476D02*
D03*
D29*
X61221Y19055D02*
D03*
Y24055D02*
D03*
Y29055D02*
D03*
Y34055D02*
D03*
Y39055D02*
D03*
Y44055D02*
D03*
Y49055D02*
D03*
X39961Y19055D02*
D03*
Y24055D02*
D03*
Y29055D02*
D03*
Y34055D02*
D03*
Y39055D02*
D03*
Y44055D02*
D03*
Y49055D02*
D03*
D30*
X159744Y51547D02*
D03*
Y42547D02*
D03*
X74606Y39595D02*
D03*
Y48594D02*
D03*
D31*
X150098Y49976D02*
D03*
Y42976D02*
D03*
D32*
X68138Y160335D02*
D03*
X60138D02*
D03*
D33*
X68272Y150000D02*
D03*
X60272D02*
D03*
X121421Y110827D02*
D03*
X113421D02*
D03*
Y90108D02*
D03*
X121421D02*
D03*
X121224Y61909D02*
D03*
X113224D02*
D03*
X113421Y79651D02*
D03*
X121421D02*
D03*
X108134Y37008D02*
D03*
X100134D02*
D03*
X100724Y46654D02*
D03*
X108724D02*
D03*
X107937Y27362D02*
D03*
X99937D02*
D03*
Y17618D02*
D03*
X107937D02*
D03*
X35100Y114202D02*
D03*
X27100D02*
D03*
X152917Y26476D02*
D03*
X144917D02*
D03*
X51315Y114567D02*
D03*
X59315D02*
D03*
D34*
X216142Y88055D02*
D03*
Y80055D02*
D03*
X206260D02*
D03*
Y88055D02*
D03*
X196378D02*
D03*
Y80055D02*
D03*
X186496D02*
D03*
Y88055D02*
D03*
X176614D02*
D03*
Y80055D02*
D03*
X166732D02*
D03*
Y88055D02*
D03*
D35*
X10827Y135728D02*
D03*
X239173D02*
D03*
Y34928D02*
D03*
D55*
X10827Y156398D02*
D03*
Y14665D02*
D03*
X239173D02*
D03*
Y156398D02*
D03*
D56*
X192717Y123130D02*
Y156604D01*
X121421Y110189D02*
X122049Y110817D01*
X121224Y59197D02*
Y61909D01*
X117059Y55032D02*
X121224Y59197D01*
X81437Y55032D02*
X117059D01*
X159744Y75071D02*
X164728Y80055D01*
X159744Y51547D02*
Y75071D01*
X166095Y80055D02*
X166732D01*
X133967Y110817D02*
X164728Y80055D01*
X122049Y110817D02*
X133967D01*
X206260Y80055D02*
X216142D01*
X196378D02*
X206260D01*
X186496D02*
X196378D01*
X176614D02*
X186496D01*
X166732D02*
X176614D01*
X173441Y51512D02*
X173476Y51476D01*
X35100Y65294D02*
X39075Y61319D01*
X35100Y65294D02*
Y114202D01*
Y119530D02*
X38700Y123130D01*
X35100Y114202D02*
Y119530D01*
X158945Y50748D02*
X159744Y51547D01*
X150870Y50748D02*
X158945D01*
X150098Y49976D02*
X150870Y50748D01*
X121421Y110189D02*
Y110827D01*
Y79651D02*
Y90108D01*
Y62106D02*
Y79651D01*
X39075Y61319D02*
X51339Y49055D01*
X61221D01*
X216303Y80216D02*
X223130D01*
X216142Y80055D02*
X216303Y80216D01*
X75000Y48594D02*
X81437Y55032D01*
X159744Y51547D02*
X159780Y51512D01*
X173441D01*
X74606Y48594D02*
X75000D01*
X121224Y61909D02*
X121421Y62106D01*
X61221Y44055D02*
Y49055D01*
X74146D02*
X74606Y48594D01*
X61221Y49055D02*
X74146D01*
D57*
X8661Y103445D02*
D03*
Y85236D02*
D03*
Y67027D02*
D03*
Y76132D02*
D03*
Y48819D02*
D03*
Y94340D02*
D03*
Y57923D02*
D03*
Y39715D02*
D03*
Y30610D02*
D03*
D58*
X84784Y143996D02*
D03*
X94784D02*
D03*
X132776D02*
D03*
X122776D02*
D03*
X34075D02*
D03*
D59*
X104783D02*
D03*
X142776D02*
D03*
D60*
X44075D02*
D03*
D61*
X153051Y106496D02*
D03*
X78600Y66402D02*
D03*
X105413Y69685D02*
D03*
X212239Y96294D02*
D03*
X181428Y97835D02*
D03*
X65158Y114567D02*
D03*
X48720Y98228D02*
D03*
X192609Y123130D02*
D03*
X38700D02*
D03*
X148400Y79902D02*
D03*
X34154Y53150D02*
D03*
X48720Y80118D02*
D03*
X52362Y75295D02*
D03*
X52264Y91732D02*
D03*
X52362Y83366D02*
D03*
X48327Y87752D02*
D03*
X92421Y36811D02*
D03*
X191634Y32480D02*
D03*
X92323Y27559D02*
D03*
X92421Y46457D02*
D03*
X50295Y43799D02*
D03*
X50374Y39055D02*
D03*
X50394Y34055D02*
D03*
X47884Y26870D02*
D03*
X54528Y23819D02*
D03*
X24409Y34449D02*
D03*
X49685Y21457D02*
D03*
X48819Y94095D02*
D03*
X179626Y117815D02*
D03*
X200787Y51181D02*
D03*
X222146Y50984D02*
D03*
X219587Y56299D02*
D03*
X188386Y143701D02*
D03*
X205807Y137795D02*
D03*
X197047Y133071D02*
D03*
X223130Y80216D02*
D03*
X113878Y96850D02*
D03*
X192126Y72835D02*
D03*
X113878Y71850D02*
D03*
X182972Y68799D02*
D03*
X33296Y39440D02*
D03*
X29528Y46949D02*
D03*
X105118Y62008D02*
D03*
X39075Y61319D02*
D03*
X173031Y61909D02*
D03*
X27953Y87519D02*
D03*
X24409Y91437D02*
D03*
X20472Y95177D02*
D03*
X102756Y110531D02*
D03*
M02*
