G04*
G04 #@! TF.GenerationSoftware,Altium Limited,Altium Designer,18.1.7 (191)*
G04*
G04 Layer_Color=32896*
%FSLAX25Y25*%
%MOIN*%
G70*
G01*
G75*
%ADD18C,0.00700*%
%ADD64C,0.00394*%
D18*
X36811Y109547D02*
Y112546D01*
X35311D01*
X34812Y112046D01*
Y111047D01*
X35311Y110547D01*
X36811D01*
X31813Y109547D02*
X33812D01*
X31813Y111547D01*
Y112046D01*
X32313Y112546D01*
X33312D01*
X33812Y112046D01*
D64*
X68405Y63957D02*
Y107579D01*
X31988Y63957D02*
X68405D01*
X31988D02*
Y107579D01*
X68405D01*
X28740Y68700D02*
Y66732D01*
X27756D01*
X27428Y67060D01*
Y68372D01*
X27756Y68700D01*
X28740D01*
X26772D02*
Y67388D01*
X26116Y66732D01*
X25460Y67388D01*
Y68700D01*
X23493Y68372D02*
X23821Y68700D01*
X24476D01*
X24804Y68372D01*
Y67060D01*
X24476Y66732D01*
X23821D01*
X23493Y67060D01*
X21525Y68372D02*
X21853Y68700D01*
X22509D01*
X22837Y68372D01*
Y67060D01*
X22509Y66732D01*
X21853D01*
X21525Y67060D01*
X27756Y70669D02*
Y71981D01*
X27100Y72637D01*
X26444Y71981D01*
Y70669D01*
Y71653D01*
X27756D01*
X25788Y70669D02*
Y72637D01*
X24476Y70669D01*
Y72637D01*
X23821D02*
X22509D01*
X23165D01*
Y70669D01*
X27756Y76673D02*
Y74705D01*
X26772D01*
X26444Y75033D01*
Y75361D01*
X26772Y75689D01*
X27756D01*
X26772D01*
X26444Y76017D01*
Y76345D01*
X26772Y76673D01*
X27756D01*
X25788Y74705D02*
Y76017D01*
X25132Y76673D01*
X24476Y76017D01*
Y74705D01*
Y75689D01*
X25788D01*
X23821Y76673D02*
X22509D01*
X23165D01*
Y74705D01*
X26444Y87959D02*
X26772Y88287D01*
X27428D01*
X27756Y87959D01*
Y86647D01*
X27428Y86319D01*
X26772D01*
X26444Y86647D01*
X25788Y88287D02*
Y86319D01*
X24476D01*
X23821Y88287D02*
Y86319D01*
Y86975D01*
X22509Y88287D01*
X23493Y87303D01*
X22509Y86319D01*
X28576Y90453D02*
Y92421D01*
X27920Y91765D01*
X27264Y92421D01*
Y90453D01*
X26608Y92421D02*
X25952D01*
X26280D01*
Y90453D01*
X26608D01*
X25952D01*
X23656Y92093D02*
X23984Y92421D01*
X24641D01*
X24968Y92093D01*
Y91765D01*
X24641Y91437D01*
X23984D01*
X23656Y91109D01*
Y90781D01*
X23984Y90453D01*
X24641D01*
X24968Y90781D01*
X22017Y92421D02*
X22673D01*
X23001Y92093D01*
Y90781D01*
X22673Y90453D01*
X22017D01*
X21689Y90781D01*
Y92093D01*
X22017Y92421D01*
X28412Y94193D02*
Y96161D01*
X27756Y95505D01*
X27100Y96161D01*
Y94193D01*
X25460Y96161D02*
X26116D01*
X26444Y95833D01*
Y94521D01*
X26116Y94193D01*
X25460D01*
X25132Y94521D01*
Y95833D01*
X25460Y96161D01*
X23165Y95833D02*
X23493Y96161D01*
X24148D01*
X24476Y95833D01*
Y95505D01*
X24148Y95177D01*
X23493D01*
X23165Y94849D01*
Y94521D01*
X23493Y94193D01*
X24148D01*
X24476Y94521D01*
X22509Y96161D02*
X21853D01*
X22181D01*
Y94193D01*
X22509D01*
X21853D01*
X78543Y101771D02*
X77887D01*
X78215D01*
Y99803D01*
X78543D01*
X77887D01*
X75591Y101443D02*
X75920Y101771D01*
X76575D01*
X76903Y101443D01*
Y100131D01*
X76575Y99803D01*
X75920D01*
X75591Y100131D01*
X73624Y99803D02*
X74936D01*
X73624Y101115D01*
Y101443D01*
X73952Y101771D01*
X74608D01*
X74936Y101443D01*
X71656D02*
X71984Y101771D01*
X72640D01*
X72968Y101443D01*
Y100131D01*
X72640Y99803D01*
X71984D01*
X71656Y100131D01*
X77723Y90125D02*
Y91437D01*
X77067Y92093D01*
X76411Y91437D01*
Y90125D01*
Y91109D01*
X77723D01*
X75756Y92093D02*
Y90125D01*
X74772D01*
X74444Y90453D01*
Y91764D01*
X74772Y92093D01*
X75756D01*
X72476Y91764D02*
X72804Y92093D01*
X73460D01*
X73788Y91764D01*
Y90453D01*
X73460Y90125D01*
X72804D01*
X72476Y90453D01*
X77231Y82086D02*
X77559Y82414D01*
X78215D01*
X78543Y82086D01*
Y80774D01*
X78215Y80446D01*
X77559D01*
X77231Y80774D01*
Y81430D01*
X77887D01*
X76575Y80446D02*
Y82414D01*
X75591D01*
X75264Y82086D01*
Y81430D01*
X75591Y81102D01*
X76575D01*
X74608Y82414D02*
X73952D01*
X74280D01*
Y80446D01*
X74608D01*
X73952D01*
X71984Y82414D02*
X72640D01*
X72968Y82086D01*
Y80774D01*
X72640Y80446D01*
X71984D01*
X71656Y80774D01*
Y82086D01*
X71984Y82414D01*
X76411Y72408D02*
X76739Y72736D01*
X77395D01*
X77723Y72408D01*
Y71096D01*
X77395Y70768D01*
X76739D01*
X76411Y71096D01*
Y71752D01*
X77067D01*
X75756Y70768D02*
Y72736D01*
X74444Y70768D01*
Y72736D01*
X73788D02*
Y70768D01*
X72804D01*
X72476Y71096D01*
Y72408D01*
X72804Y72736D01*
X73788D01*
X25460Y102230D02*
X25788Y102558D01*
X26444D01*
X26772Y102230D01*
Y100918D01*
X26444Y100591D01*
X25788D01*
X25460Y100918D01*
X23493Y102230D02*
X23821Y102558D01*
X24476D01*
X24804Y102230D01*
Y101902D01*
X24476Y101575D01*
X23821D01*
X23493Y101247D01*
Y100918D01*
X23821Y100591D01*
X24476D01*
X24804Y100918D01*
X27264Y82447D02*
X27592Y82775D01*
X28248D01*
X28576Y82447D01*
Y81135D01*
X28248Y80807D01*
X27592D01*
X27264Y81135D01*
Y81791D01*
X27920D01*
X26608Y80807D02*
Y82775D01*
X25624D01*
X25296Y82447D01*
Y81791D01*
X25624Y81463D01*
X26608D01*
X24641Y82775D02*
X23984D01*
X24313D01*
Y80807D01*
X24641D01*
X23984D01*
X22017Y82775D02*
X22673D01*
X23001Y82447D01*
Y81135D01*
X22673Y80807D01*
X22017D01*
X21689Y81135D01*
Y82447D01*
X22017Y82775D01*
M02*
