G04*
G04 #@! TF.GenerationSoftware,Altium Limited,Altium Designer,18.1.7 (191)*
G04*
G04 Layer_Physical_Order=2*
G04 Layer_Color=16711680*
%FSLAX25Y25*%
%MOIN*%
G70*
G01*
G75*
%ADD12C,0.01000*%
%ADD55C,0.15748*%
%ADD56C,0.02000*%
%ADD57C,0.04000*%
%ADD58R,0.07000X0.07000*%
%ADD59C,0.07000*%
%ADD60R,0.07000X0.07000*%
%ADD61C,0.02362*%
%ADD62R,0.11811X0.02402*%
G36*
X189296Y144465D02*
X189369Y144410D01*
X189448Y144361D01*
X189533Y144318D01*
X189623Y144282D01*
X189720Y144253D01*
X189822Y144230D01*
X189930Y144214D01*
X190044Y144204D01*
X190164Y144201D01*
Y143201D01*
X190044Y143198D01*
X189930Y143188D01*
X189822Y143171D01*
X189720Y143149D01*
X189623Y143119D01*
X189533Y143083D01*
X189448Y143041D01*
X189369Y142992D01*
X189296Y142936D01*
X189229Y142874D01*
Y144527D01*
X189296Y144465D01*
D02*
G37*
G36*
X187542Y142874D02*
X187475Y142936D01*
X187402Y142992D01*
X187324Y143041D01*
X187239Y143083D01*
X187148Y143119D01*
X187052Y143149D01*
X186950Y143171D01*
X186841Y143188D01*
X186727Y143198D01*
X186607Y143201D01*
Y144201D01*
X186727Y144204D01*
X186841Y144214D01*
X186950Y144230D01*
X187052Y144253D01*
X187148Y144282D01*
X187239Y144318D01*
X187324Y144361D01*
X187402Y144410D01*
X187475Y144465D01*
X187542Y144527D01*
Y142874D01*
D02*
G37*
G36*
X146262Y144606D02*
X146292Y144521D01*
X146343Y144446D01*
X146414Y144381D01*
X146505Y144326D01*
X146616Y144281D01*
X146748Y144246D01*
X146899Y144221D01*
X147071Y144206D01*
X147264Y144201D01*
Y143201D01*
X147071Y143196D01*
X146899Y143181D01*
X146748Y143156D01*
X146616Y143121D01*
X146505Y143076D01*
X146414Y143021D01*
X146343Y142956D01*
X146292Y142881D01*
X146262Y142796D01*
X146252Y142701D01*
Y144701D01*
X146262Y144606D01*
D02*
G37*
G36*
X136278Y143434D02*
X136335Y142495D01*
X136388Y142083D01*
X136459Y141709D01*
X136546Y141374D01*
X136650Y141077D01*
X136771Y140818D01*
X136909Y140597D01*
X137064Y140415D01*
X136356Y139708D01*
X136174Y139863D01*
X135954Y140001D01*
X135695Y140121D01*
X135398Y140226D01*
X135062Y140313D01*
X134688Y140383D01*
X134276Y140437D01*
X133337Y140493D01*
X132811Y140496D01*
X136275Y143961D01*
X136278Y143434D01*
D02*
G37*
G36*
X126278D02*
X126335Y142495D01*
X126388Y142083D01*
X126459Y141709D01*
X126546Y141374D01*
X126650Y141077D01*
X126771Y140818D01*
X126909Y140597D01*
X127064Y140415D01*
X126356Y139708D01*
X126174Y139863D01*
X125954Y140001D01*
X125695Y140121D01*
X125398Y140226D01*
X125062Y140313D01*
X124688Y140383D01*
X124276Y140437D01*
X123337Y140493D01*
X122811Y140496D01*
X126275Y143961D01*
X126278Y143434D01*
D02*
G37*
G36*
X204964Y136969D02*
X204897Y137031D01*
X204824Y137086D01*
X204745Y137135D01*
X204660Y137178D01*
X204570Y137214D01*
X204473Y137243D01*
X204371Y137266D01*
X204263Y137282D01*
X204148Y137292D01*
X204028Y137295D01*
Y138295D01*
X204148Y138298D01*
X204263Y138308D01*
X204371Y138325D01*
X204473Y138348D01*
X204570Y138377D01*
X204660Y138413D01*
X204745Y138455D01*
X204824Y138504D01*
X204897Y138560D01*
X204964Y138622D01*
Y136969D01*
D02*
G37*
G36*
X206992Y137692D02*
X207004Y137601D01*
X207025Y137511D01*
X207055Y137421D01*
X207093Y137332D01*
X207141Y137243D01*
X207197Y137154D01*
X207262Y137066D01*
X207336Y136978D01*
X207418Y136891D01*
X206711Y136184D01*
X206624Y136267D01*
X206536Y136340D01*
X206448Y136405D01*
X206360Y136461D01*
X206271Y136509D01*
X206181Y136548D01*
X206091Y136577D01*
X206001Y136599D01*
X205910Y136611D01*
X205819Y136614D01*
X206988Y137784D01*
X206992Y137692D01*
D02*
G37*
G36*
X196204Y132244D02*
X196137Y132306D01*
X196064Y132362D01*
X195985Y132411D01*
X195900Y132453D01*
X195810Y132489D01*
X195713Y132519D01*
X195611Y132542D01*
X195503Y132558D01*
X195389Y132568D01*
X195268Y132571D01*
Y133571D01*
X195389Y133574D01*
X195503Y133584D01*
X195611Y133600D01*
X195713Y133623D01*
X195810Y133652D01*
X195900Y133688D01*
X195985Y133731D01*
X196064Y133780D01*
X196137Y133835D01*
X196204Y133898D01*
Y132244D01*
D02*
G37*
G36*
X198232Y132968D02*
X198244Y132877D01*
X198265Y132787D01*
X198295Y132697D01*
X198334Y132607D01*
X198381Y132518D01*
X198437Y132430D01*
X198502Y132342D01*
X198576Y132254D01*
X198659Y132167D01*
X197951Y131460D01*
X197864Y131542D01*
X197777Y131616D01*
X197688Y131681D01*
X197600Y131737D01*
X197511Y131784D01*
X197422Y131823D01*
X197332Y131853D01*
X197241Y131874D01*
X197150Y131886D01*
X197059Y131890D01*
X198228Y133059D01*
X198232Y132968D01*
D02*
G37*
G36*
X179614Y116634D02*
X179523Y116630D01*
X179432Y116618D01*
X179342Y116597D01*
X179252Y116567D01*
X179162Y116529D01*
X179073Y116481D01*
X178985Y116425D01*
X178897Y116360D01*
X178809Y116286D01*
X178722Y116204D01*
X178015Y116911D01*
X178097Y116998D01*
X178171Y117086D01*
X178236Y117174D01*
X178292Y117262D01*
X178340Y117351D01*
X178378Y117441D01*
X178408Y117531D01*
X178429Y117621D01*
X178442Y117712D01*
X178445Y117803D01*
X179614Y116634D01*
D02*
G37*
G36*
X66068Y115332D02*
X66141Y115276D01*
X66220Y115227D01*
X66304Y115185D01*
X66395Y115149D01*
X66491Y115119D01*
X66594Y115096D01*
X66702Y115080D01*
X66816Y115070D01*
X66936Y115067D01*
Y114067D01*
X66816Y114064D01*
X66702Y114054D01*
X66594Y114038D01*
X66491Y114015D01*
X66395Y113985D01*
X66304Y113949D01*
X66220Y113907D01*
X66141Y113858D01*
X66068Y113802D01*
X66001Y113740D01*
Y115394D01*
X66068Y115332D01*
D02*
G37*
G36*
X101912Y109705D02*
X101845Y109767D01*
X101772Y109822D01*
X101694Y109871D01*
X101609Y109914D01*
X101518Y109950D01*
X101422Y109979D01*
X101320Y110002D01*
X101211Y110018D01*
X101097Y110028D01*
X100977Y110031D01*
Y111031D01*
X101097Y111035D01*
X101211Y111045D01*
X101320Y111061D01*
X101422Y111084D01*
X101518Y111113D01*
X101609Y111149D01*
X101694Y111192D01*
X101772Y111241D01*
X101845Y111296D01*
X101912Y111358D01*
Y109705D01*
D02*
G37*
G36*
X45774Y104437D02*
X45575Y104231D01*
X45261Y103861D01*
X45147Y103699D01*
X45061Y103550D01*
X45003Y103416D01*
X44973Y103296D01*
X44972Y103190D01*
X44999Y103099D01*
X45055Y103023D01*
X43652Y104425D01*
X43729Y104369D01*
X43820Y104342D01*
X43926Y104344D01*
X44046Y104373D01*
X44180Y104431D01*
X44328Y104517D01*
X44491Y104631D01*
X44669Y104774D01*
X45067Y105144D01*
X45774Y104437D01*
D02*
G37*
G36*
X33292Y102347D02*
X33282Y102442D01*
X33251Y102526D01*
X33201Y102601D01*
X33130Y102666D01*
X33039Y102722D01*
X32927Y102767D01*
X32796Y102801D01*
X32644Y102826D01*
X32472Y102841D01*
X32280Y102847D01*
Y103847D01*
X32472Y103851D01*
X32644Y103867D01*
X32796Y103892D01*
X32927Y103926D01*
X33039Y103972D01*
X33130Y104026D01*
X33201Y104092D01*
X33251Y104166D01*
X33282Y104251D01*
X33292Y104347D01*
Y102347D01*
D02*
G37*
G36*
X10322Y104597D02*
X10487Y104439D01*
X10652Y104300D01*
X10818Y104180D01*
X10984Y104078D01*
X11151Y103995D01*
X11318Y103930D01*
X11485Y103884D01*
X11653Y103856D01*
X11821Y103847D01*
X11770Y102847D01*
X11607Y102838D01*
X11441Y102812D01*
X11272Y102768D01*
X11101Y102707D01*
X10927Y102629D01*
X10751Y102533D01*
X10572Y102420D01*
X10390Y102289D01*
X10206Y102142D01*
X10019Y101976D01*
X10157Y104773D01*
X10322Y104597D01*
D02*
G37*
G36*
X45065Y100216D02*
X45095Y100131D01*
X45146Y100056D01*
X45217Y99991D01*
X45308Y99936D01*
X45419Y99891D01*
X45551Y99856D01*
X45702Y99831D01*
X45875Y99816D01*
X46067Y99811D01*
Y98811D01*
X45875Y98806D01*
X45702Y98791D01*
X45551Y98766D01*
X45419Y98731D01*
X45308Y98686D01*
X45217Y98631D01*
X45146Y98566D01*
X45095Y98491D01*
X45065Y98406D01*
X45055Y98311D01*
Y100311D01*
X45065Y100216D01*
D02*
G37*
G36*
X33292Y98311D02*
X33282Y98406D01*
X33251Y98491D01*
X33201Y98566D01*
X33130Y98631D01*
X33039Y98686D01*
X32927Y98731D01*
X32796Y98766D01*
X32644Y98791D01*
X32472Y98806D01*
X32280Y98811D01*
Y99811D01*
X32472Y99816D01*
X32644Y99831D01*
X32796Y99856D01*
X32927Y99891D01*
X33039Y99936D01*
X33130Y99991D01*
X33201Y100056D01*
X33251Y100131D01*
X33282Y100216D01*
X33292Y100311D01*
Y98311D01*
D02*
G37*
G36*
X114788Y97615D02*
X114861Y97559D01*
X114940Y97510D01*
X115025Y97468D01*
X115115Y97432D01*
X115212Y97403D01*
X115314Y97380D01*
X115422Y97364D01*
X115537Y97354D01*
X115657Y97350D01*
Y96350D01*
X115537Y96347D01*
X115422Y96337D01*
X115314Y96321D01*
X115212Y96298D01*
X115115Y96269D01*
X115025Y96233D01*
X114940Y96190D01*
X114861Y96141D01*
X114788Y96086D01*
X114721Y96024D01*
Y97677D01*
X114788Y97615D01*
D02*
G37*
G36*
X21315Y96015D02*
X21392Y95965D01*
X21474Y95920D01*
X21561Y95882D01*
X21654Y95850D01*
X21753Y95823D01*
X21856Y95802D01*
X21965Y95787D01*
X22080Y95779D01*
X22199Y95776D01*
X22292Y94776D01*
X22171Y94772D01*
X22058Y94762D01*
X21950Y94744D01*
X21849Y94719D01*
X21755Y94688D01*
X21667Y94649D01*
X21586Y94603D01*
X21512Y94550D01*
X21443Y94490D01*
X21382Y94424D01*
X21244Y96071D01*
X21315Y96015D01*
D02*
G37*
G36*
X45065Y96279D02*
X45095Y96194D01*
X45146Y96119D01*
X45217Y96054D01*
X45308Y95999D01*
X45419Y95954D01*
X45551Y95919D01*
X45702Y95894D01*
X45875Y95879D01*
X46067Y95874D01*
Y94874D01*
X45875Y94869D01*
X45702Y94854D01*
X45551Y94829D01*
X45419Y94794D01*
X45308Y94749D01*
X45217Y94694D01*
X45146Y94629D01*
X45095Y94554D01*
X45065Y94469D01*
X45055Y94374D01*
Y96374D01*
X45065Y96279D01*
D02*
G37*
G36*
X11233Y96205D02*
X11122Y96081D01*
X11023Y95944D01*
X10936Y95793D01*
X10861Y95629D01*
X10798Y95452D01*
X10747Y95261D01*
X10707Y95056D01*
X10680Y94838D01*
X10665Y94606D01*
X10661Y94361D01*
X8681Y96340D01*
X8927Y96344D01*
X9377Y96387D01*
X9581Y96426D01*
X9773Y96477D01*
X9950Y96540D01*
X10114Y96615D01*
X10265Y96702D01*
X10402Y96801D01*
X10526Y96912D01*
X11233Y96205D01*
D02*
G37*
G36*
X33292Y94276D02*
X33282Y94371D01*
X33251Y94456D01*
X33201Y94531D01*
X33130Y94596D01*
X33039Y94651D01*
X32927Y94696D01*
X32796Y94731D01*
X32644Y94756D01*
X32472Y94771D01*
X32280Y94776D01*
Y95776D01*
X32472Y95781D01*
X32644Y95796D01*
X32796Y95821D01*
X32927Y95856D01*
X33039Y95901D01*
X33130Y95956D01*
X33201Y96021D01*
X33251Y96096D01*
X33282Y96181D01*
X33292Y96276D01*
Y94276D01*
D02*
G37*
G36*
X47818Y95537D02*
X47906Y95465D01*
X47994Y95403D01*
X48083Y95351D01*
X48171Y95310D01*
X48260Y95279D01*
X48349Y95258D01*
X48438Y95248D01*
X48527Y95248D01*
X48616Y95258D01*
X47651Y93915D01*
X47635Y94002D01*
X47610Y94089D01*
X47578Y94176D01*
X47539Y94263D01*
X47493Y94350D01*
X47439Y94437D01*
X47379Y94524D01*
X47310Y94611D01*
X47152Y94784D01*
X47730Y95620D01*
X47818Y95537D01*
D02*
G37*
G36*
X51530Y90807D02*
X51458Y90859D01*
X51379Y90907D01*
X51296Y90948D01*
X51208Y90984D01*
X51114Y91015D01*
X51015Y91040D01*
X50911Y91060D01*
X50802Y91074D01*
X50687Y91082D01*
X50567Y91085D01*
X50428Y92085D01*
X50548Y92088D01*
X50662Y92099D01*
X50769Y92117D01*
X50869Y92143D01*
X50962Y92175D01*
X51048Y92215D01*
X51127Y92262D01*
X51200Y92317D01*
X51265Y92378D01*
X51324Y92447D01*
X51530Y90807D01*
D02*
G37*
G36*
X25320Y92202D02*
X25393Y92146D01*
X25472Y92097D01*
X25556Y92055D01*
X25647Y92019D01*
X25743Y91989D01*
X25846Y91966D01*
X25954Y91950D01*
X26068Y91940D01*
X26188Y91937D01*
Y90937D01*
X26068Y90934D01*
X25954Y90924D01*
X25846Y90908D01*
X25743Y90885D01*
X25647Y90855D01*
X25556Y90819D01*
X25472Y90777D01*
X25393Y90728D01*
X25320Y90672D01*
X25253Y90610D01*
Y92264D01*
X25320Y92202D01*
D02*
G37*
G36*
X45065Y92490D02*
X45095Y92405D01*
X45146Y92330D01*
X45217Y92265D01*
X45308Y92210D01*
X45419Y92165D01*
X45551Y92130D01*
X45702Y92105D01*
X45875Y92090D01*
X46067Y92085D01*
Y91085D01*
X45875Y91080D01*
X45702Y91065D01*
X45551Y91040D01*
X45419Y91005D01*
X45308Y90960D01*
X45217Y90905D01*
X45146Y90840D01*
X45095Y90765D01*
X45065Y90680D01*
X45055Y90585D01*
Y92585D01*
X45065Y92490D01*
D02*
G37*
G36*
X33292Y90437D02*
X33282Y90532D01*
X33251Y90617D01*
X33201Y90692D01*
X33130Y90757D01*
X33039Y90812D01*
X32927Y90857D01*
X32796Y90892D01*
X32644Y90917D01*
X32472Y90932D01*
X32280Y90937D01*
Y91937D01*
X32472Y91942D01*
X32644Y91957D01*
X32796Y91982D01*
X32927Y92017D01*
X33039Y92062D01*
X33130Y92117D01*
X33201Y92182D01*
X33251Y92257D01*
X33282Y92342D01*
X33292Y92437D01*
Y90437D01*
D02*
G37*
G36*
X47576Y86840D02*
X47504Y86894D01*
X47427Y86943D01*
X47344Y86986D01*
X47256Y87023D01*
X47163Y87054D01*
X47064Y87080D01*
X46960Y87100D01*
X46851Y87114D01*
X46736Y87123D01*
X46617Y87126D01*
X46498Y88126D01*
X46618Y88129D01*
X46732Y88140D01*
X46839Y88158D01*
X46939Y88183D01*
X47033Y88215D01*
X47120Y88255D01*
X47200Y88301D01*
X47273Y88355D01*
X47340Y88416D01*
X47400Y88484D01*
X47576Y86840D01*
D02*
G37*
G36*
X28869Y88276D02*
X28942Y88220D01*
X29020Y88171D01*
X29105Y88128D01*
X29195Y88092D01*
X29291Y88062D01*
X29394Y88039D01*
X29502Y88023D01*
X29616Y88013D01*
X29736Y88009D01*
X29727Y87009D01*
X29607Y87006D01*
X29493Y86997D01*
X29384Y86980D01*
X29282Y86958D01*
X29185Y86928D01*
X29094Y86893D01*
X29010Y86851D01*
X28930Y86802D01*
X28857Y86747D01*
X28790Y86685D01*
X28803Y88339D01*
X28869Y88276D01*
D02*
G37*
G36*
X45065Y88531D02*
X45095Y88446D01*
X45146Y88371D01*
X45217Y88306D01*
X45308Y88251D01*
X45419Y88206D01*
X45551Y88171D01*
X45702Y88146D01*
X45875Y88131D01*
X46067Y88126D01*
Y87126D01*
X45875Y87121D01*
X45702Y87106D01*
X45551Y87081D01*
X45419Y87046D01*
X45308Y87001D01*
X45217Y86946D01*
X45146Y86881D01*
X45095Y86806D01*
X45065Y86721D01*
X45055Y86626D01*
Y88626D01*
X45065Y88531D01*
D02*
G37*
G36*
X33292Y86509D02*
X33282Y86604D01*
X33251Y86689D01*
X33201Y86764D01*
X33130Y86829D01*
X33039Y86884D01*
X32927Y86929D01*
X32796Y86964D01*
X32644Y86989D01*
X32472Y87004D01*
X32280Y87009D01*
Y88009D01*
X32472Y88014D01*
X32644Y88029D01*
X32796Y88054D01*
X32927Y88089D01*
X33039Y88134D01*
X33130Y88189D01*
X33201Y88254D01*
X33251Y88329D01*
X33282Y88414D01*
X33292Y88509D01*
Y86509D01*
D02*
G37*
G36*
X53205Y84204D02*
X53282Y84154D01*
X53364Y84109D01*
X53451Y84071D01*
X53544Y84039D01*
X53642Y84012D01*
X53746Y83991D01*
X53855Y83976D01*
X53969Y83968D01*
X54089Y83965D01*
X54182Y82965D01*
X54061Y82961D01*
X53947Y82951D01*
X53840Y82933D01*
X53739Y82908D01*
X53645Y82877D01*
X53557Y82838D01*
X53476Y82792D01*
X53401Y82739D01*
X53333Y82679D01*
X53272Y82613D01*
X53134Y84260D01*
X53205Y84204D01*
D02*
G37*
G36*
X45065Y84468D02*
X45095Y84383D01*
X45146Y84308D01*
X45217Y84243D01*
X45308Y84188D01*
X45419Y84143D01*
X45551Y84108D01*
X45702Y84083D01*
X45875Y84068D01*
X46067Y84063D01*
Y83063D01*
X45875Y83058D01*
X45702Y83043D01*
X45551Y83018D01*
X45419Y82983D01*
X45308Y82938D01*
X45217Y82883D01*
X45146Y82818D01*
X45095Y82743D01*
X45065Y82658D01*
X45055Y82563D01*
Y84563D01*
X45065Y84468D01*
D02*
G37*
G36*
X33292Y82563D02*
X33282Y82658D01*
X33251Y82743D01*
X33201Y82818D01*
X33130Y82883D01*
X33039Y82938D01*
X32927Y82983D01*
X32796Y83018D01*
X32644Y83043D01*
X32472Y83058D01*
X32280Y83063D01*
Y84063D01*
X32472Y84068D01*
X32644Y84083D01*
X32796Y84108D01*
X32927Y84143D01*
X33039Y84188D01*
X33130Y84243D01*
X33201Y84308D01*
X33251Y84383D01*
X33282Y84468D01*
X33292Y84563D01*
Y82563D01*
D02*
G37*
G36*
X55339Y82465D02*
X55329Y82560D01*
X55299Y82645D01*
X55248Y82720D01*
X55177Y82785D01*
X55086Y82840D01*
X54975Y82885D01*
X54843Y82920D01*
X54691Y82945D01*
X54519Y82960D01*
X54327Y82965D01*
Y83965D01*
X54519Y83970D01*
X54691Y83985D01*
X54843Y84010D01*
X54975Y84045D01*
X55086Y84090D01*
X55177Y84145D01*
X55248Y84210D01*
X55299Y84285D01*
X55329Y84370D01*
X55339Y84465D01*
Y82465D01*
D02*
G37*
G36*
X49686Y81647D02*
X49773Y81573D01*
X49861Y81508D01*
X49950Y81452D01*
X50039Y81404D01*
X50128Y81366D01*
X50218Y81336D01*
X50309Y81315D01*
X50400Y81303D01*
X50491Y81299D01*
X49322Y80130D01*
X49318Y80221D01*
X49306Y80312D01*
X49285Y80402D01*
X49255Y80492D01*
X49216Y80582D01*
X49169Y80671D01*
X49113Y80759D01*
X49048Y80848D01*
X48974Y80935D01*
X48891Y81022D01*
X49598Y81729D01*
X49686Y81647D01*
D02*
G37*
G36*
X67112Y80531D02*
X67142Y80446D01*
X67193Y80371D01*
X67264Y80306D01*
X67355Y80251D01*
X67466Y80206D01*
X67598Y80171D01*
X67750Y80146D01*
X67922Y80131D01*
X68114Y80126D01*
Y79126D01*
X67922Y79121D01*
X67750Y79106D01*
X67598Y79081D01*
X67466Y79046D01*
X67355Y79001D01*
X67264Y78946D01*
X67193Y78881D01*
X67142Y78806D01*
X67112Y78721D01*
X67102Y78626D01*
Y80626D01*
X67112Y80531D01*
D02*
G37*
G36*
X45065D02*
X45095Y80446D01*
X45146Y80371D01*
X45217Y80306D01*
X45308Y80251D01*
X45419Y80206D01*
X45551Y80171D01*
X45702Y80146D01*
X45875Y80131D01*
X46067Y80126D01*
Y79126D01*
X45875Y79121D01*
X45702Y79106D01*
X45551Y79081D01*
X45419Y79046D01*
X45308Y79001D01*
X45217Y78946D01*
X45146Y78881D01*
X45095Y78806D01*
X45065Y78721D01*
X45055Y78626D01*
Y80626D01*
X45065Y80531D01*
D02*
G37*
G36*
X33292Y78626D02*
X33282Y78721D01*
X33251Y78806D01*
X33201Y78881D01*
X33130Y78946D01*
X33039Y79001D01*
X32927Y79046D01*
X32796Y79081D01*
X32644Y79106D01*
X32472Y79121D01*
X32280Y79126D01*
Y80126D01*
X32472Y80131D01*
X32644Y80146D01*
X32796Y80171D01*
X32927Y80206D01*
X33039Y80251D01*
X33130Y80306D01*
X33201Y80371D01*
X33251Y80446D01*
X33282Y80531D01*
X33292Y80626D01*
Y78626D01*
D02*
G37*
G36*
X11233Y77996D02*
X11122Y77873D01*
X11023Y77736D01*
X10936Y77585D01*
X10861Y77421D01*
X10798Y77243D01*
X10747Y77052D01*
X10707Y76847D01*
X10680Y76629D01*
X10665Y76397D01*
X10661Y76152D01*
X8681Y78132D01*
X8927Y78135D01*
X9377Y78178D01*
X9581Y78217D01*
X9773Y78268D01*
X9950Y78332D01*
X10114Y78407D01*
X10265Y78493D01*
X10402Y78592D01*
X10526Y78703D01*
X11233Y77996D01*
D02*
G37*
G36*
X49380Y77218D02*
X49468Y77144D01*
X49556Y77079D01*
X49644Y77023D01*
X49733Y76975D01*
X49823Y76937D01*
X49913Y76907D01*
X50003Y76886D01*
X50094Y76873D01*
X50185Y76870D01*
X49016Y75701D01*
X49012Y75792D01*
X49000Y75883D01*
X48979Y75973D01*
X48949Y76063D01*
X48911Y76153D01*
X48863Y76242D01*
X48807Y76330D01*
X48742Y76418D01*
X48668Y76506D01*
X48586Y76593D01*
X49293Y77300D01*
X49380Y77218D01*
D02*
G37*
G36*
X62125Y74490D02*
X62041Y74460D01*
X61966Y74410D01*
X61901Y74340D01*
X61845Y74250D01*
X61800Y74140D01*
X61765Y74010D01*
X61740Y73860D01*
X61728Y73719D01*
X61740Y73576D01*
X61765Y73425D01*
X61800Y73293D01*
X61845Y73182D01*
X61901Y73091D01*
X61966Y73020D01*
X62041Y72969D01*
X62125Y72939D01*
X62221Y72929D01*
X60220D01*
X60316Y72939D01*
X60400Y72969D01*
X60475Y73020D01*
X60540Y73091D01*
X60596Y73182D01*
X60641Y73293D01*
X60676Y73425D01*
X60701Y73576D01*
X60713Y73719D01*
X60701Y73860D01*
X60676Y74010D01*
X60641Y74140D01*
X60596Y74250D01*
X60540Y74340D01*
X60475Y74410D01*
X60400Y74460D01*
X60316Y74490D01*
X60220Y74500D01*
X62221D01*
X62125Y74490D01*
D02*
G37*
G36*
X191309Y74363D02*
X191397Y74290D01*
X191485Y74225D01*
X191573Y74168D01*
X191662Y74121D01*
X191752Y74082D01*
X191842Y74053D01*
X191932Y74031D01*
X192023Y74019D01*
X192114Y74016D01*
X190945Y72847D01*
X190942Y72938D01*
X190929Y73029D01*
X190908Y73119D01*
X190878Y73209D01*
X190840Y73298D01*
X190792Y73387D01*
X190736Y73476D01*
X190671Y73564D01*
X190597Y73652D01*
X190515Y73739D01*
X191222Y74446D01*
X191309Y74363D01*
D02*
G37*
G36*
X114788Y72615D02*
X114861Y72559D01*
X114940Y72510D01*
X115025Y72468D01*
X115115Y72432D01*
X115212Y72403D01*
X115314Y72380D01*
X115422Y72364D01*
X115537Y72354D01*
X115657Y72350D01*
Y71350D01*
X115537Y71347D01*
X115422Y71337D01*
X115314Y71321D01*
X115212Y71298D01*
X115115Y71269D01*
X115025Y71233D01*
X114940Y71190D01*
X114861Y71141D01*
X114788Y71086D01*
X114721Y71024D01*
Y72677D01*
X114788Y72615D01*
D02*
G37*
G36*
X69629Y70925D02*
X69562Y70987D01*
X69489Y71043D01*
X69410Y71092D01*
X69326Y71134D01*
X69235Y71170D01*
X69138Y71200D01*
X69036Y71223D01*
X68928Y71239D01*
X68814Y71249D01*
X68694Y71252D01*
X68694Y72252D01*
X68814Y72255D01*
X68928Y72265D01*
X69036Y72281D01*
X69138Y72304D01*
X69235Y72334D01*
X69326Y72370D01*
X69410Y72412D01*
X69489Y72461D01*
X69562Y72517D01*
X69629Y72579D01*
X69629Y70925D01*
D02*
G37*
G36*
X67112Y72657D02*
X67142Y72572D01*
X67193Y72497D01*
X67264Y72432D01*
X67355Y72377D01*
X67466Y72332D01*
X67598Y72297D01*
X67750Y72272D01*
X67922Y72257D01*
X68114Y72252D01*
Y71252D01*
X67922Y71247D01*
X67750Y71232D01*
X67598Y71207D01*
X67466Y71172D01*
X67355Y71127D01*
X67264Y71072D01*
X67193Y71007D01*
X67142Y70932D01*
X67112Y70847D01*
X67102Y70752D01*
Y72752D01*
X67112Y72657D01*
D02*
G37*
G36*
X62125Y70553D02*
X62041Y70523D01*
X61966Y70473D01*
X61901Y70403D01*
X61845Y70313D01*
X61800Y70203D01*
X61765Y70073D01*
X61740Y69923D01*
X61728Y69782D01*
X61740Y69639D01*
X61765Y69488D01*
X61800Y69356D01*
X61845Y69245D01*
X61901Y69154D01*
X61966Y69083D01*
X62041Y69032D01*
X62125Y69002D01*
X62221Y68992D01*
X60220D01*
X60316Y69002D01*
X60400Y69032D01*
X60475Y69083D01*
X60540Y69154D01*
X60596Y69245D01*
X60641Y69356D01*
X60676Y69488D01*
X60701Y69639D01*
X60713Y69782D01*
X60701Y69923D01*
X60676Y70073D01*
X60641Y70203D01*
X60596Y70313D01*
X60540Y70403D01*
X60475Y70473D01*
X60400Y70523D01*
X60316Y70553D01*
X60220Y70563D01*
X62221D01*
X62125Y70553D01*
D02*
G37*
G36*
X182155Y70328D02*
X182243Y70254D01*
X182331Y70189D01*
X182420Y70133D01*
X182509Y70086D01*
X182598Y70047D01*
X182688Y70017D01*
X182779Y69996D01*
X182869Y69984D01*
X182961Y69980D01*
X181791Y68811D01*
X181788Y68902D01*
X181776Y68993D01*
X181755Y69083D01*
X181725Y69173D01*
X181686Y69263D01*
X181639Y69352D01*
X181582Y69440D01*
X181518Y69529D01*
X181444Y69616D01*
X181361Y69703D01*
X182068Y70411D01*
X182155Y70328D01*
D02*
G37*
G36*
X40983Y66606D02*
X40813Y66546D01*
X40663Y66446D01*
X40533Y66306D01*
X40423Y66126D01*
X40333Y65906D01*
X40263Y65646D01*
X40213Y65346D01*
X40183Y65006D01*
X40173Y64626D01*
X38173D01*
X38163Y65006D01*
X38133Y65346D01*
X38083Y65646D01*
X38013Y65906D01*
X37923Y66126D01*
X37813Y66306D01*
X37683Y66446D01*
X37533Y66546D01*
X37363Y66606D01*
X37173Y66626D01*
X41173D01*
X40983Y66606D01*
D02*
G37*
G36*
X10665Y66762D02*
X10707Y66312D01*
X10747Y66108D01*
X10798Y65916D01*
X10861Y65739D01*
X10936Y65575D01*
X11023Y65424D01*
X11122Y65287D01*
X11233Y65163D01*
X10526Y64456D01*
X10402Y64567D01*
X10265Y64666D01*
X10114Y64753D01*
X9950Y64828D01*
X9773Y64891D01*
X9581Y64942D01*
X9377Y64982D01*
X9159Y65009D01*
X8927Y65024D01*
X8681Y65028D01*
X10661Y67008D01*
X10665Y66762D01*
D02*
G37*
G36*
X104301Y63537D02*
X104389Y63463D01*
X104477Y63398D01*
X104565Y63342D01*
X104654Y63294D01*
X104744Y63256D01*
X104834Y63226D01*
X104924Y63205D01*
X105015Y63192D01*
X105106Y63189D01*
X103937Y62020D01*
X103934Y62111D01*
X103921Y62202D01*
X103900Y62292D01*
X103870Y62382D01*
X103832Y62472D01*
X103784Y62561D01*
X103728Y62649D01*
X103663Y62737D01*
X103589Y62825D01*
X103507Y62912D01*
X104214Y63619D01*
X104301Y63537D01*
D02*
G37*
G36*
X106060Y62734D02*
X106130Y62676D01*
X106207Y62625D01*
X106290Y62581D01*
X106379Y62544D01*
X106475Y62513D01*
X106576Y62489D01*
X106684Y62472D01*
X106798Y62462D01*
X106919Y62459D01*
X106872Y61459D01*
X106753Y61456D01*
X106638Y61446D01*
X106530Y61431D01*
X106427Y61409D01*
X106329Y61381D01*
X106237Y61346D01*
X106151Y61306D01*
X106071Y61259D01*
X105996Y61206D01*
X105926Y61147D01*
X105995Y62799D01*
X106060Y62734D01*
D02*
G37*
G36*
X172154Y61119D02*
X172090Y61183D01*
X172019Y61241D01*
X171942Y61292D01*
X171859Y61336D01*
X171770Y61374D01*
X171675Y61404D01*
X171573Y61428D01*
X171465Y61445D01*
X171351Y61455D01*
X171231Y61459D01*
X171277Y62459D01*
X171397Y62462D01*
X171511Y62471D01*
X171620Y62487D01*
X171723Y62509D01*
X171820Y62537D01*
X171912Y62571D01*
X171999Y62612D01*
X172079Y62658D01*
X172154Y62711D01*
X172223Y62771D01*
X172154Y61119D01*
D02*
G37*
G36*
X105106Y60827D02*
X105015Y60823D01*
X104924Y60811D01*
X104834Y60790D01*
X104744Y60760D01*
X104654Y60722D01*
X104565Y60674D01*
X104477Y60618D01*
X104389Y60553D01*
X104301Y60479D01*
X104214Y60397D01*
X103507Y61104D01*
X103589Y61191D01*
X103663Y61278D01*
X103728Y61367D01*
X103784Y61455D01*
X103832Y61544D01*
X103870Y61634D01*
X103900Y61724D01*
X103921Y61814D01*
X103934Y61905D01*
X103937Y61996D01*
X105106Y60827D01*
D02*
G37*
G36*
X221198Y57203D02*
X221115Y57116D01*
X221041Y57029D01*
X220976Y56940D01*
X220920Y56852D01*
X220873Y56763D01*
X220834Y56673D01*
X220804Y56583D01*
X220783Y56493D01*
X220771Y56402D01*
X220768Y56311D01*
X219598Y57480D01*
X219690Y57484D01*
X219780Y57496D01*
X219871Y57517D01*
X219961Y57547D01*
X220050Y57586D01*
X220139Y57633D01*
X220228Y57689D01*
X220316Y57754D01*
X220404Y57828D01*
X220491Y57911D01*
X221198Y57203D01*
D02*
G37*
G36*
X220147Y55253D02*
X220134Y55228D01*
X220123Y55192D01*
X220113Y55145D01*
X220105Y55086D01*
X220093Y54936D01*
X220087Y54626D01*
X219087D01*
X219086Y54740D01*
X219060Y55145D01*
X219050Y55192D01*
X219039Y55228D01*
X219026Y55253D01*
X219012Y55267D01*
X220161D01*
X220147Y55253D01*
D02*
G37*
G36*
X33336Y54678D02*
X33424Y54605D01*
X33512Y54540D01*
X33601Y54483D01*
X33690Y54436D01*
X33779Y54397D01*
X33869Y54367D01*
X33960Y54346D01*
X34051Y54334D01*
X34142Y54331D01*
X32972Y53161D01*
X32969Y53253D01*
X32957Y53343D01*
X32936Y53434D01*
X32906Y53524D01*
X32867Y53613D01*
X32820Y53702D01*
X32764Y53791D01*
X32699Y53879D01*
X32625Y53967D01*
X32542Y54054D01*
X33249Y54761D01*
X33336Y54678D01*
D02*
G37*
G36*
X201698Y51946D02*
X201771Y51890D01*
X201850Y51841D01*
X201934Y51799D01*
X202025Y51763D01*
X202121Y51733D01*
X202224Y51710D01*
X202332Y51694D01*
X202446Y51684D01*
X202566Y51681D01*
Y50681D01*
X202446Y50678D01*
X202332Y50668D01*
X202224Y50652D01*
X202121Y50629D01*
X202025Y50599D01*
X201934Y50564D01*
X201850Y50521D01*
X201771Y50472D01*
X201698Y50416D01*
X201631Y50354D01*
Y52008D01*
X201698Y51946D01*
D02*
G37*
G36*
X222910Y50074D02*
X222855Y50001D01*
X222806Y49922D01*
X222763Y49837D01*
X222727Y49747D01*
X222698Y49650D01*
X222675Y49548D01*
X222659Y49440D01*
X222649Y49326D01*
X222646Y49205D01*
X221646D01*
X221642Y49326D01*
X221633Y49440D01*
X221616Y49548D01*
X221593Y49650D01*
X221564Y49747D01*
X221528Y49837D01*
X221486Y49922D01*
X221437Y50001D01*
X221381Y50074D01*
X221319Y50141D01*
X222972D01*
X222910Y50074D01*
D02*
G37*
G36*
X31139Y47853D02*
X31056Y47766D01*
X30983Y47678D01*
X30918Y47590D01*
X30861Y47502D01*
X30814Y47412D01*
X30775Y47323D01*
X30745Y47233D01*
X30724Y47143D01*
X30712Y47052D01*
X30709Y46961D01*
X29539Y48130D01*
X29631Y48133D01*
X29722Y48146D01*
X29812Y48167D01*
X29902Y48197D01*
X29991Y48235D01*
X30080Y48283D01*
X30169Y48339D01*
X30257Y48404D01*
X30345Y48478D01*
X30432Y48560D01*
X31139Y47853D01*
D02*
G37*
G36*
X10488Y47988D02*
X10485Y47931D01*
X10493Y47869D01*
X10514Y47802D01*
X10546Y47730D01*
X10590Y47654D01*
X10646Y47574D01*
X10714Y47488D01*
X10793Y47398D01*
X10885Y47302D01*
X10178Y46595D01*
X10083Y46687D01*
X9907Y46834D01*
X9826Y46890D01*
X9750Y46934D01*
X9678Y46966D01*
X9612Y46987D01*
X9550Y46995D01*
X9493Y46992D01*
X9440Y46977D01*
X10504Y48040D01*
X10488Y47988D01*
D02*
G37*
G36*
X28684Y46122D02*
X28617Y46184D01*
X28544Y46240D01*
X28465Y46289D01*
X28381Y46331D01*
X28290Y46367D01*
X28194Y46396D01*
X28091Y46419D01*
X27983Y46436D01*
X27869Y46446D01*
X27749Y46449D01*
Y47449D01*
X27869Y47452D01*
X27983Y47462D01*
X28091Y47478D01*
X28194Y47501D01*
X28290Y47530D01*
X28381Y47566D01*
X28465Y47609D01*
X28544Y47658D01*
X28617Y47714D01*
X28684Y47776D01*
Y46122D01*
D02*
G37*
G36*
X92409Y45276D02*
X92318Y45272D01*
X92227Y45260D01*
X92137Y45239D01*
X92047Y45209D01*
X91958Y45170D01*
X91869Y45123D01*
X91780Y45067D01*
X91692Y45002D01*
X91604Y44928D01*
X91517Y44845D01*
X90810Y45553D01*
X90892Y45640D01*
X90966Y45727D01*
X91031Y45815D01*
X91088Y45904D01*
X91135Y45993D01*
X91174Y46082D01*
X91203Y46172D01*
X91224Y46263D01*
X91237Y46354D01*
X91240Y46445D01*
X92409Y45276D01*
D02*
G37*
G36*
X51206Y44564D02*
X51279Y44508D01*
X51357Y44459D01*
X51442Y44417D01*
X51533Y44381D01*
X51629Y44352D01*
X51731Y44329D01*
X51840Y44312D01*
X51954Y44302D01*
X52074Y44299D01*
Y43299D01*
X51954Y43296D01*
X51840Y43286D01*
X51731Y43270D01*
X51629Y43247D01*
X51533Y43218D01*
X51442Y43182D01*
X51357Y43139D01*
X51279Y43090D01*
X51206Y43034D01*
X51139Y42972D01*
Y44626D01*
X51206Y44564D01*
D02*
G37*
G36*
X32453Y38613D02*
X32386Y38675D01*
X32313Y38731D01*
X32234Y38780D01*
X32149Y38822D01*
X32059Y38858D01*
X31962Y38888D01*
X31860Y38911D01*
X31752Y38927D01*
X31637Y38937D01*
X31517Y38940D01*
Y39940D01*
X31637Y39943D01*
X31752Y39953D01*
X31860Y39970D01*
X31962Y39992D01*
X32059Y40022D01*
X32149Y40058D01*
X32234Y40100D01*
X32313Y40149D01*
X32386Y40205D01*
X32453Y40267D01*
Y38613D01*
D02*
G37*
G36*
X51284Y39820D02*
X51357Y39764D01*
X51436Y39715D01*
X51521Y39673D01*
X51611Y39637D01*
X51708Y39607D01*
X51810Y39584D01*
X51919Y39568D01*
X52033Y39558D01*
X52153Y39555D01*
Y38555D01*
X52033Y38552D01*
X51919Y38542D01*
X51810Y38526D01*
X51708Y38503D01*
X51611Y38473D01*
X51521Y38438D01*
X51436Y38395D01*
X51357Y38346D01*
X51284Y38290D01*
X51218Y38228D01*
Y39882D01*
X51284Y39820D01*
D02*
G37*
G36*
X10413Y40722D02*
X10560Y40558D01*
X10711Y40413D01*
X10864Y40288D01*
X11021Y40181D01*
X11180Y40095D01*
X11343Y40027D01*
X11509Y39979D01*
X11677Y39950D01*
X11849Y39940D01*
X11705Y38940D01*
X11548Y38932D01*
X11385Y38908D01*
X11216Y38867D01*
X11042Y38811D01*
X10863Y38738D01*
X10678Y38649D01*
X10487Y38544D01*
X10091Y38285D01*
X9884Y38132D01*
X10268Y40905D01*
X10413Y40722D01*
D02*
G37*
G36*
X91604Y38340D02*
X91692Y38266D01*
X91780Y38201D01*
X91869Y38145D01*
X91958Y38097D01*
X92047Y38059D01*
X92137Y38029D01*
X92227Y38008D01*
X92318Y37995D01*
X92409Y37992D01*
X91240Y36823D01*
X91237Y36914D01*
X91224Y37005D01*
X91203Y37095D01*
X91174Y37185D01*
X91135Y37275D01*
X91088Y37364D01*
X91031Y37452D01*
X90966Y37540D01*
X90892Y37628D01*
X90810Y37715D01*
X91517Y38422D01*
X91604Y38340D01*
D02*
G37*
G36*
X193289Y33232D02*
X193207Y33145D01*
X193064Y32971D01*
X193005Y32883D01*
X192953Y32796D01*
X192908Y32708D01*
X192872Y32619D01*
X192843Y32531D01*
X192822Y32442D01*
X192808Y32353D01*
X191785Y33652D01*
X191875Y33645D01*
X191965Y33648D01*
X192055Y33661D01*
X192144Y33685D01*
X192233Y33718D01*
X192322Y33761D01*
X192411Y33814D01*
X192499Y33876D01*
X192587Y33949D01*
X192675Y34032D01*
X193289Y33232D01*
D02*
G37*
G36*
X25320Y35214D02*
X25393Y35158D01*
X25472Y35109D01*
X25556Y35066D01*
X25647Y35030D01*
X25743Y35001D01*
X25846Y34978D01*
X25954Y34962D01*
X26068Y34952D01*
X26188Y34949D01*
Y33949D01*
X26068Y33946D01*
X25954Y33936D01*
X25846Y33919D01*
X25743Y33896D01*
X25647Y33867D01*
X25556Y33831D01*
X25472Y33789D01*
X25393Y33740D01*
X25320Y33684D01*
X25253Y33622D01*
Y35276D01*
X25320Y35214D01*
D02*
G37*
G36*
X51304Y34820D02*
X51377Y34764D01*
X51456Y34715D01*
X51540Y34673D01*
X51631Y34637D01*
X51728Y34607D01*
X51830Y34585D01*
X51938Y34568D01*
X52052Y34558D01*
X52172Y34555D01*
Y33555D01*
X52052Y33552D01*
X51938Y33542D01*
X51830Y33526D01*
X51728Y33503D01*
X51631Y33473D01*
X51540Y33437D01*
X51456Y33395D01*
X51377Y33346D01*
X51304Y33290D01*
X51237Y33228D01*
Y34882D01*
X51304Y34820D01*
D02*
G37*
G36*
X10266Y31839D02*
X10614Y31551D01*
X10786Y31434D01*
X10958Y31335D01*
X11128Y31254D01*
X11297Y31191D01*
X11465Y31146D01*
X11632Y31119D01*
X11798Y31110D01*
Y30110D01*
X11632Y30101D01*
X11465Y30074D01*
X11297Y30029D01*
X11128Y29966D01*
X10958Y29885D01*
X10786Y29786D01*
X10614Y29669D01*
X10440Y29534D01*
X10266Y29381D01*
X10090Y29210D01*
Y32010D01*
X10266Y31839D01*
D02*
G37*
G36*
X91506Y29088D02*
X91593Y29014D01*
X91682Y28949D01*
X91770Y28893D01*
X91859Y28845D01*
X91949Y28807D01*
X92039Y28777D01*
X92129Y28756D01*
X92220Y28744D01*
X92311Y28740D01*
X91142Y27571D01*
X91138Y27662D01*
X91126Y27753D01*
X91105Y27843D01*
X91075Y27933D01*
X91036Y28023D01*
X90989Y28112D01*
X90933Y28200D01*
X90868Y28288D01*
X90794Y28376D01*
X90711Y28463D01*
X91419Y29170D01*
X91506Y29088D01*
D02*
G37*
G36*
X47067Y28399D02*
X47154Y28325D01*
X47243Y28260D01*
X47331Y28204D01*
X47420Y28156D01*
X47510Y28118D01*
X47599Y28088D01*
X47690Y28067D01*
X47781Y28055D01*
X47872Y28051D01*
X46703Y26882D01*
X46699Y26973D01*
X46687Y27064D01*
X46666Y27154D01*
X46636Y27244D01*
X46597Y27334D01*
X46550Y27423D01*
X46494Y27511D01*
X46429Y27599D01*
X46355Y27687D01*
X46272Y27774D01*
X46979Y28481D01*
X47067Y28399D01*
D02*
G37*
G36*
X53711Y25348D02*
X53798Y25274D01*
X53886Y25209D01*
X53975Y25153D01*
X54064Y25105D01*
X54153Y25067D01*
X54243Y25037D01*
X54334Y25016D01*
X54425Y25003D01*
X54516Y25000D01*
X53347Y23831D01*
X53343Y23922D01*
X53331Y24013D01*
X53310Y24103D01*
X53280Y24193D01*
X53241Y24283D01*
X53194Y24372D01*
X53138Y24460D01*
X53073Y24548D01*
X52999Y24636D01*
X52916Y24723D01*
X53623Y25430D01*
X53711Y25348D01*
D02*
G37*
G36*
X50870Y21354D02*
X50882Y21263D01*
X50903Y21172D01*
X50933Y21082D01*
X50971Y20993D01*
X51019Y20904D01*
X51075Y20816D01*
X51140Y20727D01*
X51214Y20640D01*
X51296Y20552D01*
X50589Y19845D01*
X50502Y19928D01*
X50414Y20002D01*
X50326Y20067D01*
X50238Y20123D01*
X50149Y20170D01*
X50059Y20209D01*
X49969Y20239D01*
X49879Y20260D01*
X49788Y20272D01*
X49697Y20276D01*
X50866Y21445D01*
X50870Y21354D01*
D02*
G37*
D12*
X70472Y71752D02*
X70472Y71752D01*
X61221Y71752D02*
X70472D01*
X61221Y67815D02*
Y71752D01*
Y75689D01*
X39173Y63189D02*
X39173Y63189D01*
X46260Y79626D02*
X50197Y75689D01*
X39173Y79626D02*
X46260D01*
X39173Y83563D02*
X47058D01*
X50503Y80118D01*
X186713Y21752D02*
X219587Y54626D01*
X164764Y21752D02*
X186713D01*
X219587Y54626D02*
Y56299D01*
X176378Y114567D02*
X179626Y117815D01*
X65158Y114567D02*
X176378D01*
X47638Y99311D02*
X48720Y98228D01*
X39173Y99311D02*
X47638D01*
X8661Y94340D02*
X13632Y99311D01*
X39173D01*
X8661Y48819D02*
X10531Y46949D01*
X29528D01*
X31988Y49409D01*
X8661Y57923D02*
X10215Y56369D01*
X30934D01*
X8661Y67027D02*
X16570Y59119D01*
X17126D01*
X105118Y61909D02*
X105167Y61959D01*
X8661Y76132D02*
X12156Y79626D01*
X39173D01*
X8661Y85236D02*
X10335Y83563D01*
X39173D01*
X20669Y95374D02*
X20768Y95276D01*
X61221Y75689D02*
X64613D01*
X17126Y59119D02*
X102229Y59119D01*
X31988Y49409D02*
X137106D01*
X50295Y43799D02*
X89764D01*
X50374Y39055D02*
X90177D01*
X50394Y34055D02*
X85827D01*
X102229Y59119D02*
X105118Y62008D01*
X8957Y39440D02*
X33296D01*
X30934Y56369D02*
X34154Y53150D01*
X52116Y91585D02*
X52264Y91732D01*
X52362Y83366D02*
X52461Y83465D01*
X48201Y87626D02*
X48327Y87752D01*
X122776Y143996D02*
X133701Y133071D01*
X132776Y143996D02*
X138976Y137795D01*
X142776Y143996D02*
X143071Y143701D01*
X188386D01*
X90177Y39055D02*
X92421Y36811D01*
X191634Y32480D02*
X191831D01*
X230610Y71260D01*
X85827Y34055D02*
X92323Y27559D01*
X89764Y43799D02*
X92421Y46457D01*
X137106Y49409D02*
X164764Y21752D01*
X44144Y30610D02*
X47884Y26870D01*
X8661Y30610D02*
X44144D01*
X43898Y34449D02*
X54528Y23819D01*
X24409Y34449D02*
X43898D01*
X49685Y21457D02*
X56378Y14764D01*
X48548Y94095D02*
X48819D01*
X47269Y95374D02*
X48548Y94095D01*
X27972Y87500D02*
X27981Y87509D01*
X200787Y51181D02*
X203839D01*
X226673Y74016D01*
Y103445D01*
X197047Y133071D02*
X226673Y103445D01*
X230610Y71260D02*
Y112992D01*
X222146Y21654D02*
Y50984D01*
X215256Y14764D02*
X222146Y21654D01*
X56378Y14764D02*
X215256D01*
X205807Y137795D02*
X230610Y112992D01*
X219587Y56299D02*
X237697Y74410D01*
Y120965D01*
X214961Y143701D02*
X237697Y120965D01*
X188386Y143701D02*
X214961D01*
X138976Y137795D02*
X205807D01*
X133701Y133071D02*
X197047D01*
X27981Y87509D02*
X39164D01*
X51161Y110531D02*
X102756D01*
X39075Y103347D02*
X39173Y103248D01*
X20768Y95276D02*
X39075D01*
X172982Y61959D02*
X173031Y61909D01*
X105167Y61959D02*
X172982D01*
X39173Y95374D02*
X47269D01*
X113878Y96850D02*
X168110D01*
X192126Y72835D01*
X179921Y71850D02*
X182972Y68799D01*
X113878Y71850D02*
X179921D01*
X87500Y79626D02*
X105118Y62008D01*
X39075Y67716D02*
X39173Y67815D01*
X61221Y79626D02*
X87500D01*
X52461Y83465D02*
X61122D01*
X61221Y83563D01*
X39321Y91585D02*
X52116D01*
X39173Y103248D02*
X43878D01*
X51161Y110531D01*
X39173Y91437D02*
X39321Y91585D01*
X39299Y87626D02*
X48201D01*
X39173Y87500D02*
X39299Y87626D01*
X39075Y95276D02*
X39173Y95374D01*
X24409Y91437D02*
X39173D01*
X39164Y87509D02*
X39173Y87500D01*
X8661Y103445D02*
X8760Y103347D01*
X39075D01*
D55*
X239173Y156398D02*
D03*
X10827D02*
D03*
Y14665D02*
D03*
X239173D02*
D03*
D56*
X39173Y63189D02*
Y67815D01*
X192609Y123130D02*
X194193D01*
X223130Y94193D01*
X38976Y123130D02*
X192609D01*
X223130Y80216D02*
Y94193D01*
D57*
X8661Y30610D02*
D03*
Y103445D02*
D03*
Y85236D02*
D03*
Y67027D02*
D03*
Y76132D02*
D03*
Y48819D02*
D03*
Y94340D02*
D03*
Y57923D02*
D03*
Y39715D02*
D03*
D58*
X142776Y143996D02*
D03*
X104783D02*
D03*
D59*
X132776D02*
D03*
X122776D02*
D03*
X34075D02*
D03*
X94784D02*
D03*
X84784D02*
D03*
D60*
X44075D02*
D03*
D61*
X39173Y63189D02*
D03*
X50197Y75689D02*
D03*
X70472Y71752D02*
D03*
X65158Y114567D02*
D03*
X48720Y98228D02*
D03*
X192609Y123130D02*
D03*
X38700D02*
D03*
X34154Y53150D02*
D03*
X50503Y80118D02*
D03*
X52264Y91732D02*
D03*
X52362Y83366D02*
D03*
X48327Y87752D02*
D03*
X92421Y36811D02*
D03*
X191634Y32480D02*
D03*
X92323Y27559D02*
D03*
X92421Y46457D02*
D03*
X50295Y43799D02*
D03*
X50374Y39055D02*
D03*
X50394Y34055D02*
D03*
X47884Y26870D02*
D03*
X54528Y23819D02*
D03*
X24409Y34449D02*
D03*
X49685Y21457D02*
D03*
X48819Y94095D02*
D03*
X179626Y117815D02*
D03*
X200787Y51181D02*
D03*
X222146Y50984D02*
D03*
X219587Y56299D02*
D03*
X188386Y143701D02*
D03*
X205807Y137795D02*
D03*
X197047Y133071D02*
D03*
X223130Y80216D02*
D03*
X113878Y96850D02*
D03*
X192126Y72835D02*
D03*
X113878Y71850D02*
D03*
X182972Y68799D02*
D03*
X33296Y39440D02*
D03*
X29528Y46949D02*
D03*
X105118Y62008D02*
D03*
X173031Y61909D02*
D03*
X27953Y87519D02*
D03*
X24409Y91437D02*
D03*
X20472Y95177D02*
D03*
X102756Y110531D02*
D03*
D62*
X61221Y103248D02*
D03*
Y99311D02*
D03*
Y95374D02*
D03*
Y91437D02*
D03*
Y87500D02*
D03*
Y83563D02*
D03*
Y79626D02*
D03*
Y75689D02*
D03*
Y71752D02*
D03*
Y67815D02*
D03*
X39173D02*
D03*
Y71752D02*
D03*
Y75689D02*
D03*
Y79626D02*
D03*
Y83563D02*
D03*
Y87500D02*
D03*
Y91437D02*
D03*
Y95374D02*
D03*
Y99311D02*
D03*
Y103248D02*
D03*
M02*
