G04*
G04 #@! TF.GenerationSoftware,Altium Limited,Altium Designer,18.1.7 (191)*
G04*
G04 Layer_Physical_Order=2*
G04 Layer_Color=16711680*
%FSLAX25Y25*%
%MOIN*%
G70*
G01*
G75*
%ADD12C,0.01000*%
%ADD58C,0.15748*%
%ADD59C,0.02000*%
%ADD60C,0.07000*%
%ADD61R,0.07000X0.07000*%
%ADD62R,0.07000X0.07000*%
%ADD63C,0.04000*%
%ADD64C,0.02000*%
%ADD65R,0.11811X0.02402*%
G36*
X10000Y169122D02*
X229323D01*
X229331Y169121D01*
X240297D01*
X241559Y168996D01*
X243057Y168542D01*
X244438Y167804D01*
X245649Y166810D01*
X246642Y165600D01*
X247380Y164218D01*
X247835Y162720D01*
X247979Y161254D01*
X247961Y161161D01*
Y146990D01*
X247960Y146868D01*
X247961Y146864D01*
Y24516D01*
X247959Y24508D01*
Y19174D01*
X247459Y19049D01*
X247005Y19898D01*
X245834Y21326D01*
X244406Y22497D01*
X242778Y23368D01*
X241011Y23904D01*
X239173Y24085D01*
X237336Y23904D01*
X235569Y23368D01*
X233940Y22497D01*
X232513Y21326D01*
X231341Y19898D01*
X230471Y18270D01*
X229935Y16503D01*
X229754Y14665D01*
X229935Y12828D01*
X230471Y11061D01*
X231341Y9432D01*
X232513Y8005D01*
X233940Y6833D01*
X235569Y5963D01*
X237336Y5427D01*
X239173Y5246D01*
X241011Y5427D01*
X242778Y5963D01*
X244406Y6833D01*
X245834Y8005D01*
X247005Y9432D01*
X247459Y10282D01*
X247959Y10156D01*
Y9604D01*
X247835Y8343D01*
X247380Y6844D01*
X246642Y5463D01*
X245649Y4253D01*
X244438Y3259D01*
X243057Y2521D01*
X241559Y2067D01*
X240093Y1922D01*
X240000Y1941D01*
X20382D01*
X20374Y1942D01*
X9703D01*
X8442Y2067D01*
X6943Y2521D01*
X5562Y3259D01*
X4351Y4253D01*
X3358Y5463D01*
X2620Y6844D01*
X2165Y8343D01*
X2021Y9809D01*
X2039Y9902D01*
Y10159D01*
X2539Y10285D01*
X2995Y9432D01*
X4166Y8005D01*
X5594Y6833D01*
X7222Y5963D01*
X8989Y5427D01*
X10827Y5246D01*
X12664Y5427D01*
X14431Y5963D01*
X16060Y6833D01*
X17487Y8005D01*
X18659Y9432D01*
X19529Y11061D01*
X20065Y12828D01*
X20246Y14665D01*
X20065Y16503D01*
X19529Y18270D01*
X18659Y19898D01*
X17487Y21326D01*
X16060Y22497D01*
X14431Y23368D01*
X12664Y23904D01*
X10827Y24085D01*
X8989Y23904D01*
X7222Y23368D01*
X5594Y22497D01*
X4166Y21326D01*
X2995Y19898D01*
X2539Y19046D01*
X2039Y19171D01*
Y24073D01*
X2041Y24293D01*
X2039Y24301D01*
Y146842D01*
X2041Y146850D01*
Y151889D01*
X2541Y152014D01*
X2995Y151164D01*
X4166Y149737D01*
X5594Y148566D01*
X7222Y147695D01*
X8989Y147159D01*
X10827Y146978D01*
X12664Y147159D01*
X14431Y147695D01*
X16060Y148566D01*
X17487Y149737D01*
X18659Y151164D01*
X19529Y152793D01*
X20065Y154560D01*
X20246Y156398D01*
X20065Y158235D01*
X19529Y160002D01*
X18659Y161631D01*
X17487Y163058D01*
X16060Y164230D01*
X14431Y165100D01*
X12664Y165636D01*
X10827Y165817D01*
X8989Y165636D01*
X7222Y165100D01*
X5594Y164230D01*
X4166Y163058D01*
X2995Y161631D01*
X2541Y160781D01*
X2041Y160907D01*
Y161459D01*
X2165Y162720D01*
X2620Y164218D01*
X3358Y165600D01*
X4351Y166810D01*
X5562Y167804D01*
X6943Y168542D01*
X8442Y168996D01*
X9907Y169141D01*
X10000Y169122D01*
D02*
G37*
%LPC*%
G36*
X94784Y149039D02*
X93478Y148867D01*
X92262Y148364D01*
X91217Y147562D01*
X90416Y146518D01*
X90054Y145644D01*
X89513D01*
X89151Y146518D01*
X88349Y147562D01*
X87305Y148364D01*
X86089Y148867D01*
X84784Y149039D01*
X83478Y148867D01*
X82262Y148364D01*
X81217Y147562D01*
X80416Y146518D01*
X79912Y145301D01*
X79740Y143996D01*
X79912Y142691D01*
X80416Y141474D01*
X81217Y140430D01*
X82262Y139629D01*
X83478Y139125D01*
X84784Y138953D01*
X86089Y139125D01*
X87305Y139629D01*
X88349Y140430D01*
X89151Y141474D01*
X89513Y142348D01*
X90054D01*
X90416Y141474D01*
X91217Y140430D01*
X92262Y139629D01*
X93478Y139125D01*
X94784Y138953D01*
X96089Y139125D01*
X97305Y139629D01*
X98349Y140430D01*
X99151Y141474D01*
X99283Y141794D01*
X99783Y141695D01*
Y138996D01*
X109783D01*
Y148996D01*
X99783D01*
Y146297D01*
X99283Y146198D01*
X99151Y146518D01*
X98349Y147562D01*
X97305Y148364D01*
X96089Y148867D01*
X94784Y149039D01*
D02*
G37*
G36*
X132776D02*
X131470Y148867D01*
X130254Y148364D01*
X129209Y147562D01*
X128408Y146518D01*
X128078Y145721D01*
X128043Y145692D01*
X127825Y145609D01*
X127505Y145644D01*
X127143Y146518D01*
X126342Y147562D01*
X125297Y148364D01*
X124081Y148867D01*
X122776Y149039D01*
X121470Y148867D01*
X120254Y148364D01*
X119210Y147562D01*
X118408Y146518D01*
X117904Y145301D01*
X117732Y143996D01*
X117904Y142691D01*
X118408Y141474D01*
X119210Y140430D01*
X120254Y139629D01*
X121263Y139211D01*
X121361Y139062D01*
X121365Y139059D01*
X121369Y139054D01*
X121695Y138837D01*
X122020Y138617D01*
X122025Y138616D01*
X122030Y138612D01*
X122415Y138536D01*
X122799Y138457D01*
X123270Y138454D01*
X124084Y138406D01*
X124368Y138368D01*
X124616Y138322D01*
X124803Y138273D01*
X124924Y138231D01*
X124972Y138208D01*
X125037Y138153D01*
X125313Y138000D01*
X125576Y137824D01*
X125659Y137808D01*
X125732Y137767D01*
X126046Y137731D01*
X126185Y137703D01*
X132259Y131629D01*
X132920Y131187D01*
X133701Y131032D01*
X133701Y131032D01*
X194285D01*
X194438Y130929D01*
X194729Y130718D01*
X194768Y130709D01*
X194801Y130687D01*
X195153Y130617D01*
X195473Y130540D01*
X195553Y130487D01*
X195613Y130475D01*
X195666Y130444D01*
X195867Y130416D01*
X195876Y130412D01*
X195897Y130412D01*
X195943Y130406D01*
X195980Y130378D01*
X195995Y130363D01*
X196005Y130359D01*
X196166Y130237D01*
X196226Y130221D01*
X196277Y130187D01*
X196390Y130165D01*
X196635Y130007D01*
X196950Y129797D01*
X196969Y129793D01*
X196985Y129782D01*
X197359Y129715D01*
X197559Y129676D01*
X224634Y102600D01*
Y96947D01*
X224172Y96755D01*
X195995Y124932D01*
X195168Y125485D01*
X194193Y125679D01*
X38976D01*
X38838Y125651D01*
X38700Y125679D01*
X37725Y125485D01*
X36898Y124932D01*
X36345Y124105D01*
X36151Y123130D01*
X36345Y122154D01*
X36898Y121327D01*
X37725Y120775D01*
X38700Y120581D01*
X38838Y120608D01*
X38976Y120581D01*
X178366D01*
X178517Y120081D01*
X178004Y119738D01*
X177959Y119732D01*
X177906Y119701D01*
X177846Y119689D01*
X177564Y119501D01*
X177272Y119330D01*
X177235Y119281D01*
X177184Y119247D01*
X176996Y118965D01*
X176933Y118882D01*
X176918Y118867D01*
X176914Y118857D01*
X176792Y118696D01*
X176776Y118636D01*
X176742Y118585D01*
X176720Y118472D01*
X176562Y118227D01*
X176352Y117912D01*
X176348Y117893D01*
X176338Y117877D01*
X176271Y117504D01*
X176231Y117304D01*
X175533Y116606D01*
X67920D01*
X67766Y116709D01*
X67476Y116920D01*
X67437Y116929D01*
X67404Y116951D01*
X67051Y117021D01*
X66732Y117097D01*
X66652Y117151D01*
X66592Y117163D01*
X66539Y117194D01*
X66338Y117222D01*
X66329Y117226D01*
X66307Y117226D01*
X66203Y117240D01*
X65872Y117306D01*
X65811Y117294D01*
X65750Y117303D01*
X65423Y117217D01*
X65091Y117151D01*
X65040Y117117D01*
X64981Y117101D01*
X64944Y117074D01*
X64182Y116922D01*
X63355Y116369D01*
X62802Y115542D01*
X62608Y114567D01*
X62802Y113592D01*
X63151Y113071D01*
X62883Y112571D01*
X51161D01*
X50381Y112416D01*
X49720Y111973D01*
X44895Y107149D01*
X44712Y107113D01*
X44355Y107055D01*
X44323Y107035D01*
X44286Y107028D01*
X44207Y106975D01*
X8661Y106975D01*
X7748Y106855D01*
X6896Y106502D01*
X6165Y105941D01*
X5604Y105210D01*
X5252Y104358D01*
X5131Y103445D01*
X5252Y102531D01*
X5604Y101680D01*
X6165Y100949D01*
X6896Y100388D01*
X7748Y100035D01*
X8661Y99915D01*
Y98379D01*
X8653Y98379D01*
X8277Y98299D01*
X7901Y98224D01*
X7889Y98216D01*
X7875Y98213D01*
X7558Y97996D01*
X7239Y97782D01*
X7231Y97770D01*
X7219Y97762D01*
X7015Y97447D01*
X6896Y97398D01*
X6165Y96837D01*
X5604Y96106D01*
X5252Y95254D01*
X5131Y94340D01*
X5252Y93427D01*
X5604Y92575D01*
X6165Y91844D01*
X6896Y91283D01*
X7748Y90931D01*
X8661Y90810D01*
Y88766D01*
X7748Y88646D01*
X6896Y88293D01*
X6165Y87732D01*
X5604Y87001D01*
X5252Y86150D01*
X5131Y85236D01*
X5252Y84323D01*
X5604Y83471D01*
X6165Y82740D01*
X6896Y82179D01*
X7748Y81826D01*
X8661Y81706D01*
Y80171D01*
X8653Y80171D01*
X8277Y80091D01*
X7901Y80016D01*
X7889Y80008D01*
X7875Y80005D01*
X7558Y79787D01*
X7239Y79574D01*
X7231Y79562D01*
X7219Y79553D01*
X7015Y79238D01*
X6896Y79189D01*
X6165Y78628D01*
X5604Y77897D01*
X5252Y77046D01*
X5131Y76132D01*
X5252Y75218D01*
X5604Y74367D01*
X6165Y73636D01*
X6896Y73075D01*
X7748Y72722D01*
X8661Y72602D01*
Y70558D01*
X7748Y70438D01*
X6896Y70085D01*
X6165Y69524D01*
X5604Y68793D01*
X5252Y67941D01*
X5131Y67027D01*
X5252Y66114D01*
X5604Y65263D01*
X6165Y64531D01*
X6896Y63970D01*
X7015Y63921D01*
X7219Y63606D01*
X7231Y63598D01*
X7239Y63586D01*
X7559Y63372D01*
X7875Y63155D01*
X7889Y63152D01*
X7901Y63144D01*
X8277Y63069D01*
X8653Y62989D01*
X8661Y62989D01*
Y61453D01*
X7748Y61333D01*
X6896Y60980D01*
X6165Y60419D01*
X5604Y59688D01*
X5252Y58837D01*
X5131Y57923D01*
X5252Y57010D01*
X5604Y56158D01*
X6165Y55427D01*
X6896Y54866D01*
X7748Y54513D01*
X8661Y54393D01*
Y52349D01*
X7748Y52229D01*
X6896Y51876D01*
X6165Y51315D01*
X5604Y50584D01*
X5252Y49733D01*
X5131Y48819D01*
X5252Y47905D01*
X5604Y47054D01*
X6165Y46323D01*
X6896Y45762D01*
X7748Y45409D01*
X8280Y45339D01*
X8457Y45190D01*
X8565Y45156D01*
X8660Y45093D01*
X8661Y45092D01*
Y43245D01*
X7748Y43124D01*
X6896Y42772D01*
X6165Y42211D01*
X5604Y41480D01*
X5252Y40628D01*
X5131Y39715D01*
X5252Y38801D01*
X5604Y37949D01*
X6165Y37218D01*
X6896Y36657D01*
X7748Y36305D01*
X8661Y36184D01*
Y34140D01*
X7748Y34020D01*
X6896Y33667D01*
X6165Y33106D01*
X5604Y32375D01*
X5252Y31524D01*
X5131Y30610D01*
X5252Y29697D01*
X5604Y28845D01*
X6165Y28114D01*
X6896Y27553D01*
X7748Y27200D01*
X8661Y27080D01*
X9575Y27200D01*
X9694Y27250D01*
X10061Y27171D01*
X10075Y27174D01*
X10090Y27171D01*
X10466Y27246D01*
X10844Y27316D01*
X10856Y27323D01*
X10870Y27326D01*
X11189Y27540D01*
X11511Y27748D01*
X11649Y27882D01*
X11739Y27961D01*
X11813Y28019D01*
X11870Y28057D01*
X11898Y28073D01*
X11908Y28074D01*
X12241Y28159D01*
X12578Y28226D01*
X12625Y28257D01*
X12679Y28271D01*
X12954Y28477D01*
X13094Y28571D01*
X38091D01*
X47765Y19814D01*
X47768Y19790D01*
X47799Y19737D01*
X47811Y19676D01*
X47999Y19395D01*
X48170Y19103D01*
X48219Y19066D01*
X48253Y19015D01*
X48535Y18827D01*
X48618Y18764D01*
X48633Y18749D01*
X48643Y18745D01*
X48804Y18622D01*
X48864Y18607D01*
X48915Y18573D01*
X49028Y18550D01*
X49273Y18393D01*
X49507Y18237D01*
X54936Y13322D01*
X55598Y12880D01*
X56378Y12725D01*
X215256D01*
X216036Y12880D01*
X216698Y13322D01*
X223588Y20212D01*
X224030Y20873D01*
X224185Y21654D01*
X224185Y21654D01*
Y48222D01*
X224287Y48375D01*
X224498Y48666D01*
X224507Y48705D01*
X224530Y48738D01*
X224600Y49090D01*
X224676Y49410D01*
X224730Y49490D01*
X224742Y49550D01*
X224773Y49603D01*
X224800Y49804D01*
X224804Y49813D01*
X224804Y49834D01*
X224819Y49938D01*
X224885Y50270D01*
X224873Y50330D01*
X224881Y50391D01*
X224796Y50719D01*
X224730Y51051D01*
X224695Y51102D01*
X224680Y51161D01*
X224652Y51198D01*
X224501Y51960D01*
X223948Y52787D01*
X223121Y53339D01*
X222221Y53518D01*
X222003Y53843D01*
X221939Y53981D01*
X221948Y54020D01*
X221971Y54053D01*
X222041Y54405D01*
X222117Y54725D01*
X222171Y54805D01*
X222183Y54865D01*
X222214Y54918D01*
X222241Y55119D01*
X222245Y55128D01*
X222246Y55149D01*
X222252Y55195D01*
X222280Y55232D01*
X222295Y55247D01*
X222299Y55257D01*
X222421Y55418D01*
X222436Y55478D01*
X222470Y55529D01*
X222493Y55642D01*
X222650Y55887D01*
X222861Y56202D01*
X222865Y56221D01*
X222875Y56237D01*
X222942Y56611D01*
X222982Y56811D01*
X239139Y72967D01*
X239581Y73629D01*
X239736Y74410D01*
Y120965D01*
X239736Y120965D01*
X239581Y121745D01*
X239139Y122406D01*
X216403Y145143D01*
X215741Y145585D01*
X214961Y145740D01*
X191148D01*
X190995Y145842D01*
X190704Y146053D01*
X190665Y146063D01*
X190632Y146085D01*
X190280Y146155D01*
X189960Y146231D01*
X189880Y146285D01*
X189820Y146297D01*
X189767Y146328D01*
X189567Y146355D01*
X189557Y146360D01*
X189536Y146360D01*
X189432Y146374D01*
X189100Y146440D01*
X189040Y146428D01*
X188979Y146436D01*
X188652Y146351D01*
X188386Y146298D01*
X188120Y146351D01*
X187793Y146436D01*
X187732Y146428D01*
X187672Y146440D01*
X187340Y146374D01*
X187236Y146360D01*
X187215Y146360D01*
X187205Y146355D01*
X187005Y146328D01*
X186952Y146297D01*
X186891Y146285D01*
X186796Y146221D01*
X186511Y146159D01*
X186139Y146085D01*
X186123Y146074D01*
X186105Y146070D01*
X185793Y145853D01*
X185623Y145740D01*
X148560D01*
X148396Y145849D01*
X148093Y146064D01*
X148066Y146070D01*
X148044Y146085D01*
X147776Y146138D01*
Y148996D01*
X137776D01*
Y146297D01*
X137276Y146198D01*
X137143Y146518D01*
X136342Y147562D01*
X135297Y148364D01*
X134081Y148867D01*
X132776Y149039D01*
D02*
G37*
G36*
X33575Y148469D02*
X32900Y148380D01*
X31805Y147927D01*
X30865Y147205D01*
X30144Y146265D01*
X29691Y145171D01*
X29602Y144496D01*
X33575D01*
Y148469D01*
D02*
G37*
G36*
X49075Y148996D02*
X39075D01*
Y144324D01*
X38575Y144291D01*
X38459Y145171D01*
X38006Y146265D01*
X37284Y147205D01*
X36344Y147927D01*
X35250Y148380D01*
X34575Y148469D01*
Y143996D01*
Y139523D01*
X35250Y139612D01*
X36344Y140065D01*
X37284Y140787D01*
X38006Y141727D01*
X38459Y142821D01*
X38575Y143701D01*
X39075Y143668D01*
Y138996D01*
X49075D01*
Y148996D01*
D02*
G37*
G36*
X33575Y143496D02*
X29602D01*
X29691Y142821D01*
X30144Y141727D01*
X30865Y140787D01*
X31805Y140065D01*
X32900Y139612D01*
X33575Y139523D01*
Y143496D01*
D02*
G37*
%LPD*%
G36*
X189143Y144363D02*
X189193Y144329D01*
X189250Y144299D01*
X189314Y144273D01*
X189386Y144251D01*
X189465Y144233D01*
X189551Y144219D01*
X189644Y144209D01*
X189852Y144201D01*
Y143201D01*
X189744Y143199D01*
X189551Y143183D01*
X189465Y143169D01*
X189386Y143151D01*
X189314Y143129D01*
X189250Y143103D01*
X189193Y143073D01*
X189143Y143039D01*
X189100Y143001D01*
Y144401D01*
X189143Y144363D01*
D02*
G37*
G36*
X187672Y143001D02*
X187629Y143039D01*
X187579Y143073D01*
X187522Y143103D01*
X187457Y143129D01*
X187386Y143151D01*
X187307Y143169D01*
X187221Y143183D01*
X187128Y143193D01*
X186920Y143201D01*
Y144201D01*
X187027Y144203D01*
X187221Y144219D01*
X187307Y144233D01*
X187386Y144251D01*
X187457Y144273D01*
X187522Y144299D01*
X187579Y144329D01*
X187629Y144363D01*
X187672Y144401D01*
Y143001D01*
D02*
G37*
G36*
X146262Y144606D02*
X146292Y144521D01*
X146343Y144446D01*
X146414Y144381D01*
X146505Y144326D01*
X146616Y144281D01*
X146748Y144246D01*
X146899Y144221D01*
X147071Y144206D01*
X147264Y144201D01*
Y143201D01*
X147071Y143196D01*
X146899Y143181D01*
X146748Y143156D01*
X146616Y143121D01*
X146505Y143076D01*
X146414Y143021D01*
X146343Y142956D01*
X146292Y142881D01*
X146262Y142796D01*
X146252Y142701D01*
Y144701D01*
X146262Y144606D01*
D02*
G37*
G36*
X136278Y143434D02*
X136335Y142495D01*
X136388Y142083D01*
X136459Y141709D01*
X136546Y141374D01*
X136650Y141077D01*
X136771Y140818D01*
X136909Y140597D01*
X137064Y140415D01*
X136356Y139708D01*
X136174Y139863D01*
X135954Y140001D01*
X135695Y140121D01*
X135398Y140226D01*
X135062Y140313D01*
X134688Y140383D01*
X134276Y140437D01*
X133337Y140493D01*
X132811Y140496D01*
X136275Y143961D01*
X136278Y143434D01*
D02*
G37*
G36*
X126278D02*
X126335Y142495D01*
X126388Y142083D01*
X126459Y141709D01*
X126546Y141374D01*
X126650Y141077D01*
X126771Y140818D01*
X126909Y140597D01*
X127064Y140415D01*
X126356Y139708D01*
X126174Y139863D01*
X125954Y140001D01*
X125695Y140121D01*
X125398Y140226D01*
X125062Y140313D01*
X124688Y140383D01*
X124276Y140437D01*
X123337Y140493D01*
X122811Y140496D01*
X126275Y143961D01*
X126278Y143434D01*
D02*
G37*
G36*
X205093Y137095D02*
X205050Y137133D01*
X205000Y137167D01*
X204943Y137197D01*
X204878Y137223D01*
X204807Y137245D01*
X204728Y137263D01*
X204642Y137277D01*
X204549Y137287D01*
X204341Y137295D01*
Y138295D01*
X204449Y138297D01*
X204642Y138313D01*
X204728Y138327D01*
X204807Y138345D01*
X204878Y138367D01*
X204943Y138393D01*
X205000Y138423D01*
X205050Y138457D01*
X205093Y138495D01*
Y137095D01*
D02*
G37*
G36*
X206810Y137728D02*
X206822Y137669D01*
X206841Y137607D01*
X206868Y137543D01*
X206903Y137477D01*
X206946Y137408D01*
X206997Y137338D01*
X207056Y137265D01*
X207197Y137112D01*
X206490Y136405D01*
X206413Y136480D01*
X206264Y136605D01*
X206194Y136656D01*
X206125Y136699D01*
X206059Y136734D01*
X205995Y136761D01*
X205934Y136781D01*
X205874Y136792D01*
X205817Y136795D01*
X206807Y137785D01*
X206810Y137728D01*
D02*
G37*
G36*
X196333Y132371D02*
X196290Y132409D01*
X196240Y132443D01*
X196183Y132473D01*
X196119Y132499D01*
X196047Y132521D01*
X195968Y132539D01*
X195882Y132553D01*
X195789Y132563D01*
X195581Y132571D01*
Y133571D01*
X195689Y133573D01*
X195882Y133589D01*
X195968Y133603D01*
X196047Y133621D01*
X196119Y133643D01*
X196183Y133669D01*
X196240Y133699D01*
X196290Y133733D01*
X196333Y133771D01*
Y132371D01*
D02*
G37*
G36*
X198051Y133004D02*
X198062Y132944D01*
X198081Y132883D01*
X198108Y132819D01*
X198143Y132753D01*
X198186Y132684D01*
X198237Y132613D01*
X198296Y132541D01*
X198437Y132388D01*
X197730Y131681D01*
X197653Y131755D01*
X197505Y131881D01*
X197434Y131932D01*
X197365Y131975D01*
X197299Y132010D01*
X197235Y132037D01*
X197174Y132056D01*
X197114Y132068D01*
X197057Y132071D01*
X198047Y133061D01*
X198051Y133004D01*
D02*
G37*
G36*
X179616Y116815D02*
X179559Y116812D01*
X179499Y116800D01*
X179438Y116781D01*
X179374Y116754D01*
X179308Y116719D01*
X179239Y116676D01*
X179169Y116625D01*
X179096Y116566D01*
X178943Y116425D01*
X178236Y117132D01*
X178310Y117209D01*
X178436Y117358D01*
X178487Y117428D01*
X178530Y117497D01*
X178565Y117563D01*
X178592Y117627D01*
X178611Y117688D01*
X178623Y117748D01*
X178626Y117805D01*
X179616Y116815D01*
D02*
G37*
G36*
X65914Y115229D02*
X65964Y115195D01*
X66022Y115165D01*
X66086Y115139D01*
X66158Y115117D01*
X66236Y115099D01*
X66322Y115085D01*
X66416Y115075D01*
X66624Y115067D01*
Y114067D01*
X66516Y114065D01*
X66322Y114049D01*
X66236Y114035D01*
X66158Y114017D01*
X66086Y113995D01*
X66022Y113969D01*
X65964Y113939D01*
X65914Y113905D01*
X65872Y113867D01*
Y115267D01*
X65914Y115229D01*
D02*
G37*
G36*
X102042Y109832D02*
X101999Y109870D01*
X101949Y109904D01*
X101892Y109933D01*
X101827Y109959D01*
X101756Y109982D01*
X101677Y110000D01*
X101591Y110013D01*
X101498Y110023D01*
X101290Y110031D01*
Y111031D01*
X101398Y111033D01*
X101591Y111049D01*
X101677Y111064D01*
X101756Y111082D01*
X101827Y111103D01*
X101892Y111129D01*
X101949Y111160D01*
X101999Y111194D01*
X102042Y111232D01*
Y109832D01*
D02*
G37*
G36*
X220581Y93137D02*
Y80216D01*
X220775Y79241D01*
X221327Y78414D01*
X222154Y77862D01*
X223130Y77668D01*
X224105Y77862D01*
X224193Y77920D01*
X224634Y77684D01*
Y74860D01*
X203222Y53449D01*
X203106Y53534D01*
X203067Y53543D01*
X203034Y53565D01*
X202681Y53635D01*
X202362Y53712D01*
X202282Y53765D01*
X202222Y53777D01*
X202169Y53808D01*
X201968Y53836D01*
X201958Y53840D01*
X201937Y53840D01*
X201833Y53854D01*
X201501Y53920D01*
X201441Y53908D01*
X201380Y53917D01*
X201053Y53831D01*
X200721Y53765D01*
X200670Y53731D01*
X200611Y53715D01*
X200574Y53688D01*
X199812Y53536D01*
X198985Y52983D01*
X198432Y52157D01*
X198238Y51181D01*
X198432Y50206D01*
X198985Y49379D01*
X199812Y48826D01*
X200574Y48675D01*
X200611Y48647D01*
X200670Y48631D01*
X200721Y48597D01*
X201053Y48531D01*
X201380Y48445D01*
X201441Y48454D01*
X201501Y48442D01*
X201833Y48508D01*
X201937Y48522D01*
X201958Y48522D01*
X201968Y48526D01*
X202169Y48554D01*
X202222Y48585D01*
X202282Y48597D01*
X202378Y48661D01*
X202662Y48723D01*
X203034Y48797D01*
X203050Y48808D01*
X203069Y48812D01*
X203380Y49028D01*
X203550Y49142D01*
X203839D01*
X204619Y49297D01*
X205280Y49739D01*
X227817Y72275D01*
X228345Y72097D01*
X228371Y71904D01*
X192285Y35819D01*
X192253Y35813D01*
X191997Y35804D01*
X191865Y35745D01*
X191723Y35720D01*
X191506Y35581D01*
X191272Y35475D01*
X191218Y35417D01*
X191210Y35414D01*
X191142Y35405D01*
X190941Y35291D01*
X190925Y35286D01*
X190902Y35269D01*
X190854Y35242D01*
X190556Y35098D01*
X190510Y35046D01*
X190450Y35013D01*
X190247Y34751D01*
X190026Y34504D01*
X190003Y34439D01*
X189961Y34385D01*
X189956Y34366D01*
X189831Y34283D01*
X189279Y33456D01*
X189085Y32480D01*
X189279Y31505D01*
X189831Y30678D01*
X190658Y30125D01*
X191356Y29987D01*
X191521Y29444D01*
X185868Y23791D01*
X165608D01*
X138548Y50851D01*
X137887Y51293D01*
X137106Y51449D01*
X54315D01*
Y57080D01*
X102229Y57080D01*
X103009Y57235D01*
X103671Y57677D01*
X104607Y58613D01*
X104788Y58649D01*
X105142Y58705D01*
X105176Y58726D01*
X105215Y58734D01*
X105514Y58933D01*
X105794Y59105D01*
X105888Y59124D01*
X105940Y59158D01*
X105999Y59174D01*
X106160Y59296D01*
X106162Y59297D01*
X106171Y59296D01*
X106180Y59300D01*
X106372Y59317D01*
X106425Y59345D01*
X106484Y59354D01*
X106597Y59422D01*
X106905Y59488D01*
X107226Y59533D01*
X107292Y59572D01*
X107366Y59588D01*
X107633Y59773D01*
X107881Y59920D01*
X170255D01*
X170348Y59852D01*
X170653Y59622D01*
X170668Y59618D01*
X170682Y59608D01*
X171053Y59518D01*
X171363Y59438D01*
X171412Y59402D01*
X171474Y59387D01*
X171527Y59352D01*
X171736Y59313D01*
X171746Y59308D01*
X171769Y59307D01*
X171857Y59290D01*
X172183Y59209D01*
X172246Y59218D01*
X172309Y59206D01*
X172638Y59276D01*
X172970Y59325D01*
X173025Y59358D01*
X173088Y59371D01*
X173088Y59372D01*
X174007Y59554D01*
X174834Y60107D01*
X175386Y60934D01*
X175581Y61909D01*
X175386Y62885D01*
X174834Y63712D01*
X174007Y64264D01*
X173384Y64388D01*
X173329Y64434D01*
X173273Y64451D01*
X173225Y64487D01*
X172895Y64570D01*
X172570Y64671D01*
X172511Y64666D01*
X172453Y64680D01*
X172117Y64631D01*
X172000Y64620D01*
X171979Y64621D01*
X171970Y64617D01*
X171778Y64600D01*
X171725Y64573D01*
X171666Y64564D01*
X171552Y64496D01*
X171245Y64429D01*
X170924Y64384D01*
X170858Y64345D01*
X170783Y64329D01*
X170517Y64144D01*
X170268Y63998D01*
X107894D01*
X107802Y64065D01*
X107497Y64295D01*
X107481Y64299D01*
X107468Y64309D01*
X107096Y64399D01*
X106787Y64479D01*
X106738Y64515D01*
X106676Y64531D01*
X106623Y64565D01*
X106414Y64604D01*
X106403Y64609D01*
X106381Y64610D01*
X106292Y64627D01*
X106281Y64630D01*
X106269Y64638D01*
X106185Y64701D01*
X106170Y64716D01*
X106160Y64720D01*
X105999Y64842D01*
X105940Y64858D01*
X105888Y64892D01*
X105775Y64914D01*
X105530Y65072D01*
X105215Y65282D01*
X105196Y65286D01*
X105180Y65296D01*
X104807Y65363D01*
X104607Y65403D01*
X88942Y81068D01*
X88280Y81510D01*
X87500Y81665D01*
X69410D01*
X69247Y81774D01*
X68943Y81989D01*
X68917Y81995D01*
X68894Y82010D01*
X68530Y82082D01*
X68518Y82085D01*
X68453Y82129D01*
X68383Y82213D01*
X68126Y82347D01*
Y85299D01*
Y89236D01*
Y93173D01*
Y97110D01*
Y101047D01*
Y105449D01*
X68112Y108138D01*
X68465Y108492D01*
X99993D01*
X100147Y108390D01*
X100438Y108179D01*
X100476Y108170D01*
X100510Y108148D01*
X100862Y108077D01*
X101181Y108001D01*
X101261Y107948D01*
X101322Y107936D01*
X101375Y107905D01*
X101575Y107877D01*
X101585Y107873D01*
X101606Y107873D01*
X101710Y107858D01*
X102042Y107792D01*
X102102Y107804D01*
X102163Y107796D01*
X102490Y107881D01*
X102822Y107948D01*
X102873Y107982D01*
X102933Y107997D01*
X102969Y108025D01*
X103731Y108177D01*
X104558Y108729D01*
X105111Y109556D01*
X105305Y110531D01*
X105111Y111507D01*
X104763Y112028D01*
X105030Y112528D01*
X176378D01*
X177158Y112683D01*
X177820Y113125D01*
X179115Y114420D01*
X179295Y114456D01*
X179650Y114512D01*
X179684Y114533D01*
X179723Y114541D01*
X180022Y114741D01*
X180302Y114912D01*
X180396Y114931D01*
X180447Y114965D01*
X180507Y114981D01*
X180668Y115103D01*
X180678Y115107D01*
X180693Y115122D01*
X180777Y115185D01*
X181058Y115373D01*
X181092Y115424D01*
X181141Y115461D01*
X181312Y115753D01*
X181500Y116035D01*
X181512Y116095D01*
X181543Y116148D01*
X181549Y116193D01*
X181981Y116840D01*
X182175Y117815D01*
X181981Y118790D01*
X181428Y119617D01*
X180735Y120081D01*
X180886Y120581D01*
X193137D01*
X220581Y93137D01*
D02*
G37*
G36*
X45774Y104437D02*
X45575Y104231D01*
X45261Y103861D01*
X45147Y103699D01*
X45061Y103550D01*
X45003Y103416D01*
X44973Y103296D01*
X44972Y103190D01*
X44999Y103099D01*
X45055Y103023D01*
X43652Y104425D01*
X43729Y104369D01*
X43820Y104342D01*
X43926Y104344D01*
X44046Y104373D01*
X44180Y104431D01*
X44328Y104517D01*
X44491Y104631D01*
X44669Y104774D01*
X45067Y105144D01*
X45774Y104437D01*
D02*
G37*
G36*
X33292Y102347D02*
X33282Y102442D01*
X33251Y102526D01*
X33201Y102601D01*
X33130Y102666D01*
X33039Y102722D01*
X32927Y102767D01*
X32796Y102801D01*
X32644Y102826D01*
X32472Y102841D01*
X32280Y102847D01*
Y103847D01*
X32472Y103851D01*
X32644Y103867D01*
X32796Y103892D01*
X32927Y103926D01*
X33039Y103972D01*
X33130Y104026D01*
X33201Y104092D01*
X33251Y104166D01*
X33282Y104251D01*
X33292Y104347D01*
Y102347D01*
D02*
G37*
G36*
X10322Y104597D02*
X10487Y104439D01*
X10652Y104300D01*
X10818Y104180D01*
X10984Y104078D01*
X11151Y103995D01*
X11318Y103930D01*
X11485Y103884D01*
X11653Y103856D01*
X11821Y103847D01*
X11770Y102847D01*
X11607Y102838D01*
X11441Y102812D01*
X11272Y102768D01*
X11101Y102707D01*
X10927Y102629D01*
X10751Y102533D01*
X10572Y102420D01*
X10390Y102289D01*
X10206Y102142D01*
X10019Y101976D01*
X10157Y104773D01*
X10322Y104597D01*
D02*
G37*
G36*
X48118Y99540D02*
X48327Y99356D01*
X48386Y99312D01*
X48440Y99277D01*
X48489Y99250D01*
X48533Y99232D01*
X48571Y99222D01*
X48604Y99221D01*
X47727Y98345D01*
X47727Y98378D01*
X47717Y98416D01*
X47699Y98460D01*
X47672Y98508D01*
X47637Y98562D01*
X47593Y98622D01*
X47479Y98756D01*
X47330Y98911D01*
X48037Y99619D01*
X48118Y99540D01*
D02*
G37*
G36*
X45065Y100216D02*
X45095Y100131D01*
X45146Y100056D01*
X45217Y99991D01*
X45308Y99936D01*
X45419Y99891D01*
X45551Y99856D01*
X45702Y99831D01*
X45875Y99816D01*
X46067Y99811D01*
Y98811D01*
X45875Y98806D01*
X45702Y98791D01*
X45551Y98766D01*
X45419Y98731D01*
X45308Y98686D01*
X45217Y98631D01*
X45146Y98566D01*
X45095Y98491D01*
X45065Y98406D01*
X45055Y98311D01*
Y100311D01*
X45065Y100216D01*
D02*
G37*
G36*
X33292Y98311D02*
X33282Y98406D01*
X33251Y98491D01*
X33201Y98566D01*
X33130Y98631D01*
X33039Y98686D01*
X32927Y98731D01*
X32796Y98766D01*
X32644Y98791D01*
X32472Y98806D01*
X32280Y98811D01*
Y99811D01*
X32472Y99816D01*
X32644Y99831D01*
X32796Y99856D01*
X32927Y99891D01*
X33039Y99936D01*
X33130Y99991D01*
X33201Y100056D01*
X33251Y100131D01*
X33282Y100216D01*
X33292Y100311D01*
Y98311D01*
D02*
G37*
G36*
X21158Y95912D02*
X21209Y95883D01*
X21267Y95858D01*
X21332Y95836D01*
X21405Y95818D01*
X21484Y95802D01*
X21571Y95791D01*
X21766Y95777D01*
X21874Y95776D01*
X21988Y94776D01*
X21881Y94773D01*
X21689Y94755D01*
X21604Y94740D01*
X21526Y94719D01*
X21456Y94695D01*
X21394Y94665D01*
X21339Y94632D01*
X21292Y94594D01*
X21252Y94551D01*
X21114Y95944D01*
X21158Y95912D01*
D02*
G37*
G36*
X45065Y96279D02*
X45095Y96194D01*
X45146Y96119D01*
X45217Y96054D01*
X45308Y95999D01*
X45419Y95954D01*
X45551Y95919D01*
X45702Y95894D01*
X45875Y95879D01*
X46067Y95874D01*
Y94874D01*
X45875Y94869D01*
X45702Y94854D01*
X45551Y94829D01*
X45419Y94794D01*
X45308Y94749D01*
X45217Y94694D01*
X45146Y94629D01*
X45095Y94554D01*
X45065Y94469D01*
X45055Y94374D01*
Y96374D01*
X45065Y96279D01*
D02*
G37*
G36*
X11233Y96205D02*
X11122Y96081D01*
X11023Y95944D01*
X10936Y95793D01*
X10861Y95629D01*
X10798Y95452D01*
X10747Y95261D01*
X10707Y95056D01*
X10680Y94838D01*
X10665Y94606D01*
X10661Y94361D01*
X8681Y96340D01*
X8927Y96344D01*
X9377Y96387D01*
X9581Y96426D01*
X9773Y96477D01*
X9950Y96540D01*
X10114Y96615D01*
X10265Y96702D01*
X10402Y96801D01*
X10526Y96912D01*
X11233Y96205D01*
D02*
G37*
G36*
X33292Y94276D02*
X33282Y94371D01*
X33251Y94456D01*
X33201Y94531D01*
X33130Y94596D01*
X33039Y94651D01*
X32927Y94696D01*
X32796Y94731D01*
X32644Y94756D01*
X32472Y94771D01*
X32280Y94776D01*
Y95776D01*
X32472Y95781D01*
X32644Y95796D01*
X32796Y95821D01*
X32927Y95856D01*
X33039Y95901D01*
X33130Y95956D01*
X33201Y96021D01*
X33251Y96096D01*
X33282Y96181D01*
X33292Y96276D01*
Y94276D01*
D02*
G37*
G36*
X48018Y95335D02*
X48167Y95214D01*
X48238Y95167D01*
X48307Y95129D01*
X48373Y95100D01*
X48438Y95080D01*
X48500Y95069D01*
X48560Y95067D01*
X48618Y95074D01*
X47835Y93913D01*
X47824Y93961D01*
X47804Y94011D01*
X47778Y94066D01*
X47745Y94124D01*
X47704Y94185D01*
X47602Y94317D01*
X47540Y94388D01*
X47395Y94541D01*
X47940Y95410D01*
X48018Y95335D01*
D02*
G37*
G36*
X51661Y90934D02*
X51617Y90963D01*
X51567Y90989D01*
X51509Y91011D01*
X51444Y91031D01*
X51372Y91047D01*
X51292Y91061D01*
X51112Y91079D01*
X51010Y91083D01*
X50902Y91085D01*
X50728Y92085D01*
X50835Y92087D01*
X51027Y92106D01*
X51111Y92122D01*
X51188Y92143D01*
X51256Y92169D01*
X51317Y92200D01*
X51371Y92235D01*
X51416Y92275D01*
X51454Y92319D01*
X51661Y90934D01*
D02*
G37*
G36*
X25166Y92099D02*
X25216Y92065D01*
X25274Y92035D01*
X25338Y92009D01*
X25410Y91987D01*
X25488Y91969D01*
X25574Y91955D01*
X25668Y91945D01*
X25875Y91937D01*
Y90937D01*
X25768Y90935D01*
X25574Y90919D01*
X25488Y90905D01*
X25410Y90887D01*
X25338Y90865D01*
X25274Y90839D01*
X25216Y90809D01*
X25166Y90775D01*
X25124Y90737D01*
Y92137D01*
X25166Y92099D01*
D02*
G37*
G36*
X45065Y92490D02*
X45095Y92405D01*
X45146Y92330D01*
X45217Y92265D01*
X45308Y92210D01*
X45419Y92165D01*
X45551Y92130D01*
X45702Y92105D01*
X45875Y92090D01*
X46067Y92085D01*
Y91085D01*
X45875Y91080D01*
X45702Y91065D01*
X45551Y91040D01*
X45419Y91005D01*
X45308Y90960D01*
X45217Y90905D01*
X45146Y90840D01*
X45095Y90765D01*
X45065Y90680D01*
X45055Y90585D01*
Y92585D01*
X45065Y92490D01*
D02*
G37*
G36*
X33292Y90437D02*
X33282Y90532D01*
X33251Y90617D01*
X33201Y90692D01*
X33130Y90757D01*
X33039Y90812D01*
X32927Y90857D01*
X32796Y90892D01*
X32644Y90917D01*
X32472Y90932D01*
X32280Y90937D01*
Y91937D01*
X32472Y91942D01*
X32644Y91957D01*
X32796Y91982D01*
X32927Y92017D01*
X33039Y92062D01*
X33130Y92117D01*
X33201Y92182D01*
X33251Y92257D01*
X33282Y92342D01*
X33292Y92437D01*
Y90437D01*
D02*
G37*
G36*
X47706Y86967D02*
X47663Y86997D01*
X47612Y87024D01*
X47554Y87048D01*
X47489Y87069D01*
X47416Y87086D01*
X47337Y87100D01*
X47156Y87120D01*
X47055Y87124D01*
X46947Y87126D01*
X46799Y88126D01*
X46907Y88128D01*
X47099Y88147D01*
X47183Y88163D01*
X47260Y88183D01*
X47329Y88209D01*
X47391Y88239D01*
X47445Y88273D01*
X47491Y88313D01*
X47530Y88356D01*
X47706Y86967D01*
D02*
G37*
G36*
X28716Y88174D02*
X28766Y88139D01*
X28823Y88109D01*
X28887Y88082D01*
X28959Y88060D01*
X29037Y88042D01*
X29123Y88028D01*
X29216Y88018D01*
X29424Y88009D01*
X29413Y87009D01*
X29306Y87007D01*
X29112Y86992D01*
X29026Y86978D01*
X28947Y86960D01*
X28875Y86938D01*
X28811Y86913D01*
X28753Y86883D01*
X28703Y86850D01*
X28660Y86812D01*
X28673Y88212D01*
X28716Y88174D01*
D02*
G37*
G36*
X45065Y88531D02*
X45095Y88446D01*
X45146Y88371D01*
X45217Y88306D01*
X45308Y88251D01*
X45419Y88206D01*
X45551Y88171D01*
X45702Y88146D01*
X45875Y88131D01*
X46067Y88126D01*
Y87126D01*
X45875Y87121D01*
X45702Y87106D01*
X45551Y87081D01*
X45419Y87046D01*
X45308Y87001D01*
X45217Y86946D01*
X45146Y86881D01*
X45095Y86806D01*
X45065Y86721D01*
X45055Y86626D01*
Y88626D01*
X45065Y88531D01*
D02*
G37*
G36*
X33292Y86509D02*
X33282Y86604D01*
X33251Y86689D01*
X33201Y86764D01*
X33130Y86829D01*
X33039Y86884D01*
X32927Y86929D01*
X32796Y86964D01*
X32644Y86989D01*
X32472Y87004D01*
X32280Y87009D01*
Y88009D01*
X32472Y88014D01*
X32644Y88029D01*
X32796Y88054D01*
X32927Y88089D01*
X33039Y88134D01*
X33130Y88189D01*
X33201Y88254D01*
X33251Y88329D01*
X33282Y88414D01*
X33292Y88509D01*
Y86509D01*
D02*
G37*
G36*
X53048Y84101D02*
X53099Y84072D01*
X53157Y84047D01*
X53222Y84025D01*
X53294Y84007D01*
X53374Y83991D01*
X53461Y83980D01*
X53655Y83966D01*
X53763Y83965D01*
X53878Y82965D01*
X53771Y82962D01*
X53578Y82944D01*
X53493Y82929D01*
X53416Y82908D01*
X53346Y82884D01*
X53284Y82854D01*
X53229Y82821D01*
X53182Y82783D01*
X53142Y82740D01*
X53004Y84133D01*
X53048Y84101D01*
D02*
G37*
G36*
X45065Y84468D02*
X45095Y84383D01*
X45146Y84308D01*
X45217Y84243D01*
X45308Y84188D01*
X45419Y84143D01*
X45551Y84108D01*
X45702Y84083D01*
X45875Y84068D01*
X46067Y84063D01*
Y83063D01*
X45875Y83058D01*
X45702Y83043D01*
X45551Y83018D01*
X45419Y82983D01*
X45308Y82938D01*
X45217Y82883D01*
X45146Y82818D01*
X45095Y82743D01*
X45065Y82658D01*
X45055Y82563D01*
Y84563D01*
X45065Y84468D01*
D02*
G37*
G36*
X33292Y82563D02*
X33282Y82658D01*
X33251Y82743D01*
X33201Y82818D01*
X33130Y82883D01*
X33039Y82938D01*
X32927Y82983D01*
X32796Y83018D01*
X32644Y83043D01*
X32472Y83058D01*
X32280Y83063D01*
Y84063D01*
X32472Y84068D01*
X32644Y84083D01*
X32796Y84108D01*
X32927Y84143D01*
X33039Y84188D01*
X33130Y84243D01*
X33201Y84308D01*
X33251Y84383D01*
X33282Y84468D01*
X33292Y84563D01*
Y82563D01*
D02*
G37*
G36*
X55339Y82465D02*
X55329Y82560D01*
X55299Y82645D01*
X55248Y82720D01*
X55177Y82785D01*
X55086Y82840D01*
X54975Y82885D01*
X54843Y82920D01*
X54691Y82945D01*
X54519Y82960D01*
X54327Y82965D01*
Y83965D01*
X54519Y83970D01*
X54691Y83985D01*
X54843Y84010D01*
X54975Y84045D01*
X55086Y84090D01*
X55177Y84145D01*
X55248Y84210D01*
X55299Y84285D01*
X55329Y84370D01*
X55339Y84465D01*
Y82465D01*
D02*
G37*
G36*
X49897Y81434D02*
X50045Y81308D01*
X50116Y81257D01*
X50184Y81214D01*
X50251Y81179D01*
X50314Y81152D01*
X50376Y81133D01*
X50436Y81121D01*
X50493Y81118D01*
X49503Y80128D01*
X49499Y80185D01*
X49488Y80245D01*
X49469Y80306D01*
X49442Y80370D01*
X49406Y80436D01*
X49363Y80505D01*
X49313Y80576D01*
X49254Y80648D01*
X49112Y80801D01*
X49819Y81508D01*
X49897Y81434D01*
D02*
G37*
G36*
X67112Y80531D02*
X67142Y80446D01*
X67193Y80371D01*
X67264Y80306D01*
X67355Y80251D01*
X67466Y80206D01*
X67598Y80171D01*
X67750Y80146D01*
X67922Y80131D01*
X68114Y80126D01*
Y79126D01*
X67922Y79121D01*
X67750Y79106D01*
X67598Y79081D01*
X67466Y79046D01*
X67355Y79001D01*
X67264Y78946D01*
X67193Y78881D01*
X67142Y78806D01*
X67112Y78721D01*
X67102Y78626D01*
Y80626D01*
X67112Y80531D01*
D02*
G37*
G36*
X45065D02*
X45095Y80446D01*
X45146Y80371D01*
X45217Y80306D01*
X45308Y80251D01*
X45419Y80206D01*
X45551Y80171D01*
X45702Y80146D01*
X45875Y80131D01*
X46067Y80126D01*
Y79126D01*
X45875Y79121D01*
X45702Y79106D01*
X45551Y79081D01*
X45419Y79046D01*
X45308Y79001D01*
X45217Y78946D01*
X45146Y78881D01*
X45095Y78806D01*
X45065Y78721D01*
X45055Y78626D01*
Y80626D01*
X45065Y80531D01*
D02*
G37*
G36*
X33292Y78626D02*
X33282Y78721D01*
X33251Y78806D01*
X33201Y78881D01*
X33130Y78946D01*
X33039Y79001D01*
X32927Y79046D01*
X32796Y79081D01*
X32644Y79106D01*
X32472Y79121D01*
X32280Y79126D01*
Y80126D01*
X32472Y80131D01*
X32644Y80146D01*
X32796Y80171D01*
X32927Y80206D01*
X33039Y80251D01*
X33130Y80306D01*
X33201Y80371D01*
X33251Y80446D01*
X33282Y80531D01*
X33292Y80626D01*
Y78626D01*
D02*
G37*
G36*
X11233Y77996D02*
X11122Y77873D01*
X11023Y77736D01*
X10936Y77585D01*
X10861Y77421D01*
X10798Y77243D01*
X10747Y77052D01*
X10707Y76847D01*
X10680Y76629D01*
X10665Y76397D01*
X10661Y76152D01*
X8681Y78132D01*
X8927Y78135D01*
X9377Y78178D01*
X9581Y78217D01*
X9773Y78268D01*
X9950Y78332D01*
X10114Y78407D01*
X10265Y78493D01*
X10402Y78592D01*
X10526Y78703D01*
X11233Y77996D01*
D02*
G37*
G36*
X51645Y76574D02*
X51794Y76451D01*
X51865Y76402D01*
X51934Y76362D01*
X52001Y76330D01*
X52066Y76307D01*
X52129Y76293D01*
X52189Y76286D01*
X52248Y76289D01*
X51367Y75200D01*
X51358Y75254D01*
X51342Y75310D01*
X51319Y75369D01*
X51288Y75430D01*
X51249Y75494D01*
X51204Y75561D01*
X51151Y75630D01*
X51022Y75778D01*
X50947Y75855D01*
X51568Y76649D01*
X51645Y76574D01*
D02*
G37*
G36*
X40885Y66606D02*
X40715Y66546D01*
X40565Y66446D01*
X40435Y66306D01*
X40325Y66126D01*
X40235Y65906D01*
X40165Y65646D01*
X40115Y65346D01*
X40085Y65006D01*
X40075Y64626D01*
X38075D01*
X38065Y65006D01*
X38035Y65346D01*
X37985Y65646D01*
X37915Y65906D01*
X37825Y66126D01*
X37715Y66306D01*
X37585Y66446D01*
X37435Y66546D01*
X37265Y66606D01*
X37075Y66626D01*
X41075D01*
X40885Y66606D01*
D02*
G37*
G36*
X10665Y66762D02*
X10707Y66312D01*
X10747Y66108D01*
X10798Y65916D01*
X10861Y65739D01*
X10936Y65575D01*
X11023Y65424D01*
X11122Y65287D01*
X11233Y65163D01*
X10526Y64456D01*
X10402Y64567D01*
X10265Y64666D01*
X10114Y64753D01*
X9950Y64828D01*
X9773Y64891D01*
X9581Y64942D01*
X9377Y64982D01*
X9159Y65009D01*
X8927Y65024D01*
X8681Y65028D01*
X10661Y67008D01*
X10665Y66762D01*
D02*
G37*
G36*
X104513Y63323D02*
X104661Y63198D01*
X104731Y63147D01*
X104800Y63104D01*
X104866Y63069D01*
X104930Y63042D01*
X104992Y63023D01*
X105051Y63011D01*
X105108Y63008D01*
X104118Y62018D01*
X104115Y62075D01*
X104103Y62134D01*
X104084Y62196D01*
X104057Y62260D01*
X104022Y62326D01*
X103979Y62395D01*
X103928Y62465D01*
X103869Y62538D01*
X103728Y62691D01*
X104435Y63398D01*
X104513Y63323D01*
D02*
G37*
G36*
X105907Y62631D02*
X105956Y62595D01*
X106012Y62563D01*
X106076Y62535D01*
X106147Y62512D01*
X106225Y62493D01*
X106310Y62478D01*
X106403Y62467D01*
X106611Y62459D01*
X106554Y61459D01*
X106446Y61457D01*
X106252Y61442D01*
X106166Y61429D01*
X106086Y61412D01*
X106014Y61392D01*
X105949Y61368D01*
X105891Y61340D01*
X105841Y61309D01*
X105797Y61274D01*
X105866Y62672D01*
X105907Y62631D01*
D02*
G37*
G36*
X172284Y61245D02*
X172242Y61286D01*
X172193Y61322D01*
X172137Y61354D01*
X172074Y61382D01*
X172003Y61405D01*
X171925Y61424D01*
X171839Y61440D01*
X171746Y61450D01*
X171539Y61459D01*
X171596Y62459D01*
X171704Y62461D01*
X171898Y62475D01*
X171984Y62488D01*
X172063Y62505D01*
X172135Y62525D01*
X172201Y62549D01*
X172258Y62577D01*
X172309Y62609D01*
X172353Y62644D01*
X172284Y61245D01*
D02*
G37*
G36*
X101723Y62519D02*
X101759Y62339D01*
X101815Y61987D01*
X101763Y61697D01*
X101723Y61497D01*
X101384Y61158D01*
X54315Y61158D01*
Y65614D01*
X60720D01*
Y67815D01*
X61221D01*
Y68315D01*
X68126D01*
Y69551D01*
Y71252D01*
X61221D01*
Y72252D01*
X68126D01*
Y73488D01*
Y75189D01*
X61221D01*
Y76189D01*
X68126D01*
Y76905D01*
X68383Y77039D01*
X68453Y77123D01*
X68518Y77167D01*
X68530Y77170D01*
X68894Y77242D01*
X68917Y77257D01*
X68943Y77263D01*
X69247Y77478D01*
X69410Y77587D01*
X86655D01*
X101723Y62519D01*
D02*
G37*
G36*
X105108Y61008D02*
X105051Y61005D01*
X104992Y60993D01*
X104930Y60974D01*
X104866Y60947D01*
X104800Y60912D01*
X104731Y60869D01*
X104661Y60818D01*
X104588Y60759D01*
X104435Y60618D01*
X103728Y61325D01*
X103803Y61402D01*
X103928Y61550D01*
X103979Y61621D01*
X104022Y61690D01*
X104057Y61756D01*
X104084Y61820D01*
X104103Y61881D01*
X104115Y61941D01*
X104118Y61998D01*
X105108Y61008D01*
D02*
G37*
G36*
X220977Y56982D02*
X220902Y56905D01*
X220777Y56757D01*
X220726Y56686D01*
X220683Y56617D01*
X220648Y56551D01*
X220620Y56487D01*
X220601Y56426D01*
X220590Y56366D01*
X220587Y56309D01*
X219597Y57299D01*
X219654Y57303D01*
X219713Y57314D01*
X219775Y57333D01*
X219839Y57360D01*
X219905Y57395D01*
X219973Y57438D01*
X220044Y57489D01*
X220117Y57548D01*
X220270Y57689D01*
X220977Y56982D01*
D02*
G37*
G36*
X220249Y55542D02*
X220215Y55492D01*
X220185Y55435D01*
X220159Y55371D01*
X220137Y55299D01*
X220119Y55220D01*
X220105Y55134D01*
X220095Y55041D01*
X220087Y54833D01*
X219087D01*
X219085Y54941D01*
X219069Y55134D01*
X219055Y55220D01*
X219037Y55299D01*
X219015Y55371D01*
X218989Y55435D01*
X218959Y55492D01*
X218925Y55542D01*
X218887Y55585D01*
X220287D01*
X220249Y55542D01*
D02*
G37*
G36*
X33548Y54465D02*
X33696Y54340D01*
X33767Y54289D01*
X33835Y54246D01*
X33901Y54211D01*
X33965Y54184D01*
X34027Y54164D01*
X34086Y54153D01*
X34143Y54150D01*
X33154Y53160D01*
X33150Y53217D01*
X33139Y53276D01*
X33120Y53338D01*
X33092Y53402D01*
X33057Y53468D01*
X33014Y53536D01*
X32963Y53607D01*
X32905Y53680D01*
X32763Y53833D01*
X33470Y54540D01*
X33548Y54465D01*
D02*
G37*
G36*
X201544Y51843D02*
X201594Y51809D01*
X201652Y51779D01*
X201716Y51753D01*
X201787Y51731D01*
X201866Y51713D01*
X201952Y51699D01*
X202045Y51689D01*
X202253Y51681D01*
Y50681D01*
X202146Y50679D01*
X201952Y50663D01*
X201866Y50649D01*
X201787Y50631D01*
X201716Y50609D01*
X201652Y50583D01*
X201594Y50553D01*
X201544Y50519D01*
X201501Y50481D01*
Y51881D01*
X201544Y51843D01*
D02*
G37*
G36*
X222808Y50227D02*
X222774Y50177D01*
X222744Y50120D01*
X222718Y50056D01*
X222696Y49984D01*
X222678Y49905D01*
X222664Y49819D01*
X222654Y49726D01*
X222646Y49518D01*
X221646D01*
X221644Y49626D01*
X221628Y49819D01*
X221614Y49905D01*
X221596Y49984D01*
X221574Y50056D01*
X221548Y50120D01*
X221518Y50177D01*
X221484Y50227D01*
X221446Y50270D01*
X222846D01*
X222808Y50227D01*
D02*
G37*
G36*
X30918Y47632D02*
X30843Y47554D01*
X30718Y47406D01*
X30667Y47335D01*
X30624Y47267D01*
X30589Y47201D01*
X30562Y47137D01*
X30542Y47075D01*
X30531Y47016D01*
X30527Y46959D01*
X29538Y47949D01*
X29595Y47952D01*
X29654Y47964D01*
X29716Y47983D01*
X29780Y48010D01*
X29846Y48045D01*
X29914Y48088D01*
X29985Y48139D01*
X30058Y48198D01*
X30211Y48339D01*
X30918Y47632D01*
D02*
G37*
G36*
X10488Y47988D02*
X10485Y47931D01*
X10493Y47869D01*
X10514Y47802D01*
X10546Y47730D01*
X10590Y47654D01*
X10646Y47574D01*
X10714Y47488D01*
X10793Y47398D01*
X10885Y47302D01*
X10178Y46595D01*
X10083Y46687D01*
X9907Y46834D01*
X9826Y46890D01*
X9750Y46934D01*
X9678Y46966D01*
X9612Y46987D01*
X9550Y46995D01*
X9493Y46992D01*
X9440Y46977D01*
X10504Y48040D01*
X10488Y47988D01*
D02*
G37*
G36*
X28813Y46249D02*
X28771Y46287D01*
X28721Y46321D01*
X28663Y46351D01*
X28599Y46377D01*
X28527Y46399D01*
X28449Y46417D01*
X28363Y46431D01*
X28269Y46441D01*
X28062Y46449D01*
Y47449D01*
X28169Y47451D01*
X28363Y47467D01*
X28449Y47481D01*
X28527Y47499D01*
X28599Y47521D01*
X28663Y47547D01*
X28721Y47577D01*
X28771Y47611D01*
X28813Y47649D01*
Y46249D01*
D02*
G37*
G36*
X92411Y45457D02*
X92354Y45453D01*
X92295Y45442D01*
X92233Y45423D01*
X92169Y45396D01*
X92103Y45361D01*
X92035Y45318D01*
X91964Y45267D01*
X91891Y45208D01*
X91738Y45066D01*
X91031Y45774D01*
X91106Y45851D01*
X91231Y45999D01*
X91282Y46070D01*
X91325Y46138D01*
X91360Y46205D01*
X91387Y46268D01*
X91407Y46330D01*
X91418Y46390D01*
X91421Y46447D01*
X92411Y45457D01*
D02*
G37*
G36*
X51052Y44461D02*
X51102Y44427D01*
X51159Y44397D01*
X51224Y44371D01*
X51295Y44349D01*
X51374Y44331D01*
X51460Y44317D01*
X51553Y44307D01*
X51761Y44299D01*
Y43299D01*
X51654Y43297D01*
X51460Y43281D01*
X51374Y43267D01*
X51295Y43249D01*
X51224Y43227D01*
X51159Y43201D01*
X51102Y43171D01*
X51052Y43137D01*
X51009Y43099D01*
Y44499D01*
X51052Y44461D01*
D02*
G37*
G36*
X32582Y38740D02*
X32539Y38778D01*
X32489Y38812D01*
X32432Y38842D01*
X32368Y38868D01*
X32296Y38890D01*
X32217Y38908D01*
X32131Y38922D01*
X32038Y38932D01*
X31830Y38940D01*
Y39940D01*
X31938Y39942D01*
X32131Y39958D01*
X32217Y39972D01*
X32296Y39990D01*
X32368Y40012D01*
X32432Y40038D01*
X32489Y40068D01*
X32539Y40102D01*
X32582Y40140D01*
Y38740D01*
D02*
G37*
G36*
X51131Y39717D02*
X51181Y39683D01*
X51238Y39653D01*
X51302Y39627D01*
X51374Y39605D01*
X51453Y39587D01*
X51539Y39573D01*
X51632Y39563D01*
X51840Y39555D01*
Y38555D01*
X51732Y38553D01*
X51539Y38537D01*
X51453Y38523D01*
X51374Y38505D01*
X51302Y38483D01*
X51238Y38457D01*
X51181Y38427D01*
X51131Y38393D01*
X51088Y38355D01*
Y39755D01*
X51131Y39717D01*
D02*
G37*
G36*
X10413Y40722D02*
X10560Y40558D01*
X10711Y40413D01*
X10864Y40288D01*
X11021Y40181D01*
X11180Y40095D01*
X11343Y40027D01*
X11509Y39979D01*
X11677Y39950D01*
X11849Y39940D01*
X11705Y38940D01*
X11548Y38932D01*
X11385Y38908D01*
X11216Y38867D01*
X11042Y38811D01*
X10863Y38738D01*
X10678Y38649D01*
X10487Y38544D01*
X10091Y38285D01*
X9884Y38132D01*
X10268Y40905D01*
X10413Y40722D01*
D02*
G37*
G36*
X91816Y38127D02*
X91964Y38001D01*
X92035Y37950D01*
X92103Y37907D01*
X92169Y37872D01*
X92233Y37845D01*
X92295Y37826D01*
X92354Y37814D01*
X92411Y37811D01*
X91421Y36821D01*
X91418Y36878D01*
X91407Y36938D01*
X91387Y36999D01*
X91360Y37063D01*
X91325Y37129D01*
X91282Y37198D01*
X91231Y37268D01*
X91172Y37341D01*
X91031Y37494D01*
X91738Y38201D01*
X91816Y38127D01*
D02*
G37*
G36*
X25166Y35111D02*
X25216Y35077D01*
X25274Y35047D01*
X25338Y35021D01*
X25410Y34999D01*
X25488Y34981D01*
X25574Y34967D01*
X25668Y34957D01*
X25875Y34949D01*
Y33949D01*
X25768Y33947D01*
X25574Y33931D01*
X25488Y33917D01*
X25410Y33899D01*
X25338Y33877D01*
X25274Y33851D01*
X25216Y33821D01*
X25166Y33787D01*
X25124Y33749D01*
Y35149D01*
X25166Y35111D01*
D02*
G37*
G36*
X193054Y32996D02*
X192978Y32919D01*
X192795Y32703D01*
X192749Y32637D01*
X192710Y32574D01*
X192678Y32514D01*
X192653Y32457D01*
X192636Y32402D01*
X192625Y32351D01*
X191783Y33469D01*
X191841Y33465D01*
X191902Y33469D01*
X191964Y33483D01*
X192029Y33504D01*
X192096Y33535D01*
X192165Y33574D01*
X192236Y33623D01*
X192309Y33679D01*
X192385Y33745D01*
X192463Y33819D01*
X193054Y32996D01*
D02*
G37*
G36*
X51151Y34717D02*
X51201Y34683D01*
X51258Y34653D01*
X51322Y34627D01*
X51394Y34605D01*
X51473Y34587D01*
X51559Y34573D01*
X51652Y34563D01*
X51860Y34555D01*
Y33555D01*
X51752Y33553D01*
X51559Y33537D01*
X51473Y33523D01*
X51394Y33505D01*
X51322Y33483D01*
X51258Y33457D01*
X51201Y33427D01*
X51151Y33393D01*
X51108Y33355D01*
Y34755D01*
X51151Y34717D01*
D02*
G37*
G36*
X10266Y31839D02*
X10614Y31551D01*
X10786Y31434D01*
X10958Y31335D01*
X11128Y31254D01*
X11297Y31191D01*
X11465Y31146D01*
X11632Y31119D01*
X11798Y31110D01*
Y30110D01*
X11632Y30101D01*
X11465Y30074D01*
X11297Y30029D01*
X11128Y29966D01*
X10958Y29885D01*
X10786Y29786D01*
X10614Y29669D01*
X10440Y29534D01*
X10266Y29381D01*
X10090Y29210D01*
Y32010D01*
X10266Y31839D01*
D02*
G37*
G36*
X91717Y28875D02*
X91865Y28749D01*
X91936Y28698D01*
X92005Y28655D01*
X92071Y28620D01*
X92135Y28593D01*
X92196Y28574D01*
X92256Y28562D01*
X92313Y28559D01*
X91323Y27569D01*
X91320Y27626D01*
X91308Y27686D01*
X91289Y27747D01*
X91262Y27811D01*
X91227Y27877D01*
X91184Y27946D01*
X91133Y28016D01*
X91074Y28089D01*
X90933Y28242D01*
X91640Y28949D01*
X91717Y28875D01*
D02*
G37*
G36*
X47278Y28186D02*
X47426Y28060D01*
X47497Y28009D01*
X47565Y27966D01*
X47632Y27931D01*
X47695Y27904D01*
X47757Y27885D01*
X47817Y27873D01*
X47874Y27870D01*
X46884Y26880D01*
X46880Y26937D01*
X46869Y26997D01*
X46850Y27058D01*
X46823Y27122D01*
X46788Y27188D01*
X46745Y27257D01*
X46694Y27327D01*
X46635Y27400D01*
X46494Y27553D01*
X47201Y28260D01*
X47278Y28186D01*
D02*
G37*
G36*
X53922Y25134D02*
X54070Y25009D01*
X54141Y24958D01*
X54209Y24915D01*
X54276Y24880D01*
X54339Y24853D01*
X54401Y24834D01*
X54460Y24822D01*
X54518Y24819D01*
X53528Y23829D01*
X53524Y23886D01*
X53513Y23945D01*
X53494Y24007D01*
X53466Y24071D01*
X53431Y24137D01*
X53389Y24206D01*
X53338Y24276D01*
X53279Y24349D01*
X53137Y24502D01*
X53844Y25209D01*
X53922Y25134D01*
D02*
G37*
G36*
X50688Y21389D02*
X50700Y21330D01*
X50719Y21269D01*
X50746Y21205D01*
X50781Y21138D01*
X50824Y21070D01*
X50875Y20999D01*
X50934Y20926D01*
X51075Y20774D01*
X50368Y20066D01*
X50291Y20141D01*
X50143Y20267D01*
X50072Y20318D01*
X50003Y20361D01*
X49937Y20396D01*
X49873Y20423D01*
X49812Y20442D01*
X49752Y20453D01*
X49695Y20457D01*
X50685Y21447D01*
X50688Y21389D01*
D02*
G37*
%LPC*%
G36*
X153551Y107365D02*
Y106996D01*
X153920D01*
X153772Y107217D01*
X153551Y107365D01*
D02*
G37*
G36*
X152551D02*
X152330Y107217D01*
X152183Y106996D01*
X152551D01*
Y107365D01*
D02*
G37*
G36*
X153920Y105996D02*
X153551D01*
Y105628D01*
X153772Y105775D01*
X153920Y105996D01*
D02*
G37*
G36*
X152551D02*
X152183D01*
X152330Y105775D01*
X152551Y105628D01*
Y105996D01*
D02*
G37*
G36*
X114592Y99590D02*
X114532Y99578D01*
X114471Y99586D01*
X114144Y99500D01*
X113812Y99434D01*
X113761Y99400D01*
X113701Y99385D01*
X113665Y99357D01*
X112902Y99205D01*
X112075Y98653D01*
X111523Y97826D01*
X111329Y96850D01*
X111523Y95875D01*
X112075Y95048D01*
X112902Y94495D01*
X113665Y94344D01*
X113701Y94316D01*
X113761Y94301D01*
X113812Y94266D01*
X114144Y94200D01*
X114471Y94115D01*
X114532Y94123D01*
X114592Y94111D01*
X114924Y94177D01*
X115028Y94191D01*
X115049Y94192D01*
X115059Y94196D01*
X115259Y94223D01*
X115312Y94254D01*
X115373Y94266D01*
X115468Y94330D01*
X115752Y94392D01*
X116124Y94466D01*
X116140Y94477D01*
X116159Y94481D01*
X116471Y94698D01*
X116640Y94811D01*
X167266D01*
X188731Y73346D01*
X188767Y73165D01*
X188823Y72810D01*
X188844Y72776D01*
X188852Y72737D01*
X189051Y72439D01*
X189223Y72159D01*
X189242Y72064D01*
X189276Y72013D01*
X189292Y71954D01*
X189414Y71793D01*
X189418Y71783D01*
X189433Y71768D01*
X189496Y71684D01*
X189684Y71403D01*
X189735Y71369D01*
X189772Y71320D01*
X190064Y71149D01*
X190346Y70961D01*
X190406Y70949D01*
X190459Y70918D01*
X190505Y70911D01*
X191150Y70480D01*
X192126Y70286D01*
X193101Y70480D01*
X193928Y71032D01*
X194481Y71859D01*
X194675Y72835D01*
X194481Y73810D01*
X194049Y74456D01*
X194043Y74502D01*
X194012Y74555D01*
X194000Y74615D01*
X193812Y74896D01*
X193641Y75188D01*
X193592Y75225D01*
X193558Y75276D01*
X193277Y75464D01*
X193193Y75528D01*
X193178Y75543D01*
X193168Y75547D01*
X193007Y75669D01*
X192947Y75684D01*
X192896Y75719D01*
X192783Y75741D01*
X192538Y75898D01*
X192223Y76109D01*
X192204Y76113D01*
X192188Y76123D01*
X191815Y76190D01*
X191615Y76230D01*
X169552Y98292D01*
X168891Y98734D01*
X168110Y98890D01*
X116640D01*
X116487Y98992D01*
X116196Y99203D01*
X116157Y99212D01*
X116124Y99234D01*
X115772Y99304D01*
X115453Y99381D01*
X115373Y99434D01*
X115312Y99446D01*
X115259Y99477D01*
X115059Y99505D01*
X115049Y99509D01*
X115028Y99509D01*
X114924Y99524D01*
X114592Y99590D01*
D02*
G37*
G36*
X181928Y98703D02*
Y98335D01*
X182297D01*
X182149Y98556D01*
X181928Y98703D01*
D02*
G37*
G36*
X180928D02*
X180707Y98556D01*
X180560Y98335D01*
X180928D01*
Y98703D01*
D02*
G37*
G36*
X182297Y97335D02*
X181928D01*
Y96966D01*
X182149Y97114D01*
X182297Y97335D01*
D02*
G37*
G36*
X180928D02*
X180560D01*
X180707Y97114D01*
X180928Y96966D01*
Y97335D01*
D02*
G37*
G36*
X212739Y97163D02*
Y96794D01*
X213108D01*
X212960Y97015D01*
X212739Y97163D01*
D02*
G37*
G36*
X211739D02*
X211518Y97015D01*
X211371Y96794D01*
X211739D01*
Y97163D01*
D02*
G37*
G36*
X213108Y95794D02*
X212739D01*
Y95426D01*
X212960Y95573D01*
X213108Y95794D01*
D02*
G37*
G36*
X211739D02*
X211371D01*
X211518Y95573D01*
X211739Y95426D01*
Y95794D01*
D02*
G37*
G36*
X148900Y80770D02*
Y80402D01*
X149269D01*
X149121Y80623D01*
X148900Y80770D01*
D02*
G37*
G36*
X147900D02*
X147679Y80623D01*
X147531Y80402D01*
X147900D01*
Y80770D01*
D02*
G37*
G36*
X149269Y79402D02*
X148900D01*
Y79033D01*
X149121Y79181D01*
X149269Y79402D01*
D02*
G37*
G36*
X147900D02*
X147531D01*
X147679Y79181D01*
X147900Y79033D01*
Y79402D01*
D02*
G37*
G36*
X114592Y74590D02*
X114532Y74578D01*
X114471Y74586D01*
X114144Y74500D01*
X113812Y74434D01*
X113761Y74400D01*
X113701Y74385D01*
X113665Y74357D01*
X112902Y74205D01*
X112075Y73653D01*
X111523Y72826D01*
X111329Y71850D01*
X111523Y70875D01*
X112075Y70048D01*
X112902Y69495D01*
X113665Y69344D01*
X113701Y69316D01*
X113761Y69301D01*
X113812Y69266D01*
X114144Y69200D01*
X114471Y69115D01*
X114532Y69123D01*
X114592Y69111D01*
X114924Y69177D01*
X115028Y69191D01*
X115049Y69192D01*
X115059Y69196D01*
X115259Y69223D01*
X115312Y69254D01*
X115373Y69266D01*
X115468Y69330D01*
X115752Y69392D01*
X116124Y69466D01*
X116140Y69477D01*
X116159Y69481D01*
X116471Y69698D01*
X116640Y69811D01*
X179077D01*
X179577Y69311D01*
X179613Y69130D01*
X179670Y68775D01*
X179691Y68741D01*
X179698Y68702D01*
X179898Y68403D01*
X180070Y68123D01*
X180088Y68029D01*
X180123Y67978D01*
X180138Y67918D01*
X180260Y67757D01*
X180264Y67747D01*
X180279Y67732D01*
X180343Y67649D01*
X180531Y67367D01*
X180582Y67333D01*
X180619Y67284D01*
X180911Y67113D01*
X181192Y66925D01*
X181252Y66913D01*
X181305Y66882D01*
X181351Y66876D01*
X181997Y66444D01*
X182972Y66250D01*
X183948Y66444D01*
X184775Y66997D01*
X185327Y67824D01*
X185521Y68799D01*
X185327Y69775D01*
X184896Y70421D01*
X184889Y70466D01*
X184858Y70519D01*
X184846Y70579D01*
X184658Y70861D01*
X184487Y71153D01*
X184439Y71190D01*
X184404Y71241D01*
X184123Y71429D01*
X184039Y71492D01*
X184024Y71507D01*
X184015Y71511D01*
X183853Y71633D01*
X183794Y71649D01*
X183743Y71683D01*
X183630Y71706D01*
X183385Y71863D01*
X183070Y72073D01*
X183051Y72077D01*
X183035Y72088D01*
X182661Y72155D01*
X182461Y72194D01*
X181363Y73292D01*
X180702Y73734D01*
X179921Y73890D01*
X116640D01*
X116487Y73992D01*
X116196Y74203D01*
X116157Y74212D01*
X116124Y74234D01*
X115772Y74304D01*
X115453Y74381D01*
X115373Y74434D01*
X115312Y74446D01*
X115259Y74477D01*
X115059Y74505D01*
X115049Y74509D01*
X115028Y74509D01*
X114924Y74524D01*
X114592Y74590D01*
D02*
G37*
G36*
X105913Y70554D02*
Y70185D01*
X106282D01*
X106134Y70406D01*
X105913Y70554D01*
D02*
G37*
G36*
X104913D02*
X104692Y70406D01*
X104545Y70185D01*
X104913D01*
Y70554D01*
D02*
G37*
G36*
X106282Y69185D02*
X105913D01*
Y68816D01*
X106134Y68964D01*
X106282Y69185D01*
D02*
G37*
G36*
X104913D02*
X104545D01*
X104692Y68964D01*
X104913Y68816D01*
Y69185D01*
D02*
G37*
%LPD*%
G36*
X114635Y97512D02*
X114685Y97478D01*
X114742Y97448D01*
X114806Y97422D01*
X114878Y97400D01*
X114957Y97382D01*
X115043Y97368D01*
X115136Y97358D01*
X115344Y97350D01*
Y96350D01*
X115236Y96348D01*
X115043Y96332D01*
X114957Y96318D01*
X114878Y96300D01*
X114806Y96278D01*
X114742Y96252D01*
X114685Y96222D01*
X114635Y96188D01*
X114592Y96150D01*
Y97550D01*
X114635Y97512D01*
D02*
G37*
G36*
X191520Y74150D02*
X191669Y74025D01*
X191739Y73974D01*
X191808Y73931D01*
X191874Y73896D01*
X191938Y73869D01*
X191999Y73849D01*
X192059Y73838D01*
X192116Y73835D01*
X191126Y72845D01*
X191123Y72902D01*
X191111Y72961D01*
X191092Y73023D01*
X191065Y73087D01*
X191030Y73153D01*
X190987Y73221D01*
X190936Y73292D01*
X190877Y73365D01*
X190736Y73518D01*
X191443Y74225D01*
X191520Y74150D01*
D02*
G37*
G36*
X114635Y72512D02*
X114685Y72478D01*
X114742Y72448D01*
X114806Y72422D01*
X114878Y72400D01*
X114957Y72382D01*
X115043Y72368D01*
X115136Y72358D01*
X115344Y72350D01*
Y71350D01*
X115236Y71348D01*
X115043Y71332D01*
X114957Y71318D01*
X114878Y71300D01*
X114806Y71278D01*
X114742Y71252D01*
X114685Y71222D01*
X114635Y71188D01*
X114592Y71150D01*
Y72550D01*
X114635Y72512D01*
D02*
G37*
G36*
X182367Y70115D02*
X182515Y69989D01*
X182586Y69938D01*
X182654Y69895D01*
X182720Y69860D01*
X182784Y69833D01*
X182846Y69814D01*
X182905Y69802D01*
X182962Y69799D01*
X181973Y68809D01*
X181969Y68866D01*
X181958Y68926D01*
X181939Y68987D01*
X181911Y69051D01*
X181876Y69117D01*
X181833Y69186D01*
X181782Y69257D01*
X181724Y69330D01*
X181582Y69482D01*
X182289Y70189D01*
X182367Y70115D01*
D02*
G37*
%LPC*%
G36*
X79100Y67270D02*
Y66902D01*
X79469D01*
X79321Y67123D01*
X79100Y67270D01*
D02*
G37*
G36*
X78100D02*
X77879Y67123D01*
X77731Y66902D01*
X78100D01*
Y67270D01*
D02*
G37*
G36*
X68126Y67315D02*
X61721D01*
Y65614D01*
X68126D01*
Y67315D01*
D02*
G37*
G36*
X79469Y65902D02*
X79100D01*
Y65533D01*
X79321Y65681D01*
X79469Y65902D01*
D02*
G37*
G36*
X78100D02*
X77731D01*
X77879Y65681D01*
X78100Y65533D01*
Y65902D01*
D02*
G37*
%LPD*%
D12*
X39173Y83563D02*
X47058D01*
X50503Y80118D01*
X186713Y21752D02*
X219587Y54626D01*
X164764Y21752D02*
X186713D01*
X219587Y54626D02*
Y56299D01*
X176378Y114567D02*
X179626Y117815D01*
X65158Y114567D02*
X176378D01*
X47638Y99311D02*
X48720Y98228D01*
X39173Y99311D02*
X47638D01*
X8661Y94340D02*
X13632Y99311D01*
X39173D01*
X8661Y48819D02*
X10531Y46949D01*
X29528D01*
X31988Y49409D01*
X8661Y57923D02*
X10215Y56369D01*
X30934D01*
X8661Y67027D02*
X16570Y59119D01*
X17126D01*
X105118Y61909D02*
X105167Y61959D01*
X8661Y76132D02*
X12156Y79626D01*
X39173D01*
X8661Y85236D02*
X10335Y83563D01*
X39173D01*
X20669Y95374D02*
X20768Y95276D01*
X61221Y75689D02*
X64613D01*
X17126Y59119D02*
X102229Y59119D01*
X31988Y49409D02*
X137106D01*
X50295Y43799D02*
X89764D01*
X50374Y39055D02*
X90177D01*
X50394Y34055D02*
X85827D01*
X102229Y59119D02*
X105118Y62008D01*
X8957Y39440D02*
X33296D01*
X30934Y56369D02*
X34154Y53150D01*
X52116Y91585D02*
X52264Y91732D01*
X52362Y83366D02*
X52461Y83465D01*
X52214Y75295D02*
X52362D01*
X47883Y79626D02*
X52214Y75295D01*
X48201Y87626D02*
X48327Y87752D01*
X122776Y143996D02*
X133701Y133071D01*
X132776Y143996D02*
X138976Y137795D01*
X142776Y143996D02*
X143071Y143701D01*
X188386D01*
X90177Y39055D02*
X92421Y36811D01*
X191634Y32480D02*
X191831D01*
X230610Y71260D01*
X85827Y34055D02*
X92323Y27559D01*
X89764Y43799D02*
X92421Y46457D01*
X137106Y49409D02*
X164764Y21752D01*
X44144Y30610D02*
X47884Y26870D01*
X8661Y30610D02*
X44144D01*
X43898Y34449D02*
X54528Y23819D01*
X24409Y34449D02*
X43898D01*
X49685Y21457D02*
X56378Y14764D01*
X48548Y94095D02*
X48819D01*
X47269Y95374D02*
X48548Y94095D01*
X27972Y87500D02*
X27981Y87509D01*
X200787Y51181D02*
X203839D01*
X226673Y74016D01*
Y103445D01*
X197047Y133071D02*
X226673Y103445D01*
X230610Y71260D02*
Y112992D01*
X222146Y21654D02*
Y50984D01*
X215256Y14764D02*
X222146Y21654D01*
X56378Y14764D02*
X215256D01*
X205807Y137795D02*
X230610Y112992D01*
X219587Y56299D02*
X237697Y74410D01*
Y120965D01*
X214961Y143701D02*
X237697Y120965D01*
X188386Y143701D02*
X214961D01*
X138976Y137795D02*
X205807D01*
X133701Y133071D02*
X197047D01*
X27981Y87509D02*
X39164D01*
X51161Y110531D02*
X102756D01*
X39075Y103347D02*
X39173Y103248D01*
X20768Y95276D02*
X39075D01*
X172982Y61959D02*
X173031Y61909D01*
X105167Y61959D02*
X172982D01*
X39173Y95374D02*
X47269D01*
X113878Y96850D02*
X168110D01*
X192126Y72835D01*
X179921Y71850D02*
X182972Y68799D01*
X113878Y71850D02*
X179921D01*
X87500Y79626D02*
X105118Y62008D01*
X39075Y67716D02*
X39173Y67815D01*
X61221Y79626D02*
X87500D01*
X52461Y83465D02*
X61122D01*
X61221Y83563D01*
X39321Y91585D02*
X52116D01*
X39173Y103248D02*
X43878D01*
X51161Y110531D01*
X39173Y91437D02*
X39321Y91585D01*
X39299Y87626D02*
X48201D01*
X39173Y87500D02*
X39299Y87626D01*
X43878Y79626D02*
X47883D01*
X39075Y95276D02*
X39173Y95374D01*
X24409Y91437D02*
X39173D01*
X39164Y87509D02*
X39173Y87500D01*
X8661Y103445D02*
X8760Y103347D01*
X39075D01*
D58*
X10827Y156398D02*
D03*
Y14665D02*
D03*
X239173D02*
D03*
Y156398D02*
D03*
D59*
X192609Y123130D02*
X194193D01*
X223130Y94193D01*
X38976Y123130D02*
X192609D01*
X223130Y80216D02*
Y94193D01*
X39075Y61319D02*
Y67716D01*
D60*
X122776Y143996D02*
D03*
X132776D02*
D03*
X84784D02*
D03*
X94784D02*
D03*
X34075D02*
D03*
D61*
X142776D02*
D03*
X104783D02*
D03*
D62*
X44075D02*
D03*
D63*
X8661Y103445D02*
D03*
Y85236D02*
D03*
Y67027D02*
D03*
Y76132D02*
D03*
Y48819D02*
D03*
Y94340D02*
D03*
Y57923D02*
D03*
Y39715D02*
D03*
Y30610D02*
D03*
D64*
X153051Y106496D02*
D03*
X78600Y66402D02*
D03*
X105413Y69685D02*
D03*
X212239Y96294D02*
D03*
X181428Y97835D02*
D03*
X65158Y114567D02*
D03*
X48720Y98228D02*
D03*
X192609Y123130D02*
D03*
X38700D02*
D03*
X148400Y79902D02*
D03*
X34154Y53150D02*
D03*
X50503Y80118D02*
D03*
X52362Y75295D02*
D03*
X52264Y91732D02*
D03*
X52362Y83366D02*
D03*
X48327Y87752D02*
D03*
X92421Y36811D02*
D03*
X191634Y32480D02*
D03*
X92323Y27559D02*
D03*
X92421Y46457D02*
D03*
X50295Y43799D02*
D03*
X50374Y39055D02*
D03*
X50394Y34055D02*
D03*
X47884Y26870D02*
D03*
X54528Y23819D02*
D03*
X24409Y34449D02*
D03*
X49685Y21457D02*
D03*
X48819Y94095D02*
D03*
X179626Y117815D02*
D03*
X200787Y51181D02*
D03*
X222146Y50984D02*
D03*
X219587Y56299D02*
D03*
X188386Y143701D02*
D03*
X205807Y137795D02*
D03*
X197047Y133071D02*
D03*
X223130Y80216D02*
D03*
X113878Y96850D02*
D03*
X192126Y72835D02*
D03*
X113878Y71850D02*
D03*
X182972Y68799D02*
D03*
X33296Y39440D02*
D03*
X29528Y46949D02*
D03*
X105118Y62008D02*
D03*
X39075Y61319D02*
D03*
X173031Y61909D02*
D03*
X27953Y87519D02*
D03*
X24409Y91437D02*
D03*
X20472Y95177D02*
D03*
X102756Y110531D02*
D03*
D65*
X61221Y103248D02*
D03*
Y99311D02*
D03*
Y95374D02*
D03*
Y91437D02*
D03*
Y87500D02*
D03*
Y83563D02*
D03*
Y79626D02*
D03*
Y75689D02*
D03*
Y71752D02*
D03*
Y67815D02*
D03*
X39173D02*
D03*
Y71752D02*
D03*
Y75689D02*
D03*
Y79626D02*
D03*
Y83563D02*
D03*
Y87500D02*
D03*
Y91437D02*
D03*
Y95374D02*
D03*
Y99311D02*
D03*
Y103248D02*
D03*
M02*
